<?xml version="1.0" encoding="utf-8"?>
<!-- Generator: Adobe Illustrator 24.2.1, SVG Export Plug-In . SVG Version: 6.00 Build 0)  -->
<!DOCTYPE svg PUBLIC "-//W3C//DTD SVG 1.1//EN" "http://www.w3.org/Graphics/SVG/1.1/DTD/svg11.dtd" [
	<!ENTITY ns_extend "http://ns.adobe.com/Extensibility/1.0/">
	<!ENTITY ns_ai "http://ns.adobe.com/AdobeIllustrator/10.0/">
	<!ENTITY ns_graphs "http://ns.adobe.com/Graphs/1.0/">
	<!ENTITY ns_vars "http://ns.adobe.com/Variables/1.0/">
	<!ENTITY ns_imrep "http://ns.adobe.com/ImageReplacement/1.0/">
	<!ENTITY ns_sfw "http://ns.adobe.com/SaveForWeb/1.0/">
	<!ENTITY ns_custom "http://ns.adobe.com/GenericCustomNamespace/1.0/">
	<!ENTITY ns_adobe_xpath "http://ns.adobe.com/XPath/1.0/">
]>
<svg version="1.1" id="Layer_1" xmlns:x="&ns_extend;" xmlns:i="&ns_ai;" xmlns:graph="&ns_graphs;"
	 xmlns="http://www.w3.org/2000/svg" xmlns:xlink="http://www.w3.org/1999/xlink" x="0px" y="0px" viewBox="0 0 1076.6 775"
	 style="enable-background:new 0 0 1076.6 775;" xml:space="preserve">
<style type="text/css">
	.st0{fill:#89CDE5;}
	.st1{fill:#40BEE9;stroke:#FFFFFF;stroke-width:17.3074;stroke-linecap:round;stroke-linejoin:round;stroke-miterlimit:10;}
	.st2{fill:#FFFFFF;stroke:#FFFFFF;stroke-width:15.4837;stroke-linecap:round;stroke-linejoin:round;stroke-miterlimit:10;}
	.st3{fill:#FFFFFF;stroke:#FFFFFF;stroke-width:0.9316;stroke-miterlimit:10;}
	.st4{fill-rule:evenodd;clip-rule:evenodd;fill:#FFFFFF;stroke:#FFFFFF;stroke-width:0.9316;stroke-miterlimit:10;}
</style>
<metadata>
	<sfw  xmlns="&ns_sfw;">
		<slices></slices>
		<sliceSourceBounds  bottomLeftOrigin="true" height="775" width="1076.6" x="1760.4" y="-3398"></sliceSourceBounds>
	</sfw>
</metadata>
<g>
	<path class="st0" d="M900,205.8l8.6,493.4c0,41.7-34.1,75.8-75.8,75.8h-757C34.1,775,0,740.8,0,699.1V170.8
		C0,129.1,34.1,95,75.8,95H830c-10.1,11.4-16.3,26.3-16.3,42.7c0,35.4,29,64.4,64.4,64.4C889.1,202,890.9,210.7,900,205.8z"/>
	<path class="st1" d="M967.3,320.5v312.3c0,39.2-32.1,71.3-71.3,71.3H173.2c-39.2,0-71.3-32.1-71.3-71.3V83.2
		c0-39.2,32.1-71.3,71.3-71.3h604.6"/>
	<g>
		<line class="st2" x1="193.7" y1="395.9" x2="193.7" y2="582.4"/>
		<line class="st2" x1="229.5" y1="395.9" x2="229.5" y2="482.2"/>
		<line class="st2" x1="265.2" y1="395.9" x2="265.2" y2="462"/>
		<line class="st2" x1="301" y1="395.9" x2="301" y2="462"/>
		<line class="st2" x1="372.4" y1="351.8" x2="372.4" y2="417.9"/>
		<line class="st2" x1="551.1" y1="351.8" x2="551.1" y2="417.9"/>
		<line class="st2" x1="622.6" y1="252.6" x2="622.6" y2="318.8"/>
		<line class="st2" x1="658.3" y1="252.6" x2="658.3" y2="318.8"/>
		<line class="st2" x1="694" y1="275.2" x2="694" y2="324.5"/>
		<line class="st2" x1="729.8" y1="178.7" x2="729.8" y2="324.5"/>
		<line class="st2" x1="765.5" y1="257.9" x2="765.5" y2="324.5"/>
		<line class="st2" x1="801.2" y1="257.9" x2="801.2" y2="324.5"/>
		<line class="st2" x1="586.8" y1="229" x2="586.8" y2="417.9"/>
		<line class="st2" x1="837" y1="229" x2="837" y2="417.9"/>
		<line class="st2" x1="408.2" y1="275.2" x2="408.2" y2="374.9"/>
		<line class="st2" x1="443.9" y1="292" x2="443.9" y2="358.1"/>
		<line class="st2" x1="479.6" y1="318.8" x2="479.6" y2="384.9"/>
		<line class="st2" x1="515.4" y1="335" x2="515.4" y2="462"/>
		<line class="st2" x1="336.7" y1="240.3" x2="336.7" y2="544.4"/>
	</g>
	<path class="st3" d="M336.8,337.1L336.8,337.1c-8.2,0-15-6.7-15-15V286c0-8.2,6.7-15,15-15h0c8.2,0,15,6.7,15,15v36.2
		C351.7,330.4,345,337.1,336.8,337.1z"/>
	<path class="st3" d="M515.4,451L515.4,451c-8.2,0-15-6.7-15-15v-36.2c0-8.2,6.7-15,15-15l0,0c8.2,0,15,6.7,15,15V436
		C530.3,444.2,523.6,451,515.4,451z"/>
	<path class="st3" d="M193.7,548.3L193.7,548.3c-8.2,0-15-6.7-15-15v-36.2c0-8.2,6.7-15,15-15h0c8.2,0,15,6.7,15,15v36.2
		C208.7,541.6,202,548.3,193.7,548.3z"/>
	<path class="st3" d="M729.8,278.6L729.8,278.6c-8.2,0-15-6.7-15-15v-36.2c0-8.2,6.7-15,15-15h0c8.2,0,15,6.7,15,15v36.2
		C744.7,271.9,738,278.6,729.8,278.6z"/>
	<path class="st3" d="M837,401.1L837,401.1c-8.2,0-15-6.7-15-15V350c0-8.2,6.7-15,15-15l0,0c8.2,0,15,6.7,15,15v36.2
		C851.9,394.4,845.2,401.1,837,401.1z"/>
	<path class="st4" d="M1066.5,144.3l-35.4,35.3c-6.1,6.1-13.9,9.3-21.8,9.7c-0.5,0.1-1.1,0.1-1.8,0.1c-9.5,0-17.2-7.7-17.2-17.2
		v-8.6c0-4.7-3.8-8.6-8.6-8.6h-68.7c-4.7,0-8.6-3.8-8.6-8.6c0-4.7,3.8-8.6,8.6-8.6h73c11.9,0,21.5,9.6,21.5,21.5v4.2
		c0,3.6,2.9,6.4,6.4,6.4c1.6,0,3.1-0.6,4.2-1.6c0.4-0.3,0.7-0.5,1.1-0.9l35-35c6.5-6.5,6.5-16.9,0-23.4l-35-35
		c-0.5-0.5-1.2-1-1.8-1.4c-1-0.7-2.2-1.2-3.5-1.2c-3.6,0-6.4,2.9-6.4,6.4v4.2c0,11.9-9.6,21.5-21.5,21.5h-73h-4.3h-12.9
		c-4.7,0-8.6,3.8-8.6,8.6v8.6c0,9.5-7.7,17.2-17.2,17.2c-0.7,0-1.3-0.1-1.8-0.2c-7.9-0.4-15.8-3.6-21.8-9.7l-35.4-35.3
		c-6.5-6.5-9.7-15-9.7-23.6c0-8.5,3.2-17.1,9.7-23.6l35.4-35.3c6.1-6.1,13.9-9.3,21.8-9.7c0.5-0.1,1.1-0.2,1.8-0.2
		c9.5,0,17.2,7.7,17.2,17.2v8.6c0,4.7,3.8,8.6,8.6,8.6h58.8c4.7,0,8.6,3.8,8.6,8.6s-3.8,8.6-8.6,8.6h-63.1
		c-11.9,0-21.5-9.6-21.5-21.5v-4.2c0-3.6-2.9-6.4-6.4-6.4c-1.6,0-3.1,0.6-4.2,1.6c-0.4,0.3-0.7,0.5-1.1,0.9l-35,35
		c-6.5,6.5-6.5,16.9,0,23.4l35,35c0.5,0.5,1.2,1,1.8,1.4c1,0.7,2.2,1.2,3.5,1.2c3.6,0,6.4-2.9,6.4-6.4v-4.2
		c0-11.9,9.6-21.5,21.5-21.5h21.5h25.8h43c4.7,0,8.6-3.8,8.6-8.6v-8.6c0-9.5,7.7-17.2,17.2-17.2c0.7,0,1.3,0.1,1.8,0.2
		c7.9,0.4,15.8,3.6,21.8,9.7l35.4,35.3c6.5,6.5,9.7,15,9.7,23.6S1073,137.8,1066.5,144.3z"/>
</g>
<circle class="st4" cx="967.3" cy="289.4" r="8.7"/>
</svg>
