<?xml version="1.0" encoding="utf-8"?>
<!-- Generator: Adobe Illustrator 24.2.1, SVG Export Plug-In . SVG Version: 6.00 Build 0)  -->
<!DOCTYPE svg PUBLIC "-//W3C//DTD SVG 1.1//EN" "http://www.w3.org/Graphics/SVG/1.1/DTD/svg11.dtd" [
	<!ENTITY ns_extend "http://ns.adobe.com/Extensibility/1.0/">
	<!ENTITY ns_ai "http://ns.adobe.com/AdobeIllustrator/10.0/">
	<!ENTITY ns_graphs "http://ns.adobe.com/Graphs/1.0/">
	<!ENTITY ns_vars "http://ns.adobe.com/Variables/1.0/">
	<!ENTITY ns_imrep "http://ns.adobe.com/ImageReplacement/1.0/">
	<!ENTITY ns_sfw "http://ns.adobe.com/SaveForWeb/1.0/">
	<!ENTITY ns_custom "http://ns.adobe.com/GenericCustomNamespace/1.0/">
	<!ENTITY ns_adobe_xpath "http://ns.adobe.com/XPath/1.0/">
]>
<svg version="1.1" id="Layer_1" xmlns:x="&ns_extend;" xmlns:i="&ns_ai;" xmlns:graph="&ns_graphs;"
	 xmlns="http://www.w3.org/2000/svg" xmlns:xlink="http://www.w3.org/1999/xlink" x="0px" y="0px" viewBox="0 0 745.5 934.1"
	 style="enable-background:new 0 0 745.5 934.1;" xml:space="preserve">
<style type="text/css">
	.st0{fill:#89CDE5;}
	.st1{fill:#3FB7E1;stroke:#FFFFFF;stroke-width:18;stroke-linecap:round;stroke-linejoin:round;stroke-miterlimit:10;}
	.st2{fill:#FFFFFF;}
	.st3{fill-rule:evenodd;clip-rule:evenodd;fill:#3FB7E1;}
</style>
<metadata>
	<sfw  xmlns="&ns_sfw;">
		<slices></slices>
		<sliceSourceBounds  bottomLeftOrigin="true" height="934.1" width="745.5" x="1555.7" y="-3087.5"></sliceSourceBounds>
	</sfw>
</metadata>
<g>
	<path class="st0" d="M585,640.6H458.1c-34.6,0-63-28.3-63-63v-47.9c0-34.6,28.3-63,63-63H648v110.9
		C648,612.3,619.6,640.6,585,640.6z"/>
	<circle class="st0" cx="647.3" cy="39.1" r="39.1"/>
	<path class="st0" d="M559.4,931.3c0-48.9,39.6-88.5,88.5-88.5s88.5,39.6,88.5,88.5"/>
	<path class="st1" d="M570.4,874c0,49.7-42.1,48-93.6,48c-51,0-102,0.1-153.1,0.1c-25.8,0-51.6,0.1-77.3,0.2
		c-23.2,0.1-50.4,4-72.7-2.9c-5.8-1.8-11.3-4.5-15.9-8.4c-24.9-20.6-3.5-51.9,7.4-73.9c20.9-42.4,40.7-85.4,63.7-126.8
		c10.5-18.8,23.8-36.5,46.3-42.1"/>
	<path class="st1" d="M112.8,511.7c-1.6-2.6-3.1-5.2-4.4-8C82.3,452.3,59,399.4,38.6,345.5c-4.1-10.8-8.1-22.2-6.2-33.5
		c4.3-25.8,36-33.6,57-23.7c16.6,7.8,26.5,25.1,32.7,42.3c6.2,17.2,9.6,35.6,18.3,51.7c8.7,16.2,22,29.3,35.4,41.8
		c13.4,12.5,27.3,24.9,37.3,40.3c10,15.4,16,34.4,11.7,52.2c-6.1,25.4-29.4,36.9-54.1,34.1C145,547.7,125.8,532.8,112.8,511.7z"/>
	<path class="st1" d="M13.8,237.1c-0.7-17.1-1.4-34.3-2.2-51.4c-0.5-11.3-1-22.7-1.4-34c-0.2-4.4-2.1-13.1-0.8-17.5
		c3-9.6,19.9-9.6,27.8-7.5c10,2.6,18.6,9.2,25.4,16.9c22.9,25.7,27.3,66.1,10.5,96.1c-3.8,6.8-8.6,13.1-15.3,17.2
		C41.7,267,14.7,257.9,13.8,237.1z"/>
	<path class="st0" d="M666.1,33.3v814.8c0,7.5-6.1,13.6-13.6,13.6h-9c-7.5,0-13.6-6.1-13.6-13.6V33.3c0-7.5,6.1-13.6,13.6-13.6h9
		C660,19.7,666.1,25.8,666.1,33.3z"/>
	<path class="st0" d="M658.1,47.7l-117,62.6c-3.4,1.8-7.8,0.5-9.6-2.9l-5.8-10.8c-1.8-3.4-0.5-7.8,2.9-9.6l117-62.6
		c3.4-1.8,7.8-0.5,9.6,2.9l5.8,10.8C662.8,41.5,661.5,45.9,658.1,47.7z"/>
	<path class="st0" d="M541.2,419.9l13.1,52.3c0,5.6-17.8,3.1-23.4,3.1l0,0c-5.6,0-24.7,12.2-24.7,6.6l14.4-46.4
		c0-2.9-1.7-5.6-4.4-6.8l-16.8-7.8c-1.1-0.5-1.6-1.9-1.1-3l6.8-14.4c0.5-1.1,1.9-1.6,3-1.1l31.8,14.9
		C541.1,417.6,541.6,418.8,541.2,419.9z"/>
	<circle class="st1" cx="248.4" cy="596.3" r="39.1"/>
	<path class="st1" d="M680.8,675.8H375.1c-30.6,0-55.7-25.1-55.7-55.7v0c0-30.6,25.1-55.7,55.7-55.7h305.7
		c30.6,0,55.7,25.1,55.7,55.7v0C736.5,650.8,711.5,675.8,680.8,675.8z"/>
	<path class="st2" d="M731.3,934.1H16.8c-4.3,0-7.8-3.5-7.8-7.8l0,0c0-4.3,3.5-7.8,7.8-7.8h714.5c4.3,0,7.8,3.5,7.8,7.8l0,0
		C739,930.6,735.6,934.1,731.3,934.1z"/>
	<path class="st0" d="M412.4,94c34.2-35,90.3-35.6,125.2-1.4c35,34.2,35.6,90.3,1.4,125.2"/>
</g>
<circle class="st3" cx="570.4" cy="839.8" r="9.4"/>
</svg>
