<?xml version="1.0" encoding="utf-8"?>
<!-- Generator: Adobe Illustrator 22.1.0, SVG Export Plug-In . SVG Version: 6.00 Build 0)  -->
<svg version="1.1" id="Layer_1" xmlns="http://www.w3.org/2000/svg" xmlns:xlink="http://www.w3.org/1999/xlink" x="0px" y="0px"
	 viewBox="0 0 81 81" style="enable-background:new 0 0 81 81;" xml:space="preserve">
<style type="text/css">
	.st0{fill:none;stroke:#000000;stroke-linecap:round;stroke-linejoin:round;stroke-miterlimit:10;}
</style>
<path class="st0" d="M38,39.7c-1.6,0.9-3.2,1.5-5,1.5c-2.2,0-4.4-0.8-6.3-2.3v0.5c0,1.8-0.7,3.5-2,4.7c-0.6,0.6-1.4,1.1-2.2,1.4
	L3.9,53.3c-2.1,2.1-3.4,5-3.4,8.1v19.1H38V39.7z"/>
<path class="st0" d="M38,1.4c-1.6-0.6-3.2-0.9-5-0.9c-7.3,0-13.2,5.4-14.1,12.5V17c-1.8,0.7-3.2,2.4-3.2,4.5c0,4,2,7.3,4.6,7.4
	c2.3,7.2,7.1,12.2,12.7,12.2c1.8,0,3.4-0.5,5-1.4L38,1.4L38,1.4z"/>
<path class="st0" d="M67.8,44l-2.7-2.7L67.8,44z"/>
<path class="st0" d="M71.6,76.7c1.5-0.6,3.1,0,3.9,1.3c1-0.7,1.8-1.6,2.5-2.5c-1.3-0.8-1.9-2.4-1.3-3.9c0.6-1.5,2.2-2.2,3.7-1.8
	c0.1-0.6,0.1-1.2,0.1-1.8c0-0.6-0.1-1.2-0.1-1.8c-1.5,0.4-3.1-0.3-3.7-1.8c-0.6-1.5,0-3.1,1.3-3.9c-0.7-1-1.6-1.8-2.5-2.5
	c-0.8,1.3-2.4,1.9-3.9,1.3c-1.5-0.6-2.2-2.2-1.8-3.7c-0.6-0.1-1.2-0.1-1.8-0.1c-0.6,0-1.2,0.1-1.8,0.1c0.4,1.5-0.3,3.1-1.8,3.7
	c-1.5,0.6-3.1,0-3.9-1.3c-1,0.7-1.8,1.6-2.5,2.5c1.3,0.8,1.9,2.4,1.3,3.9c-0.6,1.5-2.2,2.2-3.7,1.8c-0.1,0.6-0.1,1.2-0.1,1.8
	c0,0.6,0.1,1.2,0.1,1.8c1.5-0.4,3.1,0.3,3.7,1.8c0.6,1.5,0,3.1-1.3,3.9c0.7,1,1.6,1.8,2.5,2.5c0.8-1.3,2.4-1.9,3.9-1.3
	c1.5,0.6,2.2,2.2,1.8,3.7c0.6,0.1,1.2,0.1,1.8,0.1c0.6,0,1.2-0.1,1.8-0.1C69.4,78.9,70.1,77.3,71.6,76.7z"/>
<path class="st0" d="M77.1,27.2v-3.3V27.2z"/>
<path class="st0" d="M69.3,0.9c-0.5-0.5-1.3-0.5-1.7,0l0,0L49.4,19l-3.9,6.5l6.5-3.9L70.1,3.5l0,0c0.5-0.5,0.5-1.3,0-1.7L69.3,0.9z"
	/>
<path class="st0" d="M65.8,2.6l2.6,2.6L65.8,2.6z"/>
<path class="st0" d="M64.1,4.3l2.6,2.6L64.1,4.3z"/>
<path class="st0" d="M49.4,19l2.6,2.6L49.4,19z"/>
<path class="st0" d="M74.4,47.1L62,34.7c-1.5-1.5-3.8-1.5-5.3,0l0,0L38,53.5V69l7.2,7.2c1.5,1.5,3.8,1.5,5.3,0l6.5-6.5
	c-0.5-0.1-0.9-0.1-1.4,0c-0.1-0.6-0.1-1.2-0.1-1.8c0-0.6,0.1-1.2,0.1-1.8c1.5,0.4,3.1-0.3,3.7-1.8c0.6-1.5,0-3.1-1.3-3.9
	c0.7-1,1.6-1.8,2.5-2.5c0.8,1.3,2.4,1.9,3.9,1.3c1.5-0.6,2.2-2.2,1.8-3.7c0.6-0.1,1.2-0.1,1.8-0.1c0.6,0,1.2,0.1,1.8,0.1
	c-0.1,0.5-0.1,1,0,1.4l4.7-4.7h0C75.9,50.9,75.9,48.6,74.4,47.1z"/>
<path class="st0" d="M55.8,35.6L38,53.5v6.7l14.3,14.3l4.8-4.8c-0.5-0.1-0.9-0.1-1.4,0c-0.1-0.6-0.1-1.2-0.1-1.8
	c0-0.6,0.1-1.2,0.1-1.8c1.5,0.4,3.1-0.3,3.7-1.8c0.6-1.5,0-3.1-1.3-3.9c0.7-1,1.6-1.8,2.5-2.5c0.8,1.3,2.4,1.9,3.9,1.3
	c1.5-0.6,2.2-2.2,1.8-3.7c0.6-0.1,1.2-0.1,1.8-0.1c0.6,0,1.2,0.1,1.8,0.1c-0.1,0.5-0.1,1,0,1.4l3.8-3.8L55.8,35.6z"/>
<path class="st0" d="M77.2,7.3H66.3L52,21.6l-6.5,3.9l3.9-6.5L61.1,7.3H38v36.4h9.8l9-9l0,0c1.5-1.5,3.8-1.5,5.3,0l9,9h6.2
	c1.8,0,3.3-1.5,3.3-3.3V10.6C80.5,8.8,79,7.3,77.2,7.3z"/>
<path class="st0" d="M64,9.6l-12,12l-6.5,3.9l3.9-6.5l9.4-9.4H38v31.8h12l6.7-6.7l0,0c1.5-1.5,3.8-1.5,5.3,0l6.7,6.7h5V9.6H64z"/>
</svg>
