<?xml version="1.0" encoding="utf-8"?>
<!-- Generator: Adobe Illustrator 23.0.3, SVG Export Plug-In . SVG Version: 6.00 Build 0)  -->
<!DOCTYPE svg PUBLIC "-//W3C//DTD SVG 1.1//EN" "http://www.w3.org/Graphics/SVG/1.1/DTD/svg11.dtd" [
	<!ENTITY ns_extend "http://ns.adobe.com/Extensibility/1.0/">
	<!ENTITY ns_ai "http://ns.adobe.com/AdobeIllustrator/10.0/">
	<!ENTITY ns_graphs "http://ns.adobe.com/Graphs/1.0/">
	<!ENTITY ns_vars "http://ns.adobe.com/Variables/1.0/">
	<!ENTITY ns_imrep "http://ns.adobe.com/ImageReplacement/1.0/">
	<!ENTITY ns_sfw "http://ns.adobe.com/SaveForWeb/1.0/">
	<!ENTITY ns_custom "http://ns.adobe.com/GenericCustomNamespace/1.0/">
	<!ENTITY ns_adobe_xpath "http://ns.adobe.com/XPath/1.0/">
]>
<svg version="1.1" id="Layer_1" xmlns:x="&ns_extend;" xmlns:i="&ns_ai;" xmlns:graph="&ns_graphs;"
	 xmlns="http://www.w3.org/2000/svg" xmlns:xlink="http://www.w3.org/1999/xlink" x="0px" y="0px" viewBox="0 0 33.4 38.9"
	 style="enable-background:new 0 0 33.4 38.9;" xml:space="preserve">
<style type="text/css">
	.st0{fill:#606060;}
</style>
<metadata>
	<sfw  xmlns="&ns_sfw;">
		<slices></slices>
		<sliceSourceBounds  bottomLeftOrigin="true" height="38.7" width="33.2" x="-10.3" y="14.2"></sliceSourceBounds>
	</sfw>
</metadata>
<g>
	<path class="st0" d="M21,34.3l0.6,1.7c-2.7,1.8-4.8,2.9-4.8,2.9s-2.3-1.2-5.2-3.2l0.5-1.4l0.6-1.6l1.1-3l0.5-1.4l1.7-4.8
		c0,0,0.6-1.6,0.6-1.6l0.1-0.2c0,0,0-0.1,0-0.1l0,0l0,0c0,0,0,0,0.1,0l0,0l0,0l0.1,0.1l0.1,0.5l0.3,0.9l1.1,3.5l1,3l0,0.1L21,34.3z"
		/>
	<path class="st0" d="M33.4,5.7v13.8c0,4.6-2.8,8.6-6.1,11.9l-1-1.7L26,29.1l-1.5-3l-1.3-2.6l-0.1-0.3L22.2,21l-0.8-2.4l-0.8-2.3
		l-0.8-2.6l-0.8-2.8l-0.5-1.8l-0.2-0.9l0-0.2l-0.8-2.9l-0.5-1.5L16,6.5L15.5,8l-0.3,1.1l-0.5,1.5l-1,3.1l-1.2,3.4l-1,2.8l-1.1,2.7
		l-0.1,0.1l-1.1,2.5l-1.4,2.7l-1,1.8l-0.2,0.4l-0.1,0.1l-0.5,0.9c0,0,0,0,0,0c-3.2-3.2-5.9-7.2-5.9-11.6V5.7l16.5-5.5L33.4,5.7z"/>
</g>
</svg>
