<?xml version="1.0" encoding="utf-8"?>
<!-- Generator: Adobe Illustrator 24.2.1, SVG Export Plug-In . SVG Version: 6.00 Build 0)  -->
<!DOCTYPE svg PUBLIC "-//W3C//DTD SVG 1.1//EN" "http://www.w3.org/Graphics/SVG/1.1/DTD/svg11.dtd" [
	<!ENTITY ns_extend "http://ns.adobe.com/Extensibility/1.0/">
	<!ENTITY ns_ai "http://ns.adobe.com/AdobeIllustrator/10.0/">
	<!ENTITY ns_graphs "http://ns.adobe.com/Graphs/1.0/">
	<!ENTITY ns_vars "http://ns.adobe.com/Variables/1.0/">
	<!ENTITY ns_imrep "http://ns.adobe.com/ImageReplacement/1.0/">
	<!ENTITY ns_sfw "http://ns.adobe.com/SaveForWeb/1.0/">
	<!ENTITY ns_custom "http://ns.adobe.com/GenericCustomNamespace/1.0/">
	<!ENTITY ns_adobe_xpath "http://ns.adobe.com/XPath/1.0/">
]>
<svg version="1.1" id="Layer_1" xmlns:x="&ns_extend;" xmlns:i="&ns_ai;" xmlns:graph="&ns_graphs;"
	 xmlns="http://www.w3.org/2000/svg" xmlns:xlink="http://www.w3.org/1999/xlink" x="0px" y="0px" viewBox="0 0 120.7 120.7"
	 style="enable-background:new 0 0 120.7 120.7;" xml:space="preserve">
<style type="text/css">
	.st0{fill:#EEEEEE;}
</style>
<metadata>
	<sfw  xmlns="&ns_sfw;">
		<slices></slices>
		<sliceSourceBounds  bottomLeftOrigin="true" height="120.7" width="120.7" x="0" y="0"></sliceSourceBounds>
	</sfw>
</metadata>
<path class="st0" d="M120.7,60.3c0,33.3-27,60.4-60.3,60.4c-18.1,0-34.3-7.9-45.3-20.5c-7.1-7.9-12-17.7-14-28.4
	C0.4,68.1,0,64.3,0,60.3C0,27,27,0,60.3,0C79.7,0,97,9.2,108,23.4c6.4,8.3,10.8,18.3,12.2,29.2C120.5,55.1,120.7,57.7,120.7,60.3z"
	/>
<path d="M60.3,23.5L26.9,34.6v27.9c0,22.3,33.5,39.1,33.5,39.1s33.5-16.7,33.5-39.1V34.6L60.3,23.5z M76.6,54.9
	c-0.5,1.8-1.3,3.5-2.7,5.1c-0.1,0.1-0.1,0.1-0.2,0.2c-0.4,0.3-0.5,0.7-0.4,1.2c0.4,2.6,0.2,5.3-0.2,8C73,69.6,73,69.9,73,70.2
	c-0.3,1.8-0.8,3.6-1.5,5.3c-0.4,1.1-0.9,2.2-1.7,3.2c-0.4,0.4-0.8,0.9-1.4,1.2c-0.6,0.3-1.9,0.3-2.3-0.1c-0.3-0.3-0.4-0.7-0.5-1
	c-0.2-1.2-0.1-2.5-0.1-3.7c0-0.6-0.1-1.2-0.1-1.8c-0.1-0.6-0.2-1.3-0.3-1.9c-0.3-1.4-0.8-2.8-1.5-4.1c-0.3-0.6-0.7-1.2-1-1.7
	c-0.3-0.7-0.9-1.1-1.8-1.3h-0.4c-0.9,0-1.7,0.3-2.2,1.1c-1.3,2.1-2.3,4.2-2.7,6.6c-0.1,0.4-0.1,0.8-0.2,1.3
	c-0.1,1.5-0.1,2.9-0.1,4.4c0,0.4,0,0.8-0.1,1.2c-0.2,0.5-0.4,0.9-1.1,1.2c-0.8,0.2-1.5,0-2.1-0.5c-0.8-0.7-1.3-1.5-1.8-2.3
	c-0.7-1.4-1.2-2.8-1.6-4.2c-0.3-0.9-0.5-1.8-0.7-2.8c-0.2-0.9-0.3-1.8-0.4-2.7c-0.2-1.7-0.3-3.4-0.2-5.1c0.1-0.5,0.1-1,0.3-1.5
	c0-0.2,0-0.3-0.1-0.4c-1.6-1.5-2.5-3.2-3.1-5.1c-0.6-1.7-0.9-3.6-0.9-5.4c-0.1-1.8,0.1-3.7,0.9-5.5c0.6-1.3,1.5-2.5,3.1-3.3
	c1.3-0.6,2.7-0.8,4.2-0.8c2.6,0,5,0.7,7.3,1.6c0.4,0.2,0.9,0.4,1.4,0.6c0,0.1,0.1,0.1,0.1,0.1c2.3-1.1,4.7-2,7.5-2.1
	c1.2-0.1,2.3-0.1,3.5,0.1c2.3,0.3,3.8,1.3,4.7,2.9c0.7,1.2,1,2.4,1.2,3.7C77.5,49.7,77.4,52.4,76.6,54.9z"/>
</svg>
