<?xml version="1.0" encoding="utf-8"?>
<!-- Generator: Adobe Illustrator 23.0.2, SVG Export Plug-In . SVG Version: 6.00 Build 0)  -->
<!DOCTYPE svg PUBLIC "-//W3C//DTD SVG 1.1//EN" "http://www.w3.org/Graphics/SVG/1.1/DTD/svg11.dtd" [
	<!ENTITY ns_extend "http://ns.adobe.com/Extensibility/1.0/">
	<!ENTITY ns_ai "http://ns.adobe.com/AdobeIllustrator/10.0/">
	<!ENTITY ns_graphs "http://ns.adobe.com/Graphs/1.0/">
	<!ENTITY ns_vars "http://ns.adobe.com/Variables/1.0/">
	<!ENTITY ns_imrep "http://ns.adobe.com/ImageReplacement/1.0/">
	<!ENTITY ns_sfw "http://ns.adobe.com/SaveForWeb/1.0/">
	<!ENTITY ns_custom "http://ns.adobe.com/GenericCustomNamespace/1.0/">
	<!ENTITY ns_adobe_xpath "http://ns.adobe.com/XPath/1.0/">
]>
<svg version="1.1" id="Layer_1" xmlns:x="&ns_extend;" xmlns:i="&ns_ai;" xmlns:graph="&ns_graphs;"
	 xmlns="http://www.w3.org/2000/svg" xmlns:xlink="http://www.w3.org/1999/xlink" x="0px" y="0px" viewBox="0 0 795 925"
	 style="enable-background:new 0 0 795 925;" xml:space="preserve">
<style type="text/css">
	.st0{fill:url(#SVGID_1_);}
	.st1{fill:url(#SVGID_2_);}
</style>
<metadata>
	<sfw  xmlns="&ns_sfw;">
		<slices></slices>
		<sliceSourceBounds  bottomLeftOrigin="true" height="910.7" width="781.2" x="588.4" y="-995.4"></sliceSourceBounds>
	</sfw>
</metadata>
<g>
	<linearGradient id="SVGID_1_" gradientUnits="userSpaceOnUse" x1="273.9385" y1="716.4374" x2="510.0296" y2="716.4374">
		<stop  offset="0" style="stop-color:#004C67"/>
		<stop  offset="1" style="stop-color:#001833"/>
	</linearGradient>
	<path class="st0" d="M496,812.4l14,38.9c-63.6,43.5-113,68.1-113,68.1s-54.7-27.5-123.1-75.4l12.3-33.3l13.6-36.8l25.6-69.7
		l12-32.7l39-113c0,0,13.2-37.1,13.2-37.2l2-4c0.2-0.3,0.8-1.4,1.2-1.8l1-1.1l0.4-0.4c0.4-0.2,0.8-0.4,1.2-0.4l0.9,0.1l0.9,0.6
		l1.7,3.2l3.5,10.9l7.6,21.5l26.6,81.2l23.1,71.7l0.5,1.4L496,812.4z"/>
	<linearGradient id="SVGID_2_" gradientUnits="userSpaceOnUse" x1="6.3776" y1="375.5147" x2="787.6224" y2="375.5147">
		<stop  offset="0" style="stop-color:#004C67"/>
		<stop  offset="1" style="stop-color:#001833"/>
	</linearGradient>
	<path class="st1" d="M787.6,138.1v325.3c0,107.1-65.7,203.1-143.2,279l-23.1-39.5l-7.9-13.6l-36-70.7l-30-62.1l-3.4-8.2l-20.3-48.5
		l-20-56.1l-18.3-54.8l-19.9-61.9l-19.2-65.4l-11.6-43.4L429,197l-1-3.6l-18.3-68.2l-10.8-36.1l-21.2,68.4l-10.8,35.9l-7.6,24.9
		l-10.6,35l-23.3,72.6l-27.5,81L275,473.2l-26.3,63.7l-1.3,2.8l-26.9,58.1L188,662.4l-24.7,41.8l-5.7,9.7l-1.6,2.6l-11.8,20.1
		c0,0,0,0-0.1-0.1C69,661.4,6.4,567.5,6.4,463.4V138.1L395.8,8.6L787.6,138.1z"/>
</g>
</svg>
