<?xml version="1.0" encoding="utf-8"?>
<!-- Generator: Adobe Illustrator 23.0.3, SVG Export Plug-In . SVG Version: 6.00 Build 0)  -->
<!DOCTYPE svg PUBLIC "-//W3C//DTD SVG 1.1//EN" "http://www.w3.org/Graphics/SVG/1.1/DTD/svg11.dtd" [
	<!ENTITY ns_extend "http://ns.adobe.com/Extensibility/1.0/">
	<!ENTITY ns_ai "http://ns.adobe.com/AdobeIllustrator/10.0/">
	<!ENTITY ns_graphs "http://ns.adobe.com/Graphs/1.0/">
	<!ENTITY ns_vars "http://ns.adobe.com/Variables/1.0/">
	<!ENTITY ns_imrep "http://ns.adobe.com/ImageReplacement/1.0/">
	<!ENTITY ns_sfw "http://ns.adobe.com/SaveForWeb/1.0/">
	<!ENTITY ns_custom "http://ns.adobe.com/GenericCustomNamespace/1.0/">
	<!ENTITY ns_adobe_xpath "http://ns.adobe.com/XPath/1.0/">
]>
<svg version="1.1" id="Layer_1" xmlns:x="&ns_extend;" xmlns:i="&ns_ai;" xmlns:graph="&ns_graphs;"
	 xmlns="http://www.w3.org/2000/svg" xmlns:xlink="http://www.w3.org/1999/xlink" x="0px" y="0px" viewBox="0 0 81 81"
	 style="enable-background:new 0 0 81 81;" xml:space="preserve">
<style type="text/css">
	.st0{fill:none;stroke:#000000;stroke-linecap:round;stroke-linejoin:round;stroke-miterlimit:10;}
	.st1{fill:none;stroke:#000000;stroke-miterlimit:10;}
</style>
<metadata>
	<sfw  xmlns="&ns_sfw;">
		<slices></slices>
		<sliceSourceBounds  bottomLeftOrigin="true" height="81" width="80.3" x="0" y="0"></sliceSourceBounds>
	</sfw>
</metadata>
<path class="st0" d="M38,39.7c-1.6,0.9-3.2,1.5-5,1.5c-2.2,0-4.4-0.8-6.3-2.3v0.5c0,1.8-0.7,3.5-2,4.7c-0.6,0.6-1.4,1.1-2.2,1.4
	L3.9,53.3c-2.1,2.1-3.4,5-3.4,8.1v19.1H38V39.7z"/>
<path class="st0" d="M38,1.4c-1.6-0.6-3.2-0.9-5-0.9c-7.3,0-13.2,5.4-14.1,12.5v4c-1.8,0.7-3.2,2.4-3.2,4.5c0,4,2,7.3,4.6,7.4
	c2.3,7.2,7.1,12.2,12.7,12.2c1.8,0,3.4-0.5,5-1.4V1.4L38,1.4z"/>
<path class="st0" d="M38,53.5V69"/>
<path class="st0" d="M38,53.5v6.7"/>
<path class="st0" d="M38,7.3v36.4"/>
<path class="st0" d="M38,9.6v31.8"/>
<g>
	<path class="st1" d="M53.8,40.2l-1.4,1.4c-0.8,0.8-2.1,0.8-2.8,0L39.3,31.3c-0.8-0.8-0.8-2.1,0-2.8l1.4-1.4c0.8-0.8,2.1-0.8,2.8,0
		l10.3,10.3C54.5,38.1,54.5,39.4,53.8,40.2z"/>
	<path class="st1" d="M48.6,40.7l-0.6,0.6c-0.8,0.8-2.1,0.8-2.8,0l-5.7-5.7c-0.8-0.8-0.8-2.1,0-2.8l0.6-0.6"/>
	<path class="st1" d="M70.7,23.3l1.4-1.4c0.8-0.8,0.8-2.1,0-2.8L61.8,8.8C61,8,59.8,8,59,8.8l-1.4,1.4c-0.8,0.8-0.8,2.1,0,2.8
		l10.3,10.3C68.6,24.1,69.9,24.1,70.7,23.3z"/>
	<path class="st1" d="M62.7,9.6l0.6-0.6c0.8-0.8,2.1-0.8,2.8,0l5.7,5.7c0.8,0.8,0.8,2.1,0,2.8l-0.6,0.6"/>
	<g>
		<path class="st1" d="M38,6.4C44.4,0.8,54.1,1,60.2,7l2.4,2.4"/>
		<line class="st1" x1="39.9" y1="32.4" x2="38" y2="30.5"/>
	</g>
	<g>
		<path class="st1" d="M71.5,22.4l1.4,1.4c1.9,1.9,1.9,5.1,0,7.1L68,35.8"/>
	</g>
	<circle class="st1" cx="66" cy="37.5" r="3"/>
</g>
<g>
	<path class="st1" d="M38,60.1l0.6-0.5l17.8-16.7l0.2-0.2c2-1.9,5.2-1.8,7.1,0.2l6.4,6.8c1.9,2,1.8,5.2-0.2,7.1l-0.2,0.2l-4.1,3.8
		L65,61.2"/>
	<path class="st1" d="M38,68.4l5.7,6c1,1.1,2.4,1.6,3.8,1.6c0.4,0,0.3,0,0.6-0.2"/>
	<polyline class="st1" points="53.1,72.4 53.6,71.9 58.7,67.2 59.2,66.8 	"/>
	<line class="st1" x1="56.3" y1="42.8" x2="69.6" y2="57"/>
	<line class="st1" x1="63.4" y1="46" x2="66.9" y2="49.7"/>
	<polyline class="st1" points="38.6,59.6 50.1,71.8 50.4,72.2 	"/>
	<ellipse transform="matrix(0.7282 -0.6854 0.6854 0.7282 -35.4475 48.0372)" class="st1" cx="42.8" cy="68.7" rx="1.3" ry="1.2"/>
</g>
<g>
	<path d="M59.7,66.2l-1,1c0.1,0.7,0.4,1.3,0.8,1.8l0.4-0.3c0.2-0.2,0.6-0.1,0.8,0.1C60.1,68.1,59.7,67.2,59.7,66.2z M69,63.8
		c-0.2-0.3-0.3-0.7-0.6-1c-0.7-1-1.8-1.7-3-2c-0.3-0.1-0.5-0.1-0.8-0.2c-1.5-0.2-2.9,0.2-4,1.1c-0.3,0.2-0.6,0.5-0.8,0.8
		c-0.7,0.8-1.2,1.8-1.3,3c-0.1,0.6-0.1,1.2,0.1,1.8c0.1,0.7,0.4,1.3,0.8,1.8c0.2,0.3,0.4,0.6,0.7,0.9c0.8,0.9,2,1.5,3.3,1.6
		c1.5,0.2,3-0.2,4.1-1.2h0c0.1-0.1,0.3-0.2,0.4-0.4s0.3-0.3,0.4-0.4c0.7-0.8,1.1-1.8,1.2-2.8C69.6,65.7,69.5,64.7,69,63.8z
		 M68.4,66.6c-0.1,1-0.6,1.9-1.3,2.6c-0.9,0.9-2.2,1.4-3.6,1.2c-1.2-0.2-2.2-0.8-2.9-1.6c-0.6-0.7-0.9-1.6-0.9-2.6
		c0-0.2,0-0.4,0-0.7c0.3-2.4,2.4-4,4.7-3.8c0,0,0.1,0,0.1,0c1.3,0.2,2.5,0.9,3.2,2.1C68.3,64.7,68.5,65.7,68.4,66.6z"/>
	<path d="M54.1,51.3c-2-0.2-3.8,1.2-4,3.2c-0.2,2,1.2,3.8,3.2,4c0.9,0.1,1.8-0.1,2.5-0.6c0.2-0.1,0.3-0.2,0.4-0.3
		c0.1-0.1,0.3-0.3,0.4-0.4c0.4-0.5,0.7-1.1,0.8-1.8C57.5,53.3,56.1,51.5,54.1,51.3z M53.3,57.4c-1.4-0.2-2.4-1.4-2.2-2.8
		c0.2-1.4,1.4-2.4,2.8-2.2c1.4,0.2,2.4,1.4,2.2,2.8c-0.1,0.6-0.3,1.1-0.8,1.5c0,0,0,0,0,0.1c0,0,0,0-0.1,0.1l0,0
		C54.8,57.3,54,57.5,53.3,57.4z"/>
	<path d="M76.6,54.7c-2.3-0.3-4.5,1.4-4.8,3.7c-0.1,0.8,0,1.5,0.3,2.2c0.1,0.3,0.3,0.7,0.6,1c0.7,0.9,1.7,1.5,2.8,1.6c0,0,0,0,0,0
		c2.3,0.3,4.5-1.4,4.8-3.7v0C80.6,57.1,78.9,55,76.6,54.7z M79.2,59.3c-0.2,1.8-1.8,3-3.5,2.8c-1-0.1-1.8-0.7-2.3-1.5l0,0
		c0,0,0,0,0,0c-0.3-0.6-0.5-1.3-0.4-2c0.2-1.8,1.8-3,3.6-2.8C78.2,56,79.4,57.6,79.2,59.3z"/>
	<path d="M55.3,73.6c-0.2-0.3-0.4-0.6-0.7-0.9c-0.3-0.3-0.6-0.5-1-0.8c-0.4-0.2-0.9-0.4-1.4-0.4c-0.8-0.1-1.5,0-2.1,0.3
		c-1.4,0.6-2.4,1.8-2.6,3.4c0,0.3,0,0.5,0,0.8c0.1,2,1.7,3.7,3.7,3.9c2.3,0.3,4.4-1.4,4.7-3.7C56,75.3,55.8,74.3,55.3,73.6z
		 M54.8,76.1c-0.2,1.7-1.8,2.9-3.5,2.7c-1.5-0.2-2.7-1.5-2.8-3c0-0.2,0-0.3,0-0.5c0.2-1.3,1.1-2.4,2.3-2.7c0.4-0.1,0.8-0.1,1.2-0.1
		c0.2,0,0.5,0.1,0.7,0.2c0.6,0.2,1,0.6,1.4,1c0,0,0,0,0.1,0.1C54.7,74.5,54.9,75.3,54.8,76.1z"/>
	<path d="M74.5,71.8c-0.2,0-0.3,0-0.5,0c-1,0-1.9,0.3-2.6,0.9c-0.3,0.2-0.6,0.5-0.8,0.8c-0.4,0.6-0.8,1.3-0.8,2.1
		c-0.3,2.3,1.4,4.4,3.7,4.7h0c2.3,0.3,4.4-1.4,4.7-3.7C78.5,74.2,76.8,72.1,74.5,71.8z M77.1,76.4c-0.2,1.7-1.8,2.9-3.5,2.7
		c-1.7-0.2-2.9-1.8-2.7-3.5c0.1-0.7,0.4-1.3,0.8-1.8c0,0,0,0,0.1-0.1c0,0,0-0.1,0.1-0.1c0.7-0.6,1.6-0.9,2.5-0.8c0,0,0,0,0,0
		C76.1,73.1,77.3,74.7,77.1,76.4z"/>
	<path d="M60.6,63c-0.1,0-0.2-0.1-0.3-0.2l-5-5.4c-0.2-0.2-0.2-0.6,0-0.8c0.2-0.2,0.6-0.2,0.8,0l5,5.4c0.2,0.2,0.2,0.6,0,0.8
		c0,0,0,0,0,0C61,63,60.8,63,60.6,63z"/>
	<path d="M71.3,73.9c-0.1,0-0.2-0.1-0.3-0.2L67.1,70c-0.2-0.2-0.2-0.6,0-0.8c0.2-0.2,0.6-0.2,0.8,0l3.8,3.8c0.2,0.2,0.2,0.6,0,0.8
		C71.6,73.9,71.5,74,71.3,73.9z"/>
	<path d="M68.2,64.1c-0.3,0-0.5-0.3-0.5-0.6c0-0.2,0.1-0.3,0.3-0.4l4.6-2.7c0.3-0.2,0.6-0.1,0.8,0.2c0,0,0,0,0,0
		c0.2,0.3,0.1,0.6-0.2,0.8L68.6,64C68.5,64.1,68.3,64.1,68.2,64.1z"/>
	<path d="M60.5,69.5l-0.4,0.3l-4.8,3.7l-0.4,0.3C54.8,74,54.7,74,54.5,74c-0.1,0-0.2,0-0.3-0.1c0,0,0,0-0.1-0.1
		C54,73.5,54,73.2,54.3,73c0,0,0,0,0,0l0.4-0.3l4.8-3.7l0.4-0.3c0.2-0.2,0.6-0.1,0.8,0.1S60.8,69.4,60.5,69.5z"/>
</g>
</svg>
