<?xml version="1.0" encoding="utf-8"?>
<!-- Generator: Adobe Illustrator 23.0.3, SVG Export Plug-In . SVG Version: 6.00 Build 0)  -->
<!DOCTYPE svg PUBLIC "-//W3C//DTD SVG 1.1//EN" "http://www.w3.org/Graphics/SVG/1.1/DTD/svg11.dtd" [
	<!ENTITY ns_extend "http://ns.adobe.com/Extensibility/1.0/">
	<!ENTITY ns_ai "http://ns.adobe.com/AdobeIllustrator/10.0/">
	<!ENTITY ns_graphs "http://ns.adobe.com/Graphs/1.0/">
	<!ENTITY ns_vars "http://ns.adobe.com/Variables/1.0/">
	<!ENTITY ns_imrep "http://ns.adobe.com/ImageReplacement/1.0/">
	<!ENTITY ns_sfw "http://ns.adobe.com/SaveForWeb/1.0/">
	<!ENTITY ns_custom "http://ns.adobe.com/GenericCustomNamespace/1.0/">
	<!ENTITY ns_adobe_xpath "http://ns.adobe.com/XPath/1.0/">
]>
<svg version="1.1" id="Layer_1" xmlns:x="&ns_extend;" xmlns:i="&ns_ai;" xmlns:graph="&ns_graphs;"
	 xmlns="http://www.w3.org/2000/svg" xmlns:xlink="http://www.w3.org/1999/xlink" x="0px" y="0px" viewBox="0 0 102 34"
	 style="enable-background:new 0 0 102 34;" xml:space="preserve">
<style type="text/css">
	.st0{fill-rule:evenodd;clip-rule:evenodd;fill:#4B4DF1;}
	.st1{fill-rule:evenodd;clip-rule:evenodd;fill:#E4517F;}
	.st2{fill-rule:evenodd;clip-rule:evenodd;fill:#8B8B94;}
	.st3{fill-rule:evenodd;clip-rule:evenodd;fill:#726F78;}
	.st4{fill-rule:evenodd;clip-rule:evenodd;fill:#A0A0A0;}
</style>
<metadata>
	<sfw  xmlns="&ns_sfw;">
		<slices></slices>
		<sliceSourceBounds  bottomLeftOrigin="true" height="32.1" width="100.1" x="1" y="0.9"></sliceSourceBounds>
	</sfw>
</metadata>
<g>
	<g id="Group" transform="translate(1.000000, 1.000000)">
		<g id="Circles">
			<circle id="Oval" class="st0" cx="10" cy="10" r="10"/>
			<circle id="Oval-Copy" class="st1" cx="10" cy="22" r="10"/>
		</g>
	</g>
	<path id="BIDALI" class="st2" d="M60.7,33H58V21h2.1c1.5,0,2.6,0.3,3.4,0.8c0.8,0.6,1.1,1.3,1.1,2.3c0,1.1-0.5,2-1.4,2.5
		c1.4,0.5,2.1,1.5,2.1,3c0,1-0.4,1.8-1.1,2.4C63.4,32.7,62.2,33,60.7,33z M60.7,32.2c0.5,0,3.4-0.1,3.7-2.4c0.1-0.9-0.3-2-1.9-2.6
		l-1-0.4l1.3-0.7c0.8-0.4,1.1-1.4,1.1-2.1c-0.1-1.5-1.2-2.2-3.9-2.2h-1.2v10.4H60.7z M68.3,33h-0.8V21h0.8V33z M73.4,33h-1.8V21h1.8
		c1.6,0,3,0.6,4.2,1.8c1.1,1.2,1.7,2.6,1.7,4.2s-0.6,3-1.7,4.2C76.4,32.4,75,33,73.4,33z M73.3,32.2c0.8,0,2.1-0.2,3.2-1.2
		c1-0.9,1.8-2.5,1.8-4c0-1.5-0.8-3.1-1.8-4c-1.1-0.9-2.4-1.2-3.2-1.2h-1v10.4H73.3z M82.3,32.2h5.8L84.7,23l-3.6,10h-0.8l4.4-12
		l4.4,12h-6.8V32.2z M98.2,32.2V33h-7.2V21h0.8v11.2H98.2z M101,33h-0.8V21h0.8V33z"/>
	<path id="Giftcards" class="st3" d="M36.1,15.1c-0.5,0.7-1.2,1.2-2,1.5s-1.9,0.5-3,0.5c-1.2,0-2.2-0.3-3.1-0.8s-1.6-1.3-2.1-2.3
		s-0.7-2.2-0.8-3.5V9.3c0-2.1,0.5-3.8,1.5-5s2.4-1.8,4.2-1.8c1.5,0,2.7,0.4,3.6,1.1s1.5,1.8,1.7,3.2h-1.9c-0.4-1.9-1.5-2.8-3.4-2.8
		c-1.3,0-2.2,0.4-2.9,1.3s-1,2.2-1,3.8v1.2c0,1.6,0.4,2.9,1.1,3.8s1.7,1.4,3,1.4c0.7,0,1.3-0.1,1.8-0.2s1-0.4,1.3-0.8v-3.2H31V9.9
		h5.2V15.1z M40.5,17h-1.8V6.4h1.8V17z M38.6,3.6c0-0.3,0.1-0.5,0.3-0.7c0.2-0.2,0.4-0.3,0.8-0.3c0.4,0,0.6,0.1,0.8,0.3
		c0.2,0.2,0.3,0.4,0.3,0.7s-0.1,0.5-0.3,0.7c-0.2,0.2-0.4,0.3-0.8,0.3c-0.4,0-0.6-0.1-0.8-0.3C38.7,4.2,38.6,3.9,38.6,3.6z M43.9,17
		V7.8h-1.7V6.4h1.7V5.3c0-1.1,0.3-2,0.9-2.6s1.5-0.9,2.6-0.9c0.4,0,0.8,0.1,1.2,0.2l-0.1,1.5c-0.3-0.1-0.6-0.1-1-0.1
		c-0.6,0-1,0.2-1.4,0.5s-0.5,0.8-0.5,1.5v1.1h2.3v1.4h-2.3V17H43.9z M52,3.9v2.6h2v1.4h-2v6.6c0,0.4,0.1,0.7,0.3,1s0.5,0.3,0.9,0.3
		c0.2,0,0.5,0,0.9-0.1V17c-0.5,0.1-0.9,0.2-1.4,0.2c-0.8,0-1.4-0.2-1.8-0.7c-0.4-0.5-0.6-1.2-0.6-2.1V7.8h-1.9V6.4h1.9V3.9H52z
		 M59.8,15.7c0.6,0,1.2-0.2,1.7-0.6s0.7-0.9,0.8-1.5H64c0,0.6-0.2,1.2-0.6,1.7s-0.9,1-1.5,1.3c-0.6,0.3-1.3,0.5-2,0.5
		c-1.4,0-2.6-0.5-3.4-1.4s-1.3-2.3-1.3-3.9v-0.3c0-1,0.2-1.9,0.6-2.7s0.9-1.4,1.6-1.9c0.7-0.4,1.5-0.7,2.5-0.7c1.2,0,2.2,0.4,3,1.1
		C63.6,8,64,8.9,64,10.1h-1.7c-0.1-0.7-0.3-1.2-0.8-1.7c-0.5-0.4-1-0.7-1.7-0.7c-0.9,0-1.6,0.3-2.1,1c-0.5,0.7-0.8,1.6-0.8,2.9v0.3
		c0,1.2,0.3,2.2,0.8,2.8S58.9,15.7,59.8,15.7z M72.2,17c-0.1-0.2-0.2-0.6-0.3-1.1c-0.8,0.9-1.8,1.3-3,1.3c-1,0-1.9-0.3-2.6-0.9
		c-0.7-0.6-1-1.3-1-2.2c0-1.1,0.4-2,1.3-2.6c0.8-0.6,2-0.9,3.5-0.9h1.8V9.8c0-0.6-0.2-1.1-0.6-1.5c-0.4-0.4-0.9-0.6-1.7-0.6
		c-0.6,0-1.2,0.2-1.6,0.5c-0.4,0.3-0.7,0.7-0.7,1.2h-1.8c0-0.5,0.2-1,0.6-1.5C66.5,7.3,67,7,67.6,6.7c0.6-0.3,1.3-0.4,2.1-0.4
		c1.2,0,2.2,0.3,2.9,0.9c0.7,0.6,1,1.4,1.1,2.5v4.9c0,1,0.1,1.7,0.4,2.3V17H72.2z M69.2,15.6c0.6,0,1.1-0.1,1.6-0.4
		c0.5-0.3,0.9-0.7,1.1-1.1v-2.2h-1.4c-2.2,0-3.3,0.6-3.3,1.9c0,0.6,0.2,1,0.6,1.3C68.1,15.5,68.6,15.6,69.2,15.6z M81.2,8.1
		C80.9,8,80.6,8,80.3,8c-1.2,0-2,0.5-2.4,1.5V17h-1.8V6.4h1.8l0,1.2c0.6-0.9,1.4-1.4,2.5-1.4c0.4,0,0.6,0,0.8,0.1V8.1z M81.8,11.6
		c0-1.6,0.4-2.9,1.2-3.9s1.8-1.5,3-1.5c1.2,0,2.2,0.4,2.9,1.3V2h1.8v15h-1.7L89,15.9c-0.7,0.9-1.7,1.3-3,1.3c-1.2,0-2.2-0.5-3-1.5
		c-0.8-1-1.2-2.3-1.2-3.9V11.6z M83.6,11.8c0,1.2,0.2,2.1,0.7,2.8s1.2,1,2.1,1c1.1,0,2-0.5,2.5-1.5V9.3c-0.5-1-1.4-1.5-2.5-1.5
		c-0.9,0-1.6,0.3-2.1,1S83.6,10.5,83.6,11.8z M99.3,14.2c0-0.5-0.2-0.9-0.6-1.1c-0.4-0.3-1-0.5-1.9-0.7s-1.6-0.4-2.2-0.7
		c-0.5-0.3-0.9-0.6-1.2-1S93,9.9,93,9.3c0-0.9,0.4-1.6,1.1-2.2c0.7-0.6,1.7-0.9,2.8-0.9c1.2,0,2.2,0.3,2.9,0.9s1.1,1.4,1.1,2.4h-1.8
		c0-0.5-0.2-0.9-0.6-1.3c-0.4-0.4-0.9-0.5-1.6-0.5c-0.7,0-1.2,0.1-1.5,0.4c-0.4,0.3-0.6,0.7-0.6,1.1c0,0.4,0.2,0.8,0.5,1
		s1,0.4,1.9,0.6c0.9,0.2,1.6,0.4,2.2,0.7s1,0.6,1.2,1c0.3,0.4,0.4,0.9,0.4,1.4c0,0.9-0.4,1.7-1.1,2.3c-0.8,0.6-1.7,0.9-2.9,0.9
		c-0.8,0-1.6-0.1-2.2-0.4c-0.7-0.3-1.2-0.7-1.5-1.3c-0.4-0.5-0.6-1.1-0.6-1.7h1.8c0,0.6,0.3,1.1,0.7,1.4s1,0.5,1.8,0.5
		c0.7,0,1.2-0.1,1.6-0.4S99.3,14.7,99.3,14.2z"/>
	<path id="by" class="st4" d="M49,28.4c0,0.8-0.2,1.5-0.5,2s-0.9,0.7-1.5,0.7c-0.7,0-1.3-0.3-1.7-0.8l0,0.7h-0.5v-7.5h0.6v3
		c0.4-0.6,0.9-0.9,1.7-0.9c0.6,0,1.1,0.2,1.5,0.7S49,27.5,49,28.4L49,28.4z M48.4,28.3c0-0.7-0.1-1.2-0.4-1.6s-0.7-0.6-1.1-0.6
		c-0.4,0-0.7,0.1-1,0.3s-0.5,0.5-0.6,0.8v2.4c0.3,0.7,0.8,1,1.6,1c0.5,0,0.9-0.2,1.1-0.6S48.4,29.1,48.4,28.3z M51.6,30.2l1.5-4.4
		h0.6l-2.3,6.2l-0.1,0.3c-0.3,0.6-0.7,1-1.3,1c-0.1,0-0.3,0-0.4-0.1l0-0.5l0.3,0c0.3,0,0.5-0.1,0.7-0.2s0.3-0.4,0.5-0.7l0.3-0.7
		l-2-5.2H50L51.6,30.2z"/>
</g>
</svg>
