<?xml version="1.0" encoding="utf-8"?>
<!-- Generator: Adobe Illustrator 24.2.1, SVG Export Plug-In . SVG Version: 6.00 Build 0)  -->
<!DOCTYPE svg PUBLIC "-//W3C//DTD SVG 1.1//EN" "http://www.w3.org/Graphics/SVG/1.1/DTD/svg11.dtd" [
	<!ENTITY ns_extend "http://ns.adobe.com/Extensibility/1.0/">
	<!ENTITY ns_ai "http://ns.adobe.com/AdobeIllustrator/10.0/">
	<!ENTITY ns_graphs "http://ns.adobe.com/Graphs/1.0/">
	<!ENTITY ns_vars "http://ns.adobe.com/Variables/1.0/">
	<!ENTITY ns_imrep "http://ns.adobe.com/ImageReplacement/1.0/">
	<!ENTITY ns_sfw "http://ns.adobe.com/SaveForWeb/1.0/">
	<!ENTITY ns_custom "http://ns.adobe.com/GenericCustomNamespace/1.0/">
	<!ENTITY ns_adobe_xpath "http://ns.adobe.com/XPath/1.0/">
]>
<svg version="1.1" id="Layer_1" xmlns:x="&ns_extend;" xmlns:i="&ns_ai;" xmlns:graph="&ns_graphs;"
	 xmlns="http://www.w3.org/2000/svg" xmlns:xlink="http://www.w3.org/1999/xlink" x="0px" y="0px" viewBox="0 0 69.8 85.2"
	 style="enable-background:new 0 0 69.8 85.2;" xml:space="preserve">
<style type="text/css">
	.st0{fill:none;}
	.st1{fill:#FFFFFF;}
</style>
<metadata>
	<sfw  xmlns="&ns_sfw;">
		<slices></slices>
		<sliceSourceBounds  bottomLeftOrigin="true" height="85.2" width="69.8" x="11.8" y="31.1"></sliceSourceBounds>
	</sfw>
</metadata>
<g>
	<path class="st0" d="M43.4,42.2c-1.7,0-3,1.4-3,3.1c0,1.1,0.6,2.1,1.5,2.6v5.1c0,0.9,0.7,1.6,1.5,1.6c0.8,0,1.5-0.7,1.5-1.6v-5.1
		c0.9-0.5,1.5-1.5,1.5-2.6C46.5,43.6,45.1,42.2,43.4,42.2z"/>
	<path class="st0" d="M43.4,24.9c-4,0-7.3,3.4-7.3,7.5v5.7c2.4-0.5,4.8-0.8,7.3-0.8c2.5,0,4.9,0.3,7.3,0.8v0l-1-0.3l1,0.3v-5.7
		C50.7,28.2,47.4,24.9,43.4,24.9z"/>
	<path class="st1" d="M51.1,38.1c-2.4-0.5-4.8-0.8-7.3-0.8c-2.5,0-4.9,0.3-7.3,0.8v-5.7c0-4.1,3.3-7.5,7.3-7.5c2.4,0,4.6,1.2,6,3.2
		c0.4,0.6,0.6,1.2,0.9,1.8c0.3,0.7,0.6,1.7,1.4,1.9c0.7,0.2,1.6,0,2.1-0.6c0.8-0.9,0.4-2.1,0-3c-0.9-2-2.2-3.8-4-5.1
		c-1.9-1.4-4.1-2.1-6.4-2.1c-6.1,0-11.1,5.1-11.1,11.4v6.8c-0.6,0.2-1.1,0.4-1.7,0.6c-0.5,0.2-0.9,0.7-0.9,1.3v14.5
		c0,0.6,0.4,1.2,0.9,1.4c4.1,1.7,8.4,2.5,12.8,2.5c4.4,0,8.7-0.8,12.8-2.5c0.5-0.2,0.9-0.8,0.9-1.4c0,0,0-14.5,0-14.5
		c0-0.6-0.4-1.1-0.9-1.3c-0.2-0.1-0.5-0.2-0.7-0.3c-0.3-0.1-0.7-0.3-1-0.4l-2-0.6 M45.4,47.9v5.1c0,0.9-0.7,1.5-1.5,1.5
		c-0.8,0-1.5-0.7-1.5-1.5v-5.1c-0.9-0.5-1.5-1.5-1.5-2.6c0-1.7,1.4-3.1,3-3.1c1.7,0,3,1.4,3,3.1C46.9,46.4,46.2,47.4,45.4,47.9z"/>
</g>
<path d="M51.1,31.4C49.8,19.2,38.8,4,28.8,0c1.8,9.6-2.3,21.3-15.4,39.1c0.1-1.3,0.5-8-3.2-14c1,6.8-8.5,18.8-9.9,31.1
	s6.8,22,19.3,29.1h0.4C10.3,72.6,23.2,53.3,32,49.3c-2.5,6.1,2.7,15.2,6.1,17.2c-1.6-5.1,0.8-7.8,2-9.1c0.7,9.8,15.4,13.1,8.2,27.2
	c10.7-6.3,18-16,20.7-26.1c2.7-10.3-1.7-27.8-16.4-42.5C54.2,18.4,56.1,27.5,51.1,31.4z"/>
</svg>
