<?xml version="1.0" encoding="utf-8"?>
<!-- Generator: Adobe Illustrator 22.1.0, SVG Export Plug-In . SVG Version: 6.00 Build 0)  -->
<svg version="1.1" id="Layer_1" xmlns="http://www.w3.org/2000/svg" xmlns:xlink="http://www.w3.org/1999/xlink" x="0px" y="0px"
	 viewBox="0 0 90 90" style="enable-background:new 0 0 90 90;" xml:space="preserve">
<g>
	<g>
		<path d="M45,2.1C21.3,2.1,2.1,21.4,2.1,45S21.3,87.9,45,87.9S87.9,68.7,87.9,45S68.7,2.1,45,2.1 M45,90C20.2,90,0,69.8,0,45
			S20.2,0,45,0s45,20.2,45,45S69.8,90,45,90"/>
	</g>
</g>
<g>
	<path d="M29.1,79.2c0.1,0,0.1,0,0.2,0c0.4-0.1,0.8-0.4,0.8-0.9c0-0.1,1.2-11.5,7.2-15c0.2,0.5,0.5,1.1,0.8,1.6h-0.1
		c-0.5,0-1,0.4-1,1v2.8c0,0.5,0.4,1,1,1h2v3.4c0,0.5,0.4,1,1,1h9.3c0.5,0,1-0.4,1-1v-3.4h2c0.5,0,1-0.4,1-1v-2.8c0-0.5-0.4-1-1-1
		h-0.1c0.3-0.5,0.5-1.1,0.8-1.6c5.9,3.5,7.2,14.9,7.2,15c0,0.4,0.4,0.8,0.8,0.9c0.1,0,0.1,0,0.2,0c0.4,0,0.7-0.2,0.9-0.6
		c3.9-8.4,4.7-15.9,2.4-22.3c-1.7-4.8-4.8-7.8-6.7-9.3c1.7-12.5-1.9-22.2-5.1-28.1c-3.4-6.2-7.1-9.6-7.3-9.7c0,0,0,0,0,0
		c0,0,0,0,0,0c0,0,0,0-0.1-0.1c0,0,0,0,0,0c0,0,0,0,0,0c0,0,0,0-0.1,0c0,0,0,0-0.1,0c0,0,0,0-0.1,0c0,0,0,0-0.1,0c0,0,0,0-0.1,0
		c0,0,0,0-0.1,0c0,0,0,0-0.1,0c0,0,0,0-0.1,0c0,0,0,0-0.1,0c0,0,0,0-0.1,0c0,0,0,0-0.1,0c0,0,0,0-0.1,0c0,0,0,0,0,0c0,0,0,0-0.1,0
		c0,0,0,0-0.1,0c0,0,0,0,0,0c0,0,0,0,0,0c0,0,0,0-0.1,0.1c0,0,0,0,0,0c0,0,0,0,0,0c-0.2,0.1-3.9,3.5-7.3,9.7
		c-3.3,6-6.8,15.6-5.1,28.1c-1.9,1.5-5,4.5-6.7,9.3c-2.3,6.4-1.4,13.9,2.4,22.3C28.4,79,28.8,79.2,29.1,79.2z M49.3,72.2h-7.4v-2.5
		h7.4V72.2L49.3,72.2z M52.3,67.8H38.9v-0.9h0.7c0,0,0,0,0,0c0,0,0,0,0,0h12c0,0,0,0,0,0c0,0,0,0,0,0h0.7L52.3,67.8L52.3,67.8z
		 M63.5,57c1.8,5.1,1.5,11.1-1.1,17.7c-0.9-4.1-3-10.6-7.8-13.3c1.7-4.1,2.9-8.2,3.6-12.2C60,50.8,62.2,53.3,63.5,57z M39.9,19
		c0.1-0.2,0.2-0.4,0.3-0.6c0,0,0-0.1,0.1-0.1c0.1-0.2,0.3-0.4,0.4-0.6c0,0,0-0.1,0.1-0.1c0.1-0.2,0.2-0.3,0.3-0.5
		c0,0,0.1-0.1,0.1-0.1c0.3-0.4,0.5-0.8,0.8-1.1c0,0,0.1-0.1,0.1-0.1c0.1-0.2,0.2-0.3,0.3-0.5c0,0,0,0,0-0.1c0.1-0.2,0.2-0.3,0.4-0.5
		c0,0,0-0.1,0.1-0.1c0.1-0.1,0.2-0.3,0.3-0.4c0,0,0-0.1,0.1-0.1c0.1-0.2,0.2-0.3,0.3-0.4c0,0,0,0,0,0c0.1-0.1,0.2-0.3,0.3-0.4
		c0,0,0-0.1,0.1-0.1c0.1-0.1,0.2-0.2,0.3-0.3c0,0,0,0,0,0c0.1-0.1,0.2-0.2,0.3-0.3c0,0,0,0,0-0.1c0.1-0.1,0.2-0.2,0.2-0.3
		c0,0,0,0,0,0c0.2-0.2,0.3-0.4,0.5-0.5c0,0,0,0,0,0c0.1-0.1,0.1-0.1,0.2-0.2c0.9,0.9,2.6,2.8,4.5,5.7c0,0,0,0,0,0
		c0.1,0.2,0.3,0.4,0.4,0.6c0,0,0,0,0,0c0.1,0.2,0.3,0.4,0.4,0.7c0,0,0,0.1,0.1,0.1c0.1,0.2,0.2,0.4,0.3,0.6c0,0,0,0.1,0.1,0.1
		c-1.7,1.1-3.7,1.7-5.8,1.7S41.5,20.2,39.9,19C39.8,19.1,39.8,19.1,39.9,19z M38.9,20.8c2,1.3,4.3,1.9,6.7,1.9l0,0
		c2.4,0,4.7-0.7,6.7-1.9c3,5.8,6,14.9,4.3,26.5c-0.7,4.7-2.1,9.4-4.1,14.2c-0.5,1.1-1,2.2-1.5,3.3H40.2c-0.5-1.1-1.1-2.2-1.5-3.3
		c-2.1-4.8-3.4-9.6-4.1-14.2C32.9,35.8,35.9,26.7,38.9,20.8z M27.7,57c1.3-3.7,3.5-6.2,5.2-7.7c0.7,4,1.9,8.1,3.6,12.2
		c-4.8,2.7-6.9,9.2-7.8,13.3C26.2,68.1,25.9,62.1,27.7,57z"/>
	<path d="M44.6,76.8V89c0,0.5,0.4,1,1,1c0.5,0,1-0.4,1-1V76.8c0-0.5-0.4-1-1-1C45.1,75.8,44.6,76.3,44.6,76.8z"/>
	<path d="M50.3,75.8c-0.5,0-1,0.4-1,1v7.9c0,0.5,0.4,1,1,1c0.5,0,1-0.4,1-1v-7.9C51.2,76.3,50.8,75.8,50.3,75.8z"/>
	<path d="M55.9,72.9c0-0.5-0.4-1-1-1c-0.5,0-1,0.4-1,1v8.3c0,0.5,0.4,1,1,1c0.5,0,1-0.4,1-1V72.9z"/>
	<path d="M37.2,72.9c0-0.5-0.4-1-1-1c-0.5,0-1,0.4-1,1v8.3c0,0.5,0.4,1,1,1c0.5,0,1-0.4,1-1V72.9z"/>
	<path d="M40.9,75.8c-0.5,0-1,0.4-1,1v7.9c0,0.5,0.4,1,1,1c0.5,0,1-0.4,1-1v-7.9C41.9,76.3,41.5,75.8,40.9,75.8z"/>
	<path d="M45.6,41.2c3.1,0,5.7-2.5,5.7-5.7c0-3.1-2.5-5.7-5.7-5.7c-3.1,0-5.7,2.5-5.7,5.7C39.9,38.7,42.5,41.2,45.6,41.2z
		 M45.6,31.8c2.1,0,3.7,1.7,3.7,3.7c0,2.1-1.7,3.7-3.7,3.7c-2.1,0-3.7-1.7-3.7-3.7C41.9,33.5,43.5,31.8,45.6,31.8z"/>
	<path d="M36.3,83.8c-0.5,0-1,0.4-1,1v2.5c0,0.5,0.4,1,1,1c0.5,0,1-0.4,1-1v-2.5C37.2,84.2,36.8,83.8,36.3,83.8z"/>
	<path d="M54.9,83.8c-0.5,0-1,0.4-1,1v2.5c0,0.5,0.4,1,1,1c0.5,0,1-0.4,1-1v-2.5C55.9,84.2,55.5,83.8,54.9,83.8z"/>
</g>
</svg>
