<?xml version="1.0" encoding="utf-8"?>
<!-- Generator: Adobe Illustrator 24.3.0, SVG Export Plug-In . SVG Version: 6.00 Build 0)  -->
<!DOCTYPE svg PUBLIC "-//W3C//DTD SVG 1.1//EN" "http://www.w3.org/Graphics/SVG/1.1/DTD/svg11.dtd" [
	<!ENTITY ns_extend "http://ns.adobe.com/Extensibility/1.0/">
	<!ENTITY ns_ai "http://ns.adobe.com/AdobeIllustrator/10.0/">
	<!ENTITY ns_graphs "http://ns.adobe.com/Graphs/1.0/">
	<!ENTITY ns_vars "http://ns.adobe.com/Variables/1.0/">
	<!ENTITY ns_imrep "http://ns.adobe.com/ImageReplacement/1.0/">
	<!ENTITY ns_sfw "http://ns.adobe.com/SaveForWeb/1.0/">
	<!ENTITY ns_custom "http://ns.adobe.com/GenericCustomNamespace/1.0/">
	<!ENTITY ns_adobe_xpath "http://ns.adobe.com/XPath/1.0/">
]>
<svg version="1.1" id="bc49afd8-e209-4a3c-8a63-502d63c8aad7" xmlns:x="&ns_extend;" xmlns:i="&ns_ai;" xmlns:graph="&ns_graphs;"
	 xmlns="http://www.w3.org/2000/svg" xmlns:xlink="http://www.w3.org/1999/xlink" x="0px" y="0px" viewBox="0 0 638.6 638.6"
	 style="enable-background:new 0 0 638.6 638.6;" xml:space="preserve">
<style type="text/css">
	.st0{fill:#FFFFFF;}
	.st1{fill:#212121;}
</style>
<metadata>
	<sfw  xmlns="&ns_sfw;">
		<slices></slices>
		<sliceSourceBounds  bottomLeftOrigin="true" height="638.6" width="638.6" x="159.7" y="223.7"></sliceSourceBounds>
	</sfw>
</metadata>
<g>
	<circle class="st0" cx="319.3" cy="319.3" r="319.3"/>
</g>
<path class="st1" d="M196.1,224.5l28.3-28.3c8-8,21-8,29,0l189,189c8,8,8,21,0,29l-28.3,28.3c-8,8-21,8-29,0l-189-189
	C188.1,245.5,188.1,232.5,196.1,224.5z"/>
<path class="st1" d="M414.2,196.1l28.3,28.3c8,8,8,21,0,29l-189,189c-8,8-21,8-29,0l-28.3-28.3c-8-8-8-21,0-29l189-189
	C393.2,188.1,406.1,188.1,414.2,196.1z"/>
</svg>
