<?xml version="1.0" encoding="utf-8"?>
<!-- Generator: Adobe Illustrator 22.1.0, SVG Export Plug-In . SVG Version: 6.00 Build 0)  -->
<svg version="1.1" id="Layer_1" xmlns="http://www.w3.org/2000/svg" xmlns:xlink="http://www.w3.org/1999/xlink" x="0px" y="0px"
	 viewBox="0 0 50 50" style="enable-background:new 0 0 50 50;" xml:space="preserve">
<style type="text/css">
	.st0{fill:url(#SVGID_1_);}
	.st1{fill:#FFFFFF;}
	.st2{opacity:0.77;}
	.st3{opacity:0.54;fill:#C6D6E7;enable-background:new    ;}
	.st4{display:none;fill:#FFFFFF;}
	.st5{font-family:'Calibri';}
	.st6{font-size:5.7667px;}
</style>
<g>
	<g>
		<g>
			
				<linearGradient id="SVGID_1_" gradientUnits="userSpaceOnUse" x1="6.8167" y1="26.0134" x2="43.3167" y2="26.0134" gradientTransform="matrix(1 0 0 -1 0 51.2756)">
				<stop  offset="0" style="stop-color:#057861"/>
				<stop  offset="1" style="stop-color:#00A99D"/>
			</linearGradient>
			<path class="st0" d="M43.3,34.5c0,5-4.1,9-9,9H15.8c-5,0-9-4.1-9-9V16c0-5,2.4-9,9-9h18.5c5,0,9,4.1,9,9V34.5z"/>
			<g transform="translate(0,-952.36218)">
				<path class="st1" d="M37.6,959c1.9,0,3.4,0.7,4.5,1.8c1,1.1,1.5,2.5,1.5,4l0,0c0,0,0,0,0,0.1v25.2c0,3.2-2.6,5.9-5.9,5.9H12.5
					c-3.2,0-5.9-2.6-5.9-5.9v-14.8v-10.4c0-1.4,0.4-2.9,1.5-4c1-1.1,2.6-1.9,4.5-1.9L37.6,959L37.6,959z M37.6,960.7h-25
					c-1.5,0-2.6,0.5-3.3,1.3s-1,1.8-1,2.8l0,0v5.7c0.7-0.7,1.6-1.2,2.6-1.5v-0.8c0-1.1,0.4-2.2,1-3s1.5-1.4,2.6-1.4h21.2
					c1,0,2,0.5,2.6,1.3s1,1.8,1,3v0.3c0.7-0.2,1.2-0.6,1.6-1c0.7-0.8,1.1-1.8,1.1-2.8s-0.4-2.1-1.1-2.8
					C40.1,961.2,39.1,960.7,37.6,960.7z M41.9,968.9c-1,1-2.5,1.6-4.3,1.6h-25c-1.7,0-2.6,0.6-3.3,1.4c-0.7,0.9-1,2.1-1,3.3v0.6
					c0.1,0.1,0.3,0.2,0.6,0.2s0.8,0,1.4,0h9.9c1.9,0,3.4,0.8,4.4,1.9c1,1.1,1.5,2.6,1.5,4s-0.5,2.9-1.5,4s-2.5,1.9-4.4,1.9h-10
					c-0.5,0-1.1,0-1.7-0.2c-0.1,0-0.1,0-0.2-0.1v2.3c0,2.3,1.9,4.2,4.2,4.2h25.2c2.3,0,4.2-1.9,4.2-4.2V968.9L41.9,968.9z M20,979.4
					c-1.4,0-2.6,1.2-2.6,2.6c0,1.4,1.2,2.6,2.6,2.6s2.6-1.2,2.6-2.6S21.4,979.4,20,979.4z"/>
				<path class="st1" d="M20,981.1c-0.5,0-0.9,0.4-0.9,0.9s0.4,0.9,0.9,0.9s0.9-0.4,0.9-0.9C20.9,981.5,20.5,981.1,20,981.1z"/>
			</g>
		</g>
		<g class="st2">
			<path class="st1" d="M42.8,34.4c0,5-4.1,9-9,9H15.3c-5,0-9-4.1-9-9V15.9c0-5,2.4-9,9-9h18.5c5,0,9,4.1,9,9V34.4z"/>
			<g transform="translate(0,-952.36218)">
				<path class="st1" d="M36.9,958.9c1.9,0,3.4,0.7,4.5,1.8c1,1.1,1.5,2.5,1.5,4l0,0c0,0,0,0,0,0.1V990c0,3.2-2.6,5.9-5.9,5.9H11.8
					c-3.2,0-5.9-2.6-5.9-5.9v-14.8v-10.4c0-1.4,0.4-2.9,1.5-4c1-1.1,2.6-1.9,4.5-1.9L36.9,958.9L36.9,958.9z M36.9,960.6h-25
					c-1.5,0-2.6,0.5-3.3,1.3s-1,1.8-1,2.8l0,0v5.7c0.7-0.7,1.6-1.2,2.6-1.5v-0.8c0-1.1,0.4-2.2,1-3s1.5-1.4,2.6-1.4H35
					c1,0,2,0.5,2.6,1.3s1,1.8,1,3v0.3c0.7-0.2,1.2-0.6,1.6-1c0.7-0.8,1.1-1.8,1.1-2.8s-0.4-2.1-1.1-2.8
					C39.4,961.1,38.4,960.6,36.9,960.6z M41.2,968.8c-1,1-2.5,1.6-4.3,1.6h-25c-1.7,0-2.6,0.6-3.3,1.4c-0.7,0.9-1,2.1-1,3.3v0.6
					c0.1,0.1,0.3,0.2,0.6,0.2c0.3,0,0.8,0,1.4,0h9.9c1.9,0,3.4,0.8,4.4,1.9c1,1.1,1.5,2.6,1.5,4s-0.5,2.9-1.5,4s-2.5,1.9-4.4,1.9
					h-10c-0.5,0-1.1,0-1.7-0.2c-0.1,0-0.1,0-0.2-0.1v2.3c0,2.3,1.9,4.2,4.2,4.2H37c2.3,0,4.2-1.9,4.2-4.2V968.8L41.2,968.8z
					 M19.3,979.3c-1.4,0-2.6,1.2-2.6,2.6c0,1.4,1.2,2.6,2.6,2.6s2.6-1.2,2.6-2.6S20.7,979.3,19.3,979.3z"/>
				<path class="st1" d="M19.3,981c-0.5,0-0.9,0.4-0.9,0.9s0.4,0.9,0.9,0.9s0.9-0.4,0.9-0.9C20.2,981.4,19.8,981,19.3,981z"/>
			</g>
			<path class="st3" d="M50,41.8c0,4.5-3.7,8.2-8.2,8.2H8.2C3.7,50,0,46.3,0,41.8V8.3C0,3.8,3.7,0,8.2,0h33.5C46.3,0,50,3.8,50,8.3
				V41.8z"/>
		</g>
		<ellipse class="st4" cx="25" cy="18.9" rx="24.9" ry="25"/>
		<polygon class="st1" points="50,8.9 9,50 23.1,50 50.1,23 		"/>
		<text transform="matrix(0.7086 -0.7056 0.7056 0.7086 21.3812 47.5054)" class="st5 st6">COMING SOON</text>
	</g>
</g>
</svg>
