<?xml version="1.0" encoding="utf-8"?>
<!-- Generator: Adobe Illustrator 23.0.1, SVG Export Plug-In . SVG Version: 6.00 Build 0)  -->
<svg version="1.1" id="Layer_1" xmlns="http://www.w3.org/2000/svg" xmlns:xlink="http://www.w3.org/1999/xlink" x="0px" y="0px"
	 viewBox="0 0 194.3 194" style="enable-background:new 0 0 194.3 194;" xml:space="preserve">
<style type="text/css">
	.st0{opacity:0.73;}
	.st1{clip-path:url(#SVGID_2_);}
	.st2{clip-path:url(#SVGID_7_);}
	.st3{clip-path:url(#SVGID_8_);}
	.st4{clip-path:url(#SVGID_11_);}
	.st5{clip-path:url(#SVGID_12_);fill:#FFFFFF;}
	.st6{display:none;fill:#FFFFFF;}
	.st7{opacity:0.77;}
	.st8{fill:#FFFFFF;}
	.st9{opacity:0.54;fill:#C6D6E7;enable-background:new    ;}
	.st10{enable-background:new    ;}
</style>
<g class="st0">
	<g>
		<g>
			<g>
				<g>
					<defs>
						<rect id="SVGID_1_" x="-13.6" y="34.1" width="226.2" height="127.2"/>
					</defs>
					<clipPath id="SVGID_2_">
						<use xlink:href="#SVGID_1_"  style="overflow:visible;"/>
					</clipPath>
					<g class="st1">
						<g>
							<g>
								<defs>
									<rect id="SVGID_3_" x="-13.6" y="34.1" width="226.2" height="127.2"/>
								</defs>
								<clipPath id="SVGID_4_">
									<use xlink:href="#SVGID_3_"  style="overflow:visible;"/>
								</clipPath>
							</g>
							<g>
								<defs>
									<rect id="SVGID_5_" x="-13.6" y="34.1" width="226.2" height="127.2"/>
								</defs>
								<defs>
									<rect id="SVGID_6_" x="-13.6" y="34.1" width="226.2" height="127.2"/>
								</defs>
								<clipPath id="SVGID_7_">
									<use xlink:href="#SVGID_5_"  style="overflow:visible;"/>
								</clipPath>
								<clipPath id="SVGID_8_" class="st2">
									<use xlink:href="#SVGID_6_"  style="overflow:visible;"/>
								</clipPath>
								<path class="st3" d="M160.6,98.1c-0.4,33.7-27.5,60.9-61.3,60.5c-16.7,0-31.4-7-42.7-17.8C45.4,130,38.4,114,38.4,97
									c0.4-33.7,27.9-60.9,61.7-60.5C133.8,36.5,161,64.4,160.6,98.1"/>
							</g>
							<g>
								<defs>
									<rect id="SVGID_9_" x="-13.6" y="34.1" width="226.2" height="127.2"/>
								</defs>
								<defs>
									<rect id="SVGID_10_" x="-13.6" y="34.1" width="226.2" height="127.2"/>
								</defs>
								<clipPath id="SVGID_11_">
									<use xlink:href="#SVGID_9_"  style="overflow:visible;"/>
								</clipPath>
								<clipPath id="SVGID_12_" class="st4">
									<use xlink:href="#SVGID_10_"  style="overflow:visible;"/>
								</clipPath>
								<path class="st5" d="M70.6,118.3L57,141.2c0,0,5.4,7.8,21.3,13.6l7.8-20.9l5-14.4l5.4-15.5l1.6-5l0.4-0.4c0,0,0-0.4,0.4-0.4
									l0.4-0.4l0,0c0,0,0,0,0.4,0h0.4h0.4l0.4,0.4l0.4,1.6l1.2,3.1l3.5,11.2l3.1,9.7l5,15.1l3.9,10.9l1.9,5.8
									c0,0,12.4-3.5,22.9-14l-7.8-11.2l-5-8.1l-5-9.7l-4.3-8.5l-3.5-7.8l-2.7-7.8l-2.3-7.8l-2.7-8.5l-2.7-8.9l-2.3-8.9l-2.7-10.1
									l-1.9-5.4l-3.1,9.7l-3.9,13.2l-3.1,10.1L85.7,83l-3.1,8.9l-3.9,8.9l-3.9,8.1L70.6,118.3z"/>
							</g>
						</g>
					</g>
				</g>
			</g>
		</g>
		<ellipse class="st6" cx="99.7" cy="97.4" rx="60.9" ry="61.3"/>
	</g>
</g>
<g class="st7">
	<path class="st8" d="M166,133.4c0,19.4-15.9,34.9-34.9,34.9H59.4c-19.4,0-34.9-15.9-34.9-34.9V61.7c0-19.4,9.3-34.9,34.9-34.9h71.8
		c19.4,0,34.9,15.9,34.9,34.9V133.4z"/>
	<g transform="translate(0,-952.36218)">
		<path class="st8" d="M143.1,977.7c7.4,0,13.2,2.7,17.5,7c3.9,4.3,5.8,9.7,5.8,15.5l0,0c0,0,0,0,0,0.4v97.8
			c0,12.4-10.1,22.9-22.9,22.9H45.8c-12.4,0-22.9-10.1-22.9-22.9V1041v-40.3c0-5.4,1.6-11.2,5.8-15.5c3.9-4.3,10.1-7.4,17.5-7.4
			L143.1,977.7L143.1,977.7z M143.1,984.3h-97c-5.8,0-10.1,1.9-12.8,5s-3.9,7-3.9,10.9l0,0v22.1c2.7-2.7,6.2-4.7,10.1-5.8v-3.1
			c0-4.3,1.6-8.5,3.9-11.6c2.3-3.1,5.8-5.4,10.1-5.4h82.2c3.9,0,7.8,1.9,10.1,5c2.3,3.1,3.9,7,3.9,11.6v1.2c2.7-0.8,4.7-2.3,6.2-3.9
			c2.7-3.1,4.3-7,4.3-10.9s-1.6-8.1-4.3-10.9C152.8,986.3,149,984.3,143.1,984.3z M159.8,1016.1c-3.9,3.9-9.7,6.2-16.7,6.2h-97
			c-6.6,0-10.1,2.3-12.8,5.4c-2.7,3.5-3.9,8.1-3.9,12.8v2.3c0.4,0.4,1.2,0.8,2.3,0.8c1.2,0,3.1,0,5.4,0h38.4
			c7.4,0,13.2,3.1,17.1,7.4c3.9,4.3,5.8,10.1,5.8,15.5s-1.9,11.2-5.8,15.5c-3.9,4.3-9.7,7.4-17.1,7.4H36.9c-1.9,0-4.3,0-6.6-0.8
			c-0.4,0-0.4,0-0.8-0.4v8.9c0,8.9,7.4,16.3,16.3,16.3h97.8c8.9,0,16.3-7.4,16.3-16.3V1016.1L159.8,1016.1z M74.9,1056.9
			c-5.4,0-10.1,4.7-10.1,10.1c0,5.4,4.7,10.1,10.1,10.1c5.4,0,10.1-4.7,10.1-10.1S80.3,1056.9,74.9,1056.9z"/>
		<path class="st8" d="M74.9,1063.5c-1.9,0-3.5,1.6-3.5,3.5c0,1.9,1.6,3.5,3.5,3.5c1.9,0,3.5-1.6,3.5-3.5
			C78.4,1065,76.8,1063.5,74.9,1063.5z"/>
	</g>
	<path class="st9" d="M194,162.2c0,17.5-14.4,31.8-31.8,31.8H31.8C14.4,194,0,179.6,0,162.2v-130C0,14.7,14.4,0,31.8,0h130
		C179.6,0,194,14.7,194,32.2V162.2z"/>
</g>
<ellipse class="st6" cx="96.3" cy="91.2" rx="24.9" ry="25"/>
<polygon class="st8" points="194,34.5 34.9,194 89.6,194 194.3,89.2 "/>
<g class="st10">
	<path d="M89.5,174.9c0.1,0.1,0.2,0.2,0.2,0.2c0.1,0.1,0.1,0.1,0.1,0.2c0,0.1,0.1,0.1,0.1,0.2c0,0.1,0,0.1,0,0.2
		c0,0.1,0,0.3-0.1,0.6c-0.1,0.3-0.2,0.6-0.3,0.9c-0.1,0.3-0.3,0.7-0.6,1.1c-0.2,0.4-0.6,0.8-0.9,1.1c-0.6,0.6-1.3,1.1-2.1,1.4
		c-0.7,0.3-1.5,0.4-2.3,0.4c-0.8-0.1-1.6-0.3-2.4-0.7c-0.8-0.4-1.6-1-2.4-1.9c-0.8-0.8-1.5-1.7-1.9-2.5c-0.4-0.9-0.7-1.7-0.7-2.6
		c-0.1-0.8,0.1-1.6,0.4-2.4c0.3-0.8,0.8-1.5,1.4-2.1c0.3-0.3,0.6-0.5,0.9-0.8s0.6-0.4,1-0.5c0.3-0.1,0.6-0.3,0.9-0.3
		c0.3-0.1,0.5-0.1,0.6-0.1c0.1,0,0.2,0,0.3,0c0.1,0,0.1,0,0.2,0.1c0.1,0,0.1,0.1,0.2,0.1c0.1,0.1,0.2,0.1,0.3,0.2
		c0.1,0.1,0.2,0.2,0.2,0.3c0.1,0.1,0.1,0.2,0.1,0.2c0,0.1,0,0.1,0,0.2c0,0.1,0,0.1-0.1,0.1c-0.1,0.1-0.2,0.1-0.5,0.2
		c-0.2,0-0.5,0.1-0.8,0.2c-0.3,0.1-0.7,0.2-1.1,0.4c-0.4,0.2-0.8,0.5-1.2,0.9c-0.4,0.4-0.8,0.9-1,1.5c-0.2,0.5-0.2,1.1-0.2,1.7
		c0.1,0.6,0.3,1.2,0.7,1.9c0.4,0.6,0.8,1.3,1.5,1.9c0.6,0.6,1.3,1.1,1.9,1.5c0.6,0.3,1.2,0.6,1.8,0.6c0.6,0.1,1.1,0,1.7-0.2
		s1-0.5,1.5-1c0.4-0.4,0.7-0.8,0.9-1.2c0.2-0.4,0.3-0.8,0.4-1.1c0.1-0.3,0.2-0.6,0.2-0.8c0-0.2,0.1-0.4,0.2-0.5c0,0,0.1-0.1,0.1-0.1
		c0,0,0.1,0,0.2,0c0.1,0,0.1,0.1,0.2,0.1C89.3,174.7,89.4,174.8,89.5,174.9z"/>
	<path d="M95.8,161.2c0.8,0.8,1.4,1.6,1.9,2.5c0.5,0.8,0.7,1.7,0.8,2.5c0.1,0.8-0.1,1.7-0.4,2.5c-0.3,0.8-0.9,1.6-1.6,2.4
		c-0.8,0.8-1.5,1.3-2.3,1.6c-0.8,0.3-1.6,0.4-2.3,0.4c-0.8-0.1-1.6-0.3-2.4-0.8s-1.6-1.1-2.4-1.9c-0.8-0.8-1.4-1.6-1.9-2.4
		s-0.7-1.7-0.8-2.5c-0.1-0.8,0.1-1.7,0.4-2.5c0.3-0.8,0.9-1.6,1.6-2.4c0.7-0.7,1.5-1.3,2.3-1.6c0.8-0.3,1.5-0.5,2.3-0.4
		s1.6,0.3,2.4,0.8C94.2,159.8,95,160.4,95.8,161.2z M94.5,162.7c-0.6-0.6-1.1-1-1.7-1.4c-0.6-0.4-1.2-0.6-1.8-0.8
		c-0.6-0.1-1.2-0.1-1.8,0.1c-0.6,0.2-1.2,0.6-1.8,1.1c-0.6,0.6-1,1.2-1.1,1.8c-0.2,0.6-0.2,1.2-0.1,1.8c0.1,0.6,0.4,1.2,0.7,1.8
		c0.4,0.6,0.8,1.1,1.4,1.7c0.6,0.6,1.2,1.1,1.8,1.5c0.6,0.4,1.2,0.7,1.8,0.8c0.6,0.1,1.2,0.1,1.8-0.1c0.6-0.2,1.2-0.6,1.8-1.2
		c0.6-0.6,1-1.2,1.1-1.8c0.2-0.6,0.2-1.2,0.1-1.8s-0.4-1.2-0.8-1.8C95.5,163.8,95,163.2,94.5,162.7z"/>
	<path d="M113.7,153.2c0,0,0.1,0.1,0.1,0.1c0,0.1,0,0.1,0,0.2c0,0.1-0.1,0.2-0.2,0.2c-0.1,0.1-0.2,0.2-0.3,0.3
		c-0.1,0.1-0.2,0.2-0.3,0.3c-0.1,0.1-0.2,0.1-0.3,0.2c-0.1,0-0.1,0-0.2,0c-0.1,0-0.1,0-0.1-0.1l-8.7-8.7l0,0l5.2,12.3
		c0,0.1,0,0.1,0,0.2c0,0.1,0,0.1-0.1,0.2c0,0.1-0.1,0.1-0.2,0.2s-0.2,0.2-0.3,0.3c-0.1,0.1-0.2,0.2-0.3,0.3
		c-0.1,0.1-0.2,0.1-0.2,0.1c-0.1,0-0.1,0.1-0.2,0.1c-0.1,0-0.1,0-0.1,0L95.5,154l0,0l8.7,8.7c0,0,0.1,0.1,0.1,0.1c0,0.1,0,0.1,0,0.2
		c0,0.1-0.1,0.2-0.2,0.3c-0.1,0.1-0.2,0.2-0.3,0.3c-0.1,0.1-0.2,0.2-0.3,0.3c-0.1,0.1-0.2,0.1-0.2,0.2c-0.1,0-0.1,0-0.2,0
		c0,0-0.1,0-0.1-0.1l-9.2-9.2c-0.2-0.2-0.3-0.4-0.3-0.6c0-0.2,0.1-0.4,0.2-0.5l0.8-0.8c0.2-0.2,0.3-0.3,0.5-0.4
		c0.2-0.1,0.3-0.2,0.5-0.2c0.2,0,0.3,0,0.5,0c0.2,0,0.3,0.1,0.5,0.2l10.1,4.4l0,0l-4.2-10.2c-0.1-0.2-0.2-0.4-0.2-0.6
		c0-0.2,0-0.3,0-0.5c0-0.1,0.1-0.3,0.1-0.4c0.1-0.1,0.2-0.3,0.3-0.4l0.9-0.9c0.1-0.1,0.2-0.1,0.3-0.2c0.1,0,0.2-0.1,0.3-0.1
		s0.2,0,0.3,0.1c0.1,0,0.2,0.1,0.3,0.2L113.7,153.2z"/>
	<path d="M117.7,149.2c0,0,0.1,0.1,0.1,0.1c0,0.1,0,0.1,0,0.2c0,0.1-0.1,0.2-0.2,0.3s-0.2,0.2-0.3,0.3c-0.1,0.1-0.2,0.2-0.3,0.3
		c-0.1,0.1-0.2,0.1-0.3,0.2c-0.1,0-0.1,0-0.2,0s-0.1,0-0.1-0.1l-9.6-9.6c0,0-0.1-0.1-0.1-0.1c0-0.1,0-0.1,0-0.2
		c0-0.1,0.1-0.2,0.2-0.3s0.2-0.2,0.3-0.3c0.1-0.1,0.2-0.2,0.3-0.3c0.1-0.1,0.2-0.1,0.3-0.2c0.1,0,0.1,0,0.2,0c0.1,0,0.1,0,0.1,0.1
		L117.7,149.2z"/>
	<path d="M127.6,138.7c0.1,0.1,0.2,0.2,0.2,0.3c0,0.1,0.1,0.2,0,0.3c0,0.1,0,0.2-0.1,0.3c0,0.1-0.1,0.2-0.2,0.2l-0.4,0.4
		c-0.1,0.1-0.3,0.2-0.4,0.3s-0.3,0.1-0.5,0.1c-0.2,0-0.4,0-0.6,0c-0.2,0-0.5-0.1-0.8-0.2l-8.7-2.7c-0.5-0.1-0.9-0.3-1.4-0.4
		c-0.5-0.2-0.9-0.3-1.4-0.5l0,0c0.4,0.4,0.8,0.7,1.2,1.1c0.4,0.4,0.8,0.8,1.2,1.1l6,6c0,0,0.1,0.1,0.1,0.1c0,0.1,0,0.1,0,0.2
		c0,0.1-0.1,0.2-0.2,0.2c-0.1,0.1-0.2,0.2-0.3,0.3s-0.2,0.2-0.3,0.3c-0.1,0.1-0.2,0.1-0.2,0.2c-0.1,0-0.1,0-0.2,0
		c-0.1,0-0.1,0-0.1-0.1l-9.2-9.2c-0.2-0.2-0.3-0.4-0.3-0.6c0-0.2,0.1-0.4,0.3-0.5l0.7-0.7c0.2-0.2,0.3-0.3,0.4-0.3
		c0.1-0.1,0.3-0.1,0.4-0.2s0.3,0,0.5,0c0.2,0,0.4,0.1,0.6,0.2l6.7,2.1c0.4,0.1,0.8,0.2,1.2,0.4c0.4,0.1,0.8,0.2,1.1,0.4
		c0.4,0.1,0.7,0.2,1.1,0.4c0.4,0.1,0.7,0.2,1.1,0.4l0,0c-0.4-0.4-0.8-0.8-1.3-1.3c-0.4-0.4-0.9-0.9-1.3-1.3l-5.4-5.4
		c0,0-0.1-0.1-0.1-0.1c0-0.1,0-0.1,0-0.2c0-0.1,0.1-0.2,0.2-0.3c0.1-0.1,0.2-0.2,0.3-0.3c0.1-0.1,0.2-0.2,0.3-0.3
		c0.1-0.1,0.2-0.1,0.3-0.2s0.1,0,0.2,0c0.1,0,0.1,0,0.1,0.1L127.6,138.7z"/>
	<path d="M129.7,120.4c0.1,0.1,0.2,0.2,0.2,0.3c0.1,0.1,0.1,0.2,0.1,0.2c0,0.1,0,0.1,0,0.2c0,0.1,0,0.1-0.1,0.1
		c-0.1,0.1-0.2,0.1-0.5,0.2c-0.2,0-0.5,0.1-0.9,0.3c-0.4,0.1-0.8,0.3-1.2,0.5c-0.4,0.2-0.9,0.6-1.4,1.1c-0.6,0.5-0.9,1.1-1.2,1.8
		c-0.2,0.6-0.3,1.3-0.3,1.9c0,0.7,0.2,1.3,0.6,2c0.3,0.7,0.8,1.3,1.3,1.8c0.6,0.6,1.3,1.1,2,1.4c0.7,0.3,1.3,0.5,2,0.5
		c0.7,0,1.3-0.1,1.9-0.3c0.6-0.3,1.2-0.6,1.7-1.2c0.3-0.3,0.6-0.7,0.8-1c0.2-0.4,0.4-0.8,0.6-1.2l-2.9-2.9l-2.3,2.3
		c-0.1,0.1-0.2,0.1-0.3,0.1c-0.1,0-0.3-0.2-0.5-0.3c-0.1-0.1-0.2-0.2-0.2-0.3c-0.1-0.1-0.1-0.2-0.1-0.2c0-0.1,0-0.1,0-0.2
		c0-0.1,0-0.1,0.1-0.1l3.2-3.2c0.1-0.1,0.1-0.1,0.2-0.1c0.1,0,0.2-0.1,0.2-0.1c0.1,0,0.2,0,0.3,0.1c0.1,0,0.2,0.1,0.3,0.2l3.8,3.8
		c0.1,0.1,0.2,0.3,0.3,0.4c0.1,0.1,0,0.3,0,0.6c-0.1,0.2-0.2,0.5-0.3,0.8c-0.2,0.3-0.3,0.6-0.5,1c-0.2,0.3-0.4,0.6-0.6,0.9
		s-0.5,0.6-0.7,0.8c-0.8,0.8-1.6,1.3-2.4,1.7s-1.7,0.5-2.6,0.5c-0.9,0-1.7-0.2-2.6-0.6c-0.8-0.4-1.6-1-2.4-1.7
		c-0.8-0.8-1.4-1.6-1.8-2.5c-0.4-0.9-0.6-1.8-0.6-2.7c0-0.9,0.2-1.8,0.5-2.6c0.4-0.9,0.9-1.7,1.7-2.4c0.4-0.4,0.8-0.7,1.2-1
		c0.4-0.3,0.8-0.5,1.1-0.7c0.4-0.2,0.7-0.3,1-0.4c0.3-0.1,0.5-0.1,0.6-0.1c0.1,0,0.3,0,0.4,0.1S129.5,120.3,129.7,120.4z"/>
	<path d="M147,114.9c0.5,0.5,0.8,1,1,1.5s0.3,1.1,0.2,1.6c-0.1,0.6-0.2,1.1-0.5,1.7c-0.3,0.5-0.7,1.1-1.1,1.5
		c-0.3,0.3-0.7,0.6-1,0.8c-0.3,0.2-0.7,0.4-1,0.6c-0.3,0.1-0.6,0.2-0.8,0.3c-0.2,0.1-0.4,0.1-0.5,0.1c-0.1,0-0.2,0-0.4-0.1
		c-0.1-0.1-0.3-0.2-0.4-0.3c-0.1-0.1-0.2-0.2-0.3-0.3c-0.1-0.1-0.1-0.2-0.1-0.2c0-0.1,0-0.1,0-0.2c0,0,0-0.1,0.1-0.1
		c0.1-0.1,0.2-0.1,0.4-0.2c0.2,0,0.5-0.1,0.8-0.2c0.3-0.1,0.7-0.3,1-0.5c0.4-0.2,0.8-0.5,1.1-0.9c0.3-0.3,0.5-0.6,0.7-0.9
		c0.2-0.3,0.3-0.6,0.3-0.9c0-0.3,0-0.6-0.1-0.9c-0.1-0.3-0.3-0.6-0.6-0.8c-0.3-0.3-0.6-0.5-0.9-0.5c-0.3-0.1-0.7-0.1-1,0
		c-0.4,0.1-0.7,0.2-1.1,0.3s-0.8,0.3-1.2,0.4c-0.4,0.2-0.8,0.3-1.3,0.4s-0.9,0.2-1.3,0.2c-0.4,0-0.9-0.1-1.3-0.3
		c-0.4-0.2-0.8-0.4-1.2-0.9c-0.4-0.4-0.7-0.9-0.9-1.3c-0.2-0.5-0.2-1-0.2-1.5c0.1-0.5,0.2-1,0.5-1.5c0.3-0.5,0.6-0.9,1-1.4
		c0.2-0.2,0.5-0.4,0.7-0.6c0.3-0.2,0.5-0.3,0.8-0.5c0.3-0.1,0.5-0.2,0.7-0.3c0.2-0.1,0.4-0.1,0.5-0.1c0.1,0,0.2,0,0.2,0
		s0.1,0,0.1,0.1c0.1,0,0.1,0.1,0.2,0.1c0.1,0.1,0.1,0.1,0.2,0.2c0.1,0.1,0.2,0.2,0.2,0.3s0.1,0.2,0.1,0.2c0,0.1,0,0.1,0,0.2
		c0,0.1,0,0.1-0.1,0.1c-0.1,0.1-0.2,0.1-0.4,0.2c-0.2,0-0.4,0.1-0.7,0.2c-0.3,0.1-0.6,0.2-0.9,0.4c-0.3,0.2-0.6,0.4-0.9,0.7
		c-0.3,0.3-0.5,0.6-0.6,0.8s-0.2,0.5-0.2,0.8c0,0.3,0,0.5,0.1,0.7c0.1,0.2,0.2,0.5,0.4,0.6c0.3,0.3,0.6,0.5,0.9,0.5
		c0.3,0.1,0.7,0.1,1,0c0.4-0.1,0.8-0.2,1.2-0.3c0.4-0.1,0.8-0.3,1.2-0.4c0.4-0.2,0.8-0.3,1.3-0.4c0.4-0.1,0.9-0.2,1.3-0.2
		s0.9,0.1,1.3,0.2C146.2,114.2,146.6,114.5,147,114.9z"/>
	<path d="M155,102.3c0.8,0.8,1.4,1.6,1.9,2.5c0.5,0.8,0.7,1.7,0.8,2.5c0.1,0.8-0.1,1.7-0.4,2.5c-0.3,0.8-0.9,1.6-1.6,2.4
		c-0.8,0.8-1.5,1.3-2.3,1.6c-0.8,0.3-1.6,0.4-2.3,0.4c-0.8-0.1-1.6-0.3-2.4-0.8c-0.8-0.5-1.6-1.1-2.4-1.9c-0.8-0.8-1.4-1.6-1.9-2.4
		c-0.5-0.8-0.7-1.7-0.8-2.5c-0.1-0.8,0.1-1.7,0.4-2.5c0.3-0.8,0.9-1.6,1.6-2.4c0.7-0.7,1.5-1.3,2.3-1.6c0.8-0.3,1.5-0.5,2.3-0.4
		c0.8,0.1,1.6,0.3,2.4,0.8C153.3,100.9,154.1,101.5,155,102.3z M153.6,103.8c-0.6-0.6-1.1-1-1.7-1.4c-0.6-0.4-1.2-0.6-1.8-0.8
		c-0.6-0.1-1.2-0.1-1.8,0.1c-0.6,0.2-1.2,0.6-1.8,1.1c-0.6,0.6-1,1.2-1.1,1.8c-0.2,0.6-0.2,1.2-0.1,1.8c0.1,0.6,0.4,1.2,0.7,1.8
		s0.8,1.1,1.4,1.7c0.6,0.6,1.2,1.1,1.8,1.5c0.6,0.4,1.2,0.7,1.8,0.8s1.2,0.1,1.8-0.1s1.2-0.6,1.8-1.2c0.6-0.6,1-1.2,1.1-1.8
		c0.2-0.6,0.2-1.2,0.1-1.8s-0.4-1.2-0.8-1.8C154.6,104.9,154.2,104.3,153.6,103.8z"/>
	<path d="M165.4,91.9c0.8,0.8,1.4,1.6,1.9,2.5c0.5,0.8,0.7,1.7,0.8,2.5c0.1,0.8-0.1,1.7-0.4,2.5s-0.9,1.6-1.6,2.4
		c-0.8,0.8-1.5,1.3-2.3,1.6c-0.8,0.3-1.6,0.4-2.3,0.4c-0.8-0.1-1.6-0.3-2.4-0.8c-0.8-0.5-1.6-1.1-2.4-1.9c-0.8-0.8-1.4-1.6-1.9-2.4
		c-0.5-0.8-0.7-1.7-0.8-2.5c-0.1-0.8,0.1-1.7,0.4-2.5c0.3-0.8,0.9-1.6,1.6-2.4c0.7-0.7,1.5-1.3,2.3-1.6c0.8-0.3,1.5-0.5,2.3-0.4
		c0.8,0.1,1.6,0.3,2.4,0.8C163.8,90.4,164.6,91,165.4,91.9z M164.1,93.4c-0.6-0.6-1.1-1-1.7-1.4c-0.6-0.4-1.2-0.6-1.8-0.8
		c-0.6-0.1-1.2-0.1-1.8,0.1c-0.6,0.2-1.2,0.6-1.8,1.1s-1,1.2-1.1,1.8c-0.2,0.6-0.2,1.2-0.1,1.8c0.1,0.6,0.4,1.2,0.7,1.8
		c0.4,0.6,0.8,1.1,1.4,1.7c0.6,0.6,1.2,1.1,1.8,1.5c0.6,0.4,1.2,0.7,1.8,0.8c0.6,0.1,1.2,0.1,1.8-0.1c0.6-0.2,1.2-0.6,1.8-1.2
		c0.6-0.6,1-1.2,1.1-1.8c0.2-0.6,0.2-1.2,0.1-1.8s-0.4-1.2-0.8-1.8C165.1,94.5,164.7,93.9,164.1,93.4z"/>
	<path d="M179.7,86.8c0.1,0.1,0.2,0.2,0.2,0.3c0,0.1,0.1,0.2,0,0.3c0,0.1,0,0.2-0.1,0.3c0,0.1-0.1,0.2-0.2,0.2l-0.4,0.4
		c-0.1,0.1-0.3,0.2-0.4,0.3c-0.1,0.1-0.3,0.1-0.5,0.1c-0.2,0-0.4,0-0.6,0c-0.2,0-0.5-0.1-0.8-0.2l-8.7-2.7c-0.5-0.1-0.9-0.3-1.4-0.4
		c-0.5-0.2-0.9-0.3-1.4-0.5l0,0c0.4,0.4,0.8,0.7,1.2,1.1c0.4,0.4,0.8,0.8,1.2,1.1l6,6c0,0,0.1,0.1,0.1,0.1s0,0.1,0,0.2
		c0,0.1-0.1,0.2-0.2,0.2c-0.1,0.1-0.2,0.2-0.3,0.3c-0.1,0.1-0.2,0.2-0.3,0.3c-0.1,0.1-0.2,0.1-0.2,0.2c-0.1,0-0.1,0-0.2,0
		c-0.1,0-0.1,0-0.1-0.1l-9.2-9.2c-0.2-0.2-0.3-0.4-0.3-0.6c0-0.2,0.1-0.4,0.3-0.5l0.7-0.7c0.2-0.2,0.3-0.3,0.4-0.3
		c0.1-0.1,0.3-0.1,0.4-0.2c0.1,0,0.3,0,0.5,0c0.2,0,0.4,0.1,0.6,0.2l6.7,2.1c0.4,0.1,0.8,0.2,1.2,0.4c0.4,0.1,0.8,0.2,1.1,0.4
		c0.4,0.1,0.7,0.2,1.1,0.4s0.7,0.2,1.1,0.4l0,0c-0.4-0.4-0.8-0.8-1.3-1.3c-0.4-0.4-0.9-0.9-1.3-1.3l-5.4-5.4c0,0-0.1-0.1-0.1-0.1
		c0-0.1,0-0.1,0-0.2c0-0.1,0.1-0.2,0.2-0.3c0.1-0.1,0.2-0.2,0.3-0.3c0.1-0.1,0.2-0.2,0.3-0.3c0.1-0.1,0.2-0.1,0.3-0.2
		c0.1,0,0.1,0,0.2,0c0.1,0,0.1,0,0.1,0.1L179.7,86.8z"/>
</g>
</svg>
