<?xml version="1.0" encoding="utf-8"?>
<!-- Generator: Adobe Illustrator 22.1.0, SVG Export Plug-In . SVG Version: 6.00 Build 0)  -->
<svg version="1.1" id="Layer_1" xmlns="http://www.w3.org/2000/svg" xmlns:xlink="http://www.w3.org/1999/xlink" x="0px" y="0px"
	 viewBox="0 0 50 50" style="enable-background:new 0 0 50 50;" xml:space="preserve">
<style type="text/css">
	.st0{opacity:0.73;}
	.st1{clip-path:url(#SVGID_2_);}
	.st2{clip-path:url(#SVGID_5_);}
	.st3{clip-path:url(#SVGID_6_);}
	.st4{clip-path:url(#SVGID_6_);fill:#FFFFFF;}
	.st5{display:none;fill:#FFFFFF;}
	.st6{opacity:0.77;}
	.st7{fill:#FFFFFF;}
	.st8{opacity:0.54;fill:#C6D6E7;enable-background:new    ;}
	.st9{font-family:'Calibri';}
	.st10{font-size:5.7667px;}
</style>
<g class="st0">
	<g>
		<g>
			<g>
				<defs>
					<rect id="SVGID_1_" x="-3.5" y="8.8" width="58.3" height="32.8"/>
				</defs>
				<clipPath id="SVGID_2_">
					<use xlink:href="#SVGID_1_"  style="overflow:visible;"/>
				</clipPath>
				<g class="st1">
					<g>
						<defs>
							<rect id="SVGID_3_" x="-3.5" y="8.8" width="58.3" height="32.8"/>
						</defs>
						<defs>
							<rect id="SVGID_4_" x="-3.5" y="8.8" width="58.3" height="32.8"/>
						</defs>
						<clipPath id="SVGID_5_">
							<use xlink:href="#SVGID_3_"  style="overflow:visible;"/>
						</clipPath>
						<clipPath id="SVGID_6_" class="st2">
							<use xlink:href="#SVGID_4_"  style="overflow:visible;"/>
						</clipPath>
						<path class="st3" d="M41.4,25.3C41.3,34,34.3,41,25.6,40.9c-4.3,0-8.1-1.8-11-4.6c-2.9-2.8-4.7-6.9-4.7-11.3
							C10,16.3,17.1,9.3,25.8,9.4C34.5,9.4,41.5,16.6,41.4,25.3"/>
						<path class="st4" d="M18.2,30.5l-3.5,5.9c0,0,1.4,2,5.5,3.5l2-5.4l1.3-3.7l1.4-4l0.4-1.3l0.1-0.1c0,0,0-0.1,0.1-0.1l0.1-0.1
							l0,0c0,0,0,0,0.1,0h0.1h0.1l0.1,0.1l0.1,0.4l0.3,0.8l0.9,2.9l0.8,2.5l1.3,3.9l1,2.8l0.5,1.5c0,0,3.2-0.9,5.9-3.6l-2-2.9
							l-1.3-2.1l-1.3-2.5l-1.1-2.2l-0.9-2l-0.7-2l-0.6-2l-0.7-2.2l-0.7-2.3l-0.6-2.3l-0.7-2.6L25.7,10l-0.8,2.5l-1,3.4l-0.8,2.6
							l-1,2.9l-0.8,2.3L20.3,26l-1,2.1L18.2,30.5z"/>
					</g>
				</g>
			</g>
		</g>
		<ellipse class="st5" cx="25.7" cy="25.1" rx="15.7" ry="15.8"/>
	</g>
</g>
<g class="st6">
	<path class="st7" d="M42.8,34.4c0,5-4.1,9-9,9H15.3c-5,0-9-4.1-9-9V15.9c0-5,2.4-9,9-9h18.5c5,0,9,4.1,9,9V34.4z"/>
	<g transform="translate(0,-952.36218)">
		<path class="st7" d="M36.9,958.9c1.9,0,3.4,0.7,4.5,1.8c1,1.1,1.5,2.5,1.5,4l0,0c0,0,0,0,0,0.1V990c0,3.2-2.6,5.9-5.9,5.9H11.8
			c-3.2,0-5.9-2.6-5.9-5.9v-14.8v-10.4c0-1.4,0.4-2.9,1.5-4c1-1.1,2.6-1.9,4.5-1.9L36.9,958.9L36.9,958.9z M36.9,960.6h-25
			c-1.5,0-2.6,0.5-3.3,1.3s-1,1.8-1,2.8l0,0v5.7c0.7-0.7,1.6-1.2,2.6-1.5v-0.8c0-1.1,0.4-2.2,1-3s1.5-1.4,2.6-1.4H35
			c1,0,2,0.5,2.6,1.3s1,1.8,1,3v0.3c0.7-0.2,1.2-0.6,1.6-1c0.7-0.8,1.1-1.8,1.1-2.8s-0.4-2.1-1.1-2.8
			C39.4,961.1,38.4,960.6,36.9,960.6z M41.2,968.8c-1,1-2.5,1.6-4.3,1.6h-25c-1.7,0-2.6,0.6-3.3,1.4c-0.7,0.9-1,2.1-1,3.3v0.6
			c0.1,0.1,0.3,0.2,0.6,0.2s0.8,0,1.4,0h9.9c1.9,0,3.4,0.8,4.4,1.9c1,1.1,1.5,2.6,1.5,4s-0.5,2.9-1.5,4s-2.5,1.9-4.4,1.9h-10
			c-0.5,0-1.1,0-1.7-0.2c-0.1,0-0.1,0-0.2-0.1v2.3c0,2.3,1.9,4.2,4.2,4.2H37c2.3,0,4.2-1.9,4.2-4.2V968.8L41.2,968.8z M19.3,979.3
			c-1.4,0-2.6,1.2-2.6,2.6c0,1.4,1.2,2.6,2.6,2.6s2.6-1.2,2.6-2.6S20.7,979.3,19.3,979.3z"/>
		<path class="st7" d="M19.3,981c-0.5,0-0.9,0.4-0.9,0.9s0.4,0.9,0.9,0.9s0.9-0.4,0.9-0.9C20.2,981.4,19.8,981,19.3,981z"/>
	</g>
	<path class="st8" d="M50,41.8c0,4.5-3.7,8.2-8.2,8.2H8.2C3.7,50,0,46.3,0,41.8V8.3C0,3.8,3.7,0,8.2,0h33.5C46.3,0,50,3.8,50,8.3
		V41.8z"/>
</g>
<ellipse class="st5" cx="25" cy="18.9" rx="24.9" ry="25"/>
<polygon class="st7" points="50,8.9 9,50 23.1,50 50.1,23 "/>
<text transform="matrix(0.7086 -0.7056 0.7056 0.7086 21.3647 47.5055)" class="st9 st10">COMING SOON</text>
</svg>
