<?xml version="1.0" encoding="utf-8"?>
<!-- Generator: Adobe Illustrator 22.1.0, SVG Export Plug-In . SVG Version: 6.00 Build 0)  -->
<svg version="1.1" id="Layer_1" xmlns="http://www.w3.org/2000/svg" xmlns:xlink="http://www.w3.org/1999/xlink" x="0px" y="0px"
	 viewBox="0 0 90 90" style="enable-background:new 0 0 90 90;" xml:space="preserve">
<style type="text/css">
	.st0{clip-path:url(#SVGID_2_);}
	.st1{clip-path:url(#SVGID_4_);}
	.st2{fill:none;stroke:#000000;stroke-miterlimit:10;}
</style>
<g>
	<g>
		<path d="M45,2.1C21.3,2.1,2.1,21.4,2.1,45S21.3,87.9,45,87.9S87.9,68.7,87.9,45S68.7,2.1,45,2.1 M45,90C20.2,90,0,69.8,0,45
			S20.2,0,45,0s45,20.2,45,45S69.8,90,45,90"/>
	</g>
</g>
<g>
	<g>
		<path d="M63.1,84.3l0.2,0c-0.1-0.1-0.1-0.2-0.2-0.3V84.3z"/>
		<path d="M76.2,48.6H61.6c-0.3-9.3-6.5-15.3-16.1-15.3c-9.5,0-15.7,6-16.1,15.3h-6.2c0.1-8,2.1-15.1,5.2-18.3
			c0.3-0.3,0.3-0.8,0-1.1c-0.3-0.3-0.8-0.3-1.1,0c-3.4,3.5-5.5,11-5.7,19.4h-6.9c-0.4,0-0.8,0.3-0.8,0.8s0.3,0.8,0.8,0.8h11.5v35
			l1.5,0v-35h35.3v33.9c0.1,0.1,0.1,0.2,0.2,0.3l1.4,0V50.1h11.5c0.4,0,0.8-0.3,0.8-0.8S76.6,48.6,76.2,48.6z M31,48.6
			c0.3-8.4,5.9-13.8,14.5-13.8c8.6,0,14.2,5.4,14.5,13.8H31z"/>
		<path d="M27.9,85.2L27.9,85.2C27.9,85.2,27.9,85.2,27.9,85.2L27.9,85.2z"/>
		<path d="M27.9,85.2v0.3l0.5,0.1c0-0.1,0-0.3,0-0.5L27.9,85.2C27.9,85.2,27.9,85.2,27.9,85.2z"/>
		<path d="M45.5,28.7c5.5,0,10-4.5,10-10s-4.5-10-10-10s-10,4.5-10,10S40,28.7,45.5,28.7z M45.5,10.3c4.6,0,8.4,3.8,8.4,8.4
			s-3.8,8.4-8.4,8.4c-4.6,0-8.4-3.8-8.4-8.4S40.9,10.3,45.5,10.3z"/>
	</g>
</g>
<path d="M45.5,84.8"/>
<g>
	<g>
		<defs>
			<rect id="SVGID_1_" x="28" y="56.1" width="35.5" height="20"/>
		</defs>
		<clipPath id="SVGID_2_">
			<use xlink:href="#SVGID_1_"  style="overflow:visible;"/>
		</clipPath>
		<g class="st0">
			<defs>
				<rect id="SVGID_3_" x="28" y="56.1" width="35.5" height="20"/>
			</defs>
			<clipPath id="SVGID_4_">
				<use xlink:href="#SVGID_3_"  style="overflow:visible;"/>
			</clipPath>
			<path class="st1" d="M41.2,69.3l-2.1,3.6c0,0,0.9,1.2,3.3,2.1l1.2-3.3l0.8-2.2l0.8-2.5c0,0,0.3-0.8,0.3-0.8l0-0.1c0,0,0,0,0,0
				l0,0l0,0c0,0,0,0,0,0l0,0l0,0l0,0.1l0.1,0.2l0.2,0.5l0.6,1.8l0.5,1.6l0.8,2.4l0.6,1.7l0.3,0.9c0,0,1.9-0.5,3.6-2.2l-1.2-1.8
				l-0.8-1.3l-0.8-1.5L49,67l-0.5-1.2l-0.4-1.2l-0.4-1.2L47.2,62l-0.4-1.4l-0.4-1.4L46,57.7l-0.2-0.8l-0.5,1.5l-0.6,2.1L44.2,62
				l-0.6,1.8l-0.5,1.4l-0.6,1.4l-0.6,1.3L41.2,69.3z"/>
		</g>
	</g>
</g>
<circle class="st2" cx="45.8" cy="66.1" r="9.4"/>
<path class="st2" d="M41.5,74.4"/>
</svg>
