<?xml version="1.0" encoding="utf-8"?>
<!-- Generator: Adobe Illustrator 23.0.3, SVG Export Plug-In . SVG Version: 6.00 Build 0)  -->
<!DOCTYPE svg PUBLIC "-//W3C//DTD SVG 1.1//EN" "http://www.w3.org/Graphics/SVG/1.1/DTD/svg11.dtd" [
	<!ENTITY ns_extend "http://ns.adobe.com/Extensibility/1.0/">
	<!ENTITY ns_ai "http://ns.adobe.com/AdobeIllustrator/10.0/">
	<!ENTITY ns_graphs "http://ns.adobe.com/Graphs/1.0/">
	<!ENTITY ns_vars "http://ns.adobe.com/Variables/1.0/">
	<!ENTITY ns_imrep "http://ns.adobe.com/ImageReplacement/1.0/">
	<!ENTITY ns_sfw "http://ns.adobe.com/SaveForWeb/1.0/">
	<!ENTITY ns_custom "http://ns.adobe.com/GenericCustomNamespace/1.0/">
	<!ENTITY ns_adobe_xpath "http://ns.adobe.com/XPath/1.0/">
]>
<svg version="1.1" id="Layer_1" xmlns:x="&ns_extend;" xmlns:i="&ns_ai;" xmlns:graph="&ns_graphs;"
	 xmlns="http://www.w3.org/2000/svg" xmlns:xlink="http://www.w3.org/1999/xlink" x="0px" y="0px" viewBox="0 0 29.2 55.3"
	 style="enable-background:new 0 0 29.2 55.3;" xml:space="preserve">
<style type="text/css">
	.st0{fill:#041E42;}
	.st1{fill:#FFFFFF;}
</style>
<metadata>
	<sfw  xmlns="&ns_sfw;">
		<slices></slices>
		<sliceSourceBounds  bottomLeftOrigin="true" height="55.3" width="29.2" x="668.9" y="354.8"></sliceSourceBounds>
	</sfw>
</metadata>
<polygon class="st0" points="14.8,55.3 10.1,26.3 18.6,25.5 "/>
<path id="XMLID_1_" class="st0" d="M29.2,14.8c0,8.1-6.6,14.6-14.7,14.6c-4,0-7.6-1.7-10.2-4.3C1.6,22.4,0,18.7,0,14.6
	C0.1,6.5,6.6-0.1,14.7,0S29.3,6.7,29.2,14.8z"/>
<path class="st1" d="M7.6,19.6l-3.2,5.5c0,0,1.3,1.8,5.1,3.3l1.9-5.1l1.2-3.4l1.3-3.7l0.4-1.2l0.1-0.1c0,0,0,0,0-0.1l0,0l0,0
	c0,0,0,0,0,0h0l0,0l0.1,0.1l0.1,0.4l0.2,0.7l0.9,2.7l0.8,2.4l1.2,3.6l0.9,2.6l0.5,1.4c0,0,3-0.8,5.5-3.3l-1.8-2.7l-1.2-2l-1.2-2.3
	l-1-2.1l-0.8-1.9l-0.7-1.9l-0.6-1.8l-0.7-2l-0.6-2.2l-0.6-2.1L15,1.9l-0.4-1.2l-0.7,2.3l-1,3.2l-0.8,2.4l-0.9,2.7l-0.8,2.2l-0.9,2.1
	l-0.9,2L7.6,19.6z"/>
</svg>
