<?xml version="1.0" encoding="utf-8"?>
<!-- Generator: Adobe Illustrator 24.2.1, SVG Export Plug-In . SVG Version: 6.00 Build 0)  -->
<!DOCTYPE svg PUBLIC "-//W3C//DTD SVG 1.1//EN" "http://www.w3.org/Graphics/SVG/1.1/DTD/svg11.dtd" [
	<!ENTITY ns_extend "http://ns.adobe.com/Extensibility/1.0/">
	<!ENTITY ns_ai "http://ns.adobe.com/AdobeIllustrator/10.0/">
	<!ENTITY ns_graphs "http://ns.adobe.com/Graphs/1.0/">
	<!ENTITY ns_vars "http://ns.adobe.com/Variables/1.0/">
	<!ENTITY ns_imrep "http://ns.adobe.com/ImageReplacement/1.0/">
	<!ENTITY ns_sfw "http://ns.adobe.com/SaveForWeb/1.0/">
	<!ENTITY ns_custom "http://ns.adobe.com/GenericCustomNamespace/1.0/">
	<!ENTITY ns_adobe_xpath "http://ns.adobe.com/XPath/1.0/">
]>
<svg version="1.1" id="Layer_1" xmlns:x="&ns_extend;" xmlns:i="&ns_ai;" xmlns:graph="&ns_graphs;"
	 xmlns="http://www.w3.org/2000/svg" xmlns:xlink="http://www.w3.org/1999/xlink" x="0px" y="0px" viewBox="0 0 100 125"
	 style="enable-background:new 0 0 100 125;" xml:space="preserve">
<style type="text/css">
	.st0{fill:#FF0046;}
	.st1{fill:#FFFFFF;}
</style>
<metadata>
	<sfw  xmlns="&ns_sfw;">
		<slices></slices>
		<sliceSourceBounds  bottomLeftOrigin="true" height="124.6" width="94.7" x="2.7" y="0.2"></sliceSourceBounds>
	</sfw>
</metadata>
<path class="st0" d="M50,0.2C24.6-0.5,3.4,19.5,2.7,44.9c0,0.7,0,1.4,0,2.2c0,39.3,43.8,75.6,45.7,77.1c0.9,0.8,2.3,0.8,3.2,0
	c1.9-1.7,45.7-41.7,45.7-77.1C97.8,21.7,77.6,0.7,52.2,0.2C51.4,0.2,50.7,0.2,50,0.2z"/>
<g>
	<g>
		<g>
			<g id="XMLID_26_">
				<path class="st1" d="M60,78.6l1.1,3.3c-3.6,1.2-7.4,1.8-11.3,1.8c-4.3,0-8.4-0.8-12.1-2.3l4.5-12.1l3-8.1l3.1-9l1.1-2.9l0.2-0.3
					c0,0,0.1-0.1,0.1-0.2l0.1-0.1h0.2l0.1,0.1l0.2,0.2l0.3,0.9l0.6,1.7l2.1,6.4l1.9,5.7l2.9,8.7L60,78.6z"/>
				<path class="st1" d="M85,48.8c-0.1,9.9-4.2,18.8-10.8,25.1l-4.3-6.5L67,62.5l-2.9-5.6L61.7,52l-1.8-4.5L58.3,43l-1.5-4.3l-1.5-5
					l-1.5-5.2l-1.4-5.1l-1.6-5.7L50,15l-1.7,5.4L46,27.9l-1.8,5.8L42,40.1l-1.9,5.3l-2,5.1l-2.2,4.9l-2.6,5.1l-7.7,13.2
					c-0.1,0-0.1-0.1-0.2-0.1C18.9,67,14.9,58.2,15,48.3c0.2-19.4,15.9-35.1,35.2-34.9C69.5,13.6,85.1,29.3,85,48.8z"/>
			</g>
		</g>
	</g>
</g>
</svg>
