<?xml version="1.0" encoding="utf-8"?>
<!-- Generator: Adobe Illustrator 24.2.1, SVG Export Plug-In . SVG Version: 6.00 Build 0)  -->
<!DOCTYPE svg PUBLIC "-//W3C//DTD SVG 1.1//EN" "http://www.w3.org/Graphics/SVG/1.1/DTD/svg11.dtd" [
	<!ENTITY ns_extend "http://ns.adobe.com/Extensibility/1.0/">
	<!ENTITY ns_ai "http://ns.adobe.com/AdobeIllustrator/10.0/">
	<!ENTITY ns_graphs "http://ns.adobe.com/Graphs/1.0/">
	<!ENTITY ns_vars "http://ns.adobe.com/Variables/1.0/">
	<!ENTITY ns_imrep "http://ns.adobe.com/ImageReplacement/1.0/">
	<!ENTITY ns_sfw "http://ns.adobe.com/SaveForWeb/1.0/">
	<!ENTITY ns_custom "http://ns.adobe.com/GenericCustomNamespace/1.0/">
	<!ENTITY ns_adobe_xpath "http://ns.adobe.com/XPath/1.0/">
]>
<svg version="1.1" id="Layer_1" xmlns:x="&ns_extend;" xmlns:i="&ns_ai;" xmlns:graph="&ns_graphs;"
	 xmlns="http://www.w3.org/2000/svg" xmlns:xlink="http://www.w3.org/1999/xlink" x="0px" y="0px" viewBox="0 0 500 500"
	 style="enable-background:new 0 0 500 500;" xml:space="preserve">
<style type="text/css">
	.st0{fill:#010101;}
</style>
<metadata>
	<sfw  xmlns="&ns_sfw;">
		<slices></slices>
		<sliceSourceBounds  bottomLeftOrigin="true" height="462.3" width="272" x="114" y="-481.2"></sliceSourceBounds>
	</sfw>
</metadata>
<path class="st0" d="M161.6,18.8v17c0,20.7,16.8,37.4,37.4,37.4h101.9c20.7,0,37.4-16.8,37.4-37.4v-17h6.9
	c22.5,0,40.7,18.3,40.7,40.8v380.7c0,22.5-18.2,40.8-40.7,40.8H154.8c-22.5,0-40.7-18.3-40.7-40.8V59.7c0-22.5,18.2-40.8,40.7-40.8
	H161.6z M236.4,114c-3.8,0-6.8,3-6.8,6.8V148c0,3.8,3,6.8,6.8,6.8h27.2c3.8,0,6.8-3,6.8-6.8v-27.2c0-3.8-3-6.8-6.8-6.8H236.4z
	 M304.4,114c-3.8,0-6.8,3-6.8,6.8V148c0,3.8,3,6.8,6.8,6.8h27.2c3.8,0,6.8-3,6.8-6.8v-27.2c0-3.8-3-6.8-6.8-6.8H304.4z M168.4,114
	c-3.8,0-6.8,3-6.8,6.8V148c0,3.8,3,6.8,6.8,6.8h27.2c3.8,0,6.8-3,6.8-6.8v-27.2c0-3.8-3-6.8-6.8-6.8H168.4z M236.4,175.2
	c-3.8,0-6.8,3-6.8,6.8v27.2c0,3.8,3,6.8,6.8,6.8h27.2c3.8,0,6.8-3,6.8-6.8V182c0-3.8-3-6.8-6.8-6.8H236.4z M304.4,175.2
	c-3.8,0-6.8,3-6.8,6.8v27.2c0,3.8,3,6.8,6.8,6.8h27.2c3.8,0,6.8-3,6.8-6.8V182c0-3.8-3-6.8-6.8-6.8H304.4z M168.4,175.2
	c-3.8,0-6.8,3-6.8,6.8v27.2c0,3.8,3,6.8,6.8,6.8h27.2c3.8,0,6.8-3,6.8-6.8V182c0-3.8-3-6.8-6.8-6.8H168.4z M236.4,236.4
	c-3.8,0-6.8,3-6.8,6.8v27.2c0,3.8,3,6.8,6.8,6.8h27.2c3.8,0,6.8-3,6.8-6.8v-27.2c0-3.8-3-6.8-6.8-6.8H236.4z M304.4,236.4
	c-3.8,0-6.8,3-6.8,6.8v27.2c0,3.8,3,6.8,6.8,6.8h27.2c3.8,0,6.8-3,6.8-6.8v-27.2c0-3.8-3-6.8-6.8-6.8H304.4z M168.4,236.4
	c-3.8,0-6.8,3-6.8,6.8v27.2c0,3.8,3,6.8,6.8,6.8h27.2c3.8,0,6.8-3,6.8-6.8v-27.2c0-3.8-3-6.8-6.8-6.8H168.4z M236.4,297.6
	c-3.8,0-6.8,3-6.8,6.8v27.2c0,3.8,3,6.8,6.8,6.8h27.2c3.8,0,6.8-3,6.8-6.8v-27.2c0-3.8-3-6.8-6.8-6.8H236.4z M168.4,297.6
	c-3.8,0-6.8,3-6.8,6.8v27.2c0,3.8,3,6.8,6.8,6.8h27.2c3.8,0,6.8-3,6.8-6.8v-27.2c0-3.8-3-6.8-6.8-6.8H168.4z M188.8,18.8h122.4v17
	c0,5.6-4.6,10.2-10.2,10.2H199.1c-5.7,0-10.2-4.6-10.2-10.2V18.8z"/>
<g>
</g>
<g>
</g>
<g>
</g>
<g>
</g>
<g>
</g>
<g>
</g>
</svg>
