<?xml version="1.0" encoding="utf-8"?>
<!-- Generator: Adobe Illustrator 24.2.1, SVG Export Plug-In . SVG Version: 6.00 Build 0)  -->
<!DOCTYPE svg PUBLIC "-//W3C//DTD SVG 1.1//EN" "http://www.w3.org/Graphics/SVG/1.1/DTD/svg11.dtd" [
	<!ENTITY ns_extend "http://ns.adobe.com/Extensibility/1.0/">
	<!ENTITY ns_ai "http://ns.adobe.com/AdobeIllustrator/10.0/">
	<!ENTITY ns_graphs "http://ns.adobe.com/Graphs/1.0/">
	<!ENTITY ns_vars "http://ns.adobe.com/Variables/1.0/">
	<!ENTITY ns_imrep "http://ns.adobe.com/ImageReplacement/1.0/">
	<!ENTITY ns_sfw "http://ns.adobe.com/SaveForWeb/1.0/">
	<!ENTITY ns_custom "http://ns.adobe.com/GenericCustomNamespace/1.0/">
	<!ENTITY ns_adobe_xpath "http://ns.adobe.com/XPath/1.0/">
]>
<svg version="1.1" id="Layer_1" xmlns:x="&ns_extend;" xmlns:i="&ns_ai;" xmlns:graph="&ns_graphs;"
	 xmlns="http://www.w3.org/2000/svg" xmlns:xlink="http://www.w3.org/1999/xlink" x="0px" y="0px" viewBox="0 0 500 500"
	 style="enable-background:new 0 0 500 500;" xml:space="preserve">
<style type="text/css">
	.st0{fill:#010101;}
</style>
<metadata>
	<sfw  xmlns="&ns_sfw;">
		<slices></slices>
		<sliceSourceBounds  bottomLeftOrigin="true" height="462.3" width="396.6" x="51.7" y="-481.2"></sliceSourceBounds>
	</sfw>
</metadata>
<g>
	<path class="st0" d="M300.2,426.8l7.1,19.8c-32.3,22.1-57.4,34.6-57.4,34.6s-27.8-13.9-62.5-38.3l6.3-16.9l6.9-18.7l13-35.4
		l6.1-16.6l19.8-57.3c0,0,6.7-18.8,6.7-18.9l1-2c0.1-0.2,0.4-0.7,0.6-0.9l0.5-0.6l0.2-0.2c0.2-0.1,0.4-0.2,0.6-0.2l0.5,0.1l0.5,0.3
		l0.9,1.6l1.8,5.5l3.9,10.9l13.5,41.2l11.8,36.4l0.2,0.7L300.2,426.8z"/>
	<path class="st0" d="M448.3,84.6v165.1c0,54.4-33.4,103.1-72.7,141.6l-11.7-20.1l-4-6.9l-18.3-35.9L326.4,297l-1.7-4.1l-10.3-24.6
		l-10.1-28.5l-9.3-27.8l-10.1-31.4l-9.8-33.2l-5.9-22l-2.9-10.9l-0.5-1.8L256.4,78L251,59.7l-10.8,34.7l-5.5,18.2l-3.9,12.6
		l-5.4,17.8l-11.9,36.8L199.7,221l-11.6,33.7L174.7,287l-0.6,1.4l-13.7,29.5l-16.5,32.8l-12.5,21.2l-2.9,4.9l-0.8,1.3l-6,10.2
		c0,0,0,0,0,0c-38.1-38.2-69.9-85.8-69.9-138.7V84.6l197.7-65.7L448.3,84.6z"/>
</g>
<g>
</g>
<g>
</g>
<g>
</g>
<g>
</g>
<g>
</g>
<g>
</g>
</svg>
