<?xml version="1.0" encoding="utf-8"?>
<!-- Generator: Adobe Illustrator 24.2.1, SVG Export Plug-In . SVG Version: 6.00 Build 0)  -->
<!DOCTYPE svg PUBLIC "-//W3C//DTD SVG 1.1//EN" "http://www.w3.org/Graphics/SVG/1.1/DTD/svg11.dtd" [
	<!ENTITY ns_extend "http://ns.adobe.com/Extensibility/1.0/">
	<!ENTITY ns_ai "http://ns.adobe.com/AdobeIllustrator/10.0/">
	<!ENTITY ns_graphs "http://ns.adobe.com/Graphs/1.0/">
	<!ENTITY ns_vars "http://ns.adobe.com/Variables/1.0/">
	<!ENTITY ns_imrep "http://ns.adobe.com/ImageReplacement/1.0/">
	<!ENTITY ns_sfw "http://ns.adobe.com/SaveForWeb/1.0/">
	<!ENTITY ns_custom "http://ns.adobe.com/GenericCustomNamespace/1.0/">
	<!ENTITY ns_adobe_xpath "http://ns.adobe.com/XPath/1.0/">
]>
<svg version="1.1" id="Layer_1" xmlns:x="&ns_extend;" xmlns:i="&ns_ai;" xmlns:graph="&ns_graphs;"
	 xmlns="http://www.w3.org/2000/svg" xmlns:xlink="http://www.w3.org/1999/xlink" x="0px" y="0px" viewBox="0 0 500 500"
	 style="enable-background:new 0 0 500 500;" xml:space="preserve">
<style type="text/css">
	.st0{fill:#010101;}
	.st1{fill:#010101;stroke:#FFFFFF;stroke-width:15.371;stroke-miterlimit:10;}
	.st2{fill:#FFFFFF;}
</style>
<metadata>
	<sfw  xmlns="&ns_sfw;">
		<slices></slices>
		<sliceSourceBounds  bottomLeftOrigin="true" height="462.3" width="462.3" x="18.8" y="-481.2"></sliceSourceBounds>
	</sfw>
</metadata>
<g>
	<g>
		<circle class="st0" cx="250" cy="250" r="231.2"/>
		<g>
			<path class="st1" d="M440.3,246.8v0.9c0,91.5-65.4,167.6-152,184.4c-11.7,2.2-23.6,3.5-35.9,3.5c-103.8,0-187.9-84.1-187.9-187.9
				c0-22.8,4.1-45.5,12.2-66.7c9.4-24.8,24.3-47.7,43.2-66.5c12.3-12.2,26.3-22.8,41.5-31.2c22.7-12.6,48.4-21,74.2-23.5
				c23.1-2.3,46.9,0.1,69.2,6.6c20.1,5.8,39.3,15.1,56.4,27.3c16.9,12,31.8,26.8,43.9,43.6c12.2,17,21.6,36.1,27.5,56.2
				C437.7,210.8,440.3,228.8,440.3,246.8z"/>
		</g>
	</g>
	<path class="st2" d="M187.9,286.4l-30.5,52.4c0,0,12.6,17.2,48.3,30.6l17.5-48.1l11.6-32.3l12.1-35.6c0,0,4.1-11.7,4.1-11.7
		l0.6-1.3c0-0.1,0.3-0.4,0.4-0.6l0.3-0.3l0.1-0.1c0.1-0.1,0.2-0.1,0.4-0.1l0.3,0l0.3,0.2l0.5,1l1.1,3.4l2.4,6.7l8.5,25.5l7.4,22.5
		l11.5,34.4l8.9,24.3l4.6,13.3c0,0,28-7.9,51.7-31.8L333,313.3l-11.3-19.1L310.2,272l-9.5-19.5l-7.6-17.8l-6.4-17.6l-5.8-17.2
		l-6.4-19.4l-6.2-20.5l-5.6-20.3l-6.2-22.5l-3.4-11.3l-6.5,21.6l-9,30.1l-7.2,22.9l-8.5,25.5l-7.1,20.9l-8.2,20.1l-8.8,19.2
		L187.9,286.4z"/>
</g>
<g>
</g>
<g>
</g>
<g>
</g>
<g>
</g>
<g>
</g>
<g>
</g>
</svg>
