<?xml version="1.0" encoding="utf-8"?>
<!-- Generator: Adobe Illustrator 22.1.0, SVG Export Plug-In . SVG Version: 6.00 Build 0)  -->
<svg version="1.1" id="Layer_1" xmlns="http://www.w3.org/2000/svg" xmlns:xlink="http://www.w3.org/1999/xlink" x="0px" y="0px"
	 viewBox="0 0 90 90" style="enable-background:new 0 0 90 90;" xml:space="preserve">
<g>
	<g>
		<path d="M45,2.1C21.3,2.1,2.1,21.4,2.1,45S21.3,87.9,45,87.9S87.9,68.7,87.9,45S68.7,2.1,45,2.1 M45,90C20.2,90,0,69.8,0,45
			S20.2,0,45,0s45,20.2,45,45S69.8,90,45,90"/>
	</g>
</g>
<g>
	<path d="M43.9,59.2c0-0.6-0.4-1-1-1H20.4C20.9,48.4,29,40.5,39,40.5c3.6,0,7.1,1,10.1,3c0.5,0.3,1.1,0.2,1.4-0.3
		c0.3-0.5,0.2-1.1-0.3-1.4c-3.3-2.1-7.2-3.3-11.2-3.3c-11.4,0-20.6,9.3-20.6,20.6c0,0.6,0.4,1,1,1h23.6
		C43.4,60.2,43.9,59.7,43.9,59.2z"/>
	<path d="M38.6,36.7c6.6,0,11.9-5.4,11.9-11.9c0-6.6-5.4-11.9-11.9-11.9c-6.6,0-11.9,5.4-11.9,11.9C26.7,31.3,32.1,36.7,38.6,36.7z
		 M38.6,14.8c5.5,0,9.9,4.5,9.9,9.9c0,5.5-4.5,10-9.9,10c-5.5,0-9.9-4.5-9.9-10C28.7,19.3,33.2,14.8,38.6,14.8z"/>
	<path d="M71.5,70.9l-6.9-10c1.3-1.7,2-3.8,2.1-6c0-5.6-4.5-10.2-10.1-10.2c-5.6,0-10.2,4.5-10.2,10.1c0,2.3,0.7,4.4,2,6.1l-7.1,9.9
		c-0.2,0.3-0.2,0.8,0,1.1c0.2,0.3,0.6,0.5,1,0.4l5.6-1.2l1,5.2c0.1,0.4,0.4,0.7,0.8,0.8c0.1,0,0.1,0,0.2,0c0.4,0,0.7-0.2,0.9-0.5
		L56.4,66L62,76.7c0.2,0.3,0.5,0.5,0.9,0.5c0,0,0.1,0,0.1,0c0.4-0.1,0.8-0.4,0.8-0.8l1.1-5.2l5.6,1.3c0.4,0.1,0.8-0.1,1-0.4
		C71.7,71.7,71.7,71.2,71.5,70.9z M56.5,46.6C56.5,46.6,56.5,46.6,56.5,46.6c4.6,0,8.2,3.7,8.2,8.2v0c0,2.2-0.9,4.2-2.4,5.7
		c-1.5,1.5-3.6,2.3-5.7,2.3c0,0,0,0-0.1,0c-4.5,0-8.1-3.7-8.1-8.2C48.4,50.2,52,46.6,56.5,46.6z M50.3,73.2l-0.7-3.5
		c0-0.3-0.2-0.5-0.4-0.6c-0.2-0.2-0.5-0.2-0.8-0.1l-4.1,0.9l5.3-7.5c1.4,1.3,3.2,2.2,5.1,2.5L50.3,73.2z M64.3,69
		c-0.3-0.1-0.5,0-0.8,0.1c-0.2,0.1-0.4,0.4-0.4,0.6l-0.7,3.5L58,64.8c1.9-0.3,3.7-1.1,5.2-2.4l5.2,7.6L64.3,69z"/>
</g>
</svg>
