<svg xmlns="http://www.w3.org/2000/svg" viewBox="0 0 209.92 50.92"><defs><style>.cls-1{fill:#0981c4;}</style></defs><title>Denta-Joy_logo</title><g id="Layer_2" data-name="Layer 2"><g id="Layer_1-2" data-name="Layer 1"><path class="cls-1" d="M148.35,48.77a2.69,2.69,0,0,0,1.18.31c.41,0,.58-.13.58-.34s-.13-.33-.64-.49c-.92-.28-1.27-.77-1.26-1.25,0-.79.7-1.39,1.79-1.39a3,3,0,0,1,1.23.25l-.23.89a2.49,2.49,0,0,0-.95-.23c-.33,0-.52.13-.52.34s.17.31.71.49c.83.26,1.18.68,1.18,1.28,0,.79-.63,1.37-1.89,1.37a3.31,3.31,0,0,1-1.43-.3Z"/><path class="cls-1" d="M152.93,45.15a.69.69,0,0,1-.74-.69.77.77,0,1,1,.76.69h0m-.67.55h1.37v4.21h-1.37Z"/><path class="cls-1" d="M154.73,47c0-.52,0-.95,0-1.34h1.19l.06.59h0a1.63,1.63,0,0,1,1.36-.68c.9,0,1.57.57,1.57,1.81V49.9h-1.36V47.57c0-.53-.2-.91-.69-.9a.77.77,0,0,0-.71.48.88.88,0,0,0,0,.33V49.9h-1.37Z"/><path class="cls-1" d="M163.31,49.8a3.12,3.12,0,0,1-1.23.2,2.1,2.1,0,0,1-2.33-2.16,2.26,2.26,0,0,1,2.52-2.23,3.39,3.39,0,0,1,1,.16l-.22,1a1.85,1.85,0,0,0-.76-.13,1.12,1.12,0,0,0-1.18,1.17A1.13,1.13,0,0,0,162.36,49a1.88,1.88,0,0,0,.78-.14Z"/><path class="cls-1" d="M165,48.21c.05.56.61.81,1.24.81a3.78,3.78,0,0,0,1.22-.18l.18.89a4.59,4.59,0,0,1-1.6.26,2.07,2.07,0,0,1-2.34-2.14,2.15,2.15,0,0,1,2.22-2.25,1.9,1.9,0,0,1,2,2.09,3,3,0,0,1,0,.53H165m1.61-.89a.77.77,0,0,0-.76-.85.88.88,0,0,0-.85.85Z"/><polygon class="cls-1" points="171.48 46.31 171.47 46.31 170.56 46.73 170.38 45.93 171.64 45.37 172.56 45.37 172.56 49.9 171.48 49.9 171.48 46.31"/><path class="cls-1" d="M174.46,49.14h.48a2,2,0,0,0,.95-.28,1.33,1.33,0,0,0,.6-.83l0,0a1.31,1.31,0,0,1-1,.33A1.4,1.4,0,0,1,174,46.93a1.71,1.71,0,0,1,1.8-1.64,1.76,1.76,0,0,1,1.8,2,2.64,2.64,0,0,1-.83,2.08A2.79,2.79,0,0,1,175,50h-.5v-.83m1.32-3.08c-.37,0-.65.33-.65.81a.65.65,0,0,0,.68.71.68.68,0,0,0,.62-.29.47.47,0,0,0,.06-.27c0-.48-.2-1-.7-1Z"/><path class="cls-1" d="M179.94,45.29c1.11,0,1.57.61,1.57,1.17a1.09,1.09,0,0,1-.69,1v0a1.21,1.21,0,0,1,.88,1.12c0,.83-.72,1.38-1.83,1.39s-1.76-.66-1.76-1.27a1.2,1.2,0,0,1,.85-1.14h0a1.14,1.14,0,0,1-.7-1c0-.77.73-1.28,1.68-1.28h0m0,4a.58.58,0,0,0,.64-.56c0-.4-.31-.64-.74-.75a.7.7,0,0,0-.57.68.62.62,0,0,0,.66.63h0m0-3.24a.52.52,0,0,0-.57.52c0,.31.28.51.67.62a.63.63,0,0,0,.48-.57.53.53,0,0,0-.57-.57Z"/><path class="cls-1" d="M182.44,48.87a2.59,2.59,0,0,0,1.1.28c.58,0,.86-.27.86-.6s-.47-.66-1-.66H183v-.76h.43c.38,0,.84-.15.84-.53s-.22-.47-.7-.47a2.25,2.25,0,0,0-1,.27l-.22-.76a2.88,2.88,0,0,1,1.47-.35c1,0,1.57.51,1.57,1.13a1.11,1.11,0,0,1-.87,1.06h0a1.16,1.16,0,0,1,1,1.11c0,.8-.73,1.39-1.94,1.38a3,3,0,0,1-1.41-.31Z"/><polygon class="cls-1" points="2.56 43.17 0 43.17 0 41.45 7.29 41.45 7.29 43.17 4.7 43.17 4.7 50.5 2.56 50.5 2.56 43.17"/><polygon class="cls-1" points="10.58 41.45 10.58 44.94 14.12 44.94 14.11 41.45 16.24 41.45 16.25 50.5 14.12 50.5 14.12 46.73 10.58 46.73 10.58 50.5 8.44 50.5 8.44 41.45 10.58 41.45"/><polygon class="cls-1" points="23.77 46.67 20.28 46.67 20.28 48.82 24.18 48.82 24.18 50.5 18.14 50.5 18.14 41.45 23.98 41.45 23.98 43.13 20.28 43.14 20.28 45.01 23.77 45.01 23.77 46.67"/><path class="cls-1" d="M33.42,50.65A4.3,4.3,0,0,1,29,46.05a4.48,4.48,0,0,1,4.61-4.75,4.31,4.31,0,0,1,4.5,4.58,4.39,4.39,0,0,1-4.64,4.77h0m.1-1.62c1.45,0,2.27-1.3,2.27-3.08,0-1.62-.79-3-2.27-3S31.21,44.29,31.21,46s.85,3,2.29,3Z"/><path class="cls-1" d="M39.49,41.58a16.44,16.44,0,0,1,2.85-.2,4.89,4.89,0,0,1,3.07.73A2.24,2.24,0,0,1,46.29,44a2.41,2.41,0,0,1-1.66,2.21v0a2.33,2.33,0,0,1,1.26,1.69,22.78,22.78,0,0,0,.76,2.56h-2.2a11.27,11.27,0,0,1-.65-2.11c-.26-1.14-.68-1.43-1.56-1.44h-.63V50.5H39.49V41.58m2.12,3.89h.84c1.07,0,1.71-.51,1.71-1.31s-.59-1.24-1.59-1.24a5.93,5.93,0,0,0-1,0Z"/><polygon class="cls-1" points="49.57 43.17 47.01 43.17 47.01 41.45 54.3 41.45 54.3 43.17 51.72 43.17 51.72 50.5 49.57 50.5 49.57 43.17"/><polygon class="cls-1" points="57.6 41.45 57.6 44.94 61.13 44.94 61.13 41.45 63.26 41.45 63.26 50.5 61.13 50.5 61.13 46.73 57.6 46.73 57.6 50.5 55.45 50.5 55.45 41.45 57.6 41.45"/><path class="cls-1" d="M69.16,50.66a4.31,4.31,0,0,1-4.45-4.61,4.48,4.48,0,0,1,4.6-4.75,4.3,4.3,0,0,1,4.51,4.58,4.39,4.39,0,0,1-4.65,4.77h0m.1-1.63c1.45,0,2.28-1.3,2.28-3.08,0-1.62-.81-3-2.28-3S67,44.29,67,46s.85,3,2.29,3Z"/><path class="cls-1" d="M75.23,41.58a18.57,18.57,0,0,1,2.88-.2,6.27,6.27,0,0,1,3.89.94,4,4,0,0,1,1.62,3.44,4.52,4.52,0,0,1-1.57,3.67,7.1,7.1,0,0,1-4.39,1.17,18.85,18.85,0,0,1-2.43-.13V41.58M77.36,49a4.35,4.35,0,0,0,.75,0,2.89,2.89,0,0,0,3.24-3.17c0-2-1.16-2.87-3-2.88a4.53,4.53,0,0,0-1,.09Z"/><path class="cls-1" d="M89.05,50.65a4.31,4.31,0,0,1-4.46-4.6,4.49,4.49,0,0,1,4.62-4.76,4.32,4.32,0,0,1,4.5,4.59,4.39,4.39,0,0,1-4.65,4.77h0M89.14,49c1.45,0,2.28-1.3,2.28-3.08,0-1.62-.8-3-2.28-3S86.83,44.29,86.83,46s.86,3,2.29,3Z"/><path class="cls-1" d="M95.11,50.5v-9h2.51l2,3.31a28.08,28.08,0,0,1,1.54,3.11h0a35,35,0,0,1-.16-3.79V41.45h2v9h-2.25l-2-3.49A32.24,32.24,0,0,1,97,43.81h0c.07,1.22.1,2.49.1,4V50.5Z"/><polygon class="cls-1" points="106.66 43.17 104.1 43.17 104.1 41.45 111.39 41.45 111.39 43.17 108.8 43.17 108.8 50.5 106.66 50.5 106.66 43.17"/><rect class="cls-1" x="112.54" y="41.45" width="2.14" height="9.05" transform="translate(-0.13 0.31) rotate(-0.16)"/><path class="cls-1" d="M116.62,48.41A5.55,5.55,0,0,0,119,49c1,0,1.51-.39,1.51-1s-.46-.89-1.6-1.26c-1.57-.54-2.61-1.37-2.61-2.71,0-1.54,1.36-2.72,3.58-2.71a5.71,5.71,0,0,1,2.43.46l-.48,1.63a4.67,4.67,0,0,0-2-.43c-.93,0-1.38.42-1.38.88s.52.84,1.76,1.29c1.67.59,2.44,1.42,2.44,2.71,0,1.52-1.2,2.81-3.81,2.82a6.5,6.5,0,0,1-2.69-.57Z"/><polygon class="cls-1" points="125.99 43.17 123.43 43.17 123.43 41.45 130.71 41.45 130.71 43.17 128.12 43.17 128.12 50.5 125.99 50.5 125.99 43.17"/><path class="cls-1" d="M206,5.73a3.89,3.89,0,1,0,3.89,3.89A3.9,3.9,0,0,0,206,5.73Zm3.19,3.89A3.19,3.19,0,1,1,206,6.43,3.19,3.19,0,0,1,209.22,9.62Z"/><path class="cls-1" d="M204.52,7.65a9.81,9.81,0,0,1,1.18-.08,2.23,2.23,0,0,1,1.37.32.87.87,0,0,1,.38.72,1.08,1.08,0,0,1-.9,1h0a1,1,0,0,1,.69.77,6.28,6.28,0,0,0,.37,1.06H207a4.1,4.1,0,0,1-.31-.92.86.86,0,0,0-.95-.74h-.58v1.66h-.61Zm.61,1.74h.63c.65,0,1.07-.29,1.07-.73S206.38,8,205.74,8a3.34,3.34,0,0,0-.61,0Z"/><path class="cls-1" d="M162.51,14.66a9.93,9.93,0,1,0,10,9.94,10,10,0,0,0-10-9.94m9.15,9.93a9.16,9.16,0,1,1-9.15-9.07,9.11,9.11,0,0,1,9.15,9.07"/><path class="cls-1" d="M162.51,16.48a8.1,8.1,0,1,0,8.18,8.1,8.15,8.15,0,0,0-8.18-8.1m6.72,8.1a6.73,6.73,0,1,1-6.72-6.66,6.7,6.7,0,0,1,6.72,6.66"/><path class="cls-1" d="M162.51,12.34a12.25,12.25,0,1,0,12.37,12.24,12.32,12.32,0,0,0-12.37-12.24m10.92,12.24a10.92,10.92,0,1,1-10.92-10.8,10.88,10.88,0,0,1,10.92,10.8"/><path class="cls-1" d="M133.72,21.51H123.26a.79.79,0,0,0-.78.77.8.8,0,0,0,.78.78h10.46a.79.79,0,0,0,.78-.78.78.78,0,0,0-.78-.77"/><path class="cls-1" d="M134,25a.44.44,0,0,0,.44-.45.43.43,0,0,0-.44-.43H123a.45.45,0,0,0,0,.89Z"/><path class="cls-1" d="M133.72,26H123.26a.77.77,0,1,0,0,1.54h10.46a.77.77,0,1,0,0-1.54"/><path class="cls-1" d="M54.7,13.51a.43.43,0,0,0-.45.44V35.59a.45.45,0,0,0,.89,0V14a.44.44,0,0,0-.44-.44"/><path class="cls-1" d="M57,13.43a.79.79,0,0,0-.79.78V35.3a.77.77,0,0,0,.79.76.76.76,0,0,0,.77-.77V14.21a.78.78,0,0,0-.77-.78"/><path class="cls-1" d="M52.43,13.43a.78.78,0,0,0-.77.78V35.29a.78.78,0,0,0,1.55,0V14.21a.78.78,0,0,0-.78-.78"/><path class="cls-1" d="M64.88,18.21a9.09,9.09,0,0,0-5.32,2v0h0a.74.74,0,0,0-.19,1,.76.76,0,0,0,1,.19.77.77,0,0,0,.18-.18,6.56,6.56,0,0,1,4.29-1.46c2.92,0,4,1.79,4,2.47v13a.75.75,0,1,0,1.49,0v-13s-.22-4.08-5.44-4.08"/><path class="cls-1" d="M66.05,16.09c-4.28-.25-6.21,1.4-6.63,1.76a.21.21,0,0,0-.14.07.52.52,0,0,0-.1.74.54.54,0,0,0,.75.09.27.27,0,0,0,.07-.08A9.49,9.49,0,0,1,66,17c3.54.29,5.38,2.12,5.38,3.82s0,14.82,0,14.82a.45.45,0,0,0,.46.45.44.44,0,0,0,.45-.44v-15s-.23-4.23-6.25-4.58"/><path class="cls-1" d="M66.05,13.51A11,11,0,0,0,59.46,15a.5.5,0,0,0-.2.08A.78.78,0,0,0,59,16.17a.79.79,0,0,0,1.08.28h0a1.51,1.51,0,0,0,.23-.21c2-1.65,5.75-1.28,5.75-1.28,7.14.39,7.33,5.63,7.33,5.63V35.37a.76.76,0,0,0,.76.74.75.75,0,0,0,.75-.74V20.58c0-4.81-4.86-6.73-8.84-7.07"/><path class="cls-1" d="M145,11.68a.43.43,0,0,0,.43-.43V6.88a.43.43,0,0,0-.43-.43.44.44,0,0,0-.44.43v4.37a.45.45,0,0,0,.44.43"/><path class="cls-1" d="M147.23,11.7A.75.75,0,0,0,148,11V7.13a.76.76,0,0,0-1.52,0V11a.75.75,0,0,0,.76.75"/><path class="cls-1" d="M136.05,48.42c10.24-.92,9.36-11.24,9.36-11.24V13.94a.43.43,0,0,0-.43-.43.44.44,0,0,0-.44.43V37.19c.42,10.05-8.49,10.36-8.49,10.36a.42.42,0,0,0-.43.42.44.44,0,0,0,.43.45"/><path class="cls-1" d="M136.35,46.38s7.19.36,7.19-9.49V14.19a.76.76,0,0,0-1.52,0v22.7s.55,7.58-5.67,8.06a.72.72,0,0,0-.73.71.73.73,0,0,0,.73.72"/><path class="cls-1" d="M142.78,11.7a.75.75,0,0,0,.76-.75V7.13a.76.76,0,1,0-1.52,0V11a.75.75,0,0,0,.76.75"/><path class="cls-1" d="M145,11.68a.43.43,0,0,0,.43-.43V6.88a.43.43,0,0,0-.43-.43.44.44,0,0,0-.44.43v4.37a.45.45,0,0,0,.44.43"/><path class="cls-1" d="M147.23,11.7A.75.75,0,0,0,148,11V7.13a.76.76,0,0,0-1.52,0V11a.75.75,0,0,0,.76.75"/><path class="cls-1" d="M136.05,48.42c10.24-.92,9.36-11.24,9.36-11.24V13.94a.43.43,0,0,0-.43-.43.44.44,0,0,0-.44.43V37.19c.42,10.05-8.49,10.36-8.49,10.36a.42.42,0,0,0-.43.42.44.44,0,0,0,.43.45"/><path class="cls-1" d="M136.35,46.38s7.19.36,7.19-9.49V14.19a.76.76,0,0,0-1.52,0v22.7s.55,7.58-5.67,8.06a.72.72,0,0,0-.73.71.73.73,0,0,0,.73.72"/><path class="cls-1" d="M142.78,11.7a.75.75,0,0,0,.76-.75V7.13a.76.76,0,1,0-1.52,0V11a.75.75,0,0,0,.76.75"/><path class="cls-1" d="M148,14.19a.76.76,0,0,0-1.52,0v22.7c0,12.33-8.62,12.6-10.05,12.6a.5.5,0,0,0-.17,0,.72.72,0,0,0-.73.72.73.73,0,0,0,.73.73c12.58,0,11.74-14,11.74-14"/><path class="cls-1" d="M188.17,45a.72.72,0,1,0,0,1.43s7.19.36,7.19-9.49V14.19a.76.76,0,0,0-1.52,0v22.7s.55,7.57-5.67,8.06"/><path class="cls-1" d="M192.46,30.37a.77.77,0,0,0,.1-.88c-.22-.29-.71-.25-1.09,0-2.47,2-8.41.82-8.41-2.08V14.19a.68.68,0,0,0-1.36,0V27.35C181.7,31.36,188.18,33.33,192.46,30.37Z"/><path class="cls-1" d="M192.31,32.77a.41.41,0,0,0,0-.57.5.5,0,0,0-.65,0c-3.34,2.06-11.15.75-11.15-4.34V14a.45.45,0,0,0-.46-.45.44.44,0,0,0-.45.45V27.91C179.63,33.74,187.92,35.71,192.31,32.77Z"/><path class="cls-1" d="M187.87,47.55a.42.42,0,0,0-.43.42.44.44,0,0,0,.43.45c10.23-.93,9.37-11.24,9.37-11.24V13.94a.44.44,0,0,0-.44-.43.44.44,0,0,0-.44.43V37.18c.43,10.06-8.49,10.37-8.49,10.37"/><path class="cls-1" d="M192,35.79C184.16,38.64,177,33.94,177,27.91V14.42a.75.75,0,0,1,.76-.74.74.74,0,0,1,.75.74V27.61c0,6.82,8,8.68,12.69,6.94a.93.93,0,0,1,1.14.05C192.89,35.33,192,35.79,192,35.79Z"/><path class="cls-1" d="M199.81,14.19a.76.76,0,0,0-.76-.75.75.75,0,0,0-.75.75v22.7c0,12.52-8.76,12.6-10.07,12.6a.39.39,0,0,0-.16,0,.73.73,0,0,0-.73.72.74.74,0,0,0,.73.73c12.57,0,11.74-14,11.74-14Z"/><path class="cls-1" d="M73.82,7.17h5.47c1,0,.76-.75.76-.75V.75a.76.76,0,0,0-1.51,0V5c0,.78-.44.63-.44.63H73.83a.74.74,0,0,0-.77.75.75.75,0,0,0,.76.76"/><path class="cls-1" d="M73.46,8.52a.4.4,0,0,0,.41.41h6.35s.8.06.8.63V29.86s-.2,4.11,6.33,3.91h0a.44.44,0,0,0,.45-.46.45.45,0,0,0-.45-.44h0c-5.59.14-5.2-3-5.2-3V9.57c0-.57.79-.64.79-.64h6.44a.4.4,0,0,0,.42-.41.41.41,0,0,0-.42-.41H82.93s-.79-.06-.79-.64V.56H81V7.47c0,.58-.8.64-.8.64H73.87a.41.41,0,0,0-.41.41"/><path class="cls-1" d="M89.35,5.65H85.07s-.44.16-.44-.62V.75a.76.76,0,0,0-1.51,0V6.43s-.24.74.75.74h5.48a.77.77,0,0,0,.76-.77.77.77,0,0,0-.76-.76"/><path class="cls-1" d="M87.05,34.79s-6,.29-7-3.81V10.86s.24-.75-.76-.75H73.82a.76.76,0,1,0,0,1.52H78.1s.44-.14.44.63V31s.34,5.35,8.5,5.35h0a.77.77,0,0,0,.77-.78.76.76,0,0,0-.77-.76"/><path class="cls-1" d="M89.35,10.11H83.87c-1,0-.75.75-.75.75v18a5.75,5.75,0,0,0,0,.93,2.39,2.39,0,0,0,2.25,1.92,17.24,17.24,0,0,0,1.72.12.74.74,0,0,0-.2-1.47c-2.23,0-2.31-.65-2.31-1.15v-17c0-.78.44-.63.44-.63h4.28a.75.75,0,0,0,.76-.76.76.76,0,0,0-.76-.75"/><path class="cls-1" d="M14.7,6.33a3.71,3.71,0,0,0-1.8-.47H1c-1.11,0-1,.66-1,.66v28.9a.7.7,0,0,0,1.4,0V7.73s-.08-.48,1.08-.48H12.9A4.53,4.53,0,0,1,14.75,8a14,14,0,0,1,7.1,12.89c-.49,12.1-8.36,13.8-8.36,13.8H8a.7.7,0,1,0,0,1.4h5.91c2.1,0,9.58-5,9.58-15.2A16,16,0,0,0,14.7,6.33"/><path class="cls-1" d="M16.8,20.91C16.8,28.28,12,30,12,30H8.21a.73.73,0,0,0-.72.74.71.71,0,0,0,.72.71h4.26s5.88-2,5.88-10.54-7.2-10.4-7.2-10.4H5.75c-1.27,0-1.27.87-1.27.87V35.31a.76.76,0,0,0,.77.75A.75.75,0,0,0,6,35.31S6,12.88,6,12.37a.49.49,0,0,1,.5-.51h4.67s5.65,1.7,5.65,9.05"/><path class="cls-1" d="M3,8.34a.48.48,0,0,0-.46.48V35.61a.48.48,0,0,0,.46.48.48.48,0,0,0,.46-.48V9.29h8.72a11.19,11.19,0,0,1,3.73,2.3,11.06,11.06,0,0,1,2.57,3.53,13.58,13.58,0,0,1,1.17,5.75,15.2,15.2,0,0,1-1.06,5.84,11.57,11.57,0,0,1-2.33,3.6,10.15,10.15,0,0,1-3.36,2.33H8a.46.46,0,0,0-.45.47.47.47,0,0,0,.45.48h5a.35.35,0,0,0,.14,0A10.23,10.23,0,0,0,16.88,31a12.6,12.6,0,0,0,2.55-3.9,16.3,16.3,0,0,0,1.15-6.25,14.59,14.59,0,0,0-1.27-6.18,12.25,12.25,0,0,0-2.81-3.84,11.71,11.71,0,0,0-4.11-2.49l-.13,0Z"/><path class="cls-1" d="M114.62,30.26h-.33c-.31,0-.4-.27-.4-.69V21.06c0-4.19-2.88-7.51-8.24-7.51H92.93a.72.72,0,0,0-.73.72.73.73,0,0,0,.73.72h12.69c2.85,0,6.8,1.3,6.8,6.06v9.19a1.39,1.39,0,0,0,1.47,1.45h.73a.72.72,0,0,0,0-1.44"/><path class="cls-1" d="M114.82,32.7H112.7c-1.12,0-1.28-1.27-1.28-1.27v-10a5.5,5.5,0,0,0-5.55-5.71H92.68a.48.48,0,1,0,0,1h13.08a4.81,4.81,0,0,1,4.77,4.75V31.57a2,2,0,0,0,2.17,2.14h2.12a.51.51,0,1,0,0-1"/><path class="cls-1" d="M114.6,34.51h-3.18c-1.78,0-1.71-2-1.71-2v-10c0-4.7-3.51-5-4.9-5H92.9a.7.7,0,1,0,0,1.39H105c3,0,3.35,2.88,3.35,3.57v10.1A3.38,3.38,0,0,0,110.9,36h3.7a.74.74,0,0,0,0-1.48"/><path class="cls-1" d="M99.5,22.22a5.86,5.86,0,0,0-2.88,1.29A5.6,5.6,0,0,0,94.41,28a6,6,0,0,0,1.85,4.71A5.13,5.13,0,0,0,99.62,34a5.81,5.81,0,0,0,5.07-2.39,6,6,0,0,0,1-2.41.47.47,0,0,0-.4-.53.46.46,0,0,0-.51.41c0,.16-.55,4-5.14,4-1.49,0-4.3-1.06-4.3-5.08a4.61,4.61,0,0,1,1.86-3.72,5.17,5.17,0,0,1,2.32-1.1h6.64a.48.48,0,0,0,0-1Z"/><path class="cls-1" d="M100.37,23.83a4,4,0,0,0-3.2,1.62,5,5,0,0,0-1,2.9A3.7,3.7,0,0,0,99,32.16a4,4,0,0,0,3.23-.5,3.78,3.78,0,0,0,1.58-2.18.72.72,0,0,0-.53-.83.69.69,0,0,0-.8.55,2.44,2.44,0,0,1-1,1.29,2.66,2.66,0,0,1-2.2.3h-.07a2.32,2.32,0,0,1-1.76-2.43c0-1.06.88-3.12,2.89-3.12h5.51a.7.7,0,0,0,0-1.4Z"/><path class="cls-1" d="M99,20.13A6.52,6.52,0,0,0,94.76,22a8.3,8.3,0,0,0-2.57,5.36c0,.35,0,.7,0,1a7.92,7.92,0,0,0,5,7.43,7.32,7.32,0,0,0,3.16.41,9,9,0,0,0,3.88-1.17,7.34,7.34,0,0,0,3.51-5.53.69.69,0,0,0-.57-.79.67.67,0,0,0-.76.59,6,6,0,0,1-2.85,4.52,7.42,7.42,0,0,1-5.9.66l-.07,0a6.58,6.58,0,0,1-4-7h0c.38-3.89,3.42-6,5.46-6h7a.7.7,0,0,0,0-1.4H99m-6.81,7.23Z"/><path class="cls-1" d="M25.15,24.58a12.31,12.31,0,0,0,23.93,4.06.68.68,0,1,0-1.29-.45,11,11,0,1,1,.53-4.86.49.49,0,0,1-.47.57H34.17a.68.68,0,0,0-.69.68.69.69,0,0,0,.69.69H49.08a.82.82,0,0,0,.55-.19.67.67,0,0,0,.14-.5v-.07l0-.54a12.31,12.31,0,0,0-24.6.61Z"/><path class="cls-1" d="M29.24,24.58a8.22,8.22,0,0,0,15.56,3.7.69.69,0,0,0-.3-.92.7.7,0,0,0-.93.3,6.84,6.84,0,1,1-1.88-8.46c.25.19.38.3.35.44s-.2.18-.54.18H34.17a.69.69,0,0,0,0,1.38H44c.26,0,.56,0,.66-.26s-.11-.59-.25-.8a8.22,8.22,0,0,0-15.13,4.44Z"/><path class="cls-1" d="M27.39,24.58a10.07,10.07,0,0,0,19.48,3.59.47.47,0,0,0-.27-.61.47.47,0,0,0-.6.27,9.13,9.13,0,1,1-8.54-12.38,8.74,8.74,0,0,1,8.4,6c.13.36-.07.64-.34.64H33.92a.47.47,0,0,0,0,.93H46.59a.47.47,0,0,0,.46-.55c0-.09,0-.29,0-.38a9.64,9.64,0,0,0-9.54-7.54A10.08,10.08,0,0,0,27.39,24.58Z"/></g></g></svg>