<?xml version="1.0" encoding="utf-8"?>
<!-- Generator: Adobe Illustrator 24.1.2, SVG Export Plug-In . SVG Version: 6.00 Build 0)  -->
<!DOCTYPE svg PUBLIC "-//W3C//DTD SVG 1.1//EN" "http://www.w3.org/Graphics/SVG/1.1/DTD/svg11.dtd" [
	<!ENTITY ns_extend "http://ns.adobe.com/Extensibility/1.0/">
	<!ENTITY ns_ai "http://ns.adobe.com/AdobeIllustrator/10.0/">
	<!ENTITY ns_graphs "http://ns.adobe.com/Graphs/1.0/">
	<!ENTITY ns_vars "http://ns.adobe.com/Variables/1.0/">
	<!ENTITY ns_imrep "http://ns.adobe.com/ImageReplacement/1.0/">
	<!ENTITY ns_sfw "http://ns.adobe.com/SaveForWeb/1.0/">
	<!ENTITY ns_custom "http://ns.adobe.com/GenericCustomNamespace/1.0/">
	<!ENTITY ns_adobe_xpath "http://ns.adobe.com/XPath/1.0/">
]>
<svg version="1.1" id="Layer_1" xmlns:x="&ns_extend;" xmlns:i="&ns_ai;" xmlns:graph="&ns_graphs;"
	 xmlns="http://www.w3.org/2000/svg" xmlns:xlink="http://www.w3.org/1999/xlink" x="0px" y="0px" viewBox="0 0 246.2 246.2"
	 style="enable-background:new 0 0 246.2 246.2;" xml:space="preserve">
<style type="text/css">
	.st0{display:none;}
	.st1{display:none;fill:#3DFFA5;}
	.st2{fill:#FFFFFF;}
	.st3{display:none;fill:#FFFFFF;}
	.st4{fill:url(#SVGID_1_);}
	.st5{fill:url(#SVGID_2_);}
	.st6{fill:url(#SVGID_3_);}
	.st7{fill:url(#SVGID_4_);}
	.st8{fill:url(#SVGID_5_);}
	.st9{fill:url(#SVGID_6_);}
	.st10{fill:url(#SVGID_7_);}
	.st11{fill:url(#SVGID_8_);}
	.st12{fill:url(#SVGID_9_);}
	.st13{fill:url(#SVGID_10_);}
	.st14{fill:url(#SVGID_11_);}
	.st15{fill:url(#SVGID_12_);}
	.st16{fill:url(#SVGID_13_);}
	.st17{fill:url(#SVGID_14_);}
	.st18{fill:url(#SVGID_15_);}
	.st19{fill:url(#SVGID_16_);}
	.st20{fill:url(#SVGID_17_);}
	.st21{fill:url(#SVGID_18_);}
	.st22{fill:url(#SVGID_19_);}
	.st23{fill:url(#SVGID_20_);}
	.st24{fill:url(#SVGID_21_);}
	.st25{fill:url(#SVGID_22_);}
	.st26{fill:url(#SVGID_23_);}
	.st27{fill:url(#SVGID_24_);}
	.st28{fill:url(#SVGID_25_);}
	.st29{fill:url(#SVGID_26_);}
	.st30{fill:url(#SVGID_27_);}
	.st31{fill:url(#SVGID_28_);}
	.st32{fill:url(#SVGID_29_);}
	.st33{fill:url(#SVGID_30_);}
	.st34{fill:url(#SVGID_31_);}
</style>
<metadata>
	<sfw  xmlns="&ns_sfw;">
		<slices></slices>
		<sliceSourceBounds  bottomLeftOrigin="true" height="246.2" width="246.2" x="0" y="0"></sliceSourceBounds>
	</sfw>
</metadata>
<g id="Layer_2_1_" class="st0">
</g>
<g id="Layer_1_1_">
	<rect class="st1" width="246.2" height="246.2"/>
	<path class="st2" d="M246.2,205.8c0,22.2-18.2,40.4-40.4,40.4H40.4C18.2,246.2,0,228,0,205.8V40.4C0,18.2,18.2,0,40.4,0h164.9
		c22.6,0,40.9,18.2,40.9,40.4L246.2,205.8L246.2,205.8z"/>
	<ellipse class="st3" cx="123.1" cy="117" rx="24.9" ry="25"/>
	<g>
		<g>
			<g>
				
					<linearGradient id="SVGID_1_" gradientUnits="userSpaceOnUse" x1="29.4012" y1="1116.7273" x2="193.2768" y2="1116.7273" gradientTransform="matrix(1 0 0 1 0 -999.2)">
					<stop  offset="0" style="stop-color:#ED1E79"/>
					<stop  offset="0.573" style="stop-color:#9D2787"/>
					<stop  offset="1" style="stop-color:#662D91"/>
				</linearGradient>
				<path class="st4" d="M193.5,115.5c-0.5,2.5-2,4-5,4c-51.6,0-103.2,0-155.2,0c-1,0-2.5,0-3.5,0c-1-3.5-0.5-4,2.5-4
					c25.8,0,51.1,0,76.9,0c1,0,1.5,0,2.5,0c0.5,0,2.5,0,3.5,0c25.3,0,51.1,0,76.4,0C192,115.5,192.5,115.5,193.5,115.5z"/>
				
					<linearGradient id="SVGID_2_" gradientUnits="userSpaceOnUse" x1="44.0068" y1="1075.0692" x2="164.4867" y2="1075.0692" gradientTransform="matrix(1 0 0 1 0 -999.2)">
					<stop  offset="0" style="stop-color:#ED1E79"/>
					<stop  offset="0.573" style="stop-color:#9D2787"/>
					<stop  offset="1" style="stop-color:#662D91"/>
				</linearGradient>
				<path class="st5" d="M44.2,77.9c0-1.5,0-2.5,0-4c1,0,2,0,3,0c37.7,0,75.4,0,113.1,0c3,0,4,1.5,5,4
					C124.1,77.9,84.4,77.9,44.2,77.9z"/>
				
					<linearGradient id="SVGID_3_" gradientUnits="userSpaceOnUse" x1="43.99" y1="1066.6384" x2="159.8071" y2="1066.6384" gradientTransform="matrix(1 0 0 1 0 -999.2)">
					<stop  offset="0" style="stop-color:#ED1E79"/>
					<stop  offset="0.573" style="stop-color:#9D2787"/>
					<stop  offset="1" style="stop-color:#662D91"/>
				</linearGradient>
				<path class="st6" d="M43.8,69.4c0-1,0-2.5,0-4c1,0,2,0,3,0c36.2,0,72.4,0,108.6,0c3,0,4,1,4.5,4C121.1,69.4,82.9,69.4,43.8,69.4
					z"/>
				
					<linearGradient id="SVGID_4_" gradientUnits="userSpaceOnUse" x1="44.0773" y1="1058.2076" x2="155.1652" y2="1058.2076" gradientTransform="matrix(1 0 0 1 0 -999.2)">
					<stop  offset="0" style="stop-color:#ED1E79"/>
					<stop  offset="0.573" style="stop-color:#9D2787"/>
					<stop  offset="1" style="stop-color:#662D91"/>
				</linearGradient>
				<path class="st7" d="M155.3,61c-37.2,0-73.9,0-111.1,0c0-1,0-2.5,0-4c1,0,1.5,0,2.5,0c34.7,0,69.4,0,104.6,0
					C154.3,57,154.3,57.5,155.3,61z"/>
				
					<linearGradient id="SVGID_5_" gradientUnits="userSpaceOnUse" x1="44.0153" y1="1050.0249" x2="150.9593" y2="1050.0249" gradientTransform="matrix(1 0 0 1 0 -999.2)">
					<stop  offset="0" style="stop-color:#ED1E79"/>
					<stop  offset="0.573" style="stop-color:#9D2787"/>
					<stop  offset="1" style="stop-color:#662D91"/>
				</linearGradient>
				<path class="st8" d="M44.2,52.6c0-1.5,0-2.5,0-3.5c1.5,0,3,0,4.5,0c32.7,0,65.5,0,98.2,0c3,0,3.5,1.5,4.5,3.5
					C115.2,52.6,80,52.6,44.2,52.6z"/>
				
					<linearGradient id="SVGID_6_" gradientUnits="userSpaceOnUse" x1="36.8084" y1="1141.5237" x2="136.986" y2="1141.5237" gradientTransform="matrix(1 0 0 1 0 -999.2)">
					<stop  offset="0" style="stop-color:#ED1E79"/>
					<stop  offset="0.573" style="stop-color:#9D2787"/>
					<stop  offset="1" style="stop-color:#662D91"/>
				</linearGradient>
				<path class="st9" d="M137,140.3c-1.5,2-2.5,4-6,4c-30.3-0.5-61-0.5-91.3-0.5c-1,0-2,0-3,0c0-1.5,0-2.5,0-3.5
					C70,140.3,103.3,140.3,137,140.3z"/>
				
					<linearGradient id="SVGID_7_" gradientUnits="userSpaceOnUse" x1="44.048" y1="1133.3408" x2="142.7378" y2="1133.3408" gradientTransform="matrix(1 0 0 1 0 -999.2)">
					<stop  offset="0" style="stop-color:#ED1E79"/>
					<stop  offset="0.573" style="stop-color:#9D2787"/>
					<stop  offset="1" style="stop-color:#662D91"/>
				</linearGradient>
				<path class="st10" d="M44.2,135.9c0-1.5,0-2.5,0-3.5c32.7,0,66,0,98.7,0c-1,2-1.5,3.5-4,3.5c-30.7,0-61.5,0-92.2,0
					C45.7,135.9,45.2,135.9,44.2,135.9z"/>
				
					<linearGradient id="SVGID_8_" gradientUnits="userSpaceOnUse" x1="116.157" y1="1100.3616" x2="201.7498" y2="1100.3616" gradientTransform="matrix(1 0 0 1 0 -999.2)">
					<stop  offset="0" style="stop-color:#ED1E79"/>
					<stop  offset="0.573" style="stop-color:#9D2787"/>
					<stop  offset="1" style="stop-color:#662D91"/>
				</linearGradient>
				<path class="st11" d="M116.2,99.2c28.8,0,57,0,85.8,0c-0.5,3.5-1,4-4.5,4c-25.8,0-52.1,0-77.9,0
					C116.2,103.1,116.2,103.1,116.2,99.2z"/>
				
					<linearGradient id="SVGID_9_" gradientUnits="userSpaceOnUse" x1="112.6855" y1="1091.6829" x2="206.1774" y2="1091.6829" gradientTransform="matrix(1 0 0 1 0 -999.2)">
					<stop  offset="0" style="stop-color:#ED1E79"/>
					<stop  offset="0.573" style="stop-color:#9D2787"/>
					<stop  offset="1" style="stop-color:#662D91"/>
				</linearGradient>
				<path class="st12" d="M112.7,90.7c31.2,0,62.5,0,93.7,0c-1,3.5-1,3.5-4.5,3.5c-28.3,0-56.5,0-84.3,0
					C115.2,93.7,114.2,92.7,112.7,90.7z"/>
				
					<linearGradient id="SVGID_10_" gradientUnits="userSpaceOnUse" x1="44.0267" y1="1149.7065" x2="128.3583" y2="1149.7065" gradientTransform="matrix(1 0 0 1 0 -999.2)">
					<stop  offset="0" style="stop-color:#ED1E79"/>
					<stop  offset="0.573" style="stop-color:#9D2787"/>
					<stop  offset="1" style="stop-color:#662D91"/>
				</linearGradient>
				<path class="st13" d="M128.6,148.8c-2.5,2.5-5,3.5-8.4,3.5c-23.8,0-47.6,0-70.9,0c-1.5,0-3,0-4.5,0c0-1.5,0-2.5,0-3.5
					C72,148.8,100.3,148.8,128.6,148.8z"/>
				
					<linearGradient id="SVGID_11_" gradientUnits="userSpaceOnUse" x1="115.1651" y1="1108.5444" x2="197.2701" y2="1108.5444" gradientTransform="matrix(1 0 0 1 0 -999.2)">
					<stop  offset="0" style="stop-color:#ED1E79"/>
					<stop  offset="0.573" style="stop-color:#9D2787"/>
					<stop  offset="1" style="stop-color:#662D91"/>
				</linearGradient>
				<path class="st14" d="M115.2,111.1c0.5-1.5,0.5-2.5,1-3.5c27.3,0,54.1,0,81.3,0c-0.5,3.5-1,3.5-4,3.5c-25.3,0-50.6,0-75.4,0
					C117.1,111.1,116.2,111.1,115.2,111.1z"/>
				
					<linearGradient id="SVGID_12_" gradientUnits="userSpaceOnUse" x1="18.0772" y1="1091.6829" x2="90.9787" y2="1091.6829" gradientTransform="matrix(1 0 0 1 0 -999.2)">
					<stop  offset="0" style="stop-color:#ED1E79"/>
					<stop  offset="0.573" style="stop-color:#9D2787"/>
					<stop  offset="1" style="stop-color:#662D91"/>
				</linearGradient>
				<path class="st15" d="M18,94.2c0-1.5,0-2.5,0-3.5c24.3,0,48.6,0,72.9,0c0,1,0,2,0,3.5C66.6,94.2,42.8,94.2,18,94.2z"/>
				
					<linearGradient id="SVGID_13_" gradientUnits="userSpaceOnUse" x1="43.8754" y1="1099.8657" x2="107.589" y2="1099.8657" gradientTransform="matrix(1 0 0 1 0 -999.2)">
					<stop  offset="0" style="stop-color:#ED1E79"/>
					<stop  offset="0.573" style="stop-color:#9D2787"/>
					<stop  offset="1" style="stop-color:#662D91"/>
				</linearGradient>
				<path class="st16" d="M44.2,102.6c-0.5-4-0.5-4,3-4c19.3,0,38.7,0,57.5,0c1,0,2,0,3,0c0,1.5,0,2.5,0,4
					C86.4,102.6,65.1,102.6,44.2,102.6z"/>
				
					<linearGradient id="SVGID_14_" gradientUnits="userSpaceOnUse" x1="25.0901" y1="1124.91" x2="95.6151" y2="1124.91" gradientTransform="matrix(1 0 0 1 0 -999.2)">
					<stop  offset="0" style="stop-color:#ED1E79"/>
					<stop  offset="0.573" style="stop-color:#9D2787"/>
					<stop  offset="1" style="stop-color:#662D91"/>
				</linearGradient>
				<path class="st17" d="M95.8,124c0,1,0,2,0,3.5c-23.3,0-46.6,0-70.4,0c0-0.5,0-1,0-1.5c0-0.5,0-1,0-2C48.7,124,72,124,95.8,124z"
					/>
				
					<linearGradient id="SVGID_15_" gradientUnits="userSpaceOnUse" x1="104.4923" y1="1083.5" x2="168.963" y2="1083.5" gradientTransform="matrix(1 0 0 1 0 -999.2)">
					<stop  offset="0" style="stop-color:#ED1E79"/>
					<stop  offset="0.573" style="stop-color:#9D2787"/>
					<stop  offset="1" style="stop-color:#662D91"/>
				</linearGradient>
				<path class="st18" d="M104.8,82.3c13.4,0,26.8,0,40.2,0c6.4,0,12.4,0,18.8,0c4,0,4,0,5,4c-0.5,0-1,0-2,0c-18.8,0-37.7,0-56.5,0
					c-2-1-4.5-2-6-3C104.8,82.8,104.8,82.3,104.8,82.3z"/>
				
					<linearGradient id="SVGID_16_" gradientUnits="userSpaceOnUse" x1="44.0118" y1="1158.6332" x2="112.7574" y2="1158.6332" gradientTransform="matrix(1 0 0 1 0 -999.2)">
					<stop  offset="0" style="stop-color:#ED1E79"/>
					<stop  offset="0.573" style="stop-color:#9D2787"/>
					<stop  offset="1" style="stop-color:#662D91"/>
				</linearGradient>
				<path class="st19" d="M44.2,161.2c0-1.5,0-2.5,0-3.5c22.8,0,45.6,0,68.4,0v0.5c-5,1-9.9,2.5-15.4,2.5c-17.4,0.5-34.7,0-52.1,0
					C45.2,161.2,44.7,161.2,44.2,161.2z"/>
				
					<linearGradient id="SVGID_17_" gradientUnits="userSpaceOnUse" x1="36.1935" y1="1108.5444" x2="99.0008" y2="1108.5444" gradientTransform="matrix(1 0 0 1 0 -999.2)">
					<stop  offset="0" style="stop-color:#ED1E79"/>
					<stop  offset="0.573" style="stop-color:#9D2787"/>
					<stop  offset="1" style="stop-color:#662D91"/>
				</linearGradient>
				<path class="st20" d="M36.3,111.1c0-1.5,0-2.5,0-3.5c20.8,0,41.7,0,63,0c0,1,0,2.5,0,3.5C78,111.1,57.1,111.1,36.3,111.1z"/>
				
					<linearGradient id="SVGID_18_" gradientUnits="userSpaceOnUse" x1="44.0505" y1="1083.5" x2="97.1148" y2="1083.5" gradientTransform="matrix(1 0 0 1 0 -999.2)">
					<stop  offset="0" style="stop-color:#ED1E79"/>
					<stop  offset="0.573" style="stop-color:#9D2787"/>
					<stop  offset="1" style="stop-color:#662D91"/>
				</linearGradient>
				<path class="st21" d="M97.3,82.3c0,1.5,0,2.5,0,4c-17.9,0-35.2,0-53.1,0c0-1.5,0-2.5,0-4C61.6,82.3,79.5,82.3,97.3,82.3z"/>
				
					<linearGradient id="SVGID_19_" gradientUnits="userSpaceOnUse" x1="174.5094" y1="1075.3173" x2="215.0823" y2="1075.3173" gradientTransform="matrix(1 0 0 1 0 -999.2)">
					<stop  offset="0" style="stop-color:#ED1E79"/>
					<stop  offset="0.573" style="stop-color:#9D2787"/>
					<stop  offset="1" style="stop-color:#662D91"/>
				</linearGradient>
				<path class="st22" d="M214.8,73.9c-1,4-1.5,4.5-5,4.5c-10.9,0-22.3,0-33.2,0c-1,0-1.5,0-2.5,0c1-3.5,1.5-4.5,5-4.5
					c10.9,0,22.3,0,33.2,0C213.4,73.9,214.4,73.9,214.8,73.9z"/>
				
					<linearGradient id="SVGID_20_" gradientUnits="userSpaceOnUse" x1="170.2132" y1="1083.5" x2="210.739" y2="1083.5" gradientTransform="matrix(1 0 0 1 0 -999.2)">
					<stop  offset="0" style="stop-color:#ED1E79"/>
					<stop  offset="0.573" style="stop-color:#9D2787"/>
					<stop  offset="1" style="stop-color:#662D91"/>
				</linearGradient>
				<path class="st23" d="M210.9,82.3c-1.5,4-1.5,4-5,4c-11.4,0-22.8,0-34.2,0c-0.5,0-1,0-1.5,0c0.5-3.5,1-4,4.5-4
					c11.4,0,22.3,0,33.7,0C208.9,82.3,209.9,82.3,210.9,82.3z"/>
				
					<linearGradient id="SVGID_21_" gradientUnits="userSpaceOnUse" x1="98.3036" y1="1125.1581" x2="145.4703" y2="1125.1581" gradientTransform="matrix(1 0 0 1 0 -999.2)">
					<stop  offset="0" style="stop-color:#ED1E79"/>
					<stop  offset="0.573" style="stop-color:#9D2787"/>
					<stop  offset="1" style="stop-color:#662D91"/>
				</linearGradient>
				<path class="st24" d="M98.3,127.9c7.9-1.5,10.4-2.5,14.4-4c9.9,0.5,19.8,0,29.8,0c1,0,2,0,3,0c-0.5,3.5-1,4-4.5,4
					c-13.4,0-26.8,0-40.2,0C100.3,127.9,99.8,127.9,98.3,127.9z"/>
				
					<linearGradient id="SVGID_22_" gradientUnits="userSpaceOnUse" x1="150.4187" y1="1125.1581" x2="188.8155" y2="1125.1581" gradientTransform="matrix(1 0 0 1 0 -999.2)">
					<stop  offset="0" style="stop-color:#ED1E79"/>
					<stop  offset="0.573" style="stop-color:#9D2787"/>
					<stop  offset="1" style="stop-color:#662D91"/>
				</linearGradient>
				<path class="st25" d="M150.4,124c12.9,0,25.8,0,38.2,0c-0.5,3.5-1,4-4.5,4c-9.4,0-19.3,0-28.8,0
					C151.9,127.9,151.9,127.9,150.4,124z"/>
				
					<linearGradient id="SVGID_23_" gradientUnits="userSpaceOnUse" x1="179.0675" y1="1066.6384" x2="219.2908" y2="1066.6384" gradientTransform="matrix(1 0 0 1 0 -999.2)">
					<stop  offset="0" style="stop-color:#ED1E79"/>
					<stop  offset="0.573" style="stop-color:#9D2787"/>
					<stop  offset="1" style="stop-color:#662D91"/>
				</linearGradient>
				<path class="st26" d="M219.3,65.5c-0.5,3-1.5,4-4.5,4c-11.9,0-23.8,0-35.7,0c0.5-3,1.5-4,4.5-4c10.9,0,22.3,0,33.2,0
					C217.3,65.5,218.3,65.5,219.3,65.5z"/>
				
					<linearGradient id="SVGID_24_" gradientUnits="userSpaceOnUse" x1="183.6886" y1="1058.2076" x2="223.7596" y2="1058.2076" gradientTransform="matrix(1 0 0 1 0 -999.2)">
					<stop  offset="0" style="stop-color:#ED1E79"/>
					<stop  offset="0.573" style="stop-color:#9D2787"/>
					<stop  offset="1" style="stop-color:#662D91"/>
				</linearGradient>
				<path class="st27" d="M223.8,57c-1.5,4-1.5,4-5,4c-10.9,0-22.3,0-33.2,0c-0.5,0-1,0-2,0c0.5-3.5,1-4,4-4c11.4,0,22.3,0,33.7,0
					C222.3,57,222.8,57,223.8,57z"/>
				
					<linearGradient id="SVGID_25_" gradientUnits="userSpaceOnUse" x1="188.0666" y1="1049.7769" x2="228.0841" y2="1049.7769" gradientTransform="matrix(1 0 0 1 0 -999.2)">
					<stop  offset="0" style="stop-color:#ED1E79"/>
					<stop  offset="0.573" style="stop-color:#9D2787"/>
					<stop  offset="1" style="stop-color:#662D91"/>
				</linearGradient>
				<path class="st28" d="M228.2,48.6c-0.5,3.5-2.5,4-5,4c-10.9,0-21.8,0-32.7,0c-1,0-1.5,0-2.5,0c0.5-2.5,1.5-4,4.5-4
					c10.9,0,21.8,0,32.7,0C226.3,48.6,227.2,48.6,228.2,48.6z"/>
				
					<linearGradient id="SVGID_26_" gradientUnits="userSpaceOnUse" x1="154.6029" y1="1133.5887" x2="184.4687" y2="1133.5887" gradientTransform="matrix(1 0 0 1 0 -999.2)">
					<stop  offset="0" style="stop-color:#ED1E79"/>
					<stop  offset="0.573" style="stop-color:#9D2787"/>
					<stop  offset="1" style="stop-color:#662D91"/>
				</linearGradient>
				<path class="st29" d="M154.8,132.4c9.9,0,19.8,0,29.8,0c-0.5,3.5-1,4-4,4c-6.4,0-13.4,0-19.8,0
					C156.3,136.4,156.3,136.4,154.8,132.4z"/>
				
					<linearGradient id="SVGID_27_" gradientUnits="userSpaceOnUse" x1="159.2155" y1="1142.0197" x2="180.2617" y2="1142.0197" gradientTransform="matrix(1 0 0 1 0 -999.2)">
					<stop  offset="0" style="stop-color:#ED1E79"/>
					<stop  offset="0.573" style="stop-color:#9D2787"/>
					<stop  offset="1" style="stop-color:#662D91"/>
				</linearGradient>
				<path class="st30" d="M180.1,140.8c-1.5,4-1.5,4-5.5,4c-3.5,0-6.9,0-9.9,0c-4,0-4,0-5.5-4C166.2,140.8,173.2,140.8,180.1,140.8z
					"/>
				
					<linearGradient id="SVGID_28_" gradientUnits="userSpaceOnUse" x1="163.6273" y1="1149.995" x2="176.0567" y2="1149.995" gradientTransform="matrix(1 0 0 1 0 -999.2)">
					<stop  offset="0" style="stop-color:#ED1E79"/>
					<stop  offset="0.573" style="stop-color:#9D2787"/>
					<stop  offset="1" style="stop-color:#662D91"/>
				</linearGradient>
				<path class="st31" d="M163.8,148.8c4,0,7.9,0,12.4,0c-1,1.5-0.5,4-3,4C164.3,152.7,165.7,153.7,163.8,148.8z"/>
				
					<linearGradient id="SVGID_29_" gradientUnits="userSpaceOnUse" x1="167.552" y1="1158.6332" x2="171.816" y2="1158.6332" gradientTransform="matrix(1 0 0 1 0 -999.2)">
					<stop  offset="0" style="stop-color:#ED1E79"/>
					<stop  offset="0.573" style="stop-color:#9D2787"/>
					<stop  offset="1" style="stop-color:#662D91"/>
				</linearGradient>
				<path class="st32" d="M169.7,161.7c-1-1.5-1.5-3-2-4.5c1.5,0,2.5,0,4.5,0C171.2,158.7,170.7,160.2,169.7,161.7z"/>
			</g>
			<g>
				<path class="st2" d="M205.9,152.9c0,24.7-20,44.7-44.7,44.7s-45.7-19-45.7-43.7s21-45.7,45.7-45.7S205.9,128.2,205.9,152.9z"/>
				<g>
					<path class="st2" d="M160.7,115.3c-20.7,0-37.6,16.8-37.6,37.6c0,20.7,16.9,37.6,37.6,37.6s37.6-16.9,37.6-37.6
						C198.3,132.1,181.5,115.3,160.7,115.3z"/>
				</g>
			</g>
			<g>
				<g>
					<path class="st2" d="M207.4,154.1c0,25.4-20.6,46-46,46s-47.1-19.6-47.1-45s21.6-47.1,47.1-47.1S207.4,128.7,207.4,154.1z"/>
					<g>
						
							<linearGradient id="SVGID_30_" gradientUnits="userSpaceOnUse" x1="149.5919" y1="92.1053" x2="172.073" y2="92.1053" gradientTransform="matrix(1 0 0 -1 0 248)">
							<stop  offset="0" style="stop-color:#ED1E79"/>
							<stop  offset="0.573" style="stop-color:#9D2787"/>
							<stop  offset="1" style="stop-color:#662D91"/>
						</linearGradient>
						<path class="st33" d="M156.1,148.1c0,0.9-0.2,1.5-0.6,1.9c-0.4,0.4-1,0.6-1.9,0.6h-1.7c-0.9,0-1.5-0.2-1.9-0.6
							c-0.4-0.4-0.6-1-0.6-1.9c0-2.7,0.4-4.9,1.3-6.4c1-1.7,2.3-3,4-3.9c1.7-1,3.5-1.4,5.5-1.4c3.5,0,6.3,0.8,8.2,2.4
							c2.3,1.9,3.4,4.4,3.4,7.6c0,4.9-2.1,8.6-6.3,11c-1.1,0.6-1.6,1.4-1.6,2.4c0,0.9-0.2,1.6-0.6,1.9c-0.4,0.4-1,0.6-1.9,0.6h-1.7
							c-0.9,0-1.5-0.2-1.9-0.6c-0.4-0.4-0.6-1-0.6-1.9v-1.2c0-1.5,0.4-2.7,1.2-3.6c0.2-0.3,0.4-0.6,0.7-0.8s0.5-0.4,0.7-0.5
							s0.4-0.2,0.7-0.4s0.6-0.3,0.7-0.4c1.4-0.8,2.4-1.6,2.9-2.2c0.7-0.9,1.1-2,1.1-3.3c0-1.4-0.4-2.5-1.3-3.3
							c-0.9-0.8-2-1.2-3.5-1.2c-1.3,0-2.4,0.5-3.4,1.4C156.5,145.3,156.1,146.6,156.1,148.1z M164.9,171.2c0,1.3-0.2,2.3-0.5,2.8
							c-0.7,1-1.8,1.4-3.5,1.4c-1.6,0-2.8-0.5-3.4-1.4c-0.3-0.6-0.5-1.5-0.5-2.8s0.2-2.3,0.5-2.8c0.6-1,1.7-1.4,3.4-1.4
							s2.8,0.5,3.5,1.4C164.7,169,164.9,169.9,164.9,171.2z"/>
					</g>
				</g>
				<g>
					
						<linearGradient id="SVGID_31_" gradientUnits="userSpaceOnUse" x1="122.1459" y1="93.9053" x2="199.6485" y2="93.9053" gradientTransform="matrix(1 0 0 -1 0 248)">
						<stop  offset="0" style="stop-color:#ED1E79"/>
						<stop  offset="0.573" style="stop-color:#9D2787"/>
						<stop  offset="1" style="stop-color:#662D91"/>
					</linearGradient>
					<path class="st34" d="M160.9,115.3c-21.4,0-38.8,17.3-38.8,38.8c0,21.4,17.4,38.8,38.8,38.8s38.8-17.4,38.8-38.8
						C199.6,132.6,182.2,115.3,160.9,115.3z M160.7,181.1c-5.2,0-10-1.6-14.1-4c-0.3-0.3-0.8-0.3-1.2-0.3l-9,1.8
						c-0.5,0.1-0.9-0.3-0.8-0.9l2.6-7.8c0.2-0.4,0.1-1-0.2-1.5c-2.7-4.1-4.2-9.1-4.2-14.5c0-14.9,12.1-27,27-27s27.1,12.1,27,27.1
						C187.8,169.2,175.7,181.2,160.7,181.1z"/>
				</g>
			</g>
		</g>
	</g>
</g>
</svg>
