<?xml version="1.0" encoding="utf-8"?>
<!-- Generator: Adobe Illustrator 22.1.0, SVG Export Plug-In . SVG Version: 6.00 Build 0)  -->
<svg version="1.1" id="Layer_1" xmlns="http://www.w3.org/2000/svg" xmlns:xlink="http://www.w3.org/1999/xlink" x="0px" y="0px"
	 viewBox="0 0 50 50" style="enable-background:new 0 0 50 50;" xml:space="preserve">
<style type="text/css">
	.st0{fill:#FFFFFF;}
	.st1{display:none;fill:#FFFFFF;}
	.st2{fill:url(#SVGID_1_);}
</style>
<path class="st0" d="M50,41.8c0,4.5-3.7,8.2-8.2,8.2H8.2C3.7,50,0,46.3,0,41.8V8.2C0,3.7,3.7,0,8.2,0h33.5C46.3,0,50,3.7,50,8.2
	V41.8z"/>
<ellipse class="st1" cx="25" cy="18.9" rx="24.9" ry="25"/>
<linearGradient id="SVGID_1_" gradientUnits="userSpaceOnUse" x1="24.9591" y1="518.6978" x2="24.9591" y2="483.7865" gradientTransform="matrix(1 0 0 -1 0 526.1574)">
	<stop  offset="0" style="stop-color:#31ACE3"/>
	<stop  offset="1" style="stop-color:#25446E"/>
</linearGradient>
<path class="st2" d="M24.8,22.5c-1.7-2.4-5.7-3.7-7.6-0.7c-1.9,3.1,1.2,6.3,3.2,8.4c0.7,0.7,2.5,1.8,2.9,2.7c0.3,0.7-0.2,2.2-0.3,3
	c-0.3,2.4-1.3,6.8-4.6,6.4c-2.6-0.3-3.7-4.5-4.5-6.6c-0.8-2.2-1.5-4.5-2.4-6.6c-0.9-1.9-2.2-3.7-2.9-5.7c-1.3-3.6-1.1-8.1,0.8-11.6
	c1.6-2.9,5-4.4,8.2-4.4c3.3,0.1,5.9,1.9,9.2,1.1c2.5-0.5,4.9-1.5,7.5-1c3.5,0.7,6.1,3.4,7.1,6.8c1,3.6,0.4,7.9-1.3,11.2
	c-1,1.9-2,3.6-2.8,5.6c-0.8,2.1-1.5,4.2-2.4,6.3c-0.7,1.6-1.7,4.5-3.7,4.8c-3.6,0.4-4-4-4.4-6.5c-0.2-0.9-0.7-2.4-0.4-3.2
	c0.4-1.1,2.3-2.3,3.1-3.1c1.9-1.9,4.3-4.4,3-7.4c-0.9-1.9-3.6-2.7-5.5-1.7C26.2,20.9,25.5,21.8,24.8,22.5z"/>
</svg>
