<?xml version="1.0" encoding="utf-8"?>
<!-- Generator: Adobe Illustrator 23.0.1, SVG Export Plug-In . SVG Version: 6.00 Build 0)  -->
<svg version="1.1" id="Layer_1" xmlns="http://www.w3.org/2000/svg" xmlns:xlink="http://www.w3.org/1999/xlink" x="0px" y="0px"
	 viewBox="0 0 50 50" style="enable-background:new 0 0 50 50;" xml:space="preserve">
<style type="text/css">
	.st0{display:none;fill:#FFFFFF;}
	.st1{fill:#F9F9F9;}
	.st2{fill:url(#SVGID_1_);}
	.st3{clip-path:url(#SVGID_3_);fill:#F9F9F9;}
</style>
<ellipse class="st0" cx="25" cy="18.9" rx="24.9" ry="25"/>
<g>
	<path class="st1" d="M40.3,0H9.7C4.3,0-0.1,4.4-0.1,9.8v30.6c0,5.4,4.4,9.8,9.8,9.8h30.6c5.4,0,9.8-4.4,9.8-9.8V9.8
		C50.1,4.4,45.7,0,40.3,0z"/>
</g>
<g transform="translate(0,-952.36218)">
	<linearGradient id="SVGID_1_" gradientUnits="userSpaceOnUse" x1="9.0211" y1="977.3622" x2="40.9789" y2="977.3622">
		<stop  offset="0" style="stop-color:#126585"/>
		<stop  offset="0.5669" style="stop-color:#072A37"/>
		<stop  offset="1" style="stop-color:#000000"/>
	</linearGradient>
	<path class="st2" d="M25,958.1l-14.7,5.2c-3.7,12.2,0.4,28.1,14.7,33.4c14.3-5.3,18.4-21.2,14.7-33.4L25,958.1z"/>
</g>
<g>
	<defs>
		<path id="SVGID_2_" d="M25,5.7l-14.7,5.2C6.6,23.1,10.7,39,25,44.3C39.3,39,43.4,23.1,39.7,10.9L25,5.7z"/>
	</defs>
	<clipPath id="SVGID_3_">
		<use xlink:href="#SVGID_2_"  style="overflow:visible;"/>
	</clipPath>
	<path class="st3" d="M15.6,34.4l-4.4,7.5c0,0,1.8,2.5,6.9,4.4l2.5-6.8l1.7-4.6l1.8-5.1c0,0,0.6-1.7,0.6-1.7l0.1-0.2
		c0,0,0-0.1,0.1-0.1l0,0l0,0c0,0,0,0,0.1,0l0,0l0,0l0.1,0.1l0.2,0.5l0.3,1l1.2,3.6l1,3.2l1.6,4.9l1.3,3.5l0.6,1.9c0,0,4-1.1,7.4-4.5
		l-2.4-3.7l-1.6-2.7l-1.6-3.2l-1.3-2.8l-1.1-2.5l-0.9-2.5L29,22.2l-0.9-2.8l-0.9-2.9l-0.8-2.9l-0.9-3.2l-0.5-1.6l-0.9,3.1l-1.3,4.3
		l-1,3.3L20.6,23l-1,3l-1.2,2.9l-1.3,2.7L15.6,34.4z"/>
</g>
<path class="st1" d="M15.6,34.4l-4.4,7.5c0,0,1.8,2.5,6.9,4.4l2.5-6.8l1.7-4.6l1.8-5.1c0,0,0.6-1.7,0.6-1.7l0.1-0.2
	c0,0,0-0.1,0.1-0.1l0,0l0,0c0,0,0,0,0.1,0l0,0l0,0l0.1,0.1l0.2,0.5l0.3,1l1.2,3.6l1,3.2l1.6,4.9l1.3,3.5l0.6,1.9c0,0,4-1.1,7.4-4.5
	l-2.4-3.7l-1.6-2.7l-1.6-3.2l-1.3-2.8l-1.1-2.5l-0.9-2.5L29,22.2l-0.9-2.8l-0.9-2.9l-0.8-2.9l-0.9-3.2l-0.5-1.6l-0.9,3.1l-1.3,4.3
	l-1,3.3L20.6,23l-1,3l-1.2,2.9l-1.3,2.7L15.6,34.4z"/>
</svg>
