<?xml version="1.0" encoding="utf-8"?>
<!-- Generator: Adobe Illustrator 24.1.2, SVG Export Plug-In . SVG Version: 6.00 Build 0)  -->
<!DOCTYPE svg PUBLIC "-//W3C//DTD SVG 1.1//EN" "http://www.w3.org/Graphics/SVG/1.1/DTD/svg11.dtd" [
	<!ENTITY ns_extend "http://ns.adobe.com/Extensibility/1.0/">
	<!ENTITY ns_ai "http://ns.adobe.com/AdobeIllustrator/10.0/">
	<!ENTITY ns_graphs "http://ns.adobe.com/Graphs/1.0/">
	<!ENTITY ns_vars "http://ns.adobe.com/Variables/1.0/">
	<!ENTITY ns_imrep "http://ns.adobe.com/ImageReplacement/1.0/">
	<!ENTITY ns_sfw "http://ns.adobe.com/SaveForWeb/1.0/">
	<!ENTITY ns_custom "http://ns.adobe.com/GenericCustomNamespace/1.0/">
	<!ENTITY ns_adobe_xpath "http://ns.adobe.com/XPath/1.0/">
]>
<svg version="1.1" id="Layer_1" xmlns:x="&ns_extend;" xmlns:i="&ns_ai;" xmlns:graph="&ns_graphs;"
	 xmlns="http://www.w3.org/2000/svg" xmlns:xlink="http://www.w3.org/1999/xlink" x="0px" y="0px" viewBox="0 0 246.2 246.2"
	 style="enable-background:new 0 0 246.2 246.2;" xml:space="preserve">
<style type="text/css">
	.st0{display:none;}
	.st1{display:none;fill:#3DFFA5;}
	.st2{fill:#FFFFFF;}
	.st3{display:none;fill:#FFFFFF;}
	.st4{fill:url(#SVGID_1_);}
	.st5{fill:url(#SVGID_2_);}
	.st6{fill:url(#SVGID_3_);}
	.st7{fill:url(#SVGID_4_);}
	.st8{fill:url(#SVGID_5_);}
	.st9{fill:url(#SVGID_6_);}
	.st10{fill:url(#SVGID_7_);}
	.st11{fill:url(#SVGID_8_);}
	.st12{fill:url(#SVGID_9_);}
	.st13{fill:url(#SVGID_10_);}
	.st14{fill:url(#SVGID_11_);}
	.st15{fill:url(#SVGID_12_);}
	.st16{fill:url(#SVGID_13_);}
	.st17{fill:url(#SVGID_14_);}
	.st18{fill:url(#SVGID_15_);}
	.st19{fill:url(#SVGID_16_);}
	.st20{fill:url(#SVGID_17_);}
	.st21{fill:url(#SVGID_18_);}
	.st22{fill:url(#SVGID_19_);}
	.st23{fill:url(#SVGID_20_);}
	.st24{fill:url(#SVGID_21_);}
	.st25{fill:url(#SVGID_22_);}
	.st26{fill:url(#SVGID_23_);}
	.st27{fill:url(#SVGID_24_);}
	.st28{fill:url(#SVGID_25_);}
	.st29{fill:url(#SVGID_26_);}
	.st30{fill:url(#SVGID_27_);}
	.st31{fill:url(#SVGID_28_);}
	.st32{fill:url(#SVGID_29_);}
</style>
<metadata>
	<sfw  xmlns="&ns_sfw;">
		<slices></slices>
		<sliceSourceBounds  bottomLeftOrigin="true" height="246.2" width="246.2" x="0" y="0"></sliceSourceBounds>
	</sfw>
</metadata>
<g id="Layer_2_1_" class="st0">
</g>
<g id="Layer_1_1_">
	<rect class="st1" width="246.2" height="246.2"/>
	<path class="st2" d="M246.2,205.8c0,22.2-18.2,40.4-40.4,40.4H40.4C18.2,246.2,0,228,0,205.8V40.4C0,18.2,18.2,0,40.4,0h164.9
		c22.6,0,40.9,18.2,40.9,40.4L246.2,205.8L246.2,205.8z"/>
	<ellipse class="st3" cx="123.1" cy="117" rx="24.9" ry="25"/>
</g>
<g>
	
		<linearGradient id="SVGID_1_" gradientUnits="userSpaceOnUse" x1="29.4012" y1="1134.6982" x2="193.2768" y2="1134.6982" gradientTransform="matrix(1 0 0 1 0 -999.2)">
		<stop  offset="0" style="stop-color:#3890E5"/>
		<stop  offset="1" style="stop-color:#38ACE5;stop-opacity:0.8"/>
	</linearGradient>
	<path class="st4" d="M193.5,133.5c-0.5,2.5-2,4-5,4c-51.6,0-103.2,0-155.2,0c-1,0-2.5,0-3.5,0c-1-3.5-0.5-4,2.5-4
		c25.8,0,51.1,0,76.9,0c1,0,1.5,0,2.5,0c0.5,0,2.5,0,3.5,0c25.3,0,51.1,0,76.4,0C192,133.5,192.5,133.5,193.5,133.5z"/>
	
		<linearGradient id="SVGID_2_" gradientUnits="userSpaceOnUse" x1="44.0068" y1="1093.0402" x2="164.4867" y2="1093.0402" gradientTransform="matrix(1 0 0 1 0 -999.2)">
		<stop  offset="0" style="stop-color:#3890E5"/>
		<stop  offset="1" style="stop-color:#38ACE5;stop-opacity:0.8"/>
	</linearGradient>
	<path class="st5" d="M44.2,95.8c0-1.5,0-2.5,0-4c1,0,2,0,3,0c37.7,0,75.4,0,113.1,0c3,0,4,1.5,5,4C124.1,95.8,84.4,95.8,44.2,95.8z
		"/>
	
		<linearGradient id="SVGID_3_" gradientUnits="userSpaceOnUse" x1="43.99" y1="1084.6094" x2="159.8071" y2="1084.6094" gradientTransform="matrix(1 0 0 1 0 -999.2)">
		<stop  offset="0" style="stop-color:#3890E5"/>
		<stop  offset="1" style="stop-color:#38ACE5;stop-opacity:0.8"/>
	</linearGradient>
	<path class="st6" d="M43.8,87.4c0-1,0-2.5,0-4c1,0,2,0,3,0c36.2,0,72.4,0,108.6,0c3,0,4,1,4.5,4C121.1,87.4,82.9,87.4,43.8,87.4z"
		/>
	
		<linearGradient id="SVGID_4_" gradientUnits="userSpaceOnUse" x1="44.0773" y1="1076.1787" x2="155.1652" y2="1076.1787" gradientTransform="matrix(1 0 0 1 0 -999.2)">
		<stop  offset="0" style="stop-color:#3890E5"/>
		<stop  offset="1" style="stop-color:#38ACE5;stop-opacity:0.8"/>
	</linearGradient>
	<path class="st7" d="M155.3,79c-37.2,0-73.9,0-111.1,0c0-1,0-2.5,0-4c1,0,1.5,0,2.5,0c34.7,0,69.4,0,104.6,0
		C154.3,75,154.3,75.5,155.3,79z"/>
	
		<linearGradient id="SVGID_5_" gradientUnits="userSpaceOnUse" x1="44.0153" y1="1067.9958" x2="150.9593" y2="1067.9958" gradientTransform="matrix(1 0 0 1 0 -999.2)">
		<stop  offset="0" style="stop-color:#3890E5"/>
		<stop  offset="1" style="stop-color:#38ACE5;stop-opacity:0.8"/>
	</linearGradient>
	<path class="st8" d="M44.2,70.5c0-1.5,0-2.5,0-3.5c1.5,0,3,0,4.5,0c32.7,0,65.5,0,98.2,0c3,0,3.5,1.5,4.5,3.5
		C115.2,70.5,80,70.5,44.2,70.5z"/>
	
		<linearGradient id="SVGID_6_" gradientUnits="userSpaceOnUse" x1="36.8084" y1="1159.4946" x2="136.986" y2="1159.4946" gradientTransform="matrix(1 0 0 1 0 -999.2)">
		<stop  offset="0" style="stop-color:#3890E5"/>
		<stop  offset="1" style="stop-color:#38ACE5;stop-opacity:0.8"/>
	</linearGradient>
	<path class="st9" d="M137,158.3c-1.5,2-2.5,4-6,4c-30.3-0.5-61-0.5-91.3-0.5c-1,0-2,0-3,0c0-1.5,0-2.5,0-3.5
		C70,158.3,103.3,158.3,137,158.3z"/>
	
		<linearGradient id="SVGID_7_" gradientUnits="userSpaceOnUse" x1="44.048" y1="1151.3118" x2="142.7378" y2="1151.3118" gradientTransform="matrix(1 0 0 1 0 -999.2)">
		<stop  offset="0" style="stop-color:#3890E5"/>
		<stop  offset="1" style="stop-color:#38ACE5;stop-opacity:0.8"/>
	</linearGradient>
	<path class="st10" d="M44.2,153.8c0-1.5,0-2.5,0-3.5c32.7,0,66,0,98.7,0c-1,2-1.5,3.5-4,3.5c-30.7,0-61.5,0-92.2,0
		C45.7,153.8,45.2,153.8,44.2,153.8z"/>
	
		<linearGradient id="SVGID_8_" gradientUnits="userSpaceOnUse" x1="116.157" y1="1118.3325" x2="201.7498" y2="1118.3325" gradientTransform="matrix(1 0 0 1 0 -999.2)">
		<stop  offset="0" style="stop-color:#3890E5"/>
		<stop  offset="1" style="stop-color:#38ACE5;stop-opacity:0.8"/>
	</linearGradient>
	<path class="st11" d="M116.2,117.1c28.8,0,57,0,85.8,0c-0.5,3.5-1,4-4.5,4c-25.8,0-52.1,0-77.9,0
		C116.2,121.1,116.2,121.1,116.2,117.1z"/>
	
		<linearGradient id="SVGID_9_" gradientUnits="userSpaceOnUse" x1="112.6855" y1="1109.6538" x2="206.1774" y2="1109.6538" gradientTransform="matrix(1 0 0 1 0 -999.2)">
		<stop  offset="0" style="stop-color:#3890E5"/>
		<stop  offset="1" style="stop-color:#38ACE5;stop-opacity:0.8"/>
	</linearGradient>
	<path class="st12" d="M112.7,108.7c31.2,0,62.5,0,93.7,0c-1,3.5-1,3.5-4.5,3.5c-28.3,0-56.5,0-84.3,0
		C115.2,111.7,114.2,110.7,112.7,108.7z"/>
	
		<linearGradient id="SVGID_10_" gradientUnits="userSpaceOnUse" x1="44.0267" y1="1167.6775" x2="128.3583" y2="1167.6775" gradientTransform="matrix(1 0 0 1 0 -999.2)">
		<stop  offset="0" style="stop-color:#3890E5"/>
		<stop  offset="1" style="stop-color:#38ACE5;stop-opacity:0.8"/>
	</linearGradient>
	<path class="st13" d="M128.6,166.7c-2.5,2.5-5,3.5-8.4,3.5c-23.8,0-47.6,0-70.9,0c-1.5,0-3,0-4.5,0c0-1.5,0-2.5,0-3.5
		C72,166.7,100.3,166.7,128.6,166.7z"/>
	
		<linearGradient id="SVGID_11_" gradientUnits="userSpaceOnUse" x1="115.1651" y1="1126.5154" x2="197.2701" y2="1126.5154" gradientTransform="matrix(1 0 0 1 0 -999.2)">
		<stop  offset="0" style="stop-color:#3890E5"/>
		<stop  offset="1" style="stop-color:#38ACE5;stop-opacity:0.8"/>
	</linearGradient>
	<path class="st14" d="M115.2,129.1c0.5-1.5,0.5-2.5,1-3.5c27.3,0,54.1,0,81.3,0c-0.5,3.5-1,3.5-4,3.5c-25.3,0-50.6,0-75.4,0
		C117.1,129.1,116.2,129.1,115.2,129.1z"/>
	
		<linearGradient id="SVGID_12_" gradientUnits="userSpaceOnUse" x1="18.0772" y1="1109.6538" x2="90.9787" y2="1109.6538" gradientTransform="matrix(1 0 0 1 0 -999.2)">
		<stop  offset="0" style="stop-color:#3890E5"/>
		<stop  offset="1" style="stop-color:#38ACE5;stop-opacity:0.8"/>
	</linearGradient>
	<path class="st15" d="M18,112.2c0-1.5,0-2.5,0-3.5c24.3,0,48.6,0,72.9,0c0,1,0,2,0,3.5C66.6,112.2,42.8,112.2,18,112.2z"/>
	
		<linearGradient id="SVGID_13_" gradientUnits="userSpaceOnUse" x1="43.8754" y1="1117.8367" x2="107.589" y2="1117.8367" gradientTransform="matrix(1 0 0 1 0 -999.2)">
		<stop  offset="0" style="stop-color:#3890E5"/>
		<stop  offset="1" style="stop-color:#38ACE5;stop-opacity:0.8"/>
	</linearGradient>
	<path class="st16" d="M44.2,120.6c-0.5-4-0.5-4,3-4c19.3,0,38.7,0,57.5,0c1,0,2,0,3,0c0,1.5,0,2.5,0,4
		C86.4,120.6,65.1,120.6,44.2,120.6z"/>
	
		<linearGradient id="SVGID_14_" gradientUnits="userSpaceOnUse" x1="25.0901" y1="1142.881" x2="95.6151" y2="1142.881" gradientTransform="matrix(1 0 0 1 0 -999.2)">
		<stop  offset="0" style="stop-color:#3890E5"/>
		<stop  offset="1" style="stop-color:#38ACE5;stop-opacity:0.8"/>
	</linearGradient>
	<path class="st17" d="M95.8,141.9c0,1,0,2,0,3.5c-23.3,0-46.6,0-70.4,0c0-0.5,0-1,0-1.5c0-0.5,0-1,0-2
		C48.7,141.9,72,141.9,95.8,141.9z"/>
	
		<linearGradient id="SVGID_15_" gradientUnits="userSpaceOnUse" x1="104.4923" y1="1101.4709" x2="168.963" y2="1101.4709" gradientTransform="matrix(1 0 0 1 0 -999.2)">
		<stop  offset="0" style="stop-color:#3890E5"/>
		<stop  offset="1" style="stop-color:#38ACE5;stop-opacity:0.8"/>
	</linearGradient>
	<path class="st18" d="M104.8,100.3c13.4,0,26.8,0,40.2,0c6.4,0,12.4,0,18.8,0c4,0,4,0,5,4c-0.5,0-1,0-2,0c-18.8,0-37.7,0-56.5,0
		c-2-1-4.5-2-6-3C104.8,100.8,104.8,100.3,104.8,100.3z"/>
	
		<linearGradient id="SVGID_16_" gradientUnits="userSpaceOnUse" x1="44.0118" y1="1176.6041" x2="112.7574" y2="1176.6041" gradientTransform="matrix(1 0 0 1 0 -999.2)">
		<stop  offset="0" style="stop-color:#3890E5"/>
		<stop  offset="1" style="stop-color:#38ACE5;stop-opacity:0.8"/>
	</linearGradient>
	<path class="st19" d="M44.2,179.1c0-1.5,0-2.5,0-3.5c22.8,0,45.6,0,68.4,0v0.5c-5,1-9.9,2.5-15.4,2.5c-17.4,0.5-34.7,0-52.1,0
		C45.2,179.1,44.7,179.1,44.2,179.1z"/>
	
		<linearGradient id="SVGID_17_" gradientUnits="userSpaceOnUse" x1="36.1935" y1="1126.5154" x2="99.0008" y2="1126.5154" gradientTransform="matrix(1 0 0 1 0 -999.2)">
		<stop  offset="0" style="stop-color:#3890E5"/>
		<stop  offset="1" style="stop-color:#38ACE5;stop-opacity:0.8"/>
	</linearGradient>
	<path class="st20" d="M36.3,129.1c0-1.5,0-2.5,0-3.5c20.8,0,41.7,0,63,0c0,1,0,2.5,0,3.5C78,129.1,57.1,129.1,36.3,129.1z"/>
	
		<linearGradient id="SVGID_18_" gradientUnits="userSpaceOnUse" x1="44.0505" y1="1101.4709" x2="97.1148" y2="1101.4709" gradientTransform="matrix(1 0 0 1 0 -999.2)">
		<stop  offset="0" style="stop-color:#3890E5"/>
		<stop  offset="1" style="stop-color:#38ACE5;stop-opacity:0.8"/>
	</linearGradient>
	<path class="st21" d="M97.3,100.3c0,1.5,0,2.5,0,4c-17.9,0-35.2,0-53.1,0c0-1.5,0-2.5,0-4C61.6,100.3,79.5,100.3,97.3,100.3z"/>
	
		<linearGradient id="SVGID_19_" gradientUnits="userSpaceOnUse" x1="174.5094" y1="1093.2882" x2="215.0823" y2="1093.2882" gradientTransform="matrix(1 0 0 1 0 -999.2)">
		<stop  offset="0" style="stop-color:#3890E5"/>
		<stop  offset="1" style="stop-color:#38ACE5;stop-opacity:0.8"/>
	</linearGradient>
	<path class="st22" d="M214.8,91.9c-1,4-1.5,4.5-5,4.5c-10.9,0-22.3,0-33.2,0c-1,0-1.5,0-2.5,0c1-3.5,1.5-4.5,5-4.5
		c10.9,0,22.3,0,33.2,0C213.4,91.9,214.4,91.9,214.8,91.9z"/>
	
		<linearGradient id="SVGID_20_" gradientUnits="userSpaceOnUse" x1="170.2132" y1="1101.4709" x2="210.739" y2="1101.4709" gradientTransform="matrix(1 0 0 1 0 -999.2)">
		<stop  offset="0" style="stop-color:#3890E5"/>
		<stop  offset="1" style="stop-color:#38ACE5;stop-opacity:0.8"/>
	</linearGradient>
	<path class="st23" d="M210.9,100.3c-1.5,4-1.5,4-5,4c-11.4,0-22.8,0-34.2,0c-0.5,0-1,0-1.5,0c0.5-3.5,1-4,4.5-4
		c11.4,0,22.3,0,33.7,0C208.9,100.3,209.9,100.3,210.9,100.3z"/>
	
		<linearGradient id="SVGID_21_" gradientUnits="userSpaceOnUse" x1="98.3036" y1="1143.129" x2="145.4703" y2="1143.129" gradientTransform="matrix(1 0 0 1 0 -999.2)">
		<stop  offset="0" style="stop-color:#3890E5"/>
		<stop  offset="1" style="stop-color:#38ACE5;stop-opacity:0.8"/>
	</linearGradient>
	<path class="st24" d="M98.3,145.9c7.9-1.5,10.4-2.5,14.4-4c9.9,0.5,19.8,0,29.8,0c1,0,2,0,3,0c-0.5,3.5-1,4-4.5,4
		c-13.4,0-26.8,0-40.2,0C100.3,145.9,99.8,145.9,98.3,145.9z"/>
	
		<linearGradient id="SVGID_22_" gradientUnits="userSpaceOnUse" x1="150.4187" y1="1143.129" x2="188.8155" y2="1143.129" gradientTransform="matrix(1 0 0 1 0 -999.2)">
		<stop  offset="0" style="stop-color:#3890E5"/>
		<stop  offset="1" style="stop-color:#38ACE5;stop-opacity:0.8"/>
	</linearGradient>
	<path class="st25" d="M150.4,141.9c12.9,0,25.8,0,38.2,0c-0.5,3.5-1,4-4.5,4c-9.4,0-19.3,0-28.8,0
		C151.9,145.9,151.9,145.9,150.4,141.9z"/>
	
		<linearGradient id="SVGID_23_" gradientUnits="userSpaceOnUse" x1="179.0675" y1="1084.6095" x2="219.2908" y2="1084.6095" gradientTransform="matrix(1 0 0 1 0 -999.2)">
		<stop  offset="0" style="stop-color:#3890E5"/>
		<stop  offset="1" style="stop-color:#38ACE5;stop-opacity:0.8"/>
	</linearGradient>
	<path class="st26" d="M219.3,83.4c-0.5,3-1.5,4-4.5,4c-11.9,0-23.8,0-35.7,0c0.5-3,1.5-4,4.5-4c10.9,0,22.3,0,33.2,0
		C217.3,83.4,218.3,83.4,219.3,83.4z"/>
	
		<linearGradient id="SVGID_24_" gradientUnits="userSpaceOnUse" x1="183.6886" y1="1076.1787" x2="223.7596" y2="1076.1787" gradientTransform="matrix(1 0 0 1 0 -999.2)">
		<stop  offset="0" style="stop-color:#3890E5"/>
		<stop  offset="1" style="stop-color:#38ACE5;stop-opacity:0.8"/>
	</linearGradient>
	<path class="st27" d="M223.8,75c-1.5,4-1.5,4-5,4c-10.9,0-22.3,0-33.2,0c-0.5,0-1,0-2,0c0.5-3.5,1-4,4-4c11.4,0,22.3,0,33.7,0
		C222.3,75,222.8,75,223.8,75z"/>
	
		<linearGradient id="SVGID_25_" gradientUnits="userSpaceOnUse" x1="188.0666" y1="1067.7479" x2="228.0841" y2="1067.7479" gradientTransform="matrix(1 0 0 1 0 -999.2)">
		<stop  offset="0" style="stop-color:#3890E5"/>
		<stop  offset="1" style="stop-color:#38ACE5;stop-opacity:0.8"/>
	</linearGradient>
	<path class="st28" d="M228.2,66.6c-0.5,3.5-2.5,4-5,4c-10.9,0-21.8,0-32.7,0c-1,0-1.5,0-2.5,0c0.5-2.5,1.5-4,4.5-4
		c10.9,0,21.8,0,32.7,0C226.3,66.6,227.2,66.6,228.2,66.6z"/>
	
		<linearGradient id="SVGID_26_" gradientUnits="userSpaceOnUse" x1="154.6029" y1="1151.5598" x2="184.4687" y2="1151.5598" gradientTransform="matrix(1 0 0 1 0 -999.2)">
		<stop  offset="0" style="stop-color:#3890E5"/>
		<stop  offset="1" style="stop-color:#38ACE5;stop-opacity:0.8"/>
	</linearGradient>
	<path class="st29" d="M154.8,150.4c9.9,0,19.8,0,29.8,0c-0.5,3.5-1,4-4,4c-6.4,0-13.4,0-19.8,0
		C156.3,154.3,156.3,154.3,154.8,150.4z"/>
	
		<linearGradient id="SVGID_27_" gradientUnits="userSpaceOnUse" x1="159.2155" y1="1159.9906" x2="180.2617" y2="1159.9906" gradientTransform="matrix(1 0 0 1 0 -999.2)">
		<stop  offset="0" style="stop-color:#3890E5"/>
		<stop  offset="1" style="stop-color:#38ACE5;stop-opacity:0.8"/>
	</linearGradient>
	<path class="st30" d="M180.1,158.8c-1.5,4-1.5,4-5.5,4c-3.5,0-6.9,0-9.9,0c-4,0-4,0-5.5-4C166.2,158.8,173.2,158.8,180.1,158.8z"/>
	
		<linearGradient id="SVGID_28_" gradientUnits="userSpaceOnUse" x1="163.6273" y1="1167.9659" x2="176.0567" y2="1167.9659" gradientTransform="matrix(1 0 0 1 0 -999.2)">
		<stop  offset="0" style="stop-color:#3890E5"/>
		<stop  offset="1" style="stop-color:#38ACE5;stop-opacity:0.8"/>
	</linearGradient>
	<path class="st31" d="M163.8,166.7c4,0,7.9,0,12.4,0c-1,1.5-0.5,4-3,4C164.3,170.7,165.7,171.7,163.8,166.7z"/>
	
		<linearGradient id="SVGID_29_" gradientUnits="userSpaceOnUse" x1="167.552" y1="1176.6041" x2="171.816" y2="1176.6041" gradientTransform="matrix(1 0 0 1 0 -999.2)">
		<stop  offset="0" style="stop-color:#3890E5"/>
		<stop  offset="1" style="stop-color:#38ACE5;stop-opacity:0.8"/>
	</linearGradient>
	<path class="st32" d="M169.7,179.6c-1-1.5-1.5-3-2-4.5c1.5,0,2.5,0,4.5,0C171.2,176.7,170.7,178.1,169.7,179.6z"/>
</g>
</svg>
