<?xml version="1.0" encoding="utf-8"?>
<!-- Generator: Adobe Illustrator 24.1.2, SVG Export Plug-In . SVG Version: 6.00 Build 0)  -->
<!DOCTYPE svg PUBLIC "-//W3C//DTD SVG 1.1//EN" "http://www.w3.org/Graphics/SVG/1.1/DTD/svg11.dtd" [
	<!ENTITY ns_extend "http://ns.adobe.com/Extensibility/1.0/">
	<!ENTITY ns_ai "http://ns.adobe.com/AdobeIllustrator/10.0/">
	<!ENTITY ns_graphs "http://ns.adobe.com/Graphs/1.0/">
	<!ENTITY ns_vars "http://ns.adobe.com/Variables/1.0/">
	<!ENTITY ns_imrep "http://ns.adobe.com/ImageReplacement/1.0/">
	<!ENTITY ns_sfw "http://ns.adobe.com/SaveForWeb/1.0/">
	<!ENTITY ns_custom "http://ns.adobe.com/GenericCustomNamespace/1.0/">
	<!ENTITY ns_adobe_xpath "http://ns.adobe.com/XPath/1.0/">
]>
<svg version="1.1" xmlns:x="&ns_extend;" xmlns:i="&ns_ai;" xmlns:graph="&ns_graphs;"
	 xmlns="http://www.w3.org/2000/svg" xmlns:xlink="http://www.w3.org/1999/xlink" x="0px" y="0px" viewBox="0 0 50 50"
	 style="enable-background:new 0 0 50 50;" xml:space="preserve">
<style type="text/css">
	.st0{display:none;}
	.st1{display:none;fill:#3DFFA5;}
	.st2{fill:#FFFFFF;}
	.st3{display:none;fill:#FFFFFF;}
	.st4{fill:url(#SVGID_1_);}
</style>
<metadata>
	<sfw  xmlns="&ns_sfw;">
		<slices></slices>
		<sliceSourceBounds  bottomLeftOrigin="true" height="56.1" width="50" x="0" y="0"></sliceSourceBounds>
	</sfw>
</metadata>
<g id="Layer_2" class="st0">
</g>
<g id="Layer_1">
	<rect class="st1" width="50" height="50"/>
	<path class="st2" d="M50,41.8c0,4.5-3.7,8.2-8.2,8.2H8.2C3.7,50,0,46.3,0,41.8V8.2C0,3.7,3.7,0,8.2,0h33.5C46.3,0,50,3.7,50,8.2
		V41.8z"/>
	<ellipse class="st3" cx="25" cy="18.9" rx="24.9" ry="25"/>
	<g>
		<g transform="translate(0,-280.06665)">
			<linearGradient id="SVGID_1_" gradientUnits="userSpaceOnUse" x1="10.0511" y1="304.9056" x2="39.6268" y2="304.9056">
				<stop  offset="0" style="stop-color:#ED1E79"/>
				<stop  offset="0.573" style="stop-color:#9D2787"/>
				<stop  offset="1" style="stop-color:#662D91"/>
			</linearGradient>
			<path class="st4" d="M14.1,286.8c-2.2,0-4,1.8-4,4V319c0,0,0,0,0,0.1c0,2.2,1.8,4,4,4H39c0.4,0,0.7-0.3,0.7-0.7V319v-3.4v-28.2
				c0-0.4-0.3-0.7-0.7-0.7L14.1,286.8z M14.1,316.3h24.2v1.2h0v4.1H14.1c-1.5,0-2.7-1.2-2.7-2.7C11.4,317.5,12.6,316.3,14.1,316.3
				L14.1,316.3z"/>
		</g>
		<g transform="translate(0,-280.06665)">
			<path class="st2" d="M24,291L24,291C24,291,24,291,24,291c-0.2,0-0.4,0-0.6,0c-1.6,0.1-3,0.5-3.8,1.5c-0.8,0.9-1,2.3-0.5,4.2
				c0,0-0.1,0-0.1,0c0,0-0.1,0-0.1,0c-0.1,0-0.2,0.1-0.3,0.1c-0.1,0.1-0.1,0.1-0.1,0.2c0,0.1,0,0.2,0,0.3c0,0.2,0,0.4,0.1,0.6
				c0.1,0.4,0.2,0.9,0.5,1.3c0.2,0.3,0.3,0.5,0.6,0.6c0.1,0,0.2,0.1,0.3,0.1c0.3,1,1,2,1.7,2.8c0.1,0.1,0.1,0.1,0.2,0.2
				c0.1,0.1,0.2,0.2,0.2,0.2c0,0,0,0,0,0c0.2,0.2,0.4,0.3,0.6,0.5l-0.3,0.7h-3.2c-1.9,0-3.5,1.5-3.5,3.5v3.8c0,0.2,0.2,0.4,0.4,0.4
				h1.5l0,0.4c0,0.2,0.2,0.4,0.4,0.4c0,0,0,0,0,0h13.8c0.2,0,0.4-0.2,0.4-0.4c0,0,0,0,0,0V312h1.5c0.2,0,0.4-0.2,0.4-0.4v-3.8
				c0-1.9-1.5-3.5-3.5-3.5h-3.2l-0.3-0.8c0.2-0.2,0.4-0.3,0.6-0.5c0,0,0,0,0,0c0,0,0,0,0,0c0.1-0.1,0.2-0.2,0.3-0.3
				c0.1-0.1,0.1-0.1,0.2-0.2c0.6-0.7,1.2-1.5,1.6-2.3c0.4-0.1,0.8-0.3,1-0.7c0.2-0.4,0.4-0.9,0.4-1.3c0-0.2,0-0.5,0-0.7
				c0-0.1-0.1-0.2-0.1-0.3c-0.1-0.1-0.2-0.2-0.4-0.2c0,0-0.1,0-0.1,0c0,0-0.1,0-0.1,0c0.1-1.2,0.1-2.6,0-3.7
				c-0.1-0.7-0.2-1.3-0.4-1.7c-0.1-0.2-0.2-0.4-0.5-0.5c-0.2-0.1-0.5-0.1-0.8,0.1c0,0,0,0,0,0c-0.7,0.6-1.3,0.8-1.6,0.9
				s-0.5,0-0.7-0.1C26,291.8,25.4,291.1,24,291L24,291z M28.2,294.4c0.1,0.4,0.2,0.8,0.3,1.4c0,0,0,0,0,0c0.2,0.7,0.5,1.5,0.7,2v0
				l0,0.9c0,0.6-0.2,1.2-0.6,1.8c-0.1-0.5-0.6-0.9-1.1-0.9h-5.4c-0.6,0-1,0.4-1.1,0.9c-0.4-0.6-0.6-1.3-0.6-1.9v-0.9
				c0-0.4,0-1,0.1-1.5c0-0.1,0-0.1,0-0.2c0-0.1,0-0.1,0-0.2c0,0,0,0,0-0.1c0,0,0-0.1,0-0.1c0,0,0,0,0,0c0.2,0,0.7-0.2,1.5-0.3
				c0.8-0.2,1.8-0.3,2.7-0.5C26.6,294.7,27.9,294.5,28.2,294.4z M19.2,297.5C19.3,297.5,19.3,297.5,19.2,297.5
				c0.2,0,0.3,0.1,0.4,0.2v0.3v0.9c0,0,0,0,0,0.1c0,0,0,0-0.1-0.1c0,0,0,0,0,0c-0.1-0.2-0.3-0.6-0.3-1
				C19.2,297.6,19.2,297.6,19.2,297.5L19.2,297.5z M30.4,297.9c0,0.1,0,0.1,0,0.2c0,0.4-0.2,0.8-0.3,1c0,0-0.1,0-0.1,0.1
				c0-0.1,0-0.3,0-0.4v-0.7C30.1,298,30.3,298,30.4,297.9C30.4,297.9,30.4,297.9,30.4,297.9L30.4,297.9z M26.4,304l0.3,0.6l-1.9,2.8
				l-1.9-2.8l0.3-0.6c0.1,0,0.1,0.1,0.2,0.1c0,0,0,0,0,0c0,0,0,0,0.1,0c0.1,0.1,0.2,0.1,0.4,0.2c0,0,0,0,0,0
				c0.1,0.1,0.2,0.1,0.4,0.2c0,0,0,0,0,0c0.2,0.1,0.4,0.1,0.6,0.1c0.1,0,0.3,0,0.5-0.1c0,0,0,0,0,0c0.1,0,0.3-0.1,0.5-0.2
				c0,0,0,0,0,0c0.1-0.1,0.2-0.1,0.4-0.2c0,0,0.1,0,0.1,0c0,0,0,0,0,0C26.3,304.1,26.4,304.1,26.4,304L26.4,304z M27.5,309.3h2.7
				v0.8h-2.7V309.3z"/>
		</g>
	</g>
</g>
</svg>
