<?xml version="1.0" encoding="utf-8"?>
<!-- Generator: Adobe Illustrator 23.0.3, SVG Export Plug-In . SVG Version: 6.00 Build 0)  -->
<!DOCTYPE svg PUBLIC "-//W3C//DTD SVG 1.1//EN" "http://www.w3.org/Graphics/SVG/1.1/DTD/svg11.dtd" [
	<!ENTITY ns_extend "http://ns.adobe.com/Extensibility/1.0/">
	<!ENTITY ns_ai "http://ns.adobe.com/AdobeIllustrator/10.0/">
	<!ENTITY ns_graphs "http://ns.adobe.com/Graphs/1.0/">
	<!ENTITY ns_vars "http://ns.adobe.com/Variables/1.0/">
	<!ENTITY ns_imrep "http://ns.adobe.com/ImageReplacement/1.0/">
	<!ENTITY ns_sfw "http://ns.adobe.com/SaveForWeb/1.0/">
	<!ENTITY ns_custom "http://ns.adobe.com/GenericCustomNamespace/1.0/">
	<!ENTITY ns_adobe_xpath "http://ns.adobe.com/XPath/1.0/">
]>
<svg version="1.1" id="Layer_1" xmlns:x="&ns_extend;" xmlns:i="&ns_ai;" xmlns:graph="&ns_graphs;"
	 xmlns="http://www.w3.org/2000/svg" xmlns:xlink="http://www.w3.org/1999/xlink" x="0px" y="0px" viewBox="0 0 65.3 38.9"
	 style="enable-background:new 0 0 65.3 38.9;" xml:space="preserve">
<style type="text/css">
	.st0{fill:#606060;}
</style>
<metadata>
	<sfw  xmlns="&ns_sfw;">
		<slices></slices>
		<sliceSourceBounds  bottomLeftOrigin="true" height="38.8" width="65.3" x="-27.5" y="14.3"></sliceSourceBounds>
	</sfw>
</metadata>
<path class="st0" d="M51.5,0l-6.8,12L38.2,0L0,0l0,38.8l24.8,0c0,0,9.9-4.6,12.3-14.9l7.8,14.9L65.3,0L51.5,0z M18.1,26.9l-2.7,0
	V9.1l2.5,0c1.4,0,2.8,0.5,3.9,1.3c1.9,1.4,4.3,4.1,4,8.3c-0.2,3.4-1.8,5.5-3.3,6.6C21.3,26.4,19.7,26.9,18.1,26.9z"/>
</svg>
