<?xml version="1.0" encoding="utf-8"?>
<!-- Generator: Adobe Illustrator 24.1.2, SVG Export Plug-In . SVG Version: 6.00 Build 0)  -->
<!DOCTYPE svg PUBLIC "-//W3C//DTD SVG 1.1//EN" "http://www.w3.org/Graphics/SVG/1.1/DTD/svg11.dtd" [
	<!ENTITY ns_extend "http://ns.adobe.com/Extensibility/1.0/">
	<!ENTITY ns_ai "http://ns.adobe.com/AdobeIllustrator/10.0/">
	<!ENTITY ns_graphs "http://ns.adobe.com/Graphs/1.0/">
	<!ENTITY ns_vars "http://ns.adobe.com/Variables/1.0/">
	<!ENTITY ns_imrep "http://ns.adobe.com/ImageReplacement/1.0/">
	<!ENTITY ns_sfw "http://ns.adobe.com/SaveForWeb/1.0/">
	<!ENTITY ns_custom "http://ns.adobe.com/GenericCustomNamespace/1.0/">
	<!ENTITY ns_adobe_xpath "http://ns.adobe.com/XPath/1.0/">
]>
<svg version="1.1" xmlns:x="&ns_extend;" xmlns:i="&ns_ai;" xmlns:graph="&ns_graphs;"
	 xmlns="http://www.w3.org/2000/svg" xmlns:xlink="http://www.w3.org/1999/xlink" x="0px" y="0px" viewBox="0 0 246.2 246.2"
	 style="enable-background:new 0 0 246.2 246.2;" xml:space="preserve">
<style type="text/css">
	.st0{display:none;}
	.st1{display:none;fill:#3DFFA5;}
	.st2{fill:#FFFFFF;}
	.st3{display:none;fill:#FFFFFF;}
	.st4{fill:url(#SVGID_1_);}
	.st5{fill:url(#SVGID_2_);}
	.st6{fill:url(#SVGID_3_);}
	.st7{fill:url(#SVGID_4_);}
	.st8{fill:url(#SVGID_5_);}
	.st9{fill:url(#SVGID_6_);}
	.st10{fill:url(#SVGID_7_);}
	.st11{fill:url(#SVGID_8_);}
	.st12{fill:url(#SVGID_9_);}
	.st13{fill:url(#SVGID_10_);}
	.st14{fill:url(#SVGID_11_);}
	.st15{fill:url(#SVGID_12_);}
	.st16{fill:url(#SVGID_13_);}
	.st17{fill:url(#SVGID_14_);}
	.st18{fill:url(#SVGID_15_);}
	.st19{fill:url(#SVGID_16_);}
	.st20{fill:url(#SVGID_17_);}
	.st21{fill:url(#SVGID_18_);}
	.st22{fill:url(#SVGID_19_);}
	.st23{fill:url(#SVGID_20_);}
	.st24{fill:url(#SVGID_21_);}
	.st25{fill:url(#SVGID_22_);}
	.st26{fill:url(#SVGID_23_);}
	.st27{fill:url(#SVGID_24_);}
	.st28{fill:url(#SVGID_25_);}
	.st29{fill:url(#SVGID_26_);}
	.st30{fill:url(#SVGID_27_);}
	.st31{fill:url(#SVGID_28_);}
	.st32{fill:url(#SVGID_29_);}
	.st33{fill:url(#SVGID_30_);}
</style>
<metadata>
	<sfw  xmlns="&ns_sfw;">
		<slices></slices>
		<sliceSourceBounds  bottomLeftOrigin="true" height="246.2" width="246.2" x="-98.1" y="-98.1"></sliceSourceBounds>
	</sfw>
</metadata>
<g id="Layer_2" class="st0">
</g>
<g id="Layer_1">
	<rect class="st1" width="246.2" height="246.2"/>
	<path class="st2" d="M246.2,205.8c0,22.2-18.2,40.4-40.4,40.4H40.4C18.2,246.2,0,228,0,205.8V40.4C0,18.2,18.2,0,40.4,0h164.9
		c22.6,0,40.9,18.2,40.9,40.4V205.8z"/>
	<ellipse class="st3" cx="123.1" cy="117" rx="24.9" ry="25"/>
	<g>
		<g>
			
				<linearGradient id="SVGID_1_" gradientUnits="userSpaceOnUse" x1="29.3863" y1="1125.7124" x2="193.2619" y2="1125.7124" gradientTransform="matrix(1 0 0 1 0 -999.2)">
				<stop  offset="0" style="stop-color:#F15A24"/>
				<stop  offset="3.621989e-02" style="stop-color:#F15C24"/>
				<stop  offset="1" style="stop-color:#F7931E"/>
			</linearGradient>
			<path class="st4" d="M193.5,124.5c-0.5,2.5-2,4-5,4c-51.6,0-103.2,0-155.2,0c-1,0-2.5,0-3.5,0c-1-3.5-0.5-4,2.5-4
				c25.8,0,51.1,0,76.9,0c1,0,1.5,0,2.5,0c0.5,0,2.5,0,3.5,0c25.3,0,51.1,0,76.4,0C192,124.5,192.5,124.5,193.5,124.5z"/>
			
				<linearGradient id="SVGID_2_" gradientUnits="userSpaceOnUse" x1="43.992" y1="1084.0543" x2="164.4718" y2="1084.0543" gradientTransform="matrix(1 0 0 1 0 -999.2)">
				<stop  offset="0" style="stop-color:#F15A24"/>
				<stop  offset="3.621989e-02" style="stop-color:#F15C24"/>
				<stop  offset="1" style="stop-color:#F7931E"/>
			</linearGradient>
			<path class="st5" d="M44.2,86.8c0-1.5,0-2.5,0-4c1,0,2,0,3,0c37.7,0,75.4,0,113.1,0c3,0,4,1.5,5,4
				C124.1,86.8,84.4,86.8,44.2,86.8z"/>
			
				<linearGradient id="SVGID_3_" gradientUnits="userSpaceOnUse" x1="43.9751" y1="1075.6235" x2="159.7922" y2="1075.6235" gradientTransform="matrix(1 0 0 1 0 -999.2)">
				<stop  offset="0" style="stop-color:#F15A24"/>
				<stop  offset="3.621989e-02" style="stop-color:#F15C24"/>
				<stop  offset="1" style="stop-color:#F7931E"/>
			</linearGradient>
			<path class="st6" d="M43.7,78.4c0-1,0-2.5,0-4c1,0,2,0,3,0c36.2,0,72.4,0,108.6,0c3,0,4,1,4.5,4C121.1,78.4,82.9,78.4,43.7,78.4z
				"/>
			
				<linearGradient id="SVGID_4_" gradientUnits="userSpaceOnUse" x1="44.0624" y1="1067.1927" x2="155.1503" y2="1067.1927" gradientTransform="matrix(1 0 0 1 0 -999.2)">
				<stop  offset="0" style="stop-color:#F15A24"/>
				<stop  offset="3.621989e-02" style="stop-color:#F15C24"/>
				<stop  offset="1" style="stop-color:#F7931E"/>
			</linearGradient>
			<path class="st7" d="M155.3,70c-37.2,0-73.9,0-111.1,0c0-1,0-2.5,0-4c1,0,1.5,0,2.5,0c34.7,0,69.4,0,104.6,0
				C154.3,66,154.3,66.5,155.3,70z"/>
			
				<linearGradient id="SVGID_5_" gradientUnits="userSpaceOnUse" x1="44.0004" y1="1059.01" x2="150.9444" y2="1059.01" gradientTransform="matrix(1 0 0 1 0 -999.2)">
				<stop  offset="0" style="stop-color:#F15A24"/>
				<stop  offset="3.621989e-02" style="stop-color:#F15C24"/>
				<stop  offset="1" style="stop-color:#F7931E"/>
			</linearGradient>
			<path class="st8" d="M44.2,61.5c0-1.5,0-2.5,0-3.5c1.5,0,3,0,4.5,0c32.7,0,65.5,0,98.2,0c3,0,3.5,1.5,4.5,3.5
				C115.2,61.5,79.9,61.5,44.2,61.5z"/>
			
				<linearGradient id="SVGID_6_" gradientUnits="userSpaceOnUse" x1="36.7935" y1="1150.5088" x2="136.9711" y2="1150.5088" gradientTransform="matrix(1 0 0 1 0 -999.2)">
				<stop  offset="0" style="stop-color:#F15A24"/>
				<stop  offset="3.621989e-02" style="stop-color:#F15C24"/>
				<stop  offset="1" style="stop-color:#F7931E"/>
			</linearGradient>
			<path class="st9" d="M137,149.3c-1.5,2-2.5,4-6,4c-30.3-0.5-61-0.5-91.3-0.5c-1,0-2,0-3,0c0-1.5,0-2.5,0-3.5
				C70,149.3,103.2,149.3,137,149.3z"/>
			
				<linearGradient id="SVGID_7_" gradientUnits="userSpaceOnUse" x1="44.0331" y1="1142.3259" x2="142.7229" y2="1142.3259" gradientTransform="matrix(1 0 0 1 0 -999.2)">
				<stop  offset="0" style="stop-color:#F15A24"/>
				<stop  offset="3.621989e-02" style="stop-color:#F15C24"/>
				<stop  offset="1" style="stop-color:#F7931E"/>
			</linearGradient>
			<path class="st10" d="M44.2,144.9c0-1.5,0-2.5,0-3.5c32.7,0,66,0,98.7,0c-1,2-1.5,3.5-4,3.5c-30.7,0-61.5,0-92.2,0
				C45.7,144.9,45.2,144.9,44.2,144.9z"/>
			
				<linearGradient id="SVGID_8_" gradientUnits="userSpaceOnUse" x1="116.1421" y1="1109.3467" x2="201.7349" y2="1109.3467" gradientTransform="matrix(1 0 0 1 0 -999.2)">
				<stop  offset="0" style="stop-color:#F15A24"/>
				<stop  offset="3.621989e-02" style="stop-color:#F15C24"/>
				<stop  offset="1" style="stop-color:#F7931E"/>
			</linearGradient>
			<path class="st11" d="M116.1,108.2c28.8,0,57,0,85.8,0c-0.5,3.5-1,4-4.5,4c-25.8,0-52.1,0-77.9,0
				C116.1,112.1,116.1,112.1,116.1,108.2z"/>
			
				<linearGradient id="SVGID_9_" gradientUnits="userSpaceOnUse" x1="112.6706" y1="1100.668" x2="206.1626" y2="1100.668" gradientTransform="matrix(1 0 0 1 0 -999.2)">
				<stop  offset="0" style="stop-color:#F15A24"/>
				<stop  offset="3.621989e-02" style="stop-color:#F15C24"/>
				<stop  offset="1" style="stop-color:#F7931E"/>
			</linearGradient>
			<path class="st12" d="M112.7,99.7c31.2,0,62.5,0,93.7,0c-1,3.5-1,3.5-4.5,3.5c-28.3,0-56.5,0-84.3,0
				C115.2,102.7,114.2,101.7,112.7,99.7z"/>
			
				<linearGradient id="SVGID_10_" gradientUnits="userSpaceOnUse" x1="44.0118" y1="1158.6917" x2="128.3434" y2="1158.6917" gradientTransform="matrix(1 0 0 1 0 -999.2)">
				<stop  offset="0" style="stop-color:#F15A24"/>
				<stop  offset="3.621989e-02" style="stop-color:#F15C24"/>
				<stop  offset="1" style="stop-color:#F7931E"/>
			</linearGradient>
			<path class="st13" d="M128.5,157.8c-2.5,2.5-5,3.5-8.4,3.5c-23.8,0-47.6,0-70.9,0c-1.5,0-3,0-4.5,0c0-1.5,0-2.5,0-3.5
				C72,157.8,100.3,157.8,128.5,157.8z"/>
			
				<linearGradient id="SVGID_11_" gradientUnits="userSpaceOnUse" x1="115.1502" y1="1117.5295" x2="197.2552" y2="1117.5295" gradientTransform="matrix(1 0 0 1 0 -999.2)">
				<stop  offset="0" style="stop-color:#F15A24"/>
				<stop  offset="3.621989e-02" style="stop-color:#F15C24"/>
				<stop  offset="1" style="stop-color:#F7931E"/>
			</linearGradient>
			<path class="st14" d="M115.2,120.1c0.5-1.5,0.5-2.5,1-3.5c27.3,0,54.1,0,81.3,0c-0.5,3.5-1,3.5-4,3.5c-25.3,0-50.6,0-75.4,0
				C117.1,120.1,116.1,120.1,115.2,120.1z"/>
			
				<linearGradient id="SVGID_12_" gradientUnits="userSpaceOnUse" x1="18.0623" y1="1100.668" x2="90.9638" y2="1100.668" gradientTransform="matrix(1 0 0 1 0 -999.2)">
				<stop  offset="0" style="stop-color:#F15A24"/>
				<stop  offset="3.621989e-02" style="stop-color:#F15C24"/>
				<stop  offset="1" style="stop-color:#F7931E"/>
			</linearGradient>
			<path class="st15" d="M17.9,103.2c0-1.5,0-2.5,0-3.5c24.3,0,48.6,0,72.9,0c0,1,0,2,0,3.5C66.5,103.2,42.7,103.2,17.9,103.2z"/>
			
				<linearGradient id="SVGID_13_" gradientUnits="userSpaceOnUse" x1="43.8605" y1="1108.8508" x2="107.5741" y2="1108.8508" gradientTransform="matrix(1 0 0 1 0 -999.2)">
				<stop  offset="0" style="stop-color:#F15A24"/>
				<stop  offset="3.621989e-02" style="stop-color:#F15C24"/>
				<stop  offset="1" style="stop-color:#F7931E"/>
			</linearGradient>
			<path class="st16" d="M44.2,111.6c-0.5-4-0.5-4,3-4c19.3,0,38.7,0,57.5,0c1,0,2,0,3,0c0,1.5,0,2.5,0,4
				C86.4,111.6,65.1,111.6,44.2,111.6z"/>
			
				<linearGradient id="SVGID_14_" gradientUnits="userSpaceOnUse" x1="25.0753" y1="1133.8951" x2="95.6003" y2="1133.8951" gradientTransform="matrix(1 0 0 1 0 -999.2)">
				<stop  offset="0" style="stop-color:#F15A24"/>
				<stop  offset="3.621989e-02" style="stop-color:#F15C24"/>
				<stop  offset="1" style="stop-color:#F7931E"/>
			</linearGradient>
			<path class="st17" d="M95.8,133c0,1,0,2,0,3.5c-23.3,0-46.6,0-70.4,0c0-0.5,0-1,0-1.5c0-0.5,0-1,0-2C48.7,133,72,133,95.8,133z"
				/>
			
				<linearGradient id="SVGID_15_" gradientUnits="userSpaceOnUse" x1="104.4774" y1="1092.4851" x2="168.9481" y2="1092.4851" gradientTransform="matrix(1 0 0 1 0 -999.2)">
				<stop  offset="0" style="stop-color:#F15A24"/>
				<stop  offset="3.621989e-02" style="stop-color:#F15C24"/>
				<stop  offset="1" style="stop-color:#F7931E"/>
			</linearGradient>
			<path class="st18" d="M104.7,91.3c13.4,0,26.8,0,40.2,0c6.4,0,12.4,0,18.8,0c4,0,4,0,5,4c-0.5,0-1,0-2,0c-18.8,0-37.7,0-56.5,0
				c-2-1-4.5-2-6-3C104.7,91.8,104.7,91.3,104.7,91.3z"/>
			
				<linearGradient id="SVGID_16_" gradientUnits="userSpaceOnUse" x1="43.9969" y1="1167.6183" x2="112.7425" y2="1167.6183" gradientTransform="matrix(1 0 0 1 0 -999.2)">
				<stop  offset="0" style="stop-color:#F15A24"/>
				<stop  offset="3.621989e-02" style="stop-color:#F15C24"/>
				<stop  offset="1" style="stop-color:#F7931E"/>
			</linearGradient>
			<path class="st19" d="M44.2,170.2c0-1.5,0-2.5,0-3.5c22.8,0,45.6,0,68.4,0v0.5c-5,1-9.9,2.5-15.4,2.5c-17.4,0.5-34.7,0-52.1,0
				C45.2,170.2,44.7,170.2,44.2,170.2z"/>
			
				<linearGradient id="SVGID_17_" gradientUnits="userSpaceOnUse" x1="36.1786" y1="1117.5295" x2="98.9859" y2="1117.5295" gradientTransform="matrix(1 0 0 1 0 -999.2)">
				<stop  offset="0" style="stop-color:#F15A24"/>
				<stop  offset="3.621989e-02" style="stop-color:#F15C24"/>
				<stop  offset="1" style="stop-color:#F7931E"/>
			</linearGradient>
			<path class="st20" d="M36.3,120.1c0-1.5,0-2.5,0-3.5c20.8,0,41.7,0,63,0c0,1,0,2.5,0,3.5C78,120.1,57.1,120.1,36.3,120.1z"/>
			
				<linearGradient id="SVGID_18_" gradientUnits="userSpaceOnUse" x1="44.0356" y1="1092.4851" x2="97.0999" y2="1092.4851" gradientTransform="matrix(1 0 0 1 0 -999.2)">
				<stop  offset="0" style="stop-color:#F15A24"/>
				<stop  offset="3.621989e-02" style="stop-color:#F15C24"/>
				<stop  offset="1" style="stop-color:#F7931E"/>
			</linearGradient>
			<path class="st21" d="M97.3,91.3c0,1.5,0,2.5,0,4c-17.9,0-35.2,0-53.1,0c0-1.5,0-2.5,0-4C61.6,91.3,79.4,91.3,97.3,91.3z"/>
			
				<linearGradient id="SVGID_19_" gradientUnits="userSpaceOnUse" x1="174.4945" y1="1084.3024" x2="215.0674" y2="1084.3024" gradientTransform="matrix(1 0 0 1 0 -999.2)">
				<stop  offset="0" style="stop-color:#F15A24"/>
				<stop  offset="3.621989e-02" style="stop-color:#F15C24"/>
				<stop  offset="1" style="stop-color:#F7931E"/>
			</linearGradient>
			<path class="st22" d="M214.8,82.9c-1,4-1.5,4.5-5,4.5c-10.9,0-22.3,0-33.2,0c-1,0-1.5,0-2.5,0c1-3.5,1.5-4.5,5-4.5
				c10.9,0,22.3,0,33.2,0C213.3,82.9,214.3,82.9,214.8,82.9z"/>
			
				<linearGradient id="SVGID_20_" gradientUnits="userSpaceOnUse" x1="170.1983" y1="1092.4851" x2="210.7241" y2="1092.4851" gradientTransform="matrix(1 0 0 1 0 -999.2)">
				<stop  offset="0" style="stop-color:#F15A24"/>
				<stop  offset="3.621989e-02" style="stop-color:#F15C24"/>
				<stop  offset="1" style="stop-color:#F7931E"/>
			</linearGradient>
			<path class="st23" d="M210.9,91.3c-1.5,4-1.5,4-5,4c-11.4,0-22.8,0-34.2,0c-0.5,0-1,0-1.5,0c0.5-3.5,1-4,4.5-4
				c11.4,0,22.3,0,33.7,0C208.9,91.3,209.9,91.3,210.9,91.3z"/>
			
				<linearGradient id="SVGID_21_" gradientUnits="userSpaceOnUse" x1="98.2887" y1="1134.1432" x2="145.4554" y2="1134.1432" gradientTransform="matrix(1 0 0 1 0 -999.2)">
				<stop  offset="0" style="stop-color:#F15A24"/>
				<stop  offset="3.621989e-02" style="stop-color:#F15C24"/>
				<stop  offset="1" style="stop-color:#F7931E"/>
			</linearGradient>
			<path class="st24" d="M98.3,136.9c7.9-1.5,10.4-2.5,14.4-4c9.9,0.5,19.8,0,29.8,0c1,0,2,0,3,0c-0.5,3.5-1,4-4.5,4
				c-13.4,0-26.8,0-40.2,0C100.3,136.9,99.8,136.9,98.3,136.9z"/>
			
				<linearGradient id="SVGID_22_" gradientUnits="userSpaceOnUse" x1="150.4038" y1="1134.1432" x2="188.8006" y2="1134.1432" gradientTransform="matrix(1 0 0 1 0 -999.2)">
				<stop  offset="0" style="stop-color:#F15A24"/>
				<stop  offset="3.621989e-02" style="stop-color:#F15C24"/>
				<stop  offset="1" style="stop-color:#F7931E"/>
			</linearGradient>
			<path class="st25" d="M150.4,133c12.9,0,25.8,0,38.2,0c-0.5,3.5-1,4-4.5,4c-9.4,0-19.3,0-28.8,0
				C151.8,136.9,151.8,136.9,150.4,133z"/>
			
				<linearGradient id="SVGID_23_" gradientUnits="userSpaceOnUse" x1="179.0526" y1="1075.6235" x2="219.2759" y2="1075.6235" gradientTransform="matrix(1 0 0 1 0 -999.2)">
				<stop  offset="0" style="stop-color:#F15A24"/>
				<stop  offset="3.621989e-02" style="stop-color:#F15C24"/>
				<stop  offset="1" style="stop-color:#F7931E"/>
			</linearGradient>
			<path class="st26" d="M219.3,74.4c-0.5,3-1.5,4-4.5,4c-11.9,0-23.8,0-35.7,0c0.5-3,1.5-4,4.5-4c10.9,0,22.3,0,33.2,0
				C217.3,74.4,218.3,74.4,219.3,74.4z"/>
			
				<linearGradient id="SVGID_24_" gradientUnits="userSpaceOnUse" x1="183.6737" y1="1067.1927" x2="223.7447" y2="1067.1927" gradientTransform="matrix(1 0 0 1 0 -999.2)">
				<stop  offset="0" style="stop-color:#F15A24"/>
				<stop  offset="3.621989e-02" style="stop-color:#F15C24"/>
				<stop  offset="1" style="stop-color:#F7931E"/>
			</linearGradient>
			<path class="st27" d="M223.8,66c-1.5,4-1.5,4-5,4c-10.9,0-22.3,0-33.2,0c-0.5,0-1,0-2,0c0.5-3.5,1-4,4-4c11.4,0,22.3,0,33.7,0
				C222.3,66,222.8,66,223.8,66z"/>
			
				<linearGradient id="SVGID_25_" gradientUnits="userSpaceOnUse" x1="188.0517" y1="1058.762" x2="228.0692" y2="1058.762" gradientTransform="matrix(1 0 0 1 0 -999.2)">
				<stop  offset="0" style="stop-color:#F15A24"/>
				<stop  offset="3.621989e-02" style="stop-color:#F15C24"/>
				<stop  offset="1" style="stop-color:#F7931E"/>
			</linearGradient>
			<path class="st28" d="M228.2,57.6c-0.5,3.5-2.5,4-5,4c-10.9,0-21.8,0-32.7,0c-1,0-1.5,0-2.5,0c0.5-2.5,1.5-4,4.5-4
				c10.9,0,21.8,0,32.7,0C226.2,57.6,227.2,57.6,228.2,57.6z"/>
			
				<linearGradient id="SVGID_26_" gradientUnits="userSpaceOnUse" x1="154.588" y1="1142.574" x2="184.4538" y2="1142.574" gradientTransform="matrix(1 0 0 1 0 -999.2)">
				<stop  offset="0" style="stop-color:#F15A24"/>
				<stop  offset="3.621989e-02" style="stop-color:#F15C24"/>
				<stop  offset="1" style="stop-color:#F7931E"/>
			</linearGradient>
			<path class="st29" d="M154.8,141.4c9.9,0,19.8,0,29.8,0c-0.5,3.5-1,4-4,4c-6.4,0-13.4,0-19.8,0
				C156.3,145.4,156.3,145.4,154.8,141.4z"/>
			
				<linearGradient id="SVGID_27_" gradientUnits="userSpaceOnUse" x1="159.2006" y1="1151.0048" x2="180.2468" y2="1151.0048" gradientTransform="matrix(1 0 0 1 0 -999.2)">
				<stop  offset="0" style="stop-color:#F15A24"/>
				<stop  offset="3.621989e-02" style="stop-color:#F15C24"/>
				<stop  offset="1" style="stop-color:#F7931E"/>
			</linearGradient>
			<path class="st30" d="M180.1,149.8c-1.5,4-1.5,4-5.5,4c-3.5,0-6.9,0-9.9,0c-4,0-4,0-5.5-4C166.2,149.8,173.2,149.8,180.1,149.8z"
				/>
			
				<linearGradient id="SVGID_28_" gradientUnits="userSpaceOnUse" x1="163.6124" y1="1158.9801" x2="176.0418" y2="1158.9801" gradientTransform="matrix(1 0 0 1 0 -999.2)">
				<stop  offset="0" style="stop-color:#F15A24"/>
				<stop  offset="3.621989e-02" style="stop-color:#F15C24"/>
				<stop  offset="1" style="stop-color:#F7931E"/>
			</linearGradient>
			<path class="st31" d="M163.8,157.8c4,0,7.9,0,12.4,0c-1,1.5-0.5,4-3,4C164.2,161.7,165.7,162.7,163.8,157.8z"/>
			
				<linearGradient id="SVGID_29_" gradientUnits="userSpaceOnUse" x1="167.5372" y1="1167.6183" x2="171.8011" y2="1167.6183" gradientTransform="matrix(1 0 0 1 0 -999.2)">
				<stop  offset="0" style="stop-color:#F15A24"/>
				<stop  offset="3.621989e-02" style="stop-color:#F15C24"/>
				<stop  offset="1" style="stop-color:#F7931E"/>
			</linearGradient>
			<path class="st32" d="M169.7,170.6c-1-1.5-1.5-3-2-4.5c1.5,0,2.5,0,4.5,0C171.2,167.7,170.7,169.2,169.7,170.6z"/>
		</g>
		<g>
			<path class="st2" d="M205.9,161.9c0,24.7-20,44.7-44.7,44.7s-45.7-19-45.7-43.7s21-45.7,45.7-45.7S205.9,137.2,205.9,161.9z"/>
			<g>
				<linearGradient id="SVGID_30_" gradientUnits="userSpaceOnUse" x1="123.0851" y1="161.9012" x2="198.322" y2="161.9012">
					<stop  offset="0" style="stop-color:#F15A24"/>
					<stop  offset="3.621989e-02" style="stop-color:#F15C24"/>
					<stop  offset="1" style="stop-color:#F7931E"/>
				</linearGradient>
				<path class="st33" d="M160.7,124.3c-20.7,0-37.6,16.8-37.6,37.6c0,20.7,16.9,37.6,37.6,37.6s37.6-16.9,37.6-37.6
					C198.3,141.1,181.4,124.3,160.7,124.3z"/>
			</g>
		</g>
		<g>
			<path class="st2" d="M137,163.5c0-3.5,0-6.9,0-10.4c0-2.7,1.5-4.4,3.7-4.4c2.2,0,3.7,1.8,3.7,4.4c0,6.8,0,13.7,0,20.5
				c0,2.6,1.4,4.6,3.6,5.4c2.6,0.9,5.4-0.3,6.6-2.8c1.2-2.5,0.4-5.3-2-6.8c-1.2-0.8-2.2-1.6-2.4-3.1c-0.2-1.5,0.3-2.8,1.6-3.6
				c1.3-0.9,2.7-0.8,4.1,0c4.6,2.5,7.1,7.5,6.5,13c-0.6,4.9-4.4,9.2-9.3,10.5c-8.1,2.2-16-3.8-16.2-12.2
				C136.9,170.5,137,167,137,163.5z"/>
			<path class="st2" d="M189,172.7c0.1,2.9-1,4.6-3.2,4.9c-2.4,0.3-4.2-1.4-4.3-4.1c-0.1-4.9-1.1-9.6-3.4-13.9
				c-5.1-9.8-13.3-15.5-24.2-17.2c-2.7-0.4-4-2-3.7-4.4c0.3-2.1,2.1-3.3,4.6-3C173.8,137.3,188.7,153.7,189,172.7z"/>
			<path class="st2" d="M175.8,172.5c-0.1,1,0,1.8-0.2,2.5c-0.5,1.7-2.1,2.7-3.9,2.5c-1.7-0.2-3-1.4-3.3-3.2
				c-0.2-1.7-0.2-3.5-0.7-5.1c-2-7.3-6.9-11.9-14.3-13.6c-1.7-0.4-2.8-1.3-3.2-2.9c-0.5-2.5,1.4-4.7,3.9-4.4
				c1.8,0.2,3.6,0.7,5.3,1.4C169.6,154.1,174.8,162,175.8,172.5z"/>
		</g>
	</g>
</g>
</svg>
