<?xml version="1.0" encoding="utf-8"?>
<!-- Generator: Adobe Illustrator 24.1.2, SVG Export Plug-In . SVG Version: 6.00 Build 0)  -->
<!DOCTYPE svg PUBLIC "-//W3C//DTD SVG 1.1//EN" "http://www.w3.org/Graphics/SVG/1.1/DTD/svg11.dtd" [
	<!ENTITY ns_extend "http://ns.adobe.com/Extensibility/1.0/">
	<!ENTITY ns_ai "http://ns.adobe.com/AdobeIllustrator/10.0/">
	<!ENTITY ns_graphs "http://ns.adobe.com/Graphs/1.0/">
	<!ENTITY ns_vars "http://ns.adobe.com/Variables/1.0/">
	<!ENTITY ns_imrep "http://ns.adobe.com/ImageReplacement/1.0/">
	<!ENTITY ns_sfw "http://ns.adobe.com/SaveForWeb/1.0/">
	<!ENTITY ns_custom "http://ns.adobe.com/GenericCustomNamespace/1.0/">
	<!ENTITY ns_adobe_xpath "http://ns.adobe.com/XPath/1.0/">
]>
<svg version="1.1" xmlns:x="&ns_extend;" xmlns:i="&ns_ai;" xmlns:graph="&ns_graphs;"
	 xmlns="http://www.w3.org/2000/svg" xmlns:xlink="http://www.w3.org/1999/xlink" x="0px" y="0px" viewBox="0 0 246.2 246.2"
	 style="enable-background:new 0 0 246.2 246.2;" xml:space="preserve">
<style type="text/css">
	.st0{display:none;}
	.st1{display:none;fill:#3DFFA5;}
	.st2{fill:#FFFFFF;}
	.st3{display:none;fill:#FFFFFF;}
	.st4{fill:url(#SVGID_1_);}
	.st5{fill:url(#SVGID_2_);}
</style>
<metadata>
	<sfw  xmlns="&ns_sfw;">
		<slices></slices>
		<sliceSourceBounds  bottomLeftOrigin="true" height="246.2" width="246.2" x="-98.1" y="-98.1"></sliceSourceBounds>
	</sfw>
</metadata>
<g id="Layer_2" class="st0">
</g>
<g id="Layer_1">
	<rect class="st1" width="246.2" height="246.2"/>
	<path class="st2" d="M246.2,205.8c0,22.2-18.2,40.4-40.4,40.4H40.4C18.2,246.2,0,228,0,205.8V40.4C0,18.2,18.2,0,40.4,0h164.9
		c22.6,0,40.9,18.2,40.9,40.4V205.8z"/>
	<ellipse class="st3" cx="123.1" cy="117" rx="24.9" ry="25"/>
	<g>
		<g>
			<g>
				<g>
					<g>
						<g id="XMLID_5_">
							<linearGradient id="SVGID_1_" gradientUnits="userSpaceOnUse" x1="39.2457" y1="112.4116" x2="194.3521" y2="112.4116">
								<stop  offset="0" style="stop-color:#F15A24"/>
								<stop  offset="3.621989e-02" style="stop-color:#F15C24"/>
								<stop  offset="1" style="stop-color:#F7931E"/>
							</linearGradient>
							<path class="st4" d="M194.4,112.9c-0.3,43-35.3,77.6-78.1,77.4c-21.2-0.2-40.2-8.7-54.1-22.6c-14.4-14.4-23.1-34.1-22.9-55.8
								c0.3-43,35.3-77.7,78.1-77.4S194.5,69.8,194.4,112.9z"/>
						</g>
						<g>
							<path class="st2" d="M79.7,138.8l-17.1,29.3c0,0,5.6,17,26.9,17.3l9.9-26.9l6.7-18l6.8-19.9l2.4-6.5l0.3-0.7
								c0,0,0.2-0.2,0.2-0.3l0.2-0.2l0,0h0.2h0.2l0.2,0.2l0.3,0.5l0.7,1.9l1.4,3.8l4.6,14.2l4.1,12.7l6.3,19.3l5,13.5l4.3,14
								c0,0,14-10.7,27.4-24.1l-9.8-14.7l-6.3-10.8l-6.3-12.5l-5.3-11l-4.1-9.9l-3.4-9.9l-3.3-9.6l-3.4-11l-3.4-11.5l-3.1-11.3
								l-3.4-12.7l-1.9-6.2l-3.8,12l-5.1,16.8l-4.1,12.8L99,93.8l-4.1,11.6l-4.5,11.3l-5,10.8L79.7,138.8z"/>
						</g>
					</g>
				</g>
			</g>
			<path class="st2" d="M206.9,167c0,24.7-20,44.7-44.7,44.7s-45.7-19-45.7-43.7s21-45.7,45.7-45.7S206.9,142.3,206.9,167z"/>
			<g>
				<linearGradient id="SVGID_2_" gradientUnits="userSpaceOnUse" x1="124.1153" y1="166.9636" x2="199.3522" y2="166.9636">
					<stop  offset="0" style="stop-color:#F15A24"/>
					<stop  offset="3.621989e-02" style="stop-color:#F15C24"/>
					<stop  offset="1" style="stop-color:#F7931E"/>
				</linearGradient>
				<path class="st5" d="M161.7,129.3c-20.7,0-37.6,16.8-37.6,37.6c0,20.7,16.9,37.6,37.6,37.6s37.6-16.9,37.6-37.6
					C199.4,146.1,182.5,129.3,161.7,129.3z"/>
			</g>
		</g>
		<g>
			<path class="st2" d="M138,168.5c0-3.5,0-6.9,0-10.4c0-2.7,1.5-4.4,3.7-4.4c2.2,0,3.7,1.8,3.7,4.4c0,6.8,0,13.7,0,20.5
				c0,2.6,1.4,4.6,3.6,5.4c2.6,0.9,5.4-0.3,6.6-2.8c1.2-2.5,0.4-5.3-2-6.8c-1.2-0.8-2.2-1.6-2.4-3.1c-0.2-1.5,0.3-2.8,1.6-3.6
				c1.3-0.9,2.7-0.8,4.1,0c4.6,2.5,7.1,7.5,6.5,13c-0.6,4.9-4.4,9.2-9.3,10.5c-8.1,2.2-16-3.8-16.2-12.2
				C137.9,175.6,138,172.1,138,168.5z"/>
			<path class="st2" d="M190,177.8c0.1,2.9-1,4.6-3.2,4.9c-2.4,0.3-4.2-1.4-4.3-4.1c-0.1-4.9-1.1-9.6-3.4-13.9
				c-5.1-9.8-13.3-15.5-24.2-17.2c-2.7-0.4-4-2-3.7-4.4c0.3-2.1,2.1-3.3,4.6-3C174.8,142.4,189.7,158.8,190,177.8z"/>
			<path class="st2" d="M176.9,177.6c-0.1,1,0,1.8-0.2,2.5c-0.5,1.7-2.1,2.7-3.9,2.5c-1.7-0.2-3-1.4-3.3-3.2
				c-0.2-1.7-0.2-3.5-0.7-5.1c-2-7.3-6.9-11.9-14.3-13.6c-1.7-0.4-2.8-1.3-3.2-2.9c-0.5-2.5,1.4-4.7,3.9-4.4
				c1.8,0.2,3.6,0.7,5.3,1.4C170.6,159.2,175.8,167,176.9,177.6z"/>
		</g>
	</g>
</g>
</svg>
