<?xml version="1.0" encoding="utf-8"?>
<!-- Generator: Adobe Illustrator 24.2.1, SVG Export Plug-In . SVG Version: 6.00 Build 0)  -->
<!DOCTYPE svg PUBLIC "-//W3C//DTD SVG 1.1//EN" "http://www.w3.org/Graphics/SVG/1.1/DTD/svg11.dtd" [
	<!ENTITY ns_extend "http://ns.adobe.com/Extensibility/1.0/">
	<!ENTITY ns_ai "http://ns.adobe.com/AdobeIllustrator/10.0/">
	<!ENTITY ns_graphs "http://ns.adobe.com/Graphs/1.0/">
	<!ENTITY ns_vars "http://ns.adobe.com/Variables/1.0/">
	<!ENTITY ns_imrep "http://ns.adobe.com/ImageReplacement/1.0/">
	<!ENTITY ns_sfw "http://ns.adobe.com/SaveForWeb/1.0/">
	<!ENTITY ns_custom "http://ns.adobe.com/GenericCustomNamespace/1.0/">
	<!ENTITY ns_adobe_xpath "http://ns.adobe.com/XPath/1.0/">
]>
<svg version="1.1" id="Layer_1" xmlns:x="&ns_extend;" xmlns:i="&ns_ai;" xmlns:graph="&ns_graphs;"
	 xmlns="http://www.w3.org/2000/svg" xmlns:xlink="http://www.w3.org/1999/xlink" x="0px" y="0px" viewBox="0 0 1024.2 857.1"
	 style="enable-background:new 0 0 1024.2 857.1;" xml:space="preserve">
<style type="text/css">
	.st0{fill-rule:evenodd;clip-rule:evenodd;fill:#FFFFFF;stroke:#FFFFFF;stroke-width:0.9316;stroke-miterlimit:10;}
	.st1{fill:#89CDE5;}
	.st2{fill-rule:evenodd;clip-rule:evenodd;fill:#89CDE5;}
	.st3{fill:#FFFFFF;stroke:#000000;stroke-width:16.1155;stroke-linecap:round;stroke-linejoin:round;stroke-miterlimit:10;}
	.st4{fill-rule:evenodd;clip-rule:evenodd;fill:#010101;}
	.st5{fill:#FFFFFF;stroke:#000000;stroke-width:16.6854;stroke-linecap:round;stroke-linejoin:round;stroke-miterlimit:10;}
	.st6{fill:#FFFFFF;stroke:#000000;stroke-width:15.4067;stroke-linecap:round;stroke-linejoin:round;stroke-miterlimit:10;}
	.st7{fill:none;stroke:#000000;stroke-width:16.6854;stroke-linecap:round;stroke-linejoin:round;stroke-miterlimit:10;}
</style>
<metadata>
	<sfw  xmlns="&ns_sfw;">
		<slices></slices>
		<sliceSourceBounds  bottomLeftOrigin="true" height="857.1" width="1024.2" x="1759" y="-3404.2"></sliceSourceBounds>
	</sfw>
</metadata>
<circle class="st0" cx="968.6" cy="365.5" r="8.7"/>
<g>
	<g>
		<path class="st1" d="M176.3,92.9L176.3,92.9c0,5.7-4.6,10.4-10.1,10.4l-48.1,0.3c-0.1,14.8-12,26.9-26.6,27l-15.8,0.1l0.6,129.2
			l2.9,5.2c16,4.9,27.8,20.2,27.8,38.1V658l0-208.8v233.9c0,25.4-20.2,46-45.1,46H40.1C17.9,729.1,0,710.8,0,688.3V303.1
			c0-14.6,7.9-27.5,19.5-34.4l3.3-8.6l0,0l-0.6-129.2l-8.5,0.1l-0.4-74.5l77.8-0.3C105.7,56,117.7,68,118,82.8l48.1-0.2
			C171.7,82.6,176.3,87.2,176.3,92.9z"/>
	</g>
	<path class="st2" d="M990.3,202.7c20.9-21.5,33.9-51.2,33.9-83.9c0-32.8-12.9-62.5-33.9-84C969.4,13.3,940.5,0,908.6,0
		c-31.9,0-60.8,13.3-81.8,34.8c-20.9,21.5-33.8,51.2-33.8,84c0,32.8,13,62.5,33.8,83.9c15.5,15.9,35.4,27.4,57.7,32.2v112.6
		c-11.8,4.6-19.1,16.7-19.1,29.5v12.3c0,0.4,0,0.7,0,1.1v428c0,19.1,15.2,34.7,33.8,34.7h18.7c18.6,0,33.8-15.6,33.8-34.7V637.9h0
		V377c0-15-9.9-27.8-24.1-31.4V235.9C951.9,231.7,973.7,219.8,990.3,202.7z"/>
	<path class="st3" d="M47.5,733.8V307.4c0-34.2,31.9-62.1,71-62.1h719.2c39,0,71,28,71,62.1v479c0,34.2-31.9,62.1-71,62.1H236"/>
	<circle class="st4" cx="203.8" cy="848.5" r="8.7"/>
	<path class="st5" d="M287.3,218.4v-89.3c0-6.5,8.5-11.9,18.8-11.9h343.8c10.4,0,18.8,5.4,18.8,11.9v89.3"/>
	<g>
		<g>
			<line class="st6" x1="349.4" y1="453.4" x2="349.4" y2="360.1"/>
			<line class="st6" x1="302.8" y1="406.8" x2="396" y2="406.8"/>
		</g>
		<path class="st5" d="M365.6,491.3c32.7,53,25.3,112.9,25.3,172.3c0,46.4,28,86.6,68,104.4"/>
		<path class="st5" d="M551.4,768c40-17.8,68-58,68-104.4c0-34.7-8.7-81.6,4.1-113.8c6.9-17.3,17.4-33,23.3-50.7
			c5.9-17.7,11.1-61-1-75.2c-14.1-16.5-38.9-17.4-60.7-17c-48.4,0.9-96.8,1.9-145.2,2.8"/>
		<path class="st7" d="M548.4,770.2V657.1c0-23.8-18.2-43.4-40.5-43.4h-5.5c-22.3,0-40.5,19.5-40.5,43.4v113.1"/>
	</g>
</g>
</svg>
