<?xml version="1.0" encoding="utf-8"?>
<!-- Generator: Adobe Illustrator 24.2.1, SVG Export Plug-In . SVG Version: 6.00 Build 0)  -->
<!DOCTYPE svg PUBLIC "-//W3C//DTD SVG 1.1//EN" "http://www.w3.org/Graphics/SVG/1.1/DTD/svg11.dtd" [
	<!ENTITY ns_extend "http://ns.adobe.com/Extensibility/1.0/">
	<!ENTITY ns_ai "http://ns.adobe.com/AdobeIllustrator/10.0/">
	<!ENTITY ns_graphs "http://ns.adobe.com/Graphs/1.0/">
	<!ENTITY ns_vars "http://ns.adobe.com/Variables/1.0/">
	<!ENTITY ns_imrep "http://ns.adobe.com/ImageReplacement/1.0/">
	<!ENTITY ns_sfw "http://ns.adobe.com/SaveForWeb/1.0/">
	<!ENTITY ns_custom "http://ns.adobe.com/GenericCustomNamespace/1.0/">
	<!ENTITY ns_adobe_xpath "http://ns.adobe.com/XPath/1.0/">
]>
<svg version="1.1" id="Layer_1" xmlns:x="&ns_extend;" xmlns:i="&ns_ai;" xmlns:graph="&ns_graphs;"
	 xmlns="http://www.w3.org/2000/svg" xmlns:xlink="http://www.w3.org/1999/xlink" x="0px" y="0px" viewBox="0 0 100.5 84.4"
	 style="enable-background:new 0 0 100.5 84.4;" xml:space="preserve">
<style type="text/css">
	.st0{fill:none;}
	.st1{fill:#FFFFFF;}
</style>
<metadata>
	<sfw  xmlns="&ns_sfw;">
		<slices></slices>
		<sliceSourceBounds  bottomLeftOrigin="true" height="84.4" width="100.5" x="1.7" y="31.7"></sliceSourceBounds>
	</sfw>
</metadata>
<g>
	<path class="st0" d="M53.6,42c-1.7,0-3,1.4-3,3.1c0,1.1,0.6,2.1,1.5,2.6v5.1c0,0.9,0.7,1.6,1.5,1.6c0.8,0,1.5-0.7,1.5-1.6v-5.1
		c0.9-0.5,1.5-1.5,1.5-2.6C56.6,43.3,55.2,42,53.6,42z"/>
	<path class="st0" d="M53.6,24.6c-4,0-7.3,3.4-7.3,7.5v5.7c2.4-0.5,4.8-0.8,7.3-0.8c2.5,0,4.9,0.3,7.3,0.8v0l-1-0.3l1,0.3v-5.7
		C60.8,28,57.6,24.6,53.6,24.6z"/>
	<path class="st1" d="M61.2,37.8C58.9,37.3,56.4,37,54,37c-2.5,0-4.9,0.3-7.3,0.8v-5.7c0-4.1,3.3-7.5,7.3-7.5c2.4,0,4.6,1.2,6,3.2
		c0.4,0.6,0.6,1.2,0.9,1.8c0.3,0.7,0.6,1.7,1.4,1.9c0.7,0.2,1.6,0,2.1-0.6c0.8-0.9,0.4-2.1,0-3c-0.9-2-2.2-3.8-4-5.1
		c-1.9-1.4-4.1-2.1-6.4-2.1c-6.1,0-11.1,5.1-11.1,11.4v6.8c-0.6,0.2-1.1,0.4-1.7,0.6c-0.5,0.2-0.9,0.7-0.9,1.3v14.5
		c0,0.6,0.4,1.2,0.9,1.4c4.1,1.7,8.4,2.5,12.8,2.5c4.4,0,8.7-0.8,12.8-2.5c0.5-0.2,0.9-0.8,0.9-1.4c0,0,0-14.5,0-14.5
		c0-0.6-0.4-1.1-0.9-1.3c-0.2-0.1-0.5-0.2-0.7-0.3c-0.3-0.1-0.7-0.3-1-0.4l-2-0.6 M55.5,47.7v5.1c0,0.9-0.7,1.5-1.5,1.5
		c-0.8,0-1.5-0.7-1.5-1.5v-5.1c-0.9-0.5-1.5-1.5-1.5-2.6c0-1.7,1.4-3.1,3-3.1c1.7,0,3,1.4,3,3.1C57,46.2,56.4,47.1,55.5,47.7z"/>
</g>
<g>
	<path d="M61.9,6.4c-5.5-8.5-17.8-8.5-23.2,0L2.2,63.1c-5.9,9.2,0.7,21.3,11.7,21.3h72.8c11,0,17.5-12.1,11.7-21.3L61.9,6.4z
		 M55.3,68.5c0,2.3-1.2,3.4-3.4,3.4h-3c-2.3,0-3.4-1.2-3.4-3.4V66c0-2.3,1.2-3.4,3.4-3.4h3c2.3,0,3.4,1.2,3.4,3.4V68.5z M55.1,51.9
		c0,2.2-1.4,3.4-3.6,3.4h-2.5c-2.2,0-3.4-1.2-3.6-3.4l-0.8-24.3c0-2.3,1.1-3.6,3.4-3.6h4.4c2.3,0,3.4,1.2,3.4,3.6L55.1,51.9z"/>
</g>
</svg>
