<?xml version="1.0" encoding="utf-8"?>
<!-- Generator: Adobe Illustrator 22.1.0, SVG Export Plug-In . SVG Version: 6.00 Build 0)  -->
<svg version="1.1" id="Layer_1" xmlns="http://www.w3.org/2000/svg" xmlns:xlink="http://www.w3.org/1999/xlink" x="0px" y="0px"
	 viewBox="0 0 90 90" style="enable-background:new 0 0 90 90;" xml:space="preserve">
<style type="text/css">
	.st0{fill:none;stroke:#000000;stroke-miterlimit:10;}
	.st1{fill:#FFFFFF;}
</style>
<g>
	<g>
		<path d="M45,2.1C21.3,2.1,2.1,21.4,2.1,45S21.3,87.9,45,87.9S87.9,68.7,87.9,45S68.7,2.1,45,2.1 M45,90C20.2,90,0,69.8,0,45
			S20.2,0,45,0s45,20.2,45,45S69.8,90,45,90"/>
	</g>
</g>
<path d="M45.5,84.8"/>
<path class="st0" d="M41.5,74.4"/>
<path d="M13.5,32.6c0.5,0.4,1.2,0.4,1.6-0.1l0.3-0.3l3.9,3.9c0.5,0.5,1.2,0.5,1.7,0l1.5-1.5l5.7,5.7l-0.8,1.6
	c-1.2,2.4-0.2,5.3,2.2,6.5c1.2,0.6,2.7,0.7,3.9,0.2l3.7-1.5l-0.9-2.2l-3.7,1.5c-1.3,0.5-2.7-0.1-3.2-1.4c-0.3-0.6-0.2-1.4,0.1-2
	l0.8-1.6c0.5-0.9,0.3-2-0.4-2.7l-5.7-5.7l1.5-1.5c0.5-0.5,0.5-1.2,0-1.7l-3.9-3.9l0.3-0.3c0.5-0.5,0.5-1.2,0-1.6l-8.6-9.1
	c-0.4-0.5-0.1-0.6-0.6-0.1c-0.2,0.2-0.9,0.8-0.9,1.1l-6.4,9.8c0,0.3,4,3.9,4.3,4.1L13.5,32.6z M23.2,30.5l-3.1,3.1l-3.1-3.1l3.1-3.1
	L23.2,30.5z M11.9,16.3l7.8,8.3L19.3,25l-4.7,4.7l-0.4,0.4l-6.8-5.8L11.9,16.3z"/>
<path d="M89,37.2c-0.4-0.2-10.3,9.2-10.6,9.6L61.9,63.3c-0.5,0.5-0.5,1.2,0,1.7l0.9,0.9l-4.6,4.6c-1.8-1.1-3.9-1.7-6.1-1.7
	c-5.2,0-9.5,3.2-9.5,7.1s4.2,7.1,9.5,7.1s9.5-3.2,9.5-7.1c0-1.4-0.6-2.8-1.5-3.9l4.5-4.5l0.9,0.9c0.5,0.5,1.2,0.5,1.7,0l13-13
	c0.2-0.2,8.9-8.5,8.9-8.8l-0.1-0.8C88.9,45.4,89.5,37.4,89,37.2z M52.1,80.7c-3.8,0-7.1-2.2-7.1-4.7s3.2-4.7,7.1-4.7
	s7.1,2.2,7.1,4.7S55.9,80.7,52.1,80.7z M87.6,44.7L66.3,66l-1.9-1.9l22.7-22.7L87.6,44.7z"/>
<path d="M45,50c1.5,0,2.7,1.1,3,2.5l2.4,14.2l2.3-0.4l-2.4-14.2c-0.5-2.9-3.3-4.9-6.2-4.4c-2.3,0.4-4,2.1-4.4,4.4l-3.6,21.4
	c-0.3,1.6-1.8,2.7-3.4,2.4c-1.3-0.2-2.3-1.2-2.4-2.5L27.3,51c0-0.2-0.1-0.3-0.2-0.5l-0.7-1.1c-2-3.2-3.4-6.7-4.3-10.4l-2.3,0.5
	c0.9,3.9,2.4,7.7,4.6,11.1l0.5,0.8l3,22.2c0.4,2.9,3.1,4.9,6,4.5c2.3-0.3,4.1-2.1,4.5-4.4L42,52.5C42.3,51,43.5,50,45,50z"/>
<path d="M33.9,19.3c1.7,0,3.4,0.3,4.9,1c3.9,1.7,8.4,1.7,12.3,0c6.4-2.7,13.7,0.2,16.5,6.6c0.7,1.6,1,3.2,1,4.9
	c0,6.3-1.8,12.4-5.1,17.7l-0.7,1.1c-0.1,0.1-0.1,0.3-0.2,0.5l-1,7.1l2.3,0.3l0.9-6.8l0.5-0.8c3.6-5.7,5.4-12.2,5.4-18.9
	c0-8.2-6.7-14.9-14.9-14.9c-2,0-4,0.4-5.9,1.2c-3.3,1.4-7.1,1.4-10.4,0c-5.9-2.5-12.7-1-16.9,3.7l1.8,1.6
	C27,20.8,30.4,19.3,33.9,19.3z"/>
<path class="st1" d="M43.4,21.6l2.5-2.2l3.5-2.1l6.1-1l10,0.6c0,0,5.5,5.2,5.8,5.7c0.2,0.5,2.1,5.1,2.1,6S72.1,38,72.1,38l-1.9,4.8
	L68.8,45l-1.7,0.9h-2.6l-6.1-2.4l-6.7-3.8c0,0-2.7-1.8-3.4-3.8C47.6,33.8,43.4,21.6,43.4,21.6z"/>
<g transform="translate(0,-952.36218)">
	<path class="st1" d="M59.2,963c-1,0-1.8,0.5-2.6,1.1c-0.8,0.5-1.5,1-2.1,1.2s-1.4,0.1-2.4,0s-1.9-0.1-2.7,0.4s-1.3,1.4-1.7,2.2
		c-0.4,0.8-0.8,1.6-1.2,2.1c-0.4,0.4-1.2,0.8-2.1,1.2c-0.8,0.4-1.7,0.8-2.2,1.7c-0.5,0.8-0.4,1.8-0.4,2.7s0.1,1.8,0,2.4
		c-0.2,0.6-0.7,1.3-1.2,2.1c-0.5,0.8-1.1,1.6-1.1,2.6c0,1,0.5,1.8,1.1,2.5c0.5,0.8,1,1.5,1.2,2.1c0.2,0.6,0.1,1.4,0,2.4
		c-0.1,0.9-0.1,1.9,0.4,2.7c0.5,0.8,1.4,1.3,2.2,1.7c0.8,0.4,1.6,0.8,2.1,1.2c0.4,0.4,0.8,1.2,1.2,2.1c0.4,0.8,0.9,1.7,1.7,2.2
		c0.8,0.5,1.8,0.4,2.7,0.4c0.9-0.1,1.8-0.1,2.4,0c0.6,0.2,1.3,0.7,2.1,1.2c0.8,0.5,1.6,1.1,2.6,1.1c1,0,1.8-0.5,2.6-1.1
		s1.5-1,2.1-1.2c0.6-0.2,1.4-0.1,2.4,0c0.9,0.1,1.9,0.1,2.7-0.4c0.8-0.5,1.3-1.4,1.7-2.2s0.8-1.6,1.2-2.1c0.4-0.4,1.2-0.8,2.1-1.2
		c0.8-0.4,1.7-0.9,2.2-1.7c0.5-0.8,0.4-1.8,0.4-2.7s-0.2-1.8,0-2.4c0.2-0.6,0.7-1.3,1.2-2.1c0.5-0.8,1.1-1.6,1.1-2.6
		c0-1-0.5-1.8-1.1-2.6c-0.5-0.8-1-1.5-1.2-2.1c-0.2-0.6-0.1-1.4,0-2.4s0.1-1.9-0.4-2.7c-0.5-0.8-1.4-1.3-2.2-1.7
		c-0.8-0.4-1.6-0.8-2.1-1.2c-0.4-0.4-0.8-1.2-1.2-2.1s-0.8-1.7-1.7-2.2c-0.8-0.5-1.8-0.4-2.7-0.4c-0.9,0.1-1.8,0.2-2.4,0
		c-0.6-0.2-1.3-0.7-2.1-1.2C61,963.5,60.1,963,59.2,963L59.2,963z M59.2,964c0.5,0,1.2,0.4,2,0.9c0.7,0.5,1.5,1.1,2.4,1.3
		c0.9,0.2,1.8,0.1,2.7,0c0.9-0.1,1.7-0.1,2.1,0.2c0.5,0.3,0.9,0.9,1.3,1.7c0.4,0.8,0.8,1.7,1.4,2.3c0.6,0.6,1.5,1,2.3,1.4
		c0.8,0.4,1.5,0.8,1.7,1.3s0.3,1.3,0.2,2.1c-0.1,0.9-0.2,1.9,0,2.7c0.2,0.9,0.8,1.6,1.3,2.4c0.5,0.7,0.9,1.4,0.9,2
		c0,0.5-0.4,1.2-0.9,2c-0.5,0.7-1.1,1.5-1.3,2.4c-0.2,0.9-0.1,1.8,0,2.7c0.1,0.9,0.1,1.7-0.2,2.1c-0.3,0.5-0.9,0.9-1.7,1.3
		c-0.8,0.4-1.7,0.8-2.3,1.4c-0.6,0.6-1,1.5-1.4,2.3c-0.4,0.8-0.8,1.5-1.3,1.7c-0.5,0.3-1.3,0.3-2.1,0.2c-0.9-0.1-1.9-0.2-2.7,0
		c-0.9,0.2-1.6,0.8-2.4,1.3c-0.7,0.5-1.4,0.9-2,0.9c-0.5,0-1.2-0.4-2-0.9c-0.7-0.5-1.5-1.1-2.4-1.3c-0.9-0.2-1.8-0.1-2.7,0
		c-0.9,0.1-1.7,0-2.1-0.2c-0.5-0.3-0.9-0.9-1.3-1.7c-0.4-0.8-0.8-1.7-1.4-2.3c-0.6-0.6-1.5-1-2.3-1.4c-0.8-0.4-1.5-0.8-1.7-1.3
		c-0.3-0.5-0.3-1.3-0.2-2.1c0.1-0.9,0.2-1.9,0-2.7c-0.2-0.9-0.8-1.6-1.3-2.4c-0.5-0.7-0.9-1.4-0.9-2c0-0.5,0.4-1.2,0.9-2
		c0.5-0.7,1.1-1.5,1.3-2.4c0.2-0.9,0.1-1.8,0-2.7c-0.1-0.9,0-1.7,0.2-2.1c0.3-0.5,0.9-0.9,1.7-1.3c0.8-0.4,1.7-0.8,2.3-1.4
		c0.6-0.6,1-1.5,1.4-2.3c0.4-0.8,0.8-1.5,1.3-1.7c0.5-0.3,1.3-0.3,2.1-0.2c0.9,0.1,1.9,0.2,2.7,0c0.9-0.2,1.6-0.8,2.4-1.3
		C58,964.4,58.6,964,59.2,964L59.2,964z M67.6,973.5c-0.1,0-0.3,0.1-0.4,0.2l-16.8,16.8c-0.2,0.2-0.2,0.5,0,0.7s0.5,0.2,0.7,0
		L68,974.4c0.2-0.2,0.2-0.5,0-0.7C67.9,973.5,67.7,973.5,67.6,973.5z M53.9,973.5c-2,0-3.7,1.7-3.7,3.7s1.7,3.7,3.7,3.7
		c2,0,3.7-1.7,3.7-3.7C57.6,975.2,55.9,973.5,53.9,973.5z M53.9,974.6c1.5,0,2.6,1.2,2.6,2.6s-1.2,2.6-2.6,2.6
		c-1.5,0-2.6-1.2-2.6-2.6S52.5,974.6,53.9,974.6z M64.4,984c-2,0-3.7,1.7-3.7,3.7s1.7,3.7,3.7,3.7c2,0,3.7-1.7,3.7-3.7
		S66.5,984,64.4,984z M64.4,985.1c1.5,0,2.6,1.2,2.6,2.6c0,1.5-1.2,2.6-2.6,2.6c-1.5,0-2.6-1.2-2.6-2.6
		C61.8,986.3,63,985.1,64.4,985.1z"/>
</g>
<g transform="translate(0,-952.36218)">
	<path d="M59.2,964c-0.9,0-1.7,0.5-2.4,1c-0.7,0.5-1.4,1-2,1.1c-0.5,0.1-1.4,0.1-2.3,0s-1.8-0.1-2.6,0.4s-1.2,1.3-1.6,2.1
		c-0.4,0.8-0.7,1.6-1.1,2c-0.4,0.4-1.2,0.8-2,1.1c-0.8,0.4-1.6,0.8-2.1,1.6c-0.5,0.8-0.4,1.7-0.3,2.6c0.1,0.9,0.1,1.7,0,2.3
		c-0.1,0.5-0.6,1.2-1.1,2c-0.5,0.7-1,1.5-1,2.4c0,0.9,0.5,1.7,1,2.4c0.5,0.7,1,1.4,1.1,2c0.1,0.5,0.1,1.4,0,2.3
		c-0.1,0.9-0.1,1.8,0.3,2.6c0.5,0.8,1.3,1.2,2.1,1.6c0.8,0.4,1.6,0.7,2,1.1c0.4,0.4,0.7,1.2,1.1,2c0.4,0.8,0.8,1.6,1.6,2.1
		s1.7,0.4,2.6,0.3s1.7-0.1,2.3,0c0.5,0.1,1.2,0.6,2,1.1c0.7,0.5,1.5,1,2.4,1c0.9,0,1.7-0.5,2.4-1c0.7-0.5,1.4-1,2-1.1
		c0.5-0.1,1.4-0.1,2.3,0c0.9,0.1,1.8,0.1,2.6-0.3s1.2-1.3,1.6-2.1c0.4-0.8,0.7-1.6,1.1-2c0.4-0.4,1.2-0.7,2-1.1
		c0.8-0.4,1.6-0.8,2.1-1.6s0.4-1.7,0.3-2.6c-0.1-0.9-0.1-1.7,0-2.3c0.1-0.5,0.6-1.2,1.1-2c0.5-0.7,1-1.5,1-2.4c0-0.9-0.5-1.7-1-2.4
		c-0.5-0.7-1-1.4-1.1-2c-0.1-0.5-0.1-1.4,0-2.3c0.1-0.9,0.1-1.8-0.3-2.6s-1.3-1.2-2.1-1.6c-0.8-0.4-1.6-0.7-2-1.1
		c-0.4-0.4-0.8-1.2-1.1-2c-0.4-0.8-0.8-1.6-1.6-2.1c-0.8-0.5-1.7-0.4-2.6-0.4c-0.9,0.1-1.7,0.1-2.3,0c-0.5-0.1-1.2-0.6-2-1.1
		C60.9,964.5,60.1,964,59.2,964L59.2,964z M59.2,965c0.5,0,1.2,0.4,1.9,0.8s1.4,1,2.3,1.3c0.8,0.2,1.8,0.1,2.6,0
		c0.8-0.1,1.6-0.1,2,0.2c0.4,0.3,0.8,0.9,1.2,1.7c0.4,0.8,0.7,1.6,1.3,2.2c0.6,0.6,1.5,1,2.2,1.3c0.8,0.4,1.4,0.8,1.7,1.2
		c0.3,0.4,0.3,1.2,0.2,2s-0.2,1.8,0,2.6c0.2,0.8,0.8,1.5,1.3,2.3c0.5,0.7,0.8,1.4,0.8,1.9c0,0.5-0.4,1.2-0.8,1.9
		c-0.5,0.7-1,1.4-1.3,2.3c-0.2,0.8-0.1,1.8,0,2.6c0.1,0.8,0.1,1.6-0.2,2c-0.3,0.4-0.9,0.8-1.7,1.2c-0.8,0.4-1.6,0.7-2.2,1.3
		c-0.6,0.6-1,1.5-1.3,2.2c-0.4,0.8-0.8,1.4-1.2,1.7c-0.4,0.3-1.2,0.3-2,0.2c-0.8-0.1-1.8-0.2-2.6,0c-0.8,0.2-1.5,0.8-2.3,1.3
		s-1.4,0.8-1.9,0.8c-0.5,0-1.2-0.4-1.9-0.8c-0.7-0.5-1.4-1-2.3-1.3s-1.8-0.1-2.6,0c-0.8,0.1-1.6,0-2-0.2c-0.4-0.3-0.8-0.9-1.2-1.7
		c-0.4-0.8-0.7-1.6-1.3-2.2c-0.6-0.6-1.5-1-2.2-1.3s-1.4-0.8-1.7-1.2c-0.3-0.4-0.3-1.2-0.2-2c0.1-0.8,0.2-1.8,0-2.6
		c-0.2-0.8-0.8-1.6-1.3-2.3c-0.5-0.7-0.8-1.4-0.8-1.9c0-0.5,0.4-1.2,0.8-1.9c0.5-0.7,1-1.4,1.3-2.3c0.2-0.8,0.1-1.8,0-2.6
		c-0.1-0.8,0-1.6,0.2-2c0.3-0.4,0.9-0.8,1.7-1.2c0.8-0.4,1.6-0.7,2.2-1.3c0.6-0.6,1-1.5,1.3-2.2c0.4-0.8,0.8-1.4,1.2-1.7
		c0.4-0.3,1.2-0.3,2-0.2c0.8,0.1,1.8,0.2,2.6,0c0.8-0.2,1.6-0.8,2.3-1.3C58,965.3,58.7,965,59.2,965L59.2,965z M67.2,973.9
		c-0.1,0-0.3,0.1-0.3,0.2l-16,16c-0.2,0.2-0.2,0.5,0,0.7s0.5,0.2,0.7,0l16-16c0.2-0.2,0.2-0.5,0-0.7C67.5,974,67.3,973.9,67.2,973.9
		z M54.2,974c-1.9,0-3.5,1.6-3.5,3.5c0,1.9,1.6,3.5,3.5,3.5c1.9,0,3.5-1.6,3.5-3.5C57.7,975.5,56.1,974,54.2,974z M54.2,975
		c1.4,0,2.5,1.1,2.5,2.5c0,1.4-1.1,2.5-2.5,2.5c-1.4,0-2.5-1.1-2.5-2.5C51.7,976.1,52.8,975,54.2,975z M64.2,984
		c-1.9,0-3.5,1.6-3.5,3.5c0,1.9,1.6,3.5,3.5,3.5c1.9,0,3.5-1.6,3.5-3.5C67.7,985.5,66.1,984,64.2,984z M64.2,985
		c1.4,0,2.5,1.1,2.5,2.5c0,1.4-1.1,2.5-2.5,2.5c-1.4,0-2.5-1.1-2.5-2.5C61.7,986.1,62.8,985,64.2,985z"/>
</g>
<g transform="translate(0,-952.36218)">
	<path d="M59.2,963.6c-0.9,0-1.7,0.5-2.5,1c-0.7,0.5-1.5,1-2,1.1c-0.6,0.1-1.4,0.1-2.3,0c-0.9-0.1-1.9-0.1-2.7,0.4
		c-0.8,0.5-1.2,1.3-1.6,2.1c-0.4,0.8-0.7,1.6-1.1,2c-0.4,0.4-1.2,0.8-2,1.2c-0.8,0.4-1.7,0.8-2.1,1.6c-0.5,0.8-0.4,1.8-0.4,2.7
		c0.1,0.9,0.1,1.7,0,2.3c-0.1,0.6-0.6,1.3-1.1,2c-0.5,0.7-1,1.5-1,2.5c0,0.9,0.5,1.7,1,2.5c0.5,0.7,1,1.5,1.1,2
		c0.1,0.6,0.1,1.4,0,2.3c-0.1,0.9-0.1,1.9,0.4,2.7c0.5,0.8,1.3,1.2,2.1,1.6c0.8,0.4,1.6,0.7,2,1.1c0.4,0.4,0.8,1.2,1.1,2
		c0.4,0.8,0.8,1.7,1.6,2.1c0.8,0.5,1.8,0.4,2.7,0.4c0.9-0.1,1.7-0.1,2.3,0c0.6,0.1,1.3,0.6,2,1.1c0.7,0.5,1.5,1,2.5,1
		c0.9,0,1.7-0.5,2.5-1c0.7-0.5,1.5-1,2-1.1c0.6-0.1,1.4-0.1,2.3,0s1.9,0.1,2.7-0.4c0.8-0.5,1.2-1.3,1.6-2.1s0.8-1.6,1.2-2
		c0.4-0.4,1.2-0.8,2-1.1c0.8-0.4,1.7-0.8,2.1-1.6c0.5-0.8,0.4-1.8,0.4-2.7c-0.1-0.9-0.1-1.7,0-2.3c0.1-0.6,0.6-1.3,1.1-2
		c0.5-0.7,1-1.5,1-2.5c0-0.9-0.5-1.7-1-2.5c-0.5-0.7-1-1.5-1.1-2c-0.1-0.6-0.1-1.4,0-2.3c0.1-0.9,0.1-1.9-0.4-2.7
		c-0.5-0.8-1.3-1.2-2.1-1.6c-0.8-0.4-1.6-0.8-2-1.2s-0.8-1.2-1.2-2c-0.4-0.8-0.8-1.7-1.6-2.1c-0.8-0.5-1.8-0.4-2.7-0.4
		c-0.9,0.1-1.7,0.1-2.3,0c-0.6-0.1-1.3-0.6-2-1.1C60.9,964.1,60.1,963.6,59.2,963.6L59.2,963.6z M59.2,964.6c0.5,0,1.2,0.4,1.9,0.8
		c0.7,0.5,1.4,1.1,2.3,1.3c0.9,0.2,1.8,0.1,2.6,0c0.9-0.1,1.6-0.1,2.1,0.2c0.4,0.3,0.8,0.9,1.2,1.7c0.4,0.8,0.7,1.6,1.4,2.3
		c0.6,0.6,1.5,1,2.3,1.4c0.8,0.4,1.4,0.8,1.7,1.2c0.3,0.4,0.3,1.2,0.2,2.1c-0.1,0.9-0.2,1.8,0,2.6c0.2,0.9,0.8,1.6,1.3,2.3
		c0.5,0.7,0.8,1.4,0.8,1.9c0,0.5-0.4,1.2-0.8,1.9c-0.5,0.7-1.1,1.5-1.3,2.3c-0.2,0.9-0.1,1.8,0,2.6c0.1,0.9,0.1,1.6-0.2,2.1
		c-0.3,0.4-0.9,0.8-1.7,1.2c-0.8,0.4-1.6,0.7-2.3,1.4c-0.6,0.6-1,1.5-1.4,2.3c-0.4,0.8-0.8,1.4-1.2,1.7c-0.4,0.3-1.2,0.3-2.1,0.2
		c-0.9-0.1-1.8-0.2-2.6,0c-0.9,0.2-1.6,0.8-2.3,1.3c-0.7,0.5-1.4,0.8-1.9,0.8c-0.5,0-1.2-0.4-1.9-0.8c-0.7-0.5-1.5-1.1-2.3-1.3
		c-0.9-0.2-1.8-0.1-2.6,0c-0.9,0.1-1.6,0-2.1-0.2c-0.4-0.3-0.8-0.9-1.2-1.7c-0.4-0.8-0.7-1.6-1.4-2.3c-0.6-0.6-1.5-1-2.3-1.4
		c-0.8-0.4-1.4-0.8-1.7-1.2c-0.3-0.4-0.3-1.2-0.2-2.1c0.1-0.9,0.2-1.8,0-2.6c-0.2-0.9-0.8-1.6-1.3-2.3c-0.5-0.7-0.9-1.4-0.9-1.9
		c0-0.5,0.4-1.2,0.9-1.9c0.5-0.7,1-1.4,1.3-2.3c0.2-0.9,0.1-1.8,0-2.6c-0.1-0.9,0-1.6,0.2-2.1c0.3-0.4,0.9-0.8,1.7-1.2
		c0.8-0.4,1.6-0.7,2.3-1.4c0.6-0.6,1-1.5,1.4-2.3c0.4-0.8,0.8-1.4,1.2-1.7c0.4-0.3,1.2-0.3,2.1-0.2c0.9,0.1,1.8,0.2,2.6,0
		s1.6-0.8,2.3-1.3S58.7,964.6,59.2,964.6L59.2,964.6z M67.3,973.8c-0.1,0-0.3,0.1-0.4,0.2l-16.3,16.3c-0.2,0.2-0.2,0.5,0,0.7
		s0.5,0.2,0.7,0l16.3-16.3c0.2-0.2,0.2-0.5,0-0.7C67.6,973.8,67.5,973.8,67.3,973.8z M54.1,973.8c-2,0-3.6,1.6-3.6,3.6
		s1.6,3.6,3.6,3.6c2,0,3.6-1.6,3.6-3.6S56,973.8,54.1,973.8z M54.1,974.8c1.4,0,2.6,1.1,2.6,2.5c0,1.4-1.1,2.5-2.6,2.5
		c-1.4,0-2.6-1.1-2.6-2.5C51.5,976,52.7,974.8,54.1,974.8z M64.3,984c-2,0-3.6,1.6-3.6,3.6c0,2,1.6,3.6,3.6,3.6c2,0,3.6-1.6,3.6-3.6
		C67.9,985.6,66.3,984,64.3,984z M64.3,985c1.4,0,2.6,1.1,2.6,2.5s-1.1,2.5-2.6,2.5c-1.4,0-2.6-1.1-2.6-2.5S62.9,985,64.3,985z"/>
</g>
</svg>
