<?xml version="1.0" encoding="utf-8"?>
<!-- Generator: Adobe Illustrator 24.1.2, SVG Export Plug-In . SVG Version: 6.00 Build 0)  -->
<!DOCTYPE svg PUBLIC "-//W3C//DTD SVG 1.1//EN" "http://www.w3.org/Graphics/SVG/1.1/DTD/svg11.dtd" [
	<!ENTITY ns_extend "http://ns.adobe.com/Extensibility/1.0/">
	<!ENTITY ns_ai "http://ns.adobe.com/AdobeIllustrator/10.0/">
	<!ENTITY ns_graphs "http://ns.adobe.com/Graphs/1.0/">
	<!ENTITY ns_vars "http://ns.adobe.com/Variables/1.0/">
	<!ENTITY ns_imrep "http://ns.adobe.com/ImageReplacement/1.0/">
	<!ENTITY ns_sfw "http://ns.adobe.com/SaveForWeb/1.0/">
	<!ENTITY ns_custom "http://ns.adobe.com/GenericCustomNamespace/1.0/">
	<!ENTITY ns_adobe_xpath "http://ns.adobe.com/XPath/1.0/">
]>
<svg version="1.1" id="Layer_1" xmlns:x="&ns_extend;" xmlns:i="&ns_ai;" xmlns:graph="&ns_graphs;"
	 xmlns="http://www.w3.org/2000/svg" xmlns:xlink="http://www.w3.org/1999/xlink" x="0px" y="0px" viewBox="0 0 246.2 246.2"
	 style="enable-background:new 0 0 246.2 246.2;" xml:space="preserve">
<style type="text/css">
	.st0{display:none;}
	.st1{display:none;fill:#3DFFA5;}
	.st2{fill:#FFFFFF;}
	.st3{display:none;fill:#FFFFFF;}
	.st4{fill:url(#SVGID_1_);}
	.st5{fill-rule:evenodd;clip-rule:evenodd;fill:url(#SVGID_2_);}
	.st6{fill:url(#SVGID_3_);}
</style>
<metadata>
	<sfw  xmlns="&ns_sfw;">
		<slices></slices>
		<sliceSourceBounds  bottomLeftOrigin="true" height="246.2" width="246.2" x="0" y="0"></sliceSourceBounds>
	</sfw>
</metadata>
<g id="Layer_2_1_" class="st0">
</g>
<g id="Layer_1_1_">
	<rect class="st1" width="246.2" height="246.2"/>
	<path class="st2" d="M246.2,205.8c0,22.2-18.2,40.4-40.4,40.4H40.4C18.2,246.2,0,228,0,205.8V40.4C0,18.2,18.2,0,40.4,0h164.9
		c22.6,0,40.9,18.2,40.9,40.4L246.2,205.8L246.2,205.8z"/>
	<ellipse class="st3" cx="123.1" cy="117" rx="24.9" ry="25"/>
</g>
<g>
	<g>
		<linearGradient id="SVGID_1_" gradientUnits="userSpaceOnUse" x1="51.7897" y1="122.3674" x2="70.2769" y2="122.3674">
			<stop  offset="0" style="stop-color:#ED1E79"/>
			<stop  offset="0.573" style="stop-color:#9D2787"/>
			<stop  offset="1" style="stop-color:#662D91"/>
		</linearGradient>
		<path class="st4" d="M70.3,126.8v-15.4h-3.1c-8.6,0-15.4,6.8-15.4,15.4v6.5c4-4,9.2-6.5,15.4-6.5H70.3z"/>
		<g>
			<g>
				<linearGradient id="SVGID_2_" gradientUnits="userSpaceOnUse" x1="46.513" y1="89.7982" x2="199.0283" y2="89.7982">
					<stop  offset="0" style="stop-color:#ED1E79"/>
					<stop  offset="0.573" style="stop-color:#9D2787"/>
					<stop  offset="1" style="stop-color:#662D91"/>
				</linearGradient>
				<path class="st5" d="M83.9,29.7h78.9c4.5,0,8.2,3.7,8.2,8.2v103.9c0,4.5-3.7,8.2-8.2,8.2H83.9c-4.5,0-8.2-3.7-8.2-8.2V37.9
					C75.7,33.4,79.4,29.7,83.9,29.7L83.9,29.7z M51.1,50l19-6.4v93.3L46.8,58.7C45.7,55.1,47.6,51.2,51.1,50L51.1,50z M194.4,50
					c3.6,1.2,5.4,5.1,4.3,8.7l-23.4,78.2V43.6L194.4,50L194.4,50z M92.6,122.5h61.5c1.3,0,2.4-1.1,2.4-2.4v-2.4
					c0-1.3-1.1-2.4-2.4-2.4H92.6c-1.3,0-2.4,1.1-2.4,2.4v2.4C90.2,121.4,91.3,122.5,92.6,122.5z M92.6,138.3H136
					c1.3,0,2.4-1.1,2.4-2.4v-2.4c0-1.3-1.1-2.4-2.4-2.4H92.6c-1.3,0-2.4,1.1-2.4,2.4v2.4C90.2,137.3,91.3,138.3,92.6,138.3z"/>
			</g>
			<path class="st2" d="M123.3,79.8c-14.6,0-4.9,26.9-13.4,26.9c-6,0-10.3-13-10.3-29.4c0-12.1-9.2-22.4-0.2-31.2
				c9-8.8,18.7-0.7,23.9-0.7c5.2,0,14.9-8.1,23.9,0.7c9,8.8-0.2,19.2-0.2,31.2c0,16.4-4.3,29.4-10.3,29.4
				C128.3,106.7,138,79.8,123.3,79.8z"/>
		</g>
		<path class="st2" d="M182.4,94h-40.7c-10.2,0-19.4,5.5-24.3,14.5l-4.6,8.3c-3.7,7.1-11.1,11.4-19.1,11.4H65.3
			c-8.6,0-15.4,6.8-15.4,15.4V196c0,8.6,7.1,15.4,15.4,15.4h117.1c8.6,0,15.4-6.8,15.4-15.4v-86.6C197.8,100.8,191,94,182.4,94z"/>
		<linearGradient id="SVGID_3_" gradientUnits="userSpaceOnUse" x1="51.7897" y1="157.8011" x2="199.687" y2="157.8011">
			<stop  offset="0" style="stop-color:#ED1E79"/>
			<stop  offset="0.573" style="stop-color:#9D2787"/>
			<stop  offset="1" style="stop-color:#662D91"/>
		</linearGradient>
		<path class="st6" d="M184.3,99.1h-40.7c-10.2,0-19.4,5.5-24.3,14.5l-4.6,8.3c-3.7,7.1-11.1,11.4-19.1,11.4H67.2
			c-8.6,0-15.4,6.8-15.4,15.4v52.4c0,8.6,7.1,15.4,15.4,15.4h117.1c8.6,0,15.4-6.8,15.4-15.4v-86.6
			C199.7,105.9,192.9,99.1,184.3,99.1z"/>
	</g>
	<path class="st2" d="M137.3,173.1c4.6,5.5,9.1,10.9,13.7,16.4c0.3,0.4,0.7,0.5,1.1,0.5c0.4,0,0.8-0.1,1.1-0.5
		c4.6-5.5,9.1-10.9,13.7-16.4c0.8-1,0.4-2.7-1.1-2.7c-1.9,0-3.8,0-5.7,0c0-8.3,0-16.5,0-24.8c0-0.9-0.7-1.6-1.6-1.6
		c-4.2,0-8.5,0-12.7,0c-0.9,0-1.6,0.7-1.6,1.6c0,8.3,0,16.5,0,24.8c-1.9,0-3.8,0-5.7,0C137,170.4,136.5,172,137.3,173.1z"/>
	<path class="st2" d="M152.1,205.3c21.2,0,38.3-17.1,38.3-38.3s-17.1-38.3-38.3-38.3s-38.3,17.1-38.3,38.3S130.9,205.3,152.1,205.3z
		 M152.1,134.8c17.8,0,32.2,14.4,32.2,32.2c0,17.8-14.4,32.2-32.2,32.2c-17.8,0-32.2-14.4-32.2-32.2
		C119.9,149.2,134.3,134.8,152.1,134.8z"/>
</g>
</svg>
