<?xml version="1.0" encoding="utf-8"?>
<!-- Generator: Adobe Illustrator 23.0.3, SVG Export Plug-In . SVG Version: 6.00 Build 0)  -->
<!DOCTYPE svg PUBLIC "-//W3C//DTD SVG 1.1//EN" "http://www.w3.org/Graphics/SVG/1.1/DTD/svg11.dtd" [
	<!ENTITY ns_extend "http://ns.adobe.com/Extensibility/1.0/">
	<!ENTITY ns_ai "http://ns.adobe.com/AdobeIllustrator/10.0/">
	<!ENTITY ns_graphs "http://ns.adobe.com/Graphs/1.0/">
	<!ENTITY ns_vars "http://ns.adobe.com/Variables/1.0/">
	<!ENTITY ns_imrep "http://ns.adobe.com/ImageReplacement/1.0/">
	<!ENTITY ns_sfw "http://ns.adobe.com/SaveForWeb/1.0/">
	<!ENTITY ns_custom "http://ns.adobe.com/GenericCustomNamespace/1.0/">
	<!ENTITY ns_adobe_xpath "http://ns.adobe.com/XPath/1.0/">
]>
<svg version="1.1" id="Layer_1" xmlns:x="&ns_extend;" xmlns:i="&ns_ai;" xmlns:graph="&ns_graphs;"
	 xmlns="http://www.w3.org/2000/svg" xmlns:xlink="http://www.w3.org/1999/xlink" x="0px" y="0px" viewBox="0 0 90.2 82.8"
	 style="enable-background:new 0 0 90.2 82.8;" xml:space="preserve">
<style type="text/css">
	.st0{fill:#136585;}
</style>
<metadata>
	<sfw  xmlns="&ns_sfw;">
		<slices></slices>
		<sliceSourceBounds  bottomLeftOrigin="true" height="82.8" width="90.2" x="4.9" y="33.6"></sliceSourceBounds>
	</sfw>
</metadata>
<path class="st0" d="M90.2,41.4c0,22.8-18.6,41.4-41.4,41.4c-22.3,0-40.5-17.6-41.4-39.7l-2,2c-1.3,1.3-3.2,1.3-4.5,0.1
	c-1.2-1.2-1.2-3.2,0-4.4l7.3-7.3c1.2-1.2,3.2-1.2,4.4,0l7.3,7.3c1.2,1.2,1.2,3.2,0,4.4c-0.6,0.6-1.4,0.9-2.2,0.9s-1.6-0.3-2.2-0.9
	l-2-2c1,18.6,16.4,33.4,35.2,33.4c19.4,0,35.2-15.8,35.2-35.2S68.1,6.2,48.7,6.2c-9.6,0-18.5,3.8-25.2,10.6
	c-1.2,1.2-3.2,1.3-4.4,0.1c-1.2-1.2-1.3-3.2-0.1-4.4C27,4.4,37.5,0,48.8,0C71.6,0,90.2,18.6,90.2,41.4z M62.5,30.2v5.3h3.1
	c1.7,0,3.1,1.4,3.1,3.1v21.7c0,1.7-1.4,3.1-3.1,3.1H31.9c-1.7,0-3.1-1.4-3.1-3.1V38.6c0-1.7,1.4-3.1,3.1-3.1H35v-5.3
	c0-7.6,6.2-13.8,13.8-13.8C56.4,16.4,62.5,22.6,62.5,30.2z M41.2,35.5h15.1v-5.3c0-4.2-3.4-7.6-7.6-7.6s-7.6,3.4-7.6,7.6L41.2,35.5
	L41.2,35.5z M62.5,41.7H35v15.5h27.5V41.7z"/>
</svg>
