<?xml version="1.0" encoding="utf-8"?>
<!-- Generator: Adobe Illustrator 22.1.0, SVG Export Plug-In . SVG Version: 6.00 Build 0)  -->
<svg version="1.1" id="Layer_1" xmlns="http://www.w3.org/2000/svg" xmlns:xlink="http://www.w3.org/1999/xlink" x="0px" y="0px"
	 viewBox="0 0 90 90" style="enable-background:new 0 0 90 90;" xml:space="preserve">
<g>
	<g>
		<path d="M45,2.1C21.3,2.1,2.1,21.4,2.1,45S21.3,87.9,45,87.9S87.9,68.7,87.9,45S68.7,2.1,45,2.1 M45,90C20.2,90,0,69.8,0,45
			S20.2,0,45,0s45,20.2,45,45S69.8,90,45,90"/>
	</g>
</g>
<g>
	<path d="M30.5,60.1c-0.4,0.7-0.6,1.5-0.6,2.3v0.1c0,0.1,0,0.3,0.1,0.4l2.4,7.3c0.1,0.2,0.2,0.5,0.5,0.6l11.6,8.1l0,10
		c0,0.7,0.5,0.2,1.2,0.2l13.2-1.9c0.7,0,1.3,0.2,1.3-0.5v-9.3l5.8-8.1c0.1-0.2,0.2-0.5,0.2-0.7v-4.8c0-1.4-0.6-2.7-1.7-3.6H77
		c0.7,0,1.2-0.5,1.2-1.2V54c0-0.7-0.5-1.2-1.2-1.2h-2.4v-3.6c0-13-9.1-24.3-21.8-27.1v-0.7c0-3.3-2.7-6-6-6c-3.3,0-6,2.7-6,6v0.7
		C28.1,24.9,19,36.2,19,49.2v3.6h-2.4c-0.7,0-1.2,0.5-1.2,1.2v4.8c0,0.7,0.5,1.2,1.2,1.2H30.5z M63.7,68.1l-5.8,8.1
		c-0.1,0.2-0.2,0.5-0.2,0.7l0,9.6L47,89l-0.2-10.8c0-0.4-0.2-0.8-0.5-1L34.5,69l-2.2-6.7c0-1.2,1.1-2.2,2.3-2.2c1,0,1.9,0.7,2.2,1.7
		l1.6,3.6c0.1,0.3,0.3,0.5,0.6,0.6l7.3,3.6c0.2,0.1,0.4,0.1,0.5,0.1h6c0.2,0,0.4,0,0.5-0.1l4.8-2.4c0.4-0.2,0.7-0.6,0.7-1.1v-2.4
		c0-1.3,1.1-2.4,2.4-2.4s2.4,1.1,2.4,2.4V68.1z M56.5,63.7v1.7l-3.9,2h-5.5L40.5,64l-1.4-3.1c-0.1-0.3-0.2-0.6-0.4-0.8h19.4
		C57.1,61,56.5,62.3,56.5,63.7z M43.2,21.4c0-2,1.6-3.6,3.6-3.6c2,0,3.6,1.6,3.6,3.6H43.2z M21.4,49.2c0-14,11.4-25.4,25.4-25.4
		s25.4,11.4,25.4,25.4v3.6H21.4V49.2z M17.8,55.2h58v2.4h-58V55.2z"/>
	<path d="M26.9,43.9l2.3,0.9c2.7-7,8.4-12.5,15.6-14.8L44,27.7C36.2,30.3,29.9,36.2,26.9,43.9z"/>
	<path d="M25.5,49l2.4,0.4c0.1-0.8,0.3-1.6,0.5-2.3l-2.3-0.7C25.9,47.3,25.7,48.1,25.5,49z"/>
	<path d="M26.2,21L25,17.4c-0.2-0.6-0.9-1-1.5-0.8s-1,0.9-0.8,1.5l1,2.9l-1.9,1.9c-0.3,0.3-0.4,0.8-0.3,1.2l1.2,3.6
		c0.2,0.6,0.9,1,1.5,0.8c0.6-0.2,1-0.9,0.8-1.5l-1-2.9l1.9-1.9C26.2,21.9,26.3,21.4,26.2,21z"/>
	<path d="M20.2,21l-1.2-3.6c-0.2-0.6-0.9-1-1.5-0.8s-1,0.9-0.8,1.5l0,0l1,2.9l-1.9,1.9c-0.3,0.3-0.4,0.8-0.3,1.2l1.2,3.6
		c0.2,0.6,0.9,1,1.5,0.8c0.6-0.2,1-0.9,0.8-1.5l-1-2.9l1.9-1.9C20.2,21.9,20.3,21.4,20.2,21z"/>
</g>
</svg>
