<?xml version="1.0" encoding="utf-8"?>
<!-- Generator: Adobe Illustrator 24.2.0, SVG Export Plug-In . SVG Version: 6.00 Build 0)  -->
<!DOCTYPE svg PUBLIC "-//W3C//DTD SVG 1.1//EN" "http://www.w3.org/Graphics/SVG/1.1/DTD/svg11.dtd" [
	<!ENTITY ns_extend "http://ns.adobe.com/Extensibility/1.0/">
	<!ENTITY ns_ai "http://ns.adobe.com/AdobeIllustrator/10.0/">
	<!ENTITY ns_graphs "http://ns.adobe.com/Graphs/1.0/">
	<!ENTITY ns_vars "http://ns.adobe.com/Variables/1.0/">
	<!ENTITY ns_imrep "http://ns.adobe.com/ImageReplacement/1.0/">
	<!ENTITY ns_sfw "http://ns.adobe.com/SaveForWeb/1.0/">
	<!ENTITY ns_custom "http://ns.adobe.com/GenericCustomNamespace/1.0/">
	<!ENTITY ns_adobe_xpath "http://ns.adobe.com/XPath/1.0/">
]>
<svg version="1.1" id="Layer_1" xmlns:x="&ns_extend;" xmlns:i="&ns_ai;" xmlns:graph="&ns_graphs;"
	 xmlns="http://www.w3.org/2000/svg" xmlns:xlink="http://www.w3.org/1999/xlink" x="0px" y="0px" viewBox="0 0 246.2 246.2"
	 style="enable-background:new 0 0 246.2 246.2;" xml:space="preserve">
<style type="text/css">
	.st0{display:none;}
	.st1{fill:#FFFFFF;}
	.st2{fill:url(#SVGID_1_);}
	.st3{fill:url(#SVGID_2_);}
	.st4{fill-rule:evenodd;clip-rule:evenodd;fill:#FFFFFF;}
</style>
<metadata>
	<sfw  xmlns="&ns_sfw;">
		<slices></slices>
		<sliceSourceBounds  bottomLeftOrigin="true" height="245.7" width="245.7" x="0.5" y="0"></sliceSourceBounds>
	</sfw>
</metadata>
<g id="Layer_2_1_" class="st0">
</g>
<path class="st1" d="M204.6,246.2H42.1c-22.9,0-41.6-18.7-41.6-41.6V42.1c0-22.9,18.7-41.6,41.6-41.6h162.6
	c22.9,0,41.6,18.7,41.6,41.6v162.6C246.2,227.5,227.5,246.2,204.6,246.2z"/>
<g>
	<g>
		<g>
			<g>
				<g id="XMLID_7_">
					<linearGradient id="SVGID_1_" gradientUnits="userSpaceOnUse" x1="37.4472" y1="116.3138" x2="198.6477" y2="116.3138">
						<stop  offset="0" style="stop-color:#ED1E79"/>
						<stop  offset="0.573" style="stop-color:#9D2787"/>
						<stop  offset="1" style="stop-color:#662D91"/>
					</linearGradient>
					<path class="st2" d="M198.6,116.8c-0.4,44.7-36.7,80.6-81.1,80.4c-22.1-0.2-41.8-9.1-56.2-23.5c-14.9-14.9-24-35.4-23.8-58
						c0.4-44.7,36.7-80.8,81.1-80.4S198.8,72,198.6,116.8z"/>
				</g>
				<g>
					<path class="st1" d="M79.4,143.7l-17.8,30.4c0,0,5.9,17.6,27.9,18l10.3-27.9l6.9-18.7l7.1-20.6l2.5-6.8l0.4-0.7
						c0,0,0.2-0.2,0.2-0.4l0.2-0.2l0,0h0.2h0.2l0.2,0.2l0.4,0.5l0.7,2l1.4,3.9l4.8,14.8l4.3,13.2l6.6,20.1l5.2,14.1l4.5,14.5
						c0,0,14.6-11.2,28.5-25l-10.1-15.3l-6.6-11.2l-6.6-13l-5.5-11.4l-4.3-10.3l-3.6-10.3l-3.4-10l-3.6-11.4l-3.6-11.9l-3.2-11.7
						L120,45.3l-2-6.4l-3.9,12.5l-5.3,17.4l-4.3,13.3l-5,14.8L95.3,109l-4.6,11.7L85.5,132L79.4,143.7z"/>
				</g>
			</g>
		</g>
	</g>
	<path class="st1" d="M211.7,173c0,25.7-20.8,46.4-46.4,46.4s-47.5-19.8-47.5-45.4s21.8-47.5,47.5-47.5S211.7,147.4,211.7,173z"/>
	<g>
		<linearGradient id="SVGID_2_" gradientUnits="userSpaceOnUse" x1="125.6513" y1="173.0092" x2="203.8442" y2="173.0092">
			<stop  offset="0" style="stop-color:#ED1E79"/>
			<stop  offset="0.573" style="stop-color:#9D2787"/>
			<stop  offset="1" style="stop-color:#662D91"/>
		</linearGradient>
		<path class="st3" d="M164.7,133.9c-21.5,0-39.1,17.5-39.1,39.1c0,21.5,17.5,39.1,39.1,39.1s39.1-17.5,39.1-39.1
			C203.8,151.4,186.3,133.9,164.7,133.9z"/>
	</g>
</g>
<g>
	<path class="st4" d="M166.2,171.7l-0.9,2.3c1.5,1.3,2.8,3,3.8,4.9l2.4-0.4c2.3-0.4,3.6,8.8,1.3,9.2l-2.4,0.2
		c-0.2,2.1-1.1,4.1-2.3,5.8l1.7,1.9c1.3,1.7-6,7.5-7.3,5.8l-1.5-2.1c-1.9,0.8-4,1.1-6,0.9l-0.9,2.3c-0.8,2.1-9.4-1.3-8.7-3.4
		l0.9-2.3c-1.7-1.3-3-3-3.8-4.7l-2.4,0.4c-2.3,0.2-3.6-8.8-1.5-9.2l2.4-0.4c0.4-2.1,1.1-4,2.3-5.6l-1.5-2.1
		c-1.3-1.7,5.8-7.5,7.3-5.6l1.5,1.9c1.9-0.8,4-1.1,6-0.9l0.9-2.3C158.2,166.3,166.9,169.7,166.2,171.7z M164.1,147.8l-0.6,1.3
		c0.9,0.9,1.7,1.9,2.3,3l1.5-0.2c1.5-0.2,2.3,5.5,0.9,5.6l-1.5,0.4c-0.2,1.1-0.8,2.4-1.3,3.4l0.9,1.3c0.8,1.1-3.8,4.7-4.5,3.6
		l-0.9-1.1c-1.3,0.4-2.4,0.6-3.8,0.6l-0.6,1.3c-0.6,1.3-6-0.8-5.5-2.1l0.6-1.3c-0.9-0.9-1.9-1.9-2.4-3l-1.5,0.2
		c-1.3,0.2-2.3-5.5-0.8-5.6l1.5-0.4c0.2-1.1,0.6-2.4,1.3-3.4l-0.9-1.3c-0.9-1.1,3.6-4.7,4.5-3.6l0.9,1.1c1.1-0.4,2.4-0.6,3.8-0.6
		l0.6-1.3C159.2,144.4,164.5,146.5,164.1,147.8z M159.4,151.8c2.4,1.1,3.8,4,2.6,6.4c-0.9,2.4-3.8,3.8-6.2,2.8
		c-2.4-1.1-3.8-4-2.8-6.4C153.9,152.2,156.7,150.8,159.4,151.8z M187.8,154.6l-0.2,1.9c1.5,0.8,3,1.7,4,3l1.9-0.8
		c1.7-0.8,4.7,6.2,3,7l-1.7,0.8c0,1.7-0.2,3.4-0.6,5.1l1.5,1.1c1.5,1.1-3,7.2-4.5,6.2l-1.7-1.3c-1.3,0.9-2.8,1.7-4.5,2.1l-0.2,1.9
		c-0.2,1.9-7.9,1.1-7.5-0.8l0.2-2.1c-1.5-0.8-3-1.7-4.1-3l-1.7,0.9c-1.7,0.8-4.9-6.4-3.2-7.2l1.9-0.8c-0.2-1.7,0-3.4,0.6-4.9
		l-1.5-1.3c-1.5-0.9,3-7.2,4.5-6l1.5,1.1c1.5-0.9,3-1.7,4.7-1.9l0.2-2.1C180.5,151.8,188,152.7,187.8,154.6z M183.3,161.4
		c3.4,0.4,6,3.4,5.6,7c-0.6,3.6-3.6,6-7.2,5.6c-3.6-0.4-6-3.6-5.6-7.2C176.5,163.5,179.7,160.8,183.3,161.4z M158.4,178.3
		c4.1,1.5,6,6,4.5,10c-1.7,4.1-6.2,6-10.2,4.5c-4-1.7-6-6.2-4.3-10.2C150,178.7,154.5,176.6,158.4,178.3z"/>
</g>
</svg>
