<?xml version="1.0" encoding="utf-8"?>
<!-- Generator: Adobe Illustrator 24.2.1, SVG Export Plug-In . SVG Version: 6.00 Build 0)  -->
<!DOCTYPE svg PUBLIC "-//W3C//DTD SVG 1.1//EN" "http://www.w3.org/Graphics/SVG/1.1/DTD/svg11.dtd" [
	<!ENTITY ns_extend "http://ns.adobe.com/Extensibility/1.0/">
	<!ENTITY ns_ai "http://ns.adobe.com/AdobeIllustrator/10.0/">
	<!ENTITY ns_graphs "http://ns.adobe.com/Graphs/1.0/">
	<!ENTITY ns_vars "http://ns.adobe.com/Variables/1.0/">
	<!ENTITY ns_imrep "http://ns.adobe.com/ImageReplacement/1.0/">
	<!ENTITY ns_sfw "http://ns.adobe.com/SaveForWeb/1.0/">
	<!ENTITY ns_custom "http://ns.adobe.com/GenericCustomNamespace/1.0/">
	<!ENTITY ns_adobe_xpath "http://ns.adobe.com/XPath/1.0/">
]>
<svg version="1.1"
	 id="Layer_1" xmlns:x="&ns_extend;" xmlns:i="&ns_ai;" xmlns:graph="&ns_graphs;" xmlns:serif="http://www.serif.com/"
	 xmlns="http://www.w3.org/2000/svg" xmlns:xlink="http://www.w3.org/1999/xlink" x="0px" y="0px" viewBox="0 0 24 24"
	 style="enable-background:new 0 0 24 24;" xml:space="preserve">
<style type="text/css">
	.st0{fill-rule:evenodd;clip-rule:evenodd;fill:#FFFFFF;}
</style>
<metadata>
	<sfw  xmlns="&ns_sfw;">
		<slices></slices>
		<sliceSourceBounds  bottomLeftOrigin="true" height="20" width="24" x="0" y="1"></sliceSourceBounds>
	</sfw>
</metadata>
<path id="telegram-1" class="st0" d="M18.4,22.8c0.3,0.2,0.7,0.3,1.1,0.1c0.4-0.1,0.6-0.5,0.7-0.8c0.9-4.1,3-14.4,3.8-18.1
	c0.1-0.3,0-0.6-0.3-0.8C23.5,3,23.2,2.9,22.9,3C18.7,4.6,5.8,9.4,0.5,11.4C0.2,11.5,0,11.8,0,12.2c0,0.4,0.3,0.7,0.6,0.8
	c2.4,0.7,5.5,1.7,5.5,1.7s1.5,4.4,2.2,6.6c0.1,0.3,0.3,0.5,0.6,0.6c0.3,0.1,0.6,0,0.8-0.2c1.2-1.1,3.1-2.9,3.1-2.9
	S16.4,21.3,18.4,22.8z M7.4,14.1l1.7,5.5l0.4-3.5c0,0,6.5-5.9,10.2-9.2c0.1-0.1,0.1-0.3,0-0.4c-0.1-0.1-0.3-0.1-0.4-0.1
	C15,9.2,7.4,14.1,7.4,14.1z"/>
</svg>
