<svg id="eb0f5c2d-7cc4-45ee-b88d-c900c1bd315b" data-name="Layer 1" xmlns="http://www.w3.org/2000/svg" viewBox="0 0 131.36 443"><path d="M34.85,405h0a3.32,3.32,0,0,1,3.32,3.32v66.06a0,0,0,0,1,0,0H31.54a0,0,0,0,1,0,0V408.31A3.32,3.32,0,0,1,34.85,405Z" transform="translate(474.53 404.83) rotate(90)"/><rect y="2.11" width="6.92" height="440.89"/><path d="M35.57-29.26h0a3.32,3.32,0,0,1,3.32,3.32V40.11a0,0,0,0,1,0,0H32.25a0,0,0,0,1,0,0V-25.95a3.32,3.32,0,0,1,3.32-3.32Z" transform="translate(40.99 -30.15) rotate(90)"/><circle cx="86.29" cy="5.42" r="5.42"/><circle cx="106.11" cy="5.42" r="5.42"/><circle cx="125.94" cy="5.42" r="5.42"/></svg>