<?xml version="1.0" encoding="utf-8"?>
<!-- Generator: Adobe Illustrator 24.2.1, SVG Export Plug-In . SVG Version: 6.00 Build 0)  -->
<!DOCTYPE svg PUBLIC "-//W3C//DTD SVG 1.1//EN" "http://www.w3.org/Graphics/SVG/1.1/DTD/svg11.dtd" [
	<!ENTITY ns_extend "http://ns.adobe.com/Extensibility/1.0/">
	<!ENTITY ns_ai "http://ns.adobe.com/AdobeIllustrator/10.0/">
	<!ENTITY ns_graphs "http://ns.adobe.com/Graphs/1.0/">
	<!ENTITY ns_vars "http://ns.adobe.com/Variables/1.0/">
	<!ENTITY ns_imrep "http://ns.adobe.com/ImageReplacement/1.0/">
	<!ENTITY ns_sfw "http://ns.adobe.com/SaveForWeb/1.0/">
	<!ENTITY ns_custom "http://ns.adobe.com/GenericCustomNamespace/1.0/">
	<!ENTITY ns_adobe_xpath "http://ns.adobe.com/XPath/1.0/">
]>
<svg version="1.1" id="Layer_1" xmlns:x="&ns_extend;" xmlns:i="&ns_ai;" xmlns:graph="&ns_graphs;"
	 xmlns="http://www.w3.org/2000/svg" xmlns:xlink="http://www.w3.org/1999/xlink" x="0px" y="0px" viewBox="0 0 61.9 84.6"
	 style="enable-background:new 0 0 61.9 84.6;" xml:space="preserve">
<style type="text/css">
	.st0{fill:none;}
	.st1{fill:#FFFFFF;}
</style>
<metadata>
	<sfw  xmlns="&ns_sfw;">
		<slices></slices>
		<sliceSourceBounds  bottomLeftOrigin="true" height="84.6" width="61.9" x="17.7" y="31.7"></sliceSourceBounds>
	</sfw>
</metadata>
<g>
	<path class="st0" d="M37.5,42.2c-1.7,0-3,1.4-3,3.1c0,1.1,0.6,2.1,1.5,2.6v5.1c0,0.9,0.7,1.6,1.5,1.6c0.8,0,1.5-0.7,1.5-1.6v-5.1
		c0.9-0.5,1.5-1.5,1.5-2.6C40.6,43.6,39.2,42.2,37.5,42.2z"/>
	<path class="st0" d="M37.5,24.9c-4,0-7.3,3.4-7.3,7.5v5.7c2.4-0.5,4.8-0.8,7.3-0.8c2.5,0,4.9,0.3,7.3,0.8v0l-1-0.3l1,0.3v-5.7
		C44.8,28.2,41.5,24.9,37.5,24.9z"/>
	<path class="st1" d="M45.2,38.1c-2.4-0.5-4.8-0.8-7.3-0.8c-2.5,0-4.9,0.3-7.3,0.8v-5.7c0-4.1,3.3-7.5,7.3-7.5c2.4,0,4.6,1.2,6,3.2
		c0.4,0.6,0.6,1.2,0.9,1.8c0.3,0.7,0.6,1.7,1.4,1.9c0.7,0.2,1.6,0,2.1-0.6c0.8-0.9,0.4-2.1,0-3c-0.9-2-2.2-3.8-4-5.1
		c-1.9-1.4-4.1-2.1-6.4-2.1c-6.1,0-11.1,5.1-11.1,11.4v6.8c-0.6,0.2-1.1,0.4-1.7,0.6c-0.5,0.2-0.9,0.7-0.9,1.3v14.5
		c0,0.6,0.4,1.2,0.9,1.4c4.1,1.7,8.4,2.5,12.8,2.5c4.4,0,8.7-0.8,12.8-2.5c0.5-0.2,0.9-0.8,0.9-1.4c0,0,0-14.5,0-14.5
		c0-0.6-0.4-1.1-0.9-1.3c-0.2-0.1-0.5-0.2-0.7-0.3c-0.3-0.1-0.7-0.3-1-0.4l-2-0.6 M39.4,47.9v5.1c0,0.9-0.7,1.5-1.5,1.5
		c-0.8,0-1.5-0.7-1.5-1.5v-5.1c-0.9-0.5-1.5-1.5-1.5-2.6c0-1.7,1.4-3.1,3-3.1s3,1.4,3,3.1C41,46.4,40.3,47.4,39.4,47.9z"/>
</g>
<path d="M61.9,44.2c-0.1-1.2-1-2.4-2.1-2.8c-1.3-0.5-2.5-1-3.8-1.4V25c0-13.8-11.2-25-25-25c-13.8,0-25,11.2-25,25v14.9
	c-1.3,0.4-2.6,0.9-3.8,1.4C1,41.8,0.1,43,0,44.2h0v0.3v0.5V76c0,1.3,0.9,2.6,2.1,3.1c9.2,3.7,18.9,5.5,28.8,5.5
	c9.9,0,19.6-1.9,28.8-5.5c1.2-0.5,2.1-1.8,2.1-3.1V44.9v-0.5L61.9,44.2L61.9,44.2z M34.3,59.2v11.3c0,1.9-1.5,3.4-3.4,3.4
	c-1.9,0-3.4-1.5-3.4-3.4V59.2c-2-1.2-3.4-3.3-3.4-5.8c0-3.8,3.1-6.8,6.8-6.8c3.8,0,6.8,3,6.8,6.8C37.8,55.9,36.3,58,34.3,59.2z
	 M47.4,37.6c-5.4-1.2-10.9-1.7-16.4-1.7c-5.6,0-11,0.6-16.4,1.7V25c0-9.1,7.4-16.4,16.4-16.4C40,8.6,47.4,16,47.4,25V37.6z"/>
</svg>
