<?xml version="1.0" encoding="utf-8"?>
<!-- Generator: Adobe Illustrator 24.2.1, SVG Export Plug-In . SVG Version: 6.00 Build 0)  -->
<!DOCTYPE svg PUBLIC "-//W3C//DTD SVG 1.1//EN" "http://www.w3.org/Graphics/SVG/1.1/DTD/svg11.dtd" [
	<!ENTITY ns_extend "http://ns.adobe.com/Extensibility/1.0/">
	<!ENTITY ns_ai "http://ns.adobe.com/AdobeIllustrator/10.0/">
	<!ENTITY ns_graphs "http://ns.adobe.com/Graphs/1.0/">
	<!ENTITY ns_vars "http://ns.adobe.com/Variables/1.0/">
	<!ENTITY ns_imrep "http://ns.adobe.com/ImageReplacement/1.0/">
	<!ENTITY ns_sfw "http://ns.adobe.com/SaveForWeb/1.0/">
	<!ENTITY ns_custom "http://ns.adobe.com/GenericCustomNamespace/1.0/">
	<!ENTITY ns_adobe_xpath "http://ns.adobe.com/XPath/1.0/">
]>
<svg version="1.1" id="Layer_1" xmlns:x="&ns_extend;" xmlns:i="&ns_ai;" xmlns:graph="&ns_graphs;"
	 xmlns="http://www.w3.org/2000/svg" xmlns:xlink="http://www.w3.org/1999/xlink" x="0px" y="0px" viewBox="0 0 50 35.3"
	 style="enable-background:new 0 0 50 35.3;" xml:space="preserve">
<style type="text/css">
	.st0{display:none;fill:#FFFFFF;}
	.st1{fill:#FFFFFF;}
</style>
<metadata>
	<sfw  xmlns="&ns_sfw;">
		<slices></slices>
		<sliceSourceBounds  bottomLeftOrigin="true" height="50" width="50" x="0" y="-1.4"></sliceSourceBounds>
	</sfw>
</metadata>
<ellipse class="st0" cx="25" cy="11.7" rx="24.9" ry="25"/>
<path class="st0" d="M13.9,5.4c-0.1,0-0.3,0-0.4,0.1c-0.2,0.1-0.3,0.1-0.4,0.3c-0.2,0.2-0.3,0.5-0.3,0.8v8.3c0,0.6,0.5,1.2,1.2,1.2
	c0.6,0,1.2-0.5,1.2-1.2V9.4l8.3,8.3c0.2,0.2,0.5,0.3,0.8,0.3s0.6-0.1,0.8-0.3c0.5-0.5,0.5-1.2,0-1.7l-8.3-8.3h5.5
	c0.6,0,1.2-0.5,1.2-1.2S23,5.3,22.3,5.3L13.9,5.4C13.9,5.5,13.9,5.4,13.9,5.4L13.9,5.4z M27.8,5.5c-0.6,0-1.2,0.5-1.2,1.2
	c0,0.6,0.5,1.2,1.2,1.2h5.5L25,16.1c-0.5,0.5-0.5,1.2,0,1.7c0.2,0.2,0.5,0.3,0.8,0.3l0,0c0.3,0,0.6-0.1,0.8-0.3L35,9.4v5.5
	c0,0.6,0.5,1.2,1.2,1.2c0.6,0,1.2-0.5,1.2-1.2V6.7c0-0.3-0.1-0.6-0.3-0.9L37,5.7l0,0l0,0l0,0l0,0l0,0l0,0l0,0l0,0l0,0l0,0l0,0l0,0
	c-0.1-0.1-0.3-0.1-0.4-0.1L27.8,5.5L27.8,5.5z M24.2,17.3c-0.3,0-0.6,0.1-0.8,0.3L15,26v-5.5c0-0.6-0.5-1.2-1.2-1.2
	c-0.6,0-1.2,0.5-1.2,1.2v8.3c0,0.3,0.1,0.6,0.3,0.8c0.1,0.1,0.1,0.1,0.2,0.2l0,0l0,0l0,0l0,0l0,0l0,0l0,0l0,0l0,0l0,0l0,0l0,0l0,0
	l0,0l0,0l0,0l0,0l0,0l0,0l0,0l0,0c0,0,0,0,0.1,0h8.3c0.6,0,1.2-0.5,1.2-1.2c0-0.6-0.5-1.2-1.2-1.2H16l8.3-8.3
	C24.8,18.6,24.8,17.9,24.2,17.3C24.7,17.4,24.5,17.3,24.2,17.3L24.2,17.3z M25.8,17.2c-0.3,0-0.6,0.1-0.8,0.3
	c-0.5,0.5-0.5,1.2,0,1.7l8.3,8.3h-5.5c-0.6,0-1.2,0.5-1.2,1.2c0,0.6,0.5,1.2,1.2,1.2h8.3c0.2,0,0.3,0,0.5-0.1l0,0l0,0l0,0l0,0l0,0
	l0,0l0,0l0,0l0,0l0,0l0.1-0.1c0.2-0.2,0.3-0.5,0.3-0.8v-8.3c0-0.6-0.5-1.2-1.2-1.2c-0.6,0-1.2,0.5-1.2,1.2v5.5l-8.3-8.3
	C26.4,17.4,26.1,17.2,25.8,17.2L25.8,17.2z"/>
<g>
	<path class="st1" d="M50,3.7c0-0.7-0.2-1.3-0.5-1.9L33.7,17.5l15.8,15.8c0.3-0.5,0.5-1.2,0.5-1.8V3.7z"/>
	<path class="st1" d="M18.4,16.6c0.1,0,0.1,0.1,0.2,0.1l0.1,0.1l6.4,6.3L48,0.4c-0.5-0.3-1.1-0.5-1.8-0.5H3.8c-0.7,0-1.4,0.2-2,0.6
		L18.4,16.6z"/>
	<path class="st1" d="M32.2,18.9l-6.5,6.4c-0.2,0.2-0.5,0.3-0.7,0.3c-0.3,0-0.5-0.1-0.7-0.3l-6.5-6.4L2,34.8
		c0.5,0.3,1.2,0.5,1.8,0.5h42.4c0.7,0,1.3-0.2,1.8-0.5L32.2,18.9z"/>
	<path class="st1" d="M0.4,2C0.2,2.5,0,3.1,0,3.7v27.7c0,0.7,0.2,1.3,0.5,1.9l15.8-15.8L0.4,2z"/>
</g>
</svg>
