<?xml version="1.0" encoding="utf-8"?>
<!-- Generator: Adobe Illustrator 22.1.0, SVG Export Plug-In . SVG Version: 6.00 Build 0)  -->
<svg version="1.1" id="Layer_1" xmlns="http://www.w3.org/2000/svg" xmlns:xlink="http://www.w3.org/1999/xlink" x="0px" y="0px"
	 viewBox="0 0 81.6 81.5" style="enable-background:new 0 0 81.6 81.5;" xml:space="preserve">
<style type="text/css">
	.st0{fill:none;stroke:#000000;stroke-linecap:round;stroke-linejoin:round;stroke-miterlimit:10;}
	.st1{clip-path:url(#SVGID_2_);}
	.st2{fill:#FFFFFF;}
	.st3{clip-path:url(#SVGID_4_);}
</style>
<path class="st0" d="M15.7,60.6l-2.5,20L15.7,60.6z"/>
<path class="st0" d="M38.2,39.8c-1.6,0.9-3.2,1.5-5,1.5c-2.2,0-4.4-0.8-6.3-2.3v0.5c0,1.8-0.7,3.5-2,4.7c-0.6,0.6-1.4,1.1-2.2,1.4
	L4,53.4c-2.1,2.1-3.4,5-3.4,8.1v19.1h37.5V39.8z"/>
<path class="st0" d="M38.2,1.5c-1.6-0.6-3.2-0.9-5-0.9c-7.3,0-13.2,5.4-14.1,12.5v4.1c-1.8,0.7-3.2,2.4-3.2,4.5c0,4,2,7.3,4.6,7.4
	c2.3,7.2,7.1,12.2,12.7,12.2c1.8,0,3.4-0.5,5-1.4L38.2,1.5L38.2,1.5z"/>
<g>
	<defs>
		<rect id="SVGID_1_" x="38.7" y="34" width="43.8" height="48.3"/>
	</defs>
	<clipPath id="SVGID_2_">
		<use xlink:href="#SVGID_1_"  style="overflow:visible;"/>
	</clipPath>
	<g class="st1">
		<path class="st2" d="M50.4,36.4L34,62c0,0-1.3,2.1,1.3,3.4s12,8,12,8s2,2.3,4.5-2.3l15-23.2c0,0,2.2-2.4-2.8-4.5l-10.6-7.1
			C53.4,36.4,52.1,35.5,50.4,36.4z"/>
		<g>
			<path d="M60.1,73.5l-0.7,0.2c0.2,0.6,0.5,1,0.9,1.4l-0.2,0.4l0.3,0.2l0.2-0.4c0.4,0.2,0.7,0.3,1,0.2c0.3-0.1,0.6-0.2,0.8-0.5
				c0.2-0.3,0.2-0.6,0.2-0.9c-0.1-0.3-0.3-0.6-0.6-0.9l0,0l0.6-1c0.2,0.2,0.4,0.5,0.5,0.8l0.6-0.3c-0.2-0.4-0.5-0.8-0.8-1.1l0.2-0.3
				l-0.3-0.2l-0.2,0.3c-0.3-0.2-0.7-0.3-1-0.2c-0.3,0.1-0.6,0.2-0.8,0.5c-0.2,0.3-0.2,0.6-0.2,0.8c0.1,0.3,0.3,0.6,0.6,0.9l-0.6,1
				C60.4,74.3,60.2,74,60.1,73.5z M61.6,73.9c0.2,0.2,0.3,0.3,0.3,0.5c0,0.1,0,0.2-0.1,0.4c-0.1,0.1-0.2,0.2-0.3,0.2
				c-0.1,0-0.3,0-0.5-0.1L61.6,73.9L61.6,73.9z M61.5,72.5c0-0.1,0-0.2,0.1-0.3c0.1-0.1,0.2-0.2,0.3-0.2c0.1,0,0.3,0,0.4,0.1
				l-0.6,0.9C61.6,72.8,61.5,72.6,61.5,72.5z"/>
			<path d="M34.3,65.5L47.6,74c1.2,0.8,2.8,0.4,3.6-0.8c0.9-1.5-3,4.7,7.9-12.2l3.9,2.5l-0.3,2c0,0.2,0,0.3,0.2,0.4l4.2,2.7
				c0,0,0,0,0,0c0.2,0.1,0.5,0.1,0.6-0.1c0.1-0.1,0.1-0.2,0.1-0.3l0.3-2l1.8-1.2c0.1-0.1,0.2-0.2,0.2-0.4s-0.1-0.3-0.2-0.4l-4.2-2.7
				c-0.1-0.1-0.3-0.1-0.5,0l-1.7,1.2l-3.9-2.5c10.9-17,6.9-10.7,7.9-12.2c0.8-1.2,0.4-2.8-0.8-3.5l-13.3-8.5
				c-1.2-0.8-2.8-0.4-3.6,0.8c-3.4,5.3-12.8,20-16.2,25.2C32.8,63.1,33.1,64.7,34.3,65.5z M63.4,65.4l0.2-1.4l2.5,1.6l0.9,0.6
				l-0.2,1.4L63.4,65.4z M65.2,62.4l3.4,2.2l-1.2,0.8l-0.9-0.6l-2.5-1.6L65.2,62.4z M50.4,72.7c-0.5,0.8-1.6,1-2.4,0.5l-13.3-8.5
				c-0.8-0.5-1-1.6-0.5-2.4l0.6-0.9L51,71.8L50.4,72.7z M57.9,59.3c2.3-4,1.1-9.1-2.8-11.6c-4-2.6-9.4-1.4-12,2.6s-1.4,9.4,2.6,12
				c3.9,2.5,9.1,1.5,11.7-2.3l0.8,0.5l-6.8,10.6L35.3,60.7l14-21.8l16.1,10.4l-6.8,10.6L57.9,59.3z M55.9,58
				c1.6-2.9,0.7-6.5-2.1-8.3c-2.9-1.9-6.8-1-8.7,1.9c-1.9,2.9-1,6.8,1.9,8.7c2.8,1.8,6.5,1.1,8.4-1.5l1.3,0.8c-2.4,3.3-7,4.2-10.5,2
				c-3.6-2.3-4.7-7.2-2.3-10.8c2.3-3.6,7.2-4.7,10.8-2.3c3.5,2.2,4.6,6.8,2.6,10.4L55.9,58L55.9,58z M53.9,56.7
				c0.9-1.8,0.3-3.9-1.4-5c-1.8-1.2-4.2-0.6-5.4,1.2c-1.2,1.8-0.6,4.2,1.2,5.4c1.7,1.1,3.9,0.7,5.1-0.8l1.3,0.8
				c-1.7,2.2-4.9,2.8-7.2,1.3c-2.5-1.6-3.2-5-1.6-7.5c1.6-2.5,5-3.2,7.5-1.6c2.4,1.5,3.2,4.7,1.8,7.1L53.9,56.7L53.9,56.7z
				 M50.2,55.3l2.5,1.6c-1,1.1-2.6,1.4-3.9,0.6c-1.4-0.9-1.8-2.8-0.9-4.2c0.9-1.4,2.8-1.8,4.2-0.9c1.3,0.8,1.7,2.5,1.1,3.8l-2.5-1.6
				c-0.2-0.1-0.5-0.1-0.6,0.1C49.9,54.9,50,55.2,50.2,55.3z M50.4,37.2c0.5-0.8,1.6-1,2.4-0.5l13.3,8.5c0.8,0.5,1,1.6,0.5,2.4
				L66,48.5L49.8,38.1L50.4,37.2z"/>
			<path d="M62.9,44.3l-8-5.1c-0.2-0.1-0.5-0.1-0.6,0.1c-0.1,0.2-0.1,0.5,0.1,0.6l8,5.1c0.2,0.1,0.5,0.1,0.6-0.1
				C63.1,44.7,63.1,44.5,62.9,44.3z"/>
			<path d="M65.7,55.5l0.9,0.6l-2.3,1.7c-0.2,0.1-0.2,0.3-0.2,0.5c0.1,0.2,0.2,0.3,0.4,0.3l5.6-0.2l6.3,4c0.2,0.1,0.5,0.1,0.6-0.1
				l4.5-7c0.1-0.2,0.1-0.5-0.1-0.6l-10.7-6.9c-0.2-0.1-0.5-0.1-0.6,0.1l-4.5,7C65.4,55.1,65.5,55.4,65.7,55.5z M70.6,48.7l10,6.4
				l-4.1,6.3l-6-3.9c-0.1,0-0.2-0.1-0.2-0.1l-4.4,0.1l1.7-1.2c0.2-0.2,0.2-0.5,0-0.7L66.5,55L70.6,48.7z"/>
			<path d="M71.8,57.2c0,0.2,0.3,0.4,0.5,0.3l3.3-0.7c1-0.2,1.7-1.2,1.5-2.3c-0.2-1-1.2-1.7-2.2-1.5c-0.2-1-1.3-1.6-2.3-1.4
				c-1,0.2-1.7,1.2-1.5,2.3L71.8,57.2z M72.7,52.5c0.6-0.1,1.1,0.2,1.2,0.8l0.1,0.4c0,0.2,0.2,0.4,0.5,0.3l0.4-0.1
				c0.5-0.1,1.1,0.2,1.2,0.8c0.1,0.6-0.2,1.1-0.8,1.2l-2.8,0.6l-0.6-2.8C71.8,53.2,72.1,52.7,72.7,52.5z"/>
			<path d="M53.8,73.9l0.9,0.6l-2.3,1.7c-0.2,0.1-0.2,0.3-0.2,0.5c0.1,0.2,0.2,0.3,0.4,0.3l5.6-0.2l6.3,4c0.2,0.1,0.5,0.1,0.6-0.1
				l4.5-7c0.1-0.2,0.1-0.5-0.1-0.6l-10.7-6.9c-0.2-0.1-0.5-0.1-0.6,0.1l-4.5,7C53.6,73.5,53.6,73.8,53.8,73.9z M58.7,67.1l10,6.4
				l-4.1,6.3l-6-3.9c-0.1,0-0.2-0.1-0.2-0.1L54,76l1.7-1.2c0.2-0.2,0.2-0.5,0-0.7l-1.1-0.7L58.7,67.1z"/>
		</g>
	</g>
</g>
<g>
	<defs>
		<rect id="SVGID_3_" x="38.7" y="-2.1" width="46.3" height="45.8"/>
	</defs>
	<clipPath id="SVGID_4_">
		<use xlink:href="#SVGID_3_"  style="overflow:visible;"/>
	</clipPath>
	<g class="st3">
		<path class="st0" d="M61.8,34.2c-3-2.1-6.9-3.1-10.8-2.4c-3.6,0.6-7.5-0.1-10.8-2.4l0,0l0,0c-6.5-4.6-8.1-13.6-3.6-20.1l0,0
			c4.6-6.5,13.6-8.1,20.1-3.6l0,0l0,0C60,8,62,11.4,62.7,15.1c0.7,3.9,2.9,7.2,6,9.3C68.6,24.4,61.8,34.2,61.8,34.2z"/>
		<polygon class="st0" points="61.8,34.2 71.2,40.8 75,40.9 79.5,34.5 78.1,31 68.6,24.4 		"/>
		<path class="st0" d="M59.6,22.9c-0.9-0.7-2.2-0.4-2.9,0.5c-0.7,0.9-0.4,2.2,0.5,2.9l0,0L64,31l2.4-3.4L59.6,22.9L59.6,22.9z"/>
		<path class="st0" d="M56.5,25.2c-0.2-0.6-0.1-1.3,0.2-1.8c0.4-0.6,1-0.8,1.6-0.8l0,0l-6.4-10c-1.3,1.9-3.9,2.3-5.7,1l-2.4,3.4
			c1.9,1.3,2.3,3.9,1,5.7L56.5,25.2L56.5,25.2z"/>
	</g>
</g>
</svg>
