<?xml version="1.0" encoding="utf-8"?>
<!-- Generator: Adobe Illustrator 24.2.1, SVG Export Plug-In . SVG Version: 6.00 Build 0)  -->
<!DOCTYPE svg PUBLIC "-//W3C//DTD SVG 1.1//EN" "http://www.w3.org/Graphics/SVG/1.1/DTD/svg11.dtd" [
	<!ENTITY ns_extend "http://ns.adobe.com/Extensibility/1.0/">
	<!ENTITY ns_ai "http://ns.adobe.com/AdobeIllustrator/10.0/">
	<!ENTITY ns_graphs "http://ns.adobe.com/Graphs/1.0/">
	<!ENTITY ns_vars "http://ns.adobe.com/Variables/1.0/">
	<!ENTITY ns_imrep "http://ns.adobe.com/ImageReplacement/1.0/">
	<!ENTITY ns_sfw "http://ns.adobe.com/SaveForWeb/1.0/">
	<!ENTITY ns_custom "http://ns.adobe.com/GenericCustomNamespace/1.0/">
	<!ENTITY ns_adobe_xpath "http://ns.adobe.com/XPath/1.0/">
]>
<svg version="1.1" id="Layer_1" xmlns:x="&ns_extend;" xmlns:i="&ns_ai;" xmlns:graph="&ns_graphs;"
	 xmlns="http://www.w3.org/2000/svg" xmlns:xlink="http://www.w3.org/1999/xlink" x="0px" y="0px" viewBox="0 0 86 85.3"
	 style="enable-background:new 0 0 86 85.3;" xml:space="preserve">
<style type="text/css">
	.st0{fill:#FFFFFF;}
</style>
<metadata>
	<sfw  xmlns="&ns_sfw;">
		<slices></slices>
		<sliceSourceBounds  bottomLeftOrigin="true" height="85.3" width="86" x="7" y="32.4"></sliceSourceBounds>
	</sfw>
</metadata>
<g>
	<path d="M11.4,22.6H5c-1,1.9-1.9,3.9-2.6,6h6.8C9.7,26.6,10.5,24.5,11.4,22.6z"/>
	<path d="M15.5,15.6H9.8v-0.2c-1.3,1.6-2.6,3.4-3.7,5.2h6.4C13.4,18.9,14.4,17.2,15.5,15.6z"/>
	<path d="M7.4,48.6h-7c0.3,2,0.7,4.1,1.3,6h6.8C8,52.7,7.6,50.7,7.4,48.6z"/>
	<path d="M7,42.6c0-1,0-2,0.1-3h-7c-0.1,1-0.1,2-0.1,3c0,1.3,0.1,2.7,0.2,4h7C7.1,45.3,7,44,7,42.6z"/>
	<path d="M30.3,2.8c2.3-1.2,4.7-2.1,7.2-2.8c-3.5,0.5-6.9,1.4-10.1,2.6h3V2.8z"/>
	<path d="M20.7,9.6h-5.2c-1.5,1.2-2.9,2.6-4.2,4h5.8C18.2,12.2,19.4,10.9,20.7,9.6z"/>
	<path d="M22.8,7.8c1.4-1.2,2.8-2.2,4.3-3.2h-3.8V4.5c-1.8,0.9-3.5,2-5.2,3.2h4.7V7.8z"/>
	<path d="M8.5,30.6H1.7c-0.7,2.3-1.1,4.6-1.4,7h7C7.5,35.2,7.9,32.9,8.5,30.6z"/>
	<path d="M30.5,82.6h-3.2c3.2,1.3,6.6,2.2,10.1,2.6C35,84.6,32.7,83.7,30.5,82.6L30.5,82.6z"/>
	<path d="M18.1,77.6c1.5,1.1,3.2,2.1,4.9,3h4.2c-1.4-0.9-2.8-1.9-4.1-3H18.1z"/>
	<path d="M56.4,1.8c-2.8-0.7-5.8-1.1-8.9-1.1C26.3,0.6,9,19.5,9,42.6s17.3,42,38.5,42c3,0,6-0.4,8.9-1.1C73.5,77.9,86,61.7,86,42.6
		C86,23.6,73.5,7.4,56.4,1.8z"/>
	<path d="M9.1,56.6H2.3c0.7,2.1,1.6,4.1,2.6,6h6.5C10.5,60.7,9.7,58.7,9.1,56.6z"/>
	<path d="M12.4,64.6H6.1c1,1.8,2.2,3.4,3.5,5h6C14.4,68,13.4,66.4,12.4,64.6z"/>
	<path d="M17.1,71.6h-5.8c1.3,1.4,2.7,2.8,4.2,4v0h5.2C19.4,74.4,18.2,73,17.1,71.6z"/>
</g>
<g>
	<path class="st0" d="M44.4,33.1v16.5h-4.3l0-11.2l-1.7,11.2h-3.1l-1.8-10.9l0,10.9h-4.3V33.1h6.4c0.2,1,0.4,2.2,0.6,3.5l0.7,4.2
		l1.1-7.7H44.4z"/>
	<path class="st0" d="M54.9,33.1l2.8,16.5h-5l-0.3-3h-1.8l-0.3,3h-5.1l2.5-16.5H54.9z M52.3,43.7c-0.3-1.9-0.5-4.2-0.8-6.9
		c-0.5,3.2-0.8,5.5-0.9,6.9H52.3z"/>
	<path class="st0" d="M69.2,33.1l-1.7,7.3l2.6,9.2h-4.6c-0.5-1.6-1-3.7-1.5-6c-0.1,1-0.3,2.2-0.5,3.3L63,49.6h-4.8l1.8-9.2l-1.8-7.3
		H63c0.1,0.5,0.3,1.2,0.5,2.3c0.2,0.8,0.4,1.6,0.5,2.2l1.1-4.5H69.2z"/>
</g>
</svg>
