<?xml version="1.0" encoding="utf-8"?>
<!-- Generator: Adobe Illustrator 24.2.1, SVG Export Plug-In . SVG Version: 6.00 Build 0)  -->
<!DOCTYPE svg PUBLIC "-//W3C//DTD SVG 1.1//EN" "http://www.w3.org/Graphics/SVG/1.1/DTD/svg11.dtd" [
	<!ENTITY ns_extend "http://ns.adobe.com/Extensibility/1.0/">
	<!ENTITY ns_ai "http://ns.adobe.com/AdobeIllustrator/10.0/">
	<!ENTITY ns_graphs "http://ns.adobe.com/Graphs/1.0/">
	<!ENTITY ns_vars "http://ns.adobe.com/Variables/1.0/">
	<!ENTITY ns_imrep "http://ns.adobe.com/ImageReplacement/1.0/">
	<!ENTITY ns_sfw "http://ns.adobe.com/SaveForWeb/1.0/">
	<!ENTITY ns_custom "http://ns.adobe.com/GenericCustomNamespace/1.0/">
	<!ENTITY ns_adobe_xpath "http://ns.adobe.com/XPath/1.0/">
]>
<svg version="1.1" id="primary_Logo" xmlns:x="&ns_extend;" xmlns:i="&ns_ai;" xmlns:graph="&ns_graphs;"
	 xmlns="http://www.w3.org/2000/svg" xmlns:xlink="http://www.w3.org/1999/xlink" x="0px" y="0px" viewBox="0 0 2500 2152"
	 style="enable-background:new 0 0 2500 2152;" xml:space="preserve">
<style type="text/css">
	.st0{fill:#EFEFEF;}
	.st1{fill:#E2E2E2;}
	.st2{fill:#D0D2D3;}
	.st3{fill:#FFFFFF;}
</style>
<metadata>
	<sfw  xmlns="&ns_sfw;">
		<slices></slices>
		<sliceSourceBounds  bottomLeftOrigin="true" height="2151.8" width="2500" x="0" y="-0.2"></sliceSourceBounds>
	</sfw>
</metadata>
<g id="XMLID_98_">
	<g id="XMLID_99_">
		<path id="XMLID_103_" class="st0" d="M1689.9,2.7c-12.9-6-23.2,0-23.2,14.6v1744.9l764.5,381.8c37.8,18.9,68.8,0,68.8-43V421.5
			c0-8.6-4.3-16.3-12-19.8L1689.9,2.7z"/>
		<path id="XMLID_102_" class="st1" d="M833.3,1346L1652.9,13.9c7.7-12,24.1-17.2,37-10.3l792.1,395.6c9.5,5.2,13.8,17.2,7.7,26.7
			l-823,1336.4L833.3,1346z"/>
		<path id="XMLID_101_" class="st2" d="M92,38c-50.7-25.8-67.9-6.9-37.8,42.1L833.3,1346l833.3,417.1L838.5,417.2
			c-3.4-6-8.6-10.3-14.6-13.8L92,38z"/>
		<path id="XMLID_100_" class="st3" d="M833.3,2102c0,42.1-31,61.9-68.8,43L46.4,1785.5C20.6,1772.6,0,1739.1,0,1710.7V43.1
			C0,14.8,20.6,1.9,46.4,14.8L823,403.5c6,3.4,10.3,9.5,10.3,16.3V2102L833.3,2102z"/>
	</g>
</g>
</svg>
