<?xml version="1.0" encoding="utf-8"?>
<!-- Generator: Adobe Illustrator 22.1.0, SVG Export Plug-In . SVG Version: 6.00 Build 0)  -->
<svg version="1.1" id="Layer_1" xmlns="http://www.w3.org/2000/svg" xmlns:xlink="http://www.w3.org/1999/xlink" x="0px" y="0px"
	 viewBox="0 0 90 90" style="enable-background:new 0 0 90 90;" xml:space="preserve">
<style type="text/css">
	.st0{fill:#010101;}
</style>
<g>
	<g>
		<path d="M45,2.1C21.3,2.1,2.1,21.4,2.1,45S21.3,87.9,45,87.9S87.9,68.7,87.9,45S68.7,2.1,45,2.1 M45,90C20.2,90,0,69.8,0,45
			S20.2,0,45,0s45,20.2,45,45S69.8,90,45,90"/>
	</g>
</g>
<g>
	<g>
		<path class="st0" d="M77,49l-5.1-0.7c-0.5-2.2-1.3-4.2-2.5-6.1l3-4c0.3-0.4,0.3-1.1-0.1-1.5L68.7,33c-0.4-0.4-1.1-0.5-1.6-0.1
			l-3.9,3c-1.9-1.2-3.9-2-6-2.5l-0.7-5.1c-0.1-0.5-0.5-0.9-1-0.9h-5.4c-0.5,0-0.9,0.4-1,0.9l-0.7,5.1c-2.2,0.5-4.2,1.3-6,2.5
			l-4.1-3.1c-0.4-0.3-1-0.3-1.3,0.1l-3.8,4c-0.4,0.4-0.4,0.9-0.1,1.3l3.1,4.1c-1.2,1.9-2,3.9-2.5,6.1l-1.3,0.2v-17h6
			c0.4,0,0.7-0.2,0.9-0.5c0.2-0.3,0.1-0.7-0.1-1L26.5,12.3c-0.4-0.5-1.2-0.5-1.6,0L12.1,30c-0.2,0.3-0.3,0.7-0.1,1s0.5,0.5,0.9,0.5
			h6v30.2c0,0.6,0.4,1,1,1h11.6c0.6,0,1-0.4,1-1v-4.8l1.3,0.2c0.5,2.2,1.3,4.2,2.5,6.1l-3.1,4.1c-0.3,0.4-0.3,1,0.1,1.3l3.8,3.9
			c0.4,0.4,0.9,0.4,1.3,0.1l4.1-3.1c1.9,1.2,3.9,2,6,2.5l0.7,5.1c0.1,0.5,0.5,0.9,1,0.9h5.4c0.5,0,0.9-0.4,1-0.9l0.7-5.1
			c2.2-0.5,4.2-1.3,6-2.5l4,3.1c0.2,0.1,0.4,0.2,0.7,0.2c0.3,0,0.6-0.1,0.8-0.3l3.8-3.8c0.4-0.4,0.4-0.9,0.1-1.3l-3.1-4.1
			c1.2-1.9,2-3.9,2.5-6.1l5.1-0.7c0.5-0.1,0.9-0.5,0.9-1V50C77.9,49.5,77.5,49.1,77,49z M30.4,60.7h-9.5V30.6c0-0.6-0.4-1-1-1h-5
			l10.8-15l10.8,15h-5c-0.6,0-1,0.4-1,1v18.2L28.7,49c-0.5,0.1-0.9,0.5-0.9,1v5.5c0,0.5,0.4,0.9,0.9,1l1.8,0.2v4H30.4z M75.9,54.6
			L71,55.3c-0.4,0.1-0.8,0.4-0.8,0.8c-0.5,2.4-1.4,4.6-2.7,6.6c-0.2,0.4-0.2,0.8,0,1.2l3,3.9l-2.6,2.6l-3.9-3
			c-0.3-0.3-0.8-0.3-1.2,0c-2,1.4-4.2,2.3-6.6,2.7c-0.4,0.1-0.7,0.4-0.8,0.9l-0.7,4.9H51L50.3,71c-0.1-0.4-0.4-0.8-0.8-0.9
			c-2.4-0.5-4.6-1.4-6.6-2.7c-0.4-0.2-0.8-0.2-1.2,0l-3.9,3l-2.6-2.6l3-3.9c0.3-0.4,0.3-0.9,0-1.3c-1.3-2-2.2-4.2-2.7-6.6
			c-0.1-0.4-0.4-0.7-0.8-0.8l-4.9-0.7v-3.6l4.9-0.7c0.4-0.1,0.8-0.4,0.8-0.8c0.5-2.4,1.4-4.6,2.7-6.6c0.2-0.4,0.2-0.8,0-1.2l-3-3.9
			l2.6-2.6l3.9,3c0.2,0.2,0.4,0.2,0.7,0.2c0.2,0,0.5-0.1,0.6-0.2c2-1.3,4.2-2.3,6.6-2.7c0.4-0.1,0.7-0.4,0.8-0.9l0.7-4.9h3.7
			l0.7,4.9c0.1,0.4,0.4,0.8,0.8,0.9c2.4,0.5,4.6,1.4,6.6,2.7c0.4,0.2,0.8,0.2,1.2,0l3.9-3l2.6,2.6l-3,3.9c-0.3,0.3-0.3,0.8,0,1.2
			c1.4,2,2.3,4.2,2.7,6.6c0.1,0.4,0.4,0.7,0.8,0.8l4.8,0.7V54.6z"/>
	</g>
	<g>
		<path class="st0" d="M52.8,38.3c-8,0-14.4,6.5-14.4,14.5s6.5,14.5,14.4,14.5s14.4-6.5,14.4-14.5C67.3,44.8,60.8,38.3,52.8,38.3z
			 M44.9,62.3c0.6-3.1,3.3-5.4,6.5-5.4h3c3.2,0,5.9,2.3,6.5,5.4c-2.2,1.8-4.9,2.9-8,2.9S47,64.1,44.9,62.3z M52.8,53.9
			c-2.6,0-4.7-2.1-4.7-4.7s2.1-4.7,4.7-4.7c2.6,0,4.7,2.1,4.7,4.7S55.4,53.9,52.8,53.9z M62.4,60.7c-1-2.9-3.4-5-6.4-5.6
			c2.1-1.1,3.5-3.4,3.5-5.9c0-3.7-3-6.7-6.7-6.7s-6.7,3-6.7,6.7c0,2.6,1.4,4.8,3.5,5.9c-3,0.6-5.4,2.7-6.4,5.6
			c-1.8-2.2-2.8-4.9-2.8-7.9c0-6.9,5.6-12.5,12.4-12.5c6.9,0,12.4,5.6,12.4,12.5C65.3,55.7,64.2,58.5,62.4,60.7z"/>
	</g>
</g>
</svg>
