<?xml version="1.0" encoding="utf-8"?>
<!-- Generator: Adobe Illustrator 23.0.1, SVG Export Plug-In . SVG Version: 6.00 Build 0)  -->
<svg version="1.1" id="Layer_1" xmlns="http://www.w3.org/2000/svg" xmlns:xlink="http://www.w3.org/1999/xlink" x="0px" y="0px"
	 viewBox="0 0 844.2 255" style="enable-background:new 0 0 844.2 255;" xml:space="preserve">
<style type="text/css">
	.st0{fill:#EC1C24;}
	.st1{fill:#231F20;}
	.st2{fill:#333333;}
	.st3{fill:#010101;}
	.st4{fill:#FFFFFF;}
</style>
<g>
	<g>
		<g>
			<g>
				<rect x="825.1" y="175.2" class="st0" width="16.7" height="3.2"/>
			</g>
			<g>
				<path class="st0" d="M791.2,178.8h-33.5v-3.6h33.5V178.8z M723.9,178.8h-33.5v-3.6h33.5V178.8z M657,178.8h-33.5v-3.6H657V178.8
					z M589.7,178.8h-33.9v-3.6h33.5v3.6H589.7z M522.4,178.8H489v-3.6h33.5L522.4,178.8L522.4,178.8z M455.1,178.8h-33.5v-3.6h33.5
					V178.8z M387.8,178.8h-33.5v-3.6h33.5V178.8z M320.9,178.8h-33.5v-3.6h33.5V178.8z"/>
			</g>
			<g>
				<rect x="236.5" y="175.2" class="st0" width="16.7" height="3.2"/>
			</g>
		</g>
		<g>
			<g>
				<rect x="839.4" y="168.5" class="st1" width="4.8" height="16.7"/>
			</g>
			<g>
				<g>
					<rect x="835.8" y="176.4" class="st0" width="8.4" height="10.4"/>
				</g>
				<g>
					<rect x="835.8" y="166.9" class="st0" width="8.4" height="10"/>
				</g>
			</g>
		</g>
		<g>
			<g>
				<rect x="238.1" y="168.5" class="st1" width="4.8" height="16.7"/>
			</g>
			<g>
				<g>
					<rect x="236.5" y="176.8" class="st0" width="6.8" height="10"/>
				</g>
				<g>
					<rect x="236.5" y="166.9" class="st0" width="6.8" height="10"/>
				</g>
			</g>
		</g>
	</g>
	<g>
		<g>
			<g>
				<rect x="170" y="4" class="st0" width="3.2" height="16.7"/>
			</g>
			<g>
				<rect x="170" y="45.8" class="st0" width="3.2" height="25.5"/>
			</g>
			<g>
				<rect x="170" y="96.8" class="st0" width="3.2" height="16.7"/>
			</g>
		</g>
		<g>
			<g>
				<rect x="163.2" y="3.2" class="st1" width="16.7" height="0.8"/>
			</g>
			<g>
				<g>
					<rect x="171.6" y="0" class="st0" width="10" height="4.4"/>
				</g>
				<g>
					<rect x="161.6" y="0" class="st0" width="10" height="4.4"/>
				</g>
			</g>
		</g>
		<g>
			<g>
				<rect x="163.2" y="112.3" class="st1" width="16.7" height="0.8"/>
			</g>
			<g>
				<g>
					<rect x="171.6" y="112.3" class="st0" width="10" height="4"/>
				</g>
				<g>
					<rect x="161.6" y="112.3" class="st0" width="10" height="4"/>
				</g>
			</g>
		</g>
	</g>
</g>
<g>
	<path class="st2" d="M20,68.1v3.2H1.9v-3.2h7.3V45c0-0.7,0-1.4,0.1-2.1l-6,5.2c-0.2,0.2-0.4,0.3-0.6,0.3c-0.2,0-0.4,0-0.6,0
		c-0.2,0-0.3-0.1-0.5-0.2c-0.1-0.1-0.3-0.2-0.3-0.3L0,46.1l10.1-8.7h3.4v30.7C13.5,68.1,20,68.1,20,68.1z"/>
	<path class="st2" d="M34.5,50.1c-0.3,0.4-0.6,0.7-0.9,1.1c-0.3,0.4-0.5,0.7-0.8,1.1c0.8-0.6,1.7-1,2.6-1.3c1-0.3,2-0.4,3.1-0.4
		c1.4,0,2.7,0.2,3.9,0.7c1.2,0.4,2.3,1.1,3.2,2s1.6,1.9,2.2,3.2c0.5,1.3,0.8,2.7,0.8,4.3s-0.3,3-0.9,4.3c-0.6,1.3-1.4,2.5-2.4,3.5
		s-2.2,1.8-3.7,2.3c-1.4,0.6-3,0.9-4.7,0.9s-3.2-0.3-4.6-0.8c-1.4-0.5-2.6-1.3-3.5-2.3s-1.7-2.2-2.2-3.6s-0.8-3-0.8-4.8
		c0-1.5,0.3-3.1,1-4.7s1.7-3.5,3.1-5.4l8.6-11.5c0.2-0.3,0.5-0.5,0.9-0.7s0.8-0.3,1.3-0.3h3.7L34.5,50.1z M37,68.2
		c1.1,0,2.2-0.2,3.1-0.5c0.9-0.4,1.7-0.9,2.4-1.5s1.2-1.4,1.5-2.3c0.4-0.9,0.5-1.8,0.5-2.9c0-1.1-0.2-2.1-0.5-3s-0.8-1.6-1.5-2.3
		c-0.6-0.6-1.4-1.1-2.3-1.4c-0.9-0.3-1.9-0.5-2.9-0.5c-1.1,0-2.2,0.2-3.1,0.6c-0.9,0.4-1.7,0.9-2.3,1.6c-0.6,0.7-1.1,1.4-1.5,2.3
		c-0.3,0.9-0.5,1.8-0.5,2.7c0,1.1,0.2,2.1,0.5,3s0.8,1.7,1.4,2.3c0.6,0.6,1.3,1.1,2.2,1.5C34.9,68,35.9,68.2,37,68.2z"/>
	<path class="st2" d="M70.2,51.1c1-1.2,2.2-2.2,3.5-3s2.8-1.1,4.5-1.1c1.4,0,2.6,0.3,3.8,0.8c1.1,0.5,2.1,1.3,2.9,2.3
		s1.4,2.3,1.8,3.8s0.6,3.3,0.6,5.3c0,1.8-0.2,3.4-0.7,4.9s-1.2,2.8-2,3.9s-2,2-3.3,2.6s-2.7,1-4.3,1c-1.5,0-2.7-0.2-3.8-0.7
		c-1-0.5-2-1.2-2.8-2.1v10.6h-4.2v-32h2.5c0.6,0,1,0.3,1.1,0.9L70.2,51.1z M70.4,65.5c0.8,1,1.6,1.8,2.5,2.2
		c0.9,0.4,1.9,0.6,3.1,0.6c2.2,0,4-0.8,5.1-2.4c1.2-1.6,1.8-3.9,1.8-6.8c0-1.6-0.1-2.9-0.4-4s-0.7-2-1.2-2.8
		c-0.5-0.7-1.2-1.2-1.9-1.6c-0.8-0.3-1.6-0.5-2.6-0.5c-1.4,0-2.6,0.3-3.6,0.9c-1,0.6-2,1.5-2.8,2.7V65.5z"/>
	<path class="st2" d="M111.3,71.3h-4c-0.3,0-0.6-0.1-0.8-0.3c-0.2-0.2-0.4-0.4-0.5-0.6l-6-9.4c-0.1,0.2-0.1,0.4-0.2,0.6
		c-0.1,0.2-0.2,0.4-0.3,0.6l-5.6,8.1c-0.2,0.2-0.3,0.4-0.5,0.6s-0.4,0.3-0.7,0.3h-3.8L97.3,59l-8.1-11.6h4c0.3,0,0.6,0.1,0.8,0.2
		c0.2,0.1,0.3,0.3,0.4,0.5l5.9,9c0.1-0.5,0.3-0.9,0.6-1.3l5.1-7.6c0.1-0.2,0.3-0.4,0.5-0.5s0.4-0.2,0.6-0.2h3.9l-8.1,11.4
		L111.3,71.3z"/>
</g>
<g>
	<path class="st2" d="M507.7,229c2.1,0.6,3.7,1.6,4.9,3c1.1,1.4,1.7,3.2,1.7,5.4c0,1.5-0.3,2.8-0.8,4s-1.3,2.2-2.3,3
		s-2.2,1.5-3.6,1.9s-2.9,0.7-4.6,0.7s-3.2-0.2-4.6-0.7s-2.6-1.1-3.6-1.9c-1-0.8-1.8-1.8-2.3-3s-0.8-2.5-0.8-4c0-2.2,0.6-4,1.7-5.4
		s2.8-2.4,4.9-3c-1.8-0.7-3.1-1.6-4-3s-1.4-2.9-1.4-4.7c0-1.2,0.2-2.4,0.7-3.5s1.2-2,2.1-2.8s2-1.4,3.2-1.9c1.3-0.5,2.6-0.7,4.2-0.7
		c1.5,0,2.9,0.2,4.2,0.7c1.3,0.5,2.3,1.1,3.2,1.9c0.9,0.8,1.6,1.7,2.1,2.8s0.7,2.3,0.7,3.5c0,1.8-0.5,3.4-1.4,4.7
		S509.5,228.4,507.7,229z M502.9,243.7c1.1,0,2.1-0.2,3-0.5s1.6-0.7,2.2-1.3s1.1-1.2,1.4-2s0.5-1.6,0.5-2.6c0-1.2-0.2-2.2-0.6-3
		s-0.9-1.5-1.6-2s-1.4-0.9-2.3-1.1c-0.8-0.2-1.7-0.4-2.7-0.4c-0.9,0-1.8,0.1-2.7,0.4c-0.8,0.2-1.6,0.6-2.3,1.1s-1.2,1.2-1.6,2
		s-0.6,1.8-0.6,3c0,0.9,0.2,1.8,0.5,2.6s0.8,1.4,1.4,2s1.3,1,2.2,1.3C500.8,243.5,501.8,243.7,502.9,243.7z M502.9,215.7
		c-1,0-1.9,0.1-2.7,0.4c-0.8,0.3-1.4,0.7-1.9,1.2s-0.9,1.1-1.2,1.8s-0.4,1.4-0.4,2.2s0.1,1.5,0.3,2.2c0.2,0.7,0.6,1.4,1.1,1.9
		s1.1,1,1.9,1.3s1.7,0.5,2.8,0.5c1.1,0,2-0.2,2.8-0.5s1.4-0.8,1.9-1.3s0.8-1.2,1.1-1.9c0.2-0.7,0.3-1.5,0.3-2.2
		c0-0.8-0.1-1.5-0.4-2.2s-0.6-1.3-1.2-1.8s-1.1-0.9-1.9-1.2C504.8,215.9,503.9,215.7,502.9,215.7z"/>
	<path class="st2" d="M533.1,233.2c0.3-0.5,0.7-0.9,1-1.3c0.3-0.4,0.6-0.8,0.8-1.2c-0.9,0.7-1.8,1.2-2.9,1.6
		c-1.1,0.4-2.2,0.5-3.4,0.5c-1.3,0-2.5-0.2-3.6-0.6c-1.1-0.4-2.1-1.1-3-1.9s-1.6-1.8-2.1-3s-0.8-2.6-0.8-4.1s0.3-2.9,0.8-4.2
		c0.6-1.3,1.3-2.4,2.3-3.4s2.2-1.7,3.5-2.3c1.4-0.6,2.9-0.8,4.5-0.8s3.1,0.3,4.4,0.8c1.3,0.5,2.5,1.3,3.4,2.2c0.9,1,1.7,2.1,2.2,3.4
		s0.8,2.8,0.8,4.4c0,1-0.1,1.9-0.3,2.8c-0.2,0.9-0.4,1.7-0.8,2.6c-0.3,0.8-0.8,1.7-1.2,2.5c-0.5,0.8-1,1.7-1.7,2.5l-8.2,11.9
		c-0.2,0.3-0.5,0.5-0.9,0.7s-0.8,0.3-1.3,0.3h-3.9L533.1,233.2z M523.3,222.8c0,1.1,0.2,2,0.5,2.9c0.3,0.8,0.7,1.6,1.3,2.1
		c0.6,0.6,1.3,1,2.1,1.3s1.8,0.4,2.8,0.4c1.1,0,2.1-0.2,3-0.6c0.9-0.4,1.6-0.9,2.2-1.5s1.1-1.3,1.4-2.1c0.3-0.8,0.5-1.6,0.5-2.5
		c0-1.1-0.2-2-0.5-2.9s-0.8-1.6-1.4-2.2c-0.6-0.6-1.3-1.1-2.1-1.4c-0.8-0.3-1.7-0.5-2.7-0.5s-2,0.2-2.8,0.5s-1.6,0.8-2.2,1.4
		c-0.6,0.6-1.1,1.3-1.4,2.1C523.4,220.9,523.3,221.8,523.3,222.8z"/>
	<path class="st2" d="M563.4,226.5c1-1.2,2.2-2.2,3.5-3s2.8-1.1,4.5-1.1c1.4,0,2.6,0.3,3.8,0.8s2.1,1.3,2.9,2.3s1.4,2.3,1.8,3.8
		c0.4,1.5,0.6,3.3,0.6,5.3c0,1.8-0.2,3.4-0.7,4.9s-1.2,2.8-2,3.9c-0.9,1.1-2,2-3.3,2.6s-2.7,1-4.3,1c-1.5,0-2.7-0.2-3.8-0.7
		c-1-0.5-2-1.2-2.8-2.1v10.6h-4.2v-32h2.5c0.6,0,1,0.3,1.1,0.9L563.4,226.5z M563.6,240.9c0.8,1,1.6,1.8,2.5,2.2s1.9,0.6,3.1,0.6
		c2.2,0,4-0.8,5.1-2.4c1.2-1.6,1.8-3.9,1.8-6.8c0-1.6-0.1-2.9-0.4-4c-0.3-1.1-0.7-2-1.2-2.8c-0.5-0.7-1.2-1.2-1.9-1.6
		c-0.8-0.3-1.6-0.5-2.6-0.5c-1.4,0-2.6,0.3-3.6,0.9c-1,0.6-2,1.5-2.8,2.7L563.6,240.9L563.6,240.9z"/>
	<path class="st2" d="M604.6,246.7h-4c-0.3,0-0.6-0.1-0.8-0.3s-0.4-0.4-0.5-0.6l-6-9.4c-0.1,0.2-0.1,0.4-0.2,0.6
		c-0.1,0.2-0.2,0.4-0.3,0.6l-5.6,8.1c-0.2,0.2-0.3,0.4-0.5,0.6c-0.2,0.2-0.4,0.3-0.7,0.3h-3.8l8.4-12.3l-8.1-11.6h4
		c0.3,0,0.6,0.1,0.8,0.2c0.2,0.1,0.3,0.3,0.4,0.5l5.9,9c0.1-0.5,0.3-0.9,0.6-1.3l5.1-7.6c0.1-0.2,0.3-0.4,0.5-0.5s0.4-0.2,0.6-0.2
		h3.9l-8.1,11.4L604.6,246.7z"/>
</g>
<g>
	<g>
		<path id="XMLID_1_" class="st3" d="M360.9,58.5c-0.2,29.2-24,53-53.2,52.8c-14.4,0-27.4-5.9-37-15.4c-9.7-9.7-15.6-23.2-15.6-38
			c0.2-29.4,24-53,53.2-52.8C337.5,5.3,360.9,29.3,360.9,58.5z"/>
		<path class="st4" d="M282.7,76.2l-11.8,19.9c0,0,4.7,6.5,18.3,11.8l6.7-18.3l4.5-12.2l4.7-13.6l1.6-4.5l0.2-0.4c0,0,0-0.2,0.2-0.2
			l0.2-0.2l0,0c0,0,0,0,0.2,0h0.2h0.2l0.2,0.4l0.4,1.2l0.8,2.6l3.2,9.7l2.8,8.5l4.3,13.2l3.2,9.3l1.8,5.1c0,0,10.8-3,19.7-12
			l-6.5-9.7l-4.3-7.3l-4.3-8.5l-3.7-7.5l-2.8-6.7l-2.4-6.7l-2.2-6.5L316,36l-2.2-7.9l-2-7.7l-2.2-8.5l-1.6-4.3l-2.4,8.1L302,27
			l-2.8,8.7l-3.2,9.7l-2.8,7.9l-3.2,7.7l-3.5,7.3L282.7,76.2z"/>
	</g>
	<g>
		<path class="st3" d="M435.8,46.5c-1.4-3.7-3.5-6.7-6.1-9.1c-2.6-2.6-5.7-4.7-9.3-6.1c-3.7-1.4-7.7-2.2-12.2-2.2h-21.5
			c-0.6,0-1,0.4-1,1v20.7c0,0.6,0.4,1,1,1H397c0.6,0,1-0.4,1-1V39.6c0-0.6,0.4-1,1-1h9.3c2.6,0,5.3,0.4,7.3,1.4
			c2.2,0.8,4.1,2.2,5.5,3.9c1.4,1.6,2.6,3.7,3.5,6.3c0.8,2.4,1.2,5.3,1.2,8.3c0,3-0.4,5.9-1.2,8.3c-0.8,2.4-2,4.5-3.5,6.3
			c-1.4,1.6-3.2,3-5.5,3.9c-2.2,0.8-4.7,1.4-7.3,1.4h-9.3c-0.6,0-1-0.4-1-1V66.2c0-0.6-0.4-1-1-1h-10.4c-0.6,0-1,0.4-1,1v20.1
			c0,0.6,0.4,1,1,1h21.5c4.5,0,8.5-0.8,12.2-2.2c3.7-1.4,6.9-3.5,9.3-6.1c2.6-2.6,4.7-5.7,6.1-9.1c1.4-3.7,2.2-7.5,2.2-11.8
			S437.2,50,435.8,46.5z"/>
		<path class="st3" d="M460,38.4h23.2c0.6,0,1-0.4,1-1v-7.5c0-0.6-0.4-1-1-1h-35.3c-0.6,0-1,0.4-1,1v56.5c0,0.6,0.4,1,1,1h35.3
			c0.6,0,1-0.4,1-1v-7.5c0-0.6-0.4-1-1-1H460c-0.6,0-1-0.4-1-1V63.4c0-0.6,0.4-1,1-1h17.7c0.6,0,1-0.4,1-1V54c0-0.6-0.4-1-1-1H460
			c-0.6,0-1-0.4-1-1V38.8C459.2,38.8,459.6,38.4,460,38.4z"/>
		<path class="st3" d="M542,29.1h-8.7c-0.6,0-1,0.4-1,1v32.5c0,0.8,0,1.8,0,2.6c0,1,0.2,2,0.2,3l-29.2-37.2c-0.4-0.4-0.6-0.8-0.8-1
			c-0.2-0.2-0.6-0.4-0.8-0.6c-0.2-0.2-0.6-0.2-1-0.2c-0.4,0-0.8,0-1.2,0h-5.5c-0.6,0-1,0.4-1,1v56c0,0.6,0.4,1,1,1h8.7
			c0.6,0,1-0.4,1-1V53.6c0-0.8,0-1.6,0-2.4c0-1,0-1.8-0.2-2.8l29,37c0.6,0.8,1.2,1.2,1.8,1.6c0.6,0.4,1.4,0.4,2.4,0.4h5.3
			c0.6,0,1-0.4,1-1V29.9C543,29.5,542.6,29.1,542,29.1z"/>
		<path class="st3" d="M595.6,29.1h-44.3c-0.6,0-1,0.4-1,1V38c0,0.6,0.4,1,1,1h15.2c0.6,0,1,0.4,1,1v46.7c0,0.6,0.4,1,1,1h10.2
			c0.6,0,1-0.4,1-1V39.6c0-0.6,0.4-1,1-1H596c0.6,0,1-0.4,1-1v-7.9C596.6,29.5,596.2,29.1,595.6,29.1z"/>
		<path class="st3" d="M648.6,86.1l-21.9-56.5c-0.2-0.4-0.4-0.6-0.8-0.6h-11c-0.4,0-0.8,0.2-0.8,0.6L592,86.1
			c-0.2,0.6,0.2,1.2,0.8,1.2h8.1c1,0,1.8-0.2,2.4-0.8c0.6-0.6,1.2-1.2,1.4-1.8l3.7-10.6c0.2-0.4,0.4-0.6,0.8-0.6h21.9
			c0.4,0,0.8,0.2,0.8,0.6l3.7,10.6c0.4,0.8,0.8,1.4,1.4,1.8c0.6,0.4,1.4,0.8,2.6,0.8h7.9C648.4,87.3,649,86.7,648.6,86.1z
			 M627.5,65.2h-14.6c-0.6,0-1-0.6-0.8-1.2l5.9-16.4c0.4-1,0.8-2,1.2-3.2c0-0.4,0.2-0.6,0.2-1c0.2-0.8,1.4-0.8,1.8,0
			c0,0.2,0.2,0.6,0.2,0.8c0.4,1.2,0.8,2.4,1.2,3.2l5.9,16.7C628.7,64.6,628.3,65.2,627.5,65.2z"/>
		<path class="st3" d="M698.4,78.2l-4.3-4.5c-0.4-0.4-1-0.8-1.6-0.8c-0.4,0-0.8,0-1,0.2c-0.4,0.2-0.6,0.4-1,0.6
			c-0.8,0.8-1.6,1.4-2.6,1.8c-0.8,0.6-1.8,1-2.6,1.2c-1,0.4-2,0.6-3,0.6c-1.2,0.2-2.4,0.2-3.7,0.2c-2.2,0-4.5-0.4-6.5-1.2
			c-2-0.8-3.9-2.2-5.3-3.9c-1.4-1.6-2.6-3.9-3.7-6.3c-0.8-2.4-1.2-5.3-1.2-8.3c0-3,0.4-5.9,1.2-8.3c0.8-2.4,2-4.5,3.5-6.1
			s3.2-3,5.3-3.9s4.3-1.4,6.7-1.4c2.2,0,4.1,0.2,5.5,0.6c1.4,0.4,2.6,1,3.7,1.6c1,0.6,1.8,1,2.4,1.4s1.2,0.6,2,0.6
			c0.6,0,1.2-0.2,1.4-0.4c0.4-0.2,0.6-0.6,1-1l3.7-4.9c0.2-0.4,0.2-1-0.2-1.2c-1-1-2-1.8-3.2-2.6c-1.4-1-2.8-1.8-4.7-2.4
			c-1.6-0.6-3.5-1.2-5.3-1.6c-1.8-0.4-3.9-0.6-6.1-0.6c-2.8,0-5.5,0.4-8.1,1c-2.4,0.6-4.9,1.6-7.1,2.8c-2.2,1.2-4.1,2.8-5.7,4.5
			c-1.6,1.8-3.2,3.7-4.3,5.9c-1.2,2.2-2,4.7-2.8,7.3c-0.6,2.6-1,5.3-1,8.3c0,4.3,0.6,8.3,2,12c1.4,3.7,3.2,6.7,5.7,9.3
			c2.4,2.6,5.5,4.7,8.9,6.3c3.5,1.4,7.3,2.2,11.8,2.2c4.9,0,8.9-0.8,12.4-2.2c3.2-1.4,6.1-3.5,8.3-6.1
			C698.8,79,698.8,78.6,698.4,78.2z"/>
		<path class="st3" d="M758.7,46.3c-1.4-3.7-3.5-6.7-6.1-9.3c-2.6-2.6-5.7-4.7-9.3-6.3c-3.7-1.4-7.7-2.2-12.2-2.2s-8.5,0.8-12.2,2.2
			s-6.9,3.7-9.5,6.3c-2.6,2.6-4.7,5.9-6.1,9.3c-1.4,3.7-2.2,7.5-2.2,11.8c0,4.3,0.8,8.1,2.2,11.8c1.4,3.7,3.5,6.7,6.1,9.5
			c2.6,2.6,5.7,4.7,9.5,6.3c3.7,1.4,7.7,2.2,12.2,2.2s8.5-0.8,12.2-2.2c3.7-1.4,6.9-3.7,9.3-6.3c2.6-2.6,4.7-5.9,6.1-9.5
			c1.4-3.7,2.2-7.5,2.2-11.8S760.1,50,758.7,46.3z M747.3,66.4c-0.8,2.4-2,4.5-3.5,6.1s-3.5,3-5.5,3.9c-2.2,0.8-4.7,1.4-7.3,1.4
			s-5.3-0.4-7.3-1.4c-2.2-0.8-4.1-2.2-5.5-3.9c-1.4-1.6-2.6-3.7-3.5-6.1c-0.8-2.4-1.2-5.3-1.2-8.3c0-3,0.4-5.9,1.2-8.3
			c0.8-2.4,2-4.5,3.5-6.1c1.4-1.6,3.5-3,5.5-3.9c2.2-0.8,4.7-1.4,7.3-1.4s5.1,0.4,7.3,1.4c2.2,0.8,4.1,2.2,5.5,3.9
			c1.4,1.6,2.6,3.9,3.5,6.1c0.8,2.4,1.2,5.1,1.2,8.3C748.6,61.1,748.1,64,747.3,66.4z"/>
		<path class="st3" d="M780.8,29.1h-10.4c-0.6,0-1,0.4-1,1v56.3c0,0.6,0.4,1,1,1h10.4c0.6,0,1-0.4,1-1V29.9
			C781.9,29.5,781.4,29.1,780.8,29.1z"/>
		<path class="st3" d="M843.2,29.1h-8.7c-0.6,0-1,0.4-1,1v32.5c0,0.8,0,1.8,0,2.6c0,1,0.2,2,0.2,3l-29.2-37.2
			c-0.4-0.4-0.6-0.8-0.8-1c-0.2-0.2-0.6-0.4-0.8-0.6c-0.2-0.2-0.6-0.2-1-0.2s-0.8,0-1.2,0h-5.5c-0.6,0-1,0.4-1,1v56c0,0.6,0.4,1,1,1
			h8.7c0.6,0,1-0.4,1-1V53.6c0-0.8,0-1.6,0-2.4c0-1,0-1.8-0.2-2.8l29,37c0.6,0.8,1.2,1.2,1.8,1.6c0.6,0.4,1.4,0.4,2.4,0.4h5.3
			c0.6,0,1-0.4,1-1V29.9C844,29.5,843.6,29.1,843.2,29.1z"/>
	</g>
</g>
</svg>
