<?xml version="1.0" encoding="utf-8"?>
<!-- Generator: Adobe Illustrator 23.0.1, SVG Export Plug-In . SVG Version: 6.00 Build 0)  -->
<svg version="1.1" id="Layer_1" xmlns="http://www.w3.org/2000/svg" xmlns:xlink="http://www.w3.org/1999/xlink" x="0px" y="0px"
	 viewBox="0 0 108.7 80.7" style="enable-background:new 0 0 108.7 80.7;" xml:space="preserve">
<style type="text/css">
	.st0{fill:#020202;}
	.st1{fill:none;stroke:#EC1C24;stroke-miterlimit:10;}
	.st2{fill:#FFFFFF;}
</style>
<g>
	<defs>
		<rect id="SVGID_1_" x="0.6" width="107.6" height="80.2"/>
	</defs>
	<clipPath id="SVGID_2_">
		<use xlink:href="#SVGID_1_"  style="overflow:visible;"/>
	</clipPath>
</g>
<g>
	<g>
		<path class="st0" d="M35.6,36.1c-0.2-1.5-0.6-2.7-1-3.7c-0.4-1.1-0.9-1.9-1.5-2.5s-1.3-0.9-2-0.9h-3.6c-0.1,0-0.2,0.2-0.2,0.4v8.4
			c0,0.2,0.1,0.4,0.2,0.4h1.7c0.1,0,0.2-0.2,0.2-0.4v-4.5c0-0.2,0.1-0.4,0.2-0.4h1.5c0.4,0,0.9,0.2,1.2,0.6c0.4,0.3,0.7,0.9,0.9,1.6
			c0.2,0.7,0.4,1.5,0.6,2.6c0.1,1,0.2,2.1,0.2,3.4s-0.1,2.4-0.2,3.4c-0.1,1-0.3,1.8-0.6,2.6c-0.2,0.7-0.5,1.2-0.9,1.6
			c-0.4,0.3-0.8,0.6-1.2,0.6h-1.5c-0.1,0-0.2-0.2-0.2-0.4v-4.5c0-0.2-0.1-0.4-0.2-0.4h-1.7c-0.1,0-0.2,0.2-0.2,0.4v8.2
			c0,0.2,0.1,0.4,0.2,0.4h3.6c0.7,0,1.4-0.3,2-0.9c0.6-0.6,1.1-1.4,1.5-2.5c0.4-1.1,0.8-2.3,1-3.7c0.2-1.5,0.4-3,0.4-4.8
			S35.9,37.5,35.6,36.1z"/>
		<path class="st0" d="M39.6,32.8h3.8c0.1,0,0.2-0.2,0.2-0.4v-3c0-0.2-0.1-0.4-0.2-0.4h-5.8c-0.1,0-0.2,0.2-0.2,0.4v22.9
			c0,0.2,0.1,0.4,0.2,0.4h5.8c0.1,0,0.2-0.2,0.2-0.4v-3c0-0.2-0.1-0.4-0.2-0.4h-3.8c-0.1,0-0.2-0.2-0.2-0.4v-5.4
			c0-0.2,0.1-0.4,0.2-0.4h2.9c0.1,0,0.2-0.2,0.2-0.4v-3c0-0.2-0.1-0.4-0.2-0.4h-2.9c-0.1,0-0.2-0.2-0.2-0.4V33
			C39.5,33,39.6,32.8,39.6,32.8z"/>
		<path class="st0" d="M53.2,29h-1.4c-0.1,0-0.2,0.2-0.2,0.4v13.2c0,0.3,0,0.7,0,1.1c0,0.4,0,0.8,0,1.2l-4.8-15.1
			c-0.1-0.2-0.1-0.3-0.1-0.4c0-0.1-0.1-0.2-0.1-0.2c0-0.1-0.1-0.1-0.2-0.1s-0.1,0-0.2,0h-0.9c-0.1,0-0.2,0.2-0.2,0.4v22.7
			c0,0.2,0.1,0.4,0.2,0.4h1.4c0.1,0,0.2-0.2,0.2-0.4V39c0-0.3,0-0.7,0-1c0-0.4,0-0.7,0-1.2l4.8,15c0.1,0.3,0.2,0.5,0.3,0.7
			c0.1,0.2,0.2,0.2,0.4,0.2h0.9c0.1,0,0.2-0.2,0.2-0.4V29.3C53.4,29.2,53.3,29,53.2,29z"/>
		<path class="st0" d="M62,29h-7.3c-0.1,0-0.2,0.2-0.2,0.4v3.2c0,0.2,0.1,0.4,0.2,0.4h2.5c0.1,0,0.2,0.2,0.2,0.4v19
			c0,0.2,0.1,0.4,0.2,0.4h1.7c0.1,0,0.2-0.2,0.2-0.4V33.3c0-0.2,0.1-0.4,0.2-0.4h2.5c0.1,0,0.2-0.2,0.2-0.4v-3.2
			C62.2,29.2,62.1,29,62,29z"/>
		<path class="st0" d="M70.8,52.2l-3.6-22.9c0-0.2-0.1-0.2-0.1-0.2h-1.8c-0.1,0-0.1,0.1-0.1,0.2l-3.7,22.9c0,0.2,0,0.5,0.1,0.5h1.3
			c0.2,0,0.3-0.1,0.4-0.3c0.1-0.2,0.2-0.5,0.2-0.7l0.6-4.3c0-0.2,0.1-0.2,0.1-0.2h3.6c0.1,0,0.1,0.1,0.1,0.2l0.6,4.3
			c0.1,0.3,0.1,0.6,0.2,0.7c0.1,0.2,0.2,0.3,0.4,0.3h1.3C70.8,52.6,70.9,52.4,70.8,52.2z M67.3,43.7h-2.4c-0.1,0-0.2-0.2-0.1-0.5
			l1-6.7c0.1-0.4,0.1-0.8,0.2-1.3c0-0.2,0-0.2,0-0.4c0-0.3,0.2-0.3,0.3,0c0,0.1,0,0.2,0,0.3c0.1,0.5,0.1,1,0.2,1.3l1,6.8
			C67.5,43.4,67.4,43.7,67.3,43.7z"/>
		<path class="st0" d="M79,48.9l-0.7-1.8c-0.1-0.2-0.2-0.3-0.3-0.3c-0.1,0-0.1,0-0.2,0.1c-0.1,0.1-0.1,0.2-0.2,0.2
			c-0.1,0.3-0.3,0.6-0.4,0.7c-0.1,0.2-0.3,0.4-0.4,0.5c-0.2,0.2-0.3,0.2-0.5,0.2c-0.2,0.1-0.4,0.1-0.6,0.1c-0.4,0-0.7-0.2-1.1-0.5
			c-0.3-0.3-0.6-0.9-0.9-1.6c-0.2-0.7-0.4-1.6-0.6-2.6c-0.1-1-0.2-2.1-0.2-3.4s0.1-2.4,0.2-3.4c0.1-1,0.3-1.8,0.6-2.5
			s0.5-1.2,0.9-1.6c0.3-0.3,0.7-0.6,1.1-0.6c0.4,0,0.7,0.1,0.9,0.2c0.2,0.2,0.4,0.4,0.6,0.7c0.2,0.2,0.3,0.4,0.4,0.6
			c0.1,0.2,0.2,0.2,0.3,0.2c0.1,0,0.2-0.1,0.2-0.2c0.1-0.1,0.1-0.2,0.2-0.4l0.6-2c0-0.2,0-0.4,0-0.5c-0.2-0.4-0.3-0.7-0.5-1.1
			c-0.2-0.4-0.5-0.7-0.8-1c-0.3-0.2-0.6-0.5-0.9-0.7c-0.3-0.2-0.6-0.2-1-0.2c-0.5,0-0.9,0.2-1.3,0.4c-0.4,0.2-0.8,0.7-1.2,1.2
			c-0.4,0.5-0.7,1.2-0.9,1.8c-0.3,0.7-0.5,1.5-0.7,2.4c-0.2,0.9-0.3,1.9-0.5,3C71,38.2,71,39.3,71,40.5c0,1.7,0.1,3.4,0.3,4.9
			c0.2,1.5,0.5,2.7,0.9,3.8c0.4,1.1,0.9,1.9,1.5,2.6c0.6,0.6,1.2,0.9,1.9,0.9c0.8,0,1.5-0.3,2-0.9c0.5-0.6,1-1.4,1.4-2.5
			C79.1,49.3,79.1,49.1,79,48.9z"/>
		<path class="st0" d="M89,36c-0.2-1.5-0.6-2.7-1-3.8c-0.4-1.1-0.9-1.9-1.5-2.6c-0.6-0.6-1.3-0.9-2-0.9s-1.4,0.3-2,0.9
			s-1.1,1.5-1.6,2.6c-0.4,1.1-0.8,2.4-1,3.8c-0.2,1.5-0.4,3-0.4,4.8c0,1.7,0.1,3.3,0.4,4.8c0.2,1.5,0.6,2.7,1,3.9
			c0.4,1.1,0.9,1.9,1.6,2.6c0.6,0.6,1.3,0.9,2,0.9s1.4-0.3,2-0.9s1.1-1.5,1.5-2.6c0.4-1.1,0.8-2.4,1-3.9c0.2-1.5,0.4-3,0.4-4.8
			C89.4,39,89.2,37.5,89,36z M87.1,44.2c-0.1,1-0.3,1.8-0.6,2.5c-0.2,0.7-0.6,1.2-0.9,1.6c-0.4,0.3-0.8,0.6-1.2,0.6
			s-0.9-0.2-1.2-0.6c-0.4-0.3-0.7-0.9-0.9-1.6c-0.2-0.7-0.4-1.5-0.6-2.5c-0.1-1-0.2-2.1-0.2-3.4s0.1-2.4,0.2-3.4
			c0.1-1,0.3-1.8,0.6-2.5c0.2-0.7,0.6-1.2,0.9-1.6c0.4-0.3,0.8-0.6,1.2-0.6s0.8,0.2,1.2,0.6c0.4,0.3,0.7,0.9,0.9,1.6
			c0.2,0.7,0.4,1.6,0.6,2.5c0.1,1,0.2,2.1,0.2,3.4C87.3,42,87.3,43.2,87.1,44.2z"/>
		<path class="st0" d="M92.7,29h-1.7c-0.1,0-0.2,0.2-0.2,0.4v22.8c0,0.2,0.1,0.4,0.2,0.4h1.7c0.1,0,0.2-0.2,0.2-0.4V29.3
			C92.8,29.2,92.8,29,92.7,29z"/>
		<path class="st0" d="M103,29h-1.4c-0.1,0-0.2,0.2-0.2,0.4v13.2c0,0.3,0,0.7,0,1.1c0,0.4,0,0.8,0,1.2l-4.8-15.1
			c-0.1-0.2-0.1-0.3-0.1-0.4s-0.1-0.2-0.1-0.2s-0.1-0.1-0.2-0.1s-0.1,0-0.2,0H95c-0.1,0-0.2,0.2-0.2,0.4v22.7c0,0.2,0.1,0.4,0.2,0.4
			h1.4c0.1,0,0.2-0.2,0.2-0.4V39c0-0.3,0-0.7,0-1c0-0.4,0-0.7,0-1.2l4.8,15c0.1,0.3,0.2,0.5,0.3,0.7c0.1,0.2,0.2,0.2,0.4,0.2h0.9
			c0.1,0,0.2-0.2,0.2-0.4V29.3C103.1,29.2,103,29,103,29z"/>
	</g>
</g>
<rect x="0.4" y="0.4" class="st1" width="107.9" height="79.8"/>
<line class="st1" x1="0.6" y1="0.2" x2="108.2" y2="79.8"/>
<g>
	<g>
		<path class="st2" d="M5.9-192.7c-0.1-0.1-0.3-0.3-0.4-0.4C5.7-193,5.8-192.8,5.9-192.7z"/>
		<path d="M16.4,55.4l-0.7-5.3l-0.5-3.5l-0.5-4l-0.1-1l-0.1-0.5l0-0.2l0,0l0,0c0,0,0,0,0,0l0,0l0,0.1c0,0,0,0.1,0,0.1l0,0.2
			c0,0-0.3,1.8-0.3,1.8l-0.8,5.5l-0.7,5L11.4,61c0.9,0.9,2,1.4,3,1.4c1,0,1.9-0.4,2.8-1.1l-0.3-2L16.4,55.4z"/>
		<path d="M23.2,40.9c0-11.9-3.9-21.6-8.7-21.7s-8.8,9.5-8.8,21.4c0,6,1,11.5,2.6,15.4c0,0,0,0.1,0,0.1l1.9-8.1L11,45l0.6-3l0.5-3.1
			l0.5-3.2l0.5-3.9l0.5-3.5l0.6-4.7l0.4-3.3l0.2,1.8l0.4,3.5l0.3,3.1l0.4,3.2l0.4,3l0.4,2.7l0.4,2.7l0.5,2.8l0.6,3l0.7,3.4l0.7,3
			l1.1,4C22.2,52.5,23.2,47,23.2,40.9z"/>
		<path class="st2" d="M6.2-192.4L6.2-192.4c-0.1-0.1-0.2-0.2-0.3-0.3C6-192.6,6.1-192.5,6.2-192.4z"/>
	</g>
</g>
</svg>
