<?xml version="1.0" encoding="utf-8"?>
<!-- Generator: Adobe Illustrator 23.0.1, SVG Export Plug-In . SVG Version: 6.00 Build 0)  -->
<svg version="1.1" id="Layer_1" xmlns="http://www.w3.org/2000/svg" xmlns:xlink="http://www.w3.org/1999/xlink" x="0px" y="0px"
	 viewBox="0 0 108.7 80.7" style="enable-background:new 0 0 108.7 80.7;" xml:space="preserve">
<style type="text/css">
	.st0{fill:none;stroke:#EC1C24;stroke-miterlimit:10;}
	.st1{fill:#FFFFFF;}
	.st2{fill:#010101;}
</style>
<rect x="0.2" y="0.6" class="st0" width="108.3" height="79.6"/>
<line class="st0" x1="0.2" y1="0.6" x2="108.7" y2="80.2"/>
<g>
	<g>
		<g id="XMLID_17_">
			<path d="M24.7,29.6c0,4.8-4,8.7-8.8,8.7c-2.4,0-4.5-1-6.1-2.5c-1.6-1.6-2.6-3.8-2.6-6.3c0-4.8,4-8.7,8.8-8.7
				C20.8,20.8,24.7,24.7,24.7,29.6z"/>
		</g>
		<g>
			<path class="st1" d="M11.8,32.5l-1.9,3.3c0,0,0.8,1.1,3,1.9l1.1-3l0.7-2l0.8-2.2c0,0,0.3-0.7,0.3-0.7l0-0.1c0,0,0,0,0,0l0,0l0,0
				c0,0,0,0,0,0l0,0l0,0l0,0.1l0.1,0.2l0.1,0.4l0.5,1.6l0.5,1.4l0.7,2.2l0.6,1.5l0.3,0.8c0,0,1.8-0.5,3.3-2l-1.1-1.6L20.2,33
				l-0.7-1.4l-0.6-1.2l-0.5-1.1L18,28.2l-0.4-1.1l-0.4-1.2l-0.4-1.3l-0.3-1.3l-0.4-1.4l-0.2-0.7l-0.4,1.4L15,24.4l-0.5,1.4L14,27.4
				l-0.5,1.3L13,30l-0.6,1.2L11.8,32.5z"/>
		</g>
	</g>
</g>
<g>
	<path class="st2" d="M24.6,43.3c-0.2-0.6-0.6-1.2-1.1-1.6c-0.5-0.5-1-0.8-1.6-1.1c-0.6-0.2-1.3-0.4-2.1-0.4h-3.7
		c-0.1,0-0.2,0.1-0.2,0.2V44c0,0.1,0.1,0.2,0.2,0.2h1.8c0.1,0,0.2-0.1,0.2-0.2v-1.9c0-0.1,0.1-0.2,0.2-0.2h1.6
		c0.5,0,0.9,0.1,1.3,0.2c0.4,0.1,0.7,0.4,0.9,0.7c0.2,0.3,0.5,0.6,0.6,1.1c0.1,0.4,0.2,0.9,0.2,1.4c0,0.5-0.1,1-0.2,1.4
		c-0.1,0.4-0.4,0.8-0.6,1.1c-0.2,0.3-0.6,0.5-0.9,0.7c-0.4,0.1-0.8,0.2-1.3,0.2h-1.6c-0.1,0-0.2-0.1-0.2-0.2v-1.9
		c0-0.1-0.1-0.2-0.2-0.2h-1.8c-0.1,0-0.2,0.1-0.2,0.2v3.5c0,0.1,0.1,0.2,0.2,0.2h3.7c0.8,0,1.5-0.1,2.1-0.4c0.6-0.2,1.2-0.6,1.6-1.1
		c0.5-0.5,0.8-1,1.1-1.6c0.2-0.6,0.4-1.3,0.4-2C25,44.6,24.8,43.9,24.6,43.3z"/>
	<path class="st2" d="M28.8,41.9h4c0.1,0,0.2-0.1,0.2-0.2v-1.3c0-0.1-0.1-0.2-0.2-0.2h-6.1c-0.1,0-0.2,0.1-0.2,0.2v9.8
		c0,0.1,0.1,0.2,0.2,0.2h6.1c0.1,0,0.2-0.1,0.2-0.2v-1.3c0-0.1-0.1-0.2-0.2-0.2h-4c-0.1,0-0.2-0.1-0.2-0.2v-2.3
		c0-0.1,0.1-0.2,0.2-0.2h3.1c0.1,0,0.2-0.1,0.2-0.2v-1.3c0-0.1-0.1-0.2-0.2-0.2h-3.1c-0.1,0-0.2-0.1-0.2-0.2V42
		C28.6,42,28.7,41.9,28.8,41.9z"/>
	<path class="st2" d="M43,40.3h-1.5c-0.1,0-0.2,0.1-0.2,0.2v5.6c0,0.1,0,0.3,0,0.5c0,0.2,0,0.4,0,0.5l-5.1-6.4
		c-0.1-0.1-0.1-0.1-0.1-0.2S36,40.4,36,40.3s-0.1,0-0.2,0c-0.1,0-0.1,0-0.2,0h-0.9c-0.1,0-0.2,0.1-0.2,0.2v9.7
		c0,0.1,0.1,0.2,0.2,0.2h1.5c0.1,0,0.2-0.1,0.2-0.2v-5.7c0-0.1,0-0.3,0-0.4c0-0.2,0-0.3,0-0.5l5,6.4c0.1,0.1,0.2,0.2,0.3,0.3
		c0.1,0.1,0.2,0.1,0.4,0.1H43c0.1,0,0.2-0.1,0.2-0.2v-9.8C43.1,40.3,43.1,40.3,43,40.3z"/>
	<path class="st2" d="M52.2,40.3h-7.7c-0.1,0-0.2,0.1-0.2,0.2v1.4c0,0.1,0.1,0.2,0.2,0.2h2.6c0.1,0,0.2,0.1,0.2,0.2v8.1
		c0,0.1,0.1,0.2,0.2,0.2h1.8c0.1,0,0.2-0.1,0.2-0.2v-8.2c0-0.1,0.1-0.2,0.2-0.2h2.6c0.1,0,0.2-0.1,0.2-0.2v-1.4
		C52.4,40.3,52.3,40.3,52.2,40.3z"/>
	<path class="st2" d="M61.4,50.1l-3.8-9.8c0-0.1-0.1-0.1-0.1-0.1h-1.9c-0.1,0-0.1,0-0.1,0.1l-3.8,9.8c0,0.1,0,0.2,0.1,0.2h1.4
		c0.2,0,0.3,0,0.4-0.1c0.1-0.1,0.2-0.2,0.2-0.3l0.6-1.8c0-0.1,0.1-0.1,0.1-0.1h3.8c0.1,0,0.1,0,0.1,0.1l0.6,1.8
		c0.1,0.1,0.1,0.2,0.2,0.3c0.1,0.1,0.2,0.1,0.5,0.1h1.4C61.4,50.4,61.5,50.3,61.4,50.1z M57.7,46.5h-2.5c-0.1,0-0.2-0.1-0.1-0.2
		l1-2.8c0.1-0.2,0.1-0.4,0.2-0.6c0-0.1,0-0.1,0-0.2c0-0.1,0.2-0.1,0.3,0c0,0,0,0.1,0,0.1c0.1,0.2,0.1,0.4,0.2,0.6l1,2.9
		C58,46.4,57.9,46.5,57.7,46.5z"/>
	<path class="st2" d="M70,48.8L69.3,48c-0.1-0.1-0.2-0.1-0.3-0.1c-0.1,0-0.1,0-0.2,0c-0.1,0-0.1,0.1-0.2,0.1
		c-0.1,0.1-0.3,0.2-0.5,0.3c-0.1,0.1-0.3,0.2-0.5,0.2c-0.2,0.1-0.4,0.1-0.5,0.1c-0.2,0-0.4,0-0.6,0c-0.4,0-0.8-0.1-1.1-0.2
		s-0.7-0.4-0.9-0.7c-0.2-0.3-0.5-0.7-0.6-1.1c-0.1-0.4-0.2-0.9-0.2-1.4c0-0.5,0.1-1,0.2-1.4c0.1-0.4,0.4-0.8,0.6-1.1
		c0.2-0.3,0.6-0.5,0.9-0.7s0.7-0.2,1.2-0.2c0.4,0,0.7,0,0.9,0.1s0.5,0.2,0.6,0.3c0.2,0.1,0.3,0.2,0.4,0.2c0.1,0.1,0.2,0.1,0.4,0.1
		c0.1,0,0.2,0,0.2-0.1c0.1,0,0.1-0.1,0.2-0.2l0.6-0.8c0-0.1,0-0.2,0-0.2c-0.2-0.2-0.4-0.3-0.6-0.5c-0.2-0.2-0.5-0.3-0.8-0.4
		c-0.3-0.1-0.6-0.2-0.9-0.3C67.3,40.1,67,40,66.6,40c-0.5,0-0.9,0.1-1.4,0.2c-0.4,0.1-0.8,0.3-1.2,0.5c-0.4,0.2-0.7,0.5-1,0.8
		c-0.3,0.3-0.6,0.6-0.7,1c-0.2,0.4-0.4,0.8-0.5,1.3c-0.1,0.5-0.2,0.9-0.2,1.4c0,0.7,0.1,1.4,0.4,2.1c0.2,0.6,0.6,1.2,1,1.6
		c0.4,0.5,0.9,0.8,1.5,1.1c0.6,0.2,1.3,0.4,2,0.4c0.8,0,1.5-0.1,2.1-0.4c0.6-0.2,1.1-0.6,1.4-1.1C70.1,48.9,70.1,48.8,70,48.8z"/>
	<path class="st2" d="M80.4,43.3c-0.2-0.6-0.6-1.2-1.1-1.6c-0.5-0.5-1-0.8-1.6-1.1c-0.6-0.2-1.3-0.4-2.1-0.4s-1.5,0.1-2.1,0.4
		c-0.6,0.2-1.2,0.6-1.7,1.1c-0.5,0.5-0.8,1-1.1,1.6c-0.2,0.6-0.4,1.3-0.4,2c0,0.7,0.1,1.4,0.4,2c0.2,0.6,0.6,1.2,1.1,1.7
		c0.5,0.5,1,0.8,1.7,1.1c0.6,0.2,1.3,0.4,2.1,0.4s1.5-0.1,2.1-0.4c0.6-0.2,1.2-0.6,1.6-1.1c0.5-0.5,0.8-1,1.1-1.7
		c0.2-0.6,0.4-1.3,0.4-2C80.8,44.6,80.7,43.9,80.4,43.3z M78.5,46.7c-0.1,0.4-0.4,0.8-0.6,1.1c-0.2,0.3-0.6,0.5-0.9,0.7
		c-0.4,0.1-0.8,0.2-1.3,0.2s-0.9-0.1-1.3-0.2c-0.4-0.1-0.7-0.4-0.9-0.7c-0.2-0.3-0.5-0.6-0.6-1.1c-0.1-0.4-0.2-0.9-0.2-1.4
		c0-0.5,0.1-1,0.2-1.4c0.1-0.4,0.4-0.8,0.6-1.1c0.2-0.3,0.6-0.5,0.9-0.7c0.4-0.1,0.8-0.2,1.3-0.2s0.9,0.1,1.3,0.2
		c0.4,0.1,0.7,0.4,0.9,0.7c0.2,0.3,0.5,0.7,0.6,1.1c0.1,0.4,0.2,0.9,0.2,1.4C78.7,45.8,78.6,46.3,78.5,46.7z"/>
	<path class="st2" d="M84.3,40.3h-1.8c-0.1,0-0.2,0.1-0.2,0.2v9.7c0,0.1,0.1,0.2,0.2,0.2h1.8c0.1,0,0.2-0.1,0.2-0.2v-9.8
		C84.4,40.3,84.4,40.3,84.3,40.3z"/>
	<path class="st2" d="M95.1,40.3h-1.5c-0.1,0-0.2,0.1-0.2,0.2v5.6c0,0.1,0,0.3,0,0.5c0,0.2,0,0.4,0,0.5l-5.1-6.4
		c-0.1-0.1-0.1-0.1-0.1-0.2c0,0-0.1-0.1-0.1-0.1s-0.1,0-0.2,0c-0.1,0-0.1,0-0.2,0h-0.9c-0.1,0-0.2,0.1-0.2,0.2v9.7
		c0,0.1,0.1,0.2,0.2,0.2h1.5c0.1,0,0.2-0.1,0.2-0.2v-5.7c0-0.1,0-0.3,0-0.4c0-0.2,0-0.3,0-0.5l5,6.4c0.1,0.1,0.2,0.2,0.3,0.3
		c0.1,0.1,0.2,0.1,0.4,0.1h0.9c0.1,0,0.2-0.1,0.2-0.2v-9.8C95.2,40.3,95.1,40.3,95.1,40.3z"/>
</g>
</svg>
