<?xml version="1.0" encoding="utf-8"?>
<!-- Generator: Adobe Illustrator 23.0.1, SVG Export Plug-In . SVG Version: 6.00 Build 0)  -->
<svg version="1.1" id="Layer_1" xmlns="http://www.w3.org/2000/svg" xmlns:xlink="http://www.w3.org/1999/xlink" x="0px" y="0px"
	 viewBox="0 0 108.7 80.7" style="enable-background:new 0 0 108.7 80.7;" xml:space="preserve">
<style type="text/css">
	.st0{fill:#6DBE45;}
	.st1{fill:none;stroke:#EC1C24;stroke-miterlimit:10;}
	.st2{fill:#C42026;}
</style>
<g>
	<defs>
		<rect id="SVGID_1_" x="0.6" width="107.6" height="80.2"/>
	</defs>
	<clipPath id="SVGID_2_">
		<use xlink:href="#SVGID_1_"  style="overflow:visible;"/>
	</clipPath>
</g>
<g>
	<g>
		<path class="st0" d="M35.6,41.3c-0.2-0.6-0.6-1.1-1-1.5c-0.4-0.4-0.9-0.8-1.5-1s-1.3-0.4-2-0.4h-3.6c-0.1,0-0.2,0.1-0.2,0.2V42
			c0,0.1,0.1,0.2,0.2,0.2h1.7c0.1,0,0.2-0.1,0.2-0.2v-1.8c0-0.1,0.1-0.2,0.2-0.2h1.5c0.4,0,0.9,0.1,1.2,0.2c0.4,0.1,0.7,0.4,0.9,0.6
			c0.2,0.3,0.4,0.6,0.6,1c0.1,0.4,0.2,0.9,0.2,1.4c0,0.5-0.1,1-0.2,1.4s-0.3,0.7-0.6,1c-0.2,0.3-0.5,0.5-0.9,0.6
			c-0.4,0.1-0.8,0.2-1.2,0.2h-1.5c-0.1,0-0.2-0.1-0.2-0.2v-1.8c0-0.1-0.1-0.2-0.2-0.2h-1.7c-0.1,0-0.2,0.1-0.2,0.2v3.3
			c0,0.1,0.1,0.2,0.2,0.2h3.6c0.7,0,1.4-0.1,2-0.4c0.6-0.2,1.1-0.6,1.5-1c0.4-0.4,0.8-0.9,1-1.5c0.2-0.6,0.4-1.2,0.4-1.9
			C36,42.5,35.9,41.9,35.6,41.3z"/>
		<path class="st0" d="M39.6,40h3.8c0.1,0,0.2-0.1,0.2-0.2v-1.2c0-0.1-0.1-0.2-0.2-0.2h-5.8c-0.1,0-0.2,0.1-0.2,0.2v9.3
			c0,0.1,0.1,0.2,0.2,0.2h5.8c0.1,0,0.2-0.1,0.2-0.2v-1.2c0-0.1-0.1-0.2-0.2-0.2h-3.8c-0.1,0-0.2-0.1-0.2-0.2v-2.2
			c0-0.1,0.1-0.2,0.2-0.2h2.9c0.1,0,0.2-0.1,0.2-0.2v-1.2c0-0.1-0.1-0.2-0.2-0.2h-2.9c-0.1,0-0.2-0.1-0.2-0.2V40
			C39.5,40,39.6,40,39.6,40z"/>
		<path class="st0" d="M53.2,38.4h-1.4c-0.1,0-0.2,0.1-0.2,0.2V44c0,0.1,0,0.3,0,0.4c0,0.2,0,0.3,0,0.5l-4.8-6.1
			c-0.1-0.1-0.1-0.1-0.1-0.2c0,0-0.1-0.1-0.1-0.1c0,0-0.1,0-0.2,0s-0.1,0-0.2,0h-0.9c-0.1,0-0.2,0.1-0.2,0.2v9.3
			c0,0.1,0.1,0.2,0.2,0.2h1.4c0.1,0,0.2-0.1,0.2-0.2v-5.4c0-0.1,0-0.3,0-0.4c0-0.2,0-0.3,0-0.5l4.8,6.1c0.1,0.1,0.2,0.2,0.3,0.3
			c0.1,0.1,0.2,0.1,0.4,0.1h0.9c0.1,0,0.2-0.1,0.2-0.2v-9.3C53.4,38.5,53.3,38.4,53.2,38.4z"/>
		<path class="st0" d="M62,38.4h-7.3c-0.1,0-0.2,0.1-0.2,0.2v1.3c0,0.1,0.1,0.2,0.2,0.2h2.5c0.1,0,0.2,0.1,0.2,0.2V48
			c0,0.1,0.1,0.2,0.2,0.2h1.7c0.1,0,0.2-0.1,0.2-0.2v-7.8c0-0.1,0.1-0.2,0.2-0.2h2.5c0.1,0,0.2-0.1,0.2-0.2v-1.3
			C62.2,38.5,62.1,38.4,62,38.4z"/>
		<path class="st0" d="M70.8,47.9l-3.6-9.3c0-0.1-0.1-0.1-0.1-0.1h-1.8c-0.1,0-0.1,0-0.1,0.1l-3.7,9.3c0,0.1,0,0.2,0.1,0.2h1.3
			c0.2,0,0.3,0,0.4-0.1c0.1-0.1,0.2-0.2,0.2-0.3l0.6-1.7c0-0.1,0.1-0.1,0.1-0.1h3.6c0.1,0,0.1,0,0.1,0.1l0.6,1.7
			c0.1,0.1,0.1,0.2,0.2,0.3c0.1,0.1,0.2,0.1,0.4,0.1h1.3C70.8,48.1,70.9,48,70.8,47.9z M67.3,44.4h-2.4c-0.1,0-0.2-0.1-0.1-0.2
			l1-2.7c0.1-0.2,0.1-0.3,0.2-0.5c0-0.1,0-0.1,0-0.2c0-0.1,0.2-0.1,0.3,0c0,0,0,0.1,0,0.1c0.1,0.2,0.1,0.4,0.2,0.5l1,2.8
			C67.5,44.3,67.4,44.4,67.3,44.4z"/>
		<path class="st0" d="M79,46.6l-0.7-0.7c-0.1-0.1-0.2-0.1-0.3-0.1c-0.1,0-0.1,0-0.2,0c-0.1,0-0.1,0.1-0.2,0.1
			c-0.1,0.1-0.3,0.2-0.4,0.3c-0.1,0.1-0.3,0.2-0.4,0.2c-0.2,0.1-0.3,0.1-0.5,0.1c-0.2,0-0.4,0-0.6,0c-0.4,0-0.7-0.1-1.1-0.2
			c-0.3-0.1-0.6-0.4-0.9-0.6s-0.4-0.6-0.6-1c-0.1-0.4-0.2-0.9-0.2-1.4c0-0.5,0.1-1,0.2-1.4c0.1-0.4,0.3-0.7,0.6-1s0.5-0.5,0.9-0.6
			c0.3-0.1,0.7-0.2,1.1-0.2c0.4,0,0.7,0,0.9,0.1c0.2,0.1,0.4,0.2,0.6,0.3c0.2,0.1,0.3,0.2,0.4,0.2c0.1,0.1,0.2,0.1,0.3,0.1
			c0.1,0,0.2,0,0.2-0.1c0.1,0,0.1-0.1,0.2-0.2l0.6-0.8c0-0.1,0-0.2,0-0.2c-0.2-0.2-0.3-0.3-0.5-0.4c-0.2-0.2-0.5-0.3-0.8-0.4
			c-0.3-0.1-0.6-0.2-0.9-0.3c-0.3-0.1-0.6-0.1-1-0.1c-0.5,0-0.9,0.1-1.3,0.2c-0.4,0.1-0.8,0.3-1.2,0.5s-0.7,0.5-0.9,0.7
			c-0.3,0.3-0.5,0.6-0.7,1c-0.2,0.4-0.3,0.8-0.5,1.2C71,42.2,71,42.6,71,43.1c0,0.7,0.1,1.4,0.3,2c0.2,0.6,0.5,1.1,0.9,1.5
			c0.4,0.4,0.9,0.8,1.5,1c0.6,0.2,1.2,0.4,1.9,0.4c0.8,0,1.5-0.1,2-0.4c0.5-0.2,1-0.6,1.4-1C79.1,46.7,79.1,46.6,79,46.6z"/>
		<path class="st0" d="M89,41.3c-0.2-0.6-0.6-1.1-1-1.5s-0.9-0.8-1.5-1c-0.6-0.2-1.3-0.4-2-0.4s-1.4,0.1-2,0.4
			c-0.6,0.2-1.1,0.6-1.6,1c-0.4,0.4-0.8,1-1,1.5c-0.2,0.6-0.4,1.2-0.4,1.9c0,0.7,0.1,1.3,0.4,1.9s0.6,1.1,1,1.6
			c0.4,0.4,0.9,0.8,1.6,1c0.6,0.2,1.3,0.4,2,0.4s1.4-0.1,2-0.4c0.6-0.2,1.1-0.6,1.5-1c0.4-0.4,0.8-1,1-1.6c0.2-0.6,0.4-1.2,0.4-1.9
			S89.2,41.9,89,41.3z M87.1,44.6c-0.1,0.4-0.3,0.7-0.6,1s-0.6,0.5-0.9,0.6c-0.4,0.1-0.8,0.2-1.2,0.2s-0.9-0.1-1.2-0.2
			c-0.4-0.1-0.7-0.4-0.9-0.6c-0.2-0.3-0.4-0.6-0.6-1c-0.1-0.4-0.2-0.9-0.2-1.4c0-0.5,0.1-1,0.2-1.4c0.1-0.4,0.3-0.7,0.6-1
			c0.2-0.3,0.6-0.5,0.9-0.6c0.4-0.1,0.8-0.2,1.2-0.2s0.8,0.1,1.2,0.2c0.4,0.1,0.7,0.4,0.9,0.6s0.4,0.6,0.6,1
			c0.1,0.4,0.2,0.8,0.2,1.4C87.3,43.7,87.3,44.2,87.1,44.6z"/>
		<path class="st0" d="M92.7,38.4h-1.7c-0.1,0-0.2,0.1-0.2,0.2v9.3c0,0.1,0.1,0.2,0.2,0.2h1.7c0.1,0,0.2-0.1,0.2-0.2v-9.3
			C92.8,38.5,92.8,38.4,92.7,38.4z"/>
		<path class="st0" d="M103,38.4h-1.4c-0.1,0-0.2,0.1-0.2,0.2V44c0,0.1,0,0.3,0,0.4c0,0.2,0,0.3,0,0.5l-4.8-6.1
			c-0.1-0.1-0.1-0.1-0.1-0.2s-0.1-0.1-0.1-0.1c0,0-0.1,0-0.2,0s-0.1,0-0.2,0H95c-0.1,0-0.2,0.1-0.2,0.2v9.3c0,0.1,0.1,0.2,0.2,0.2
			h1.4c0.1,0,0.2-0.1,0.2-0.2v-5.4c0-0.1,0-0.3,0-0.4c0-0.2,0-0.3,0-0.5l4.8,6.1c0.1,0.1,0.2,0.2,0.3,0.3c0.1,0.1,0.2,0.1,0.4,0.1
			h0.9c0.1,0,0.2-0.1,0.2-0.2v-9.3C103.1,38.5,103,38.4,103,38.4z"/>
	</g>
</g>
<rect x="0.4" y="0.4" class="st1" width="107.9" height="79.8"/>
<line class="st1" x1="0.6" y1="0.2" x2="108.2" y2="79.8"/>
<g>
	<g>
		<path class="st2" d="M5.9-51.9C5.8-51.9,5.7-52,5.6-52C5.7-52,5.8-51.9,5.9-51.9z"/>
		<path class="st2" d="M16.4,49.2L15.7,47l-0.5-1.4L14.7,44l-0.1-0.4l-0.1-0.2l0-0.1l0,0l0,0c0,0,0,0,0,0l0,0l0,0c0,0,0,0,0,0l0,0.1
			c0,0-0.3,0.7-0.3,0.7l-0.8,2.2l-0.7,2l-1.1,3c0.9,0.4,2,0.6,3,0.6c1,0,1.9-0.2,2.8-0.5L17,50.7L16.4,49.2z"/>
		<path class="st2" d="M23.2,43.3c0-4.8-3.9-8.8-8.7-8.8c-4.8,0-8.8,3.9-8.8,8.7c0,2.5,1,4.7,2.6,6.3c0,0,0,0,0,0l1.9-3.3l0.6-1.3
			l0.6-1.2l0.5-1.3l0.5-1.3l0.5-1.6l0.5-1.4l0.6-1.9l0.4-1.4l0.2,0.7l0.4,1.4l0.3,1.3l0.4,1.3l0.4,1.2l0.4,1.1L17,43l0.5,1.1
			l0.6,1.2l0.7,1.4l0.7,1.2l1.1,1.6C22.2,48,23.2,45.8,23.2,43.3z"/>
		<path class="st2" d="M6.2-51.7L6.2-51.7c-0.1-0.1-0.2-0.1-0.3-0.1C6-51.8,6.1-51.8,6.2-51.7z"/>
	</g>
</g>
</svg>
