<?xml version="1.0" encoding="utf-8"?>
<!-- Generator: Adobe Illustrator 23.0.1, SVG Export Plug-In . SVG Version: 6.00 Build 0)  -->
<svg version="1.1" id="Layer_1" xmlns="http://www.w3.org/2000/svg" xmlns:xlink="http://www.w3.org/1999/xlink" x="0px" y="0px"
	 viewBox="0 0 844.2 244.8" style="enable-background:new 0 0 844.2 244.8;" xml:space="preserve">
<style type="text/css">
	.st0{fill:#FFFFFF;}
	.st1{fill:#EC1C24;}
	.st2{fill:#231F20;}
	.st3{fill:#333333;}
</style>
<g>
	<g>
		<g>
			<g>
				<path d="M396.7,83.1c-0.4-0.4-0.4-0.8-0.4-1.1v-6.9c0-0.4,0-0.8,0.4-1.1c0.4-0.4,0.8-0.4,1.1-0.4h6.1c3.1,0,6.1-0.8,8.4-2.3
					c2.7-1.5,4.6-3.4,6.1-6.1s2.3-5.4,2.3-8.4s-0.8-6.1-2.3-8.4c-1.5-2.7-3.4-4.6-6.1-6.1c-2.7-1.5-5.4-2.3-8.4-2.3h-6.1
					c-0.4,0-0.4,0-0.8,0.4c0,0-0.4,0.4-0.4,0.8v4.6c0,0.4,0,0.8-0.4,1.1s-0.8,0.4-1.1,0.4h-6.5c-0.4,0-0.8,0-1.1-0.4
					c-0.4-0.4-0.4-0.8-0.4-1.1V31c0-0.4,0-0.8,0.4-1.1c0.4-0.4,0.8-0.4,1.1-0.4h15.7c5,0,9.6,1.1,13.8,3.8c4.2,2.3,7.3,5.7,10,10
					c2.3,4.2,3.8,8.8,3.8,13.8s-1.1,9.6-3.8,13.8c-2.3,4.2-5.7,7.3-10,10c-4.2,2.3-8.8,3.8-13.8,3.8h-6.1
					C397.5,83.5,397.1,83.5,396.7,83.1z"/>
				<path d="M443.1,83.1c-0.4-0.4-0.4-0.8-0.4-1.1V30.6c0-0.4,0-0.8,0.4-1.1s0.8-0.4,1.1-0.4h34.9c0.4,0,0.8,0,1.1,0.4
					c0.4,0.4,0.4,0.8,0.4,1.1v6.5c0,0.4,0,0.8-0.4,1.1c-0.4,0.4-0.8,0.4-1.1,0.4h-25.3c-0.4,0-0.8,0-1.1,0.4
					c-0.4,0.4-0.4,0.8-0.4,1.1v11.5v0.4c0,0.4,0,0.8,0.4,1.1c0.4,0,0.8,0.4,1.5,0.4h19.5c0.4,0,0.8,0,0.8,0.4
					c0.4,0.4,0.4,0.4,0.4,0.8v6.5c0,0.4,0,0.8-0.4,0.8c-0.4,0.4-0.4,0.4-0.8,0.4h-19.9c-0.8,0-1.1,0.4-1.5,0.8
					c-0.4,0.4-0.4,0.8-0.4,1.1v8.4c0,0.4,0,1.1,0.4,1.1c0.4,0.4,0.8,0.4,1.9,0.4h24.9c0.4,0,0.8,0,1.1,0.4c0.4,0.4,0.4,0.8,0.4,1.1
					v6.5c0,0.4,0,0.8-0.4,1.1c-0.4,0.4-0.8,0.4-1.1,0.4h-35.2C443.4,83.5,443.1,83.1,443.1,83.1z"/>
				<path d="M492.9,83.1c-0.4-0.4-0.4-0.4-0.4-0.8V30.3c0-0.4,0-0.4,0.4-0.8c0.4-0.4,0.4-0.4,0.8-0.4h8c0.4,0,0.8,0,0.8,0.4l18.4,31
					c0.4,1.1,1.1,1.5,1.5,1.5s0.8-0.4,0.8-1.5V29.9c0-0.4,0-0.4,0.4-0.8c0.4-0.4,0.4-0.4,0.8-0.4h8c0.4,0,0.8,0,0.8,0.4
					c0.4,0.4,0.4,0.4,0.4,0.8V82c0,0.4,0,0.4-0.4,0.8c-0.4,0.4-0.4,0.4-0.8,0.4h-5.7c-0.8,0-1.5,0-1.9-0.4c-0.4,0-0.8-0.4-1.1-1.1
					l-19.5-31c-0.4-0.4-0.8-0.8-0.8-0.8c-0.4,0-0.8,0.4-0.8,1.1v31c0,0.4,0,0.4-0.4,0.8c-0.4,0.4-0.4,0.4-0.8,0.4h-7.7
					C493.3,83.5,493.3,83.5,492.9,83.1z"/>
				<path d="M561.4,83.5c0-0.4-0.4-0.4-0.4-0.8V40.6c0-0.4-0.4-0.8-0.8-1.1c-0.4-0.4-0.8-0.8-1.5-0.8h-13c-0.4,0-0.4,0-0.8-0.4
					c-0.4-0.4-0.4-0.4-0.4-0.8v-7.7c0-0.4,0-0.4,0.4-0.8c0,0,0.4-0.4,0.8-0.4h41c0.4,0,0.4,0,0.8,0.4c0.4,0.4,0.4,0.4,0.4,0.8v7.3
					c0,0.4,0,0.4-0.4,0.8s-0.4,0.4-0.8,0.4h-13c-0.4,0-1.1,0-1.1,0.4c-0.4,0.4-0.4,0.8-0.4,1.1V82c0,0.4,0,0.4-0.4,0.8
					c0,0.4-0.4,0.4-0.8,0.4h-9.2C561.8,83.5,561.4,83.5,561.4,83.5z"/>
				<path d="M665.7,80.5c-4.2-2.7-7.7-5.7-10-10.3c-2.3-4.2-3.8-8.8-3.8-14.2c0-5,1.1-9.6,3.8-13.8c2.3-4.2,5.7-7.7,10-10.3
					s8.8-3.8,13.8-3.8c3.8,0,7.7,0.8,11.1,2.3c3.4,1.5,6.5,3.8,9.2,6.5c0.4,0.4,0.4,0.8,0.4,1.1c0,0.4,0,0.8-0.4,1.1
					c-1.1,0.8-2.3,1.9-3.4,2.7c-1.1,1.1-1.9,1.5-2.3,1.9c-0.4,0.4-0.8,0.4-1.1,0.4c-0.4,0-0.8,0-1.1-0.4c-1.5-1.9-3.4-3.1-5.7-4.2
					c-2.3-1.1-4.6-1.5-6.9-1.5c-3.1,0-6.1,0.8-8.8,2.3c-2.7,1.5-4.6,3.8-6.5,6.5c-1.5,2.7-2.3,5.7-2.3,8.8s0.8,6.1,2.3,8.8
					c1.5,2.7,3.8,5,6.5,6.5c2.7,1.5,5.7,2.3,8.8,2.3c2.3,0,4.2-0.4,6.5-1.1c1.9-0.8,3.8-2.3,5.7-3.8c0.4-0.4,1.1-0.8,1.5-0.8
					s0.8,0,1.1,0.4c0.4,0.4,1.1,1.1,2.3,1.9c0.8,0.8,1.9,1.5,2.3,2.3c0.4,0.4,0.8,1.1,0.8,1.5c0,0.4,0,0.8-0.4,1.1
					c-2.7,2.7-5.7,5-9.2,6.5c-3.4,1.5-7.3,2.3-11.1,2.3C674.5,84.3,669.9,82.8,665.7,80.5z"/>
				<path d="M715.1,74.7c-2.7-3.1-4.6-6.1-5.7-9.6v-0.4c-0.8-2.7-1.5-5.7-1.5-8.8c0-3.1,0.4-6.5,1.5-9.6c1.1-3.1,2.7-6.1,5-8.4
					c2.7-3.1,5.7-5.4,8.8-6.9c3.1-1.5,6.5-2.7,11.1-2.7h0.4c4.2-0.4,8.4,0.4,12.6,2.3c2.7,1.1,5,2.7,7.7,5c2.3,2.3,4.2,4.2,5.4,6.5
					c2.3,4.2,3.8,8.8,3.8,13.8c0,3.1-0.4,5.7-1.1,8.4c-0.8,2.7-2.3,5.4-3.8,7.7c-1.1,1.9-2.7,3.4-4.2,4.6c-1.5,1.5-3.4,2.7-5.7,3.8
					c-3.8,1.9-8.4,3.1-13,3.1c-3.8,0-7.7-0.8-11.1-2.3C720.8,80.1,717.8,77.8,715.1,74.7z M748.8,67.8c1.5-1.5,2.3-3.1,3.1-4.6
					c1.1-2.3,1.5-5,1.5-7.3c0-3.4-0.8-6.5-2.7-9.6s-4.6-5.4-7.7-6.5c-2.3-1.1-5-1.5-7.3-1.5s-4.6,0.4-6.5,1.1
					c-1.9,0.8-3.8,1.9-5.7,3.8l-1.1,1.5c-1.5,1.5-2.3,3.4-3.1,5.4c-0.8,1.9-1.1,3.8-1.1,6.1c0,2.7,0.4,5,1.5,7.7
					c1.1,2.3,2.7,4.6,4.6,6.1c3.4,2.7,7.3,4.2,11.5,4.2c2.7,0,5.4-0.8,8-1.9C745.7,70.9,747.6,69.7,748.8,67.8z"/>
				<path d="M776.8,83.1c-0.4-0.4-0.4-0.8-0.4-1.1V30.3c0-0.4,0-0.8,0.4-1.1c0.4-0.4,0.8-0.4,1.1-0.4h8c0.4,0,0.8,0,1.1,0.4
					c0.4,0.4,0.4,0.8,0.4,1.1V82c0,0.4,0,0.8-0.4,1.1c-0.4,0.4-0.8,0.4-1.1,0.4h-8C777.5,83.5,777.1,83.1,776.8,83.1z"/>
				<path d="M803.6,82.8c-0.4-0.4-0.4-0.4-0.4-0.8V29.9c0-0.4,0-0.4,0.4-0.8c0.4-0.4,0.4-0.4,0.8-0.4h8c0.4,0,0.8,0,0.8,0.4l18.4,31
					c0.4,1.1,1.1,1.5,1.5,1.5s0.8-0.4,0.8-1.5V29.5c0-0.4,0-0.4,0.4-0.8c0.4-0.4,0.4-0.4,0.8-0.4h8c0.4,0,0.8,0,0.8,0.4
					c0.4,0.4,0.4,0.4,0.4,0.8v52.1c0,0.4,0,0.4-0.4,0.8c-0.4,0.4-0.4,0.4-0.8,0.4h-5.4c-0.8,0-1.5,0-1.9-0.4c-0.4,0-0.8-0.4-1.1-1.1
					l-19.5-31c-0.4-0.4-0.8-0.8-0.8-0.8c-0.4,0-0.8,0.4-0.8,1.1v31c0,0.4,0,0.4-0.4,0.8c-0.4,0.4-0.4,0.4-0.8,0.4h-7.7
					C804,83.1,803.6,83.1,803.6,82.8z"/>
			</g>
			<g>
				<path d="M595.9,83.5c0-0.4-0.4-0.4,0-0.8l13.8-52.5c0-0.4,0.4-0.8,0.8-0.8c0.4-0.4,0.8-0.4,1.1-0.4h16.1c0.4,0,0.8,0,0.8,0.4
					c0.4,0.4,0.4,0.4,0.8,0.8l13.8,52.5v0.4c0,0.4-0.4,0.8-0.8,0.8h-7.7c-0.4,0-0.8,0-1.1-0.4s-0.4-0.4-0.8-0.8l-3.8-14.6
					c0-0.4-0.4-0.8-0.8-1.1s-0.8-0.4-1.1-0.4H612c-0.4,0-0.8,0-1.1,0.4c-0.4,0.4-0.8,0.8-0.8,1.1l-3.8,14.6c0,0.4-0.4,0.8-0.8,0.8
					c-0.4,0.4-0.8,0.4-1.1,0.4h-7.7C596.3,83.9,596.3,83.5,595.9,83.5z M624.3,58.2c0.4,0,0.8,0,1.1-0.4c0.4-0.4,0.4-0.8,0.4-1.1
					l-4.2-16.1c0-0.4-0.4-0.8-0.8-1.1c-0.4-0.4-0.8-0.4-1.1-0.4h-0.4c-0.4,0-0.8,0-1.1,0.4c-0.4,0.4-0.8,0.8-0.8,1.1l-4.2,16.1v0.4
					c0,0.4,0,0.8,0.4,1.1c0.4,0.4,0.8,0.4,1.1,0.4h9.6V58.2z"/>
			</g>
		</g>
		<g>
			<path id="XMLID_1_" d="M364.9,56.3c0,29.1-23.8,52.9-52.9,52.5c-14.6,0-27.2-6.1-36.8-15.3c-9.6-9.6-15.7-23-15.7-37.9
				c0-29.1,23.8-52.9,52.9-52.5C341.5,3.4,364.9,27.2,364.9,56.3z"/>
			<path class="st0" d="M287.1,73.9l-11.9,19.9c0,0,4.6,6.5,18.4,11.9l6.9-18.4l4.6-12.3l4.6-13.4l1.5-4.6l0.4-0.4c0,0,0,0,0-0.4
				l0,0l0,0l0,0l0,0l0,0l0.4,0.4l0.4,1.1l0.8,2.7l3.1,9.6l2.7,8.4l4.2,13l3.4,9.2l1.9,5c0,0,10.7-3.1,19.9-11.9l-6.5-10l-4.2-7.3
				l-4.2-7.7l-3.4-7.7l-2.7-6.9l-2.3-6.5l-2.3-6.5l-2.3-7.3l-2.3-7.7l-1.9-7.7l-2.3-8.4L312,5.7l-2.7,8l-3.4,11.5l-2.7,8.8l-3.4,9.6
				l-2.7,8l-3.1,7.7l-3.4,7.3L287.1,73.9z"/>
		</g>
	</g>
	<g>
		<g>
			<g>
				<rect x="825.4" y="168.6" class="st1" width="16.1" height="3.1"/>
			</g>
			<g>
				<path class="st1" d="M792.9,172h-32.2v-3.4h32.2V172z M728.5,172h-32.2v-3.4h32.2V172z M663.7,172h-32.2v-3.4h32.2V172z
					 M599,172h-32.2v-3.4H599V172z M534.2,172h-32.2v-3.4h32.2V172z M469.5,172h-32.2v-3.4h32.2V172z M405.1,172H373v-3.4h32.2V172z
					 M340.4,172h-32.2v-3.4h32.2V172z"/>
			</g>
			<g>
				<rect x="259.6" y="168.6" class="st1" width="16.1" height="3.1"/>
			</g>
		</g>
		<g>
			<g>
				<rect x="839.2" y="162.1" class="st2" width="4.6" height="16.1"/>
			</g>
			<g>
				<g>
					<rect x="835.8" y="169.7" class="st1" width="8" height="10"/>
				</g>
				<g>
					<rect x="835.8" y="160.5" class="st1" width="8" height="9.6"/>
				</g>
			</g>
		</g>
		<g>
			<g>
				<rect x="260.7" y="162.1" class="st2" width="4.6" height="16.1"/>
			</g>
			<g>
				<g>
					<rect x="259.6" y="170.1" class="st1" width="6.5" height="9.6"/>
				</g>
				<g>
					<rect x="259.6" y="160.5" class="st1" width="6.5" height="9.6"/>
				</g>
			</g>
		</g>
	</g>
	<g>
		<g>
			<g>
				<rect x="195.2" y="3.8" class="st1" width="3.1" height="16.1"/>
			</g>
			<g>
				<rect x="195.2" y="44.1" class="st1" width="3.1" height="24.5"/>
			</g>
			<g>
				<rect x="195.2" y="93.1" class="st1" width="3.1" height="16.1"/>
			</g>
		</g>
		<g>
			<g>
				<rect x="188.7" y="3.1" class="st2" width="16.1" height="0.8"/>
			</g>
			<g>
				<g>
					<rect x="197.1" class="st1" width="9.6" height="4.2"/>
				</g>
				<g>
					<rect x="187.1" class="st1" width="9.6" height="4.2"/>
				</g>
			</g>
		</g>
		<g>
			<g>
				<rect x="188.7" y="108" class="st2" width="16.1" height="0.8"/>
			</g>
			<g>
				<g>
					<rect x="197.1" y="108" class="st1" width="9.6" height="3.8"/>
				</g>
				<g>
					<rect x="187.1" y="108" class="st1" width="9.6" height="3.8"/>
				</g>
			</g>
		</g>
	</g>
</g>
<g>
	<path class="st3" d="M6,54c1.7-0.4,3.3-0.6,4.7-0.6c1.7,0,3.2,0.3,4.6,0.8c1.3,0.5,2.4,1.2,3.3,2.1c0.9,0.9,1.5,1.9,2,3.2
		s0.7,2.5,0.7,4c0,1.8-0.3,3.3-0.9,4.7s-1.4,2.6-2.5,3.6s-2.3,1.8-3.8,2.3s-3,0.8-4.7,0.8c-1,0-1.9-0.1-2.8-0.3
		c-0.9-0.2-1.7-0.4-2.5-0.8c-0.8-0.3-1.5-0.7-2.2-1.1c-0.7-0.4-1.2-0.9-1.8-1.3l1.3-1.8c0.3-0.4,0.6-0.6,1.1-0.6
		c0.3,0,0.7,0.1,1,0.4C4,69.7,4.4,70,5,70.3c0.6,0.3,1.2,0.6,1.9,0.8c0.7,0.2,1.6,0.4,2.7,0.4c1.2,0,2.2-0.2,3.1-0.6
		c0.9-0.4,1.7-0.9,2.4-1.6c0.7-0.7,1.2-1.5,1.5-2.5c0.4-1,0.5-2,0.5-3.2c0-1-0.1-2-0.4-2.8s-0.8-1.5-1.4-2.1c-0.6-0.6-1.4-1-2.3-1.4
		c-0.9-0.3-2-0.5-3.2-0.5c-0.8,0-1.7,0.1-2.6,0.2c-0.9,0.1-1.8,0.4-2.8,0.7L2,57l2.6-15.4h15.6v1.8c0,0.6-0.2,1.1-0.5,1.4
		c-0.4,0.4-1,0.6-1.9,0.6H7.5L6,54z"/>
	<path class="st3" d="M26.9,72c0-0.4,0.1-0.8,0.2-1.1c0.1-0.4,0.3-0.7,0.6-0.9c0.3-0.3,0.6-0.5,0.9-0.6s0.7-0.2,1.1-0.2
		c0.4,0,0.8,0.1,1.1,0.2s0.7,0.4,0.9,0.6c0.3,0.3,0.5,0.6,0.6,0.9c0.2,0.4,0.2,0.7,0.2,1.1c0,0.4-0.1,0.8-0.2,1.1
		c-0.2,0.3-0.4,0.6-0.6,0.9c-0.3,0.3-0.6,0.5-0.9,0.6c-0.4,0.1-0.7,0.2-1.1,0.2c-0.4,0-0.8-0.1-1.1-0.2c-0.4-0.1-0.7-0.3-0.9-0.6
		c-0.3-0.3-0.5-0.6-0.6-0.9C27,72.8,26.9,72.5,26.9,72z"/>
	<path class="st3" d="M53.3,57.4c2.1,0.6,3.6,1.6,4.7,2.9c1.1,1.4,1.7,3.1,1.7,5.3c0,1.4-0.3,2.7-0.8,3.9s-1.3,2.1-2.3,3
		c-1,0.8-2.1,1.4-3.5,1.9c-1.4,0.4-2.9,0.7-4.5,0.7c-1.6,0-3.1-0.2-4.5-0.7s-2.5-1.1-3.5-1.9c-1-0.8-1.7-1.8-2.3-3
		c-0.5-1.2-0.8-2.5-0.8-3.9c0-2.1,0.6-3.9,1.7-5.3c1.1-1.4,2.7-2.3,4.7-2.9c-1.7-0.6-3-1.6-3.9-2.9s-1.3-2.8-1.3-4.6
		c0-1.2,0.2-2.3,0.7-3.4c0.5-1.1,1.2-2,2-2.8c0.9-0.8,1.9-1.4,3.1-1.8s2.6-0.7,4.1-0.7c1.5,0,2.8,0.2,4.1,0.7s2.3,1.1,3.2,1.8
		c0.9,0.8,1.6,1.7,2,2.8s0.7,2.2,0.7,3.4c0,1.8-0.4,3.3-1.3,4.6S55,56.7,53.3,57.4z M48.6,71.7c1.1,0,2-0.2,2.9-0.4
		c0.9-0.3,1.6-0.7,2.2-1.3c0.6-0.5,1-1.2,1.4-2c0.3-0.8,0.5-1.6,0.5-2.5c0-1.1-0.2-2.1-0.6-2.9c-0.4-0.8-0.9-1.5-1.5-2
		s-1.4-0.9-2.2-1.1c-0.8-0.2-1.7-0.4-2.6-0.4c-0.9,0-1.8,0.1-2.6,0.4c-0.8,0.2-1.6,0.6-2.2,1.1c-0.6,0.5-1.1,1.2-1.5,2
		s-0.6,1.8-0.6,2.9c0,0.9,0.2,1.8,0.5,2.5c0.3,0.8,0.8,1.4,1.4,2s1.3,1,2.2,1.3C46.5,71.5,47.5,71.7,48.6,71.7z M48.6,44.4
		c-1,0-1.8,0.1-2.6,0.4c-0.7,0.3-1.4,0.7-1.9,1.2c-0.5,0.5-0.9,1.1-1.1,1.8c-0.3,0.7-0.4,1.4-0.4,2.2c0,0.8,0.1,1.5,0.3,2.2
		c0.2,0.7,0.6,1.3,1,1.9s1.1,1,1.9,1.3c0.8,0.3,1.7,0.5,2.8,0.5c1.1,0,2-0.2,2.8-0.5c0.8-0.3,1.4-0.8,1.9-1.3c0.5-0.5,0.8-1.2,1-1.9
		c0.2-0.7,0.3-1.4,0.3-2.2c0-0.8-0.1-1.5-0.4-2.2c-0.3-0.7-0.6-1.3-1.1-1.8c-0.5-0.5-1.1-0.9-1.9-1.2C50.4,44.5,49.6,44.4,48.6,44.4
		z"/>
	<path class="st3" d="M77,74.6V51.2h2.5c0.6,0,0.9,0.3,1.1,0.9l0.3,2.4c0.9-1.1,1.8-1.9,2.9-2.6c1.1-0.7,2.3-1,3.7-1
		c1.6,0,2.8,0.4,3.8,1.3c1,0.9,1.7,2.1,2.1,3.5c0.3-0.8,0.8-1.6,1.3-2.2c0.5-0.6,1.1-1.1,1.8-1.5c0.7-0.4,1.4-0.7,2.1-0.9
		c0.7-0.2,1.5-0.3,2.3-0.3c1.2,0,2.3,0.2,3.3,0.6s1.8,1,2.4,1.7c0.7,0.8,1.2,1.7,1.5,2.8s0.5,2.4,0.5,3.8v14.9h-4.1V59.7
		c0-1.8-0.4-3.2-1.2-4.2c-0.8-0.9-2-1.4-3.5-1.4c-0.7,0-1.3,0.1-1.9,0.4c-0.6,0.2-1.1,0.6-1.6,1c-0.5,0.5-0.8,1-1.1,1.7
		c-0.3,0.7-0.4,1.5-0.4,2.4v14.9h-4.1V59.7c0-1.9-0.4-3.3-1.1-4.2s-1.8-1.4-3.3-1.4c-1,0-2,0.3-2.8,0.8c-0.9,0.5-1.7,1.3-2.4,2.2
		v17.4H77z"/>
	<path class="st3" d="M114.8,74.6V51.2h2.5c0.6,0,0.9,0.3,1.1,0.9l0.3,2.4c0.9-1.1,1.8-1.9,2.9-2.6c1.1-0.7,2.3-1,3.7-1
		c1.6,0,2.8,0.4,3.8,1.3c1,0.9,1.7,2.1,2.1,3.5c0.3-0.8,0.8-1.6,1.3-2.2c0.5-0.6,1.1-1.1,1.8-1.5c0.7-0.4,1.4-0.7,2.1-0.9
		c0.7-0.2,1.5-0.3,2.3-0.3c1.2,0,2.3,0.2,3.3,0.6s1.8,1,2.4,1.7c0.7,0.8,1.2,1.7,1.5,2.8s0.5,2.4,0.5,3.8v14.9h-4.1V59.7
		c0-1.8-0.4-3.2-1.2-4.2c-0.8-0.9-2-1.4-3.5-1.4c-0.7,0-1.3,0.1-1.9,0.4c-0.6,0.2-1.1,0.6-1.6,1c-0.5,0.5-0.8,1-1.1,1.7
		c-0.3,0.7-0.4,1.5-0.4,2.4v14.9h-4.1V59.7c0-1.9-0.4-3.3-1.1-4.2s-1.8-1.4-3.3-1.4c-1,0-2,0.3-2.8,0.8c-0.9,0.5-1.7,1.3-2.4,2.2
		v17.4H114.8z"/>
</g>
<g>
	<path class="st3" d="M495.5,220.8c0.2-1.5,0.6-2.8,1.2-4c0.6-1.2,1.4-2.1,2.3-2.9s2-1.4,3.2-1.8c1.2-0.4,2.5-0.6,3.9-0.6
		c1.4,0,2.7,0.2,3.9,0.6s2.2,1,3,1.7c0.9,0.7,1.5,1.6,2,2.7c0.5,1,0.7,2.2,0.7,3.5c0,1-0.1,2-0.4,2.8c-0.3,0.8-0.7,1.5-1.1,2.1
		c-0.5,0.6-1.1,1.1-1.8,1.6c-0.7,0.4-1.5,0.8-2.4,1.1c2.1,0.6,3.8,1.5,4.8,2.8c1.1,1.3,1.6,3,1.6,5c0,1.5-0.3,2.9-0.9,4.1
		c-0.6,1.2-1.4,2.2-2.4,3.1c-1,0.9-2.2,1.5-3.5,2c-1.3,0.5-2.7,0.7-4.3,0.7c-1.7,0-3.2-0.2-4.5-0.7c-1.2-0.4-2.3-1-3.1-1.8
		c-0.9-0.8-1.6-1.7-2.1-2.7c-0.6-1-1-2.2-1.4-3.4l1.8-0.7c0.5-0.2,0.9-0.3,1.3-0.2s0.8,0.3,1,0.8c0.2,0.4,0.4,0.9,0.7,1.5
		c0.3,0.6,0.7,1.2,1.2,1.7s1.2,1,2,1.4c0.8,0.4,1.8,0.6,3.1,0.6c1.1,0,2.2-0.2,3-0.6c0.9-0.4,1.6-0.9,2.2-1.5s1-1.3,1.3-2
		c0.3-0.7,0.4-1.5,0.4-2.2c0-0.9-0.1-1.7-0.3-2.4c-0.2-0.7-0.7-1.4-1.3-1.9c-0.6-0.5-1.5-1-2.6-1.3c-1.1-0.3-2.5-0.5-4.2-0.5v-3
		c1.4,0,2.6-0.2,3.6-0.5c1-0.3,1.8-0.7,2.4-1.2c0.6-0.5,1.1-1.1,1.4-1.8c0.3-0.7,0.4-1.5,0.4-2.3c0-1-0.1-1.8-0.4-2.5
		c-0.3-0.7-0.7-1.3-1.2-1.7s-1.1-0.8-1.8-1c-0.7-0.2-1.5-0.3-2.3-0.3s-1.6,0.1-2.3,0.4c-0.7,0.2-1.3,0.6-1.9,1c-0.5,0.4-1,1-1.4,1.6
		c-0.4,0.6-0.6,1.3-0.8,2c-0.2,0.5-0.4,0.9-0.7,1.1c-0.3,0.2-0.7,0.2-1.3,0.1L495.5,220.8z"/>
	<path class="st3" d="M541.8,240.9c0.4,0,0.8,0.1,1.1,0.4c0.3,0.3,0.4,0.6,0.4,1v2.5h-22v-1.4c0-0.3,0.1-0.6,0.2-0.9
		s0.3-0.6,0.6-0.9l10.5-10.6c0.9-0.9,1.7-1.7,2.4-2.6s1.3-1.6,1.8-2.5c0.5-0.8,0.9-1.7,1.2-2.5c0.3-0.9,0.4-1.8,0.4-2.7
		c0-1-0.2-1.8-0.5-2.5c-0.3-0.7-0.7-1.3-1.3-1.8c-0.5-0.5-1.2-0.8-1.9-1.1c-0.7-0.2-1.5-0.4-2.3-0.4c-0.8,0-1.6,0.1-2.3,0.4
		c-0.7,0.2-1.3,0.6-1.9,1c-0.5,0.4-1,1-1.4,1.6c-0.4,0.6-0.6,1.3-0.8,2c-0.2,0.5-0.4,0.9-0.7,1.1c-0.3,0.2-0.8,0.2-1.3,0.1l-2.1-0.4
		c0.2-1.5,0.6-2.8,1.3-4c0.6-1.2,1.4-2.1,2.3-2.9s2-1.4,3.2-1.8c1.2-0.4,2.5-0.6,3.9-0.6c1.4,0,2.7,0.2,3.9,0.6
		c1.2,0.4,2.3,1,3.1,1.8c0.9,0.8,1.6,1.8,2.1,2.9s0.8,2.4,0.8,3.9c0,1.2-0.2,2.4-0.6,3.4c-0.4,1-0.9,2-1.5,3s-1.4,1.9-2.2,2.8
		c-0.8,0.9-1.7,1.8-2.6,2.7l-8.7,8.9c0.6-0.2,1.2-0.3,1.9-0.4s1.2-0.1,1.8-0.1H541.8z"/>
	<path class="st3" d="M560.8,244.8v-23.3h2.5c0.6,0,0.9,0.3,1.1,0.9l0.3,2.4c0.9-1.1,1.8-1.9,2.9-2.6c1.1-0.7,2.3-1,3.7-1
		c1.6,0,2.8,0.4,3.8,1.3c1,0.9,1.7,2.1,2.1,3.5c0.3-0.8,0.8-1.6,1.3-2.2c0.5-0.6,1.1-1.1,1.8-1.5c0.7-0.4,1.4-0.7,2.1-0.9
		c0.7-0.2,1.5-0.3,2.3-0.3c1.2,0,2.3,0.2,3.3,0.6c1,0.4,1.8,1,2.4,1.7c0.7,0.8,1.2,1.7,1.5,2.8c0.4,1.1,0.5,2.3,0.5,3.8v14.8h-4.1
		V230c0-1.8-0.4-3.2-1.2-4.1c-0.8-0.9-1.9-1.4-3.4-1.4c-0.7,0-1.3,0.1-1.9,0.4c-0.6,0.2-1.1,0.6-1.6,1c-0.5,0.5-0.8,1-1.1,1.7
		c-0.3,0.7-0.4,1.5-0.4,2.4v14.8h-4.1V230c0-1.9-0.4-3.3-1.1-4.2s-1.8-1.4-3.3-1.4c-1,0-1.9,0.3-2.8,0.8c-0.9,0.5-1.6,1.3-2.4,2.2
		v17.3H560.8z"/>
	<path class="st3" d="M598.6,244.8v-23.3h2.5c0.6,0,0.9,0.3,1.1,0.9l0.3,2.4c0.9-1.1,1.8-1.9,2.9-2.6c1.1-0.7,2.3-1,3.7-1
		c1.6,0,2.8,0.4,3.8,1.3c1,0.9,1.7,2.1,2.1,3.5c0.3-0.8,0.8-1.6,1.3-2.2c0.5-0.6,1.1-1.1,1.8-1.5c0.7-0.4,1.4-0.7,2.1-0.9
		c0.7-0.2,1.5-0.3,2.3-0.3c1.2,0,2.3,0.2,3.3,0.6c1,0.4,1.8,1,2.4,1.7c0.7,0.8,1.2,1.7,1.5,2.8c0.4,1.1,0.5,2.3,0.5,3.8v14.8h-4.1
		V230c0-1.8-0.4-3.2-1.2-4.1c-0.8-0.9-1.9-1.4-3.4-1.4c-0.7,0-1.3,0.1-1.9,0.4c-0.6,0.2-1.1,0.6-1.6,1c-0.5,0.5-0.8,1-1.1,1.7
		c-0.3,0.7-0.4,1.5-0.4,2.4v14.8h-4.1V230c0-1.9-0.4-3.3-1.1-4.2s-1.8-1.4-3.3-1.4c-1,0-1.9,0.3-2.8,0.8c-0.9,0.5-1.6,1.3-2.4,2.2
		v17.3H598.6z"/>
</g>
</svg>
