<?xml version="1.0" encoding="utf-8"?>
<!-- Generator: Adobe Illustrator 23.0.1, SVG Export Plug-In . SVG Version: 6.00 Build 0)  -->
<svg version="1.1" id="Layer_1" xmlns="http://www.w3.org/2000/svg" xmlns:xlink="http://www.w3.org/1999/xlink" x="0px" y="0px"
	 viewBox="0 0 844.2 244.8" style="enable-background:new 0 0 844.2 244.8;" xml:space="preserve">
<style type="text/css">
	.st0{fill:#EC1C24;}
	.st1{fill:#231F20;}
	.st2{fill:#333333;}
	.st3{fill:#010101;}
	.st4{fill:#FFFFFF;}
</style>
<g>
	<g>
		<g>
			<g>
				<rect x="825.4" y="168.6" class="st0" width="16.1" height="3.1"/>
			</g>
			<g>
				<path class="st0" d="M792.9,172h-32.2v-3.4h32.2V172z M728.5,172h-32.2v-3.4h32.2V172z M663.7,172h-32.2v-3.4h32.2V172z
					 M599,172h-32.2v-3.4H599V172z M534.2,172H502v-3.4h32.2V172z M469.5,172h-32.2v-3.4h32.2V172z M405.1,172H373v-3.4h32.2v3.4
					H405.1z M340.4,172h-32.2v-3.4h32.2V172z"/>
			</g>
			<g>
				<rect x="259.6" y="168.6" class="st0" width="16.1" height="3.1"/>
			</g>
		</g>
		<g>
			<g>
				<rect x="839.2" y="162.1" class="st1" width="4.6" height="16.1"/>
			</g>
			<g>
				<g>
					<rect x="835.8" y="169.7" class="st0" width="8" height="10"/>
				</g>
				<g>
					<rect x="835.8" y="160.5" class="st0" width="8" height="9.6"/>
				</g>
			</g>
		</g>
		<g>
			<g>
				<rect x="260.7" y="162.1" class="st1" width="4.6" height="16.1"/>
			</g>
			<g>
				<g>
					<rect x="259.6" y="170.1" class="st0" width="6.5" height="9.6"/>
				</g>
				<g>
					<rect x="259.6" y="160.5" class="st0" width="6.5" height="9.6"/>
				</g>
			</g>
		</g>
	</g>
	<g>
		<g>
			<g>
				<rect x="195.2" y="3.8" class="st0" width="3.1" height="16.1"/>
			</g>
			<g>
				<rect x="195.2" y="44.1" class="st0" width="3.1" height="24.5"/>
			</g>
			<g>
				<rect x="195.2" y="93.1" class="st0" width="3.1" height="16.1"/>
			</g>
		</g>
		<g>
			<g>
				<rect x="188.7" y="3.1" class="st1" width="16.1" height="0.8"/>
			</g>
			<g>
				<g>
					<rect x="197.1" y="0" class="st0" width="9.6" height="4.2"/>
				</g>
				<g>
					<rect x="187.1" y="0" class="st0" width="9.6" height="4.2"/>
				</g>
			</g>
		</g>
		<g>
			<g>
				<rect x="188.7" y="108" class="st1" width="16.1" height="0.8"/>
			</g>
			<g>
				<g>
					<rect x="197.1" y="108" class="st0" width="9.6" height="3.8"/>
				</g>
				<g>
					<rect x="187.1" y="108" class="st0" width="9.6" height="3.8"/>
				</g>
			</g>
		</g>
	</g>
</g>
<g>
	<path class="st2" d="M6,54c1.7-0.4,3.3-0.6,4.7-0.6c1.7,0,3.2,0.3,4.6,0.8c1.3,0.5,2.4,1.2,3.3,2.1c0.9,0.9,1.5,1.9,2,3.2
		s0.7,2.5,0.7,4c0,1.8-0.3,3.3-0.9,4.7s-1.4,2.6-2.5,3.6s-2.3,1.8-3.8,2.3s-3,0.8-4.7,0.8c-1,0-1.9-0.1-2.8-0.3
		c-0.9-0.2-1.7-0.4-2.5-0.8c-0.8-0.3-1.5-0.7-2.2-1.1s-1.2-0.9-1.8-1.3l1.3-1.8C1.7,69.2,2,69,2.5,69c0.3,0,0.7,0.1,1,0.4
		C4,69.7,4.4,70,5,70.3s1.2,0.6,1.9,0.8c0.7,0.2,1.6,0.4,2.7,0.4c1.2,0,2.2-0.2,3.1-0.6c0.9-0.4,1.7-0.9,2.4-1.6s1.2-1.5,1.5-2.5
		c0.4-1,0.5-2,0.5-3.2c0-1-0.1-2-0.4-2.8s-0.8-1.5-1.4-2.1c-0.6-0.6-1.4-1-2.3-1.4c-0.9-0.3-2-0.5-3.2-0.5c-0.8,0-1.7,0.1-2.6,0.2
		c-0.9,0.1-1.8,0.4-2.8,0.7L2,57l2.6-15.4h15.6v1.8c0,0.6-0.2,1.1-0.5,1.4c-0.4,0.4-1,0.6-1.9,0.6H7.5L6,54z"/>
	<path class="st2" d="M26.9,72c0-0.4,0.1-0.8,0.2-1.1c0.1-0.4,0.3-0.7,0.6-0.9c0.3-0.3,0.6-0.5,0.9-0.6s0.7-0.2,1.1-0.2
		s0.8,0.1,1.1,0.2s0.7,0.4,0.9,0.6c0.3,0.3,0.5,0.6,0.6,0.9c0.2,0.4,0.2,0.7,0.2,1.1s-0.1,0.8-0.2,1.1c-0.2,0.3-0.4,0.6-0.6,0.9
		c-0.3,0.3-0.6,0.5-0.9,0.6c-0.4,0.1-0.7,0.2-1.1,0.2s-0.8-0.1-1.1-0.2c-0.4-0.1-0.7-0.3-0.9-0.6c-0.3-0.3-0.5-0.6-0.6-0.9
		C27,72.8,26.9,72.5,26.9,72z"/>
	<path class="st2" d="M53.3,57.4c2.1,0.6,3.6,1.6,4.7,2.9c1.1,1.4,1.7,3.1,1.7,5.3c0,1.4-0.3,2.7-0.8,3.9s-1.3,2.1-2.3,3
		c-1,0.8-2.1,1.4-3.5,1.9c-1.4,0.4-2.9,0.7-4.5,0.7s-3.1-0.2-4.5-0.7s-2.5-1.1-3.5-1.9s-1.7-1.8-2.3-3c-0.5-1.2-0.8-2.5-0.8-3.9
		c0-2.1,0.6-3.9,1.7-5.3c1.1-1.4,2.7-2.3,4.7-2.9c-1.7-0.6-3-1.6-3.9-2.9s-1.3-2.8-1.3-4.6c0-1.2,0.2-2.3,0.7-3.4
		c0.5-1.1,1.2-2,2-2.8c0.9-0.8,1.9-1.4,3.1-1.8s2.6-0.7,4.1-0.7s2.8,0.2,4.1,0.7s2.3,1.1,3.2,1.8c0.9,0.8,1.6,1.7,2,2.8
		s0.7,2.2,0.7,3.4c0,1.8-0.4,3.3-1.3,4.6S55,56.7,53.3,57.4z M48.6,71.7c1.1,0,2-0.2,2.9-0.4c0.9-0.3,1.6-0.7,2.2-1.3
		c0.6-0.5,1-1.2,1.4-2c0.3-0.8,0.5-1.6,0.5-2.5c0-1.1-0.2-2.1-0.6-2.9c-0.4-0.8-0.9-1.5-1.5-2s-1.4-0.9-2.2-1.1
		c-0.8-0.2-1.7-0.4-2.6-0.4c-0.9,0-1.8,0.1-2.6,0.4c-0.8,0.2-1.6,0.6-2.2,1.1c-0.6,0.5-1.1,1.2-1.5,2s-0.6,1.8-0.6,2.9
		c0,0.9,0.2,1.8,0.5,2.5c0.3,0.8,0.8,1.4,1.4,2s1.3,1,2.2,1.3C46.5,71.5,47.5,71.7,48.6,71.7z M48.6,44.4c-1,0-1.8,0.1-2.6,0.4
		c-0.7,0.3-1.4,0.7-1.9,1.2s-0.9,1.1-1.1,1.8c-0.3,0.7-0.4,1.4-0.4,2.2s0.1,1.5,0.3,2.2s0.6,1.3,1,1.9s1.1,1,1.9,1.3
		c0.8,0.3,1.7,0.5,2.8,0.5s2-0.2,2.8-0.5s1.4-0.8,1.9-1.3s0.8-1.2,1-1.9s0.3-1.4,0.3-2.2s-0.1-1.5-0.4-2.2c-0.3-0.7-0.6-1.3-1.1-1.8
		s-1.1-0.9-1.9-1.2C50.4,44.5,49.6,44.4,48.6,44.4z"/>
	<path class="st2" d="M77,74.6V51.2h2.5c0.6,0,0.9,0.3,1.1,0.9l0.3,2.4c0.9-1.1,1.8-1.9,2.9-2.6c1.1-0.7,2.3-1,3.7-1
		c1.6,0,2.8,0.4,3.8,1.3c1,0.9,1.7,2.1,2.1,3.5c0.3-0.8,0.8-1.6,1.3-2.2c0.5-0.6,1.1-1.1,1.8-1.5c0.7-0.4,1.4-0.7,2.1-0.9
		s1.5-0.3,2.3-0.3c1.2,0,2.3,0.2,3.3,0.6s1.8,1,2.4,1.7c0.7,0.8,1.2,1.7,1.5,2.8s0.5,2.4,0.5,3.8v14.9h-4.1V59.7
		c0-1.8-0.4-3.2-1.2-4.2c-0.8-0.9-2-1.4-3.5-1.4c-0.7,0-1.3,0.1-1.9,0.4c-0.6,0.2-1.1,0.6-1.6,1c-0.5,0.5-0.8,1-1.1,1.7
		c-0.3,0.7-0.4,1.5-0.4,2.4v14.9h-4.1V59.7c0-1.9-0.4-3.3-1.1-4.2s-1.8-1.4-3.3-1.4c-1,0-2,0.3-2.8,0.8c-0.9,0.5-1.7,1.3-2.4,2.2
		v17.4L77,74.6L77,74.6z"/>
	<path class="st2" d="M114.8,74.6V51.2h2.5c0.6,0,0.9,0.3,1.1,0.9l0.3,2.4c0.9-1.1,1.8-1.9,2.9-2.6c1.1-0.7,2.3-1,3.7-1
		c1.6,0,2.8,0.4,3.8,1.3c1,0.9,1.7,2.1,2.1,3.5c0.3-0.8,0.8-1.6,1.3-2.2c0.5-0.6,1.1-1.1,1.8-1.5s1.4-0.7,2.1-0.9
		c0.7-0.2,1.5-0.3,2.3-0.3c1.2,0,2.3,0.2,3.3,0.6s1.8,1,2.4,1.7c0.7,0.8,1.2,1.7,1.5,2.8s0.5,2.4,0.5,3.8v14.9h-4.1V59.7
		c0-1.8-0.4-3.2-1.2-4.2c-0.8-0.9-2-1.4-3.5-1.4c-0.7,0-1.3,0.1-1.9,0.4c-0.6,0.2-1.1,0.6-1.6,1c-0.5,0.5-0.8,1-1.1,1.7
		s-0.4,1.5-0.4,2.4v14.9h-4.1V59.7c0-1.9-0.4-3.3-1.1-4.2s-1.8-1.4-3.3-1.4c-1,0-2,0.3-2.8,0.8c-0.9,0.5-1.7,1.3-2.4,2.2v17.4
		L114.8,74.6L114.8,74.6z"/>
</g>
<g>
	<path class="st2" d="M495.5,220.8c0.2-1.5,0.6-2.8,1.2-4s1.4-2.1,2.3-2.9s2-1.4,3.2-1.8c1.2-0.4,2.5-0.6,3.9-0.6s2.7,0.2,3.9,0.6
		s2.2,1,3,1.7c0.9,0.7,1.5,1.6,2,2.7c0.5,1,0.7,2.2,0.7,3.5c0,1-0.1,2-0.4,2.8c-0.3,0.8-0.7,1.5-1.1,2.1c-0.5,0.6-1.1,1.1-1.8,1.6
		c-0.7,0.4-1.5,0.8-2.4,1.1c2.1,0.6,3.8,1.5,4.8,2.8c1.1,1.3,1.6,3,1.6,5c0,1.5-0.3,2.9-0.9,4.1c-0.6,1.2-1.4,2.2-2.4,3.1
		c-1,0.9-2.2,1.5-3.5,2s-2.7,0.7-4.3,0.7c-1.7,0-3.2-0.2-4.5-0.7c-1.2-0.4-2.3-1-3.1-1.8c-0.9-0.8-1.6-1.7-2.1-2.7
		c-0.6-1-1-2.2-1.4-3.4l1.8-0.7c0.5-0.2,0.9-0.3,1.3-0.2s0.8,0.3,1,0.8c0.2,0.4,0.4,0.9,0.7,1.5c0.3,0.6,0.7,1.2,1.2,1.7
		s1.2,1,2,1.4s1.8,0.6,3.1,0.6c1.1,0,2.2-0.2,3-0.6c0.9-0.4,1.6-0.9,2.2-1.5s1-1.3,1.3-2s0.4-1.5,0.4-2.2c0-0.9-0.1-1.7-0.3-2.4
		s-0.7-1.4-1.3-1.9c-0.6-0.5-1.5-1-2.6-1.3s-2.5-0.5-4.2-0.5v-3c1.4,0,2.6-0.2,3.6-0.5s1.8-0.7,2.4-1.2s1.1-1.1,1.4-1.8
		s0.4-1.5,0.4-2.3c0-1-0.1-1.8-0.4-2.5s-0.7-1.3-1.2-1.7s-1.1-0.8-1.8-1c-0.7-0.2-1.5-0.3-2.3-0.3s-1.6,0.1-2.3,0.4
		c-0.7,0.2-1.3,0.6-1.9,1c-0.5,0.4-1,1-1.4,1.6s-0.6,1.3-0.8,2c-0.2,0.5-0.4,0.9-0.7,1.1c-0.3,0.2-0.7,0.2-1.3,0.1L495.5,220.8z"/>
	<path class="st2" d="M541.8,240.9c0.4,0,0.8,0.1,1.1,0.4c0.3,0.3,0.4,0.6,0.4,1v2.5h-22v-1.4c0-0.3,0.1-0.6,0.2-0.9
		s0.3-0.6,0.6-0.9l10.5-10.6c0.9-0.9,1.7-1.7,2.4-2.6s1.3-1.6,1.8-2.5c0.5-0.8,0.9-1.7,1.2-2.5c0.3-0.9,0.4-1.8,0.4-2.7
		c0-1-0.2-1.8-0.5-2.5s-0.7-1.3-1.3-1.8c-0.5-0.5-1.2-0.8-1.9-1.1c-0.7-0.2-1.5-0.4-2.3-0.4s-1.6,0.1-2.3,0.4
		c-0.7,0.2-1.3,0.6-1.9,1c-0.5,0.4-1,1-1.4,1.6s-0.6,1.3-0.8,2c-0.2,0.5-0.4,0.9-0.7,1.1c-0.3,0.2-0.8,0.2-1.3,0.1l-2.1-0.4
		c0.2-1.5,0.6-2.8,1.3-4c0.6-1.2,1.4-2.1,2.3-2.9s2-1.4,3.2-1.8c1.2-0.4,2.5-0.6,3.9-0.6s2.7,0.2,3.9,0.6c1.2,0.4,2.3,1,3.1,1.8
		c0.9,0.8,1.6,1.8,2.1,2.9s0.8,2.4,0.8,3.9c0,1.2-0.2,2.4-0.6,3.4c-0.4,1-0.9,2-1.5,3s-1.4,1.9-2.2,2.8c-0.8,0.9-1.7,1.8-2.6,2.7
		l-8.7,8.9c0.6-0.2,1.2-0.3,1.9-0.4s1.2-0.1,1.8-0.1H541.8z"/>
	<path class="st2" d="M560.8,244.8v-23.3h2.5c0.6,0,0.9,0.3,1.1,0.9l0.3,2.4c0.9-1.1,1.8-1.9,2.9-2.6c1.1-0.7,2.3-1,3.7-1
		c1.6,0,2.8,0.4,3.8,1.3c1,0.9,1.7,2.1,2.1,3.5c0.3-0.8,0.8-1.6,1.3-2.2c0.5-0.6,1.1-1.1,1.8-1.5s1.4-0.7,2.1-0.9
		c0.7-0.2,1.5-0.3,2.3-0.3c1.2,0,2.3,0.2,3.3,0.6c1,0.4,1.8,1,2.4,1.7c0.7,0.8,1.2,1.7,1.5,2.8c0.4,1.1,0.5,2.3,0.5,3.8v14.8h-4.1
		V230c0-1.8-0.4-3.2-1.2-4.1c-0.8-0.9-1.9-1.4-3.4-1.4c-0.7,0-1.3,0.1-1.9,0.4c-0.6,0.2-1.1,0.6-1.6,1c-0.5,0.5-0.8,1-1.1,1.7
		s-0.4,1.5-0.4,2.4v14.8h-4.1V230c0-1.9-0.4-3.3-1.1-4.2s-1.8-1.4-3.3-1.4c-1,0-1.9,0.3-2.8,0.8c-0.9,0.5-1.6,1.3-2.4,2.2v17.3
		L560.8,244.8L560.8,244.8z"/>
	<path class="st2" d="M598.6,244.8v-23.3h2.5c0.6,0,0.9,0.3,1.1,0.9l0.3,2.4c0.9-1.1,1.8-1.9,2.9-2.6c1.1-0.7,2.3-1,3.7-1
		c1.6,0,2.8,0.4,3.8,1.3c1,0.9,1.7,2.1,2.1,3.5c0.3-0.8,0.8-1.6,1.3-2.2c0.5-0.6,1.1-1.1,1.8-1.5s1.4-0.7,2.1-0.9
		c0.7-0.2,1.5-0.3,2.3-0.3c1.2,0,2.3,0.2,3.3,0.6c1,0.4,1.8,1,2.4,1.7c0.7,0.8,1.2,1.7,1.5,2.8c0.4,1.1,0.5,2.3,0.5,3.8v14.8h-4.1
		V230c0-1.8-0.4-3.2-1.2-4.1c-0.8-0.9-1.9-1.4-3.4-1.4c-0.7,0-1.3,0.1-1.9,0.4c-0.6,0.2-1.1,0.6-1.6,1c-0.5,0.5-0.8,1-1.1,1.7
		s-0.4,1.5-0.4,2.4v14.8h-4.1V230c0-1.9-0.4-3.3-1.1-4.2s-1.8-1.4-3.3-1.4c-1,0-1.9,0.3-2.8,0.8c-0.9,0.5-1.6,1.3-2.4,2.2v17.3
		L598.6,244.8L598.6,244.8z"/>
</g>
<g>
	<g>
		<path id="XMLID_2_" class="st3" d="M361,58c-0.2,29.2-24,53-53.2,52.8c-14.4,0-27.4-5.9-37-15.4c-9.7-9.7-15.6-23.2-15.6-38
			c0.2-29.4,24-53,53.2-52.8C337.6,4.8,361,28.8,361,58z"/>
		<path class="st4" d="M282.8,75.7L271,95.6c0,0,4.7,6.5,18.3,11.8l6.7-18.3l4.5-12.2l4.7-13.6l1.6-4.5l0.2-0.4c0,0,0-0.2,0.2-0.2
			l0.2-0.2l0,0c0,0,0,0,0.2,0h0.2h0.2l0.2,0.4l0.4,1.2l0.8,2.6l3.2,9.7l2.8,8.5l4.3,13.2l3.2,9.3l1.8,5.1c0,0,10.8-3,19.7-12
			l-6.5-9.7l-4.3-7.3l-4.3-8.5l-3.7-7.5l-2.8-6.7l-2.4-6.7l-2.2-6.5l-2.2-7.7l-2.2-7.9l-2-7.7l-2.2-8.5L308,7.1l-2.4,8.1l-3.5,11.4
			l-2.8,8.7l-3.2,9.7l-2.8,7.9l-3.2,7.7l-3.5,7.3L282.8,75.7z"/>
	</g>
	<g>
		<path class="st3" d="M435.9,46.1c-1.4-3.7-3.5-6.7-6.1-9.1c-2.6-2.6-5.7-4.7-9.3-6.1c-3.7-1.4-7.7-2.2-12.2-2.2h-21.5
			c-0.6,0-1,0.4-1,1v20.7c0,0.6,0.4,1,1,1h10.4c0.6,0,1-0.4,1-1V39.2c0-0.6,0.4-1,1-1h9.3c2.6,0,5.3,0.4,7.3,1.4
			c2.2,0.8,4.1,2.2,5.5,3.9c1.4,1.6,2.6,3.7,3.5,6.3c0.8,2.4,1.2,5.3,1.2,8.3s-0.4,5.9-1.2,8.3c-0.8,2.4-2,4.5-3.5,6.3
			c-1.4,1.6-3.2,3-5.5,3.9c-2.2,0.8-4.7,1.4-7.3,1.4h-9.3c-0.6,0-1-0.4-1-1V65.8c0-0.6-0.4-1-1-1h-10.4c-0.6,0-1,0.4-1,1v20.1
			c0,0.6,0.4,1,1,1h21.5c4.5,0,8.5-0.8,12.2-2.2c3.7-1.4,6.9-3.5,9.3-6.1c2.6-2.6,4.7-5.7,6.1-9.1c1.4-3.7,2.2-7.5,2.2-11.8
			C438.1,53.4,437.3,49.5,435.9,46.1z"/>
		<path class="st3" d="M460.1,37.9h23.2c0.6,0,1-0.4,1-1v-7.5c0-0.6-0.4-1-1-1h-35.3c-0.6,0-1,0.4-1,1v56.5c0,0.6,0.4,1,1,1h35.3
			c0.6,0,1-0.4,1-1v-7.5c0-0.6-0.4-1-1-1h-23.2c-0.6,0-1-0.4-1-1V62.9c0-0.6,0.4-1,1-1h17.7c0.6,0,1-0.4,1-1v-7.3c0-0.6-0.4-1-1-1
			h-17.7c-0.6,0-1-0.4-1-1V38.4C459.3,38.4,459.7,37.9,460.1,37.9z"/>
		<path class="st3" d="M542.1,28.6h-8.7c-0.6,0-1,0.4-1,1v32.5c0,0.8,0,1.8,0,2.6c0,1,0.2,2,0.2,3l-29.2-37.2
			c-0.4-0.4-0.6-0.8-0.8-1c-0.2-0.2-0.6-0.4-0.8-0.6s-0.6-0.2-1-0.2c-0.4,0-0.8,0-1.2,0H494c-0.6,0-1,0.4-1,1v56c0,0.6,0.4,1,1,1
			h8.7c0.6,0,1-0.4,1-1V53.2c0-0.8,0-1.6,0-2.4c0-1,0-1.8-0.2-2.8l29,37c0.6,0.8,1.2,1.2,1.8,1.6c0.6,0.4,1.4,0.4,2.4,0.4h5.3
			c0.6,0,1-0.4,1-1V29.4C543.1,29,542.7,28.6,542.1,28.6z"/>
		<path class="st3" d="M595.7,28.6h-44.3c-0.6,0-1,0.4-1,1v7.9c0,0.6,0.4,1,1,1h15.2c0.6,0,1,0.4,1,1v46.7c0,0.6,0.4,1,1,1h10.2
			c0.6,0,1-0.4,1-1V39.2c0-0.6,0.4-1,1-1h15.2c0.6,0,1-0.4,1-1v-7.9C596.7,29,596.3,28.6,595.7,28.6z"/>
		<path class="st3" d="M648.7,85.7l-21.9-56.5c-0.2-0.4-0.4-0.6-0.8-0.6h-11c-0.4,0-0.8,0.2-0.8,0.6l-22.1,56.5
			c-0.2,0.6,0.2,1.2,0.8,1.2h8.1c1,0,1.8-0.2,2.4-0.8c0.6-0.6,1.2-1.2,1.4-1.8l3.7-10.6c0.2-0.4,0.4-0.6,0.8-0.6h21.9
			c0.4,0,0.8,0.2,0.8,0.6l3.7,10.6c0.4,0.8,0.8,1.4,1.4,1.8c0.6,0.4,1.4,0.8,2.6,0.8h7.9C648.5,86.9,649.1,86.3,648.7,85.7z
			 M627.6,64.8H613c-0.6,0-1-0.6-0.8-1.2l5.9-16.4c0.4-1,0.8-2,1.2-3.2c0-0.4,0.2-0.6,0.2-1c0.2-0.8,1.4-0.8,1.8,0
			c0,0.2,0.2,0.6,0.2,0.8c0.4,1.2,0.8,2.4,1.2,3.2l5.9,16.7C628.8,64.1,628.4,64.8,627.6,64.8z"/>
		<path class="st3" d="M698.5,77.7l-4.3-4.5c-0.4-0.4-1-0.8-1.6-0.8c-0.4,0-0.8,0-1,0.2c-0.4,0.2-0.6,0.4-1,0.6
			c-0.8,0.8-1.6,1.4-2.6,1.8c-0.8,0.6-1.8,1-2.6,1.2c-1,0.4-2,0.6-3,0.6c-1.2,0.2-2.4,0.2-3.7,0.2c-2.2,0-4.5-0.4-6.5-1.2
			c-2-0.8-3.9-2.2-5.3-3.9c-1.4-1.6-2.6-3.9-3.7-6.3c-0.8-2.4-1.2-5.3-1.2-8.3c0-3,0.4-5.9,1.2-8.3c0.8-2.4,2-4.5,3.5-6.1
			s3.2-3,5.3-3.9s4.3-1.4,6.7-1.4c2.2,0,4.1,0.2,5.5,0.6c1.4,0.4,2.6,1,3.7,1.6c1,0.6,1.8,1,2.4,1.4s1.2,0.6,2,0.6
			c0.6,0,1.2-0.2,1.4-0.4c0.4-0.2,0.6-0.6,1-1l3.7-4.9c0.2-0.4,0.2-1-0.2-1.2c-1-1-2-1.8-3.2-2.6c-1.4-1-2.8-1.8-4.7-2.4
			c-1.6-0.6-3.5-1.2-5.3-1.6s-3.9-0.6-6.1-0.6c-2.8,0-5.5,0.4-8.1,1c-2.4,0.6-4.9,1.6-7.1,2.8c-2.2,1.2-4.1,2.8-5.7,4.5
			c-1.6,1.8-3.2,3.7-4.3,5.9c-1.2,2.2-2,4.7-2.8,7.3c-0.6,2.6-1,5.3-1,8.3c0,4.3,0.6,8.3,2,12c1.4,3.7,3.2,6.7,5.7,9.3
			c2.4,2.6,5.5,4.7,8.9,6.3c3.5,1.4,7.3,2.2,11.8,2.2c4.9,0,8.9-0.8,12.4-2.2c3.2-1.4,6.1-3.5,8.3-6.1
			C698.9,78.6,698.9,78.2,698.5,77.7z"/>
		<path class="st3" d="M758.8,45.9c-1.4-3.7-3.5-6.7-6.1-9.3s-5.7-4.7-9.3-6.3c-3.7-1.4-7.7-2.2-12.2-2.2s-8.5,0.8-12.2,2.2
			c-3.7,1.4-6.9,3.7-9.5,6.3c-2.6,2.6-4.7,5.9-6.1,9.3c-1.4,3.7-2.2,7.5-2.2,11.8s0.8,8.1,2.2,11.8c1.4,3.7,3.5,6.7,6.1,9.5
			c2.6,2.6,5.7,4.7,9.5,6.3c3.7,1.4,7.7,2.2,12.2,2.2s8.5-0.8,12.2-2.2c3.7-1.4,6.9-3.7,9.3-6.3c2.6-2.6,4.7-5.9,6.1-9.5
			c1.4-3.7,2.2-7.5,2.2-11.8S760.2,49.5,758.8,45.9z M747.4,66c-0.8,2.4-2,4.5-3.5,6.1s-3.5,3-5.5,3.9c-2.2,0.8-4.7,1.4-7.3,1.4
			s-5.3-0.4-7.3-1.4c-2.2-0.8-4.1-2.2-5.5-3.9c-1.4-1.6-2.6-3.7-3.5-6.1c-0.8-2.4-1.2-5.3-1.2-8.3s0.4-5.9,1.2-8.3
			c0.8-2.4,2-4.5,3.5-6.1s3.5-3,5.5-3.9c2.2-0.8,4.7-1.4,7.3-1.4s5.1,0.4,7.3,1.4c2.2,0.8,4.1,2.2,5.5,3.9s2.6,3.9,3.5,6.1
			c0.8,2.4,1.2,5.1,1.2,8.3C748.7,60.7,748.2,63.5,747.4,66z"/>
		<path class="st3" d="M780.9,28.6h-10.4c-0.6,0-1,0.4-1,1v56.3c0,0.6,0.4,1,1,1h10.4c0.6,0,1-0.4,1-1V29.4
			C782,29,781.5,28.6,780.9,28.6z"/>
		<path class="st3" d="M843.3,28.6h-8.7c-0.6,0-1,0.4-1,1v32.5c0,0.8,0,1.8,0,2.6c0,1,0.2,2,0.2,3l-29.2-37.2
			c-0.4-0.4-0.6-0.8-0.8-1c-0.2-0.2-0.6-0.4-0.8-0.6c-0.2-0.2-0.6-0.2-1-0.2s-0.8,0-1.2,0h-5.5c-0.6,0-1,0.4-1,1v56c0,0.6,0.4,1,1,1
			h8.7c0.6,0,1-0.4,1-1V53.2c0-0.8,0-1.6,0-2.4c0-1,0-1.8-0.2-2.8l29,37c0.6,0.8,1.2,1.2,1.8,1.6c0.6,0.4,1.4,0.4,2.4,0.4h5.3
			c0.6,0,1-0.4,1-1V29.4C844.1,29,843.7,28.6,843.3,28.6z"/>
	</g>
</g>
</svg>
