<?xml version="1.0" encoding="utf-8"?>
<!-- Generator: Adobe Illustrator 23.0.1, SVG Export Plug-In . SVG Version: 6.00 Build 0)  -->
<svg version="1.1" id="Layer_1" xmlns="http://www.w3.org/2000/svg" xmlns:xlink="http://www.w3.org/1999/xlink" x="0px" y="0px"
	 viewBox="0 0 452.6 105.3" style="enable-background:new 0 0 452.6 105.3;" xml:space="preserve">
<style type="text/css">
	.st0{fill:#ED1C24;}
	.st1{fill:#010101;}
	.st2{fill:#FFFFFF;}
</style>
<g>
	<g>
		<g>
			<path class="st0" d="M431.2,45.6v-4.1h0l-0.9,0.4l-0.1-0.6l1.1-0.5h0.8v4.8H431.2z M431.2,49l4.7-8.3h0.7l-4.7,8.3H431.2z
				 M435.2,48.4l0.8-0.7c1-0.9,1.6-1.5,1.6-2.1c0-0.5-0.3-0.9-0.9-0.9c-0.4,0-0.8,0.2-1,0.4l-0.3-0.6c0.3-0.3,0.9-0.5,1.5-0.5
				c1.2,0,1.6,0.7,1.6,1.4c0,0.9-0.7,1.6-1.6,2.4l-0.4,0.3v0h2.1v0.7h-3.3V48.4z"/>
			<path class="st0" d="M447.2,48.8l-1.1-1.8c-0.4-0.7-0.7-1.2-1-1.6h0c-0.2,0.5-0.5,0.9-0.9,1.7l-1,1.8H442l2.5-4.2l-2.4-4.1h1.2
				l1.1,1.9c0.3,0.5,0.5,1,0.8,1.4h0c0.2-0.5,0.4-0.9,0.8-1.4l1.1-1.9h1.2l-2.5,4l2.6,4.3H447.2z"/>
		</g>
		<g>
			<g>
				<g>
					<rect x="451.3" y="52.3" class="st0" width="1" height="0.5"/>
				</g>
				<g>
					<path class="st0" d="M449.4,52.8h-1.9v-0.5h1.9V52.8z M445.7,52.8h-1.9v-0.5h1.9V52.8z M442,52.8h-1.9v-0.5h1.9V52.8z
						 M438.3,52.8h-1.9v-0.5h1.9V52.8z M434.6,52.8h-1.9v-0.5h1.9V52.8z M430.9,52.8H429v-0.5h1.9V52.8z"/>
				</g>
				<g>
					<rect x="426.2" y="52.3" class="st0" width="1" height="0.5"/>
				</g>
			</g>
			<g>
				<g>
					<rect x="452.2" y="50.6" width="0.2" height="4"/>
				</g>
				<g>
					<rect x="451.9" y="50.3" class="st0" width="0.7" height="4.5"/>
				</g>
			</g>
			<g>
				<g>
					<rect x="426.3" y="50.6" width="0.2" height="4"/>
				</g>
				<g>
					<rect x="426" y="50.3" class="st0" width="0.7" height="4.5"/>
				</g>
			</g>
		</g>
	</g>
	<g>
		<g>
			<g>
				<polygon class="st0" points="452.6,105.3 451.4,105.3 451.4,104.8 452.1,104.8 452.1,104.1 452.6,104.1 				"/>
			</g>
			<g>
				<path class="st0" d="M449.5,105.3h-1.9v-0.5h1.9V105.3z M445.7,105.3h-1.9v-0.5h1.9V105.3z M441.8,105.3h-1.9v-0.5h1.9V105.3z
					 M438,105.3h-1.9v-0.5h1.9V105.3z M434.1,105.3h-1.9v-0.5h1.9V105.3z M430.3,105.3h-1.9v-0.5h1.9V105.3z M426.5,105.3h-1.9v-0.5
					h1.9V105.3z M422.6,105.3h-1.9v-0.5h1.9V105.3z M418.8,105.3h-1.9v-0.5h1.9V105.3z M414.9,105.3H413v-0.5h1.9V105.3z
					 M411.1,105.3h-1.9v-0.5h1.9V105.3z M407.3,105.3h-1.9v-0.5h1.9V105.3z M403.4,105.3h-1.9v-0.5h1.9V105.3z M399.6,105.3h-1.9
					v-0.5h1.9V105.3z M395.7,105.3h-1.9v-0.5h1.9V105.3z M391.9,105.3H390v-0.5h1.9V105.3z M388.1,105.3h-1.9v-0.5h1.9V105.3z
					 M384.2,105.3h-1.9v-0.5h1.9V105.3z M380.4,105.3h-1.9v-0.5h1.9V105.3z M376.5,105.3h-1.9v-0.5h1.9V105.3z M372.7,105.3h-1.9
					v-0.5h1.9V105.3z M368.9,105.3h-1.9v-0.5h1.9V105.3z M365,105.3h-1.9v-0.5h1.9V105.3z M361.2,105.3h-1.9v-0.5h1.9V105.3z
					 M357.3,105.3h-1.9v-0.5h1.9V105.3z M353.5,105.3h-1.9v-0.5h1.9V105.3z M349.7,105.3h-1.9v-0.5h1.9V105.3z M345.8,105.3h-1.9
					v-0.5h1.9V105.3z M342,105.3h-1.9v-0.5h1.9V105.3z M338.1,105.3h-1.9v-0.5h1.9V105.3z M334.3,105.3h-1.9v-0.5h1.9V105.3z
					 M330.5,105.3h-1.9v-0.5h1.9V105.3z M326.6,105.3h-1.9v-0.5h1.9V105.3z M322.8,105.3h-1.9v-0.5h1.9V105.3z M318.9,105.3H317
					v-0.5h1.9V105.3z M315.1,105.3h-1.9v-0.5h1.9V105.3z M311.3,105.3h-1.9v-0.5h1.9V105.3z M307.4,105.3h-1.9v-0.5h1.9V105.3z
					 M303.6,105.3h-1.9v-0.5h1.9V105.3z M299.7,105.3h-1.9v-0.5h1.9V105.3z M295.9,105.3H294v-0.5h1.9V105.3z M292.1,105.3h-1.9
					v-0.5h1.9V105.3z M288.2,105.3h-1.9v-0.5h1.9V105.3z M284.4,105.3h-1.9v-0.5h1.9V105.3z M280.5,105.3h-1.9v-0.5h1.9V105.3z
					 M276.7,105.3h-1.9v-0.5h1.9V105.3z M272.9,105.3h-1.9v-0.5h1.9V105.3z M269,105.3h-1.9v-0.5h1.9V105.3z M265.2,105.3h-1.9v-0.5
					h1.9V105.3z M261.3,105.3h-1.9v-0.5h1.9V105.3z M257.5,105.3h-1.9v-0.5h1.9V105.3z M253.7,105.3h-1.9v-0.5h1.9V105.3z
					 M249.8,105.3h-1.9v-0.5h1.9V105.3z M246,105.3h-1.9v-0.5h1.9V105.3z M242.1,105.3h-1.9v-0.5h1.9V105.3z M238.3,105.3h-1.9v-0.5
					h1.9V105.3z M234.5,105.3h-1.9v-0.5h1.9V105.3z M230.6,105.3h-1.9v-0.5h1.9V105.3z M226.8,105.3h-1.9v-0.5h1.9V105.3z
					 M223,105.3H221v-0.5h1.9V105.3z M219.1,105.3h-1.9v-0.5h1.9V105.3z M215.3,105.3h-1.9v-0.5h1.9V105.3z M211.4,105.3h-1.9v-0.5
					h1.9V105.3z M207.6,105.3h-1.9v-0.5h1.9V105.3z M203.8,105.3h-1.9v-0.5h1.9V105.3z M199.9,105.3H198v-0.5h1.9V105.3z
					 M196.1,105.3h-1.9v-0.5h1.9V105.3z M192.2,105.3h-1.9v-0.5h1.9V105.3z M188.4,105.3h-1.9v-0.5h1.9V105.3z M184.6,105.3h-1.9
					v-0.5h1.9V105.3z M180.7,105.3h-1.9v-0.5h1.9V105.3z M176.9,105.3H175v-0.5h1.9V105.3z M173,105.3h-1.9v-0.5h1.9V105.3z
					 M169.2,105.3h-1.9v-0.5h1.9V105.3z M165.4,105.3h-1.9v-0.5h1.9V105.3z M161.5,105.3h-1.9v-0.5h1.9V105.3z M157.7,105.3h-1.9
					v-0.5h1.9V105.3z M153.8,105.3h-1.9v-0.5h1.9V105.3z M150,105.3h-1.9v-0.5h1.9V105.3z M146.2,105.3h-1.9v-0.5h1.9V105.3z
					 M142.3,105.3h-1.9v-0.5h1.9V105.3z M138.5,105.3h-1.9v-0.5h1.9V105.3z M134.6,105.3h-1.9v-0.5h1.9V105.3z M130.8,105.3h-1.9
					v-0.5h1.9V105.3z M127,105.3H125v-0.5h1.9V105.3z M123.1,105.3h-1.9v-0.5h1.9V105.3z M119.3,105.3h-1.9v-0.5h1.9V105.3z
					 M115.4,105.3h-1.9v-0.5h1.9V105.3z"/>
			</g>
			<g>
				<polygon class="st0" points="111.6,105.3 110.4,105.3 110.4,104.1 110.9,104.1 110.9,104.8 111.6,104.8 				"/>
			</g>
			<g>
				<path class="st0" d="M110.9,102.1h-0.5v-1.9h0.5V102.1z M110.9,98.3h-0.5v-1.9h0.5V98.3z M110.9,94.4h-0.5v-1.9h0.5V94.4z
					 M110.9,90.5h-0.5v-1.9h0.5V90.5z M110.9,86.6h-0.5v-1.9h0.5V86.6z M110.9,82.7h-0.5v-1.9h0.5V82.7z M110.9,78.8h-0.5v-1.9h0.5
					V78.8z M110.9,75h-0.5V73h0.5V75z M110.9,71.1h-0.5v-1.9h0.5V71.1z M110.9,67.2h-0.5v-1.9h0.5V67.2z M110.9,63.3h-0.5v-1.9h0.5
					V63.3z M110.9,59.4h-0.5v-1.9h0.5V59.4z M110.9,55.6h-0.5v-1.9h0.5V55.6z M110.9,51.7h-0.5v-1.9h0.5V51.7z M110.9,47.8h-0.5
					v-1.9h0.5V47.8z M110.9,43.9h-0.5V42h0.5V43.9z M110.9,40h-0.5v-1.9h0.5V40z M110.9,36.1h-0.5v-1.9h0.5V36.1z M110.9,32.3h-0.5
					v-1.9h0.5V32.3z M110.9,28.4h-0.5v-1.9h0.5V28.4z M110.9,24.5h-0.5v-1.9h0.5V24.5z M110.9,20.6h-0.5v-1.9h0.5V20.6z M110.9,16.7
					h-0.5v-1.9h0.5V16.7z M110.9,12.8h-0.5v-1.9h0.5V12.8z M110.9,9h-0.5V7h0.5V9z M110.9,5.1h-0.5V3.1h0.5V5.1z"/>
			</g>
			<g>
				<polygon class="st0" points="110.9,1.2 110.4,1.2 110.4,0 111.6,0 111.6,0.5 110.9,0.5 				"/>
			</g>
			<g>
				<path class="st0" d="M449.5,0.5h-1.9V0h1.9V0.5z M445.7,0.5h-1.9V0h1.9V0.5z M441.8,0.5h-1.9V0h1.9V0.5z M438,0.5h-1.9V0h1.9
					V0.5z M434.1,0.5h-1.9V0h1.9V0.5z M430.3,0.5h-1.9V0h1.9V0.5z M426.5,0.5h-1.9V0h1.9V0.5z M422.6,0.5h-1.9V0h1.9V0.5z
					 M418.8,0.5h-1.9V0h1.9V0.5z M414.9,0.5H413V0h1.9V0.5z M411.1,0.5h-1.9V0h1.9V0.5z M407.3,0.5h-1.9V0h1.9V0.5z M403.4,0.5h-1.9
					V0h1.9V0.5z M399.6,0.5h-1.9V0h1.9V0.5z M395.7,0.5h-1.9V0h1.9V0.5z M391.9,0.5H390V0h1.9V0.5z M388.1,0.5h-1.9V0h1.9V0.5z
					 M384.2,0.5h-1.9V0h1.9V0.5z M380.4,0.5h-1.9V0h1.9V0.5z M376.5,0.5h-1.9V0h1.9V0.5z M372.7,0.5h-1.9V0h1.9V0.5z M368.9,0.5
					h-1.9V0h1.9V0.5z M365,0.5h-1.9V0h1.9V0.5z M361.2,0.5h-1.9V0h1.9V0.5z M357.3,0.5h-1.9V0h1.9V0.5z M353.5,0.5h-1.9V0h1.9V0.5z
					 M349.7,0.5h-1.9V0h1.9V0.5z M345.8,0.5h-1.9V0h1.9V0.5z M342,0.5h-1.9V0h1.9V0.5z M338.1,0.5h-1.9V0h1.9V0.5z M334.3,0.5h-1.9
					V0h1.9V0.5z M330.5,0.5h-1.9V0h1.9V0.5z M326.6,0.5h-1.9V0h1.9V0.5z M322.8,0.5h-1.9V0h1.9V0.5z M318.9,0.5H317V0h1.9V0.5z
					 M315.1,0.5h-1.9V0h1.9V0.5z M311.3,0.5h-1.9V0h1.9V0.5z M307.4,0.5h-1.9V0h1.9V0.5z M303.6,0.5h-1.9V0h1.9V0.5z M299.7,0.5
					h-1.9V0h1.9V0.5z M295.9,0.5H294V0h1.9V0.5z M292.1,0.5h-1.9V0h1.9V0.5z M288.2,0.5h-1.9V0h1.9V0.5z M284.4,0.5h-1.9V0h1.9V0.5z
					 M280.5,0.5h-1.9V0h1.9V0.5z M276.7,0.5h-1.9V0h1.9V0.5z M272.9,0.5h-1.9V0h1.9V0.5z M269,0.5h-1.9V0h1.9V0.5z M265.2,0.5h-1.9
					V0h1.9V0.5z M261.3,0.5h-1.9V0h1.9V0.5z M257.5,0.5h-1.9V0h1.9V0.5z M253.7,0.5h-1.9V0h1.9V0.5z M249.8,0.5h-1.9V0h1.9V0.5z
					 M246,0.5h-1.9V0h1.9V0.5z M242.1,0.5h-1.9V0h1.9V0.5z M238.3,0.5h-1.9V0h1.9V0.5z M234.5,0.5h-1.9V0h1.9V0.5z M230.6,0.5h-1.9
					V0h1.9V0.5z M226.8,0.5h-1.9V0h1.9V0.5z M223,0.5H221V0h1.9V0.5z M219.1,0.5h-1.9V0h1.9V0.5z M215.3,0.5h-1.9V0h1.9V0.5z
					 M211.4,0.5h-1.9V0h1.9V0.5z M207.6,0.5h-1.9V0h1.9V0.5z M203.8,0.5h-1.9V0h1.9V0.5z M199.9,0.5H198V0h1.9V0.5z M196.1,0.5h-1.9
					V0h1.9V0.5z M192.2,0.5h-1.9V0h1.9V0.5z M188.4,0.5h-1.9V0h1.9V0.5z M184.6,0.5h-1.9V0h1.9V0.5z M180.7,0.5h-1.9V0h1.9V0.5z
					 M176.9,0.5H175V0h1.9V0.5z M173,0.5h-1.9V0h1.9V0.5z M169.2,0.5h-1.9V0h1.9V0.5z M165.4,0.5h-1.9V0h1.9V0.5z M161.5,0.5h-1.9V0
					h1.9V0.5z M157.7,0.5h-1.9V0h1.9V0.5z M153.8,0.5h-1.9V0h1.9V0.5z M150,0.5h-1.9V0h1.9V0.5z M146.2,0.5h-1.9V0h1.9V0.5z
					 M142.3,0.5h-1.9V0h1.9V0.5z M138.5,0.5h-1.9V0h1.9V0.5z M134.6,0.5h-1.9V0h1.9V0.5z M130.8,0.5h-1.9V0h1.9V0.5z M127,0.5H125V0
					h1.9V0.5z M123.1,0.5h-1.9V0h1.9V0.5z M119.3,0.5h-1.9V0h1.9V0.5z M115.4,0.5h-1.9V0h1.9V0.5z"/>
			</g>
			<g>
				<polygon class="st0" points="452.6,1.2 452.1,1.2 452.1,0.5 451.4,0.5 451.4,0 452.6,0 				"/>
			</g>
			<g>
				<path class="st0" d="M452.6,102.1h-0.5v-1.9h0.5V102.1z M452.6,98.3h-0.5v-1.9h0.5V98.3z M452.6,94.4h-0.5v-1.9h0.5V94.4z
					 M452.6,90.5h-0.5v-1.9h0.5V90.5z M452.6,86.6h-0.5v-1.9h0.5V86.6z M452.6,82.7h-0.5v-1.9h0.5V82.7z M452.6,78.8h-0.5v-1.9h0.5
					V78.8z M452.6,75h-0.5V73h0.5V75z M452.6,71.1h-0.5v-1.9h0.5V71.1z M452.6,67.2h-0.5v-1.9h0.5V67.2z M452.6,63.3h-0.5v-1.9h0.5
					V63.3z M452.6,59.4h-0.5v-1.9h0.5V59.4z M452.6,55.6h-0.5v-1.9h0.5V55.6z M452.6,51.7h-0.5v-1.9h0.5V51.7z M452.6,47.8h-0.5
					v-1.9h0.5V47.8z M452.6,43.9h-0.5V42h0.5V43.9z M452.6,40h-0.5v-1.9h0.5V40z M452.6,36.1h-0.5v-1.9h0.5V36.1z M452.6,32.3h-0.5
					v-1.9h0.5V32.3z M452.6,28.4h-0.5v-1.9h0.5V28.4z M452.6,24.5h-0.5v-1.9h0.5V24.5z M452.6,20.6h-0.5v-1.9h0.5V20.6z M452.6,16.7
					h-0.5v-1.9h0.5V16.7z M452.6,12.8h-0.5v-1.9h0.5V12.8z M452.6,9h-0.5V7h0.5V9z M452.6,5.1h-0.5V3.1h0.5V5.1z"/>
			</g>
		</g>
		<g>
			<path class="st0" d="M114.9,45.6v-4.1h0l-0.9,0.4l-0.1-0.6l1.1-0.5h0.8v4.8H114.9z M114.9,49l4.7-8.3h0.7l-4.7,8.3H114.9z
				 M118.9,48.4l0.8-0.7c1-0.9,1.6-1.5,1.6-2.1c0-0.5-0.3-0.9-0.9-0.9c-0.4,0-0.8,0.2-1,0.4l-0.3-0.6c0.3-0.3,0.9-0.5,1.5-0.5
				c1.2,0,1.6,0.7,1.6,1.4c0,0.9-0.7,1.6-1.6,2.4l-0.4,0.3v0h2.1v0.7h-3.3V48.4z"/>
			<path class="st0" d="M131,48.8l-1.1-1.8c-0.4-0.7-0.7-1.2-1-1.6h0c-0.2,0.5-0.5,0.9-0.9,1.7l-1,1.8h-1.2l2.5-4.2l-2.4-4.1h1.2
				l1.1,1.9c0.3,0.5,0.5,1,0.8,1.4h0c0.2-0.5,0.4-0.9,0.8-1.4l1.1-1.9h1.2l-2.5,4l2.6,4.3H131z"/>
		</g>
		<g>
			<path class="st0" d="M169.1,14V9.9h0l-0.9,0.4l-0.1-0.6l1.1-0.5h0.8V14H169.1z M169.2,17.4l4.7-8.3h0.7l-4.7,8.3H169.2z
				 M173.2,16.8l0.8-0.7c1-0.9,1.6-1.5,1.6-2.1c0-0.5-0.3-0.9-0.9-0.9c-0.4,0-0.8,0.2-1,0.4l-0.3-0.6c0.3-0.3,0.9-0.5,1.5-0.5
				c1.2,0,1.6,0.7,1.6,1.4c0,0.9-0.7,1.6-1.6,2.4l-0.4,0.3v0h2.1v0.7h-3.3V16.8z"/>
			<path class="st0" d="M185.2,17.2l-1.1-1.8c-0.4-0.7-0.7-1.2-1-1.6h0c-0.2,0.5-0.5,0.9-0.9,1.7l-1,1.8H180l2.5-4.2l-2.4-4.1h1.2
				l1.1,1.9c0.3,0.5,0.5,1,0.8,1.4h0c0.2-0.5,0.4-0.9,0.8-1.4l1.1-1.9h1.2l-2.5,4l2.6,4.3H185.2z"/>
		</g>
		<g>
			<path class="st0" d="M169.1,95.4v-4.1h0l-0.9,0.4l-0.1-0.6l1.1-0.5h0.8v4.8H169.1z M169.2,98.8l4.7-8.3h0.7l-4.7,8.3H169.2z
				 M173.2,98.2l0.8-0.7c1-0.9,1.6-1.5,1.6-2.1c0-0.5-0.3-0.9-0.9-0.9c-0.4,0-0.8,0.2-1,0.4l-0.3-0.6c0.3-0.3,0.9-0.5,1.5-0.5
				c1.2,0,1.6,0.7,1.6,1.4c0,0.9-0.7,1.6-1.6,2.4l-0.4,0.3v0h2.1v0.7h-3.3V98.2z"/>
			<path class="st0" d="M185.2,98.7l-1.1-1.8c-0.4-0.7-0.7-1.2-1-1.6h0c-0.2,0.5-0.5,0.9-0.9,1.7l-1,1.8H180l2.5-4.2l-2.4-4.1h1.2
				l1.1,1.9c0.3,0.5,0.5,1,0.8,1.4h0c0.2-0.5,0.4-0.9,0.8-1.4l1.1-1.9h1.2l-2.5,4l2.6,4.3H185.2z"/>
		</g>
		<g>
			<g>
				<g>
					<rect x="135.8" y="52.4" class="st0" width="1" height="0.5"/>
				</g>
				<g>
					<path class="st0" d="M133.9,52.9H132v-0.5h1.9V52.9z M130.2,52.9h-1.9v-0.5h1.9V52.9z M126.5,52.9h-1.9v-0.5h1.9V52.9z
						 M122.8,52.9h-1.9v-0.5h1.9V52.9z M119,52.9h-1.9v-0.5h1.9V52.9z M115.3,52.9h-1.9v-0.5h1.9V52.9z"/>
				</g>
				<g>
					<rect x="110.6" y="52.4" class="st0" width="1" height="0.5"/>
				</g>
			</g>
			<g>
				<g>
					<rect x="136.6" y="50.6" width="0.2" height="4"/>
				</g>
				<g>
					<rect x="136.4" y="50.4" class="st0" width="0.7" height="4.5"/>
				</g>
			</g>
			<g>
				<g>
					<rect x="110.7" y="50.6" width="0.2" height="4"/>
				</g>
				<g>
					<rect x="110.5" y="50.4" class="st0" width="0.7" height="4.5"/>
				</g>
			</g>
		</g>
		<g>
			<rect x="14.7" y="78.6" width="149.3" height="0.3"/>
		</g>
		<g>
			<rect x="14.7" y="26.3" width="149.3" height="0.3"/>
		</g>
		<g>
			<g>
				<g>
					<rect x="162.7" y="103.9" class="st0" width="0.5" height="1"/>
				</g>
				<g>
					<path class="st0" d="M163.2,102h-0.5v-1.9h0.5V102z M163.2,98.3h-0.5v-1.9h0.5V98.3z M163.2,94.6h-0.5v-1.9h0.5V94.6z
						 M163.2,90.9h-0.5V89h0.5V90.9z M163.2,87.2h-0.5v-1.9h0.5V87.2z M163.2,83.5h-0.5v-1.9h0.5V83.5z"/>
				</g>
				<g>
					<rect x="162.7" y="78.8" class="st0" width="0.5" height="1"/>
				</g>
			</g>
			<g>
				<g>
					<rect x="160.9" y="104.7" width="4" height="0.2"/>
				</g>
				<g>
					<rect x="160.7" y="104.5" class="st0" width="4.5" height="0.7"/>
				</g>
			</g>
			<g>
				<g>
					<rect x="160.9" y="78.9" width="4" height="0.2"/>
				</g>
				<g>
					<rect x="160.7" y="78.6" class="st0" width="4.5" height="0.7"/>
				</g>
			</g>
		</g>
		<g>
			<g>
				<g>
					<rect x="162.7" y="25.4" class="st0" width="0.5" height="1"/>
				</g>
				<g>
					<path class="st0" d="M163.2,23.5h-0.5v-1.9h0.5V23.5z M163.2,19.8h-0.5v-1.9h0.5V19.8z M163.2,16.1h-0.5v-1.9h0.5V16.1z
						 M163.2,12.4h-0.5v-1.9h0.5V12.4z M163.2,8.7h-0.5V6.8h0.5V8.7z M163.2,4.9h-0.5V3.1h0.5V4.9z"/>
				</g>
				<g>
					<rect x="162.7" y="0.3" class="st0" width="0.5" height="1"/>
				</g>
			</g>
			<g>
				<g>
					<rect x="160.9" y="26.2" width="4" height="0.2"/>
				</g>
				<g>
					<rect x="160.7" y="26" class="st0" width="4.5" height="0.7"/>
				</g>
			</g>
			<g>
				<g>
					<rect x="160.9" y="0.3" width="4" height="0.2"/>
				</g>
				<g>
					<rect x="160.7" y="0.1" class="st0" width="4.5" height="0.7"/>
				</g>
			</g>
		</g>
		<g>
			<path d="M0,58.3l4.1-6.8l-4-6.4h2l1.8,3.1c0.5,0.8,0.8,1.4,1.2,2.2h0.1c0.4-0.7,0.7-1.4,1.2-2.2l1.7-3.1h2l-3.9,6.5l4,6.7h-2
				l-1.6-2.9c-0.7-1.2-1.1-1.9-1.4-2.6h0c-0.4,0.8-0.8,1.5-1.5,2.6L2,58.3H0z"/>
		</g>
		<g>
			<polygon points="10.7,26.5 19.6,27.3 19.6,25.6 			"/>
		</g>
		<g>
			<polygon points="10.7,78.8 19.6,79.7 19.6,77.9 			"/>
		</g>
		<g>
			<g>
				<rect x="15.5" y="27.7" width="0.3" height="1"/>
			</g>
			<g>
				<path d="M15.8,74.6h-0.3v-1.9h0.3V74.6z M15.8,70.7h-0.3v-1.9h0.3V70.7z M15.8,66.9h-0.3V65h0.3V66.9z M15.8,63.1h-0.3v-1.9h0.3
					V63.1z M15.8,59.3h-0.3v-1.9h0.3V59.3z M15.8,55.4h-0.3v-1.9h0.3V55.4z M15.8,51.6h-0.3v-1.9h0.3V51.6z M15.8,47.8h-0.3v-1.9
					h0.3V47.8z M15.8,43.9h-0.3V42h0.3V43.9z M15.8,40.1h-0.3v-1.9h0.3V40.1z M15.8,36.3h-0.3v-1.9h0.3V36.3z M15.8,32.4h-0.3v-1.9
					h0.3V32.4z"/>
			</g>
			<g>
				<rect x="15.5" y="76.5" width="0.3" height="1"/>
			</g>
		</g>
	</g>
	<g>
		<g>
			<path id="XMLID_44_" class="st1" d="M188.4,52.9c-0.1,14.4-11.8,26.1-26.2,26c-7.1,0-13.5-2.9-18.2-7.6
				c-4.8-4.8-7.7-11.4-7.7-18.7c0.1-14.4,11.8-26.1,26.2-26C177,26.6,188.5,38.4,188.4,52.9z"/>
			<path class="st2" d="M150,61.6l-5.8,9.8c0,0,2.3,3.2,9,5.8l3.3-9l2.2-6l2.3-6.7c0,0,0.8-2.2,0.8-2.2L162,53c0,0,0-0.1,0.1-0.1
				l0.1-0.1l0,0c0,0,0,0,0.1,0l0.1,0l0.1,0l0.1,0.2l0.2,0.6l0.4,1.3l1.6,4.8L166,64l2.1,6.5l1.6,4.6l0.9,2.5c0,0,5.3-1.5,9.7-5.9
				l-3.2-4.8l-2.1-3.6L173,59l-1.8-3.7l-1.4-3.3l-1.2-3.3l-1.1-3.2l-1.2-3.7l-1.1-3.9l-1-3.8l-1.1-4.2l-0.6-2.1l-1.2,4l-1.7,5.6
				l-1.4,4.3l-1.6,4.8l-1.4,3.9l-1.6,3.8l-1.7,3.6L150,61.6z"/>
		</g>
		<g>
			<path class="st1" d="M225.4,46.9c-0.7-1.8-1.7-3.3-3-4.5c-1.3-1.3-2.8-2.3-4.6-3c-1.8-0.7-3.8-1.1-6-1.1h-10.6
				c-0.3,0-0.5,0.2-0.5,0.5v10.2c0,0.3,0.2,0.5,0.5,0.5h5.1c0.3,0,0.5-0.2,0.5-0.5v-5.5c0-0.3,0.2-0.5,0.5-0.5h4.6
				c1.3,0,2.6,0.2,3.6,0.7c1.1,0.4,2,1.1,2.7,1.9c0.7,0.8,1.3,1.8,1.7,3.1c0.4,1.2,0.6,2.6,0.6,4.1c0,1.5-0.2,2.9-0.6,4.1
				c-0.4,1.2-1,2.2-1.7,3.1c-0.7,0.8-1.6,1.5-2.7,1.9c-1.1,0.4-2.3,0.7-3.6,0.7h-4.6c-0.3,0-0.5-0.2-0.5-0.5v-5.5
				c0-0.3-0.2-0.5-0.5-0.5h-5.1c-0.3,0-0.5,0.2-0.5,0.5v10.2c0,0.3,0.2,0.5,0.5,0.5h10.6c2.2,0,4.2-0.4,6-1.1c1.8-0.7,3.4-1.7,4.6-3
				c1.3-1.3,2.3-2.8,3-4.5c0.7-1.8,1.1-3.7,1.1-5.8C226.5,50.6,226.1,48.7,225.4,46.9z"/>
			<path class="st1" d="M237.3,43h11.4c0.3,0,0.5-0.2,0.5-0.5v-3.7c0-0.3-0.2-0.5-0.5-0.5h-17.4c-0.3,0-0.5,0.2-0.5,0.5v27.8
				c0,0.3,0.2,0.5,0.5,0.5h17.4c0.3,0,0.5-0.2,0.5-0.5v-3.7c0-0.3-0.2-0.5-0.5-0.5h-11.4c-0.3,0-0.5-0.2-0.5-0.5v-6.6
				c0-0.3,0.2-0.5,0.5-0.5h8.7c0.3,0,0.5-0.2,0.5-0.5v-3.6c0-0.3-0.2-0.5-0.5-0.5h-8.7c-0.3,0-0.5-0.2-0.5-0.5v-6.5
				C236.8,43.2,237.1,43,237.3,43z"/>
			<path class="st1" d="M277.7,38.3h-4.3c-0.3,0-0.5,0.2-0.5,0.5v16c0,0.4,0,0.9,0,1.3c0,0.5,0.1,1,0.1,1.5l-14.4-18.3
				c-0.2-0.2-0.3-0.4-0.4-0.5c-0.1-0.1-0.3-0.2-0.4-0.3c-0.1-0.1-0.3-0.1-0.5-0.1c-0.2,0-0.4,0-0.6,0h-2.7c-0.3,0-0.5,0.2-0.5,0.5
				v27.8c0,0.3,0.2,0.5,0.5,0.5h4.3c0.3,0,0.5-0.2,0.5-0.5V50.4c0-0.4,0-0.8,0-1.2c0-0.5,0-0.9-0.1-1.4L273,66
				c0.3,0.4,0.6,0.6,0.9,0.8c0.3,0.2,0.7,0.2,1.2,0.2h2.6c0.3,0,0.5-0.2,0.5-0.5V38.8C278.2,38.5,278,38.3,277.7,38.3z"/>
			<path class="st1" d="M304.1,38.3h-21.8c-0.3,0-0.5,0.2-0.5,0.5v3.9c0,0.3,0.2,0.5,0.5,0.5h7.5c0.3,0,0.5,0.2,0.5,0.5v23
				c0,0.3,0.2,0.5,0.5,0.5h5c0.3,0,0.5-0.2,0.5-0.5v-23c0-0.3,0.2-0.5,0.5-0.5h7.5c0.3,0,0.5-0.2,0.5-0.5v-3.9
				C304.6,38.5,304.4,38.3,304.1,38.3z"/>
			<path class="st1" d="M330.2,66.4l-10.8-27.8c-0.1-0.2-0.2-0.3-0.4-0.3h-5.4c-0.2,0-0.4,0.1-0.4,0.3l-10.9,27.8
				c-0.1,0.3,0.1,0.6,0.4,0.6h4c0.5,0,0.9-0.1,1.2-0.4c0.3-0.3,0.6-0.6,0.7-0.9l1.8-5.2c0.1-0.2,0.2-0.3,0.4-0.3h10.8
				c0.2,0,0.4,0.1,0.4,0.3l1.8,5.2c0.2,0.4,0.4,0.7,0.7,0.9c0.3,0.2,0.7,0.4,1.3,0.4h3.9C330.1,67.1,330.3,66.7,330.2,66.4z
				 M319.8,56.1h-7.2c-0.3,0-0.5-0.3-0.4-0.6l2.9-8.1c0.2-0.5,0.4-1,0.6-1.6c0-0.2,0.1-0.3,0.1-0.5c0.1-0.4,0.7-0.4,0.9,0
				c0,0.1,0.1,0.3,0.1,0.4c0.2,0.6,0.4,1.2,0.6,1.6l2.9,8.2C320.4,55.8,320.2,56.1,319.8,56.1z"/>
			<path class="st1" d="M354.7,62.6l-2.1-2.2c-0.2-0.2-0.5-0.4-0.8-0.4c-0.2,0-0.4,0-0.5,0.1c-0.2,0.1-0.3,0.2-0.5,0.3
				c-0.4,0.4-0.8,0.7-1.3,0.9c-0.4,0.3-0.9,0.5-1.3,0.6c-0.5,0.2-1,0.3-1.5,0.3c-0.6,0.1-1.2,0.1-1.8,0.1c-1.1,0-2.2-0.2-3.2-0.6
				c-1-0.4-1.9-1.1-2.6-1.9c-0.7-0.8-1.3-1.9-1.8-3.1c-0.4-1.2-0.6-2.6-0.6-4.1c0-1.5,0.2-2.9,0.6-4.1c0.4-1.2,1-2.2,1.7-3
				c0.7-0.8,1.6-1.5,2.6-1.9c1-0.4,2.1-0.7,3.3-0.7c1.1,0,2,0.1,2.7,0.3c0.7,0.2,1.3,0.5,1.8,0.8c0.5,0.3,0.9,0.5,1.2,0.7
				c0.3,0.2,0.6,0.3,1,0.3c0.3,0,0.6-0.1,0.7-0.2c0.2-0.1,0.3-0.3,0.5-0.5l1.8-2.4c0.1-0.2,0.1-0.5-0.1-0.6c-0.5-0.5-1-0.9-1.6-1.3
				c-0.7-0.5-1.4-0.9-2.3-1.2s-1.7-0.6-2.6-0.8c-0.9-0.2-1.9-0.3-3-0.3c-1.4,0-2.7,0.2-4,0.5c-1.2,0.3-2.4,0.8-3.5,1.4
				c-1.1,0.6-2,1.4-2.8,2.2c-0.8,0.9-1.6,1.8-2.1,2.9c-0.6,1.1-1,2.3-1.4,3.6c-0.3,1.3-0.5,2.6-0.5,4.1c0,2.1,0.3,4.1,1,5.9
				c0.7,1.8,1.6,3.3,2.8,4.6s2.7,2.3,4.4,3.1c1.7,0.7,3.6,1.1,5.8,1.1c2.4,0,4.4-0.4,6.1-1.1c1.6-0.7,3-1.7,4.1-3
				C354.9,63,354.9,62.7,354.7,62.6z"/>
			<path class="st1" d="M384.4,46.9c-0.7-1.8-1.7-3.3-3-4.6c-1.3-1.3-2.8-2.3-4.6-3.1c-1.8-0.7-3.8-1.1-6-1.1c-2.2,0-4.2,0.4-6,1.1
				c-1.8,0.7-3.4,1.8-4.7,3.1c-1.3,1.3-2.3,2.9-3,4.6c-0.7,1.8-1.1,3.7-1.1,5.8c0,2.1,0.4,4,1.1,5.8c0.7,1.8,1.7,3.3,3,4.7
				c1.3,1.3,2.8,2.3,4.7,3.1c1.8,0.7,3.8,1.1,6,1.1c2.2,0,4.2-0.4,6-1.1c1.8-0.7,3.4-1.8,4.6-3.1c1.3-1.3,2.3-2.9,3-4.7
				s1.1-3.7,1.1-5.8C385.5,50.6,385.1,48.7,384.4,46.9z M378.8,56.8c-0.4,1.2-1,2.2-1.7,3c-0.7,0.8-1.7,1.5-2.7,1.9
				c-1.1,0.4-2.3,0.7-3.6,0.7c-1.3,0-2.6-0.2-3.6-0.7c-1.1-0.4-2-1.1-2.7-1.9c-0.7-0.8-1.3-1.8-1.7-3c-0.4-1.2-0.6-2.6-0.6-4.1
				c0-1.5,0.2-2.9,0.6-4.1c0.4-1.2,1-2.2,1.7-3c0.7-0.8,1.7-1.5,2.7-1.9c1.1-0.4,2.3-0.7,3.6-0.7c1.3,0,2.5,0.2,3.6,0.7
				c1.1,0.4,2,1.1,2.7,1.9c0.7,0.8,1.3,1.9,1.7,3c0.4,1.2,0.6,2.5,0.6,4.1C379.4,54.2,379.2,55.6,378.8,56.8z"/>
			<path class="st1" d="M395.3,38.3h-5.1c-0.3,0-0.5,0.2-0.5,0.5v27.8c0,0.3,0.2,0.5,0.5,0.5h5.1c0.3,0,0.5-0.2,0.5-0.5V38.8
				C395.8,38.5,395.6,38.3,395.3,38.3z"/>
			<path class="st1" d="M426,38.3h-4.3c-0.3,0-0.5,0.2-0.5,0.5v16c0,0.4,0,0.9,0,1.3c0,0.5,0.1,1,0.1,1.5l-14.4-18.3
				c-0.2-0.2-0.3-0.4-0.4-0.5c-0.1-0.1-0.3-0.2-0.4-0.3c-0.1-0.1-0.3-0.1-0.5-0.1c-0.2,0-0.4,0-0.6,0h-2.7c-0.3,0-0.5,0.2-0.5,0.5
				v27.8c0,0.3,0.2,0.5,0.5,0.5h4.3c0.3,0,0.5-0.2,0.5-0.5V50.4c0-0.4,0-0.8,0-1.2c0-0.5,0-0.9-0.1-1.4L421.3,66
				c0.3,0.4,0.6,0.6,0.9,0.8c0.3,0.2,0.7,0.2,1.2,0.2h2.6c0.3,0,0.5-0.2,0.5-0.5V38.8C426.4,38.5,426.2,38.3,426,38.3z"/>
		</g>
	</g>
</g>
</svg>
