<?xml version="1.0" encoding="utf-8"?>
<!-- Generator: Adobe Illustrator 23.0.1, SVG Export Plug-In . SVG Version: 6.00 Build 0)  -->
<svg version="1.1" id="Layer_1" xmlns="http://www.w3.org/2000/svg" xmlns:xlink="http://www.w3.org/1999/xlink" x="0px" y="0px"
	 viewBox="0 0 108.7 80.7" style="enable-background:new 0 0 108.7 80.7;" xml:space="preserve">
<style type="text/css">
	.st0{fill:#020202;}
	.st1{fill:none;stroke:#EC1C24;stroke-miterlimit:10;}
	.st2{fill:#FFFFFF;}
</style>
<g>
	<defs>
		<rect id="SVGID_1_" x="0.6" width="107.6" height="80.2"/>
	</defs>
	<clipPath id="SVGID_2_">
		<use xlink:href="#SVGID_1_"  style="overflow:visible;"/>
	</clipPath>
</g>
<g>
	<g>
		<path class="st0" d="M36,51c-0.5-0.4-1-0.7-1.6-0.9c-0.6-0.2-1.2-0.2-1.8-0.2s-1.3,0.3-2,0.6l-3.1,1.7c-0.1,0-0.1,0.1-0.1,0.2
			l1.6,3c0,0.1,0.1,0.1,0.2,0.1l1.5-0.8c0.1,0,0.1-0.1,0.1-0.2l-0.9-1.6c0-0.1,0-0.2,0.1-0.2l1.4-0.7c0.4-0.2,0.8-0.4,1.2-0.4
			c0.4-0.1,0.8,0,1.1,0.1c0.3,0.1,0.7,0.3,1,0.6c0.3,0.3,0.6,0.7,0.8,1.1c0.2,0.4,0.4,0.9,0.5,1.3c0.1,0.4,0.1,0.8,0,1.2
			c-0.1,0.3-0.2,0.7-0.5,1c-0.3,0.3-0.6,0.6-1,0.8l-1.4,0.7c-0.1,0-0.2,0-0.2-0.1L32,56.8c0-0.1-0.1-0.1-0.2-0.1l-1.5,0.8
			c-0.1,0-0.1,0.1-0.1,0.2l1.6,2.9c0,0.1,0.1,0.1,0.2,0.1l3.1-1.7c0.7-0.3,1.2-0.8,1.6-1.3s0.7-1,0.9-1.6c0.2-0.6,0.2-1.2,0.2-1.8
			c-0.1-0.6-0.3-1.3-0.6-1.9C36.9,51.9,36.5,51.4,36,51z"/>
		<path class="st0" d="M38.9,47.9l3.4-1.8c0.1,0,0.1-0.1,0.1-0.2l-0.6-1.1c0-0.1-0.1-0.1-0.2-0.1l-5.2,2.8c-0.1,0-0.1,0.1-0.1,0.2
			l4.4,8.2c0,0.1,0.1,0.1,0.2,0.1l5.2-2.8c0.1,0,0.1-0.1,0.1-0.2l-0.6-1.1c0-0.1-0.1-0.1-0.2-0.1l-3.4,1.8c-0.1,0-0.2,0-0.2-0.1
			l-1-2c0-0.1,0-0.2,0.1-0.2l2.6-1.4c0.1,0,0.1-0.1,0.1-0.2l-0.6-1.1c0-0.1-0.1-0.1-0.2-0.1L40,50.1c-0.1,0-0.2,0-0.2-0.1l-1-1.9
			C38.8,48,38.8,48,38.9,47.9z"/>
		<path class="st0" d="M50.1,40.2l-1.3,0.7c-0.1,0-0.1,0.1-0.1,0.2l2.5,4.7c0.1,0.1,0.1,0.3,0.2,0.4c0.1,0.1,0.2,0.3,0.3,0.4
			l-7.2-3.1c-0.1,0-0.2-0.1-0.2-0.1c0,0-0.1,0-0.2,0s-0.1,0-0.2,0c-0.1,0-0.1,0.1-0.2,0.1L43.1,44C43,44,43,44.1,43,44.2l4.4,8.2
			c0,0.1,0.1,0.1,0.2,0.1l1.3-0.7c0.1,0,0.1-0.1,0.1-0.2l-2.5-4.8c-0.1-0.1-0.1-0.2-0.2-0.4c-0.1-0.1-0.1-0.3-0.3-0.4l7.1,3.1
			c0.2,0.1,0.3,0.1,0.4,0.1c0.1,0,0.2-0.1,0.4-0.1l0.8-0.4c0.1,0,0.1-0.1,0.1-0.2l-4.4-8.2C50.3,40.2,50.2,40.1,50.1,40.2z"/>
		<path class="st0" d="M57.9,36l-6.5,3.4c-0.1,0-0.1,0.1-0.1,0.2l0.6,1.2c0,0.1,0.1,0.1,0.2,0.1l2.2-1.2c0.1,0,0.2,0,0.2,0.1
			l3.6,6.8c0,0.1,0.1,0.1,0.2,0.1l1.5-0.8c0.1,0,0.1-0.1,0.1-0.2l-3.7-6.9c0-0.1,0-0.2,0.1-0.2l2.2-1.2c0.1,0,0.1-0.1,0.1-0.2
			L58.2,36C58.1,36,58,36,57.9,36z"/>
		<path class="st0" d="M70.1,40.2l-7.6-6.5c-0.1,0-0.1-0.1-0.2,0l-1.6,0.9c-0.1,0-0.1,0.1-0.1,0.2l1.2,10c0,0.1,0.1,0.2,0.2,0.1
			l1.2-0.6c0.1-0.1,0.3-0.2,0.3-0.3c0-0.1,0.1-0.3,0.1-0.4l-0.3-1.8c0-0.1,0-0.1,0.1-0.2l3.2-1.7c0.1,0,0.1,0,0.2,0l1.4,1.3
			c0.1,0.1,0.2,0.1,0.3,0.2c0.1,0,0.3,0,0.4-0.1l1.2-0.6C70.2,40.4,70.2,40.3,70.1,40.2z M65.4,38.8l-2.1,1.1c-0.1,0-0.2,0-0.2-0.1
			L62.6,37c0-0.2,0-0.4-0.1-0.6c0-0.1,0-0.1,0-0.2c0-0.1,0.1-0.2,0.3-0.1c0,0,0.1,0.1,0.1,0.1c0.2,0.1,0.3,0.3,0.4,0.4l2.2,2
			C65.5,38.6,65.5,38.7,65.4,38.8z"/>
		<path class="st0" d="M76.7,35.2l-1-0.3c-0.1,0-0.2,0-0.3,0c-0.1,0-0.1,0.1-0.1,0.1c0,0.1-0.1,0.1-0.1,0.2
			c-0.1,0.2-0.1,0.3-0.2,0.5c-0.1,0.2-0.2,0.3-0.3,0.4c-0.1,0.1-0.2,0.2-0.4,0.3c-0.2,0.1-0.3,0.2-0.5,0.3c-0.3,0.2-0.7,0.3-1,0.3
			c-0.4,0-0.7,0-1.1-0.2c-0.3-0.1-0.7-0.4-1-0.6c-0.3-0.3-0.6-0.7-0.8-1.1s-0.4-0.9-0.5-1.3s-0.1-0.8,0-1.2c0.1-0.3,0.2-0.7,0.5-1
			c0.2-0.3,0.5-0.5,0.9-0.7c0.3-0.2,0.6-0.3,0.8-0.3s0.5-0.1,0.7,0c0.2,0,0.3,0,0.5,0c0.1,0,0.2,0,0.3-0.1c0.1,0,0.2-0.1,0.2-0.2
			c0-0.1,0-0.1,0.1-0.2l0.2-1c0-0.1,0-0.2-0.1-0.2c-0.2-0.1-0.4-0.1-0.7-0.1c-0.3,0-0.6,0-0.9,0c-0.3,0-0.6,0.1-0.9,0.2
			c-0.3,0.1-0.6,0.2-0.9,0.4c-0.4,0.2-0.8,0.5-1.1,0.8c-0.3,0.3-0.6,0.6-0.8,1c-0.2,0.4-0.4,0.7-0.5,1.1c-0.1,0.4-0.2,0.8-0.2,1.2
			c0,0.4,0.1,0.8,0.2,1.3c0.1,0.4,0.3,0.8,0.5,1.3c0.3,0.6,0.7,1.2,1.2,1.6c0.5,0.4,1,0.7,1.6,0.9c0.6,0.2,1.2,0.3,1.8,0.2
			c0.6-0.1,1.2-0.2,1.9-0.6c0.7-0.4,1.2-0.8,1.6-1.3c0.4-0.5,0.6-1,0.7-1.5C76.9,35.3,76.8,35.2,76.7,35.2z"/>
		<path class="st0" d="M83,25.8c-0.5-0.4-1-0.7-1.6-0.9c-0.6-0.2-1.2-0.2-1.9-0.2c-0.6,0.1-1.3,0.3-2,0.6c-0.7,0.3-1.2,0.8-1.6,1.3
			c-0.4,0.5-0.7,1.1-0.9,1.7s-0.2,1.2-0.2,1.8c0.1,0.6,0.3,1.3,0.6,1.9c0.3,0.6,0.8,1.1,1.2,1.5c0.5,0.4,1,0.7,1.6,0.9
			c0.6,0.2,1.2,0.2,1.9,0.2c0.6-0.1,1.3-0.3,2-0.6c0.7-0.3,1.2-0.8,1.6-1.3c0.4-0.5,0.7-1.1,0.9-1.6c0.2-0.6,0.2-1.2,0.1-1.9
			c-0.1-0.6-0.3-1.3-0.6-1.9C84,26.7,83.5,26.2,83,25.8z M83,29.6c0.1,0.4,0.1,0.8,0,1.2c-0.1,0.3-0.3,0.7-0.5,1
			c-0.3,0.3-0.6,0.6-1,0.8c-0.4,0.2-0.8,0.4-1.2,0.4c-0.4,0.1-0.8,0-1.1-0.1c-0.3-0.1-0.7-0.3-1-0.6c-0.3-0.3-0.6-0.7-0.8-1.1
			s-0.4-0.9-0.5-1.3c-0.1-0.4-0.1-0.8,0-1.2c0.1-0.3,0.3-0.7,0.5-1c0.3-0.3,0.6-0.6,1-0.8c0.4-0.2,0.8-0.3,1.2-0.4
			c0.4-0.1,0.8,0,1.1,0.1s0.7,0.4,1,0.6c0.3,0.3,0.6,0.6,0.8,1.1C82.7,28.8,82.9,29.2,83,29.6z"/>
		<path class="st0" d="M84.9,21.6l-1.5,0.8c-0.1,0-0.1,0.1-0.1,0.2l4.4,8.2c0,0.1,0.1,0.1,0.2,0.1l1.5-0.8c0.1,0,0.1-0.1,0.1-0.2
			l-4.4-8.2C85.1,21.6,85,21.5,84.9,21.6z"/>
		<path class="st0" d="M94,16.7l-1.3,0.7c-0.1,0-0.1,0.1-0.1,0.2l2.5,4.7c0.1,0.1,0.1,0.3,0.2,0.4c0.1,0.1,0.2,0.3,0.3,0.4L88.5,20
			c-0.1,0-0.2-0.1-0.2-0.1c0,0-0.1,0-0.2,0c0,0-0.1,0-0.2,0s-0.1,0.1-0.2,0.1L87,20.5c-0.1,0-0.1,0.1-0.1,0.2l4.4,8.2
			c0,0.1,0.1,0.1,0.2,0.1l1.3-0.7c0.1,0,0.1-0.1,0.1-0.2l-2.5-4.8c-0.1-0.1-0.1-0.2-0.2-0.4c-0.1-0.1-0.1-0.3-0.3-0.4l7.1,3.1
			c0.2,0.1,0.3,0.1,0.4,0.1s0.2-0.1,0.4-0.1l0.8-0.4c0.1,0,0.1-0.1,0.1-0.2l-4.4-8.2C94.2,16.7,94.1,16.7,94,16.7z"/>
	</g>
</g>
<rect x="0.4" y="0.4" class="st1" width="107.9" height="79.8"/>
<line class="st1" x1="0.6" y1="0.2" x2="108.2" y2="79.8"/>
<g>
	<g>
		<path class="st2" d="M-34.1-17.2c-0.1,0-0.3,0-0.4,0C-34.4-17.2-34.2-17.2-34.1-17.2z"/>
		<path d="M22.8,67l-1.7-1.6l-1.1-1l-1.2-1.2l-0.3-0.3l-0.2-0.2l-0.1,0l0,0l0,0c0,0,0,0,0,0l0,0l0,0c0,0,0,0,0,0l0,0.1
			c0,0,0.1,0.8,0.1,0.8l0.4,2.3l0.3,2.1l0.4,3.2c1-0.1,2-0.4,2.9-0.9c0.9-0.5,1.6-1.1,2.3-1.7L24,68.1L22.8,67z"/>
		<path d="M26,58.6c-2.3-4.3-7.5-5.9-11.8-3.7s-5.9,7.5-3.6,11.8c1.1,2.2,3.1,3.7,5.2,4.3c0,0,0,0,0.1,0l0.2-3.8l0-1.4l-0.1-1.3
			l-0.1-1.4l-0.2-1.4l-0.3-1.7L15,58.6l-0.4-1.9l-0.3-1.4l0.5,0.5l1,1.1l0.9,1l0.9,1l0.9,0.9l0.8,0.8l0.9,0.8l0.9,0.8l1.1,0.8
			l1.3,0.9l1.2,0.7l1.7,0.9C27.3,63.2,27.1,60.8,26,58.6z"/>
		<path class="st2" d="M-33.8-17.3L-33.8-17.3c-0.1,0-0.2,0-0.3,0C-34-17.2-33.9-17.2-33.8-17.3z"/>
	</g>
</g>
</svg>
