<?xml version="1.0" encoding="utf-8"?>
<!-- Generator: Adobe Illustrator 23.0.1, SVG Export Plug-In . SVG Version: 6.00 Build 0)  -->
<svg version="1.1" id="Layer_1" xmlns="http://www.w3.org/2000/svg" xmlns:xlink="http://www.w3.org/1999/xlink" x="0px" y="0px"
	 viewBox="0 0 108.7 80.7" style="enable-background:new 0 0 108.7 80.7;" xml:space="preserve">
<style type="text/css">
	.st0{fill:#D7EFF9;}
	.st1{fill:#FFFFFF;}
	.st2{fill:none;stroke:#EC1C24;stroke-miterlimit:10;}
</style>
<rect x="0.6" class="st0" width="108.1" height="80.7"/>
<g>
	<defs>
		<rect id="SVGID_1_" x="0.6" width="107.6" height="80.2"/>
	</defs>
	<clipPath id="SVGID_2_">
		<use xlink:href="#SVGID_1_"  style="overflow:visible;"/>
	</clipPath>
</g>
<g>
	<g>
		<path class="st1" d="M34.2,40.8c-0.2-0.6-0.6-1.1-1-1.5c-0.4-0.4-0.9-0.8-1.5-1c-0.6-0.2-1.3-0.4-2-0.4h-3.6
			C26,37.9,26,38,26,38.1v3.4c0,0.1,0.1,0.2,0.2,0.2h1.7c0.1,0,0.2-0.1,0.2-0.2v-1.8c0-0.1,0.1-0.2,0.2-0.2h1.5
			c0.4,0,0.9,0.1,1.2,0.2c0.4,0.1,0.7,0.4,0.9,0.6s0.4,0.6,0.6,1c0.1,0.4,0.2,0.9,0.2,1.4s-0.1,1-0.2,1.4c-0.1,0.4-0.3,0.7-0.6,1
			c-0.2,0.3-0.5,0.5-0.9,0.6s-0.8,0.2-1.2,0.2h-1.5c-0.1,0-0.2-0.1-0.2-0.2V44c0-0.1-0.1-0.2-0.2-0.2h-1.7C26,43.9,26,43.9,26,44
			v3.3c0,0.1,0.1,0.2,0.2,0.2h3.6c0.7,0,1.4-0.1,2-0.4c0.6-0.2,1.1-0.6,1.5-1c0.4-0.4,0.8-0.9,1-1.5c0.2-0.6,0.4-1.2,0.4-1.9
			C34.6,42,34.5,41.4,34.2,40.8z"/>
		<path class="st1" d="M38.2,39.4h3.8c0.1,0,0.2-0.1,0.2-0.2V38c0-0.1-0.1-0.2-0.2-0.2h-5.8c-0.1,0-0.2,0.1-0.2,0.2v9.3
			c0,0.1,0.1,0.2,0.2,0.2h5.8c0.1,0,0.2-0.1,0.2-0.2v-1.2c0-0.1-0.1-0.2-0.2-0.2h-3.8c-0.1,0-0.2-0.1-0.2-0.2v-2.2
			c0-0.1,0.1-0.2,0.2-0.2h2.9c0.1,0,0.2-0.1,0.2-0.2V42c0-0.1-0.1-0.2-0.2-0.2h-2.9c-0.1,0-0.2-0.1-0.2-0.2v-2.2
			C38.1,39.5,38.2,39.4,38.2,39.4z"/>
		<path class="st1" d="M51.8,37.9h-1.4c-0.1,0-0.2,0.1-0.2,0.2v5.4c0,0.1,0,0.3,0,0.4c0,0.2,0,0.3,0,0.5l-4.8-6.1
			c-0.1-0.1-0.1-0.1-0.1-0.2c0,0-0.1-0.1-0.1-0.1c0,0-0.1,0-0.2,0s-0.1,0-0.2,0h-0.9c-0.1,0-0.2,0.1-0.2,0.2v9.3
			c0,0.1,0.1,0.2,0.2,0.2h1.4c0.1,0,0.2-0.1,0.2-0.2V42c0-0.1,0-0.3,0-0.4c0-0.2,0-0.3,0-0.5l4.8,6.1c0.1,0.1,0.2,0.2,0.3,0.3
			c0.1,0.1,0.2,0.1,0.4,0.1h0.9c0.1,0,0.2-0.1,0.2-0.2V38C52,38,51.9,37.9,51.8,37.9z"/>
		<path class="st1" d="M60.7,37.9h-7.3c-0.1,0-0.2,0.1-0.2,0.2v1.3c0,0.1,0.1,0.2,0.2,0.2h2.5c0.1,0,0.2,0.1,0.2,0.2v7.7
			c0,0.1,0.1,0.2,0.2,0.2h1.7c0.1,0,0.2-0.1,0.2-0.2v-7.8c0-0.1,0.1-0.2,0.2-0.2h2.5c0.1,0,0.2-0.1,0.2-0.2V38
			C60.8,38,60.8,37.9,60.7,37.9z"/>
		<path class="st1" d="M69.4,47.3L65.8,38c0-0.1-0.1-0.1-0.1-0.1h-1.8c-0.1,0-0.1,0-0.1,0.1l-3.7,9.3c0,0.1,0,0.2,0.1,0.2h1.3
			c0.2,0,0.3,0,0.4-0.1s0.2-0.2,0.2-0.3l0.6-1.7c0-0.1,0.1-0.1,0.1-0.1h3.6c0.1,0,0.1,0,0.1,0.1l0.6,1.7c0.1,0.1,0.1,0.2,0.2,0.3
			c0.1,0.1,0.2,0.1,0.4,0.1h1.3C69.4,47.5,69.5,47.4,69.4,47.3z M65.9,43.9h-2.4c-0.1,0-0.2-0.1-0.1-0.2l1-2.7
			c0.1-0.2,0.1-0.3,0.2-0.5c0-0.1,0-0.1,0-0.2c0-0.1,0.2-0.1,0.3,0c0,0,0,0.1,0,0.1c0.1,0.2,0.1,0.4,0.2,0.5l1,2.8
			C66.1,43.8,66.1,43.9,65.9,43.9z"/>
		<path class="st1" d="M77.6,46l-0.7-0.7c-0.1-0.1-0.2-0.1-0.3-0.1c-0.1,0-0.1,0-0.2,0c-0.1,0-0.1,0.1-0.2,0.1
			c-0.1,0.1-0.3,0.2-0.4,0.3c-0.1,0.1-0.3,0.2-0.4,0.2c-0.2,0.1-0.3,0.1-0.5,0.1c-0.2,0-0.4,0-0.6,0c-0.4,0-0.7-0.1-1.1-0.2
			c-0.3-0.1-0.6-0.4-0.9-0.6c-0.2-0.3-0.4-0.6-0.6-1c-0.1-0.4-0.2-0.9-0.2-1.4c0-0.5,0.1-1,0.2-1.4c0.1-0.4,0.3-0.7,0.6-1
			c0.2-0.3,0.5-0.5,0.9-0.6c0.3-0.1,0.7-0.2,1.1-0.2c0.4,0,0.7,0,0.9,0.1c0.2,0.1,0.4,0.2,0.6,0.3s0.3,0.2,0.4,0.2
			c0.1,0.1,0.2,0.1,0.3,0.1c0.1,0,0.2,0,0.2-0.1c0.1,0,0.1-0.1,0.2-0.2l0.6-0.8c0-0.1,0-0.2,0-0.2c-0.2-0.2-0.3-0.3-0.5-0.4
			c-0.2-0.2-0.5-0.3-0.8-0.4c-0.3-0.1-0.6-0.2-0.9-0.3c-0.3-0.1-0.6-0.1-1-0.1c-0.5,0-0.9,0.1-1.3,0.2c-0.4,0.1-0.8,0.3-1.2,0.5
			s-0.7,0.5-0.9,0.7c-0.3,0.3-0.5,0.6-0.7,1c-0.2,0.4-0.3,0.8-0.5,1.2c-0.1,0.4-0.2,0.9-0.2,1.4c0,0.7,0.1,1.4,0.3,2
			c0.2,0.6,0.5,1.1,0.9,1.5c0.4,0.4,0.9,0.8,1.5,1c0.6,0.2,1.2,0.4,1.9,0.4c0.8,0,1.5-0.1,2-0.4c0.5-0.2,1-0.6,1.4-1
			C77.7,46.2,77.7,46.1,77.6,46z"/>
		<path class="st1" d="M87.6,40.8c-0.2-0.6-0.6-1.1-1-1.5c-0.4-0.4-0.9-0.8-1.5-1c-0.6-0.2-1.3-0.4-2-0.4s-1.4,0.1-2,0.4
			c-0.6,0.2-1.1,0.6-1.6,1c-0.4,0.4-0.8,1-1,1.5c-0.2,0.6-0.4,1.2-0.4,1.9c0,0.7,0.1,1.3,0.4,1.9c0.2,0.6,0.6,1.1,1,1.6
			c0.4,0.4,0.9,0.8,1.6,1c0.6,0.2,1.3,0.4,2,0.4s1.4-0.1,2-0.4s1.1-0.6,1.5-1c0.4-0.4,0.8-1,1-1.6c0.2-0.6,0.4-1.2,0.4-1.9
			C88,42,87.9,41.4,87.6,40.8z M85.7,44.1c-0.1,0.4-0.3,0.7-0.6,1c-0.2,0.3-0.6,0.5-0.9,0.6c-0.4,0.1-0.8,0.2-1.2,0.2
			s-0.9-0.1-1.2-0.2c-0.4-0.1-0.7-0.4-0.9-0.6c-0.2-0.3-0.4-0.6-0.6-1s-0.2-0.9-0.2-1.4c0-0.5,0.1-1,0.2-1.4c0.1-0.4,0.3-0.7,0.6-1
			c0.2-0.3,0.6-0.5,0.9-0.6c0.4-0.1,0.8-0.2,1.2-0.2s0.8,0.1,1.2,0.2c0.4,0.1,0.7,0.4,0.9,0.6c0.2,0.3,0.4,0.6,0.6,1
			c0.1,0.4,0.2,0.8,0.2,1.4C85.9,43.2,85.9,43.7,85.7,44.1z"/>
		<path class="st1" d="M91.3,37.9h-1.7c-0.1,0-0.2,0.1-0.2,0.2v9.3c0,0.1,0.1,0.2,0.2,0.2h1.7c0.1,0,0.2-0.1,0.2-0.2V38
			C91.4,38,91.4,37.9,91.3,37.9z"/>
		<path class="st1" d="M101.6,37.9h-1.4c-0.1,0-0.2,0.1-0.2,0.2v5.4c0,0.1,0,0.3,0,0.4c0,0.2,0,0.3,0,0.5l-4.8-6.1
			c-0.1-0.1-0.1-0.1-0.1-0.2c0,0-0.1-0.1-0.1-0.1c0,0-0.1,0-0.2,0s-0.1,0-0.2,0h-0.9c-0.1,0-0.2,0.1-0.2,0.2v9.3
			c0,0.1,0.1,0.2,0.2,0.2h1.4c0.1,0,0.2-0.1,0.2-0.2V42c0-0.1,0-0.3,0-0.4c0-0.2,0-0.3,0-0.5l4.8,6.1c0.1,0.1,0.2,0.2,0.3,0.3
			s0.2,0.1,0.4,0.1h0.9c0.1,0,0.2-0.1,0.2-0.2V38C101.7,38,101.7,37.9,101.6,37.9z"/>
	</g>
</g>
<rect x="0.4" y="0.4" class="st2" width="107.9" height="79.8"/>
<line class="st2" x1="0.6" y1="0.2" x2="108.2" y2="79.8"/>
<g>
	<g>
		<path class="st1" d="M4.6-52.4c-0.1-0.1-0.3-0.1-0.4-0.2C4.3-52.5,4.4-52.5,4.6-52.4z"/>
		<path class="st1" d="M15.1,48.7l-0.7-2.2l-0.5-1.4l-0.5-1.6L13.2,43l-0.1-0.2l0-0.1l0,0l0,0c0,0,0,0,0,0l0,0l0,0c0,0,0,0,0,0
			l0,0.1c0,0-0.3,0.7-0.3,0.7l-0.8,2.2l-0.7,2l-1.1,3c0.9,0.4,2,0.6,3,0.6c1,0,1.9-0.2,2.8-0.5l-0.3-0.8L15.1,48.7z"/>
		<path class="st1" d="M21.9,42.8c0-4.8-3.9-8.8-8.7-8.8c-4.8,0-8.8,3.9-8.8,8.7c0,2.5,1,4.7,2.6,6.3c0,0,0,0,0,0L9,45.7l0.6-1.3
			l0.6-1.2l0.5-1.3l0.5-1.3l0.5-1.6l0.5-1.4l0.6-1.9l0.4-1.4l0.2,0.7l0.4,1.4l0.3,1.3l0.4,1.3l0.4,1.2l0.4,1.1l0.4,1.1l0.5,1.1
			l0.6,1.2l0.7,1.4l0.7,1.2l1.1,1.6C20.8,47.5,21.8,45.2,21.9,42.8z"/>
		<path class="st1" d="M4.9-52.3L4.9-52.3c-0.1-0.1-0.2-0.1-0.3-0.1C4.7-52.4,4.7-52.3,4.9-52.3z"/>
	</g>
</g>
</svg>
