<?xml version="1.0" encoding="utf-8"?>
<!-- Generator: Adobe Illustrator 23.0.1, SVG Export Plug-In . SVG Version: 6.00 Build 0)  -->
<svg version="1.1" id="Layer_1" xmlns="http://www.w3.org/2000/svg" xmlns:xlink="http://www.w3.org/1999/xlink" x="0px" y="0px"
	 viewBox="0 0 844.2 255" style="enable-background:new 0 0 844.2 255;" xml:space="preserve">
<style type="text/css">
	.st0{fill:#FFFFFF;}
	.st1{fill:#EC1C24;}
	.st2{fill:#231F20;}
	.st3{fill:#333333;}
</style>
<g>
	<g>
		<g>
			<g>
				<path d="M379.4,86.4c-0.4-0.4-0.4-0.8-0.4-1.2v-7.2c0-0.4,0-0.8,0.4-1.2c0.4-0.4,0.8-0.4,1.2-0.4h6.4c3.2,0,6.4-0.8,8.8-2.4
					c2.8-1.6,4.8-3.6,6.4-6.4c1.6-2.8,2.4-5.6,2.4-8.8c0-3.2-0.8-6.4-2.4-8.8c-1.6-2.8-3.6-4.8-6.4-6.4s-5.6-2.4-8.8-2.4h-6.4
					c-0.4,0-0.4,0-0.8,0.4c0,0-0.4,0.4-0.4,0.8v4.8c0,0.4,0,0.8-0.4,1.2c-0.4,0.4-0.8,0.4-1.2,0.4h-7.2c-0.4,0-0.8,0-1.2-0.4
					c-0.4-0.4-0.4-0.8-0.4-1.2V32.3c0-0.4,0-0.8,0.4-1.2c0.4-0.4,0.8-0.4,1.2-0.4H387c5.2,0,10,1.2,14.3,4c4.4,2.4,7.6,6,10.4,10.4
					c2.4,4.4,4,9.2,4,14.3s-1.2,10-4,14.3c-2.4,4.4-6,7.6-10.4,10.4c-4.4,2.4-9.2,4-14.3,4h-6.4C380.2,86.8,379.8,86.8,379.4,86.4z"
					/>
				<path d="M427.2,86.4c-0.4-0.4-0.4-0.8-0.4-1.2V31.9c0-0.4,0-0.8,0.4-1.2c0.4-0.4,0.8-0.4,1.2-0.4h36.2c0.4,0,0.8,0,1.2,0.4
					s0.4,0.8,0.4,1.2v6.8c0,0.4,0,0.8-0.4,1.2c-0.4,0.4-0.8,0.4-1.2,0.4h-26.3c-0.4,0-0.8,0-1.2,0.4c-0.4,0.4-0.4,0.8-0.4,1.2v11.9
					v0.4c0,0.4,0,0.8,0.4,1.2c0.4,0,0.8,0.4,1.6,0.4h20.3c0.4,0,0.8,0,0.8,0.4c0.4,0.4,0.4,0.4,0.4,0.8v6.8c0,0.4,0,0.8-0.4,0.8
					c-0.4,0.4-0.4,0.4-0.8,0.4h-20.3c-0.8,0-1.2,0.4-1.6,0.8c-0.4,0.4-0.4,0.8-0.4,1.2v8.8c0,0.4,0,1.2,0.4,1.2
					c0.4,0.4,0.8,0.4,2,0.4h25.9c0.4,0,0.8,0,1.2,0.4c0.4,0.4,0.4,0.8,0.4,1.2v6.8c0,0.4,0,0.8-0.4,1.2c-0.4,0.4-0.8,0.4-1.2,0.4
					h-36.6C428,86.8,427.6,86.4,427.2,86.4z"/>
				<path d="M479.4,86.4C479,86,479,86,479,85.6V31.5c0-0.4,0-0.4,0.4-0.8c0.4-0.4,0.4-0.4,0.8-0.4h8.4c0.4,0,0.8,0,0.8,0.4
					l19.1,32.3c0.4,1.2,1.2,1.6,1.6,1.6s0.8-0.4,0.8-1.6V31.1c0-0.4,0-0.4,0.4-0.8c0.4-0.4,0.4-0.4,0.8-0.4h8.4c0.4,0,0.8,0,0.8,0.4
					c0.4,0.4,0.4,0.4,0.4,0.8v54.2c0,0.4,0,0.4-0.4,0.8c-0.4,0.4-0.4,0.4-0.8,0.4h-5.6c-0.8,0-1.6,0-2-0.4c-0.4,0-0.8-0.4-1.2-1.2
					l-20.3-32.3c-0.4-0.4-0.8-0.8-0.8-0.8c-0.4,0-0.8,0.4-0.8,1.2v32.3c0,0.4,0,0.4-0.4,0.8c-0.4,0.4-0.4,0.4-0.8,0.4h-8
					C479.8,86.8,479.4,86.8,479.4,86.4z"/>
				<path d="M550.7,86.8c0-0.4-0.4-0.4-0.4-0.8V42.2c0-0.4-0.4-0.8-0.8-1.2c-0.4-0.4-0.8-0.8-1.6-0.8h-13.5c-0.4,0-0.4,0-0.8-0.4
					c-0.4-0.4-0.4-0.4-0.4-0.8v-8c0-0.4,0-0.4,0.4-0.8c0,0,0.4-0.4,0.8-0.4H577c0.4,0,0.4,0,0.8,0.4c0.4,0.4,0.4,0.4,0.4,0.8v7.6
					c0,0.4,0,0.4-0.4,0.8s-0.4,0.4-0.8,0.4h-13.1c-0.4,0-1.2,0-1.2,0.4c-0.4,0.4-0.4,0.8-0.4,1.2v43.8c0,0.4,0,0.4-0.4,0.8
					c0,0.4-0.4,0.4-0.8,0.4h-9.6C551.1,86.8,550.7,86.8,550.7,86.8z"/>
				<path d="M659,83.6c-4.4-2.8-8-6-10.4-10.8c-2.4-4.4-4-9.2-4-14.7c0-5.2,1.2-10,4-14.3c2.4-4.4,6-8,10.4-10.8s9.2-4,14.3-4
					c4,0,8,0.8,11.5,2.4s6.8,4,9.6,6.8c0.4,0.4,0.4,0.8,0.4,1.2c0,0.4,0,0.8-0.4,1.2c-1.2,0.8-2.4,2-3.6,2.8c-1.2,1.2-2,1.6-2.4,2
					c-0.4,0.4-0.8,0.4-1.2,0.4s-0.8,0-1.2-0.4c-1.6-2-3.6-3.2-6-4.4c-2.4-1.2-4.8-1.6-7.2-1.6c-3.2,0-6.4,0.8-9.2,2.4
					c-2.8,1.6-4.8,4-6.8,6.8c-1.6,2.8-2.4,6-2.4,9.2c0,3.2,0.8,6.4,2.4,9.2c1.6,2.8,4,5.2,6.8,6.8c2.8,1.6,6,2.4,9.2,2.4
					c2.4,0,4.4-0.4,6.8-1.2c2-0.8,4-2.4,6-4c0.4-0.4,1.2-0.8,1.6-0.8c0.4,0,0.8,0,1.2,0.4c0.4,0.4,1.2,1.2,2.4,2
					c0.8,0.8,2,1.6,2.4,2.4c0.4,0.4,0.8,1.2,0.8,1.6c0,0.4,0,0.8-0.4,1.2c-2.8,2.8-6,5.2-9.6,6.8c-3.6,1.6-7.6,2.4-11.5,2.4
					C668.2,87.6,663.4,86,659,83.6z"/>
				<path d="M710.4,77.7c-2.8-3.2-4.8-6.4-6-10v-0.4c-0.8-2.8-1.6-6-1.6-9.2c0-3.2,0.4-6.8,1.6-10c1.2-3.2,2.8-6.4,5.2-8.8
					c2.8-3.2,6-5.6,9.2-7.2c3.2-1.6,6.8-2.8,11.5-2.8h0.4c4.4-0.4,8.8,0.4,13.1,2.4c2.8,1.2,5.2,2.8,8,5.2c2.4,2.4,4.4,4.4,5.6,6.8
					c2.4,4.4,4,9.2,4,14.3c0,3.2-0.4,6-1.2,8.8c-0.8,2.8-2.4,5.6-4,8c-1.2,2-2.8,3.6-4.4,4.8c-1.6,1.6-3.6,2.8-6,4
					c-4,2-8.8,3.2-13.5,3.2c-4,0-8-0.8-11.5-2.4C716,83.2,712.8,80.8,710.4,77.7z M745.4,70.5c1.6-1.6,2.4-3.2,3.2-4.8
					c1.2-2.4,1.6-5.2,1.6-7.6c0-3.6-0.8-6.8-2.8-10c-2-3.2-4.8-5.6-8-6.8c-2.4-1.2-5.2-1.6-7.6-1.6s-4.8,0.4-6.8,1.2c-2,0.8-4,2-6,4
					l-1.2,1.6c-1.6,1.6-2.4,3.6-3.2,5.6c-0.8,2-1.2,4-1.2,6.4c0,2.8,0.4,5.2,1.6,8c1.2,2.4,2.8,4.8,4.8,6.4
					c3.6,2.8,7.6,4.4,11.9,4.4c2.8,0,5.6-0.8,8.4-2C742.2,73.7,743.8,72.5,745.4,70.5z"/>
				<path d="M774.5,86.4c-0.4-0.4-0.4-0.8-0.4-1.2V31.5c0-0.4,0-0.8,0.4-1.2c0.4-0.4,0.8-0.4,1.2-0.4h8.4c0.4,0,0.8,0,1.2,0.4
					s0.4,0.8,0.4,1.2v53.8c0,0.4,0,0.8-0.4,1.2c-0.4,0.4-0.8,0.4-1.2,0.4h-8.4C775.3,86.8,774.9,86.4,774.5,86.4z"/>
				<path d="M802,86c-0.4-0.4-0.4-0.4-0.4-0.8V31.1c0-0.4,0-0.4,0.4-0.8s0.4-0.4,0.8-0.4h8.4c0.4,0,0.8,0,0.8,0.4L831,62.5
					c0.4,1.2,1.2,1.6,1.6,1.6c0.4,0,0.8-0.4,0.8-1.6V30.7c0-0.4,0-0.4,0.4-0.8c0.4-0.4,0.4-0.4,0.8-0.4h8.4c0.4,0,0.8,0,0.8,0.4
					c0.4,0.4,0.4,0.4,0.4,0.8v54.2c0,0.4,0,0.4-0.4,0.8S843.4,86,843,86h-5.6c-0.8,0-1.6,0-2-0.4c-0.4,0-0.8-0.4-1.2-1.2l-20.3-32.3
					c-0.4-0.4-0.8-0.8-0.8-0.8c-0.4,0-0.8,0.4-0.8,1.2v32.3c0,0.4,0,0.4-0.4,0.8c-0.4,0.4-0.4,0.4-0.8,0.4h-8
					C802.8,86.4,802.4,86.4,802,86z"/>
			</g>
			<g>
				<path d="M586.5,86.8c0-0.4-0.4-0.4,0-0.8l14.3-54.6c0-0.4,0.4-0.8,0.8-0.8c0.4-0.4,0.8-0.4,1.2-0.4h16.7c0.4,0,0.8,0,0.8,0.4
					c0.4,0.4,0.4,0.4,0.8,0.8L635.5,86v0.4c0,0.4-0.4,0.8-0.8,0.8h-8c-0.4,0-0.8,0-1.2-0.4s-0.4-0.4-0.8-0.8l-4-15.1
					c0-0.4-0.4-0.8-0.8-1.2c-0.4-0.4-0.8-0.4-1.2-0.4h-15.5c-0.4,0-0.8,0-1.2,0.4s-0.8,0.8-0.8,1.2l-4,15.1c0,0.4-0.4,0.8-0.8,0.8
					c-0.4,0.4-0.8,0.4-1.2,0.4h-8C586.9,87.2,586.5,86.8,586.5,86.8z M616,60.5c0.4,0,0.8,0,1.2-0.4c0.4-0.4,0.4-0.8,0.4-1.2
					l-4.4-16.7c0-0.4-0.4-0.8-0.8-1.2c-0.4-0.4-0.8-0.4-1.2-0.4h-0.4c-0.4,0-0.8,0-1.2,0.4c-0.4,0.4-0.8,0.8-0.8,1.2l-4.4,16.7v0.4
					c0,0.4,0,0.8,0.4,1.2c0.4,0.4,0.8,0.4,1.2,0.4h10V60.5z"/>
			</g>
		</g>
		<g>
			<path id="XMLID_2_" d="M346.4,58.5c0,30.3-24.7,55-55,54.6c-15.1,0-28.3-6.4-38.2-15.9c-10-10-16.3-23.9-16.3-39.4
				c0-30.3,24.7-55,55-54.6C322.1,3.6,346.4,28.3,346.4,58.5z"/>
			<path class="st0" d="M265.1,76.9l-11.9,20.7c0,0,4.8,6.8,19.1,12.3l7.2-19.1l4.8-12.7l4.8-13.9l1.6-4.8l0.4-0.4c0,0,0,0,0-0.4
				l0,0l0,0l0,0l0,0l0,0l0.4,0.4l0.4,1.2l0.8,2.8l3.2,10l2.8,8.8l4.4,13.5l3.6,9.6l2,5.2c0,0,11.2-3.2,20.7-12.3l-6.8-10.4l-4.4-7.6
				l-4.4-8l-4-8l-2.8-7.2l-2.4-6.8l-2.4-6.8l-2.4-7.6l-2.4-8l-2-8l-2.4-8.8l-1.2-4.4l-2.8,8.4l-3.6,11.9l-2.8,9.2l-3.6,10l-2.8,8.4
				l-3.2,8l-4,6.8L265.1,76.9z"/>
		</g>
	</g>
	<g>
		<g>
			<g>
				<rect x="825.1" y="175.2" class="st1" width="16.7" height="3.2"/>
			</g>
			<g>
				<path class="st1" d="M791.2,178.8h-33.5v-3.6h33.5V178.8z M723.9,178.8h-33.5v-3.6h33.5V178.8z M657,178.8h-33.5v-3.6H657V178.8
					z M589.7,178.8h-33.9v-3.6h33.5v3.6H589.7z M522.4,178.8H489v-3.6h33.5V178.8z M455.1,178.8h-33.5v-3.6h33.5V178.8z
					 M387.8,178.8h-33.5v-3.6h33.5V178.8z M320.9,178.8h-33.5v-3.6h33.5V178.8z"/>
			</g>
			<g>
				<rect x="236.5" y="175.2" class="st1" width="16.7" height="3.2"/>
			</g>
		</g>
		<g>
			<g>
				<rect x="839.4" y="168.5" class="st2" width="4.8" height="16.7"/>
			</g>
			<g>
				<g>
					<rect x="835.8" y="176.4" class="st1" width="8.4" height="10.4"/>
				</g>
				<g>
					<rect x="835.8" y="166.9" class="st1" width="8.4" height="10"/>
				</g>
			</g>
		</g>
		<g>
			<g>
				<rect x="238.1" y="168.5" class="st2" width="4.8" height="16.7"/>
			</g>
			<g>
				<g>
					<rect x="236.5" y="176.8" class="st1" width="6.8" height="10"/>
				</g>
				<g>
					<rect x="236.5" y="166.9" class="st1" width="6.8" height="10"/>
				</g>
			</g>
		</g>
	</g>
	<g>
		<g>
			<g>
				<rect x="170" y="4" class="st1" width="3.2" height="16.7"/>
			</g>
			<g>
				<rect x="170" y="45.8" class="st1" width="3.2" height="25.5"/>
			</g>
			<g>
				<rect x="170" y="96.8" class="st1" width="3.2" height="16.7"/>
			</g>
		</g>
		<g>
			<g>
				<rect x="163.2" y="3.2" class="st2" width="16.7" height="0.8"/>
			</g>
			<g>
				<g>
					<rect x="171.6" class="st1" width="10" height="4.4"/>
				</g>
				<g>
					<rect x="161.6" class="st1" width="10" height="4.4"/>
				</g>
			</g>
		</g>
		<g>
			<g>
				<rect x="163.2" y="112.3" class="st2" width="16.7" height="0.8"/>
			</g>
			<g>
				<g>
					<rect x="171.6" y="112.3" class="st1" width="10" height="4"/>
				</g>
				<g>
					<rect x="161.6" y="112.3" class="st1" width="10" height="4"/>
				</g>
			</g>
		</g>
	</g>
</g>
<g>
	<path class="st3" d="M20,68.1v3.2H1.9v-3.2h7.3V45c0-0.7,0-1.4,0.1-2.1l-6,5.2c-0.2,0.2-0.4,0.3-0.6,0.3c-0.2,0-0.4,0-0.6,0
		c-0.2,0-0.3-0.1-0.5-0.2c-0.1-0.1-0.3-0.2-0.3-0.3l-1.3-1.8l10.1-8.7h3.4v30.7H20z"/>
	<path class="st3" d="M34.5,50.1c-0.3,0.4-0.6,0.7-0.9,1.1c-0.3,0.4-0.5,0.7-0.8,1.1c0.8-0.6,1.7-1,2.6-1.3c1-0.3,2-0.4,3.1-0.4
		c1.4,0,2.7,0.2,3.9,0.7c1.2,0.4,2.3,1.1,3.2,2c0.9,0.9,1.6,1.9,2.2,3.2c0.5,1.3,0.8,2.7,0.8,4.3c0,1.6-0.3,3-0.9,4.3
		c-0.6,1.3-1.4,2.5-2.4,3.5c-1,1-2.2,1.8-3.7,2.3c-1.4,0.6-3,0.9-4.7,0.9c-1.7,0-3.2-0.3-4.6-0.8c-1.4-0.5-2.6-1.3-3.5-2.3
		s-1.7-2.2-2.2-3.6s-0.8-3-0.8-4.8c0-1.5,0.3-3.1,1-4.7s1.7-3.5,3.1-5.4l8.6-11.5c0.2-0.3,0.5-0.5,0.9-0.7c0.4-0.2,0.8-0.3,1.3-0.3
		h3.7L34.5,50.1z M37,68.2c1.1,0,2.2-0.2,3.1-0.5c0.9-0.4,1.7-0.9,2.4-1.5c0.7-0.6,1.2-1.4,1.5-2.3c0.4-0.9,0.5-1.8,0.5-2.9
		c0-1.1-0.2-2.1-0.5-3c-0.3-0.9-0.8-1.6-1.5-2.3c-0.6-0.6-1.4-1.1-2.3-1.4c-0.9-0.3-1.9-0.5-2.9-0.5c-1.1,0-2.2,0.2-3.1,0.6
		c-0.9,0.4-1.7,0.9-2.3,1.6c-0.6,0.7-1.1,1.4-1.5,2.3c-0.3,0.9-0.5,1.8-0.5,2.7c0,1.1,0.2,2.1,0.5,3c0.3,0.9,0.8,1.7,1.4,2.3
		c0.6,0.6,1.3,1.1,2.2,1.5C34.9,68,35.9,68.2,37,68.2z"/>
	<path class="st3" d="M70.2,51.1c1-1.2,2.2-2.2,3.5-3c1.3-0.8,2.8-1.1,4.5-1.1c1.4,0,2.6,0.3,3.8,0.8c1.1,0.5,2.1,1.3,2.9,2.3
		c0.8,1,1.4,2.3,1.8,3.8c0.4,1.5,0.6,3.3,0.6,5.3c0,1.8-0.2,3.4-0.7,4.9c-0.5,1.5-1.2,2.8-2,3.9s-2,2-3.3,2.6c-1.3,0.6-2.7,1-4.3,1
		c-1.5,0-2.7-0.2-3.8-0.7c-1-0.5-2-1.2-2.8-2.1v10.6h-4.2v-32h2.5c0.6,0,1,0.3,1.1,0.9L70.2,51.1z M70.4,65.5c0.8,1,1.6,1.8,2.5,2.2
		c0.9,0.4,1.9,0.6,3.1,0.6c2.2,0,4-0.8,5.1-2.4c1.2-1.6,1.8-3.9,1.8-6.8c0-1.6-0.1-2.9-0.4-4c-0.3-1.1-0.7-2-1.2-2.8
		c-0.5-0.7-1.2-1.2-1.9-1.6c-0.8-0.3-1.6-0.5-2.6-0.5c-1.4,0-2.6,0.3-3.6,0.9c-1,0.6-2,1.5-2.8,2.7V65.5z"/>
	<path class="st3" d="M111.3,71.3h-4c-0.3,0-0.6-0.1-0.8-0.3c-0.2-0.2-0.4-0.4-0.5-0.6l-6-9.4c-0.1,0.2-0.1,0.4-0.2,0.6
		c-0.1,0.2-0.2,0.4-0.3,0.6l-5.6,8.1c-0.2,0.2-0.3,0.4-0.5,0.6c-0.2,0.2-0.4,0.3-0.7,0.3h-3.8L97.3,59l-8.1-11.6h4
		c0.3,0,0.6,0.1,0.8,0.2c0.2,0.1,0.3,0.3,0.4,0.5l5.9,9c0.1-0.5,0.3-0.9,0.6-1.3l5.1-7.6c0.1-0.2,0.3-0.4,0.5-0.5s0.4-0.2,0.6-0.2
		h3.9l-8.1,11.4L111.3,71.3z"/>
</g>
<g>
	<path class="st3" d="M507.7,229c2.1,0.6,3.7,1.6,4.9,3c1.1,1.4,1.7,3.2,1.7,5.4c0,1.5-0.3,2.8-0.8,4s-1.3,2.2-2.3,3
		c-1,0.8-2.2,1.5-3.6,1.9s-2.9,0.7-4.6,0.7c-1.7,0-3.2-0.2-4.6-0.7s-2.6-1.1-3.6-1.9c-1-0.8-1.8-1.8-2.3-3s-0.8-2.5-0.8-4
		c0-2.2,0.6-4,1.7-5.4s2.8-2.4,4.9-3c-1.8-0.7-3.1-1.6-4-3s-1.4-2.9-1.4-4.7c0-1.2,0.2-2.4,0.7-3.5c0.5-1.1,1.2-2,2.1-2.8
		c0.9-0.8,2-1.4,3.2-1.9c1.3-0.5,2.6-0.7,4.2-0.7c1.5,0,2.9,0.2,4.2,0.7c1.3,0.5,2.3,1.1,3.2,1.9c0.9,0.8,1.6,1.7,2.1,2.8
		c0.5,1.1,0.7,2.3,0.7,3.5c0,1.8-0.5,3.4-1.4,4.7S509.5,228.4,507.7,229z M502.9,243.7c1.1,0,2.1-0.2,3-0.5c0.9-0.3,1.6-0.7,2.2-1.3
		c0.6-0.6,1.1-1.2,1.4-2c0.3-0.8,0.5-1.6,0.5-2.6c0-1.2-0.2-2.2-0.6-3c-0.4-0.8-0.9-1.5-1.6-2c-0.7-0.5-1.4-0.9-2.3-1.1
		c-0.8-0.2-1.7-0.4-2.7-0.4c-0.9,0-1.8,0.1-2.7,0.4c-0.8,0.2-1.6,0.6-2.3,1.1s-1.2,1.2-1.6,2c-0.4,0.8-0.6,1.8-0.6,3
		c0,0.9,0.2,1.8,0.5,2.6c0.3,0.8,0.8,1.4,1.4,2c0.6,0.6,1.3,1,2.2,1.3C500.8,243.5,501.8,243.7,502.9,243.7z M502.9,215.7
		c-1,0-1.9,0.1-2.7,0.4c-0.8,0.3-1.4,0.7-1.9,1.2c-0.5,0.5-0.9,1.1-1.2,1.8s-0.4,1.4-0.4,2.2c0,0.8,0.1,1.5,0.3,2.2
		c0.2,0.7,0.6,1.4,1.1,1.9s1.1,1,1.9,1.3c0.8,0.3,1.7,0.5,2.8,0.5c1.1,0,2-0.2,2.8-0.5c0.8-0.3,1.4-0.8,1.9-1.3s0.8-1.2,1.1-1.9
		c0.2-0.7,0.3-1.5,0.3-2.2c0-0.8-0.1-1.5-0.4-2.2s-0.6-1.3-1.2-1.8s-1.1-0.9-1.9-1.2C504.8,215.9,503.9,215.7,502.9,215.7z"/>
	<path class="st3" d="M533.1,233.2c0.3-0.5,0.7-0.9,1-1.3c0.3-0.4,0.6-0.8,0.8-1.2c-0.9,0.7-1.8,1.2-2.9,1.6
		c-1.1,0.4-2.2,0.5-3.4,0.5c-1.3,0-2.5-0.2-3.6-0.6c-1.1-0.4-2.1-1.1-3-1.9s-1.6-1.8-2.1-3c-0.5-1.2-0.8-2.6-0.8-4.1
		c0-1.5,0.3-2.9,0.8-4.2c0.6-1.3,1.3-2.4,2.3-3.4c1-1,2.2-1.7,3.5-2.3c1.4-0.6,2.9-0.8,4.5-0.8c1.6,0,3.1,0.3,4.4,0.8
		c1.3,0.5,2.5,1.3,3.4,2.2c0.9,1,1.7,2.1,2.2,3.4s0.8,2.8,0.8,4.4c0,1-0.1,1.9-0.3,2.8c-0.2,0.9-0.4,1.7-0.8,2.6
		c-0.3,0.8-0.8,1.7-1.2,2.5c-0.5,0.8-1,1.7-1.7,2.5l-8.2,11.9c-0.2,0.3-0.5,0.5-0.9,0.7c-0.4,0.2-0.8,0.3-1.3,0.3h-3.9L533.1,233.2z
		 M523.3,222.8c0,1.1,0.2,2,0.5,2.9c0.3,0.8,0.7,1.6,1.3,2.1c0.6,0.6,1.3,1,2.1,1.3c0.8,0.3,1.8,0.4,2.8,0.4c1.1,0,2.1-0.2,3-0.6
		c0.9-0.4,1.6-0.9,2.2-1.5s1.1-1.3,1.4-2.1c0.3-0.8,0.5-1.6,0.5-2.5c0-1.1-0.2-2-0.5-2.9c-0.3-0.9-0.8-1.6-1.4-2.2
		c-0.6-0.6-1.3-1.1-2.1-1.4c-0.8-0.3-1.7-0.5-2.7-0.5c-1,0-2,0.2-2.8,0.5c-0.8,0.3-1.6,0.8-2.2,1.4c-0.6,0.6-1.1,1.3-1.4,2.1
		C523.4,220.9,523.3,221.8,523.3,222.8z"/>
	<path class="st3" d="M563.4,226.5c1-1.2,2.2-2.2,3.5-3c1.3-0.8,2.8-1.1,4.5-1.1c1.4,0,2.6,0.3,3.8,0.8s2.1,1.3,2.9,2.3
		s1.4,2.3,1.8,3.8c0.4,1.5,0.6,3.3,0.6,5.3c0,1.8-0.2,3.4-0.7,4.9c-0.5,1.5-1.2,2.8-2,3.9c-0.9,1.1-2,2-3.3,2.6
		c-1.3,0.6-2.7,1-4.3,1c-1.5,0-2.7-0.2-3.8-0.7c-1-0.5-2-1.2-2.8-2.1v10.6h-4.2v-32h2.5c0.6,0,1,0.3,1.1,0.9L563.4,226.5z
		 M563.6,240.9c0.8,1,1.6,1.8,2.5,2.2c0.9,0.4,1.9,0.6,3.1,0.6c2.2,0,4-0.8,5.1-2.4c1.2-1.6,1.8-3.9,1.8-6.8c0-1.6-0.1-2.9-0.4-4
		c-0.3-1.1-0.7-2-1.2-2.8c-0.5-0.7-1.2-1.2-1.9-1.6c-0.8-0.3-1.6-0.5-2.6-0.5c-1.4,0-2.6,0.3-3.6,0.9c-1,0.6-2,1.5-2.8,2.7V240.9z"
		/>
	<path class="st3" d="M604.6,246.7h-4c-0.3,0-0.6-0.1-0.8-0.3c-0.2-0.2-0.4-0.4-0.5-0.6l-6-9.4c-0.1,0.2-0.1,0.4-0.2,0.6
		c-0.1,0.2-0.2,0.4-0.3,0.6l-5.6,8.1c-0.2,0.2-0.3,0.4-0.5,0.6c-0.2,0.2-0.4,0.3-0.7,0.3h-3.8l8.4-12.3l-8.1-11.6h4
		c0.3,0,0.6,0.1,0.8,0.2c0.2,0.1,0.3,0.3,0.4,0.5l5.9,9c0.1-0.5,0.3-0.9,0.6-1.3l5.1-7.6c0.1-0.2,0.3-0.4,0.5-0.5s0.4-0.2,0.6-0.2
		h3.9l-8.1,11.4L604.6,246.7z"/>
</g>
</svg>
