<?xml version="1.0" encoding="utf-8"?>
<!-- Generator: Adobe Illustrator 23.0.1, SVG Export Plug-In . SVG Version: 6.00 Build 0)  -->
<svg version="1.1" id="Layer_1" xmlns="http://www.w3.org/2000/svg" xmlns:xlink="http://www.w3.org/1999/xlink" x="0px" y="0px"
	 viewBox="0 0 108.7 80.7" style="enable-background:new 0 0 108.7 80.7;" xml:space="preserve">
<style type="text/css">
	.st0{fill:#010101;}
	.st1{fill:#FFFFFF;}
	.st2{fill:none;stroke:#EC1C24;stroke-miterlimit:10;}
</style>
<g>
	<g>
		<path class="st0" d="M45.2,38.8c-0.2-0.5-0.5-0.9-0.8-1.2c-0.3-0.3-0.7-0.6-1.2-0.8s-1-0.3-1.6-0.3h-2.8c-0.1,0-0.1,0.1-0.1,0.1
			v2.7c0,0.1,0.1,0.1,0.1,0.1h1.4c0.1,0,0.1-0.1,0.1-0.1v-1.5c0-0.1,0.1-0.1,0.1-0.1h1.2c0.3,0,0.7,0.1,1,0.2
			c0.3,0.1,0.5,0.3,0.7,0.5c0.2,0.2,0.3,0.5,0.5,0.8c0.1,0.3,0.2,0.7,0.2,1.1c0,0.4-0.1,0.8-0.2,1.1s-0.3,0.6-0.5,0.8
			c-0.2,0.2-0.4,0.4-0.7,0.5c-0.3,0.1-0.6,0.2-1,0.2h-1.2c-0.1,0-0.1-0.1-0.1-0.1v-1.5c0-0.1-0.1-0.1-0.1-0.1h-1.4
			c-0.1,0-0.1,0.1-0.1,0.1V44c0,0.1,0.1,0.1,0.1,0.1h2.8c0.6,0,1.1-0.1,1.6-0.3s0.9-0.5,1.2-0.8c0.3-0.3,0.6-0.7,0.8-1.2
			c0.2-0.5,0.3-1,0.3-1.6C45.5,39.7,45.4,39.2,45.2,38.8z"/>
		<path class="st0" d="M48.4,37.7h3.1c0.1,0,0.1-0.1,0.1-0.1v-1c0-0.1-0.1-0.1-0.1-0.1h-4.7c-0.1,0-0.1,0.1-0.1,0.1V44
			c0,0.1,0.1,0.1,0.1,0.1h4.7c0.1,0,0.1-0.1,0.1-0.1v-1c0-0.1-0.1-0.1-0.1-0.1h-3.1c-0.1,0-0.1-0.1-0.1-0.1V41
			c0-0.1,0.1-0.1,0.1-0.1h2.3c0.1,0,0.1-0.1,0.1-0.1v-1c0-0.1-0.1-0.1-0.1-0.1h-2.3c-0.1,0-0.1-0.1-0.1-0.1v-1.7
			C48.2,37.8,48.3,37.7,48.4,37.7z"/>
		<path class="st0" d="M59.2,36.5H58c-0.1,0-0.1,0.1-0.1,0.1v4.3c0,0.1,0,0.2,0,0.3c0,0.1,0,0.3,0,0.4l-3.9-4.9
			c-0.1-0.1-0.1-0.1-0.1-0.1s-0.1-0.1-0.1-0.1c0,0-0.1,0-0.1,0s-0.1,0-0.2,0h-0.7c-0.1,0-0.1,0.1-0.1,0.1V44c0,0.1,0.1,0.1,0.1,0.1
			H54c0.1,0,0.1-0.1,0.1-0.1v-4.3c0-0.1,0-0.2,0-0.3c0-0.1,0-0.2,0-0.4l3.8,4.9c0.1,0.1,0.2,0.2,0.2,0.2c0.1,0.1,0.2,0.1,0.3,0.1
			h0.7c0.1,0,0.1-0.1,0.1-0.1v-7.4C59.3,36.5,59.2,36.5,59.2,36.5z"/>
		<path class="st0" d="M66.2,36.5h-5.8c-0.1,0-0.1,0.1-0.1,0.1v1c0,0.1,0.1,0.1,0.1,0.1h2c0.1,0,0.1,0.1,0.1,0.1v6.2
			c0,0.1,0.1,0.1,0.1,0.1H64c0.1,0,0.1-0.1,0.1-0.1v-6.2c0-0.1,0.1-0.1,0.1-0.1h2c0.1,0,0.1-0.1,0.1-0.1v-1
			C66.4,36.5,66.3,36.5,66.2,36.5z"/>
		<path class="st0" d="M73.2,44l-2.9-7.4c0-0.1-0.1-0.1-0.1-0.1h-1.4c-0.1,0-0.1,0-0.1,0.1L65.8,44c0,0.1,0,0.2,0.1,0.2h1.1
			c0.1,0,0.2,0,0.3-0.1c0.1-0.1,0.2-0.2,0.2-0.2l0.5-1.4c0-0.1,0.1-0.1,0.1-0.1h2.9c0.1,0,0.1,0,0.1,0.1l0.5,1.4
			c0.1,0.1,0.1,0.2,0.2,0.2c0.1,0.1,0.2,0.1,0.3,0.1h1C73.2,44.2,73.3,44.1,73.2,44z M70.4,41.2h-1.9c-0.1,0-0.1-0.1-0.1-0.2
			l0.8-2.2c0.1-0.1,0.1-0.3,0.2-0.4c0-0.1,0-0.1,0-0.1c0-0.1,0.2-0.1,0.2,0c0,0,0,0.1,0,0.1c0.1,0.2,0.1,0.3,0.2,0.4l0.8,2.2
			C70.6,41.2,70.5,41.2,70.4,41.2z"/>
		<path class="st0" d="M79.8,42.9l-0.6-0.6c-0.1-0.1-0.1-0.1-0.2-0.1c-0.1,0-0.1,0-0.1,0c-0.1,0-0.1,0.1-0.1,0.1
			c-0.1,0.1-0.2,0.2-0.3,0.2c-0.1,0.1-0.2,0.1-0.3,0.2c-0.1,0.1-0.3,0.1-0.4,0.1c-0.2,0-0.3,0-0.5,0c-0.3,0-0.6-0.1-0.9-0.2
			c-0.3-0.1-0.5-0.3-0.7-0.5c-0.2-0.2-0.3-0.5-0.5-0.8C75,41,75,40.7,75,40.3c0-0.4,0.1-0.8,0.2-1.1c0.1-0.3,0.3-0.6,0.5-0.8
			c0.2-0.2,0.4-0.4,0.7-0.5c0.3-0.1,0.6-0.2,0.9-0.2c0.3,0,0.5,0,0.7,0.1s0.3,0.1,0.5,0.2c0.1,0.1,0.2,0.1,0.3,0.2
			c0.1,0.1,0.2,0.1,0.3,0.1c0.1,0,0.2,0,0.2-0.1c0.1,0,0.1-0.1,0.1-0.1l0.5-0.6c0-0.1,0-0.1,0-0.2c-0.1-0.1-0.3-0.2-0.4-0.3
			c-0.2-0.1-0.4-0.2-0.6-0.3c-0.2-0.1-0.5-0.2-0.7-0.2c-0.2-0.1-0.5-0.1-0.8-0.1c-0.4,0-0.7,0.1-1.1,0.1c-0.3,0.1-0.6,0.2-0.9,0.4
			c-0.3,0.2-0.5,0.4-0.7,0.6c-0.2,0.2-0.4,0.5-0.6,0.8c-0.2,0.3-0.3,0.6-0.4,1c-0.1,0.3-0.1,0.7-0.1,1.1c0,0.6,0.1,1.1,0.3,1.6
			s0.4,0.9,0.7,1.2s0.7,0.6,1.2,0.8c0.5,0.2,1,0.3,1.6,0.3c0.6,0,1.2-0.1,1.6-0.3c0.4-0.2,0.8-0.5,1.1-0.8
			C79.8,43.1,79.8,43,79.8,42.9z"/>
		<path class="st0" d="M87.7,38.7c-0.2-0.5-0.5-0.9-0.8-1.2c-0.3-0.3-0.7-0.6-1.2-0.8c-0.5-0.2-1-0.3-1.6-0.3
			c-0.6,0-1.1,0.1-1.6,0.3c-0.5,0.2-0.9,0.5-1.3,0.8s-0.6,0.8-0.8,1.2c-0.2,0.5-0.3,1-0.3,1.6c0,0.6,0.1,1.1,0.3,1.6
			c0.2,0.5,0.5,0.9,0.8,1.3c0.3,0.3,0.7,0.6,1.3,0.8c0.5,0.2,1,0.3,1.6,0.3c0.6,0,1.1-0.1,1.6-0.3c0.5-0.2,0.9-0.5,1.2-0.8
			c0.3-0.3,0.6-0.8,0.8-1.3s0.3-1,0.3-1.6C88,39.7,87.9,39.2,87.7,38.7z M86.2,41.4c-0.1,0.3-0.3,0.6-0.5,0.8
			c-0.2,0.2-0.5,0.4-0.7,0.5c-0.3,0.1-0.6,0.2-1,0.2c-0.3,0-0.7-0.1-1-0.2c-0.3-0.1-0.5-0.3-0.7-0.5c-0.2-0.2-0.3-0.5-0.5-0.8
			c-0.1-0.3-0.2-0.7-0.2-1.1c0-0.4,0.1-0.8,0.2-1.1c0.1-0.3,0.3-0.6,0.5-0.8c0.2-0.2,0.5-0.4,0.7-0.5c0.3-0.1,0.6-0.2,1-0.2
			c0.3,0,0.7,0.1,1,0.2c0.3,0.1,0.5,0.3,0.7,0.5c0.2,0.2,0.3,0.5,0.5,0.8c0.1,0.3,0.2,0.7,0.2,1.1C86.4,40.7,86.3,41.1,86.2,41.4z"
			/>
		<path class="st0" d="M90.6,36.5h-1.4c-0.1,0-0.1,0.1-0.1,0.1V44c0,0.1,0.1,0.1,0.1,0.1h1.4c0.1,0,0.1-0.1,0.1-0.1v-7.4
			C90.8,36.5,90.7,36.5,90.6,36.5z"/>
		<path class="st0" d="M98.9,36.5h-1.2c-0.1,0-0.1,0.1-0.1,0.1v4.3c0,0.1,0,0.2,0,0.3c0,0.1,0,0.3,0,0.4l-3.9-4.9
			c-0.1-0.1-0.1-0.1-0.1-0.1s-0.1-0.1-0.1-0.1c0,0-0.1,0-0.1,0c-0.1,0-0.1,0-0.2,0h-0.7c-0.1,0-0.1,0.1-0.1,0.1V44
			c0,0.1,0.1,0.1,0.1,0.1h1.2c0.1,0,0.1-0.1,0.1-0.1v-4.3c0-0.1,0-0.2,0-0.3c0-0.1,0-0.2,0-0.4l3.8,4.9c0.1,0.1,0.2,0.2,0.2,0.2
			c0.1,0.1,0.2,0.1,0.3,0.1h0.7c0.1,0,0.1-0.1,0.1-0.1v-7.4C99,36.5,98.9,36.5,98.9,36.5z"/>
	</g>
</g>
<g>
	<g>
		<g id="XMLID_1_">
			<path d="M35.2,40c0,7.2-5.9,12.9-13,12.9c-3.5,0-6.7-1.5-9-3.8c-2.4-2.4-3.8-5.7-3.8-9.3c0-7.2,5.9-12.9,13-12.9
				S35.2,32.8,35.2,40z"/>
		</g>
		<g>
			<path class="st1" d="M16.1,44.3l-2.9,4.9c0,0,1.2,1.6,4.5,2.9l1.7-4.5l1.1-3l1.1-3.3c0,0,0.4-1.1,0.4-1.1L22,40c0,0,0,0,0-0.1
				l0,0l0,0c0,0,0,0,0,0l0,0l0,0l0.1,0.1l0.1,0.3l0.2,0.6l0.8,2.4l0.7,2.1l1.1,3.2l0.8,2.3l0.4,1.2c0,0,2.6-0.7,4.8-2.9l-1.6-2.4
				l-1-1.8L27.5,43l-0.9-1.8l-0.7-1.7l-0.6-1.6l-0.5-1.6l-0.6-1.8l-0.6-1.9l-0.5-1.9l-0.6-2.1l-0.3-1.1l-0.6,2l-0.9,2.8l-0.7,2.1
				l-0.8,2.4l-0.7,1.9l-0.8,1.9L17,42.4L16.1,44.3z"/>
		</g>
	</g>
</g>
<rect x="0.5" y="0.7" class="st2" width="107.7" height="79.6"/>
<line class="st2" x1="0.4" y1="1" x2="108.5" y2="80.3"/>
</svg>
