<?xml version="1.0" encoding="utf-8"?>
<!-- Generator: Adobe Illustrator 22.1.0, SVG Export Plug-In . SVG Version: 6.00 Build 0)  -->
<svg version="1.1" id="Layer_1" xmlns="http://www.w3.org/2000/svg" xmlns:xlink="http://www.w3.org/1999/xlink" x="0px" y="0px"
	 viewBox="0 0 50 50" style="enable-background:new 0 0 50 50;" xml:space="preserve">
<style type="text/css">
	.st0{fill:#FFFFFF;}
	.st1{display:none;fill:#FFFFFF;}
	.st2{fill:url(#SVGID_1_);}
	.st3{fill:url(#SVGID_2_);}
	.st4{fill:url(#SVGID_3_);}
	.st5{fill:url(#SVGID_4_);}
	.st6{fill:url(#SVGID_5_);}
	.st7{fill:url(#SVGID_6_);}
	.st8{fill:url(#SVGID_7_);}
	.st9{fill:url(#SVGID_8_);}
	.st10{fill:url(#SVGID_9_);}
</style>
<path class="st0" d="M50,41.8c0,4.5-3.7,8.2-8.2,8.2H8.2C3.7,50,0,46.3,0,41.8V8.3C0,3.8,3.7,0,8.2,0h33.5C46.3,0,50,3.8,50,8.3
	V41.8z"/>
<ellipse class="st1" cx="25" cy="18.9" rx="24.9" ry="25"/>
<g>
	<linearGradient id="SVGID_1_" gradientUnits="userSpaceOnUse" x1="30.9361" y1="11.1025" x2="38.7847" y2="11.1025">
		<stop  offset="0" style="stop-color:#4CBD95"/>
		<stop  offset="0.5887" style="stop-color:#30A5BD"/>
		<stop  offset="1" style="stop-color:#0596D4"/>
	</linearGradient>
	<path class="st2" d="M36.6,5.7c-1.9-1-4.3-0.1-5.3,1.8c-0.4,0.8-0.5,1.8-0.3,2.6l0.1,6.8l5.4-4.1c0.8-0.4,1.5-1,1.9-1.8
		C39.3,9,38.5,6.7,36.6,5.7z M33.7,11.7C32.3,11,31.8,9.4,32.4,8c0.7-1.3,2.3-1.9,3.6-1.2s1.9,2.3,1.2,3.6S35,12.3,33.7,11.7z"/>
	<g>
		<linearGradient id="SVGID_2_" gradientUnits="userSpaceOnUse" x1="9.4163" y1="25.2766" x2="40.2138" y2="25.2766">
			<stop  offset="0" style="stop-color:#4CBD95"/>
			<stop  offset="0.5887" style="stop-color:#30A5BD"/>
			<stop  offset="1" style="stop-color:#0596D4"/>
		</linearGradient>
		<path class="st3" d="M30.2,14.7c-0.4,0-0.6,0-0.9-0.1c-1-0.4-1.2-0.6-1.3-0.7c0.1-0.1,0.4-0.4,0.6-0.5c0.1-0.1,0.2-0.2,0.3-0.2
			c0.1-0.1,0.2-0.4,0.3-0.7c0.6,0.3,0-0.1,0.6,0.3c-0.1-1,0.1-1.7,0.2-2.1c-1.9-0.9-2.9-0.7-5.2-0.7c-8.5,0-15.4,6.9-15.4,15.4
			s6.9,15.4,15.4,15.4s15.4-6.9,15.4-15.4c0-4.4-1.1-7.6-4.1-10.4l-1.5,1.1c2.7,2.5,3.7,5.4,3.7,9.4c0,2.2-0.5,4.3-1.4,6.1l-1.9-0.6
			c-0.1,0-0.2,0-0.3,0l-1.4,0.7h-1.9l-1.1-1.3l0,0l-1.1-1.1c-0.1-0.1-0.3-0.1-0.4-0.1l-1.5,0.4c-0.1,0-0.2,0.1-0.3,0.2
			c-0.1,0.2-0.3,0.5-0.4,0.5c-0.2,0-0.9-0.2-1.6-0.3l-1-1.4c-0.1-0.1-0.2-0.2-0.3-0.2c-0.1,0-1-0.1-1.5,0.4C22,28.7,22,28.7,22,28.7
			h0c0,0-0.1,0-0.2,0h-0.8c-0.3,0-0.5,0.2-0.5,0.5v2.1c0,0.8,1.1,0.8,1.4,0.8c0.2,0,0.9,0.2,1.6,0.3c0.2,0.3,0.5,0.6,0.5,0.7
			c0,0.1-0.1,0.2-0.1,0.4c-0.1,0.2-0.2,0.5-0.2,0.8c0,0.1-0.2,0.3-0.3,0.3c-0.1,0-0.5-0.1-0.7-0.3c0,0,0,0-0.1,0l-1-0.4
			c-0.1,0-0.3,0-0.4,0c-0.1,0.1-0.2,0.2-0.2,0.4V35c0,0,0,0.2-0.1,0.3c-0.1,0.4-0.2,0.7,0,1c-0.1,0-0.3,0.1-0.4,0.3
			c-0.3,0.3-0.3,0.3-0.5,0.3h-0.2c-0.3,0-0.5,0.2-0.5,0.5c0,0,0,0.1,0,0.1c-4.7-2.1-7.9-6.8-7.9-12.3c0-2.6,0.8-5.1,2.1-7.2l1,1.6
			c0.1,0.1,0.2,0.2,0.4,0.2h2.2c0.5,0.2,1.1,0.4,1.3,0.6c0,0,0,0,0,0c0,0.2-0.2,0.6,0,1c0.1,0.2,0.4,0.4,0.7,0.4
			c0.9,0.1,2.2-0.7,2.5-1l1.2-0.3c0.6,0.1,1.3,0.3,1.6,0.3c0.1,0.1,0.2,0.2,0.6,0.5c0.3,0.2,0.8,0.6,1,0.8c0.1,0.3,0.4,0.4,0.9,0.5
			c0.5,0.1,0.9,0.1,1.2,0.1c0.5,0,0.6-0.1,0.7-0.2c0,0,0.1-0.1,1-1.9c0-0.1,0-0.3,0-0.4s-0.2-0.2-0.3-0.2c-0.3,0-0.8-0.2-0.9-0.3
			c0-0.1,0-0.6,0-0.8c0.3-0.1,1-0.5,1.1-0.5c0,0,0.1,0,0.8-0.5l0.8,0.9c0.1,0.1,0.3,0.2,0.5,0.1c0.2,0,0.8-0.3,1.1-0.6
			c0.2-0.2,0.8-0.2,0.2-1.8l-2.1,1.1c0,0-0.6-0.9-0.6-1.9"/>
		<linearGradient id="SVGID_3_" gradientUnits="userSpaceOnUse" x1="13.6977" y1="29.6974" x2="18.896" y2="29.6974">
			<stop  offset="0" style="stop-color:#4CBD95"/>
			<stop  offset="0.5887" style="stop-color:#30A5BD"/>
			<stop  offset="1" style="stop-color:#0596D4"/>
		</linearGradient>
		<path class="st4" d="M17.6,27.2c0-0.1-0.2-0.3-0.4-0.3l-1.1-0.1h0h-1.5c-0.2,0-0.4,0.1-0.5,0.4l-0.4,1.7c0,0.1,0,0.2,0,0.4
			c0.1,0.1,0.2,0.2,0.3,0.2c0.5,0.1,1,0.2,1.2,0.3c0,0.2,0.2,0.5,0.6,0.5h0c0,0,0,0,0,0c0,0.6-0.3,1.2-0.3,1.2
			c-0.1,0.2,0,0.4,0.1,0.6c0.1,0.1,0.6,0.5,1.1,0.5c0.5,0,0.8-0.5,1.1-1.1c0.1-0.2,0.3-0.5,0.4-0.6l0.1-0.1c0.3-0.3,0.6-0.5,0.6-0.9
			c0-0.2-0.1-0.5-0.3-0.6S18,28,17.6,27.2z"/>
		<linearGradient id="SVGID_4_" gradientUnits="userSpaceOnUse" x1="25.6012" y1="7.5241" x2="30.4203" y2="7.5241">
			<stop  offset="0" style="stop-color:#4CBD95"/>
			<stop  offset="0.5887" style="stop-color:#30A5BD"/>
			<stop  offset="1" style="stop-color:#0596D4"/>
		</linearGradient>
		<path class="st5" d="M27.3,7.2V5.9l-1.7,1.7l0.3,0.3c0,0,0.1,0.1,0.1,0.1l1.2,1.2v-1c1.4,0.2,1.7,0.2,2.9,0.7l0.2-1.1
			C29.1,7.4,28.7,7.4,27.3,7.2z"/>
		<linearGradient id="SVGID_5_" gradientUnits="userSpaceOnUse" x1="37.86" y1="18.1365" x2="42.7643" y2="18.1365">
			<stop  offset="0" style="stop-color:#4CBD95"/>
			<stop  offset="0.5887" style="stop-color:#30A5BD"/>
			<stop  offset="1" style="stop-color:#0596D4"/>
		</linearGradient>
		<path class="st6" d="M41.9,22.7c0,0.2,0.2,0.4,0.5,0.4h0c0.2,0,0.4-0.3,0.4-0.5c-0.6-4-1.8-6.8-4.5-9.4l-0.4,0.6
			C40.4,16.3,41.3,18.9,41.9,22.7z"/>
		<linearGradient id="SVGID_6_" gradientUnits="userSpaceOnUse" x1="5.7631" y1="15.4316" x2="23.3353" y2="15.4316">
			<stop  offset="0" style="stop-color:#4CBD95"/>
			<stop  offset="0.5887" style="stop-color:#30A5BD"/>
			<stop  offset="1" style="stop-color:#0596D4"/>
		</linearGradient>
		<path class="st7" d="M9.1,22H7.8c1.4-7.4,7.5-13.1,15.1-13.9c0.2,0,0.4-0.3,0.4-0.5c0-0.2-0.3-0.4-0.5-0.4C14.8,8,8.3,14.1,6.9,22
			H5.8l1.7,1.7L9.1,22z"/>
		<linearGradient id="SVGID_7_" gradientUnits="userSpaceOnUse" x1="6.5955" y1="35.1309" x2="24.3988" y2="35.1309">
			<stop  offset="0" style="stop-color:#4CBD95"/>
			<stop  offset="0.5887" style="stop-color:#30A5BD"/>
			<stop  offset="1" style="stop-color:#0596D4"/>
		</linearGradient>
		<path class="st8" d="M22.7,42.4c-8.3-1-14.9-8-15.2-16.4c0-0.3-0.2-0.5-0.5-0.5c-0.3,0-0.5,0.2-0.5,0.5
			c0.4,8.9,7.3,16.4,16.1,17.3l0,1.3l1.7-1.6l-1.6-1.7L22.7,42.4z"/>
		<linearGradient id="SVGID_8_" gradientUnits="userSpaceOnUse" x1="25.8715" y1="34.3217" x2="44.2369" y2="34.3217">
			<stop  offset="0" style="stop-color:#4CBD95"/>
			<stop  offset="0.5887" style="stop-color:#30A5BD"/>
			<stop  offset="1" style="stop-color:#0596D4"/>
		</linearGradient>
		<path class="st9" d="M42.6,25.2l-1.7,1.7H42c-0.8,8.2-7.4,14.9-15.7,15.6c-0.3,0-0.5,0.2-0.4,0.5c0,0.2,0.2,0.4,0.5,0.4h0
			c8.8-0.7,15.8-7.8,16.6-16.5h1.3L42.6,25.2z"/>
	</g>
	<g>
		<linearGradient id="SVGID_9_" gradientUnits="userSpaceOnUse" x1="33.0496" y1="9.2251" x2="35.7792" y2="9.2251">
			<stop  offset="0" style="stop-color:#4CBD95"/>
			<stop  offset="0.5887" style="stop-color:#30A5BD"/>
			<stop  offset="1" style="stop-color:#0596D4"/>
		</linearGradient>
		<path class="st10" d="M33.5,10.4c0-0.1-0.1-0.1-0.1-0.2c-0.1-0.1-0.1-0.2-0.2-0.3c0,0,0-0.1-0.1-0.1c0,0,0-0.1,0-0.1c0,0,0,0,0,0
			c0,0,0,0,0,0c0.1-0.1,0.2-0.1,0.3-0.2c0.1-0.1,0.2-0.1,0.3-0.2c0.2-0.1,0.3-0.2,0.4-0.3c0.1-0.1,0.2-0.1,0.3-0.2
			c0.1-0.1,0.2-0.2,0.3-0.3c0.1-0.1,0.2-0.2,0.3-0.2C34.9,8.2,35,8.2,35,8.1c0.1-0.1,0.1-0.1,0.2-0.2c0.1-0.1,0.2-0.2,0.3-0.3
			c0.1-0.1,0.1-0.1,0.2-0.2c0,0,0,0,0.1-0.1c0,0,0,0.1,0,0.1c0,0.1,0,0.2-0.1,0.3c0,0.1-0.1,0.3-0.1,0.4c0,0.1-0.1,0.3-0.1,0.4
			c0,0.2,0,0.3-0.1,0.5c0,0.1,0,0.2,0,0.4c0,0.1,0,0.2,0,0.3c0,0.1,0,0.2,0,0.3c0,0.1,0,0.3,0,0.4c0,0.2,0,0.4,0.1,0.5c0,0,0,0,0,0
			c0,0-0.1,0-0.1,0c-0.1,0-0.1,0-0.2,0c-0.1,0-0.2,0-0.3,0c0,0-0.1,0-0.1,0c0,0,0,0,0,0c0-0.1,0-0.3,0.1-0.4c0-0.2,0-0.3,0.1-0.5
			c0-0.1,0-0.2,0.1-0.4c0-0.1,0-0.3,0.1-0.4c0-0.1,0-0.2,0-0.3c0,0,0,0,0,0c0,0,0,0,0,0c0,0-0.1,0.1-0.1,0.1
			c-0.1,0.1-0.2,0.2-0.3,0.3c-0.1,0.1-0.2,0.2-0.3,0.3c-0.1,0.1-0.2,0.2-0.3,0.3c-0.1,0.1-0.2,0.2-0.3,0.3
			C33.5,10.3,33.5,10.4,33.5,10.4C33.5,10.4,33.5,10.4,33.5,10.4z"/>
	</g>
</g>
</svg>
