<?xml version="1.0" encoding="utf-8"?>
<!-- Generator: Adobe Illustrator 24.2.1, SVG Export Plug-In . SVG Version: 6.00 Build 0)  -->
<!DOCTYPE svg PUBLIC "-//W3C//DTD SVG 1.1//EN" "http://www.w3.org/Graphics/SVG/1.1/DTD/svg11.dtd" [
	<!ENTITY ns_extend "http://ns.adobe.com/Extensibility/1.0/">
	<!ENTITY ns_ai "http://ns.adobe.com/AdobeIllustrator/10.0/">
	<!ENTITY ns_graphs "http://ns.adobe.com/Graphs/1.0/">
	<!ENTITY ns_vars "http://ns.adobe.com/Variables/1.0/">
	<!ENTITY ns_imrep "http://ns.adobe.com/ImageReplacement/1.0/">
	<!ENTITY ns_sfw "http://ns.adobe.com/SaveForWeb/1.0/">
	<!ENTITY ns_custom "http://ns.adobe.com/GenericCustomNamespace/1.0/">
	<!ENTITY ns_adobe_xpath "http://ns.adobe.com/XPath/1.0/">
]>
<svg version="1.1" id="Layer_1" xmlns:x="&ns_extend;" xmlns:i="&ns_ai;" xmlns:graph="&ns_graphs;"
	 xmlns="http://www.w3.org/2000/svg" xmlns:xlink="http://www.w3.org/1999/xlink" x="0px" y="0px" viewBox="0 0 93.3 95.2"
	 style="enable-background:new 0 0 93.3 95.2;" xml:space="preserve">
<style type="text/css">
	.st0{fill:#E5E5E5;}
</style>
<metadata>
	<sfw  xmlns="&ns_sfw;">
		<slices></slices>
		<sliceSourceBounds  bottomLeftOrigin="true" height="95.2" width="93.4" x="0" y="0"></sliceSourceBounds>
	</sfw>
</metadata>
<g id="Layer_1_1_">
	<g>
		<g>
			<path class="st0" d="M81.3,45.7h-1c0-4.7-3.8-8.5-8.5-8.5H60.7c-4.7,0-8.5,3.8-8.5,8.5h-1c0-5.2,4.3-9.5,9.5-9.5h11.1
				C77,36.2,81.3,40.5,81.3,45.7z"/>
		</g>
		<path class="st0" d="M60.7,68.7"/>
		<g>
			<path class="st0" d="M63.9,95.2h-4.2c-0.9,0-1.5-0.6-1.5-1.5V56.6c0-0.3,0.1-0.5,0.3-0.6c0.3-0.2,0.6,0,0.8,0.1
				c0.1,0.1,0.3,0.1,0.4,0.1l4.3,0.2c0.1,0,0.2,0,0.4,0c0.9-0.1,1.7-0.1,2,0.3c0.2,0.1,0.2,0.3,0.2,0.6l-1.3,36.6
				C65.4,94.5,64.7,95.2,63.9,95.2z M59.2,57.1v36.6c0,0.3,0.2,0.5,0.5,0.5h4.2c0.2,0,0.5-0.2,0.5-0.4l1.3-36.4
				c-0.3-0.1-0.9,0-1.2,0c-0.2,0-0.4,0-0.5,0l-4.3-0.2c0,0,0,0,0,0C59.5,57.2,59.3,57.2,59.2,57.1z"/>
		</g>
		<g>
			<path class="st0" d="M72.7,95.2h-4.2c-0.9,0-1.5-0.7-1.5-1.6L65.6,57c0-0.2,0.1-0.4,0.2-0.5c0.4-0.4,1.1-0.4,2.4-0.4l0.2,0
				l4.3-0.9c0.8,0,1.5,0.7,1.5,1.5v37C74.2,94.5,73.5,95.2,72.7,95.2z M66.6,57.2L68,93.6c0,0.3,0.2,0.6,0.5,0.6h4.2
				c0.2,0,0.5-0.3,0.5-0.5v-37c0-0.3-0.2-0.5-0.5-0.5l-4.2,0.9l-0.3,0C67.4,57.1,66.9,57.1,66.6,57.2z"/>
		</g>
		<g>
			<path class="st0" d="M55.6,61.8c-0.1,0-0.2,0-0.3,0l-3.2-0.7c-0.4-0.1-0.7-0.3-0.9-0.6c-0.2-0.3-0.3-0.8-0.2-1.2l1.1-5.1
				c0.1-0.4,0.3-0.5,0.5-0.5c0.4-0.1,0.6,0.2,0.8,0.4c0.1,0.1,0.2,0.3,0.3,0.3l0.1,0l2.6,1.2c0.2,0,0.4,0,0.6-0.1
				c0.4-0.1,0.7-0.2,1,0.1C58,55.8,58,56,58,56.2l-0.9,4.4c-0.1,0.4-0.3,0.7-0.6,0.9C56.2,61.7,55.9,61.8,55.6,61.8z M52.8,55.2
				l-0.9,4.4c0,0.1,0,0.3,0.1,0.4c0.1,0.1,0.2,0.2,0.3,0.2l3.2,0.7c0.1,0,0.3,0,0.4-0.1c0.1-0.1,0.2-0.2,0.2-0.3l0.8-3.9
				c-0.3,0.1-0.6,0.1-0.9,0.1l-0.1,0l-2.7-1.2C53.1,55.3,52.9,55.3,52.8,55.2z M57,56C57,56,57,56,57,56L57,56z"/>
		</g>
		<g>
			<path class="st0" d="M77.2,61.9c-0.3,0-0.6-0.1-0.9-0.3c-0.3-0.2-0.5-0.6-0.6-1l-1.1-5.1c-0.1-0.9,0.3-1.6,1.1-1.8l3.2-1.4
				c0.1,0,0.2-0.2,0.3-0.3c0.2-0.2,0.4-0.5,0.8-0.4c0.1,0,0.4,0.1,0.5,0.5l1.5,7.2c0.1,0.4,0,0.8-0.2,1.2c-0.2,0.3-0.6,0.5-1,0.6
				l-3.2,0.7C77.4,61.9,77.3,61.9,77.2,61.9z M79.2,53.4L76,54.8c-0.4,0.1-0.4,0.5-0.4,0.6l1.1,5.1c0,0.2,0.1,0.3,0.2,0.3
				c0.1,0.1,0.3,0.1,0.4,0.1l3.2-0.7c0.2,0,0.3-0.1,0.3-0.2c0.1-0.1,0.1-0.3,0.1-0.4l-1.3-6.4C79.5,53.3,79.3,53.3,79.2,53.4z"/>
		</g>
		<path class="st0" d="M56.8,56.1L56.8,56.1c0.4,0,0.6-0.3,0.6-0.6v-8.1c0-0.4-0.3-0.6-0.6-0.6l0,0c-0.4,0-0.6,0.3-0.6,0.6v8.1
			C56.1,55.8,56.4,56.1,56.8,56.1z"/>
		<path class="st0" d="M74.8,55.6L74.8,55.6c0.4,0,0.6-0.3,0.6-0.6v-8.1c0-0.4-0.3-0.6-0.6-0.6l0,0c-0.4,0-0.6,0.3-0.6,0.6V55
			C74.2,55.4,74.5,55.6,74.8,55.6z"/>
		<g>
			<rect x="80.3" y="45.7" class="st0" width="1" height="5.7"/>
		</g>
		<g>
			<rect x="51.2" y="45.5" class="st0" width="1" height="7.9"/>
		</g>
	</g>
</g>
<g id="Layer_2_1_">
	<g>
		<g>
			<path class="st0" d="M64.3,58.2c-16,0-29.1-13.1-29.1-29.1S48.3,0,64.3,0s29.1,13.1,29.1,29.1S80.3,58.2,64.3,58.2z M64.3,2
				C49.4,2,37.2,14.2,37.2,29.1s12.2,27.1,27.1,27.1c14.9,0,27.1-12.2,27.1-27.1S79.2,2,64.3,2z"/>
		</g>
		<g>
			<path class="st0" d="M40.9,30.4c-0.5,0-1-0.4-1-1c-0.1-6.5,2.3-12.7,6.9-17.3C51.3,7.4,57.4,4.8,64,4.7c0,0,0,0,0,0
				c0.5,0,1,0.4,1,1c0,0.6-0.4,1-1,1c-6,0.1-11.6,2.5-15.8,6.8c-4.2,4.3-6.4,9.9-6.3,15.9C41.9,29.9,41.5,30.4,40.9,30.4
				C40.9,30.4,40.9,30.4,40.9,30.4z"/>
		</g>
		<g>
			<path class="st0" d="M64.3,8.6"/>
		</g>
		<g>
			<path class="st0" d="M64.3,49.4"/>
		</g>
		<g>
			<path class="st0" d="M65.6,34c-4.8,0-8.7-4.5-8.7-10.1s3.9-10.1,8.7-10.1s8.7,4.5,8.7,10.1S70.4,34,65.6,34z M65.6,14.8
				c-4.2,0-7.7,4.1-7.7,9.1s3.5,9.1,7.7,9.1c4.2,0,7.7-4.1,7.7-9.1S69.8,14.8,65.6,14.8z"/>
		</g>
		<g>
			
				<rect x="-8.9" y="70.6" transform="matrix(0.6974 -0.7167 0.7167 0.6974 -44.4232 38.019)" class="st0" width="63.4" height="2"/>
		</g>
	</g>
</g>
<line class="st0" x1="0" y1="92.1" x2="0" y2="95.2"/>
</svg>
