<?xml version="1.0" encoding="utf-8"?>
<!-- Generator: Adobe Illustrator 22.1.0, SVG Export Plug-In . SVG Version: 6.00 Build 0)  -->
<svg version="1.1" id="Layer_1" xmlns="http://www.w3.org/2000/svg" xmlns:xlink="http://www.w3.org/1999/xlink" x="0px" y="0px"
	 viewBox="0 0 33.7 33.3" style="enable-background:new 0 0 33.7 33.3;" xml:space="preserve">
<style type="text/css">
	.st0{display:none;fill:#FFFFFF;}
	.st1{fill:url(#SVGID_1_);}
	.st2{fill:#FFFFFF;}
</style>
<ellipse class="st0" cx="17.4" cy="10.7" rx="24.9" ry="25"/>
<g>
	
		<linearGradient id="SVGID_1_" gradientUnits="userSpaceOnUse" x1="-1.3" y1="18.6122" x2="35.2" y2="18.6122" gradientTransform="matrix(1 0 0 -1 0 35.5244)">
		<stop  offset="0" style="stop-color:#057861"/>
		<stop  offset="1" style="stop-color:#00A99D"/>
	</linearGradient>
	<path class="st1" d="M35.2,26.2c0,5-4.1,9-9,9H7.7c-5,0-9-4.1-9-9V7.7c0-5,2.4-9,9-9h18.5c5,0,9,4.1,9,9V26.2z"/>
	<g transform="translate(0,-952.36218)">
		<path class="st2" d="M29.3,950.7c1.9,0,3.4,0.7,4.5,1.8c1,1.1,1.5,2.5,1.5,4l0,0c0,0,0,0,0,0.1v25.2c0,3.2-2.6,5.9-5.9,5.9H4.2
			c-3.2,0-5.9-2.6-5.9-5.9V967v-10.4c0-1.4,0.4-2.9,1.5-4c1-1.1,2.6-1.9,4.5-1.9L29.3,950.7L29.3,950.7z M29.3,952.4h-25
			c-1.5,0-2.6,0.5-3.3,1.3s-1,1.8-1,2.8l0,0v5.7c0.7-0.7,1.6-1.2,2.6-1.5v-0.8c0-1.1,0.4-2.2,1-3s1.5-1.4,2.6-1.4h21.2
			c1,0,2,0.5,2.6,1.3s1,1.8,1,3v0.3c0.7-0.2,1.2-0.6,1.6-1c0.7-0.8,1.1-1.8,1.1-2.8s-0.4-2.1-1.1-2.8
			C31.8,952.9,30.8,952.4,29.3,952.4z M33.6,960.6c-1,1-2.5,1.6-4.3,1.6h-25c-1.7,0-2.6,0.6-3.3,1.4c-0.7,0.9-1,2.1-1,3.3v0.6
			c0.1,0.1,0.3,0.2,0.6,0.2s0.8,0,1.4,0h9.9c1.9,0,3.4,0.8,4.4,1.9c1,1.1,1.5,2.6,1.5,4s-0.5,2.9-1.5,4s-2.5,1.9-4.4,1.9h-10
			c-0.5,0-1.1,0-1.7-0.2c-0.1,0-0.1,0-0.2-0.1v2.3c0,2.3,1.9,4.2,4.2,4.2h25.2c2.3,0,4.2-1.9,4.2-4.2V960.6L33.6,960.6z M11.7,971.1
			c-1.4,0-2.6,1.2-2.6,2.6c0,1.4,1.2,2.6,2.6,2.6s2.6-1.2,2.6-2.6S13.1,971.1,11.7,971.1z"/>
		<path class="st2" d="M11.7,972.8c-0.5,0-0.9,0.4-0.9,0.9s0.4,0.9,0.9,0.9s0.9-0.4,0.9-0.9C12.6,973.2,12.2,972.8,11.7,972.8z"/>
	</g>
</g>
</svg>
