<?xml version="1.0" encoding="utf-8"?>
<!-- Generator: Adobe Illustrator 22.1.0, SVG Export Plug-In . SVG Version: 6.00 Build 0)  -->
<svg version="1.1" id="Layer_1" xmlns="http://www.w3.org/2000/svg" xmlns:xlink="http://www.w3.org/1999/xlink" x="0px" y="0px"
	 viewBox="0 0 34.1 35" style="enable-background:new 0 0 34.1 35;" xml:space="preserve">
<style type="text/css">
	.st0{display:none;fill:#FFFFFF;}
	.st1{fill:url(#SVGID_1_);}
</style>
<ellipse class="st0" cx="17.2" cy="11.5" rx="24.9" ry="25"/>
<linearGradient id="SVGID_1_" gradientUnits="userSpaceOnUse" x1="17.0573" y1="473.9384" x2="17.0573" y2="508.8498" gradientTransform="matrix(1 0 0 1 0 -473.8426)">
	<stop  offset="0" style="stop-color:#31ACE3"/>
	<stop  offset="1" style="stop-color:#25446E"/>
</linearGradient>
<path class="st1" d="M17,15.1c-1.7-2.4-5.7-3.7-7.6-0.7c-1.9,3.1,1.2,6.3,3.2,8.4c0.7,0.7,2.5,1.8,2.9,2.7c0.3,0.7-0.2,2.2-0.3,3
	c-0.3,2.4-1.3,6.8-4.6,6.4c-2.6-0.3-3.7-4.5-4.5-6.6c-0.8-2.2-1.5-4.5-2.4-6.6C2.8,19.8,1.5,18,0.8,16c-1.3-3.6-1.1-8.1,0.8-11.6
	C3.2,1.5,6.6,0,9.8,0c3.3,0.1,5.9,1.9,9.2,1.1c2.5-0.5,4.9-1.5,7.5-1c3.5,0.7,6.1,3.4,7.1,6.8c1,3.6,0.4,7.9-1.3,11.2
	c-1,1.9-2,3.6-2.8,5.6c-0.8,2.1-1.5,4.2-2.4,6.3c-0.7,1.6-1.7,4.5-3.7,4.8c-3.6,0.4-4-4-4.4-6.5c-0.2-0.9-0.7-2.4-0.4-3.2
	c0.4-1.1,2.3-2.3,3.1-3.1c1.9-1.9,4.3-4.4,3-7.4c-0.9-1.9-3.6-2.7-5.5-1.7C18.4,13.5,17.7,14.4,17,15.1z"/>
</svg>
