<?xml version="1.0" encoding="utf-8"?>
<!-- Generator: Adobe Illustrator 22.1.0, SVG Export Plug-In . SVG Version: 6.00 Build 0)  -->
<svg version="1.1" id="Layer_1" xmlns="http://www.w3.org/2000/svg" xmlns:xlink="http://www.w3.org/1999/xlink" x="0px" y="0px"
	 viewBox="0 0 42.4 22.7" style="enable-background:new 0 0 42.4 22.7;" xml:space="preserve">
<style type="text/css">
	.st0{display:none;fill:#FFFFFF;}
	.st1{fill:url(#SVGID_1_);}
	.st2{fill:url(#SVGID_2_);}
	.st3{fill:url(#SVGID_3_);}
	.st4{fill:url(#SVGID_4_);}
	.st5{fill:url(#SVGID_5_);}
	.st6{fill:url(#SVGID_6_);}
	.st7{fill:url(#SVGID_7_);}
	.st8{fill:url(#SVGID_8_);}
	.st9{fill:url(#SVGID_9_);}
	.st10{fill:url(#SVGID_10_);}
	.st11{fill:url(#SVGID_11_);}
	.st12{fill:url(#SVGID_12_);}
	.st13{fill:url(#SVGID_13_);}
	.st14{fill:url(#SVGID_14_);}
	.st15{fill:url(#SVGID_15_);}
	.st16{fill:url(#SVGID_16_);}
	.st17{fill:url(#SVGID_17_);}
	.st18{fill:url(#SVGID_18_);}
	.st19{fill:url(#SVGID_19_);}
	.st20{fill:url(#SVGID_20_);}
	.st21{fill:url(#SVGID_21_);}
	.st22{fill:url(#SVGID_22_);}
	.st23{fill:url(#SVGID_23_);}
	.st24{fill:url(#SVGID_24_);}
	.st25{fill:url(#SVGID_25_);}
	.st26{fill:url(#SVGID_26_);}
	.st27{fill:url(#SVGID_27_);}
	.st28{fill:url(#SVGID_28_);}
	.st29{fill:url(#SVGID_29_);}
</style>
<ellipse class="st0" cx="21.2" cy="5.3" rx="24.9" ry="25"/>
<g>
	
		<linearGradient id="SVGID_1_" gradientUnits="userSpaceOnUse" x1="2.3064" y1="10.9" x2="35.3506" y2="10.9" gradientTransform="matrix(1 0 0 -1 0 24.8)">
		<stop  offset="0" style="stop-color:#932A8E"/>
		<stop  offset="0.5558" style="stop-color:#562673;stop-opacity:0.8888"/>
		<stop  offset="1" style="stop-color:#272361;stop-opacity:0.8"/>
	</linearGradient>
	<path class="st1" d="M35.4,13.5c-0.1,0.5-0.4,0.8-1,0.8c-10.4,0-20.8,0-31.3,0c-0.2,0-0.5,0-0.7,0c-0.2-0.7-0.1-0.8,0.5-0.8
		c5.2,0,10.3,0,15.5,0c0.2,0,0.3,0,0.5,0c0.1,0,0.5,0,0.7,0c5.1,0,10.3,0,15.4,0C35.1,13.5,35.2,13.5,35.4,13.5z"/>
	
		<linearGradient id="SVGID_2_" gradientUnits="userSpaceOnUse" x1="5.2515" y1="19.3" x2="29.5453" y2="19.3" gradientTransform="matrix(1 0 0 -1 0 24.8)">
		<stop  offset="0" style="stop-color:#932A8E"/>
		<stop  offset="0.5558" style="stop-color:#562673;stop-opacity:0.8888"/>
		<stop  offset="1" style="stop-color:#272361;stop-opacity:0.8"/>
	</linearGradient>
	<path class="st2" d="M5.3,5.9c0-0.3,0-0.5,0-0.8c0.2,0,0.4,0,0.6,0c7.6,0,15.2,0,22.8,0c0.6,0,0.8,0.3,1,0.8
		C21.4,5.9,13.4,5.9,5.3,5.9z"/>
	
		<linearGradient id="SVGID_3_" gradientUnits="userSpaceOnUse" x1="5.2481" y1="21" x2="28.6017" y2="21" gradientTransform="matrix(1 0 0 -1 0 24.8)">
		<stop  offset="0" style="stop-color:#932A8E"/>
		<stop  offset="0.5558" style="stop-color:#562673;stop-opacity:0.8888"/>
		<stop  offset="1" style="stop-color:#272361;stop-opacity:0.8"/>
	</linearGradient>
	<path class="st3" d="M5.2,4.2c0-0.2,0-0.5,0-0.8c0.2,0,0.4,0,0.6,0c7.3,0,14.6,0,21.9,0c0.6,0,0.8,0.2,0.9,0.8
		C20.8,4.2,13.1,4.2,5.2,4.2z"/>
	
		<linearGradient id="SVGID_4_" gradientUnits="userSpaceOnUse" x1="5.2657" y1="22.7" x2="27.6657" y2="22.7" gradientTransform="matrix(1 0 0 -1 0 24.8)">
		<stop  offset="0" style="stop-color:#932A8E"/>
		<stop  offset="0.5558" style="stop-color:#562673;stop-opacity:0.8888"/>
		<stop  offset="1" style="stop-color:#272361;stop-opacity:0.8"/>
	</linearGradient>
	<path class="st4" d="M27.7,2.5c-7.5,0-14.9,0-22.4,0c0-0.2,0-0.5,0-0.8c0.2,0,0.3,0,0.5,0c7,0,14,0,21.1,0
		C27.5,1.7,27.5,1.8,27.7,2.5z"/>
	
		<linearGradient id="SVGID_5_" gradientUnits="userSpaceOnUse" x1="5.2532" y1="24.35" x2="26.8176" y2="24.35" gradientTransform="matrix(1 0 0 -1 0 24.8)">
		<stop  offset="0" style="stop-color:#932A8E"/>
		<stop  offset="0.5558" style="stop-color:#562673;stop-opacity:0.8888"/>
		<stop  offset="1" style="stop-color:#272361;stop-opacity:0.8"/>
	</linearGradient>
	<path class="st5" d="M5.3,0.8c0-0.3,0-0.5,0-0.7c0.3,0,0.6,0,0.9,0c6.6,0,13.2,0,19.8,0c0.6,0,0.7,0.3,0.9,0.7
		C19.6,0.8,12.5,0.8,5.3,0.8z"/>
	
		<linearGradient id="SVGID_6_" gradientUnits="userSpaceOnUse" x1="3.8" y1="5.9" x2="24" y2="5.9" gradientTransform="matrix(1 0 0 -1 0 24.8)">
		<stop  offset="0" style="stop-color:#932A8E"/>
		<stop  offset="0.5558" style="stop-color:#562673;stop-opacity:0.8888"/>
		<stop  offset="1" style="stop-color:#272361;stop-opacity:0.8"/>
	</linearGradient>
	<path class="st6" d="M24,18.5c-0.3,0.4-0.5,0.8-1.2,0.8c-6.1-0.1-12.3-0.1-18.4-0.1c-0.2,0-0.4,0-0.6,0c0-0.3,0-0.5,0-0.7
		C10.5,18.5,17.2,18.5,24,18.5z"/>
	
		<linearGradient id="SVGID_7_" gradientUnits="userSpaceOnUse" x1="5.2598" y1="7.55" x2="25.1598" y2="7.55" gradientTransform="matrix(1 0 0 -1 0 24.8)">
		<stop  offset="0" style="stop-color:#932A8E"/>
		<stop  offset="0.5558" style="stop-color:#562673;stop-opacity:0.8888"/>
		<stop  offset="1" style="stop-color:#272361;stop-opacity:0.8"/>
	</linearGradient>
	<path class="st7" d="M5.3,17.6c0-0.3,0-0.5,0-0.7c6.6,0,13.3,0,19.9,0c-0.2,0.4-0.3,0.7-0.8,0.7c-6.2,0-12.4,0-18.6,0
		C5.6,17.6,5.5,17.6,5.3,17.6z"/>
	
		<linearGradient id="SVGID_8_" gradientUnits="userSpaceOnUse" x1="19.8" y1="14.2" x2="37.0591" y2="14.2" gradientTransform="matrix(1 0 0 -1 0 24.8)">
		<stop  offset="0" style="stop-color:#932A8E"/>
		<stop  offset="0.5558" style="stop-color:#562673;stop-opacity:0.8888"/>
		<stop  offset="1" style="stop-color:#272361;stop-opacity:0.8"/>
	</linearGradient>
	<path class="st8" d="M19.8,10.2c5.8,0,11.5,0,17.3,0C37,10.9,36.9,11,36.2,11c-5.2,0-10.5,0-15.7,0C19.8,11,19.8,11,19.8,10.2z"/>
	
		<linearGradient id="SVGID_9_" gradientUnits="userSpaceOnUse" x1="19.1" y1="15.95" x2="37.9519" y2="15.95" gradientTransform="matrix(1 0 0 -1 0 24.8)">
		<stop  offset="0" style="stop-color:#932A8E"/>
		<stop  offset="0.5558" style="stop-color:#562673;stop-opacity:0.8888"/>
		<stop  offset="1" style="stop-color:#272361;stop-opacity:0.8"/>
	</linearGradient>
	<path class="st9" d="M19.1,8.5c6.3,0,12.6,0,18.9,0c-0.2,0.7-0.2,0.7-0.9,0.7c-5.7,0-11.4,0-17,0C19.6,9.1,19.4,8.9,19.1,8.5z"/>
	
		<linearGradient id="SVGID_10_" gradientUnits="userSpaceOnUse" x1="5.2555" y1="4.25" x2="22.2603" y2="4.25" gradientTransform="matrix(1 0 0 -1 0 24.8)">
		<stop  offset="0" style="stop-color:#932A8E"/>
		<stop  offset="0.5558" style="stop-color:#562673;stop-opacity:0.8888"/>
		<stop  offset="1" style="stop-color:#272361;stop-opacity:0.8"/>
	</linearGradient>
	<path class="st10" d="M22.3,20.2c-0.5,0.5-1,0.7-1.7,0.7c-4.8,0-9.6,0-14.3,0c-0.3,0-0.6,0-0.9,0c0-0.3,0-0.5,0-0.7
		C10.9,20.2,16.6,20.2,22.3,20.2z"/>
	
		<linearGradient id="SVGID_11_" gradientUnits="userSpaceOnUse" x1="19.6" y1="12.55" x2="36.1558" y2="12.55" gradientTransform="matrix(1 0 0 -1 0 24.8)">
		<stop  offset="0" style="stop-color:#932A8E"/>
		<stop  offset="0.5558" style="stop-color:#562673;stop-opacity:0.8888"/>
		<stop  offset="1" style="stop-color:#272361;stop-opacity:0.8"/>
	</linearGradient>
	<path class="st11" d="M19.6,12.6c0.1-0.3,0.1-0.5,0.2-0.7c5.5,0,10.9,0,16.4,0c-0.1,0.7-0.2,0.7-0.8,0.7c-5.1,0-10.2,0-15.2,0
		C20,12.6,19.8,12.6,19.6,12.6z"/>
	
		<linearGradient id="SVGID_12_" gradientUnits="userSpaceOnUse" x1="2.300000e-02" y1="15.95" x2="14.723" y2="15.95" gradientTransform="matrix(1 0 0 -1 0 24.8)">
		<stop  offset="0" style="stop-color:#932A8E"/>
		<stop  offset="0.5558" style="stop-color:#562673;stop-opacity:0.8888"/>
		<stop  offset="1" style="stop-color:#272361;stop-opacity:0.8"/>
	</linearGradient>
	<path class="st12" d="M0,9.2c0-0.3,0-0.5,0-0.7c4.9,0,9.8,0,14.7,0c0,0.2,0,0.4,0,0.7C9.8,9.2,5,9.2,0,9.2z"/>
	
		<linearGradient id="SVGID_13_" gradientUnits="userSpaceOnUse" x1="5.225" y1="14.3" x2="18.0723" y2="14.3" gradientTransform="matrix(1 0 0 -1 0 24.8)">
		<stop  offset="0" style="stop-color:#932A8E"/>
		<stop  offset="0.5558" style="stop-color:#562673;stop-opacity:0.8888"/>
		<stop  offset="1" style="stop-color:#272361;stop-opacity:0.8"/>
	</linearGradient>
	<path class="st13" d="M5.3,10.9c-0.1-0.8-0.1-0.8,0.6-0.8c3.9,0,7.8,0,11.6,0c0.2,0,0.4,0,0.6,0c0,0.3,0,0.5,0,0.8
		C13.8,10.9,9.5,10.9,5.3,10.9z"/>
	
		<linearGradient id="SVGID_14_" gradientUnits="userSpaceOnUse" x1="1.4371" y1="9.25" x2="15.6579" y2="9.25" gradientTransform="matrix(1 0 0 -1 0 24.8)">
		<stop  offset="0" style="stop-color:#932A8E"/>
		<stop  offset="0.5558" style="stop-color:#562673;stop-opacity:0.8888"/>
		<stop  offset="1" style="stop-color:#272361;stop-opacity:0.8"/>
	</linearGradient>
	<path class="st14" d="M15.7,15.2c0,0.2,0,0.4,0,0.7c-4.7,0-9.4,0-14.2,0c0-0.1,0-0.2,0-0.3c0-0.1,0-0.2,0-0.4
		C6.2,15.2,10.9,15.2,15.7,15.2z"/>
	
		<linearGradient id="SVGID_15_" gradientUnits="userSpaceOnUse" x1="17.4479" y1="17.6" x2="30.4479" y2="17.6" gradientTransform="matrix(1 0 0 -1 0 24.8)">
		<stop  offset="0" style="stop-color:#932A8E"/>
		<stop  offset="0.5558" style="stop-color:#562673;stop-opacity:0.8888"/>
		<stop  offset="1" style="stop-color:#272361;stop-opacity:0.8"/>
	</linearGradient>
	<path class="st15" d="M17.5,6.8c2.7,0,5.4,0,8.1,0c1.3,0,2.5,0,3.8,0c0.8,0,0.8,0,1,0.8c-0.1,0-0.2,0-0.4,0c-3.8,0-7.6,0-11.4,0
		c-0.4-0.2-0.9-0.4-1.2-0.6C17.5,6.9,17.5,6.8,17.5,6.8z"/>
	
		<linearGradient id="SVGID_16_" gradientUnits="userSpaceOnUse" x1="5.2525" y1="2.45" x2="19.1145" y2="2.45" gradientTransform="matrix(1 0 0 -1 0 24.8)">
		<stop  offset="0" style="stop-color:#932A8E"/>
		<stop  offset="0.5558" style="stop-color:#562673;stop-opacity:0.8888"/>
		<stop  offset="1" style="stop-color:#272361;stop-opacity:0.8"/>
	</linearGradient>
	<path class="st16" d="M5.3,22.7c0-0.3,0-0.5,0-0.7c4.6,0,9.2,0,13.8,0v0.1c-1,0.2-2,0.5-3.1,0.5c-3.5,0.1-7,0-10.5,0
		C5.5,22.7,5.4,22.7,5.3,22.7z"/>
	
		<linearGradient id="SVGID_17_" gradientUnits="userSpaceOnUse" x1="3.676" y1="12.55" x2="16.3406" y2="12.55" gradientTransform="matrix(1 0 0 -1 0 24.8)">
		<stop  offset="0" style="stop-color:#932A8E"/>
		<stop  offset="0.5558" style="stop-color:#562673;stop-opacity:0.8888"/>
		<stop  offset="1" style="stop-color:#272361;stop-opacity:0.8"/>
	</linearGradient>
	<path class="st17" d="M3.7,12.6c0-0.3,0-0.5,0-0.7c4.2,0,8.4,0,12.7,0c0,0.2,0,0.5,0,0.7C12.1,12.6,7.9,12.6,3.7,12.6z"/>
	
		<linearGradient id="SVGID_18_" gradientUnits="userSpaceOnUse" x1="5.2603" y1="17.6" x2="15.9603" y2="17.6" gradientTransform="matrix(1 0 0 -1 0 24.8)">
		<stop  offset="0" style="stop-color:#932A8E"/>
		<stop  offset="0.5558" style="stop-color:#562673;stop-opacity:0.8888"/>
		<stop  offset="1" style="stop-color:#272361;stop-opacity:0.8"/>
	</linearGradient>
	<path class="st18" d="M16,6.8c0,0.3,0,0.5,0,0.8c-3.6,0-7.1,0-10.7,0c0-0.3,0-0.5,0-0.8C8.8,6.8,12.4,6.8,16,6.8z"/>
	
		<linearGradient id="SVGID_19_" gradientUnits="userSpaceOnUse" x1="31.5663" y1="19.25" x2="39.7475" y2="19.25" gradientTransform="matrix(1 0 0 -1 0 24.8)">
		<stop  offset="0" style="stop-color:#932A8E"/>
		<stop  offset="0.5558" style="stop-color:#562673;stop-opacity:0.8888"/>
		<stop  offset="1" style="stop-color:#272361;stop-opacity:0.8"/>
	</linearGradient>
	<path class="st19" d="M39.7,5.1c-0.2,0.8-0.3,0.9-1,0.9c-2.2,0-4.5,0-6.7,0c-0.2,0-0.3,0-0.5,0c0.2-0.7,0.3-0.9,1-0.9
		c2.2,0,4.5,0,6.7,0C39.4,5.1,39.6,5.1,39.7,5.1z"/>
	
		<linearGradient id="SVGID_20_" gradientUnits="userSpaceOnUse" x1="30.7" y1="17.6" x2="38.8717" y2="17.6" gradientTransform="matrix(1 0 0 -1 0 24.8)">
		<stop  offset="0" style="stop-color:#932A8E"/>
		<stop  offset="0.5558" style="stop-color:#562673;stop-opacity:0.8888"/>
		<stop  offset="1" style="stop-color:#272361;stop-opacity:0.8"/>
	</linearGradient>
	<path class="st20" d="M38.9,6.8c-0.3,0.8-0.3,0.8-1,0.8c-2.3,0-4.6,0-6.9,0c-0.1,0-0.2,0-0.3,0c0.1-0.7,0.2-0.8,0.9-0.8
		c2.3,0,4.5,0,6.8,0C38.5,6.8,38.7,6.8,38.9,6.8z"/>
	
		<linearGradient id="SVGID_21_" gradientUnits="userSpaceOnUse" x1="16.2" y1="9.2" x2="25.7108" y2="9.2" gradientTransform="matrix(1 0 0 -1 0 24.8)">
		<stop  offset="0" style="stop-color:#932A8E"/>
		<stop  offset="0.5558" style="stop-color:#562673;stop-opacity:0.8888"/>
		<stop  offset="1" style="stop-color:#272361;stop-opacity:0.8"/>
	</linearGradient>
	<path class="st21" d="M16.2,16c1.6-0.3,2.1-0.5,2.9-0.8c2,0.1,4,0,6,0c0.2,0,0.4,0,0.6,0c-0.1,0.7-0.2,0.8-0.9,0.8
		c-2.7,0-5.4,0-8.1,0C16.6,16,16.5,16,16.2,16z"/>
	
		<linearGradient id="SVGID_22_" gradientUnits="userSpaceOnUse" x1="26.7086" y1="9.2" x2="34.451" y2="9.2" gradientTransform="matrix(1 0 0 -1 0 24.8)">
		<stop  offset="0" style="stop-color:#932A8E"/>
		<stop  offset="0.5558" style="stop-color:#562673;stop-opacity:0.8888"/>
		<stop  offset="1" style="stop-color:#272361;stop-opacity:0.8"/>
	</linearGradient>
	<path class="st22" d="M26.7,15.2c2.6,0,5.2,0,7.7,0c-0.1,0.7-0.2,0.8-0.9,0.8c-1.9,0-3.9,0-5.8,0C27,16,27,16,26.7,15.2z"/>
	
		<linearGradient id="SVGID_23_" gradientUnits="userSpaceOnUse" x1="32.4854" y1="21" x2="40.5961" y2="21" gradientTransform="matrix(1 0 0 -1 0 24.8)">
		<stop  offset="0" style="stop-color:#932A8E"/>
		<stop  offset="0.5558" style="stop-color:#562673;stop-opacity:0.8888"/>
		<stop  offset="1" style="stop-color:#272361;stop-opacity:0.8"/>
	</linearGradient>
	<path class="st23" d="M40.6,3.4c-0.1,0.6-0.3,0.8-0.9,0.8c-2.4,0-4.8,0-7.2,0c0.1-0.6,0.3-0.8,0.9-0.8c2.2,0,4.5,0,6.7,0
		C40.2,3.4,40.4,3.4,40.6,3.4z"/>
	
		<linearGradient id="SVGID_24_" gradientUnits="userSpaceOnUse" x1="33.4172" y1="22.7" x2="41.4972" y2="22.7" gradientTransform="matrix(1 0 0 -1 0 24.8)">
		<stop  offset="0" style="stop-color:#932A8E"/>
		<stop  offset="0.5558" style="stop-color:#562673;stop-opacity:0.8888"/>
		<stop  offset="1" style="stop-color:#272361;stop-opacity:0.8"/>
	</linearGradient>
	<path class="st24" d="M41.5,1.7c-0.3,0.8-0.3,0.8-1,0.8c-2.2,0-4.5,0-6.7,0c-0.1,0-0.2,0-0.4,0c0.1-0.7,0.2-0.8,0.8-0.8
		c2.3,0,4.5,0,6.8,0C41.2,1.7,41.3,1.7,41.5,1.7z"/>
	
		<linearGradient id="SVGID_25_" gradientUnits="userSpaceOnUse" x1="34.3" y1="24.4" x2="42.3692" y2="24.4" gradientTransform="matrix(1 0 0 -1 0 24.8)">
		<stop  offset="0" style="stop-color:#932A8E"/>
		<stop  offset="0.5558" style="stop-color:#562673;stop-opacity:0.8888"/>
		<stop  offset="1" style="stop-color:#272361;stop-opacity:0.8"/>
	</linearGradient>
	<path class="st25" d="M42.4,0c-0.1,0.7-0.5,0.8-1,0.8c-2.2,0-4.4,0-6.6,0c-0.2,0-0.3,0-0.5,0C34.4,0.3,34.6,0,35.2,0
		c2.2,0,4.4,0,6.6,0C42,0,42.2,0,42.4,0z"/>
	
		<linearGradient id="SVGID_26_" gradientUnits="userSpaceOnUse" x1="27.5523" y1="7.5" x2="33.5745" y2="7.5" gradientTransform="matrix(1 0 0 -1 0 24.8)">
		<stop  offset="0" style="stop-color:#932A8E"/>
		<stop  offset="0.5558" style="stop-color:#562673;stop-opacity:0.8888"/>
		<stop  offset="1" style="stop-color:#272361;stop-opacity:0.8"/>
	</linearGradient>
	<path class="st26" d="M27.6,16.9c2,0,4,0,6,0c-0.1,0.7-0.2,0.8-0.8,0.8c-1.3,0-2.7,0-4,0C27.9,17.7,27.9,17.7,27.6,16.9z"/>
	
		<linearGradient id="SVGID_27_" gradientUnits="userSpaceOnUse" x1="28.4824" y1="5.8" x2="32.7262" y2="5.8" gradientTransform="matrix(1 0 0 -1 0 24.8)">
		<stop  offset="0" style="stop-color:#932A8E"/>
		<stop  offset="0.5558" style="stop-color:#562673;stop-opacity:0.8888"/>
		<stop  offset="1" style="stop-color:#272361;stop-opacity:0.8"/>
	</linearGradient>
	<path class="st27" d="M32.7,18.6c-0.3,0.8-0.3,0.8-1.1,0.8c-0.7,0-1.4,0-2,0c-0.8,0-0.8,0-1.1-0.8C29.9,18.6,31.3,18.6,32.7,18.6z"
		/>
	
		<linearGradient id="SVGID_28_" gradientUnits="userSpaceOnUse" x1="29.372" y1="4.1918" x2="31.8783" y2="4.1918" gradientTransform="matrix(1 0 0 -1 0 24.8)">
		<stop  offset="0" style="stop-color:#932A8E"/>
		<stop  offset="0.5558" style="stop-color:#562673;stop-opacity:0.8888"/>
		<stop  offset="1" style="stop-color:#272361;stop-opacity:0.8"/>
	</linearGradient>
	<path class="st28" d="M29.4,20.2c0.8,0,1.6,0,2.5,0c-0.2,0.3-0.1,0.8-0.6,0.8C29.5,21,29.8,21.2,29.4,20.2z"/>
	
		<linearGradient id="SVGID_29_" gradientUnits="userSpaceOnUse" x1="30.1634" y1="2.45" x2="31.0232" y2="2.45" gradientTransform="matrix(1 0 0 -1 0 24.8)">
		<stop  offset="0" style="stop-color:#932A8E"/>
		<stop  offset="0.5558" style="stop-color:#562673;stop-opacity:0.8888"/>
		<stop  offset="1" style="stop-color:#272361;stop-opacity:0.8"/>
	</linearGradient>
	<path class="st29" d="M30.6,22.8c-0.2-0.3-0.3-0.6-0.4-0.9c0.3,0,0.5,0,0.9,0C30.9,22.2,30.8,22.5,30.6,22.8z"/>
</g>
</svg>
