<?xml version="1.0" encoding="utf-8"?>
<!-- Generator: Adobe Illustrator 22.1.0, SVG Export Plug-In . SVG Version: 6.00 Build 0)  -->
<svg version="1.1" id="Layer_1" xmlns="http://www.w3.org/2000/svg" xmlns:xlink="http://www.w3.org/1999/xlink" x="0px" y="0px"
	 viewBox="0 0 38 37.7" style="enable-background:new 0 0 38 37.7;" xml:space="preserve">
<style type="text/css">
	.st0{display:none;fill:#FFFFFF;}
	.st1{fill:url(#SVGID_1_);}
	.st2{fill:url(#SVGID_2_);}
	.st3{fill:url(#SVGID_3_);}
</style>
<ellipse class="st0" cx="19" cy="12.7" rx="24.9" ry="25"/>
<g>
	
		<linearGradient id="SVGID_1_" gradientUnits="userSpaceOnUse" x1="0" y1="15.8277" x2="18.6543" y2="15.8277" gradientTransform="matrix(1 0 0 -1 0 39.6553)">
		<stop  offset="0" style="stop-color:#F15B27"/>
		<stop  offset="0.2648" style="stop-color:#F36D26"/>
		<stop  offset="1" style="stop-color:#F79421"/>
	</linearGradient>
	<path class="st1" d="M0,20.7c0-2.5,0-5.1,0-7.6c0-1.9,1.1-3.2,2.7-3.2s2.7,1.3,2.7,3.2c0,5,0,10,0,15c0,1.9,1,3.4,2.6,3.9
		c1.9,0.6,3.9-0.2,4.8-2s0.3-3.9-1.4-5c-0.9-0.5-1.6-1.1-1.7-2.2c-0.1-1.1,0.2-2,1.2-2.6s2-0.6,3,0c3.4,1.8,5.2,5.5,4.7,9.5
		c-0.4,3.6-3.2,6.7-6.8,7.7c-5.9,1.5-11.7-2.8-11.8-9C0,25.9,0,23.3,0,20.7z"/>
	
		<linearGradient id="SVGID_2_" gradientUnits="userSpaceOnUse" x1="9.682" y1="24.0807" x2="37.9847" y2="24.0807" gradientTransform="matrix(1 0 0 -1 0 39.6553)">
		<stop  offset="0" style="stop-color:#F15B27"/>
		<stop  offset="0.2648" style="stop-color:#F36D26"/>
		<stop  offset="1" style="stop-color:#F79421"/>
	</linearGradient>
	<path class="st2" d="M38,27.5c0,2.1-0.7,3.4-2.3,3.6c-1.8,0.2-3.1-1-3.1-3c0-3.6-0.8-7-2.5-10.1c-3.8-7.2-9.7-11.3-17.6-12.6
		c-1.9-0.3-2.9-1.5-2.7-3.2C10,0.7,11.4-0.2,13.2,0C26.9,1.7,37.7,13.6,38,27.5z"/>
	
		<linearGradient id="SVGID_3_" gradientUnits="userSpaceOnUse" x1="9.6783" y1="19.1407" x2="28.3797" y2="19.1407" gradientTransform="matrix(1 0 0 -1 0 39.6553)">
		<stop  offset="0" style="stop-color:#F15B27"/>
		<stop  offset="0.2648" style="stop-color:#F36D26"/>
		<stop  offset="1" style="stop-color:#F79421"/>
	</linearGradient>
	<path class="st3" d="M28.4,27.3c-0.1,0.7,0,1.3-0.2,1.9c-0.3,1.2-1.6,2-2.9,1.9c-1.2-0.1-2.2-1.1-2.4-2.3c-0.2-1.3-0.2-2.5-0.5-3.7
		c-1.5-5.3-5-8.6-10.4-9.9c-1.2-0.3-2.1-0.9-2.3-2.1c-0.4-1.8,1-3.5,2.9-3.2c1.3,0.2,2.6,0.5,3.8,1.1C23.8,13.9,27.6,19.6,28.4,27.3
		z"/>
</g>
</svg>
