<?xml version="1.0" encoding="utf-8"?>
<!-- Generator: Adobe Illustrator 22.1.0, SVG Export Plug-In . SVG Version: 6.00 Build 0)  -->
<svg version="1.1" id="Layer_1" xmlns="http://www.w3.org/2000/svg" xmlns:xlink="http://www.w3.org/1999/xlink" x="0px" y="0px"
	 viewBox="0 0 38.5 39.3" style="enable-background:new 0 0 38.5 39.3;" xml:space="preserve">
<style type="text/css">
	.st0{display:none;fill:#FFFFFF;}
	.st1{fill:url(#SVGID_1_);}
	.st2{fill:url(#SVGID_2_);}
	.st3{fill:url(#SVGID_3_);}
	.st4{fill:url(#SVGID_4_);}
	.st5{fill:url(#SVGID_5_);}
	.st6{fill:url(#SVGID_6_);}
	.st7{fill:url(#SVGID_7_);}
	.st8{fill:url(#SVGID_8_);}
	.st9{fill:url(#SVGID_9_);}
</style>
<ellipse class="st0" cx="19.2" cy="13.6" rx="24.9" ry="25"/>
<g>
	
		<linearGradient id="SVGID_1_" gradientUnits="userSpaceOnUse" x1="25.1361" y1="35.6193" x2="32.9847" y2="35.6193" gradientTransform="matrix(1 0 0 -1 0 41.4258)">
		<stop  offset="0" style="stop-color:#4CBD95"/>
		<stop  offset="0.5887" style="stop-color:#30A5BD"/>
		<stop  offset="1" style="stop-color:#0596D4"/>
	</linearGradient>
	<path class="st1" d="M30.8,0.4c-1.9-1-4.3-0.1-5.3,1.8C25.1,3,25,4,25.2,4.8l0.1,6.8l5.4-4.1c0.8-0.4,1.5-1,1.9-1.8
		C33.5,3.7,32.7,1.4,30.8,0.4z M27.9,6.4c-1.4-0.7-1.9-2.3-1.3-3.7c0.7-1.3,2.3-1.9,3.6-1.2s1.9,2.3,1.2,3.6S29.2,7,27.9,6.4z"/>
	<g>
		
			<linearGradient id="SVGID_2_" gradientUnits="userSpaceOnUse" x1="3.6" y1="21.3224" x2="34.4" y2="21.3224" gradientTransform="matrix(1 0 0 -1 0 41.4258)">
			<stop  offset="0" style="stop-color:#4CBD95"/>
			<stop  offset="0.5887" style="stop-color:#30A5BD"/>
			<stop  offset="1" style="stop-color:#0596D4"/>
		</linearGradient>
		<path class="st2" d="M24.4,9.4c-0.4,0-0.6,0-0.9-0.1c-1-0.4-1.2-0.6-1.3-0.7c0.1-0.1,0.4-0.4,0.6-0.5C22.9,8,23,7.9,23.1,7.9
			c0.1-0.1,0.2-0.4,0.3-0.7c0.6,0.3,0-0.1,0.6,0.3c-0.1-1,0.1-1.7,0.2-2.1c-1.9-0.9-2.9-0.7-5.2-0.7c-8.5,0-15.4,6.9-15.4,15.4
			S10.5,35.5,19,35.5s15.4-6.9,15.4-15.4c0-4.4-1.1-7.6-4.1-10.4l-1.5,1.1c2.7,2.5,3.7,5.4,3.7,9.4c0,2.2-0.5,4.3-1.4,6.1l-1.9-0.6
			c-0.1,0-0.2,0-0.3,0l-1.4,0.7h-1.9l-1.1-1.3l0,0L23.4,24c-0.1-0.1-0.3-0.1-0.4-0.1l-1.5,0.4c-0.1,0-0.2,0.1-0.3,0.2
			c-0.1,0.2-0.3,0.5-0.4,0.5c-0.2,0-0.9-0.2-1.6-0.3l-1-1.4c-0.1-0.1-0.2-0.2-0.3-0.2c-0.1,0-1-0.1-1.5,0.4
			c-0.2-0.1-0.2-0.1-0.2-0.1l0,0c0,0-0.1,0-0.2,0h-0.8c-0.3,0-0.5,0.2-0.5,0.5V26c0,0.8,1.1,0.8,1.4,0.8c0.2,0,0.9,0.2,1.6,0.3
			c0.2,0.3,0.5,0.6,0.5,0.7c0,0.1-0.1,0.2-0.1,0.4c-0.1,0.2-0.2,0.5-0.2,0.8c0,0.1-0.2,0.3-0.3,0.3s-0.5-0.1-0.7-0.3c0,0,0,0-0.1,0
			l-1-0.4c-0.1,0-0.3,0-0.4,0c-0.1,0.1-0.2,0.2-0.2,0.4v0.7c0,0,0,0.2-0.1,0.3c-0.1,0.4-0.2,0.7,0,1c-0.1,0-0.3,0.1-0.4,0.3
			c-0.3,0.3-0.3,0.3-0.5,0.3H14c-0.3,0-0.5,0.2-0.5,0.5v0.1c-4.7-2.1-7.9-6.8-7.9-12.3c0-2.6,0.8-5.1,2.1-7.2l1,1.6
			c0.1,0.1,0.2,0.2,0.4,0.2h2.2c0.5,0.2,1.1,0.4,1.3,0.6l0,0c0,0.2-0.2,0.6,0,1c0.1,0.2,0.4,0.4,0.7,0.4c0.9,0.1,2.2-0.7,2.5-1
			l1.2-0.3c0.6,0.1,1.3,0.3,1.6,0.3c0.1,0.1,0.2,0.2,0.6,0.5c0.3,0.2,0.8,0.6,1,0.8c0.1,0.3,0.4,0.4,0.9,0.5s0.9,0.1,1.2,0.1
			c0.5,0,0.6-0.1,0.7-0.2c0,0,0.1-0.1,1-1.9c0-0.1,0-0.3,0-0.4s-0.2-0.2-0.3-0.2c-0.3,0-0.8-0.2-0.9-0.3c0-0.1,0-0.6,0-0.8
			c0.3-0.1,1-0.5,1.1-0.5c0,0,0.1,0,0.8-0.5l0.8,0.9c0.1,0.1,0.3,0.2,0.5,0.1c0.2,0,0.8-0.3,1.1-0.6c0.2-0.2,0.8-0.2,0.2-1.8
			l-2.1,1.1c0,0-0.6-0.9-0.6-1.9"/>
		
			<linearGradient id="SVGID_3_" gradientUnits="userSpaceOnUse" x1="7.9" y1="17.0129" x2="13.1" y2="17.0129" gradientTransform="matrix(1 0 0 -1 0 41.4258)">
			<stop  offset="0" style="stop-color:#4CBD95"/>
			<stop  offset="0.5887" style="stop-color:#30A5BD"/>
			<stop  offset="1" style="stop-color:#0596D4"/>
		</linearGradient>
		<path class="st3" d="M11.8,21.9c0-0.1-0.2-0.3-0.4-0.3l-1.1-0.1l0,0H8.8c-0.2,0-0.4,0.1-0.5,0.4l-0.4,1.7c0,0.1,0,0.2,0,0.4
			c0.1,0.1,0.2,0.2,0.3,0.2c0.5,0.1,1,0.2,1.2,0.3c0,0.2,0.2,0.5,0.6,0.5l0,0l0,0c0,0.6-0.3,1.2-0.3,1.2c-0.1,0.2,0,0.4,0.1,0.6
			c0.1,0.1,0.6,0.5,1.1,0.5s0.8-0.5,1.1-1.1c0.1-0.2,0.3-0.5,0.4-0.6l0.1-0.1c0.3-0.3,0.6-0.5,0.6-0.9c0-0.2-0.1-0.5-0.3-0.6
			S12.2,22.7,11.8,21.9z"/>
		
			<linearGradient id="SVGID_4_" gradientUnits="userSpaceOnUse" x1="19.8" y1="39.1629" x2="24.6191" y2="39.1629" gradientTransform="matrix(1 0 0 -1 0 41.4258)">
			<stop  offset="0" style="stop-color:#4CBD95"/>
			<stop  offset="0.5887" style="stop-color:#30A5BD"/>
			<stop  offset="1" style="stop-color:#0596D4"/>
		</linearGradient>
		<path class="st4" d="M21.5,1.9V0.6l-1.7,1.7l0.3,0.3l0.1,0.1l1.2,1.2v-1c1.4,0.2,1.7,0.2,2.9,0.7l0.2-1.1
			C23.3,2.1,22.9,2.1,21.5,1.9z"/>
		
			<linearGradient id="SVGID_5_" gradientUnits="userSpaceOnUse" x1="32.06" y1="28.5629" x2="36.96" y2="28.5629" gradientTransform="matrix(1 0 0 -1 0 41.4258)">
			<stop  offset="0" style="stop-color:#4CBD95"/>
			<stop  offset="0.5887" style="stop-color:#30A5BD"/>
			<stop  offset="1" style="stop-color:#0596D4"/>
		</linearGradient>
		<path class="st5" d="M36.1,17.4c0,0.2,0.2,0.4,0.5,0.4l0,0c0.2,0,0.4-0.3,0.4-0.5c-0.6-4-1.8-6.8-4.5-9.4l-0.4,0.6
			C34.6,11,35.5,13.6,36.1,17.4z"/>
		
			<linearGradient id="SVGID_6_" gradientUnits="userSpaceOnUse" x1="-3.690004e-02" y1="31.2629" x2="17.5353" y2="31.2629" gradientTransform="matrix(1 0 0 -1 0 41.4258)">
			<stop  offset="0" style="stop-color:#4CBD95"/>
			<stop  offset="0.5887" style="stop-color:#30A5BD"/>
			<stop  offset="1" style="stop-color:#0596D4"/>
		</linearGradient>
		<path class="st6" d="M3.3,16.7H2C3.4,9.3,9.5,3.6,17.1,2.8c0.2,0,0.4-0.3,0.4-0.5S17.2,1.9,17,1.9C9,2.7,2.5,8.8,1.1,16.7H0
			l1.7,1.7L3.3,16.7z"/>
		
			<linearGradient id="SVGID_7_" gradientUnits="userSpaceOnUse" x1="0.7955" y1="11.6629" x2="18.5955" y2="11.6629" gradientTransform="matrix(1 0 0 -1 0 41.4258)">
			<stop  offset="0" style="stop-color:#4CBD95"/>
			<stop  offset="0.5887" style="stop-color:#30A5BD"/>
			<stop  offset="1" style="stop-color:#0596D4"/>
		</linearGradient>
		<path class="st7" d="M16.9,37.1c-8.3-1-14.9-8-15.2-16.4c0-0.3-0.2-0.5-0.5-0.5s-0.5,0.2-0.5,0.5C1.1,29.6,8,37.1,16.8,38v1.3
			l1.7-1.6L16.9,36V37.1z"/>
		
			<linearGradient id="SVGID_8_" gradientUnits="userSpaceOnUse" x1="20.074" y1="12.4129" x2="38.4394" y2="12.4129" gradientTransform="matrix(1 0 0 -1 0 41.4258)">
			<stop  offset="0" style="stop-color:#4CBD95"/>
			<stop  offset="0.5887" style="stop-color:#30A5BD"/>
			<stop  offset="1" style="stop-color:#0596D4"/>
		</linearGradient>
		<path class="st8" d="M36.8,19.9l-1.7,1.7h1.1c-0.8,8.2-7.4,14.9-15.7,15.6c-0.3,0-0.5,0.2-0.4,0.5c0,0.2,0.2,0.4,0.5,0.4l0,0
			c8.8-0.7,15.8-7.8,16.6-16.5h1.3L36.8,19.9z"/>
	</g>
	<g>
		
			<linearGradient id="SVGID_9_" gradientUnits="userSpaceOnUse" x1="27.2496" y1="37.6129" x2="29.9792" y2="37.6129" gradientTransform="matrix(1 0 0 -1 0 41.4258)">
			<stop  offset="0" style="stop-color:#4CBD95"/>
			<stop  offset="0.5887" style="stop-color:#30A5BD"/>
			<stop  offset="1" style="stop-color:#0596D4"/>
		</linearGradient>
		<path class="st9" d="M27.7,5.1c0-0.1-0.1-0.1-0.1-0.2c-0.1-0.1-0.1-0.2-0.2-0.3c0,0,0-0.1-0.1-0.1V4.4l0,0l0,0
			c0.1-0.1,0.2-0.1,0.3-0.2c0.1-0.1,0.2-0.1,0.3-0.2c0.2-0.1,0.3-0.2,0.4-0.3c0.1-0.1,0.2-0.1,0.3-0.2c0.1-0.1,0.2-0.2,0.3-0.3
			S29.1,3,29.2,3c-0.1-0.1,0-0.1,0-0.2c0.1-0.1,0.1-0.1,0.2-0.2c0.1-0.1,0.2-0.2,0.3-0.3c0.1-0.1,0.1-0.1,0.2-0.2c0,0,0,0,0.1-0.1
			v0.1c0,0.1,0,0.2-0.1,0.3c0,0.1-0.1,0.3-0.1,0.4c0,0.1-0.1,0.3-0.1,0.4c0,0.2,0,0.3-0.1,0.5c0,0.1,0,0.2,0,0.4c0,0.1,0,0.2,0,0.3
			s0,0.2,0,0.3s0,0.3,0,0.4c0,0.2,0,0.4,0.1,0.5l0,0h-0.1c-0.1,0-0.1,0-0.2,0c-0.1,0-0.2,0-0.3,0H29l0,0c0-0.1,0-0.3,0.1-0.4
			c0-0.2,0-0.3,0.1-0.5c0-0.1,0-0.2,0.1-0.4c0-0.1,0-0.3,0.1-0.4c0-0.1,0-0.2,0-0.3l0,0l0,0l-0.1,0.1C29.2,3.8,29.1,3.9,29,4
			c-0.1,0.1-0.2,0.2-0.3,0.3s-0.2,0.2-0.3,0.3s-0.2,0.2-0.3,0.3C27.7,5,27.7,5.1,27.7,5.1L27.7,5.1z"/>
	</g>
</g>
</svg>
