<?xml version="1.0" encoding="utf-8"?>
<!-- Generator: Adobe Illustrator 22.1.0, SVG Export Plug-In . SVG Version: 6.00 Build 0)  -->
<svg version="1.1" id="Layer_1" xmlns="http://www.w3.org/2000/svg" xmlns:xlink="http://www.w3.org/1999/xlink" x="0px" y="0px"
	 viewBox="0 0 81.6 81.5" style="enable-background:new 0 0 81.6 81.5;" xml:space="preserve">
<style type="text/css">
	.st0{fill:none;stroke:#000000;stroke-linecap:round;stroke-linejoin:round;stroke-miterlimit:10;}
	.st1{fill:none;stroke:#000000;stroke-width:0.75;stroke-miterlimit:10;}
	.st2{fill:#FFFFFF;}
</style>
<path class="st0" d="M15.7,60.6l-2.5,20L15.7,60.6z"/>
<path class="st0" d="M38.2,39.8c-1.6,0.9-3.2,1.5-5,1.5c-2.2,0-4.4-0.8-6.3-2.3v0.5c0,1.8-0.7,3.5-2,4.7c-0.6,0.6-1.4,1.1-2.2,1.4
	L4,53.4c-2.1,2.1-3.4,5-3.4,8.1v19.1h37.5V39.8z"/>
<path class="st0" d="M38.2,1.5c-1.6-0.6-3.2-0.9-5-0.9c-7.3,0-13.2,5.4-14.1,12.5v4.1c-1.8,0.7-3.2,2.4-3.2,4.5c0,4,2,7.3,4.6,7.4
	c2.3,7.2,7.1,12.2,12.7,12.2c1.8,0,3.4-0.5,5-1.4L38.2,1.5L38.2,1.5z"/>
<g>
	<path class="st1" d="M42.2,65.6l-7.7,5.6l0.7-2.2c3-10,2-14.2,11.3-21.2l0.8-0.5C51.6,35,56,30.2,73.8,17.7l1.4-1L75,18.5
		C72.6,40,70.5,46.2,61.8,55.9l-0.1,1c-1.7,11.5-5.8,12.6-13.2,20l-1.6,1.6l1.2-9.4L42.2,65.6z M47.4,46.8l-5.3,18.8 M61.8,55.9
		L47.9,69.4"/>
</g>
<rect x="33.2" y="53.1" class="st2" width="4.4" height="22.2"/>
<path class="st1" d="M41.3,69.1"/>
<path class="st2" d="M53.8,33.1l11.7-10.1c0,0,4.1,7,10.9,13.3l0.8,0.8l0.6,3.2l-5.4,5.5L68.9,45l-8.3-8.6
	C60.6,36.5,56.7,32.8,53.8,33.1z"/>
<g>
	<path class="st0" d="M61.3,37.1c-2.4-2.5-5.9-4.2-9.7-4.2c-3.5-0.1-7-1.5-9.7-4.2l0,0l0,0c-5.3-5.5-5.1-14.2,0.4-19.5l0,0
		c5.5-5.3,14.2-5.1,19.5,0.4l0,0l0,0c2.6,2.8,3.9,6.3,3.9,9.8c-0.1,3.8,1.4,7.3,3.9,9.8C69.5,29.1,61.3,37.1,61.3,37.1z"/>
	<polygon class="st0" points="61.3,37.1 68.9,45 72.4,45.8 77.8,40.6 77.2,37.1 69.5,29.1 	"/>
	<path class="st0" d="M61.3,26c-0.8-0.8-2-0.8-2.8-0.1c-0.8,0.8-0.8,2-0.1,2.8l0,0l5.5,5.7l2.8-2.7L61.3,26L61.3,26z"/>
	<path class="st0" d="M58,27.6c-0.1-0.6,0.1-1.2,0.6-1.6c0.5-0.4,1.1-0.6,1.7-0.5l0,0l-4.1-10.6c-1.6,1.5-4.1,1.5-5.6-0.1l-2.8,2.7
		c1.5,1.6,1.5,4.1-0.1,5.6L58,27.6L58,27.6z"/>
</g>
<rect x="34.1" y="9.8" class="st2" width="3.5" height="16.9"/>
</svg>
