<?xml version="1.0" encoding="utf-8"?>
<!-- Generator: Adobe Illustrator 24.1.2, SVG Export Plug-In . SVG Version: 6.00 Build 0)  -->
<!DOCTYPE svg PUBLIC "-//W3C//DTD SVG 1.1//EN" "http://www.w3.org/Graphics/SVG/1.1/DTD/svg11.dtd" [
	<!ENTITY ns_extend "http://ns.adobe.com/Extensibility/1.0/">
	<!ENTITY ns_ai "http://ns.adobe.com/AdobeIllustrator/10.0/">
	<!ENTITY ns_graphs "http://ns.adobe.com/Graphs/1.0/">
	<!ENTITY ns_vars "http://ns.adobe.com/Variables/1.0/">
	<!ENTITY ns_imrep "http://ns.adobe.com/ImageReplacement/1.0/">
	<!ENTITY ns_sfw "http://ns.adobe.com/SaveForWeb/1.0/">
	<!ENTITY ns_custom "http://ns.adobe.com/GenericCustomNamespace/1.0/">
	<!ENTITY ns_adobe_xpath "http://ns.adobe.com/XPath/1.0/">
]>
<svg version="1.1" xmlns:x="&ns_extend;" xmlns:i="&ns_ai;" xmlns:graph="&ns_graphs;"
	 xmlns="http://www.w3.org/2000/svg" xmlns:xlink="http://www.w3.org/1999/xlink" x="0px" y="0px" viewBox="0 0 50 50"
	 style="enable-background:new 0 0 50 50;" xml:space="preserve">
<style type="text/css">
	.st0{display:none;}
	.st1{display:none;fill:#3DFFA5;}
	.st2{fill:#FFFFFF;}
	.st3{display:none;fill:#FFFFFF;}
	.st4{fill:url(#SVGID_1_);}
	.st5{fill:url(#SVGID_2_);}
	.st6{fill:url(#SVGID_3_);}
	.st7{fill:url(#SVGID_4_);}
	.st8{fill:url(#SVGID_5_);}
	.st9{fill:url(#SVGID_6_);}
	.st10{fill:url(#SVGID_7_);}
	.st11{fill:url(#SVGID_8_);}
	.st12{fill:url(#SVGID_9_);}
	.st13{fill:url(#SVGID_10_);}
</style>
<metadata>
	<sfw  xmlns="&ns_sfw;">
		<slices></slices>
		<sliceSourceBounds  bottomLeftOrigin="true" height="56.1" width="50" x="0" y="0"></sliceSourceBounds>
	</sfw>
</metadata>
<g id="Layer_2" class="st0">
</g>
<g id="Layer_1">
	<rect class="st1" width="50" height="50"/>
	<path class="st2" d="M50,41.8c0,4.5-3.7,8.2-8.2,8.2H8.2C3.7,50,0,46.3,0,41.8V8.2C0,3.7,3.7,0,8.2,0h33.5C46.3,0,50,3.7,50,8.2
		V41.8z"/>
	<ellipse class="st3" cx="25" cy="18.9" rx="24.9" ry="25"/>
	<g>
		<linearGradient id="SVGID_1_" gradientUnits="userSpaceOnUse" x1="31.9119" y1="19.072" x2="33.149" y2="19.072">
			<stop  offset="0" style="stop-color:#ED1E79"/>
			<stop  offset="0.573" style="stop-color:#9D2787"/>
			<stop  offset="1" style="stop-color:#662D91"/>
		</linearGradient>
		<polygon class="st4" points="31.9,20.1 33.1,19.8 33.1,18.3 31.9,18 		"/>
		<linearGradient id="SVGID_2_" gradientUnits="userSpaceOnUse" x1="29.4377" y1="19.072" x2="30.6748" y2="19.072">
			<stop  offset="0" style="stop-color:#ED1E79"/>
			<stop  offset="0.573" style="stop-color:#9D2787"/>
			<stop  offset="1" style="stop-color:#662D91"/>
		</linearGradient>
		<path class="st5" d="M30.1,12.3c-0.3,0-0.6,0.3-0.6,0.6v12.4c0,0.3,0.3,0.6,0.6,0.6s0.6-0.3,0.6-0.6V12.9
			C30.7,12.5,30.4,12.3,30.1,12.3z"/>
		<linearGradient id="SVGID_3_" gradientUnits="userSpaceOnUse" x1="16.4482" y1="19.072" x2="20.778" y2="19.072">
			<stop  offset="0" style="stop-color:#ED1E79"/>
			<stop  offset="0.573" style="stop-color:#9D2787"/>
			<stop  offset="1" style="stop-color:#662D91"/>
		</linearGradient>
		<path class="st6" d="M20.8,17.2h-2.5c-1,0-1.9,0.8-1.9,1.9s0.8,1.9,1.9,1.9h2.5V17.2z"/>
		<linearGradient id="SVGID_4_" gradientUnits="userSpaceOnUse" x1="22.0151" y1="19.072" x2="28.2006" y2="19.072">
			<stop  offset="0" style="stop-color:#ED1E79"/>
			<stop  offset="0.573" style="stop-color:#9D2787"/>
			<stop  offset="1" style="stop-color:#662D91"/>
		</linearGradient>
		<polygon class="st7" points="22,21.2 28.2,24.3 28.2,13.9 22,17 		"/>
		<linearGradient id="SVGID_5_" gradientUnits="userSpaceOnUse" x1="38.6059" y1="20.6184" x2="42.3203" y2="20.6184">
			<stop  offset="0" style="stop-color:#662D91"/>
			<stop  offset="0.427" style="stop-color:#9D2787"/>
			<stop  offset="1" style="stop-color:#ED1E79"/>
		</linearGradient>
		<path class="st8" d="M42.3,12.9c0-1-0.8-1.9-1.9-1.9h-1.9l0,19.2h3.7V12.9z"/>
		<linearGradient id="SVGID_6_" gradientUnits="userSpaceOnUse" x1="19.1964" y1="24.0204" x2="21.7411" y2="24.0204">
			<stop  offset="0" style="stop-color:#ED1E79"/>
			<stop  offset="0.573" style="stop-color:#9D2787"/>
			<stop  offset="1" style="stop-color:#662D91"/>
		</linearGradient>
		<polygon class="st9" points="19.2,22.2 20.6,25.9 21.7,25.9 20.3,22.2 		"/>
		<linearGradient id="SVGID_7_" gradientUnits="userSpaceOnUse" x1="7.6784" y1="32.9894" x2="42.3216" y2="32.9894">
			<stop  offset="0" style="stop-color:#ED1E79"/>
			<stop  offset="0.573" style="stop-color:#9D2787"/>
			<stop  offset="1" style="stop-color:#662D91"/>
		</linearGradient>
		<path class="st10" d="M42.3,31.4H7.7v1.2c0,1,0.8,1.9,1.9,1.9h30.9c1,0,1.9-0.8,1.9-1.9L42.3,31.4z"/>
		<linearGradient id="SVGID_8_" gradientUnits="userSpaceOnUse" x1="7.6784" y1="20.6184" x2="11.3935" y2="20.6184">
			<stop  offset="0" style="stop-color:#ED1E79"/>
			<stop  offset="0.573" style="stop-color:#9D2787"/>
			<stop  offset="1" style="stop-color:#662D91"/>
		</linearGradient>
		<path class="st11" d="M11.4,11H9.5c-1,0-1.9,0.8-1.9,1.9v17.3h3.7L11.4,11z"/>
		<linearGradient id="SVGID_9_" gradientUnits="userSpaceOnUse" x1="12.6268" y1="18.4534" x2="37.3732" y2="18.4534">
			<stop  offset="0" style="stop-color:#ED1E79"/>
			<stop  offset="0.573" style="stop-color:#9D2787"/>
			<stop  offset="1" style="stop-color:#662D91"/>
		</linearGradient>
		<path class="st12" d="M37.4,8.6c0-1-0.8-1.9-1.9-1.9h-21c-1,0-1.9,0.8-1.9,1.9l0,21.6h24.7L37.4,8.6z M18.8,7.9H20v1.2h-1.2V7.9z
			 M16.3,7.9h1.2v1.2h-1.2V7.9z M13.9,7.9h1.2v1.2h-1.2V7.9z M31.9,25.3c0,1-0.8,1.8-1.9,1.8c-0.9,0-1.6-0.6-1.8-1.4l-6.5-3.2
			l1.4,3.9c0.1,0.3,0,0.7-0.4,0.8c-0.1,0-0.1,0-0.2,0h-2.5c-0.3,0-0.5-0.2-0.6-0.4l-1.7-4.6c-1.7-0.2-2.9-1.8-2.6-3.5
			c0.2-1.5,1.5-2.6,3.1-2.6h2.9l7-3.5c0.2-1,1.2-1.6,2.2-1.4c0.8,0.2,1.4,0.9,1.4,1.8v3.8l2,0.5c0.3,0.1,0.5,0.3,0.5,0.6v2.5
			c0,0.3-0.2,0.5-0.5,0.6l-2,0.5V25.3z"/>
		<linearGradient id="SVGID_10_" gradientUnits="userSpaceOnUse" x1="18.1938" y1="39.1749" x2="32.4204" y2="39.1749">
			<stop  offset="0" style="stop-color:#ED1E79"/>
			<stop  offset="0.573" style="stop-color:#9D2787"/>
			<stop  offset="1" style="stop-color:#662D91"/>
		</linearGradient>
		<polygon class="st13" points="27.7,35.8 22.3,35.8 20.3,41.3 18.2,41.3 18.2,42.6 32.4,42.6 32.4,41.3 29.7,41.3 		"/>
	</g>
</g>
</svg>
