<?xml version="1.0" encoding="utf-8"?>
<!-- Generator: Adobe Illustrator 24.2.1, SVG Export Plug-In . SVG Version: 6.00 Build 0)  -->
<!DOCTYPE svg PUBLIC "-//W3C//DTD SVG 1.1//EN" "http://www.w3.org/Graphics/SVG/1.1/DTD/svg11.dtd" [
	<!ENTITY ns_extend "http://ns.adobe.com/Extensibility/1.0/">
	<!ENTITY ns_ai "http://ns.adobe.com/AdobeIllustrator/10.0/">
	<!ENTITY ns_graphs "http://ns.adobe.com/Graphs/1.0/">
	<!ENTITY ns_vars "http://ns.adobe.com/Variables/1.0/">
	<!ENTITY ns_imrep "http://ns.adobe.com/ImageReplacement/1.0/">
	<!ENTITY ns_sfw "http://ns.adobe.com/SaveForWeb/1.0/">
	<!ENTITY ns_custom "http://ns.adobe.com/GenericCustomNamespace/1.0/">
	<!ENTITY ns_adobe_xpath "http://ns.adobe.com/XPath/1.0/">
]>
<svg version="1.1" id="Capa_1" xmlns:x="&ns_extend;" xmlns:i="&ns_ai;" xmlns:graph="&ns_graphs;"
	 xmlns="http://www.w3.org/2000/svg" xmlns:xlink="http://www.w3.org/1999/xlink" x="0px" y="0px" viewBox="0 0 514.2 514.2"
	 style="enable-background:new 0 0 514.2 514.2;" xml:space="preserve">
<style type="text/css">
	.st0{fill:#FFFFFF;}
</style>
<metadata>
	<sfw  xmlns="&ns_sfw;">
		<slices></slices>
		<sliceSourceBounds  bottomLeftOrigin="true" height="416" width="514.2" x="0" y="49.1"></sliceSourceBounds>
	</sfw>
</metadata>
<g>
	<g>
		<path class="st0" d="M514.2,241.1c0-35.3-28.7-64-64-64c-14.1,0-27.5,4.6-38.5,13c-35.7-24.8-82.5-39.6-132.3-43.3l26.8-63
			l78.1,18.2c2.5,24.2,22.7,43.1,47.5,43.1c26.5,0,48-21.5,48-48s-21.5-48-48-48c-16.8,0-31.5,8.7-40.1,21.8l-91.3-21.3
			c-7.7-1.8-15.3,2.2-18.4,9.3l-37.1,87c-53.7,1.9-104.9,17-143.6,43.4C91,181.4,77.9,177.1,64,177.1c-35.3,0-64,28.7-64,64
			c0,23.4,12.8,44.5,32.4,55.4c-0.3,2.8-0.4,5.7-0.4,8.6c0,88.2,100.5,160,224,160c123.5,0,224-71.8,224-160c0-2.5-0.1-5-0.3-7.4
			C500.6,287.1,514.2,265.4,514.2,241.1z M432,81.1c8.8,0,16,7.2,16,16s-7.2,16-16,16s-16-7.2-16-16S423.2,81.1,432,81.1z
			 M144,289.1c0-17.6,14.4-32,32-32s32,14.4,32,32c0,17.7-14.4,32-32,32S144,306.8,144,289.1z M329.9,395.3c-22.1,16-48,24-73.9,24
			s-51.8-8-73.9-24c-7.2-5.2-8.8-15.2-3.6-22.3s15.2-8.7,22.3-3.6c33,23.8,77.3,23.9,110.3,0c7.1-5.2,17.1-3.6,22.3,3.6
			C338.7,380.1,337,390.1,329.9,395.3z M336,321.1c-17.7,0-32-14.3-32-32c0-17.6,14.3-32,32-32s32,14.4,32,32
			C368,306.8,353.7,321.1,336,321.1z"/>
	</g>
</g>
</svg>
