<svg id="bf17875f-58e0-4e37-a570-aa7159493bf7" data-name="Layer 1" xmlns="http://www.w3.org/2000/svg" viewBox="0 0 131.36 443"><path d="M96.51-31.37h0a3.32,3.32,0,0,1,3.32,3.32V38a0,0,0,0,1,0,0H93.19a0,0,0,0,1,0,0V-28.05a3.32,3.32,0,0,1,3.32-3.32Z" transform="translate(93.19 99.83) rotate(-90)"/><rect x="124.44" width="6.92" height="440.89" transform="translate(255.8 440.89) rotate(-180)"/><path d="M95.79,402.89h0a3.32,3.32,0,0,1,3.32,3.32v66.06a0,0,0,0,1,0,0H92.48a0,0,0,0,1,0,0V406.21A3.32,3.32,0,0,1,95.79,402.89Z" transform="translate(-341.79 533.37) rotate(-90)"/><circle cx="45.07" cy="437.58" r="5.42"/><circle cx="25.25" cy="437.58" r="5.42"/><circle cx="5.42" cy="437.58" r="5.42"/></svg>