<?xml version="1.0" encoding="utf-8"?>
<!-- Generator: Adobe Illustrator 24.2.1, SVG Export Plug-In . SVG Version: 6.00 Build 0)  -->
<!DOCTYPE svg PUBLIC "-//W3C//DTD SVG 1.1//EN" "http://www.w3.org/Graphics/SVG/1.1/DTD/svg11.dtd" [
	<!ENTITY ns_extend "http://ns.adobe.com/Extensibility/1.0/">
	<!ENTITY ns_ai "http://ns.adobe.com/AdobeIllustrator/10.0/">
	<!ENTITY ns_graphs "http://ns.adobe.com/Graphs/1.0/">
	<!ENTITY ns_vars "http://ns.adobe.com/Variables/1.0/">
	<!ENTITY ns_imrep "http://ns.adobe.com/ImageReplacement/1.0/">
	<!ENTITY ns_sfw "http://ns.adobe.com/SaveForWeb/1.0/">
	<!ENTITY ns_custom "http://ns.adobe.com/GenericCustomNamespace/1.0/">
	<!ENTITY ns_adobe_xpath "http://ns.adobe.com/XPath/1.0/">
]>
<svg version="1.1" id="Layer_1" xmlns:x="&ns_extend;" xmlns:i="&ns_ai;" xmlns:graph="&ns_graphs;"
	 xmlns="http://www.w3.org/2000/svg" xmlns:xlink="http://www.w3.org/1999/xlink" x="0px" y="0px" viewBox="0 0 6553.6 6570"
	 style="enable-background:new 0 0 6553.6 6570;" xml:space="preserve">
<style type="text/css">
	.st0{fill:#00B0E9;}
	.st1{enable-background:new    ;}
</style>
<metadata>
	<sfw  xmlns="&ns_sfw;">
		<slices></slices>
		<sliceSourceBounds  bottomLeftOrigin="true" height="6570" width="6553.6" x="0" y="1622"></sliceSourceBounds>
	</sfw>
</metadata>
<g>
	<g>
		<path class="st0" d="M3276.8,0c800.6,0,1556.9,288.6,2148.8,803.7c546.1-409.6,1498.8,287,814.5,1073.6
			c205.6,434.4,313.4,912.3,313.4,1399.5c0,1809.8-1467,3276.8-3276.8,3276.8S0,5086.6,0,3276.8S1467,0,3276.8,0z M1902.2,2992.1
			c-383.2-383.2-964.3,194.7-579.5,579.5l1349,1349c167.6,168.3,445.3,157.5,599.7-20.2l2847.8-3276.8
			c357.6-411.2-263-948-619.1-539.2l-2560,2945.6L1902.2,2992.1z"/>
	</g>
</g>
<g class="st1">
	<path d="M0.6,6562.7c0.2-0.2,0.5-0.3,0.9-0.3c0.5,0,0.8,0.2,1,0.5c0.1,0.2,0.2,0.3,0.2,0.5H2c0-0.1-0.1-0.2-0.1-0.3
		c-0.1-0.1-0.3-0.2-0.5-0.2c-0.2,0-0.4,0.1-0.5,0.3c-0.1,0.2-0.2,0.4-0.2,0.7c0,0.3,0.1,0.5,0.2,0.7c0.1,0.2,0.3,0.2,0.5,0.2
		c0.2,0,0.4-0.1,0.5-0.2c0.1-0.1,0.1-0.2,0.1-0.3h0.6c0,0.3-0.2,0.6-0.4,0.7c-0.2,0.2-0.5,0.3-0.8,0.3c-0.4,0-0.7-0.1-0.9-0.4
		c-0.2-0.3-0.3-0.6-0.3-1.1C0.2,6563.4,0.3,6563,0.6,6562.7z"/>
	<path d="M4.2,6563.1C4.2,6563.1,4.2,6563.1,4.2,6563.1l0,0.6c0,0-0.1,0-0.1,0c0,0,0,0-0.1,0c-0.2,0-0.4,0.1-0.4,0.2
		c0,0.1-0.1,0.2-0.1,0.4v1H3v-2.1h0.5v0.4c0.1-0.1,0.2-0.2,0.2-0.3C3.9,6563.2,4,6563.1,4.2,6563.1
		C4.2,6563.1,4.2,6563.1,4.2,6563.1z"/>
	<path d="M5.9,6563.2c0.1,0.1,0.3,0.2,0.4,0.3c0.1,0.1,0.1,0.3,0.2,0.4c0,0.1,0,0.2,0,0.4H4.9c0,0.2,0.1,0.4,0.2,0.4
		c0.1,0.1,0.2,0.1,0.3,0.1c0.1,0,0.2,0,0.3-0.1c0,0,0.1-0.1,0.1-0.1h0.6c0,0.1-0.1,0.2-0.2,0.4c-0.2,0.2-0.4,0.3-0.8,0.3
		c-0.3,0-0.5-0.1-0.7-0.3c-0.2-0.2-0.3-0.4-0.3-0.8c0-0.4,0.1-0.6,0.3-0.8c0.2-0.2,0.4-0.3,0.7-0.3
		C5.6,6563.1,5.8,6563.1,5.9,6563.2z M5.1,6563.7c-0.1,0.1-0.1,0.2-0.1,0.3h0.9c0-0.1-0.1-0.3-0.1-0.3c-0.1-0.1-0.2-0.1-0.3-0.1
		C5.3,6563.6,5.2,6563.6,5.1,6563.7z"/>
	<path d="M7.5,6564c0.1,0,0.2,0,0.2,0c0.1,0,0.1-0.1,0.1-0.2c0-0.1,0-0.1-0.1-0.2c-0.1,0-0.1,0-0.3,0c-0.1,0-0.2,0-0.3,0.1
		c0,0-0.1,0.1-0.1,0.2H6.6c0-0.2,0.1-0.3,0.2-0.4c0.1-0.2,0.4-0.3,0.7-0.3c0.2,0,0.4,0,0.6,0.1c0.2,0.1,0.3,0.3,0.3,0.5v0.9
		c0,0.1,0,0.1,0,0.2c0,0.1,0,0.1,0,0.1c0,0,0,0,0.1,0.1v0.1H7.9c0,0,0-0.1,0-0.1c0,0,0-0.1,0-0.1c-0.1,0.1-0.2,0.1-0.3,0.2
		c-0.1,0.1-0.2,0.1-0.4,0.1c-0.2,0-0.3-0.1-0.5-0.2s-0.2-0.3-0.2-0.5c0-0.3,0.1-0.4,0.3-0.6c0.1-0.1,0.3-0.1,0.5-0.1L7.5,6564z
		 M7.9,6564.2c0,0-0.1,0-0.1,0.1c0,0-0.1,0-0.1,0l-0.1,0c-0.1,0-0.2,0-0.2,0.1c-0.1,0-0.1,0.1-0.1,0.2c0,0.1,0,0.2,0.1,0.2
		c0.1,0,0.1,0.1,0.2,0.1c0.1,0,0.2,0,0.3-0.1c0.1-0.1,0.2-0.2,0.2-0.4V6564.2z"/>
	<path d="M8.7,6563.6v-0.4H9v-0.6h0.5v0.6h0.3v0.4H9.5v1.1c0,0.1,0,0.1,0,0.2c0,0,0.1,0,0.2,0c0,0,0,0,0.1,0c0,0,0,0,0.1,0v0.4
		l-0.3,0c-0.3,0-0.4,0-0.5-0.1c-0.1-0.1-0.1-0.2-0.1-0.3v-1.3H8.7z"/>
	<path d="M11.5,6563.2c0.1,0.1,0.3,0.2,0.4,0.3c0.1,0.1,0.1,0.3,0.2,0.4c0,0.1,0,0.2,0,0.4h-1.5c0,0.2,0.1,0.4,0.2,0.4
		c0.1,0.1,0.2,0.1,0.3,0.1c0.1,0,0.2,0,0.3-0.1c0,0,0.1-0.1,0.1-0.1H12c0,0.1-0.1,0.2-0.2,0.4c-0.2,0.2-0.4,0.3-0.8,0.3
		c-0.3,0-0.5-0.1-0.7-0.3c-0.2-0.2-0.3-0.4-0.3-0.8c0-0.4,0.1-0.6,0.3-0.8c0.2-0.2,0.4-0.3,0.7-0.3
		C11.2,6563.1,11.4,6563.1,11.5,6563.2z M10.7,6563.7c-0.1,0.1-0.1,0.2-0.1,0.3h0.9c0-0.1-0.1-0.3-0.1-0.3c-0.1-0.1-0.2-0.1-0.3-0.1
		C10.9,6563.6,10.8,6563.6,10.7,6563.7z"/>
	<path d="M13.4,6563.2c0.1,0.1,0.2,0.1,0.2,0.2v-1h0.5v2.8h-0.5v-0.3c-0.1,0.1-0.2,0.2-0.3,0.3c-0.1,0.1-0.2,0.1-0.4,0.1
		c-0.2,0-0.4-0.1-0.6-0.3c-0.2-0.2-0.2-0.4-0.2-0.8c0-0.4,0.1-0.6,0.2-0.8c0.2-0.2,0.4-0.3,0.7-0.3
		C13.2,6563.1,13.3,6563.2,13.4,6563.2z M13.6,6564.7c0.1-0.1,0.1-0.3,0.1-0.4c0-0.3-0.1-0.4-0.2-0.5c-0.1-0.1-0.2-0.1-0.3-0.1
		c-0.2,0-0.3,0.1-0.3,0.2c-0.1,0.1-0.1,0.3-0.1,0.4c0,0.2,0,0.3,0.1,0.5c0.1,0.1,0.2,0.2,0.3,0.2
		C13.4,6564.8,13.5,6564.8,13.6,6564.7z"/>
	<path d="M17.5,6563.4c0.2,0.2,0.2,0.4,0.2,0.8c0,0.3-0.1,0.6-0.2,0.8s-0.4,0.3-0.6,0.3c-0.2,0-0.3,0-0.4-0.1
		c-0.1,0-0.1-0.1-0.2-0.2v0.3h-0.5v-2.8h0.5v1c0.1-0.1,0.1-0.2,0.2-0.2c0.1-0.1,0.2-0.1,0.4-0.1
		C17.2,6563.1,17.4,6563.2,17.5,6563.4z M17.1,6564.7c0.1-0.1,0.1-0.3,0.1-0.4c0-0.1,0-0.3-0.1-0.4c-0.1-0.2-0.2-0.3-0.4-0.3
		c-0.2,0-0.3,0.1-0.4,0.3c0,0.1-0.1,0.2-0.1,0.4c0,0.2,0,0.3,0.1,0.4s0.2,0.2,0.4,0.2C16.9,6564.8,17,6564.8,17.1,6564.7z"/>
	<path d="M18.2,6565.6L18.2,6565.6c0.1,0,0.2,0,0.2,0c0,0,0.1,0,0.1,0c0,0,0.1-0.1,0.1-0.1c0-0.1,0-0.1,0-0.1l-0.8-2.2h0.6l0.5,1.5
		l0.4-1.5H20l-0.7,2c-0.1,0.4-0.2,0.6-0.3,0.7c-0.1,0.1-0.2,0.1-0.5,0.1c0,0-0.1,0-0.1,0c0,0-0.1,0-0.1,0V6565.6z"/>
	<path d="M22.5,6563.2c0.1,0.1,0.2,0.1,0.2,0.2v-1h0.5v2.8h-0.5v-0.3c-0.1,0.1-0.2,0.2-0.3,0.3c-0.1,0.1-0.2,0.1-0.4,0.1
		c-0.2,0-0.4-0.1-0.6-0.3c-0.2-0.2-0.2-0.4-0.2-0.8c0-0.4,0.1-0.6,0.2-0.8c0.2-0.2,0.4-0.3,0.7-0.3
		C22.3,6563.1,22.4,6563.2,22.5,6563.2z M22.6,6564.7c0.1-0.1,0.1-0.3,0.1-0.4c0-0.3-0.1-0.4-0.2-0.5c-0.1-0.1-0.2-0.1-0.3-0.1
		c-0.2,0-0.3,0.1-0.3,0.2c-0.1,0.1-0.1,0.3-0.1,0.4c0,0.2,0,0.3,0.1,0.5c0.1,0.1,0.2,0.2,0.3,0.2
		C22.4,6564.8,22.5,6564.8,22.6,6564.7z"/>
	<path d="M25.2,6563.2c0.1,0,0.2,0.1,0.3,0.2c0.1,0.1,0.1,0.2,0.1,0.2c0,0.1,0,0.2,0,0.4v1.2h-0.6v-1.3c0-0.1,0-0.2-0.1-0.3
		c0-0.1-0.1-0.1-0.3-0.1c-0.1,0-0.2,0-0.3,0.1s-0.1,0.2-0.1,0.4v1.1h-0.5v-2.8h0.5v1c0.1-0.1,0.2-0.2,0.3-0.3c0.1,0,0.2-0.1,0.3-0.1
		C25,6563.1,25.1,6563.1,25.2,6563.2z"/>
	<path d="M26.7,6563.2v1.2c0,0.1,0,0.2,0,0.3c0,0.1,0.1,0.2,0.3,0.2c0.2,0,0.3-0.1,0.4-0.2c0-0.1,0.1-0.2,0.1-0.3v-1.1H28v2.1h-0.5
		v-0.3c0,0,0,0,0,0.1c0,0,0,0.1-0.1,0.1c-0.1,0.1-0.2,0.1-0.2,0.2c-0.1,0-0.2,0-0.3,0c-0.3,0-0.5-0.1-0.6-0.3
		c-0.1-0.1-0.1-0.3-0.1-0.5v-1.2H26.7z"/>
	<path d="M29,6565.2h-0.5v-2.8H29V6565.2z"/>
</g>
<g class="st1">
	<path d="M1.1,6566.3c0,0,0.1,0,0.1,0v0.4c0,0-0.1,0-0.2,0s-0.1,0-0.1,0c0,0,0,0.1,0,0.1s0,0.1,0,0.2h0.4v0.4H0.9v1.7H0.3v-1.7H0
		v-0.4h0.3v-0.1c0-0.2,0-0.4,0.1-0.5C0.5,6566.4,0.7,6566.3,1.1,6566.3C1,6566.3,1.1,6566.3,1.1,6566.3z"/>
	<path d="M2.7,6567C2.7,6567,2.7,6567,2.7,6567l0,0.6c0,0-0.1,0-0.1,0c0,0,0,0-0.1,0c-0.2,0-0.4,0.1-0.4,0.2c0,0.1-0.1,0.2-0.1,0.4
		v1H1.5v-2.1h0.5v0.4c0.1-0.1,0.2-0.2,0.2-0.3C2.4,6567,2.5,6567,2.7,6567C2.7,6567,2.7,6567,2.7,6567z"/>
	<path d="M4.8,6568.9c-0.2,0.2-0.4,0.3-0.8,0.3c-0.4,0-0.6-0.1-0.8-0.3c-0.2-0.2-0.3-0.5-0.3-0.8c0-0.3,0.1-0.6,0.3-0.8
		c0.2-0.2,0.4-0.3,0.8-0.3c0.4,0,0.6,0.1,0.8,0.3c0.2,0.2,0.3,0.5,0.3,0.8C5,6568.4,4.9,6568.6,4.8,6568.9z M4.3,6568.6
		c0.1-0.1,0.1-0.3,0.1-0.5s0-0.4-0.1-0.5c-0.1-0.1-0.2-0.2-0.4-0.2c-0.2,0-0.3,0.1-0.4,0.2c-0.1,0.1-0.1,0.3-0.1,0.5s0,0.4,0.1,0.5
		c0.1,0.1,0.2,0.2,0.4,0.2C4.1,6568.7,4.3,6568.7,4.3,6568.6z"/>
	<path d="M8,6567.1c0.1,0,0.2,0.1,0.2,0.2c0.1,0.1,0.1,0.2,0.1,0.3c0,0.1,0,0.2,0,0.3l0,1.3H7.8v-1.3c0-0.1,0-0.1,0-0.2
		c0-0.1-0.1-0.1-0.3-0.1c-0.1,0-0.3,0.1-0.3,0.2c0,0.1,0,0.1,0,0.2v1.2H6.6v-1.2c0-0.1,0-0.2,0-0.3c0-0.1-0.1-0.1-0.3-0.1
		c-0.2,0-0.3,0-0.3,0.1c0,0.1,0,0.1,0,0.3v1.2H5.4v-2.1h0.5v0.3c0.1-0.1,0.1-0.2,0.2-0.2c0.1-0.1,0.2-0.1,0.4-0.1
		c0.2,0,0.3,0,0.4,0.1c0.1,0.1,0.1,0.1,0.2,0.2c0.1-0.1,0.2-0.2,0.3-0.3c0.1-0.1,0.2-0.1,0.4-0.1C7.8,6567,7.9,6567,8,6567.1z"/>
	<path d="M9.7,6567.5v-0.4H10v-0.6h0.5v0.6h0.3v0.4h-0.3v1.1c0,0.1,0,0.1,0,0.2c0,0,0.1,0,0.2,0c0,0,0,0,0.1,0c0,0,0,0,0.1,0v0.4
		l-0.3,0c-0.3,0-0.4,0-0.5-0.1c-0.1-0.1-0.1-0.2-0.1-0.3v-1.3H9.7z"/>
	<path d="M12.7,6567.1c0.1,0,0.2,0.1,0.3,0.2c0.1,0.1,0.1,0.2,0.1,0.2c0,0.1,0,0.2,0,0.4v1.2h-0.6v-1.3c0-0.1,0-0.2-0.1-0.3
		c0-0.1-0.1-0.1-0.3-0.1c-0.1,0-0.2,0-0.3,0.1s-0.1,0.2-0.1,0.4v1.1h-0.5v-2.8h0.5v1c0.1-0.1,0.2-0.2,0.3-0.3c0.1,0,0.2-0.1,0.3-0.1
		C12.5,6567,12.6,6567,12.7,6567.1z"/>
	<path d="M15,6567.1c0.1,0.1,0.3,0.2,0.4,0.3c0.1,0.1,0.1,0.3,0.2,0.4c0,0.1,0,0.2,0,0.4H14c0,0.2,0.1,0.4,0.2,0.4
		c0.1,0.1,0.2,0.1,0.3,0.1c0.1,0,0.2,0,0.3-0.1c0,0,0.1-0.1,0.1-0.1h0.6c0,0.1-0.1,0.2-0.2,0.4c-0.2,0.2-0.4,0.3-0.8,0.3
		c-0.3,0-0.5-0.1-0.7-0.3c-0.2-0.2-0.3-0.4-0.3-0.8c0-0.4,0.1-0.6,0.3-0.8c0.2-0.2,0.4-0.3,0.7-0.3C14.6,6567,14.8,6567,15,6567.1z
		 M14.1,6567.6c-0.1,0.1-0.1,0.2-0.1,0.3h0.9c0-0.1-0.1-0.3-0.1-0.3c-0.1-0.1-0.2-0.1-0.3-0.1C14.3,6567.4,14.2,6567.5,14.1,6567.6z
		"/>
	<path d="M16.9,6566.3h0.6l1.1,1.9v-1.9h0.5v2.8h-0.6l-1.1-2v2h-0.5V6566.3z"/>
	<path d="M21.4,6568.9c-0.2,0.2-0.4,0.3-0.8,0.3c-0.4,0-0.6-0.1-0.8-0.3c-0.2-0.2-0.3-0.5-0.3-0.8c0-0.3,0.1-0.6,0.3-0.8
		c0.2-0.2,0.4-0.3,0.8-0.3c0.4,0,0.6,0.1,0.8,0.3c0.2,0.2,0.3,0.5,0.3,0.8C21.6,6568.4,21.5,6568.6,21.4,6568.9z M20.9,6568.6
		c0.1-0.1,0.1-0.3,0.1-0.5s0-0.4-0.1-0.5c-0.1-0.1-0.2-0.2-0.4-0.2c-0.2,0-0.3,0.1-0.4,0.2c-0.1,0.1-0.1,0.3-0.1,0.5s0,0.4,0.1,0.5
		c0.1,0.1,0.2,0.2,0.4,0.2C20.7,6568.7,20.9,6568.7,20.9,6568.6z"/>
	<path d="M22.6,6567.1v1.2c0,0.1,0,0.2,0,0.3c0,0.1,0.1,0.2,0.3,0.2c0.2,0,0.3-0.1,0.4-0.2c0-0.1,0.1-0.2,0.1-0.3v-1.1h0.5v2.1h-0.5
		v-0.3c0,0,0,0,0,0.1c0,0,0,0.1-0.1,0.1c-0.1,0.1-0.2,0.1-0.2,0.2c-0.1,0-0.2,0-0.3,0c-0.3,0-0.5-0.1-0.6-0.3
		c-0.1-0.1-0.1-0.3-0.1-0.5v-1.2H22.6z"/>
	<path d="M26,6567.2c0.1,0.1,0.2,0.3,0.2,0.6v1.4h-0.6v-1.3c0-0.1,0-0.2,0-0.3c-0.1-0.1-0.2-0.2-0.3-0.2c-0.2,0-0.3,0.1-0.4,0.2
		c0,0.1-0.1,0.2-0.1,0.3v1.1h-0.5v-2.1h0.5v0.3c0.1-0.1,0.1-0.2,0.2-0.2c0.1-0.1,0.3-0.1,0.4-0.1C25.7,6567,25.9,6567.1,26,6567.2z"
		/>
	<path d="M29.7,6567.9c-0.2,0.1-0.4,0.2-0.7,0.2h-0.6v1h-0.6v-2.8h1.2c0.3,0,0.5,0.1,0.7,0.2c0.2,0.1,0.2,0.4,0.2,0.7
		C30,6567.5,29.9,6567.8,29.7,6567.9z M29.3,6566.9c-0.1-0.1-0.2-0.1-0.3-0.1h-0.5v0.8H29c0.1,0,0.2,0,0.3-0.1
		c0.1-0.1,0.1-0.2,0.1-0.3S29.4,6567,29.3,6566.9z"/>
	<path d="M31.6,6567C31.6,6567,31.6,6567,31.6,6567l0,0.6c0,0-0.1,0-0.1,0c0,0,0,0-0.1,0c-0.2,0-0.4,0.1-0.4,0.2
		c0,0.1-0.1,0.2-0.1,0.4v1h-0.5v-2.1h0.5v0.4c0.1-0.1,0.2-0.2,0.2-0.3C31.2,6567,31.4,6567,31.6,6567C31.5,6567,31.6,6567,31.6,6567
		z"/>
	<path d="M33.6,6568.9c-0.2,0.2-0.4,0.3-0.8,0.3c-0.4,0-0.6-0.1-0.8-0.3c-0.2-0.2-0.3-0.5-0.3-0.8c0-0.3,0.1-0.6,0.3-0.8
		c0.2-0.2,0.4-0.3,0.8-0.3c0.4,0,0.6,0.1,0.8,0.3c0.2,0.2,0.3,0.5,0.3,0.8C33.9,6568.4,33.8,6568.6,33.6,6568.9z M33.2,6568.6
		c0.1-0.1,0.1-0.3,0.1-0.5s0-0.4-0.1-0.5c-0.1-0.1-0.2-0.2-0.4-0.2c-0.2,0-0.3,0.1-0.4,0.2c-0.1,0.1-0.1,0.3-0.1,0.5s0,0.4,0.1,0.5
		c0.1,0.1,0.2,0.2,0.4,0.2C33,6568.7,33.1,6568.7,33.2,6568.6z"/>
	<path d="M34.1,6569.5C34.1,6569.5,34.1,6569.5,34.1,6569.5C34.1,6569.5,34.1,6569.5,34.1,6569.5c0.2,0,0.2,0,0.2,0c0,0,0-0.1,0-0.2
		v-2.3h0.5v2.3c0,0.2,0,0.4-0.1,0.5s-0.2,0.1-0.5,0.1c0,0,0,0-0.1,0c0,0-0.1,0-0.1,0V6569.5z M34.9,6566.8h-0.5v-0.5h0.5V6566.8z"/>
	<path d="M36.7,6567.1c0.1,0.1,0.3,0.2,0.4,0.3c0.1,0.1,0.1,0.3,0.2,0.4c0,0.1,0,0.2,0,0.4h-1.5c0,0.2,0.1,0.4,0.2,0.4
		c0.1,0.1,0.2,0.1,0.3,0.1c0.1,0,0.2,0,0.3-0.1c0,0,0.1-0.1,0.1-0.1h0.6c0,0.1-0.1,0.2-0.2,0.4c-0.2,0.2-0.4,0.3-0.8,0.3
		c-0.3,0-0.5-0.1-0.7-0.3c-0.2-0.2-0.3-0.4-0.3-0.8c0-0.4,0.1-0.6,0.3-0.8c0.2-0.2,0.4-0.3,0.7-0.3C36.4,6567,36.6,6567,36.7,6567.1
		z M35.9,6567.6c-0.1,0.1-0.1,0.2-0.1,0.3h0.9c0-0.1-0.1-0.3-0.1-0.3c-0.1-0.1-0.2-0.1-0.3-0.1C36.1,6567.4,36,6567.5,35.9,6567.6z"
		/>
	<path d="M38.8,6567.8c0-0.1,0-0.1-0.1-0.2c-0.1-0.1-0.2-0.1-0.3-0.1c-0.2,0-0.3,0.1-0.4,0.3c0,0.1-0.1,0.2-0.1,0.4
		c0,0.2,0,0.3,0.1,0.4c0.1,0.2,0.2,0.3,0.4,0.3c0.1,0,0.2,0,0.3-0.1c0.1-0.1,0.1-0.2,0.1-0.3h0.6c0,0.2-0.1,0.3-0.2,0.5
		c-0.2,0.2-0.4,0.4-0.8,0.4c-0.3,0-0.6-0.1-0.7-0.3c-0.2-0.2-0.2-0.5-0.2-0.8c0-0.4,0.1-0.6,0.3-0.8c0.2-0.2,0.4-0.3,0.7-0.3
		c0.3,0,0.5,0.1,0.6,0.2c0.2,0.1,0.3,0.3,0.3,0.6H38.8z"/>
	<path d="M39.5,6567.5v-0.4h0.3v-0.6h0.5v0.6h0.3v0.4h-0.3v1.1c0,0.1,0,0.1,0,0.2c0,0,0.1,0,0.2,0c0,0,0,0,0.1,0c0,0,0,0,0.1,0v0.4
		l-0.3,0c-0.3,0-0.4,0-0.5-0.1c-0.1-0.1-0.1-0.2-0.1-0.3v-1.3H39.5z"/>
</g>
</svg>
