<?xml version="1.0" encoding="utf-8"?>
<!-- Generator: Adobe Illustrator 23.0.1, SVG Export Plug-In . SVG Version: 6.00 Build 0)  -->
<svg version="1.1" id="Layer_1" xmlns="http://www.w3.org/2000/svg" xmlns:xlink="http://www.w3.org/1999/xlink" x="0px" y="0px"
	 viewBox="0 0 108.7 80.7" style="enable-background:new 0 0 108.7 80.7;" xml:space="preserve">
<style type="text/css">
	.st0{fill:none;stroke:#EC1C24;stroke-miterlimit:10;}
	.st1{fill:#FFFFFF;}
</style>
<rect x="0.4" y="0.4" class="st0" width="107.9" height="79.8"/>
<g>
	<g>
		<g id="XMLID_9_">
			<g>
				<path d="M82.4,39.9c-0.1,15.4-12.6,27.9-27.9,27.7C46.8,67.5,40,64.4,35,59.5c-5.1-5.1-8.3-12.2-8.2-19.9
					c0.1-15.4,12.6-27.8,27.9-27.7C70.1,11.9,82.5,24.5,82.4,39.9z"/>
			</g>
		</g>
		<g>
			<g>
				<path class="st1" d="M45.8,45.9l-4.1,6.8c0,0,1.8,2.3,6.3,4.1l2.3-6.3l1.6-4.3l1.6-4.7l0.6-1.5l0.1-0.2c0,0,0-0.1,0.1-0.1v-0.1
					l0,0c0,0,0,0,0.1,0l0,0l0,0l0.1,0.2l0.2,0.4l0.3,0.9l1.1,3.3l0.9,3l1.5,4.5l1.2,3.2l0.6,1.8c0,0,3.7-1,6.8-4.2l-2.2-3.3L63.4,47
					l-1.5-2.9l-1.3-2.6l-1-2.3l-0.8-2.3l-0.8-2.3L57.3,32l-0.8-2.7l-0.7-2.8l-0.8-3l-0.4-1.5l-0.9,2.8l-1.2,3.9l-1,3l-1.2,3.3
					l-0.9,2.8l-1.1,2.7l-1.2,2.5L45.8,45.9z"/>
			</g>
		</g>
	</g>
</g>
<line class="st0" x1="0.6" y1="0.2" x2="108.2" y2="79.8"/>
</svg>
