<?xml version="1.0" encoding="utf-8"?>
<!-- Generator: Adobe Illustrator 23.0.1, SVG Export Plug-In . SVG Version: 6.00 Build 0)  -->
<svg version="1.1" id="Layer_1" xmlns="http://www.w3.org/2000/svg" xmlns:xlink="http://www.w3.org/1999/xlink" x="0px" y="0px"
	 viewBox="0 0 90.6 91" style="enable-background:new 0 0 90.6 91;" xml:space="preserve">
<style type="text/css">
	.st0{fill:#010101;}
	.st1{fill:#FFFFFF;}
</style>
<g>
	<g>
		<g>
			<g id="XMLID_26_">
				<path class="st0" d="M90.6,45.8C90.4,70.9,70,91.1,45,91c-12.4-0.1-23.5-5.1-31.6-13.2C5,69.4-0.1,57.9,0,45.2
					C0.2,20.1,20.6-0.2,45.6,0S90.7,20.6,90.6,45.8z"/>
			</g>
			<g>
				<path class="st1" d="M23.6,60.9L13.6,78c0,0,4.1,5.6,15.7,10.1l5.8-15.7L39,61.9l4-11.6c0,0,1.4-3.8,1.4-3.8l0.2-0.4
					c0,0,0.1-0.1,0.1-0.2l0.1-0.1l0,0c0,0,0.1,0,0.1,0l0.1,0l0.1,0.1l0.2,0.3l0.4,1.1l0.8,2.2l2.7,8.3l2.4,7.4l3.7,11.3l2.9,7.9
					l1.5,4.4c0,0,9.2-2.5,17-10.3L71,69.9l-3.7-6.3l-3.7-7.3l-3.1-6.4l-2.4-5.8l-2-5.8l-1.9-5.6l-2-6.4l-2-6.7l-1.8-6.6l-2-7.4
					L45.3,2l-2.2,7l-3,9.8l-2.4,7.5l-2.8,8.3l-2.4,6.8L29.9,48L27,54.3L23.6,60.9z"/>
			</g>
		</g>
	</g>
</g>
</svg>
