<?xml version="1.0" encoding="utf-8"?>
<!-- Generator: Adobe Illustrator 23.0.1, SVG Export Plug-In . SVG Version: 6.00 Build 0)  -->
<svg version="1.1" id="Layer_1" xmlns="http://www.w3.org/2000/svg" xmlns:xlink="http://www.w3.org/1999/xlink" x="0px" y="0px"
	 viewBox="0 0 108.7 80.7" style="enable-background:new 0 0 108.7 80.7;" xml:space="preserve">
<style type="text/css">
	.st0{fill:#D7EFF9;}
	.st1{fill:#FFFFFF;}
	.st2{fill:none;stroke:#EC1C24;stroke-miterlimit:10;}
</style>
<rect x="-12.8" y="-9.3" class="st0" width="134.3" height="98.6"/>
<g>
	<g>
		<g>
			<path class="st1" d="M60.7,58.6l-2.2-6.8l-1.4-4.4l-1.7-5L54.9,41l-0.2-0.7l-0.1-0.2l-0.1,0l-0.1,0c0,0-0.1,0-0.1,0l0,0l-0.1,0.1
				c0,0-0.1,0.1-0.1,0.1l-0.1,0.2c0,0-0.8,2.3-0.8,2.3l-2.4,7l-2.3,6.4l-3.5,9.5c2.9,1.1,6.1,1.7,9.5,1.8c3.1,0,6.1-0.5,8.8-1.4
				l-0.9-2.6L60.7,58.6z"/>
			<path class="st1" d="M82.1,40.2C82.2,25,70,12.6,54.9,12.5c-15.1-0.1-27.4,12.1-27.5,27.3c0,7.7,3,14.6,8.1,19.7
				c0,0,0.1,0.1,0.1,0.1l6.1-10.3l2-4l1.7-3.8l1.6-4l1.4-4.1l1.7-5l1.4-4.5l1.8-5.9l1.3-4.2l0.7,2.2l1.2,4.5l1.1,4l1.2,4.1l1.2,3.8
				l1.1,3.4l1.2,3.5l1.5,3.5l1.9,3.8L68,51l2.2,3.8l3.4,5.1C78.8,54.9,82,47.9,82.1,40.2z"/>
		</g>
	</g>
</g>
<g>
	<defs>
		<rect id="SVGID_1_" x="0.6" width="107.6" height="80.2"/>
	</defs>
	<clipPath id="SVGID_2_">
		<use xlink:href="#SVGID_1_"  style="overflow:visible;"/>
	</clipPath>
</g>
<rect x="0.4" y="0.4" class="st2" width="107.9" height="79.8"/>
<line class="st2" x1="0.6" y1="0.2" x2="108.2" y2="79.8"/>
</svg>
