<?xml version="1.0" encoding="utf-8"?>
<!-- Generator: Adobe Illustrator 23.0.1, SVG Export Plug-In . SVG Version: 6.00 Build 0)  -->
<svg version="1.1" id="Layer_1" xmlns="http://www.w3.org/2000/svg" xmlns:xlink="http://www.w3.org/1999/xlink" x="0px" y="0px"
	 viewBox="0 0 108.7 80.7" style="enable-background:new 0 0 108.7 80.7;" xml:space="preserve">
<style type="text/css">
	.st0{fill:#FFFFFF;}
	.st1{fill:none;stroke:#EC1C24;stroke-miterlimit:10;}
</style>
<g>
	<defs>
		<rect id="SVGID_1_" x="0.6" width="107.6" height="80.2"/>
	</defs>
	<clipPath id="SVGID_2_">
		<use xlink:href="#SVGID_1_"  style="overflow:visible;"/>
	</clipPath>
</g>
<g>
	<g>
		<g>
			<g id="XMLID_3_">
				<g>
					<path d="M100,40.2c0.2,14.6-19.3,26.6-43.6,26.7c-12,0.1-22.9-2.8-30.8-7.4c-8.2-4.8-13.3-11.4-13.4-18.8
						C12,25.9,31.5,14,55.8,13.9C80,13.8,99.8,25.5,100,40.2z"/>
				</g>
			</g>
			<g>
				<g>
					<path class="st0" d="M35.3,49.5l-9.5,10c0,0,4.4,3.3,15.4,5.7l5.4-9.2l3.6-6.2l3.7-6.8c0,0,1.3-2.2,1.3-2.2l0.2-0.2
						c0,0,0.1-0.1,0.1-0.1l0.1-0.1l0,0c0,0,0.1,0,0.1,0l0.1,0l0.1,0l0.2,0.2l0.4,0.6l0.8,1.3l2.8,4.8l2.4,4.3l3.7,6.5l2.9,4.6
						l1.5,2.5c0,0,8.8-1.6,16.3-6.1l-5.5-4.8l-3.6-3.6L74,46.6L71,42.9l-2.4-3.4l-2.1-3.3l-1.9-3.3l-2.1-3.7l-2-3.9l-1.8-3.9l-2-4.3
						l-1.1-2.1l-2,4.1l-2.8,5.7l-2.2,4.4l-2.6,4.9l-2.2,4L41.2,42l-2.7,3.7L35.3,49.5z"/>
				</g>
			</g>
		</g>
	</g>
</g>
<rect x="0.4" y="0.4" class="st1" width="107.9" height="79.8"/>
<line class="st1" x1="0.6" y1="0.2" x2="108.2" y2="79.8"/>
</svg>
