<?xml version="1.0" encoding="utf-8"?>
<!-- Generator: Adobe Illustrator 23.0.1, SVG Export Plug-In . SVG Version: 6.00 Build 0)  -->
<svg version="1.1" id="Layer_1" xmlns="http://www.w3.org/2000/svg" xmlns:xlink="http://www.w3.org/1999/xlink" x="0px" y="0px"
	 viewBox="0 0 248.9 195.5" style="enable-background:new 0 0 248.9 195.5;" xml:space="preserve">
<style type="text/css">
	.st0{fill:#EC1C24;}
	.st1{fill:#231F20;}
	.st2{fill:#FFFFFF;}
	.st3{fill:#333333;}
</style>
<g>
	<g>
		<g>
			<g>
				<rect x="120.9" y="43.5" class="st0" width="4.5" height="1.3"/>
			</g>
			<g>
				<path class="st0" d="M112.1,44.9h-8.8v-1.3h8.8V44.9z M94.2,44.9h-8.8v-1.3h8.8V44.9z M76.3,44.9h-8.8v-1.3h8.8V44.9z
					 M58.7,44.9h-8.8v-1.3h8.8V44.9z M40.8,44.9H32v-1.3h8.8V44.9z M23.2,44.9h-9.1v-1.3h8.8v1.3H23.2z"/>
			</g>
			<g>
				<rect x="0.7" y="43.5" class="st0" width="4.3" height="1.3"/>
			</g>
		</g>
		<g>
			<g>
				<rect x="124.9" y="37.1" class="st1" width="1.1" height="14.4"/>
			</g>
			<g>
				<g>
					<rect x="123.9" y="44.3" class="st0" width="2.7" height="8.8"/>
				</g>
				<g>
					<rect x="123.9" y="35.5" class="st0" width="2.7" height="8.8"/>
				</g>
			</g>
		</g>
		<g>
			<g>
				<rect x="1" y="37.1" class="st1" width="1.1" height="14.4"/>
			</g>
			<g>
				<g>
					<rect x="0.2" y="44.3" class="st0" width="2.7" height="8.8"/>
				</g>
				<g>
					<rect x="0.2" y="35.5" class="st0" width="2.7" height="8.8"/>
				</g>
			</g>
		</g>
	</g>
	<g>
		<g>
			<g>
				<rect x="158.3" y="70" class="st0" width="2.4" height="5.3"/>
			</g>
			<g>
				<path class="st0" d="M160.7,178.9h-2.4v-10.4h2.4V178.9z M160.7,158.1h-2.4v-10.4h2.4V158.1z M160.7,137.5h-2.4v-10.4h2.4V137.5
					z M160.7,116.7h-2.4v-10.4h2.4V116.7z M160.7,96.2h-2.4V85.7h2.4V96.2z"/>
			</g>
			<g>
				<rect x="158.3" y="189.4" class="st0" width="2.4" height="5.3"/>
			</g>
		</g>
		<g>
			<g>
				<rect x="153.5" y="69.4" class="st1" width="12" height="1.1"/>
			</g>
			<g>
				<g>
					<rect x="159.7" y="68.4" class="st0" width="7.2" height="3.2"/>
				</g>
				<g>
					<rect x="152.4" y="68.4" class="st0" width="7.2" height="3.2"/>
				</g>
			</g>
		</g>
		<g>
			<g>
				<rect x="153.5" y="193.4" class="st1" width="12" height="1.1"/>
			</g>
			<g>
				<g>
					<rect x="159.7" y="192.3" class="st0" width="7.2" height="3.2"/>
				</g>
				<g>
					<rect x="152.4" y="192.3" class="st0" width="7.2" height="3.2"/>
				</g>
			</g>
		</g>
	</g>
	<g>
		<path id="XMLID_2_" d="M126.8,132.5c-0.3,35-28.8,63.3-63.6,63c-17.4,0-32.9-7.2-44.1-18.4C7.4,165.6,0.5,149.3,0.5,131.7
			c0-35.3,28.6-63.6,63.3-63.3C98.8,68.6,127.1,97.2,126.8,132.5z"/>
		<path class="st2" d="M33.3,153.6l-14.2,23.8c0,0,5.6,7.7,21.9,14.2l8-21.9l5.3-14.7l5.6-16.3l1.9-5.3l0.3-0.5c0,0,0-0.3,0.3-0.3
			l0.3-0.3l0,0c0,0,0,0,0.3,0h0.3l0,0l0.3,0.5l0.5,1.6l1.1,3.2l3.7,11.8l3.2,10.1l5.1,15.8l4,11.2l2.1,6.1c0,0,12.8-3.5,23.8-14.4
			l-7.7-11.8l-5.1-8.8l-5.1-10.1l-4.3-8.8l-3.5-8l-2.9-8l-2.7-7.7l-2.9-8.8l-2.7-9.3l-2.4-9.3l-2.7-10.4l-1.6-5.1l-2.9,9.9
			l-4.3,13.6l-3.2,9.9l-4,11.8l-3.2,9.6l-3.7,9.1l-4.3,8.5L33.3,153.6z"/>
	</g>
</g>
<g>
	<path class="st3" d="M41.9,18.9v1.9H31v-1.9h4.4V5c0-0.4,0-0.8,0-1.3l-3.6,3.1c-0.1,0.1-0.2,0.2-0.4,0.2c-0.1,0-0.2,0-0.3,0
		C31,7.1,30.9,7,30.8,7c-0.1-0.1-0.2-0.1-0.2-0.2l-0.8-1.1l6.1-5.2h2.1v18.5H41.9z"/>
	<path class="st3" d="M50.7,8.1c-0.2,0.2-0.4,0.4-0.5,0.7C50,9,49.8,9.2,49.7,9.4c0.5-0.3,1-0.6,1.6-0.8s1.2-0.3,1.9-0.3
		c0.8,0,1.6,0.1,2.3,0.4c0.7,0.3,1.4,0.7,1.9,1.2c0.5,0.5,1,1.2,1.3,1.9c0.3,0.8,0.5,1.6,0.5,2.6c0,0.9-0.2,1.8-0.5,2.6
		c-0.3,0.8-0.8,1.5-1.4,2.1c-0.6,0.6-1.3,1.1-2.2,1.4c-0.9,0.3-1.8,0.5-2.8,0.5c-1,0-2-0.2-2.8-0.5c-0.8-0.3-1.5-0.8-2.1-1.4
		s-1-1.3-1.4-2.2c-0.3-0.9-0.5-1.8-0.5-2.9c0-0.9,0.2-1.8,0.6-2.9c0.4-1,1-2.1,1.9-3.2l5.2-7c0.1-0.2,0.3-0.3,0.5-0.4
		s0.5-0.2,0.8-0.2h2.2L50.7,8.1z M52.2,19c0.7,0,1.3-0.1,1.9-0.3c0.6-0.2,1-0.5,1.4-0.9c0.4-0.4,0.7-0.8,0.9-1.4
		c0.2-0.5,0.3-1.1,0.3-1.7c0-0.7-0.1-1.3-0.3-1.8c-0.2-0.5-0.5-1-0.9-1.4c-0.4-0.4-0.8-0.7-1.4-0.9c-0.5-0.2-1.1-0.3-1.7-0.3
		c-0.7,0-1.3,0.1-1.8,0.3c-0.5,0.2-1,0.5-1.4,0.9c-0.4,0.4-0.7,0.8-0.9,1.4c-0.2,0.5-0.3,1.1-0.3,1.6c0,0.7,0.1,1.3,0.3,1.8
		c0.2,0.5,0.5,1,0.8,1.4c0.4,0.4,0.8,0.7,1.3,0.9S51.5,19,52.2,19z"/>
	<path class="st3" d="M72.1,8.7c0.6-0.7,1.3-1.4,2.1-1.8s1.7-0.7,2.7-0.7c0.8,0,1.6,0.2,2.3,0.5C79.9,7,80.5,7.5,81,8.1
		c0.5,0.6,0.8,1.4,1.1,2.3c0.3,0.9,0.4,2,0.4,3.2c0,1.1-0.1,2.1-0.4,3c-0.3,0.9-0.7,1.7-1.2,2.4c-0.5,0.7-1.2,1.2-2,1.6
		c-0.8,0.4-1.6,0.6-2.6,0.6c-0.9,0-1.6-0.1-2.3-0.4c-0.6-0.3-1.2-0.7-1.7-1.2v6.4h-2.5V6.5h1.5c0.4,0,0.6,0.2,0.7,0.5L72.1,8.7z
		 M72.3,17.4c0.5,0.6,1,1.1,1.5,1.3s1.2,0.4,1.8,0.4c1.3,0,2.4-0.5,3.1-1.4s1.1-2.3,1.1-4.1c0-0.9-0.1-1.7-0.2-2.4
		c-0.2-0.7-0.4-1.2-0.7-1.7c-0.3-0.4-0.7-0.7-1.2-0.9s-1-0.3-1.5-0.3c-0.8,0-1.5,0.2-2.2,0.6c-0.6,0.4-1.2,0.9-1.7,1.6V17.4z"/>
	<path class="st3" d="M96.9,20.9h-2.4c-0.2,0-0.4-0.1-0.5-0.2c-0.1-0.1-0.2-0.2-0.3-0.4l-3.6-5.6c0,0.1-0.1,0.3-0.1,0.4
		c0,0.1-0.1,0.2-0.2,0.3l-3.4,4.9c-0.1,0.1-0.2,0.3-0.3,0.4c-0.1,0.1-0.3,0.2-0.4,0.2h-2.3l5-7.4l-4.8-7H86c0.2,0,0.4,0,0.5,0.1
		c0.1,0.1,0.2,0.2,0.3,0.3l3.5,5.4c0.1-0.3,0.2-0.5,0.4-0.8l3.1-4.6c0.1-0.1,0.2-0.2,0.3-0.3s0.2-0.1,0.4-0.1h2.3l-4.8,6.9
		L96.9,20.9z"/>
</g>
<g>
	<path class="st3" d="M194.5,133.5v1.9h-10.9v-1.9h4.4v-13.9c0-0.4,0-0.8,0-1.3l-3.6,3.1c-0.1,0.1-0.2,0.2-0.4,0.2
		c-0.1,0-0.2,0-0.3,0c-0.1,0-0.2-0.1-0.3-0.1c-0.1-0.1-0.2-0.1-0.2-0.2l-0.8-1.1l6.1-5.2h2.1v18.5H194.5z"/>
	<path class="st3" d="M203.3,122.7c-0.2,0.2-0.4,0.4-0.5,0.7c-0.2,0.2-0.3,0.4-0.5,0.6c0.5-0.3,1-0.6,1.6-0.8s1.2-0.3,1.9-0.3
		c0.8,0,1.6,0.1,2.3,0.4c0.7,0.3,1.4,0.7,1.9,1.2c0.5,0.5,1,1.2,1.3,1.9c0.3,0.8,0.5,1.6,0.5,2.6c0,0.9-0.2,1.8-0.5,2.6
		c-0.3,0.8-0.8,1.5-1.4,2.1c-0.6,0.6-1.3,1.1-2.2,1.4c-0.9,0.3-1.8,0.5-2.8,0.5c-1,0-2-0.2-2.8-0.5c-0.8-0.3-1.5-0.8-2.1-1.4
		s-1-1.3-1.4-2.2c-0.3-0.9-0.5-1.8-0.5-2.9c0-0.9,0.2-1.8,0.6-2.9c0.4-1,1-2.1,1.9-3.2l5.2-7c0.1-0.2,0.3-0.3,0.5-0.4
		s0.5-0.2,0.8-0.2h2.2L203.3,122.7z M204.7,133.6c0.7,0,1.3-0.1,1.9-0.3c0.6-0.2,1-0.5,1.4-0.9c0.4-0.4,0.7-0.8,0.9-1.4
		c0.2-0.5,0.3-1.1,0.3-1.7c0-0.7-0.1-1.3-0.3-1.8c-0.2-0.5-0.5-1-0.9-1.4c-0.4-0.4-0.8-0.7-1.4-0.9c-0.5-0.2-1.1-0.3-1.7-0.3
		c-0.7,0-1.3,0.1-1.8,0.3c-0.5,0.2-1,0.5-1.4,0.9c-0.4,0.4-0.7,0.8-0.9,1.4c-0.2,0.5-0.3,1.1-0.3,1.6c0,0.7,0.1,1.3,0.3,1.8
		c0.2,0.5,0.5,1,0.8,1.4c0.4,0.4,0.8,0.7,1.3,0.9S204.1,133.6,204.7,133.6z"/>
	<path class="st3" d="M224.7,123.3c0.6-0.7,1.3-1.4,2.1-1.8s1.7-0.7,2.7-0.7c0.8,0,1.6,0.2,2.3,0.5c0.7,0.3,1.2,0.8,1.7,1.4
		c0.5,0.6,0.8,1.4,1.1,2.3c0.3,0.9,0.4,2,0.4,3.2c0,1.1-0.1,2.1-0.4,3c-0.3,0.9-0.7,1.7-1.2,2.4c-0.5,0.7-1.2,1.2-2,1.6
		c-0.8,0.4-1.6,0.6-2.6,0.6c-0.9,0-1.6-0.1-2.3-0.4c-0.6-0.3-1.2-0.7-1.7-1.2v6.4h-2.5v-19.3h1.5c0.4,0,0.6,0.2,0.7,0.5L224.7,123.3
		z M224.9,132c0.5,0.6,1,1.1,1.5,1.3s1.2,0.4,1.8,0.4c1.3,0,2.4-0.5,3.1-1.4s1.1-2.3,1.1-4.1c0-0.9-0.1-1.7-0.2-2.4
		c-0.2-0.7-0.4-1.2-0.7-1.7c-0.3-0.4-0.7-0.7-1.2-0.9s-1-0.3-1.5-0.3c-0.8,0-1.5,0.2-2.2,0.6c-0.6,0.4-1.2,0.9-1.7,1.6V132z"/>
	<path class="st3" d="M249.5,135.5h-2.4c-0.2,0-0.4-0.1-0.5-0.2c-0.1-0.1-0.2-0.2-0.3-0.4l-3.6-5.6c0,0.1-0.1,0.3-0.1,0.4
		c0,0.1-0.1,0.2-0.2,0.3L239,135c-0.1,0.1-0.2,0.3-0.3,0.4c-0.1,0.1-0.3,0.2-0.4,0.2H236l5-7.4l-4.8-7h2.4c0.2,0,0.4,0,0.5,0.1
		c0.1,0.1,0.2,0.2,0.3,0.3l3.5,5.4c0.1-0.3,0.2-0.5,0.4-0.8l3.1-4.6c0.1-0.1,0.2-0.2,0.3-0.3s0.2-0.1,0.4-0.1h2.3l-4.8,6.9
		L249.5,135.5z"/>
</g>
</svg>
