<?xml version="1.0" encoding="utf-8"?>
<!-- Generator: Adobe Illustrator 23.0.1, SVG Export Plug-In . SVG Version: 6.00 Build 0)  -->
<svg version="1.1" id="Layer_1" xmlns="http://www.w3.org/2000/svg" xmlns:xlink="http://www.w3.org/1999/xlink" x="0px" y="0px"
	 viewBox="0 0 281.8 181.9" style="enable-background:new 0 0 281.8 181.9;" xml:space="preserve">
<style type="text/css">
	.st0{fill:#FFFFFF;}
	.st1{fill:#ED1C24;}
	.st2{fill:#010101;}
</style>
<g>
	<g>
		<rect x="0.3" y="0.3" class="st0" width="180.9" height="181.3"/>
	</g>
	<g>
		<g>
			<polygon class="st1" points="181.5,181.9 180.1,181.9 180.1,181.3 180.9,181.3 180.9,180.5 181.5,180.5 			"/>
		</g>
		<g>
			<path class="st1" d="M177.8,181.9h-2.3v-0.6h2.3V181.9z M173.3,181.9H171v-0.6h2.3V181.9z M168.8,181.9h-2.3v-0.6h2.3V181.9z
				 M164.2,181.9H162v-0.6h2.3V181.9z M159.7,181.9h-2.3v-0.6h2.3V181.9z M155.2,181.9h-2.3v-0.6h2.3V181.9z M150.7,181.9h-2.3v-0.6
				h2.3V181.9z M146.2,181.9h-2.3v-0.6h2.3V181.9z M141.6,181.9h-2.3v-0.6h2.3V181.9z M137.1,181.9h-2.3v-0.6h2.3V181.9z
				 M132.6,181.9h-2.3v-0.6h2.3V181.9z M128.1,181.9h-2.3v-0.6h2.3V181.9z M123.5,181.9h-2.3v-0.6h2.3V181.9z M119,181.9h-2.3v-0.6
				h2.3V181.9z M114.5,181.9h-2.3v-0.6h2.3V181.9z M110,181.9h-2.3v-0.6h2.3V181.9z M105.4,181.9h-2.3v-0.6h2.3V181.9z M100.9,181.9
				h-2.3v-0.6h2.3V181.9z M96.4,181.9h-2.3v-0.6h2.3V181.9z M91.9,181.9h-2.3v-0.6h2.3V181.9z M87.3,181.9h-2.3v-0.6h2.3V181.9z
				 M82.8,181.9h-2.3v-0.6h2.3V181.9z M78.3,181.9H76v-0.6h2.3V181.9z M73.8,181.9h-2.3v-0.6h2.3V181.9z M69.3,181.9H67v-0.6h2.3
				V181.9z M64.7,181.9h-2.3v-0.6h2.3V181.9z M60.2,181.9h-2.3v-0.6h2.3V181.9z M55.7,181.9h-2.3v-0.6h2.3V181.9z M51.2,181.9h-2.3
				v-0.6h2.3V181.9z M46.6,181.9h-2.3v-0.6h2.3V181.9z M42.1,181.9h-2.3v-0.6h2.3V181.9z M37.6,181.9h-2.3v-0.6h2.3V181.9z
				 M33.1,181.9h-2.3v-0.6h2.3V181.9z M28.5,181.9h-2.3v-0.6h2.3V181.9z M24,181.9h-2.3v-0.6H24V181.9z M19.5,181.9h-2.3v-0.6h2.3
				V181.9z M15,181.9h-2.3v-0.6H15V181.9z M10.4,181.9H8.2v-0.6h2.3V181.9z M5.9,181.9H3.7v-0.6h2.3V181.9z"/>
		</g>
		<g>
			<polygon class="st1" points="1.4,181.9 0,181.9 0,180.5 0.6,180.5 0.6,181.3 1.4,181.3 			"/>
		</g>
		<g>
			<path class="st1" d="M0.6,178.2H0V176h0.6V178.2z M0.6,173.7H0v-2.3h0.6V173.7z M0.6,169.2H0v-2.3h0.6V169.2z M0.6,164.6H0v-2.3
				h0.6V164.6z M0.6,160.1H0v-2.3h0.6V160.1z M0.6,155.6H0v-2.3h0.6V155.6z M0.6,151H0v-2.3h0.6V151z M0.6,146.5H0v-2.3h0.6V146.5z
				 M0.6,142H0v-2.3h0.6V142z M0.6,137.4H0v-2.3h0.6V137.4z M0.6,132.9H0v-2.3h0.6V132.9z M0.6,128.4H0v-2.3h0.6V128.4z M0.6,123.8
				H0v-2.3h0.6V123.8z M0.6,119.3H0V117h0.6V119.3z M0.6,114.8H0v-2.3h0.6V114.8z M0.6,110.2H0V108h0.6V110.2z M0.6,105.7H0v-2.3
				h0.6V105.7z M0.6,101.2H0v-2.3h0.6V101.2z M0.6,96.6H0v-2.3h0.6V96.6z M0.6,92.1H0v-2.3h0.6V92.1z M0.6,87.6H0v-2.3h0.6V87.6z
				 M0.6,83H0v-2.3h0.6V83z M0.6,78.5H0v-2.3h0.6V78.5z M0.6,74H0v-2.3h0.6V74z M0.6,69.4H0v-2.3h0.6V69.4z M0.6,64.9H0v-2.3h0.6
				V64.9z M0.6,60.4H0v-2.3h0.6V60.4z M0.6,55.8H0v-2.3h0.6V55.8z M0.6,51.3H0V49h0.6V51.3z M0.6,46.8H0v-2.3h0.6V46.8z M0.6,42.2H0
				V40h0.6V42.2z M0.6,37.7H0v-2.3h0.6V37.7z M0.6,33.2H0v-2.3h0.6V33.2z M0.6,28.6H0v-2.3h0.6V28.6z M0.6,24.1H0v-2.3h0.6V24.1z
				 M0.6,19.6H0v-2.3h0.6V19.6z M0.6,15H0v-2.3h0.6V15z M0.6,10.5H0V8.2h0.6V10.5z M0.6,6H0V3.7h0.6V6z"/>
		</g>
		<g>
			<polygon class="st1" points="0.6,1.4 0,1.4 0,0 1.4,0 1.4,0.6 0.6,0.6 			"/>
		</g>
		<g>
			<path class="st1" d="M177.8,0.6h-2.3V0h2.3V0.6z M173.3,0.6H171V0h2.3V0.6z M168.8,0.6h-2.3V0h2.3V0.6z M164.2,0.6H162V0h2.3V0.6
				z M159.7,0.6h-2.3V0h2.3V0.6z M155.2,0.6h-2.3V0h2.3V0.6z M150.7,0.6h-2.3V0h2.3V0.6z M146.2,0.6h-2.3V0h2.3V0.6z M141.6,0.6
				h-2.3V0h2.3V0.6z M137.1,0.6h-2.3V0h2.3V0.6z M132.6,0.6h-2.3V0h2.3V0.6z M128.1,0.6h-2.3V0h2.3V0.6z M123.5,0.6h-2.3V0h2.3V0.6z
				 M119,0.6h-2.3V0h2.3V0.6z M114.5,0.6h-2.3V0h2.3V0.6z M110,0.6h-2.3V0h2.3V0.6z M105.4,0.6h-2.3V0h2.3V0.6z M100.9,0.6h-2.3V0
				h2.3V0.6z M96.4,0.6h-2.3V0h2.3V0.6z M91.9,0.6h-2.3V0h2.3V0.6z M87.3,0.6h-2.3V0h2.3V0.6z M82.8,0.6h-2.3V0h2.3V0.6z M78.3,0.6
				H76V0h2.3V0.6z M73.8,0.6h-2.3V0h2.3V0.6z M69.3,0.6H67V0h2.3V0.6z M64.7,0.6h-2.3V0h2.3V0.6z M60.2,0.6h-2.3V0h2.3V0.6z
				 M55.7,0.6h-2.3V0h2.3V0.6z M51.2,0.6h-2.3V0h2.3V0.6z M46.6,0.6h-2.3V0h2.3V0.6z M42.1,0.6h-2.3V0h2.3V0.6z M37.6,0.6h-2.3V0
				h2.3V0.6z M33.1,0.6h-2.3V0h2.3V0.6z M28.5,0.6h-2.3V0h2.3V0.6z M24,0.6h-2.3V0H24V0.6z M19.5,0.6h-2.3V0h2.3V0.6z M15,0.6h-2.3
				V0H15V0.6z M10.4,0.6H8.2V0h2.3V0.6z M5.9,0.6H3.7V0h2.3V0.6z"/>
		</g>
		<g>
			<polygon class="st1" points="181.5,1.4 180.9,1.4 180.9,0.6 180.1,0.6 180.1,0 181.5,0 			"/>
		</g>
		<g>
			<path class="st1" d="M181.5,178.2h-0.6V176h0.6V178.2z M181.5,173.7h-0.6v-2.3h0.6V173.7z M181.5,169.2h-0.6v-2.3h0.6V169.2z
				 M181.5,164.6h-0.6v-2.3h0.6V164.6z M181.5,160.1h-0.6v-2.3h0.6V160.1z M181.5,155.6h-0.6v-2.3h0.6V155.6z M181.5,151h-0.6v-2.3
				h0.6V151z M181.5,146.5h-0.6v-2.3h0.6V146.5z M181.5,142h-0.6v-2.3h0.6V142z M181.5,137.4h-0.6v-2.3h0.6V137.4z M181.5,132.9
				h-0.6v-2.3h0.6V132.9z M181.5,128.4h-0.6v-2.3h0.6V128.4z M181.5,123.8h-0.6v-2.3h0.6V123.8z M181.5,119.3h-0.6V117h0.6V119.3z
				 M181.5,114.8h-0.6v-2.3h0.6V114.8z M181.5,110.2h-0.6V108h0.6V110.2z M181.5,105.7h-0.6v-2.3h0.6V105.7z M181.5,101.2h-0.6v-2.3
				h0.6V101.2z M181.5,96.6h-0.6v-2.3h0.6V96.6z M181.5,92.1h-0.6v-2.3h0.6V92.1z M181.5,87.6h-0.6v-2.3h0.6V87.6z M181.5,83h-0.6
				v-2.3h0.6V83z M181.5,78.5h-0.6v-2.3h0.6V78.5z M181.5,74h-0.6v-2.3h0.6V74z M181.5,69.4h-0.6v-2.3h0.6V69.4z M181.5,64.9h-0.6
				v-2.3h0.6V64.9z M181.5,60.4h-0.6v-2.3h0.6V60.4z M181.5,55.8h-0.6v-2.3h0.6V55.8z M181.5,51.3h-0.6V49h0.6V51.3z M181.5,46.8
				h-0.6v-2.3h0.6V46.8z M181.5,42.2h-0.6V40h0.6V42.2z M181.5,37.7h-0.6v-2.3h0.6V37.7z M181.5,33.2h-0.6v-2.3h0.6V33.2z
				 M181.5,28.6h-0.6v-2.3h0.6V28.6z M181.5,24.1h-0.6v-2.3h0.6V24.1z M181.5,19.6h-0.6v-2.3h0.6V19.6z M181.5,15h-0.6v-2.3h0.6V15z
				 M181.5,10.5h-0.6V8.2h0.6V10.5z M181.5,6h-0.6V3.7h0.6V6z"/>
		</g>
	</g>
	<g>
		<g>
			<g>
				<g id="XMLID_26_">
					<path class="st2" d="M136,91.3c-0.2,25.1-20.6,45.4-45.6,45.2c-12.4-0.1-23.5-5.1-31.6-13.2c-8.3-8.3-13.4-19.8-13.4-32.5
						C45.6,65.6,66,45.3,91,45.5S136.2,66.1,136,91.3z"/>
				</g>
				<g>
					<path class="st0" d="M69.1,106.4L59,123.5c0,0,4.1,5.6,15.7,10.1l5.8-15.7l3.9-10.5l4-11.6c0,0,1.4-3.8,1.4-3.8l0.2-0.4
						c0,0,0.1-0.1,0.1-0.2l0.1-0.1l0,0c0,0,0.1,0,0.1,0l0.1,0l0.1,0.1l0.2,0.3l0.4,1.1l0.8,2.2l2.7,8.3l2.4,7.4l3.7,11.3l2.9,7.9
						l1.5,4.4c0,0,9.2-2.5,17-10.3l-5.6-8.4l-3.7-6.3l-3.7-7.3l-3.1-6.4l-2.4-5.8l-2-5.8l-1.9-5.6l-2-6.4l-2-6.7l-1.8-6.6l-2-7.4
						l-1.1-3.7l-2.2,7l-3,9.8l-2.4,7.5l-2.8,8.3L78,87l-2.7,6.5l-2.9,6.2L69.1,106.4z"/>
				</g>
			</g>
		</g>
	</g>
	<g>
		<rect x="91.1" y="45.3" width="173.6" height="0.4"/>
	</g>
	<g>
		<rect x="91.1" y="136.3" width="173.6" height="0.4"/>
	</g>
	<g>
		<path d="M279.5,97.6l-2-3.4c-0.8-1.3-1.3-2.1-1.8-3h0c-0.4,0.9-0.9,1.7-1.7,3.1l-1.8,3.4h-2.3l4.7-7.8l-4.5-7.6h2.3l2,3.6
			c0.6,1,1,1.8,1.4,2.6h0.1c0.4-0.9,0.8-1.6,1.4-2.6l2.1-3.6h2.3l-4.7,7.5l4.8,7.9H279.5z"/>
	</g>
	<g>
		<path class="st1" d="M11.3,82.3v-4.7h0l-1,0.5l-0.2-0.7l1.3-0.6h0.9v5.6H11.3z M11.4,86.3l5.4-9.6h0.8l-5.4,9.6H11.4z M16,85.6
			l0.9-0.8c1.2-1.1,1.8-1.8,1.8-2.5c0-0.5-0.3-1-1.1-1c-0.5,0-0.9,0.3-1.2,0.4l-0.3-0.6c0.4-0.3,1-0.6,1.8-0.6
			c1.4,0,1.9,0.8,1.9,1.6c0,1.1-0.8,1.9-1.9,2.8l-0.4,0.4v0h2.5v0.8H16V85.6z"/>
		<path class="st1" d="M30,86.1L28.7,84c-0.5-0.8-0.8-1.3-1.1-1.9h0c-0.3,0.6-0.5,1.1-1,1.9l-1.2,2.1h-1.4l3-4.9l-2.8-4.8h1.4
			l1.3,2.3c0.4,0.6,0.6,1.1,0.9,1.6h0c0.3-0.6,0.5-1,0.9-1.6l1.3-2.3h1.4l-2.9,4.7l3,5H30z"/>
	</g>
	<g>
		<path class="st1" d="M95.5,162.8V158h0l-1,0.5l-0.2-0.7l1.3-0.6h0.9v5.6H95.5z M95.5,166.7l5.4-9.6h0.8l-5.4,9.6H95.5z
			 M100.1,166.1l0.9-0.8c1.2-1.1,1.8-1.8,1.8-2.5c0-0.5-0.3-1-1.1-1c-0.5,0-0.9,0.3-1.2,0.4l-0.3-0.6c0.4-0.3,1-0.6,1.8-0.6
			c1.4,0,1.9,0.8,1.9,1.6c0,1.1-0.8,1.9-1.9,2.8l-0.4,0.4v0h2.5v0.8h-3.9V166.1z"/>
		<path class="st1" d="M114.1,166.6l-1.2-2.1c-0.5-0.8-0.8-1.3-1.1-1.9h0c-0.3,0.6-0.5,1.1-1,1.9l-1.2,2.1h-1.4l3-4.9l-2.8-4.8h1.4
			l1.3,2.3c0.4,0.6,0.6,1.1,0.9,1.6h0c0.3-0.6,0.5-1,0.9-1.6l1.3-2.3h1.4l-2.9,4.7l3,5H114.1z"/>
	</g>
	<g>
		<path class="st1" d="M95.7,23.4v-4.7h0l-1,0.5l-0.2-0.7l1.3-0.6h0.9v5.6H95.7z M95.8,27.4l5.4-9.6h0.8l-5.4,9.6H95.8z M100.4,26.7
			l0.9-0.8c1.2-1.1,1.8-1.8,1.8-2.5c0-0.5-0.3-1-1.1-1c-0.5,0-0.9,0.3-1.2,0.4l-0.3-0.6c0.4-0.3,1-0.6,1.8-0.6
			c1.4,0,1.9,0.8,1.9,1.6c0,1.1-0.8,1.9-1.9,2.8l-0.4,0.4v0h2.5v0.8h-3.9V26.7z"/>
		<path class="st1" d="M114.4,27.2l-1.2-2.1c-0.5-0.8-0.8-1.3-1.1-1.9h0c-0.3,0.6-0.5,1.1-1,1.9l-1.2,2.1h-1.4l3-4.9l-2.8-4.8h1.4
			l1.3,2.3c0.4,0.6,0.6,1.1,0.9,1.6h0c0.3-0.6,0.5-1,0.9-1.6l1.3-2.3h1.4l-2.9,4.7l3,5H114.4z"/>
	</g>
	<g>
		<g>
			<g>
				<rect x="90.3" y="136.6" class="st1" width="0.6" height="1.1"/>
			</g>
			<g>
				<path class="st1" d="M90.9,178.2h-0.6V176h0.6V178.2z M90.9,173.7h-0.6v-2.2h0.6V173.7z M90.9,169.2h-0.6V167h0.6V169.2z
					 M90.9,164.7h-0.6v-2.2h0.6V164.7z M90.9,160.2h-0.6V158h0.6V160.2z M90.9,155.7h-0.6v-2.2h0.6V155.7z M90.9,151.2h-0.6V149h0.6
					V151.2z M90.9,146.8h-0.6v-2.2h0.6V146.8z M90.9,142.3h-0.6V140h0.6V142.3z"/>
			</g>
			<g>
				<rect x="90.3" y="180.5" class="st1" width="0.6" height="1.1"/>
			</g>
		</g>
		<g>
			<g>
				<rect x="88.3" y="136.4" width="4.6" height="0.4"/>
			</g>
			<g>
				<rect x="88" y="136.2" class="st1" width="5.2" height="0.9"/>
			</g>
		</g>
		<g>
			<g>
				<rect x="88.3" y="181.3" width="4.6" height="0.4"/>
			</g>
			<g>
				<rect x="88" y="181" class="st1" width="5.2" height="0.9"/>
			</g>
		</g>
	</g>
	<g>
		<g>
			<g>
				<rect x="90.5" y="0.5" class="st1" width="0.6" height="1.1"/>
			</g>
			<g>
				<path class="st1" d="M91.1,42.2h-0.6v-2.3h0.6V42.2z M91.1,37.7h-0.6v-2.3h0.6V37.7z M91.1,33.2h-0.6v-2.3h0.6V33.2z M91.1,28.7
					h-0.6v-2.3h0.6V28.7z M91.1,24.2h-0.6v-2.3h0.6V24.2z M91.1,19.7h-0.6v-2.3h0.6V19.7z M91.1,15.1h-0.6v-2.3h0.6V15.1z
					 M91.1,10.6h-0.6V8.4h0.6V10.6z M91.1,6.1h-0.6V3.9h0.6V6.1z"/>
			</g>
			<g>
				<rect x="90.5" y="44.5" class="st1" width="0.6" height="1.1"/>
			</g>
		</g>
		<g>
			<g>
				<rect x="88.5" y="0.3" width="4.6" height="0.4"/>
			</g>
			<g>
				<rect x="88.2" y="0" class="st1" width="5.2" height="0.9"/>
			</g>
		</g>
		<g>
			<g>
				<rect x="88.5" y="45.1" width="4.6" height="0.4"/>
			</g>
			<g>
				<rect x="88.2" y="44.8" class="st1" width="5.2" height="0.9"/>
			</g>
		</g>
	</g>
	<g>
		<g>
			<g>
				<rect x="44.1" y="90.7" class="st1" width="1.1" height="0.6"/>
			</g>
			<g>
				<path class="st1" d="M41.9,91.2h-2.2v-0.6h2.2V91.2z M37.4,91.2h-2.2v-0.6h2.2V91.2z M32.9,91.2h-2.2v-0.6h2.2V91.2z M28.5,91.2
					h-2.2v-0.6h2.2V91.2z M24,91.2h-2.2v-0.6H24V91.2z M19.5,91.2h-2.2v-0.6h2.2V91.2z M15,91.2h-2.2v-0.6H15V91.2z M10.6,91.2H8.3
					v-0.6h2.2V91.2z M6.1,91.2H3.8v-0.6h2.2V91.2z"/>
			</g>
			<g>
				<rect x="0.5" y="90.7" class="st1" width="1.1" height="0.6"/>
			</g>
		</g>
		<g>
			<g>
				<rect x="45.1" y="88.6" width="0.4" height="4.6"/>
			</g>
			<g>
				<rect x="44.8" y="88.4" class="st1" width="0.9" height="5.2"/>
			</g>
		</g>
		<g>
			<g>
				<rect x="0.3" y="88.6" width="0.4" height="4.6"/>
			</g>
			<g>
				<rect y="88.4" class="st1" width="0.9" height="5.2"/>
			</g>
		</g>
	</g>
	<g>
		<path class="st1" d="M147,81.3v-4.7h0l-1,0.5l-0.2-0.7l1.3-0.6h0.9v5.6H147z M147.1,85.2l5.4-9.6h0.8l-5.4,9.6H147.1z M151.7,84.5
			l0.9-0.8c1.2-1.1,1.8-1.8,1.8-2.5c0-0.5-0.3-1-1.1-1c-0.5,0-0.9,0.3-1.2,0.4l-0.3-0.6c0.4-0.3,1-0.6,1.8-0.6
			c1.4,0,1.9,0.8,1.9,1.6c0,1.1-0.8,1.9-1.9,2.8l-0.4,0.4v0h2.5v0.8h-3.9V84.5z"/>
		<path class="st1" d="M165.7,85.1l-1.2-2.1c-0.5-0.8-0.8-1.3-1.1-1.9h0c-0.3,0.6-0.5,1.1-1,1.9l-1.2,2.1h-1.4l3-4.9l-2.8-4.8h1.4
			l1.3,2.3c0.4,0.6,0.6,1.1,0.9,1.6h0c0.3-0.6,0.5-1,0.9-1.6l1.3-2.3h1.4l-2.9,4.7l3,5H165.7z"/>
	</g>
	<g>
		<g>
			<g>
				<rect x="179.9" y="89.6" class="st1" width="1.1" height="0.6"/>
			</g>
			<g>
				<path class="st1" d="M177.6,90.2h-2.2v-0.6h2.2V90.2z M173.2,90.2h-2.2v-0.6h2.2V90.2z M168.7,90.2h-2.2v-0.6h2.2V90.2z
					 M164.2,90.2H162v-0.6h2.2V90.2z M159.7,90.2h-2.2v-0.6h2.2V90.2z M155.2,90.2H153v-0.6h2.2V90.2z M150.8,90.2h-2.2v-0.6h2.2
					V90.2z M146.3,90.2h-2.2v-0.6h2.2V90.2z M141.8,90.2h-2.2v-0.6h2.2V90.2z"/>
			</g>
			<g>
				<rect x="136.2" y="89.6" class="st1" width="1.1" height="0.6"/>
			</g>
		</g>
		<g>
			<g>
				<rect x="180.8" y="87.6" width="0.4" height="4.6"/>
			</g>
			<g>
				<rect x="180.5" y="87.3" class="st1" width="0.9" height="5.2"/>
			</g>
		</g>
		<g>
			<g>
				<rect x="136" y="87.6" width="0.4" height="4.6"/>
			</g>
			<g>
				<rect x="135.7" y="87.3" class="st1" width="0.9" height="5.2"/>
			</g>
		</g>
	</g>
	<g>
		<polygon points="269.3,45.5 259,46.5 259,44.5 		"/>
	</g>
	<g>
		<polygon points="269.3,136.4 259,137.4 259,135.5 		"/>
	</g>
	<g>
		<g>
			<rect x="263.3" y="46.5" width="0.4" height="1.1"/>
		</g>
		<g>
			<path d="M263.7,132.1h-0.4v-2.2h0.4V132.1z M263.7,127.6h-0.4v-2.2h0.4V127.6z M263.7,123.2h-0.4V121h0.4V123.2z M263.7,118.7
				h-0.4v-2.2h0.4V118.7z M263.7,114.3h-0.4v-2.2h0.4V114.3z M263.7,109.9h-0.4v-2.2h0.4V109.9z M263.7,105.4h-0.4v-2.2h0.4V105.4z
				 M263.7,101h-0.4v-2.2h0.4V101z M263.7,96.5h-0.4v-2.2h0.4V96.5z M263.7,92.1h-0.4v-2.2h0.4V92.1z M263.7,87.6h-0.4v-2.2h0.4
				V87.6z M263.7,83.2h-0.4V81h0.4V83.2z M263.7,78.7h-0.4v-2.2h0.4V78.7z M263.7,74.3h-0.4v-2.2h0.4V74.3z M263.7,69.8h-0.4v-2.2
				h0.4V69.8z M263.7,65.4h-0.4v-2.2h0.4V65.4z M263.7,60.9h-0.4v-2.2h0.4V60.9z M263.7,56.5h-0.4v-2.2h0.4V56.5z M263.7,52.1h-0.4
				v-2.2h0.4V52.1z"/>
		</g>
		<g>
			<rect x="263.3" y="134.3" width="0.4" height="1.1"/>
		</g>
	</g>
</g>
</svg>
