<?xml version="1.0" encoding="utf-8"?>
<!-- Generator: Adobe Illustrator 23.0.1, SVG Export Plug-In . SVG Version: 6.00 Build 0)  -->
<svg version="1.1" id="Layer_1" xmlns="http://www.w3.org/2000/svg" xmlns:xlink="http://www.w3.org/1999/xlink" x="0px" y="0px"
	 viewBox="0 0 216.8 148.6" style="enable-background:new 0 0 216.8 148.6;" xml:space="preserve">
<style type="text/css">
	.st0{fill:#EC1C24;}
	.st1{fill:#231F20;}
	.st2{fill:#FFFFFF;}
</style>
<g>
	<g>
		<g>
			<g>
				<rect x="96.9" y="26.9" class="st0" width="3.6" height="1.1"/>
			</g>
			<g>
				<path class="st0" d="M89.8,28h-7.1v-1.1h7.1V28z M75.5,28h-7.1v-1.1h7.1V28z M61.2,28h-7.1v-1.1h7.1V28z M47,28H40v-1.1H47V28z
					 M32.7,28h-7.1v-1.1h7.1V28z M18.6,28h-7.3v-1.1h7.1V28H18.6z"/>
			</g>
			<g>
				<rect x="0.6" y="26.9" class="st0" width="3.4" height="1.1"/>
			</g>
		</g>
		<g>
			<g>
				<rect x="100.1" y="21.8" class="st1" width="0.9" height="11.6"/>
			</g>
			<g>
				<g>
					<rect x="99.2" y="27.5" class="st0" width="2.1" height="7.1"/>
				</g>
				<g>
					<rect x="99.2" y="20.5" class="st0" width="2.1" height="7.1"/>
				</g>
			</g>
		</g>
		<g>
			<g>
				<rect x="0.8" y="21.8" class="st1" width="0.9" height="11.6"/>
			</g>
			<g>
				<g>
					<rect x="0.2" y="27.5" class="st0" width="2.1" height="7.1"/>
				</g>
				<g>
					<rect x="0.2" y="20.5" class="st0" width="2.1" height="7.1"/>
				</g>
			</g>
		</g>
	</g>
	<g>
		<g>
			<g>
				<rect x="126.8" y="48.1" class="st0" width="1.9" height="4.3"/>
			</g>
			<g>
				<path class="st0" d="M128.8,135.4h-1.9V127h1.9V135.4z M128.8,118.7h-1.9v-8.3h1.9V118.7z M128.8,102.2h-1.9v-8.3h1.9V102.2z
					 M128.8,85.5h-1.9v-8.3h1.9V85.5z M128.8,69h-1.9v-8.3h1.9V69z"/>
			</g>
			<g>
				<rect x="126.8" y="143.7" class="st0" width="1.9" height="4.3"/>
			</g>
		</g>
		<g>
			<g>
				<rect x="123" y="47.6" class="st1" width="9.6" height="0.9"/>
			</g>
			<g>
				<g>
					<rect x="127.9" y="46.8" class="st0" width="5.8" height="2.6"/>
				</g>
				<g>
					<rect x="122.1" y="46.8" class="st0" width="5.8" height="2.6"/>
				</g>
			</g>
		</g>
		<g>
			<g>
				<rect x="123" y="146.9" class="st1" width="9.6" height="0.9"/>
			</g>
			<g>
				<g>
					<rect x="127.9" y="146.1" class="st0" width="5.8" height="2.6"/>
				</g>
				<g>
					<rect x="122.1" y="146.1" class="st0" width="5.8" height="2.6"/>
				</g>
			</g>
		</g>
	</g>
	<g>
		<path id="XMLID_2_" d="M101.6,98.1c-0.2,28-23.1,50.7-50.9,50.5c-13.9,0-26.3-5.8-35.3-14.8c-9.4-9.2-15-22.2-15-36.4
			c0-28.2,22.9-50.9,50.7-50.7C79.1,47,101.8,69.9,101.6,98.1z"/>
		<path class="st2" d="M26.7,115l-11.3,19c0,0,4.5,6.2,17.5,11.3l6.4-17.5l4.3-11.8l4.5-13l1.5-4.3l0.2-0.4c0,0,0-0.2,0.2-0.2
			l0.2-0.2l0,0c0,0,0,0,0.2,0h0.2l0,0l0.2,0.4l0.4,1.3l0.9,2.6l3,9.4l2.6,8.1l4.1,12.6l3.2,9l1.7,4.9c0,0,10.3-2.8,19-11.6l-6.2-9.4
			l-4.1-7.1l-4.1-8.1l-3.4-7.1l-2.8-6.4l-2.4-6.4L60.7,84L58.4,77l-2.1-7.5L54.3,62l-2.1-8.3l-1.3-4.1l-2.4,7.9l-3.4,10.9l-2.6,7.9
			l-3.2,9.4l-2.6,7.7l-3,7.3l-3.4,6.8L26.7,115z"/>
	</g>
</g>
<g>
	<path d="M22.1,13.7v1.4H14v-1.4h3.2V3.4c0-0.3,0-0.6,0-0.9l-2.7,2.3c-0.1,0.1-0.2,0.1-0.3,0.1c-0.1,0-0.2,0-0.3,0
		c-0.1,0-0.1,0-0.2-0.1s-0.1-0.1-0.2-0.1l-0.6-0.8L17.6,0h1.5v13.7H22.1z"/>
	<path d="M27.4,5.8c0.8-0.2,1.5-0.3,2.2-0.3c0.8,0,1.5,0.1,2.1,0.3c0.6,0.2,1.1,0.6,1.5,1c0.4,0.4,0.7,0.9,0.9,1.4
		c0.2,0.6,0.3,1.2,0.3,1.8c0,0.8-0.1,1.5-0.4,2.2c-0.3,0.6-0.7,1.2-1.2,1.7c-0.5,0.5-1.1,0.8-1.7,1.1s-1.4,0.4-2.1,0.4
		c-0.4,0-0.9,0-1.3-0.1c-0.4-0.1-0.8-0.2-1.1-0.4c-0.4-0.1-0.7-0.3-1-0.5c-0.3-0.2-0.6-0.4-0.8-0.6l0.6-0.8c0.1-0.2,0.3-0.3,0.5-0.3
		c0.1,0,0.3,0.1,0.5,0.2c0.2,0.1,0.4,0.2,0.6,0.4c0.3,0.1,0.6,0.3,0.9,0.4c0.3,0.1,0.7,0.2,1.2,0.2c0.5,0,1-0.1,1.4-0.3
		c0.4-0.2,0.8-0.4,1.1-0.7c0.3-0.3,0.5-0.7,0.7-1.1c0.2-0.4,0.2-0.9,0.2-1.5c0-0.5-0.1-0.9-0.2-1.3c-0.1-0.4-0.3-0.7-0.6-1
		c-0.3-0.3-0.6-0.5-1-0.6c-0.4-0.1-0.9-0.2-1.5-0.2c-0.4,0-0.8,0-1.2,0.1c-0.4,0.1-0.8,0.2-1.3,0.3l-1.2-0.3L26.8,0h7.2v0.8
		c0,0.3-0.1,0.5-0.2,0.7s-0.4,0.3-0.8,0.3h-4.8L27.4,5.8z"/>
	<path d="M37,14c0-0.2,0-0.4,0.1-0.5c0.1-0.2,0.2-0.3,0.3-0.4c0.1-0.1,0.3-0.2,0.4-0.3c0.2-0.1,0.3-0.1,0.5-0.1c0.2,0,0.4,0,0.5,0.1
		c0.2,0.1,0.3,0.2,0.4,0.3c0.1,0.1,0.2,0.3,0.3,0.4c0.1,0.2,0.1,0.3,0.1,0.5c0,0.2,0,0.4-0.1,0.5c-0.1,0.2-0.2,0.3-0.3,0.4
		c-0.1,0.1-0.3,0.2-0.4,0.3c-0.2,0.1-0.3,0.1-0.5,0.1c-0.2,0-0.4,0-0.5-0.1c-0.2-0.1-0.3-0.2-0.4-0.3c-0.1-0.1-0.2-0.3-0.3-0.4
		C37,14.4,37,14.2,37,14z"/>
	<path d="M44.6,5.8c0.8-0.2,1.5-0.3,2.2-0.3c0.8,0,1.5,0.1,2.1,0.3c0.6,0.2,1.1,0.6,1.5,1c0.4,0.4,0.7,0.9,0.9,1.4
		c0.2,0.6,0.3,1.2,0.3,1.8c0,0.8-0.1,1.5-0.4,2.2s-0.7,1.2-1.2,1.7c-0.5,0.5-1.1,0.8-1.7,1.1s-1.4,0.4-2.1,0.4c-0.4,0-0.9,0-1.3-0.1
		c-0.4-0.1-0.8-0.2-1.1-0.4c-0.4-0.1-0.7-0.3-1-0.5c-0.3-0.2-0.6-0.4-0.8-0.6l0.6-0.8c0.1-0.2,0.3-0.3,0.5-0.3
		c0.1,0,0.3,0.1,0.5,0.2c0.2,0.1,0.4,0.2,0.6,0.4c0.3,0.1,0.6,0.3,0.9,0.4c0.3,0.1,0.7,0.2,1.2,0.2c0.5,0,1-0.1,1.4-0.3
		s0.8-0.4,1.1-0.7c0.3-0.3,0.5-0.7,0.7-1.1c0.2-0.4,0.2-0.9,0.2-1.5c0-0.5-0.1-0.9-0.2-1.3c-0.1-0.4-0.3-0.7-0.6-1
		c-0.3-0.3-0.6-0.5-1-0.6c-0.4-0.1-0.9-0.2-1.5-0.2c-0.4,0-0.8,0-1.2,0.1c-0.4,0.1-0.8,0.2-1.3,0.3l-1.2-0.3L44,0h7.2v0.8
		c0,0.3-0.1,0.5-0.2,0.7s-0.4,0.3-0.8,0.3h-4.8L44.6,5.8z"/>
	<path d="M59.9,15.2V4.5h1.1c0.3,0,0.4,0.1,0.5,0.4L61.7,6c0.4-0.5,0.8-0.9,1.3-1.2c0.5-0.3,1.1-0.5,1.7-0.5c0.7,0,1.3,0.2,1.7,0.6
		c0.4,0.4,0.8,0.9,1,1.6c0.2-0.4,0.4-0.7,0.6-1c0.2-0.3,0.5-0.5,0.8-0.7c0.3-0.2,0.6-0.3,1-0.4c0.3-0.1,0.7-0.1,1-0.1
		c0.6,0,1.1,0.1,1.5,0.3c0.4,0.2,0.8,0.4,1.1,0.8c0.3,0.3,0.5,0.8,0.7,1.3c0.2,0.5,0.2,1.1,0.2,1.7v6.8h-1.9V8.4
		c0-0.8-0.2-1.5-0.5-1.9c-0.4-0.4-0.9-0.6-1.6-0.6c-0.3,0-0.6,0.1-0.9,0.2c-0.3,0.1-0.5,0.3-0.7,0.5c-0.2,0.2-0.4,0.5-0.5,0.8
		c-0.1,0.3-0.2,0.7-0.2,1.1v6.8h-1.9V8.4c0-0.9-0.2-1.5-0.5-1.9c-0.3-0.4-0.8-0.6-1.5-0.6c-0.5,0-0.9,0.1-1.3,0.4
		c-0.4,0.2-0.8,0.6-1.1,1v8H59.9z"/>
	<path d="M77.3,15.2V4.5h1.1c0.3,0,0.4,0.1,0.5,0.4L79.1,6c0.4-0.5,0.8-0.9,1.3-1.2c0.5-0.3,1.1-0.5,1.7-0.5c0.7,0,1.3,0.2,1.7,0.6
		c0.4,0.4,0.8,0.9,1,1.6c0.2-0.4,0.4-0.7,0.6-1c0.2-0.3,0.5-0.5,0.8-0.7c0.3-0.2,0.6-0.3,1-0.4c0.3-0.1,0.7-0.1,1-0.1
		c0.6,0,1.1,0.1,1.5,0.3c0.4,0.2,0.8,0.4,1.1,0.8c0.3,0.3,0.5,0.8,0.7,1.3c0.2,0.5,0.2,1.1,0.2,1.7v6.8h-1.9V8.4
		c0-0.8-0.2-1.5-0.5-1.9C89,6,88.5,5.8,87.8,5.8c-0.3,0-0.6,0.1-0.9,0.2c-0.3,0.1-0.5,0.3-0.7,0.5c-0.2,0.2-0.4,0.5-0.5,0.8
		c-0.1,0.3-0.2,0.7-0.2,1.1v6.8h-1.9V8.4c0-0.9-0.2-1.5-0.5-1.9c-0.3-0.4-0.8-0.6-1.5-0.6c-0.5,0-0.9,0.1-1.3,0.4
		c-0.4,0.2-0.8,0.6-1.1,1v8H77.3z"/>
</g>
<g>
	<path d="M148.4,105.1v1.4h-7.9v-1.4h3.2V95c0-0.3,0-0.6,0-0.9l-2.6,2.3c-0.1,0.1-0.2,0.1-0.3,0.1c-0.1,0-0.2,0-0.2,0
		c-0.1,0-0.1,0-0.2-0.1c-0.1,0-0.1-0.1-0.2-0.1l-0.6-0.8l4.4-3.8h1.5v13.4H148.4z"/>
	<path d="M153.6,97.3c0.8-0.2,1.5-0.2,2.1-0.2c0.8,0,1.4,0.1,2,0.3c0.6,0.2,1.1,0.5,1.5,0.9c0.4,0.4,0.7,0.9,0.9,1.4
		s0.3,1.1,0.3,1.8c0,0.8-0.1,1.5-0.4,2.1c-0.3,0.6-0.6,1.2-1.1,1.6c-0.5,0.5-1,0.8-1.7,1c-0.6,0.2-1.3,0.4-2.1,0.4
		c-0.4,0-0.8,0-1.2-0.1c-0.4-0.1-0.8-0.2-1.1-0.3s-0.7-0.3-1-0.5c-0.3-0.2-0.6-0.4-0.8-0.6l0.6-0.8c0.1-0.2,0.3-0.3,0.5-0.3
		c0.1,0,0.3,0.1,0.5,0.2c0.2,0.1,0.4,0.2,0.6,0.4c0.2,0.1,0.5,0.2,0.9,0.4c0.3,0.1,0.7,0.2,1.2,0.2c0.5,0,1-0.1,1.4-0.2
		c0.4-0.2,0.8-0.4,1.1-0.7c0.3-0.3,0.5-0.7,0.7-1.1c0.2-0.4,0.2-0.9,0.2-1.4c0-0.5-0.1-0.9-0.2-1.2c-0.1-0.4-0.3-0.7-0.6-0.9
		c-0.3-0.3-0.6-0.5-1-0.6c-0.4-0.1-0.9-0.2-1.4-0.2c-0.4,0-0.8,0-1.2,0.1c-0.4,0.1-0.8,0.2-1.2,0.3l-1.2-0.3l1.2-6.9h7v0.8
		c0,0.3-0.1,0.5-0.2,0.6c-0.2,0.2-0.4,0.3-0.8,0.3h-4.6L153.6,97.3z"/>
	<path d="M162.9,105.4c0-0.2,0-0.3,0.1-0.5s0.2-0.3,0.3-0.4c0.1-0.1,0.2-0.2,0.4-0.3c0.2-0.1,0.3-0.1,0.5-0.1c0.2,0,0.3,0,0.5,0.1
		c0.2,0.1,0.3,0.2,0.4,0.3c0.1,0.1,0.2,0.3,0.3,0.4s0.1,0.3,0.1,0.5c0,0.2,0,0.4-0.1,0.5c-0.1,0.2-0.2,0.3-0.3,0.4
		c-0.1,0.1-0.3,0.2-0.4,0.3c-0.2,0.1-0.3,0.1-0.5,0.1c-0.2,0-0.3,0-0.5-0.1c-0.2-0.1-0.3-0.2-0.4-0.3c-0.1-0.1-0.2-0.3-0.3-0.4
		C163,105.7,162.9,105.6,162.9,105.4z"/>
	<path d="M170.4,97.3c0.8-0.2,1.5-0.2,2.1-0.2c0.8,0,1.5,0.1,2,0.3c0.6,0.2,1.1,0.5,1.5,0.9c0.4,0.4,0.7,0.9,0.9,1.4
		c0.2,0.5,0.3,1.1,0.3,1.8c0,0.8-0.1,1.5-0.4,2.1c-0.3,0.6-0.6,1.2-1.1,1.6c-0.5,0.5-1,0.8-1.7,1c-0.6,0.2-1.3,0.4-2.1,0.4
		c-0.4,0-0.9,0-1.2-0.1c-0.4-0.1-0.8-0.2-1.1-0.3c-0.3-0.1-0.7-0.3-1-0.5c-0.3-0.2-0.6-0.4-0.8-0.6l0.6-0.8c0.1-0.2,0.3-0.3,0.5-0.3
		c0.1,0,0.3,0.1,0.5,0.2c0.2,0.1,0.4,0.2,0.6,0.4c0.2,0.1,0.5,0.2,0.9,0.4c0.3,0.1,0.7,0.2,1.2,0.2c0.5,0,1-0.1,1.4-0.2
		c0.4-0.2,0.8-0.4,1.1-0.7c0.3-0.3,0.5-0.7,0.7-1.1c0.2-0.4,0.2-0.9,0.2-1.4c0-0.5-0.1-0.9-0.2-1.2c-0.1-0.4-0.3-0.7-0.6-0.9
		s-0.6-0.5-1-0.6c-0.4-0.1-0.9-0.2-1.4-0.2c-0.4,0-0.8,0-1.2,0.1c-0.4,0.1-0.8,0.2-1.2,0.3l-1.2-0.3l1.2-6.9h7v0.8
		c0,0.3-0.1,0.5-0.2,0.6c-0.2,0.2-0.4,0.3-0.8,0.3h-4.6L170.4,97.3z"/>
	<path d="M185.4,106.5V96.1h1.1c0.3,0,0.4,0.1,0.5,0.4l0.1,1.1c0.4-0.5,0.8-0.9,1.3-1.2c0.5-0.3,1-0.5,1.7-0.5
		c0.7,0,1.3,0.2,1.7,0.6c0.4,0.4,0.8,0.9,0.9,1.6c0.2-0.4,0.3-0.7,0.6-1c0.2-0.3,0.5-0.5,0.8-0.7c0.3-0.2,0.6-0.3,0.9-0.4
		c0.3-0.1,0.7-0.1,1-0.1c0.5,0,1,0.1,1.5,0.3c0.4,0.2,0.8,0.4,1.1,0.8c0.3,0.3,0.5,0.8,0.7,1.2c0.2,0.5,0.2,1.1,0.2,1.7v6.7h-1.8
		v-6.7c0-0.8-0.2-1.4-0.5-1.9c-0.4-0.4-0.9-0.6-1.5-0.6c-0.3,0-0.6,0.1-0.9,0.2s-0.5,0.3-0.7,0.5c-0.2,0.2-0.4,0.5-0.5,0.8
		c-0.1,0.3-0.2,0.7-0.2,1.1v6.7h-1.8v-6.7c0-0.8-0.2-1.5-0.5-1.9c-0.3-0.4-0.8-0.6-1.5-0.6c-0.5,0-0.9,0.1-1.3,0.4
		c-0.4,0.2-0.7,0.6-1.1,1v7.8H185.4z"/>
	<path d="M202.3,106.5V96.1h1.1c0.3,0,0.4,0.1,0.5,0.4l0.1,1.1c0.4-0.5,0.8-0.9,1.3-1.2c0.5-0.3,1-0.5,1.7-0.5
		c0.7,0,1.3,0.2,1.7,0.6c0.4,0.4,0.8,0.9,0.9,1.6c0.2-0.4,0.3-0.7,0.6-1c0.2-0.3,0.5-0.5,0.8-0.7c0.3-0.2,0.6-0.3,0.9-0.4
		c0.3-0.1,0.7-0.1,1-0.1c0.5,0,1,0.1,1.5,0.3c0.4,0.2,0.8,0.4,1.1,0.8c0.3,0.3,0.5,0.8,0.7,1.2c0.2,0.5,0.2,1.1,0.2,1.7v6.7h-1.8
		v-6.7c0-0.8-0.2-1.4-0.5-1.9c-0.4-0.4-0.9-0.6-1.5-0.6c-0.3,0-0.6,0.1-0.9,0.2s-0.5,0.3-0.7,0.5c-0.2,0.2-0.4,0.5-0.5,0.8
		c-0.1,0.3-0.2,0.7-0.2,1.1v6.7h-1.8v-6.7c0-0.8-0.2-1.5-0.5-1.9c-0.3-0.4-0.8-0.6-1.5-0.6c-0.5,0-0.9,0.1-1.3,0.4
		c-0.4,0.2-0.7,0.6-1.1,1v7.8H202.3z"/>
</g>
</svg>
