<?xml version="1.0" encoding="utf-8"?>
<!-- Generator: Adobe Illustrator 23.0.1, SVG Export Plug-In . SVG Version: 6.00 Build 0)  -->
<svg version="1.1" id="Layer_1" xmlns="http://www.w3.org/2000/svg" xmlns:xlink="http://www.w3.org/1999/xlink" x="0px" y="0px"
	 viewBox="0 0 108.7 80.7" style="enable-background:new 0 0 108.7 80.7;" xml:space="preserve">
<style type="text/css">
	.st0{fill:#FFFFFF;}
	.st1{fill:none;stroke:#EC1C24;stroke-miterlimit:10;}
</style>
<g>
	<defs>
		<rect id="SVGID_1_" x="0.6" width="107.6" height="80.2"/>
	</defs>
	<clipPath id="SVGID_2_">
		<use xlink:href="#SVGID_1_"  style="overflow:visible;"/>
	</clipPath>
</g>
<g>
	<g>
		<g>
			<g id="XMLID_5_">
				<g>
					<path d="M75,62.2c-12.6,9.8-30.7,7.6-40.5-4.9c-4.8-6.2-6.7-13.8-5.9-21c0.9-7.4,4.6-14.5,11-19.5c12.6-9.8,30.7-7.6,40.5,4.9
						S87.6,52.3,75,62.2z"/>
				</g>
			</g>
			<g>
				<g>
					<path class="st0" d="M41,34.8l-12.5,1.7c0,0-1.1,4.4,1.2,11.8L39.8,45l6.8-2.2l7.4-2.6c0,0,2.4-0.8,2.4-0.8l0.3-0.1
						c0,0,0.1,0,0.1,0l0.1,0l0,0c0,0,0.1,0,0.1,0l0,0.1l0,0.1L57,39.7l-0.4,0.6l-0.8,1.3l-3.1,4.7L50,50.3l-4.2,6.3L43,61.2
						l-1.6,2.5c0,0,4.9,3.6,11.8,4.4l2-6.1l1.7-4.3l2.2-4.7l2-4l1.9-3.5l2.1-3.3l2.1-3.2l2.4-3.5l2.6-3.6l2.6-3.5l2.9-3.9l1.4-2
						L74.6,24l-6.1,2.4l-4.7,1.7L58.6,30l-4.3,1.5l-4.3,1.2l-4.3,1L41,34.8z"/>
				</g>
			</g>
		</g>
	</g>
</g>
<rect x="0.4" y="0.4" class="st1" width="107.9" height="79.8"/>
<line class="st1" x1="0.6" y1="0.2" x2="108.2" y2="79.8"/>
</svg>
