<?xml version="1.0" encoding="utf-8"?>
<!-- Generator: Adobe Illustrator 23.0.1, SVG Export Plug-In . SVG Version: 6.00 Build 0)  -->
<svg version="1.1" id="Layer_1" xmlns="http://www.w3.org/2000/svg" xmlns:xlink="http://www.w3.org/1999/xlink" x="0px" y="0px"
	 viewBox="0 0 108.7 80.7" style="enable-background:new 0 0 108.7 80.7;" xml:space="preserve">
<style type="text/css">
	.st0{fill:#F05A28;}
	.st1{fill:#29B473;}
	.st2{fill:none;stroke:#EC1C24;stroke-miterlimit:10;}
</style>
<g>
	<defs>
		<rect id="SVGID_1_" x="0.6" width="107.6" height="80.2"/>
	</defs>
	<clipPath id="SVGID_2_">
		<use xlink:href="#SVGID_1_"  style="overflow:visible;"/>
	</clipPath>
</g>
<g>
	<g>
		<g>
			<g id="XMLID_6_">
				<g>
					<path class="st0" d="M82,40.5C81.9,55.8,69.5,68,54.4,67.9c-7.5,0-14.3-3.1-19.2-8c-5-5-8.1-12-8.1-19.7
						c0.1-15.2,12.5-27.5,27.6-27.4C69.9,12.9,82.1,25.3,82,40.5z"/>
				</g>
			</g>
			<g>
				<g>
					<path class="st1" d="M41.4,49.7l-6.1,10.3c0,0,2.7,3.4,9.5,6.1l3.5-9.5l2.3-6.4l2.4-7c0,0,0.8-2.3,0.8-2.3l0.1-0.3
						c0,0,0.1-0.1,0.1-0.1l0.1-0.1l0,0c0,0,0,0,0.1,0l0.1,0l0.1,0l0.1,0.2l0.2,0.7l0.5,1.3l1.7,5.1l1.4,4.5l2.3,6.8l1.7,4.8l0.9,2.6
						c0,0,5.5-1.5,10.3-6.2l-3.4-5.1l-2.2-3.8L65.7,47l-1.9-3.9l-1.5-3.5l-1.2-3.5l-1.1-3.4l-1.2-3.9l-1.2-4.1l-1.1-4l-1.2-4.5
						L54.5,14l-1.3,4.3l-1.8,6L50,28.8l-1.7,5l-1.4,4.1l-1.6,4l-1.8,3.8L41.4,49.7z"/>
				</g>
			</g>
		</g>
	</g>
</g>
<rect x="0.4" y="0.4" class="st2" width="107.9" height="79.8"/>
<line class="st2" x1="0.6" y1="0.2" x2="108.2" y2="79.8"/>
</svg>
