<?xml version="1.0" encoding="utf-8"?>
<!-- Generator: Adobe Illustrator 22.1.0, SVG Export Plug-In . SVG Version: 6.00 Build 0)  -->
<svg version="1.1" id="Layer_1" xmlns="http://www.w3.org/2000/svg" xmlns:xlink="http://www.w3.org/1999/xlink" x="0px" y="0px"
	 viewBox="0 0 81.6 81.5" style="enable-background:new 0 0 81.6 81.5;" xml:space="preserve">
<style type="text/css">
	.st0{fill:none;stroke:#000000;stroke-linecap:round;stroke-linejoin:round;stroke-miterlimit:10;}
	.st1{fill:none;stroke:#000000;stroke-width:0.75;stroke-miterlimit:10;}
</style>
<path class="st0" d="M23.1,60.6l-2.1,20L23.1,60.6z"/>
<path class="st0" d="M37.9,41.3c-1.8,0-3.8-0.8-5.4-2.3v0.5c0,1.8-0.6,3.5-1.7,4.7c-0.5,0.6-1.2,1.1-1.8,1.4l-15.6,7.8
	c-1.8,2.1-2.8,5-2.8,8.1v19.1h31.4"/>
<path class="st0" d="M43.6,39c-1.6,1.5-3.6,2.3-5.5,2.3"/>
<path class="st0" d="M38.3,41.3"/>
<path class="st0" d="M33.4,0.6"/>
<path class="st1" d="M44.5,69.1"/>
<path class="st0" d="M55.2,80.6l-2.1-20L55.2,80.6z"/>
<path class="st0" d="M34.4,80.6h31.4V61.5c0-3.1-1.1-6-2.8-8.1l-15.6-7.8c-0.7-0.3-1.3-0.8-1.8-1.4c-1.1-1.2-1.8-3.2-1.8-5"/>
<path class="st0" d="M33.6,0.6"/>
<path class="st0" d="M38.1,41.3"/>
<path class="st1" d="M31.7,69.1"/>
<polygon class="st0" points="37.7,2.7 43.6,14.7 56.9,16.6 47.3,26 49.6,39.2 37.7,33 25.8,39.2 28.1,26 18.5,16.6 31.7,14.7 "/>
</svg>
