<?xml version="1.0" encoding="utf-8"?>
<!-- Generator: Adobe Illustrator 24.2.1, SVG Export Plug-In . SVG Version: 6.00 Build 0)  -->
<!DOCTYPE svg PUBLIC "-//W3C//DTD SVG 1.1//EN" "http://www.w3.org/Graphics/SVG/1.1/DTD/svg11.dtd" [
	<!ENTITY ns_extend "http://ns.adobe.com/Extensibility/1.0/">
	<!ENTITY ns_ai "http://ns.adobe.com/AdobeIllustrator/10.0/">
	<!ENTITY ns_graphs "http://ns.adobe.com/Graphs/1.0/">
	<!ENTITY ns_vars "http://ns.adobe.com/Variables/1.0/">
	<!ENTITY ns_imrep "http://ns.adobe.com/ImageReplacement/1.0/">
	<!ENTITY ns_sfw "http://ns.adobe.com/SaveForWeb/1.0/">
	<!ENTITY ns_custom "http://ns.adobe.com/GenericCustomNamespace/1.0/">
	<!ENTITY ns_adobe_xpath "http://ns.adobe.com/XPath/1.0/">
]>
<svg version="1.1" id="Layer_1" xmlns:x="&ns_extend;" xmlns:i="&ns_ai;" xmlns:graph="&ns_graphs;"
	 xmlns="http://www.w3.org/2000/svg" xmlns:xlink="http://www.w3.org/1999/xlink" x="0px" y="0px" viewBox="0 0 73.3 48.9"
	 style="enable-background:new 0 0 73.3 48.9;" xml:space="preserve">
<metadata>
	<sfw  xmlns="&ns_sfw;">
		<slices></slices>
		<sliceSourceBounds  bottomLeftOrigin="true" height="47.7" width="73.3" x="0" y="0.8"></sliceSourceBounds>
	</sfw>
</metadata>
<g>
	<path d="M30.9,48.1c-2.7-0.7-5.4-1.4-8.1-2.2c-3.6-1-4.9-3-3.9-7c3.1-13.1,13-19.5,24.6-15.6c6.7,2.2,13,10.8,12.7,18
		c-0.1,1.6-2.2,3.6-3.8,4.4c-2.6,1.3-5.6,1.7-8.5,2.4C39.6,48.1,35.3,48.1,30.9,48.1z"/>
	<path d="M0.9,35.1c0.7-1.3,1.4-2.5,2-3.8c3.6-8.4,10.5-10.9,18.6-7.2c-2,5-3.8,10-6,14.9c-0.5,1-2.3,2.2-3.2,2
		C8.5,40.3,4.8,39.2,1,38.2C0,37.6-0.6,37.3,0.9,35.1z"/>
	<path d="M37.4,19.1c-5.3,0-9.2-3.7-9.3-9c-0.1-5.3,4.1-9.7,9.3-9.7s9.4,4.4,9.3,9.7C46.6,15.3,42.7,19.1,37.4,19.1z"/>
	<path d="M53.3,24.1c9.4-4.5,19.7,1.3,20,12c0,1.2-1.4,3.2-2.6,3.5c-2.8,0.9-5.9,1.2-8.8,1.2c-0.9,0-2.2-1.6-2.7-2.7
		C57.2,33.6,55.4,29,53.3,24.1z"/>
	<path d="M15.3,5.3c3.9-0.1,7,3.1,7,6.9c-0.1,3.6-3,6.6-6.7,6.7C11.8,19,9,16.3,8.8,12.5C8.6,8.4,11.4,5.4,15.3,5.3z"/>
	<path d="M66.1,12.1c0,3.9-2.6,6.7-6.4,6.8c-3.9,0.1-7.1-2.9-7.1-6.7c0-3.6,2.9-6.7,6.6-6.8C63.1,5.2,66,8,66.1,12.1z"/>
</g>
</svg>
