<?xml version="1.0" encoding="utf-8"?>
<!-- Generator: Adobe Illustrator 22.1.0, SVG Export Plug-In . SVG Version: 6.00 Build 0)  -->
<svg version="1.1" id="Layer_1" xmlns="http://www.w3.org/2000/svg" xmlns:xlink="http://www.w3.org/1999/xlink" x="0px" y="0px"
	 viewBox="0 0 50 52.8" style="enable-background:new 0 0 50 52.8;" xml:space="preserve">
<style type="text/css">
	.st0{display:none;fill:#FFFFFF;}
	.st1{fill:#FFFFFF;}
	.st2{fill:#010101;}
</style>
<ellipse class="st0" cx="25" cy="20.6" rx="24.9" ry="25"/>
<path class="st0" d="M13.9,14.3c-0.1,0-0.3,0-0.4,0.1c-0.2,0.1-0.3,0.1-0.4,0.3c-0.2,0.2-0.3,0.5-0.3,0.8v8.3c0,0.6,0.5,1.2,1.2,1.2
	c0.6,0,1.2-0.5,1.2-1.2v-5.5l8.3,8.3c0.2,0.2,0.5,0.3,0.8,0.3c0.3,0,0.6-0.1,0.8-0.3c0.5-0.5,0.5-1.2,0-1.7l-8.3-8.3h5.5
	c0.6,0,1.2-0.5,1.2-1.2c0-0.6-0.5-1.2-1.2-1.2L13.9,14.3C13.9,14.3,13.9,14.3,13.9,14.3L13.9,14.3z M27.8,14.3
	c-0.6,0-1.2,0.5-1.2,1.2c0,0.6,0.5,1.2,1.2,1.2h5.5L25,25c-0.5,0.5-0.5,1.2,0,1.7c0.2,0.2,0.5,0.3,0.8,0.3l0,0
	c0.3,0,0.6-0.1,0.8-0.3l8.3-8.3v5.5c0,0.6,0.5,1.2,1.2,1.2c0.6,0,1.2-0.5,1.2-1.2v-8.3c0-0.3-0.1-0.6-0.3-0.9c0,0-0.1-0.1-0.1-0.1
	c0,0,0,0,0,0c0,0,0,0,0,0c0,0,0,0,0,0c0,0,0,0,0,0c0,0,0,0,0,0c0,0,0,0,0,0c0,0,0,0,0,0c0,0,0,0,0,0c0,0,0,0,0,0c0,0,0,0,0,0
	c0,0,0,0,0,0l0,0c-0.1-0.1-0.3-0.1-0.4-0.1L27.8,14.3L27.8,14.3z M24.2,26.2c-0.3,0-0.6,0.1-0.8,0.3L15,34.9v-5.5
	c0-0.6-0.5-1.2-1.2-1.2c-0.6,0-1.2,0.5-1.2,1.2v8.3c0,0.3,0.1,0.6,0.3,0.8c0.1,0.1,0.1,0.1,0.2,0.2c0,0,0,0,0,0c0,0,0,0,0,0
	c0,0,0,0,0,0c0,0,0,0,0,0c0,0,0,0,0,0c0,0,0,0,0,0c0,0,0,0,0,0c0,0,0,0,0,0c0,0,0,0,0,0c0,0,0,0,0,0c0,0,0,0,0,0c0,0,0,0,0,0
	c0,0,0,0,0,0c0,0,0,0,0,0c0,0,0,0,0,0c0,0,0,0,0,0c0,0,0,0,0,0c0,0,0,0,0,0c0,0,0,0,0,0c0,0,0,0,0,0c0,0,0,0,0,0c0,0,0,0,0.1,0h8.3
	c0.6,0,1.2-0.5,1.2-1.2c0-0.6-0.5-1.2-1.2-1.2h-5.5l8.3-8.3c0.5-0.5,0.5-1.2,0-1.7C24.7,26.3,24.5,26.2,24.2,26.2L24.2,26.2z
	 M25.8,26.1c-0.3,0-0.6,0.1-0.8,0.3c-0.5,0.5-0.5,1.2,0,1.7l8.3,8.3h-5.5c-0.6,0-1.2,0.5-1.2,1.2c0,0.6,0.5,1.2,1.2,1.2h8.3
	c0.2,0,0.3,0,0.5-0.1c0,0,0,0,0,0c0,0,0,0,0,0c0,0,0,0,0,0c0,0,0,0,0,0c0,0,0,0,0,0c0,0,0,0,0,0c0,0,0,0,0,0c0,0,0,0,0,0
	c0,0,0,0,0,0c0,0,0,0,0,0c0,0,0.1-0.1,0.1-0.1c0.2-0.2,0.3-0.5,0.3-0.8v-8.3c0-0.6-0.5-1.2-1.2-1.2c-0.6,0-1.2,0.5-1.2,1.2v5.5
	l-8.3-8.3C26.4,26.2,26.1,26.1,25.8,26.1L25.8,26.1z"/>
<g>
	<polygon class="st1" points="29.6,33.6 29.6,33.8 29.6,34 29.7,33.8 29.9,33.7 29.7,33.7 	"/>
	<polygon class="st1" points="30.5,33.6 30.5,33.8 30.5,34 30.4,33.8 30.2,33.7 30.4,33.7 	"/>
	<polygon class="st1" points="29.6,34.6 29.6,34.5 29.6,34.3 29.7,34.4 29.9,34.6 29.7,34.6 	"/>
	
		<rect x="29.5" y="34.1" transform="matrix(-0.7104 0.7038 -0.7038 -0.7104 75.4164 37.1794)" class="st1" width="1.1" height="0.1"/>
	<polygon class="st1" points="30.5,34.6 30.5,34.5 30.5,34.3 30.4,34.4 30.2,34.6 30.4,34.6 	"/>
	
		<rect x="29.5" y="34.1" transform="matrix(0.7104 0.7038 -0.7038 0.7104 32.7024 -11.2413)" class="st1" width="1.1" height="0.1"/>
</g>
<path class="st2" d="M6,6c-2.3,1.9-4.7,4.3-5.6,7.2c-1.1,3.4,0.4,6.9,1.9,10c1.5,3.1,3.1,6.2,4.5,9.4C8,35,9.5,38,9.1,40.8
	c-0.3,2-1,3.9-1.3,5.9c-0.3,1.3,1,0,1.4-0.4c2.6-2.2,5.4-4.8,6.5-8.2c0.5-1.7,0.2-3.3-0.4-4.9c-0.6-1.6-1.3-3-1.9-4.6
	c-1.4-3.1-2.9-6.2-4.4-9.4c-0.6-1.1-1.2-2.3-1.7-3.5c-0.5-1.3-0.8-2.6-0.9-4c-0.1-1.1-0.1-2.2,0.1-3.3C6.5,7.8,6.8,7,6.8,6.2
	C6.9,5.8,6.5,5.6,6,6L6,6z M40.1,6c-2.3,1.9-4.7,4.3-5.6,7.2c-1.1,3.4,0.4,6.9,1.9,10c1.5,3.1,3.1,6.2,4.5,9.4
	c1.1,2.5,2.7,5.5,2.3,8.3c-0.3,2-1,3.9-1.3,5.9c-0.3,1.3,1,0,1.4-0.4c2.6-2.2,5.4-4.8,6.5-8.2c0.5-1.7,0.2-3.3-0.4-4.9
	c-0.6-1.6-1.3-3-1.9-4.6c-1.4-3.1-2.9-6.2-4.4-9.4c-0.6-1.1-1.2-2.3-1.7-3.5c-0.5-1.3-0.8-2.6-0.9-4c-0.1-1.1-0.1-2.2,0.1-3.3
	c0.1-0.8,0.3-1.6,0.4-2.4C41,5.8,40.6,5.6,40.1,6L40.1,6z"/>
<path class="st2" d="M22.5,0.3c-2.6,2.2-5.4,4.8-7,7.8c-1.1,2.2-1.3,4.4-0.7,6.6c0.7,2.7,1.8,5.4,2.9,8c2.2,5,5,9.7,7.1,14.7
	c0.7,1.8,1.6,3.8,1.7,5.8c0.1,2.5-0.7,5.1-1.3,7.4c-0.1,0.7-0.6,1.6-0.5,2.2c0.1,0.5,0.4,0.3,0.7,0.1c1.3-1,2.5-2.1,3.6-3.2
	c3-2.9,6.5-6.8,6.2-11.3c-0.1-1.9-1-3.6-1.8-5.4c-0.8-2-1.7-3.9-2.6-5.9c-1.6-3.6-3.3-7.2-5.1-10.8c-0.6-1.3-1.3-2.5-1.8-3.7
	c-0.7-1.7-1-3.5-1-5.3c-0.1-1.3,0-2.8,0.1-4.1c0.1-0.9,0.4-1.7,0.4-2.6C23.6-0.1,23.2-0.2,22.5,0.3L22.5,0.3z"/>
</svg>
