<?xml version="1.0" encoding="utf-8"?>
<!-- Generator: Adobe Illustrator 23.0.1, SVG Export Plug-In . SVG Version: 6.00 Build 0)  -->
<svg version="1.1" id="Layer_1" xmlns="http://www.w3.org/2000/svg" xmlns:xlink="http://www.w3.org/1999/xlink" x="0px" y="0px"
	 viewBox="0 0 225.7 30.3" style="enable-background:new 0 0 225.7 30.3;" xml:space="preserve">
<style type="text/css">
	.st0{fill:#010101;}
</style>
<g>
	<g>
		<path class="st0" d="M24.7,9.5C24,7.7,23,6.2,21.7,5c-1.3-1.3-2.8-2.3-4.6-3c-1.8-0.7-3.8-1.1-6-1.1H0.5C0.2,0.9,0,1.1,0,1.4v10.2
			c0,0.3,0.2,0.5,0.5,0.5h5.1c0.3,0,0.5-0.2,0.5-0.5V6.1c0-0.3,0.2-0.5,0.5-0.5h4.6c1.3,0,2.6,0.2,3.6,0.7c1.1,0.4,2,1.1,2.7,1.9
			s1.3,1.8,1.7,3.1c0.4,1.2,0.6,2.6,0.6,4.1s-0.2,2.9-0.6,4.1s-1,2.2-1.7,3.1c-0.7,0.8-1.6,1.5-2.7,1.9s-2.3,0.7-3.6,0.7H6.6
			c-0.3,0-0.5-0.2-0.5-0.5v-5.5c0-0.3-0.2-0.5-0.5-0.5H0.5c-0.3,0-0.5,0.2-0.5,0.5v9.9c0,0.3,0.2,0.5,0.5,0.5h10.6
			c2.2,0,4.2-0.4,6-1.1c1.8-0.7,3.4-1.7,4.6-3c1.3-1.3,2.3-2.8,3-4.5c0.7-1.8,1.1-3.7,1.1-5.8C25.8,13.1,25.4,11.2,24.7,9.5z"/>
		<path class="st0" d="M36.6,5.5H48c0.3,0,0.5-0.2,0.5-0.5V1.3c0-0.3-0.2-0.5-0.5-0.5H30.6c-0.3,0-0.5,0.2-0.5,0.5v27.8
			c0,0.3,0.2,0.5,0.5,0.5H48c0.3,0,0.5-0.2,0.5-0.5v-3.7c0-0.3-0.2-0.5-0.5-0.5H36.6c-0.3,0-0.5-0.2-0.5-0.5v-6.6
			c0-0.3,0.2-0.5,0.5-0.5h8.7c0.3,0,0.5-0.2,0.5-0.5v-3.6c0-0.3-0.2-0.5-0.5-0.5h-8.7c-0.3,0-0.5-0.2-0.5-0.5V5.7
			C36.2,5.7,36.4,5.5,36.6,5.5z"/>
		<path class="st0" d="M77,0.9h-4.3c-0.3,0-0.5,0.2-0.5,0.5v16c0,0.4,0,0.9,0,1.3c0,0.5,0.1,1,0.1,1.5L57.9,1.9
			c-0.2-0.2-0.3-0.4-0.4-0.5s-0.3-0.2-0.4-0.3S56.8,1,56.6,1S56.2,1,56,1h-2.7c-0.3,0-0.5,0.2-0.5,0.5v27.6c0,0.3,0.2,0.5,0.5,0.5
			h4.3c0.3,0,0.5-0.2,0.5-0.5V13c0-0.4,0-0.8,0-1.2c0-0.5,0-0.9-0.1-1.4l14.3,18.2c0.3,0.4,0.6,0.6,0.9,0.8c0.3,0.2,0.7,0.2,1.2,0.2
			H77c0.3,0,0.5-0.2,0.5-0.5V1.3C77.5,1.1,77.3,0.9,77,0.9z"/>
		<path class="st0" d="M103.4,0.9H81.6c-0.3,0-0.5,0.2-0.5,0.5v3.9c0,0.3,0.2,0.5,0.5,0.5h7.5c0.3,0,0.5,0.2,0.5,0.5v23
			c0,0.3,0.2,0.5,0.5,0.5h5c0.3,0,0.5-0.2,0.5-0.5V6.1c0-0.3,0.2-0.5,0.5-0.5h7.5c0.3,0,0.5-0.2,0.5-0.5V1.2
			C103.9,1.1,103.7,0.9,103.4,0.9z"/>
		<path class="st0" d="M129.5,29L118.7,1.2c-0.1-0.2-0.2-0.3-0.4-0.3h-5.4c-0.2,0-0.4,0.1-0.4,0.3L101.6,29
			c-0.1,0.3,0.1,0.6,0.4,0.6h4c0.5,0,0.9-0.1,1.2-0.4c0.3-0.3,0.6-0.6,0.7-0.9l1.8-5.2c0.1-0.2,0.2-0.3,0.4-0.3h10.8
			c0.2,0,0.4,0.1,0.4,0.3l1.8,5.2c0.2,0.4,0.4,0.7,0.7,0.9s0.7,0.4,1.3,0.4h3.9C129.4,29.6,129.7,29.3,129.5,29z M119.1,18.7h-7.2
			c-0.3,0-0.5-0.3-0.4-0.6l2.9-8.1c0.2-0.5,0.4-1,0.6-1.6c0-0.2,0.1-0.3,0.1-0.5c0.1-0.4,0.7-0.4,0.9,0c0,0.1,0.1,0.3,0.1,0.4
			c0.2,0.6,0.4,1.2,0.6,1.6l2.9,8.2C119.7,18.4,119.5,18.7,119.1,18.7z"/>
		<path class="st0" d="M154,25.1l-2.1-2.2c-0.2-0.2-0.5-0.4-0.8-0.4c-0.2,0-0.4,0-0.5,0.1c-0.2,0.1-0.3,0.2-0.5,0.3
			c-0.4,0.4-0.8,0.7-1.3,0.9c-0.4,0.3-0.9,0.5-1.3,0.6c-0.5,0.2-1,0.3-1.5,0.3c-0.6,0.1-1.2,0.1-1.8,0.1c-1.1,0-2.2-0.2-3.2-0.6
			c-1-0.4-1.9-1.1-2.6-1.9c-0.7-0.8-1.3-1.9-1.8-3.1c-0.4-1.2-0.6-2.6-0.6-4.1s0.2-2.9,0.6-4.1c0.4-1.2,1-2.2,1.7-3s1.6-1.5,2.6-1.9
			s2.1-0.7,3.3-0.7c1.1,0,2,0.1,2.7,0.3c0.7,0.2,1.3,0.5,1.8,0.8s0.9,0.5,1.2,0.7s0.6,0.3,1,0.3c0.3,0,0.6-0.1,0.7-0.2
			c0.2-0.1,0.3-0.3,0.5-0.5l1.8-2.4c0.1-0.2,0.1-0.5-0.1-0.6c-0.5-0.5-1-0.9-1.6-1.3c-0.7-0.5-1.4-0.9-2.3-1.2
			c-0.8-0.3-1.7-0.6-2.6-0.8c-0.9-0.2-1.9-0.3-3-0.3c-1.4,0-2.7,0.2-4,0.5c-1.2,0.3-2.4,0.8-3.5,1.4c-1.1,0.6-2,1.4-2.8,2.2
			c-0.8,0.9-1.6,1.8-2.1,2.9c-0.6,1.1-1,2.3-1.4,3.6c-0.3,1.3-0.5,2.6-0.5,4.1c0,2.1,0.3,4.1,1,5.9s1.6,3.3,2.8,4.6s2.7,2.3,4.4,3.1
			c1.7,0.7,3.6,1.1,5.8,1.1c2.4,0,4.4-0.4,6.1-1.1c1.6-0.7,3-1.7,4.1-3C154.2,25.5,154.2,25.3,154,25.1z"/>
		<path class="st0" d="M183.7,9.4c-0.7-1.8-1.7-3.3-3-4.6s-2.8-2.3-4.6-3.1c-1.8-0.7-3.8-1.1-6-1.1s-4.2,0.4-6,1.1
			c-1.8,0.7-3.4,1.8-4.7,3.1s-2.3,2.9-3,4.6c-0.7,1.8-1.1,3.7-1.1,5.8s0.4,4,1.1,5.8c0.7,1.8,1.7,3.3,3,4.7c1.3,1.3,2.8,2.3,4.7,3.1
			c1.8,0.7,3.8,1.1,6,1.1s4.2-0.4,6-1.1c1.8-0.7,3.4-1.8,4.6-3.1c1.3-1.3,2.3-2.9,3-4.7s1.1-3.7,1.1-5.8S184.4,11.2,183.7,9.4z
			 M178.1,19.3c-0.4,1.2-1,2.2-1.7,3s-1.7,1.5-2.7,1.9c-1.1,0.4-2.3,0.7-3.6,0.7s-2.6-0.2-3.6-0.7c-1.1-0.4-2-1.1-2.7-1.9
			c-0.7-0.8-1.3-1.8-1.7-3s-0.6-2.6-0.6-4.1s0.2-2.9,0.6-4.1c0.4-1.2,1-2.2,1.7-3s1.7-1.5,2.7-1.9c1.1-0.4,2.3-0.7,3.6-0.7
			s2.5,0.2,3.6,0.7c1.1,0.4,2,1.1,2.7,1.9s1.3,1.9,1.7,3c0.4,1.2,0.6,2.5,0.6,4.1C178.7,16.7,178.5,18.1,178.1,19.3z"/>
		<path class="st0" d="M194.6,0.9h-5.1c-0.3,0-0.5,0.2-0.5,0.5v27.7c0,0.3,0.2,0.5,0.5,0.5h5.1c0.3,0,0.5-0.2,0.5-0.5V1.3
			C195.1,1.1,194.9,0.9,194.6,0.9z"/>
		<path class="st0" d="M225.3,0.9H221c-0.3,0-0.5,0.2-0.5,0.5v16c0,0.4,0,0.9,0,1.3c0,0.5,0.1,1,0.1,1.5L206.2,1.9
			c-0.2-0.2-0.3-0.4-0.4-0.5s-0.3-0.2-0.4-0.3S205.1,1,204.9,1s-0.4,0-0.6,0h-2.7c-0.3,0-0.5,0.2-0.5,0.5v27.6
			c0,0.3,0.2,0.5,0.5,0.5h4.3c0.3,0,0.5-0.2,0.5-0.5V13c0-0.4,0-0.8,0-1.2c0-0.5,0-0.9-0.1-1.4l14.3,18.2c0.3,0.4,0.6,0.6,0.9,0.8
			s0.7,0.2,1.2,0.2h2.6c0.3,0,0.5-0.2,0.5-0.5V1.3C225.7,1.1,225.5,0.9,225.3,0.9z"/>
	</g>
</g>
</svg>
