<?xml version="1.0" encoding="utf-8"?>
<!-- Generator: Adobe Illustrator 24.2.1, SVG Export Plug-In . SVG Version: 6.00 Build 0)  -->
<!DOCTYPE svg PUBLIC "-//W3C//DTD SVG 1.1//EN" "http://www.w3.org/Graphics/SVG/1.1/DTD/svg11.dtd" [
	<!ENTITY ns_extend "http://ns.adobe.com/Extensibility/1.0/">
	<!ENTITY ns_ai "http://ns.adobe.com/AdobeIllustrator/10.0/">
	<!ENTITY ns_graphs "http://ns.adobe.com/Graphs/1.0/">
	<!ENTITY ns_vars "http://ns.adobe.com/Variables/1.0/">
	<!ENTITY ns_imrep "http://ns.adobe.com/ImageReplacement/1.0/">
	<!ENTITY ns_sfw "http://ns.adobe.com/SaveForWeb/1.0/">
	<!ENTITY ns_custom "http://ns.adobe.com/GenericCustomNamespace/1.0/">
	<!ENTITY ns_adobe_xpath "http://ns.adobe.com/XPath/1.0/">
]>
<svg version="1.1" id="Layer_1" xmlns:x="&ns_extend;" xmlns:i="&ns_ai;" xmlns:graph="&ns_graphs;"
	 xmlns="http://www.w3.org/2000/svg" xmlns:xlink="http://www.w3.org/1999/xlink" x="0px" y="0px" viewBox="0 0 1076.5 774.8"
	 style="enable-background:new 0 0 1076.5 774.8;" xml:space="preserve">
<style type="text/css">
	.st0{fill:#89CDE5;}
	.st1{fill:#FFFFFF;stroke:#000000;stroke-width:17.3132;stroke-linecap:round;stroke-linejoin:round;stroke-miterlimit:10;}
	.st2{fill:none;stroke:#000000;stroke-width:15.4889;stroke-linecap:round;stroke-linejoin:round;stroke-miterlimit:10;}
	.st3{fill-rule:evenodd;clip-rule:evenodd;fill:#010101;}
</style>
<metadata>
	<sfw  xmlns="&ns_sfw;">
		<slices></slices>
		<sliceSourceBounds  bottomLeftOrigin="true" height="774.8" width="1076.5" x="1760" y="-3399.1"></sliceSourceBounds>
	</sfw>
</metadata>
<g>
	<path class="st0" d="M900.3,205.4l8.6,493.5c0,41.7-34.1,75.9-75.9,75.9H75.9C34.1,774.8,0,740.6,0,698.9V170.4
		c0-41.7,34.1-75.9,75.9-75.9h754.4c-10.1,11.4-16.3,26.3-16.3,42.7c0,35.4,29,64.4,64.4,64.4C889.4,201.6,891.2,210.3,900.3,205.4z
		"/>
	<path class="st1" d="M967.6,320.1v312.4c0,39.2-32.1,71.3-71.3,71.3h-723c-39.2,0-71.3-32.1-71.3-71.3V82.7
		c0-39.2,32.1-71.3,71.3-71.3h604.8"/>
	<g>
		<line class="st2" x1="193.8" y1="395.6" x2="193.8" y2="582.1"/>
		<line class="st2" x1="229.6" y1="395.6" x2="229.6" y2="481.9"/>
		<line class="st2" x1="265.3" y1="395.6" x2="265.3" y2="461.7"/>
		<line class="st2" x1="301.1" y1="395.6" x2="301.1" y2="461.7"/>
		<line class="st2" x1="372.5" y1="351.5" x2="372.5" y2="417.6"/>
		<line class="st2" x1="551.3" y1="351.5" x2="551.3" y2="417.6"/>
		<line class="st2" x1="622.8" y1="252.3" x2="622.8" y2="318.4"/>
		<line class="st2" x1="658.5" y1="252.3" x2="658.5" y2="318.4"/>
		<line class="st2" x1="694.3" y1="274.8" x2="694.3" y2="324.2"/>
		<line class="st2" x1="730" y1="178.3" x2="730" y2="324.2"/>
		<line class="st2" x1="765.8" y1="257.5" x2="765.8" y2="324.2"/>
		<line class="st2" x1="801.5" y1="257.5" x2="801.5" y2="324.2"/>
		<line class="st2" x1="587" y1="228.6" x2="587" y2="417.6"/>
		<line class="st2" x1="837.2" y1="228.6" x2="837.2" y2="417.6"/>
		<line class="st2" x1="408.3" y1="274.8" x2="408.3" y2="374.6"/>
		<line class="st2" x1="444" y1="291.6" x2="444" y2="357.8"/>
		<line class="st2" x1="479.8" y1="318.4" x2="479.8" y2="384.5"/>
		<line class="st2" x1="515.5" y1="334.7" x2="515.5" y2="461.7"/>
		<line class="st2" x1="336.8" y1="239.9" x2="336.8" y2="544.1"/>
	</g>
	<path d="M336.9,336.8L336.9,336.8c-8.2,0-15-6.7-15-15v-36.2c0-8.2,6.7-15,15-15h0c8.2,0,15,6.7,15,15v36.2
		C351.9,330,345.1,336.8,336.9,336.8z"/>
	<path d="M515.5,450.7L515.5,450.7c-8.2,0-15-6.7-15-15v-36.2c0-8.2,6.7-15,15-15l0,0c8.2,0,15,6.7,15,15v36.2
		C530.5,443.9,523.8,450.7,515.5,450.7z"/>
	<path d="M193.8,548L193.8,548c-8.2,0-15-6.7-15-15v-36.2c0-8.2,6.7-15,15-15h0c8.2,0,15,6.7,15,15v36.2
		C208.8,541.3,202,548,193.8,548z"/>
	<path d="M730,278.2L730,278.2c-8.2,0-15-6.7-15-15v-36.2c0-8.2,6.7-15,15-15l0,0c8.2,0,15,6.7,15,15v36.2
		C745,271.5,738.2,278.2,730,278.2z"/>
	<path d="M837.2,400.8L837.2,400.8c-8.2,0-15-6.7-15-15v-36.2c0-8.2,6.7-15,15-15l0,0c8.2,0,15,6.7,15,15v36.2
		C852.2,394.1,845.5,400.8,837.2,400.8z"/>
	<path class="st3" d="M1066.8,143.9l-35.4,35.4c-6.1,6.1-13.9,9.3-21.8,9.7c-0.5,0.1-1.1,0.1-1.8,0.1c-9.5,0-17.2-7.7-17.2-17.2
		v-8.6c0-4.7-3.8-8.6-8.6-8.6h-68.8c-4.7,0-8.6-3.8-8.6-8.6s3.8-8.6,8.6-8.6h73.1c11.9,0,21.5,9.6,21.5,21.5v4.2
		c0,3.6,2.9,6.4,6.4,6.4c1.6,0,3.1-0.6,4.2-1.6c0.4-0.3,0.7-0.5,1.1-0.9l35-35c6.5-6.5,6.5-16.9,0-23.4l-35-35
		c-0.5-0.5-1.2-1-1.8-1.4c-1-0.7-2.2-1.2-3.5-1.2c-3.6,0-6.4,2.9-6.4,6.4v4.2c0,11.9-9.6,21.5-21.5,21.5h-73.1h-4.3H896
		c-4.7,0-8.6,3.8-8.6,8.6v8.6c0,9.5-7.7,17.2-17.2,17.2c-0.7,0-1.3-0.1-1.8-0.2c-7.9-0.4-15.8-3.6-21.8-9.7l-35.4-35.4
		c-6.5-6.5-9.7-15-9.7-23.6c0-8.5,3.2-17.1,9.7-23.6l35.4-35.4c6.1-6.1,13.9-9.3,21.8-9.7c0.5-0.1,1.1-0.2,1.8-0.2
		c9.5,0,17.2,7.7,17.2,17.2v8.6c0,4.7,3.8,8.6,8.6,8.6h58.9c4.7,0,8.6,3.8,8.6,8.6s-3.8,8.6-8.6,8.6h-63.2
		c-11.9,0-21.5-9.6-21.5-21.5v-4.2c0-3.6-2.9-6.4-6.4-6.4c-1.6,0-3.1,0.6-4.2,1.6c-0.4,0.3-0.7,0.5-1.1,0.9l-35,35
		c-6.5,6.5-6.5,16.9,0,23.4l35,35c0.5,0.5,1.2,1,1.8,1.4c1,0.7,2.2,1.2,3.5,1.2c3.6,0,6.4-2.9,6.4-6.4v-4.2
		c0-11.9,9.6-21.5,21.5-21.5h21.5H939h43c4.7,0,8.6-3.8,8.6-8.6v-8.6c0-9.5,7.7-17.2,17.2-17.2c0.7,0,1.3,0.1,1.8,0.2
		c7.9,0.4,15.8,3.6,21.8,9.7l35.4,35.4c6.5,6.5,9.7,15,9.7,23.6S1073.3,137.4,1066.8,143.9z"/>
</g>
<circle class="st3" cx="967.6" cy="289.1" r="8.7"/>
</svg>
