<?xml version="1.0" encoding="utf-8"?>
<!-- Generator: Adobe Illustrator 22.1.0, SVG Export Plug-In . SVG Version: 6.00 Build 0)  -->
<svg version="1.1" id="Layer_1" xmlns="http://www.w3.org/2000/svg" xmlns:xlink="http://www.w3.org/1999/xlink" x="0px" y="0px"
	 viewBox="0 0 90 90" style="enable-background:new 0 0 90 90;" xml:space="preserve">
<style type="text/css">
	.st0{fill:none;stroke:#000000;stroke-miterlimit:10;}
</style>
<g>
	<g>
		<path d="M45,2.1C21.3,2.1,2.1,21.4,2.1,45S21.3,87.9,45,87.9S87.9,68.7,87.9,45S68.7,2.1,45,2.1 M45,90C20.2,90,0,69.8,0,45
			S20.2,0,45,0s45,20.2,45,45S69.8,90,45,90"/>
	</g>
</g>
<path d="M45.5,84.8"/>
<path class="st0" d="M41.5,74.4"/>
<rect x="39.7" y="58" width="7" height="2"/>
<path d="M75.8,63.3c-0.1-0.4-0.1-0.7-0.2-1.1c0,0,0,0,0-0.1c0,0,0,0,0,0c-1.1-4.2-4.9-7.3-9.5-7.3h-6.6c-0.1-1.6-0.5-3-1.1-4.4
	l16.6-4.3c0.3-0.1,0.5-0.3,0.7-0.5c0.1-0.3,0.2-0.6,0.1-0.8l-8.7-31.6c-0.1-0.3-0.3-0.5-0.5-0.7c-0.3-0.1-0.6-0.2-0.8-0.1L11.4,27.6
	c-0.3,0.1-0.5,0.3-0.7,0.5c-0.1,0.3-0.2,0.6-0.1,0.8L18,54.8c-4.1,0.1-7.4,3.5-7.4,7.6v2.2c0,3.9,2.9,7.1,6.6,7.5
	c0.5,3.1,3.2,5.5,6.4,5.5c3.2,0,5.9-2.4,6.4-5.4h23c0.5,3.1,3.2,5.4,6.4,5.4s5.9-2.4,6.4-5.4h8.8c0.6,0,1.1-0.5,1.1-1.1v-4.4v-2.2
	c0-0.4,0-0.8-0.1-1.2C75.8,63.4,75.8,63.3,75.8,63.3z M73.6,63.5c0.1,0.4,0.1,0.7,0.1,1v1.1h-1.1c-0.6,0-1.1-0.5-1.1-1.1
	c0-0.6,0.5-1.1,1.1-1.1L73.6,63.5C73.6,63.5,73.6,63.5,73.6,63.5z M39.3,41.7c-0.3-0.7-0.5-1.4-0.5-2.2c0-3,2.4-5.4,5.4-5.4
	c3,0,5.4,2.4,5.4,5.4c0,0.9-0.2,1.8-0.7,2.7c0,0-0.1,0-0.1,0c-0.2,0-0.4-0.1-0.5-0.1c-0.1,0-0.2,0-0.3-0.1c-0.2,0-0.5-0.1-0.7-0.1
	c-0.1,0-0.2,0-0.3,0c-0.1,0-0.2,0-0.3,0c-0.4,0-0.9-0.1-1.3-0.1H39.3z M53.8,44.5c-0.1-0.1-0.2-0.1-0.2-0.2
	c-0.1-0.1-0.3-0.2-0.4-0.3c-0.2-0.1-0.4-0.2-0.6-0.3c-0.1-0.1-0.2-0.1-0.3-0.2c-0.1,0-0.1-0.1-0.2-0.1c-0.3-0.2-0.6-0.3-0.9-0.4
	c0.5-1.1,0.8-2.2,0.8-3.4c0-4.2-3.4-7.6-7.6-7.6s-7.6,3.4-7.6,7.6c0,0.7,0.1,1.5,0.3,2.2h-2.5c-0.5,0-0.9,0-1.4,0.1
	c-0.1,0-0.1,0-0.2,0c-0.1,0-0.2,0-0.3,0c-0.3,0-0.6,0.1-0.9,0.1c-0.1,0-0.3,0.1-0.4,0.1c-0.1,0-0.2,0-0.2,0.1
	c-0.2,0.1-0.5,0.1-0.7,0.2c-0.2,0.1-0.4,0.1-0.5,0.2c0,0-0.1,0-0.1,0.1c0,0,0,0-0.1,0c-0.2,0.1-0.3,0.1-0.5,0.2
	C29,42.9,28.8,43,28.6,43c-0.2,0.1-0.5,0.2-0.7,0.3c-0.2,0.1-0.3,0.2-0.5,0.3c-0.2,0.1-0.4,0.3-0.6,0.4c-0.2,0.1-0.3,0.2-0.5,0.3
	c-0.2,0.1-0.4,0.3-0.6,0.4c-0.2,0.1-0.3,0.3-0.5,0.4c-0.2,0.2-0.4,0.3-0.5,0.5c-0.1,0.1-0.3,0.3-0.4,0.4c0,0,0,0-0.1,0.1
	c-0.2,0.2-0.3,0.3-0.4,0.5c-0.1,0.2-0.3,0.3-0.4,0.5c-0.1,0.1-0.1,0.2-0.2,0.3l-2.7-10.6c1.7-1.2,2.8-3,3.1-5.1L58,22.3
	c1.1,1.6,2.5,3,5.1,3.1l2.9,10.5c-1.8,1.5-2.3,3.6-2.8,5.7L63,41.9L53.8,44.5z M22.6,54.7c0-0.2,0-0.3,0.1-0.5
	c0-0.2,0.1-0.5,0.1-0.7c0-0.2,0.1-0.3,0.1-0.5c0.1-0.2,0.1-0.4,0.2-0.6c0-0.2,0.1-0.3,0.2-0.5c0.1-0.2,0.1-0.4,0.2-0.6
	c0.1-0.2,0.1-0.3,0.2-0.5c0.1-0.2,0.2-0.4,0.3-0.6c0.1-0.1,0.2-0.3,0.2-0.4c0-0.1,0.1-0.1,0.1-0.2c0.3-0.4,0.5-0.8,0.8-1.2
	c0,0,0,0,0,0c0.3-0.4,0.7-0.8,1-1.1c0,0,0,0,0,0c0.4-0.4,0.7-0.7,1.2-1c0,0,0,0,0,0c1.2-0.9,2.6-1.6,4-2c0.1,0,0.1,0,0.2-0.1
	c0.4-0.1,0.8-0.2,1.2-0.2c0.1,0,0.1,0,0.2,0c0,0,0.1,0,0.1,0c0.5-0.1,1-0.1,1.4-0.1h3.3v10.9L22.6,54.7
	C22.6,54.8,22.6,54.7,22.6,54.7z M40,43.9h5.4c0.5,0,1,0,1.4,0.1c0,0,0.1,0,0.1,0c0.1,0,0.2,0,0.3,0c0.4,0.1,0.8,0.1,1.2,0.2
	c0.2,0,0.3,0.1,0.5,0.1c0.4,0.1,0.7,0.2,1.1,0.4c0,0,0,0,0,0c0.1,0,0.2,0.1,0.3,0.2c0.3,0.1,0.6,0.3,0.9,0.5c0.1,0,0.1,0.1,0.2,0.1
	c0.1,0.1,0.2,0.1,0.3,0.2c0.3,0.2,0.5,0.3,0.7,0.5c0.1,0.1,0.2,0.1,0.3,0.2c0.1,0.1,0.2,0.2,0.3,0.3c0.2,0.2,0.5,0.4,0.7,0.6
	c0.1,0.1,0.3,0.3,0.4,0.4c0.3,0.3,0.6,0.6,0.8,1c0.1,0.1,0.2,0.2,0.2,0.4c0.2,0.3,0.4,0.6,0.6,0.9c0.8,1.5,1.4,3.1,1.5,4.9H40V43.9z
	 M65.3,14.8l8.1,29.4l-16,4.2c0-0.1-0.1-0.1-0.2-0.2c-0.2-0.3-0.4-0.6-0.6-0.9c-0.2-0.2-0.4-0.5-0.6-0.7c-0.1-0.1-0.2-0.3-0.4-0.4
	l8.5-2.3c0.4-0.1,0.7-0.4,0.8-0.8l0.2-1c0.5-2.1,0.9-3.8,2.6-4.9c0.4-0.3,0.6-0.7,0.4-1.2L65,24c-0.1-0.5-0.6-0.8-1.1-0.8h-0.4
	c-1.9,0-2.8-0.9-4.1-2.8c-0.3-0.4-0.7-0.6-1.2-0.4l-35.9,9.8c-0.5,0.1-0.8,0.6-0.8,1.1c0,1.7-0.8,3.2-2.2,4.2l-0.5,0.4
	c-0.4,0.3-0.6,0.7-0.5,1.2l3.3,13.1c0,0.1,0.1,0.3,0.2,0.4c0,0,0,0,0,0.1c-0.1,0.2-0.2,0.4-0.2,0.6c-0.1,0.2-0.2,0.5-0.3,0.7
	c-0.1,0.2-0.1,0.4-0.2,0.6c-0.1,0.2-0.1,0.5-0.2,0.7c0,0.2-0.1,0.4-0.1,0.6c0,0.2-0.1,0.5-0.1,0.7c0,0.2-0.1,0.4-0.1,0.6
	c0,0.1,0,0.1,0,0.2h-0.2L13,29.4L65.3,14.8z M23.6,75.5c-2.4,0-4.4-2-4.4-4.4s2-4.4,4.4-4.4s4.4,2,4.4,4.4S26,75.5,23.6,75.5z
	 M59.6,75.5c-2.4,0-4.4-2-4.4-4.4s2-4.4,4.4-4.4c2.4,0,4.4,2,4.4,4.4S62,75.5,59.6,75.5z M66,70C66,70,66,70,66,70
	c-0.1-0.4-0.2-0.7-0.3-1c0-0.1,0-0.1-0.1-0.2c-0.1-0.3-0.3-0.6-0.4-0.9c0,0-0.1-0.1-0.1-0.1c-0.2-0.3-0.4-0.6-0.6-0.8c0,0,0,0,0,0
	c-0.2-0.3-0.5-0.5-0.7-0.7c0,0-0.1-0.1-0.1-0.1c-0.3-0.2-0.5-0.4-0.8-0.6c0,0-0.1-0.1-0.1-0.1c-0.3-0.2-0.6-0.3-0.9-0.4
	c-0.1,0-0.1,0-0.2-0.1c-0.3-0.1-0.6-0.2-1-0.3c0,0-0.1,0-0.1,0c-0.4-0.1-0.7-0.1-1.1-0.1s-0.7,0-1.1,0.1c0,0-0.1,0-0.1,0
	c-0.3,0.1-0.7,0.2-1,0.3c-0.1,0-0.1,0-0.2,0.1c-0.3,0.1-0.6,0.3-0.9,0.4c0,0-0.1,0.1-0.1,0.1c-0.3,0.2-0.6,0.4-0.8,0.6
	c0,0-0.1,0.1-0.1,0.1c-0.3,0.2-0.5,0.5-0.7,0.7c0,0,0,0,0,0c-0.2,0.3-0.4,0.5-0.6,0.8c0,0-0.1,0.1-0.1,0.1c-0.2,0.3-0.3,0.6-0.4,0.9
	c0,0.1,0,0.1-0.1,0.2c-0.1,0.3-0.2,0.6-0.3,1c0,0,0,0,0,0.1h-23c0,0,0,0,0-0.1c-0.1-0.3-0.1-0.7-0.3-1c0-0.1,0-0.1-0.1-0.2
	c-0.1-0.3-0.3-0.6-0.4-0.9c0,0-0.1-0.1-0.1-0.1c-0.2-0.3-0.4-0.6-0.6-0.8c0,0,0,0,0,0c-0.2-0.3-0.5-0.5-0.7-0.7c0,0-0.1-0.1-0.1-0.1
	c-0.3-0.2-0.5-0.4-0.8-0.6c0,0-0.1-0.1-0.1-0.1c-0.3-0.2-0.6-0.3-0.9-0.4c-0.1,0-0.1,0-0.2-0.1c-0.3-0.1-0.6-0.2-1-0.3
	c0,0-0.1,0-0.1,0c-0.4-0.1-0.7-0.1-1.1-0.1c-0.4,0-0.7,0-1.1,0.1c0,0-0.1,0-0.1,0c-0.3,0.1-0.7,0.2-1,0.3c-0.1,0-0.1,0-0.2,0.1
	c-0.3,0.1-0.6,0.3-0.9,0.4c0,0-0.1,0.1-0.1,0.1c-0.3,0.2-0.6,0.4-0.8,0.6c0,0,0,0-0.1,0.1c-0.2,0.2-0.5,0.4-0.7,0.7c0,0,0,0-0.1,0.1
	c-0.2,0.3-0.4,0.5-0.6,0.8c0,0-0.1,0.1-0.1,0.1c-0.2,0.3-0.3,0.6-0.4,0.9c0,0.1,0,0.1-0.1,0.2c-0.1,0.3-0.2,0.6-0.3,1c0,0,0,0,0,0
	c-2.5-0.5-4.5-2.7-4.5-5.4v-2.2c0-3,2.4-5.4,5.4-5.4h1.2h2h37h7.6c3,0,5.6,1.8,6.9,4.4h-0.3c-1.8,0-3.3,1.5-3.3,3.3
	c0,1.8,1.5,3.3,3.3,3.3h1.1V70H66z"/>
<rect x="58.6" y="70.1" width="2" height="2"/>
<rect x="22.6" y="70.1" width="2" height="2"/>
</svg>
