<?xml version="1.0" encoding="utf-8"?>
<!-- Generator: Adobe Illustrator 24.1.2, SVG Export Plug-In . SVG Version: 6.00 Build 0)  -->
<!DOCTYPE svg PUBLIC "-//W3C//DTD SVG 1.1//EN" "http://www.w3.org/Graphics/SVG/1.1/DTD/svg11.dtd" [
	<!ENTITY ns_extend "http://ns.adobe.com/Extensibility/1.0/">
	<!ENTITY ns_ai "http://ns.adobe.com/AdobeIllustrator/10.0/">
	<!ENTITY ns_graphs "http://ns.adobe.com/Graphs/1.0/">
	<!ENTITY ns_vars "http://ns.adobe.com/Variables/1.0/">
	<!ENTITY ns_imrep "http://ns.adobe.com/ImageReplacement/1.0/">
	<!ENTITY ns_sfw "http://ns.adobe.com/SaveForWeb/1.0/">
	<!ENTITY ns_custom "http://ns.adobe.com/GenericCustomNamespace/1.0/">
	<!ENTITY ns_adobe_xpath "http://ns.adobe.com/XPath/1.0/">
]>
<svg version="1.1" xmlns:x="&ns_extend;" xmlns:i="&ns_ai;" xmlns:graph="&ns_graphs;"
	 xmlns="http://www.w3.org/2000/svg" xmlns:xlink="http://www.w3.org/1999/xlink" x="0px" y="0px" viewBox="0 0 246.2 246.2"
	 style="enable-background:new 0 0 246.2 246.2;" xml:space="preserve">
<style type="text/css">
	.st0{display:none;}
	.st1{display:none;fill:#3DFFA5;}
	.st2{fill:#FFFFFF;}
	.st3{display:none;fill:#FFFFFF;}
	.st4{fill:url(#SVGID_1_);}
	.st5{fill:url(#SVGID_2_);}
	.st6{fill:url(#SVGID_3_);}
	.st7{fill:url(#SVGID_4_);}
	.st8{fill:url(#SVGID_5_);}
	.st9{fill:url(#SVGID_6_);}
	.st10{fill:url(#SVGID_7_);}
	.st11{fill:url(#SVGID_8_);}
</style>
<metadata>
	<sfw  xmlns="&ns_sfw;">
		<slices></slices>
		<sliceSourceBounds  bottomLeftOrigin="true" height="246.2" width="246.2" x="-98.1" y="-98.1"></sliceSourceBounds>
	</sfw>
</metadata>
<g id="Layer_2" class="st0">
</g>
<g id="Layer_1">
	<rect class="st1" width="246.2" height="246.2"/>
	<path class="st2" d="M246.2,205.8c0,22.2-18.2,40.4-40.4,40.4H40.4C18.2,246.2,0,228,0,205.8V40.4C0,18.2,18.2,0,40.4,0h164.9
		c22.6,0,40.9,18.2,40.9,40.4V205.8z"/>
	<ellipse class="st3" cx="123.1" cy="117" rx="24.9" ry="25"/>
	<g>
		<g>
			<linearGradient id="SVGID_1_" gradientUnits="userSpaceOnUse" x1="41.8958" y1="115.6288" x2="61.5015" y2="115.6288">
				<stop  offset="0" style="stop-color:#F15A24"/>
				<stop  offset="3.621989e-02" style="stop-color:#F15C24"/>
				<stop  offset="1" style="stop-color:#F7931E"/>
			</linearGradient>
			<polygon class="st4" points="41.9,79.9 41.9,151.4 61.5,141 61.5,91.4 			"/>
			<linearGradient id="SVGID_2_" gradientUnits="userSpaceOnUse" x1="45.0661" y1="174.9745" x2="107.9314" y2="174.9745">
				<stop  offset="0" style="stop-color:#F15A24"/>
				<stop  offset="3.621989e-02" style="stop-color:#F15C24"/>
				<stop  offset="1" style="stop-color:#F7931E"/>
			</linearGradient>
			<polygon class="st5" points="45.1,163.1 107.3,198.3 107.9,176.1 64.7,151.7 			"/>
			<linearGradient id="SVGID_3_" gradientUnits="userSpaceOnUse" x1="123.1518" y1="175.9132" x2="184.8705" y2="175.9132">
				<stop  offset="0" style="stop-color:#8CC63F"/>
				<stop  offset="0.53" style="stop-color:#499121"/>
				<stop  offset="1" style="stop-color:#126608"/>
			</linearGradient>
			<polygon class="st6" points="123.2,199.8 184.9,163.7 166,152 123.2,177.1 			"/>
			<linearGradient id="SVGID_4_" gradientUnits="userSpaceOnUse" x1="172.1842" y1="120.2503" x2="190.6086" y2="120.2503">
				<stop  offset="0" style="stop-color:#F15A24"/>
				<stop  offset="3.621989e-02" style="stop-color:#F15C24"/>
				<stop  offset="1" style="stop-color:#F7931E"/>
			</linearGradient>
			<polygon class="st7" points="190.5,152.6 190.6,88 172.2,106.4 172.2,143.6 			"/>
			<linearGradient id="SVGID_5_" gradientUnits="userSpaceOnUse" x1="47.3155" y1="57.5132" x2="110.8573" y2="57.5132">
				<stop  offset="0" style="stop-color:#F15A24"/>
				<stop  offset="3.621989e-02" style="stop-color:#F15C24"/>
				<stop  offset="1" style="stop-color:#F7931E"/>
			</linearGradient>
			<polygon class="st8" points="110.9,33.4 47.3,70.1 66.2,81.6 110.3,56.1 			"/>
			<linearGradient id="SVGID_6_" gradientUnits="userSpaceOnUse" x1="120.8995" y1="54.2477" x2="171.0629" y2="54.2477">
				<stop  offset="0" style="stop-color:#F15A24"/>
				<stop  offset="3.621989e-02" style="stop-color:#F15C24"/>
				<stop  offset="1" style="stop-color:#F7931E"/>
			</linearGradient>
			<polygon class="st9" points="171.1,63.7 121.3,34.9 120.9,52.9 156.6,73.6 			"/>
			<linearGradient id="SVGID_7_" gradientUnits="userSpaceOnUse" x1="81.1073" y1="98.9063" x2="210.2744" y2="98.9063">
				<stop  offset="0" style="stop-color:#F15A24"/>
				<stop  offset="3.621989e-02" style="stop-color:#F15C24"/>
				<stop  offset="1" style="stop-color:#F7931E"/>
			</linearGradient>
			<polygon class="st10" points="97.3,102.9 81.1,119.1 113.4,152.5 210.3,45.3 114.6,120.2 			"/>
		</g>
		<path class="st2" d="M201.7,178.1c0,24.7-20,44.7-44.7,44.7s-45.7-19-45.7-43.7s21-45.7,45.7-45.7S201.7,153.4,201.7,178.1z"/>
		<g>
			<linearGradient id="SVGID_8_" gradientUnits="userSpaceOnUse" x1="118.863" y1="178.052" x2="194.0999" y2="178.052">
				<stop  offset="0" style="stop-color:#F15A24"/>
				<stop  offset="3.621989e-02" style="stop-color:#F15C24"/>
				<stop  offset="1" style="stop-color:#F7931E"/>
			</linearGradient>
			<path class="st11" d="M156.5,140.4c-20.7,0-37.6,16.8-37.6,37.6c0,20.7,16.9,37.6,37.6,37.6s37.6-16.9,37.6-37.6
				C194.1,157.2,177.2,140.4,156.5,140.4z"/>
		</g>
		<g>
			<path class="st2" d="M132.9,179.5c0-3.5,0-6.9,0-10.4c0-2.7,1.5-4.4,3.7-4.4c2.2,0,3.7,1.8,3.7,4.4c0,6.8,0,13.7,0,20.5
				c0,2.6,1.4,4.6,3.6,5.4c2.6,0.9,5.4-0.3,6.6-2.8c1.2-2.5,0.4-5.3-2-6.8c-1.2-0.8-2.2-1.6-2.4-3.1c-0.2-1.5,0.3-2.8,1.6-3.6
				c1.3-0.9,2.7-0.8,4.1,0c4.6,2.5,7.1,7.5,6.5,13c-0.6,4.9-4.4,9.2-9.3,10.5c-8.1,2.2-16-3.8-16.2-12.2
				C132.9,186.6,132.9,183.1,132.9,179.5z"/>
			<path class="st2" d="M184.9,188.8c0.1,2.9-1,4.6-3.2,4.9c-2.4,0.3-4.2-1.4-4.3-4.1c-0.1-4.9-1.1-9.6-3.4-13.9
				c-5.1-9.8-13.3-15.5-24.2-17.2c-2.7-0.4-4-2-3.7-4.4c0.3-2.1,2.1-3.3,4.6-3C169.7,153.4,184.6,169.8,184.9,188.8z"/>
			<path class="st2" d="M171.8,188.6c-0.1,1,0,1.8-0.2,2.5c-0.5,1.7-2.1,2.7-3.9,2.5c-1.7-0.2-3-1.4-3.3-3.2
				c-0.2-1.7-0.2-3.5-0.7-5.1c-2-7.3-6.9-11.9-14.3-13.6c-1.7-0.4-2.8-1.3-3.2-2.9c-0.5-2.5,1.4-4.7,3.9-4.4
				c1.8,0.2,3.6,0.7,5.3,1.4C165.5,170.2,170.7,178,171.8,188.6z"/>
		</g>
	</g>
</g>
</svg>
