<?xml version="1.0" encoding="utf-8"?>
<!-- Generator: Adobe Illustrator 23.0.3, SVG Export Plug-In . SVG Version: 6.00 Build 0)  -->
<!DOCTYPE svg PUBLIC "-//W3C//DTD SVG 1.1//EN" "http://www.w3.org/Graphics/SVG/1.1/DTD/svg11.dtd" [
	<!ENTITY ns_extend "http://ns.adobe.com/Extensibility/1.0/">
	<!ENTITY ns_ai "http://ns.adobe.com/AdobeIllustrator/10.0/">
	<!ENTITY ns_graphs "http://ns.adobe.com/Graphs/1.0/">
	<!ENTITY ns_vars "http://ns.adobe.com/Variables/1.0/">
	<!ENTITY ns_imrep "http://ns.adobe.com/ImageReplacement/1.0/">
	<!ENTITY ns_sfw "http://ns.adobe.com/SaveForWeb/1.0/">
	<!ENTITY ns_custom "http://ns.adobe.com/GenericCustomNamespace/1.0/">
	<!ENTITY ns_adobe_xpath "http://ns.adobe.com/XPath/1.0/">
]>
<svg version="1.1" id="Layer_1" xmlns:x="&ns_extend;" xmlns:i="&ns_ai;" xmlns:graph="&ns_graphs;"
	 xmlns="http://www.w3.org/2000/svg" xmlns:xlink="http://www.w3.org/1999/xlink" x="0px" y="0px" viewBox="0 0 40.7 38.9"
	 style="enable-background:new 0 0 40.7 38.9;" xml:space="preserve">
<style type="text/css">
	.st0{fill:#606060;}
</style>
<metadata>
	<sfw  xmlns="&ns_sfw;">
		<slices></slices>
		<sliceSourceBounds  bottomLeftOrigin="true" height="38.8" width="40.7" x="-13.2" y="14.2"></sliceSourceBounds>
	</sfw>
</metadata>
<polygon class="st0" points="18.6,0.1 18.6,4.9 26.9,9.7 30.5,7 "/>
<polygon class="st0" points="16.2,0.1 16.2,4.9 5.5,11.2 1.2,8.7 "/>
<polygon class="st0" points="0,10.8 4.2,13.2 4.2,25.4 0,27.8 "/>
<polygon class="st0" points="1,30 5.1,27.6 16.1,33.9 16.1,38.9 "/>
<polygon class="st0" points="18.6,38.9 18.6,34 29.7,27.6 33.9,30 "/>
<polygon class="st0" points="34.7,12.7 34.7,27.7 30.6,25.3 30.6,17.3 "/>
<polygon class="st0" points="13.8,16.3 9.9,20.1 17.6,28 40.8,2.2 17.7,20.2 "/>
</svg>
