<?xml version="1.0" encoding="utf-8"?>
<!-- Generator: Adobe Illustrator 24.1.2, SVG Export Plug-In . SVG Version: 6.00 Build 0)  -->
<!DOCTYPE svg PUBLIC "-//W3C//DTD SVG 1.1//EN" "http://www.w3.org/Graphics/SVG/1.1/DTD/svg11.dtd" [
	<!ENTITY ns_extend "http://ns.adobe.com/Extensibility/1.0/">
	<!ENTITY ns_ai "http://ns.adobe.com/AdobeIllustrator/10.0/">
	<!ENTITY ns_graphs "http://ns.adobe.com/Graphs/1.0/">
	<!ENTITY ns_vars "http://ns.adobe.com/Variables/1.0/">
	<!ENTITY ns_imrep "http://ns.adobe.com/ImageReplacement/1.0/">
	<!ENTITY ns_sfw "http://ns.adobe.com/SaveForWeb/1.0/">
	<!ENTITY ns_custom "http://ns.adobe.com/GenericCustomNamespace/1.0/">
	<!ENTITY ns_adobe_xpath "http://ns.adobe.com/XPath/1.0/">
]>
<svg version="1.1" xmlns:x="&ns_extend;" xmlns:i="&ns_ai;" xmlns:graph="&ns_graphs;"
	 xmlns="http://www.w3.org/2000/svg" xmlns:xlink="http://www.w3.org/1999/xlink" x="0px" y="0px" viewBox="0 0 246.2 246.2"
	 style="enable-background:new 0 0 246.2 246.2;" xml:space="preserve">
<style type="text/css">
	.st0{display:none;}
	.st1{display:none;fill:#3DFFA5;}
	.st2{fill:#FFFFFF;}
	.st3{display:none;fill:#FFFFFF;}
	.st4{fill:url(#SVGID_1_);}
	.st5{fill:url(#SVGID_2_);}
	.st6{fill:url(#SVGID_3_);}
	.st7{fill:url(#SVGID_4_);}
	.st8{fill:url(#SVGID_5_);}
	.st9{fill:url(#SVGID_6_);}
	.st10{fill:url(#SVGID_7_);}
	.st11{fill:url(#SVGID_8_);}
	.st12{fill:url(#SVGID_9_);}
</style>
<metadata>
	<sfw  xmlns="&ns_sfw;">
		<slices></slices>
		<sliceSourceBounds  bottomLeftOrigin="true" height="246.2" width="246.2" x="-98.1" y="-98.1"></sliceSourceBounds>
	</sfw>
</metadata>
<g id="Layer_2" class="st0">
</g>
<g id="Layer_1">
	<rect class="st1" width="246.2" height="246.2"/>
	<path class="st2" d="M246.2,205.8c0,22.2-18.2,40.4-40.4,40.4H40.4C18.2,246.2,0,228,0,205.8V40.4C0,18.2,18.2,0,40.4,0h164.9
		c22.6,0,40.9,18.2,40.9,40.4V205.8z"/>
	<ellipse class="st3" cx="123.1" cy="117" rx="24.9" ry="25"/>
	<g>
		<g>
			<linearGradient id="SVGID_1_" gradientUnits="userSpaceOnUse" x1="41.2839" y1="115.1771" x2="61.48" y2="115.1771">
				<stop  offset="0" style="stop-color:#ED1E79"/>
				<stop  offset="0.573" style="stop-color:#9D2787"/>
				<stop  offset="1" style="stop-color:#662D91"/>
			</linearGradient>
			<polygon class="st4" points="41.3,78.3 41.3,152 61.5,141.3 61.5,90.2 			"/>
			<linearGradient id="SVGID_2_" gradientUnits="userSpaceOnUse" x1="44.5497" y1="176.3099" x2="109.3082" y2="176.3099">
				<stop  offset="0" style="stop-color:#ED1E79"/>
				<stop  offset="0.573" style="stop-color:#9D2787"/>
				<stop  offset="1" style="stop-color:#662D91"/>
			</linearGradient>
			<polygon class="st5" points="44.5,164.1 108.7,200.3 109.3,177.4 64.8,152.3 			"/>
			<linearGradient id="SVGID_3_" gradientUnits="userSpaceOnUse" x1="124.9869" y1="177.2769" x2="188.5642" y2="177.2769">
				<stop  offset="0" style="stop-color:#8CC63F"/>
				<stop  offset="0.53" style="stop-color:#499121"/>
				<stop  offset="1" style="stop-color:#126608"/>
			</linearGradient>
			<polygon class="st6" points="125,201.9 188.6,164.7 169.1,152.7 125,178.5 			"/>
			<linearGradient id="SVGID_4_" gradientUnits="userSpaceOnUse" x1="175.4959" y1="119.9378" x2="194.4751" y2="119.9378">
				<stop  offset="0" style="stop-color:#ED1E79"/>
				<stop  offset="0.573" style="stop-color:#9D2787"/>
				<stop  offset="1" style="stop-color:#662D91"/>
			</linearGradient>
			<polygon class="st7" points="194.4,153.2 194.5,86.7 175.5,105.7 175.5,144 			"/>
			<linearGradient id="SVGID_5_" gradientUnits="userSpaceOnUse" x1="46.8668" y1="55.3113" x2="112.3222" y2="55.3113">
				<stop  offset="0" style="stop-color:#ED1E79"/>
				<stop  offset="0.573" style="stop-color:#9D2787"/>
				<stop  offset="1" style="stop-color:#662D91"/>
			</linearGradient>
			<polygon class="st8" points="112.3,30.5 46.9,68.3 66.4,80.1 111.8,53.9 			"/>
			<linearGradient id="SVGID_6_" gradientUnits="userSpaceOnUse" x1="122.6667" y1="51.9475" x2="174.3409" y2="51.9475">
				<stop  offset="0" style="stop-color:#ED1E79"/>
				<stop  offset="0.573" style="stop-color:#9D2787"/>
				<stop  offset="1" style="stop-color:#662D91"/>
			</linearGradient>
			<polygon class="st9" points="174.3,61.7 123.1,32 122.7,50.5 159.5,71.8 			"/>
			<linearGradient id="SVGID_7_" gradientUnits="userSpaceOnUse" x1="81.6762" y1="97.951" x2="214.7332" y2="97.951">
				<stop  offset="0" style="stop-color:#ED1E79"/>
				<stop  offset="0.573" style="stop-color:#9D2787"/>
				<stop  offset="1" style="stop-color:#662D91"/>
			</linearGradient>
			<polygon class="st10" points="98.3,102.1 81.7,118.7 114.9,153.2 214.7,42.7 116.1,119.9 			"/>
		</g>
		<path class="st2" d="M205.9,179.5c0,25.4-20.6,46-46,46s-47.1-19.6-47.1-45s21.6-47.1,47.1-47.1S205.9,154.1,205.9,179.5z"/>
		<g>
			<linearGradient id="SVGID_8_" gradientUnits="userSpaceOnUse" x1="120.5689" y1="179.4801" x2="198.0715" y2="179.4801">
				<stop  offset="0" style="stop-color:#ED1E79"/>
				<stop  offset="0.573" style="stop-color:#9D2787"/>
				<stop  offset="1" style="stop-color:#662D91"/>
			</linearGradient>
			<path class="st11" d="M159.3,140.7c-21.4,0-38.8,17.3-38.8,38.8c0,21.4,17.4,38.8,38.8,38.8s38.8-17.4,38.8-38.8
				C198.1,158,180.7,140.7,159.3,140.7z M159.1,206.5c-5.2,0-10-1.6-14.1-4c-0.3-0.3-0.8-0.3-1.2-0.3l-9,1.8
				c-0.5,0.1-0.9-0.3-0.8-0.9l2.6-7.8c0.2-0.4,0.1-1-0.2-1.5c-2.7-4.1-4.2-9.1-4.2-14.5c0-14.9,12.1-27,27-27s27.1,12.1,27,27.1
				C186.3,194.6,174.1,206.6,159.1,206.5z"/>
		</g>
	</g>
	<g>
		<linearGradient id="SVGID_9_" gradientUnits="userSpaceOnUse" x1="147.9938" y1="181.3522" x2="170.4748" y2="181.3522">
			<stop  offset="0" style="stop-color:#ED1E79"/>
			<stop  offset="0.573" style="stop-color:#9D2787"/>
			<stop  offset="1" style="stop-color:#662D91"/>
		</linearGradient>
		<path class="st12" d="M154.5,173.5c0,0.9-0.2,1.5-0.6,1.9c-0.4,0.4-1,0.6-1.9,0.6h-1.7c-0.9,0-1.5-0.2-1.9-0.6
			c-0.4-0.4-0.6-1-0.6-1.9c0-2.7,0.4-4.9,1.3-6.4c1-1.7,2.3-3,4-3.9c1.7-1,3.5-1.4,5.5-1.4c3.5,0,6.3,0.8,8.2,2.4
			c2.3,1.9,3.4,4.4,3.4,7.6c0,4.9-2.1,8.6-6.3,11c-1.1,0.6-1.6,1.4-1.6,2.4c0,0.9-0.2,1.6-0.6,1.9c-0.4,0.4-1,0.6-1.9,0.6h-1.7
			c-0.9,0-1.5-0.2-1.9-0.6c-0.4-0.4-0.6-1-0.6-1.9V184c0-1.5,0.4-2.7,1.2-3.6c0.2-0.3,0.4-0.6,0.7-0.8c0.3-0.2,0.5-0.4,0.7-0.5
			c0.2-0.1,0.4-0.2,0.7-0.4c0.3-0.2,0.6-0.3,0.7-0.4c1.4-0.8,2.4-1.6,2.9-2.2c0.7-0.9,1.1-2,1.1-3.3c0-1.4-0.4-2.5-1.3-3.3
			c-0.9-0.8-2-1.2-3.5-1.2c-1.3,0-2.4,0.5-3.4,1.4C155,170.7,154.5,172,154.5,173.5z M163.3,196.6c0,1.3-0.2,2.3-0.5,2.8
			c-0.7,1-1.8,1.4-3.5,1.4c-1.6,0-2.8-0.5-3.4-1.4c-0.3-0.6-0.5-1.5-0.5-2.8c0-1.3,0.2-2.3,0.5-2.8c0.6-1,1.7-1.4,3.4-1.4
			c1.7,0,2.8,0.5,3.5,1.4C163.1,194.4,163.3,195.3,163.3,196.6z"/>
	</g>
</g>
</svg>
