<?xml version="1.0" encoding="utf-8"?>
<!-- Generator: Adobe Illustrator 23.0.1, SVG Export Plug-In . SVG Version: 6.00 Build 0)  -->
<svg version="1.1" id="Layer_1" xmlns="http://www.w3.org/2000/svg" xmlns:xlink="http://www.w3.org/1999/xlink" x="0px" y="0px"
	 viewBox="0 0 315.1 216.7" style="enable-background:new 0 0 315.1 216.7;" xml:space="preserve">
<style type="text/css">
	.st0{fill:#ED1C24;}
	.st1{fill:#010101;}
	.st2{fill:#FFFFFF;}
</style>
<g>
	<g>
		<g>
			<g>
				<polygon class="st0" points="242.5,216.1 241.1,216.1 241.1,215.6 241.9,215.6 241.9,214.7 242.5,214.7 				"/>
			</g>
		</g>
		<g>
			<g>
				<path class="st0" d="M238.8,216.4h-2.3v0.3h2.3V216.4z M234.2,216.4h-2.3v0.3h2.3V216.4z M229.6,216.4h-2.3v0.3h2.3V216.4z
					 M225.1,216.4h-2.3v0.3h2.3V216.4z M220.5,216.4h-2.3v0.3h2.3V216.4z M216,216.4h-2.3v0.3h2.3V216.4z M211.4,216.4h-2.3v0.3h2.3
					V216.4z M206.8,216.4h-2.3v0.3h2.3V216.4z M202.3,216.4H200v0.3h2.3V216.4z M197.7,216.4h-2.3v0.3h2.3V216.4z M193.1,216.4h-2.3
					v0.3h2.3V216.4z M188.6,216.4h-2.3v0.3h2.3V216.4z M184,216.4h-2.3v0.3h2.3V216.4z M179.4,216.4h-2.3v0.3h2.3V216.4z
					 M174.9,216.4h-2.3v0.3h2.3V216.4z M170.3,216.4H168v0.3h2.3V216.4z M165.7,216.4h-2.3v0.3h2.3V216.4z M161.2,216.4h-2.3v0.3
					h2.3V216.4z M156.6,216.4h-2.3v0.3h2.3V216.4z M152.1,216.4h-2.3v0.3h2.3V216.4z M147.5,216.4h-2.3v0.3h2.3V216.4z M142.9,216.4
					h-2.3v0.3h2.3V216.4z M138.4,216.4h-2.3v0.3h2.3V216.4z M133.8,216.4h-2.3v0.3h2.3V216.4z M129.2,216.4h-2.3v0.3h2.3V216.4z
					 M124.7,216.4h-2.3v0.3h2.3V216.4z M120.1,216.4h-2.3v0.3h2.3V216.4z M115.5,216.4h-2.3v0.3h2.3V216.4z M111,216.4h-2.3v0.3h2.3
					V216.4z M106.4,216.4h-2.3v0.3h2.3V216.4z M101.8,216.4h-2.3v0.3h2.3V216.4z M97.3,216.4H95v0.3h2.3V216.4z M92.7,216.4h-2.3
					v0.3h2.3V216.4z M88.1,216.4h-2.3v0.3h2.3V216.4z M83.6,216.4h-2.3v0.3h2.3V216.4z M79,216.4h-2.3v0.3H79V216.4z M74.5,216.4
					h-2.3v0.3h2.3V216.4z M69.9,216.4h-2.3v0.3h2.3V216.4z M65.3,216.4H63v0.3h2.3V216.4z M60.8,216.4h-2.3v0.3h2.3V216.4z
					 M56.2,216.4h-2.3v0.3h2.3V216.4z M51.6,216.4h-2.3v0.3h2.3V216.4z M47.1,216.4h-2.3v0.3h2.3V216.4z M42.5,216.4h-2.3v0.3h2.3
					V216.4z M37.9,216.4h-2.3v0.3h2.3V216.4z M33.4,216.4h-2.3v0.3h2.3V216.4z M28.8,216.4h-2.3v0.3h2.3V216.4z M24.2,216.4H22v0.3
					h2.3V216.4z M19.7,216.4h-2.3v0.3h2.3V216.4z M15.1,216.4h-2.3v0.3h2.3V216.4z M10.6,216.4H8.3v0.3h2.3V216.4z M6,216.4H3.7v0.3
					H6V216.4z"/>
			</g>
		</g>
		<g>
			<g>
				<polygon class="st0" points="1.4,216.1 0,216.1 0,214.7 0.6,214.7 0.6,215.6 1.4,215.6 				"/>
			</g>
		</g>
		<g>
			<g>
				<path class="st0" d="M0.6,212.4H0v-2.3h0.6V212.4z M0.6,207.9H0v-2.3h0.6V207.9z M0.6,203.3H0V201h0.6V203.3z M0.6,198.7H0v-2.3
					h0.6V198.7z M0.6,194.2H0v-2.3h0.6V194.2z M0.6,189.6H0v-2.3h0.6V189.6z M0.6,185.1H0v-2.3h0.6V185.1z M0.6,180.5H0v-2.3h0.6
					V180.5z M0.6,176H0v-2.3h0.6V176z M0.6,171.4H0v-2.3h0.6V171.4z M0.6,166.9H0v-2.3h0.6V166.9z M0.6,162.3H0V160h0.6V162.3z
					 M0.6,157.7H0v-2.3h0.6V157.7z M0.6,153.2H0v-2.3h0.6V153.2z M0.6,148.6H0v-2.3h0.6V148.6z M0.6,144.1H0v-2.3h0.6V144.1z
					 M0.6,139.5H0v-2.3h0.6V139.5z M0.6,135H0v-2.3h0.6V135z M0.6,130.4H0v-2.3h0.6V130.4z M0.6,125.8H0v-2.3h0.6V125.8z M0.6,121.3
					H0V119h0.6V121.3z M0.6,116.7H0v-2.3h0.6V116.7z M0.6,112.2H0v-2.3h0.6V112.2z M0.6,107.6H0v-2.3h0.6V107.6z M0.6,103.1H0v-2.3
					h0.6V103.1z M0.6,98.5H0v-2.3h0.6V98.5z M0.6,93.9H0v-2.3h0.6V93.9z M0.6,89.4H0v-2.3h0.6V89.4z M0.6,84.8H0v-2.3h0.6V84.8z
					 M0.6,80.3H0V78h0.6V80.3z M0.6,75.7H0v-2.3h0.6V75.7z M0.6,71.2H0v-2.3h0.6V71.2z M0.6,66.6H0v-2.3h0.6V66.6z M0.6,62H0v-2.3
					h0.6V62z M0.6,57.5H0v-2.3h0.6V57.5z M0.6,52.9H0v-2.3h0.6V52.9z M0.6,48.4H0v-2.3h0.6V48.4z M0.6,43.8H0v-2.3h0.6V43.8z
					 M0.6,39.3H0V37h0.6V39.3z M0.6,34.7H0v-2.3h0.6V34.7z M0.6,30.1H0v-2.3h0.6V30.1z M0.6,25.6H0v-2.3h0.6V25.6z M0.6,21H0v-2.3
					h0.6V21z M0.6,16.5H0v-2.3h0.6V16.5z M0.6,11.9H0V9.6h0.6V11.9z M0.6,7.4H0V5.1h0.6V7.4z"/>
			</g>
		</g>
		<g>
			<g>
				<polygon class="st0" points="0.6,2.8 0,2.8 0,1.4 1.4,1.4 1.4,1.9 0.6,1.9 				"/>
			</g>
		</g>
		<g>
			<g>
				<path class="st0" d="M238.8,0h-2.3v0.5h2.3V0z M234.2,0h-2.3v0.5h2.3V0z M229.6,0h-2.3v0.5h2.3V0z M225.1,0h-2.3v0.5h2.3V0z
					 M220.5,0h-2.3v0.5h2.3V0z M216,0h-2.3v0.5h2.3V0z M211.4,0h-2.3v0.5h2.3V0z M206.8,0h-2.3v0.5h2.3V0z M202.3,0H200v0.5h2.3V0z
					 M197.7,0h-2.3v0.5h2.3V0z M193.1,0h-2.3v0.5h2.3V0z M188.6,0h-2.3v0.5h2.3V0z M184,0h-2.3v0.5h2.3V0z M179.4,0h-2.3v0.5h2.3V0z
					 M174.9,0h-2.3v0.5h2.3V0z M170.3,0H168v0.5h2.3V0z M165.7,0h-2.3v0.5h2.3V0z M161.2,0h-2.3v0.5h2.3V0z M156.6,0h-2.3v0.5h2.3V0
					z M152.1,0h-2.3v0.5h2.3V0z M147.5,0h-2.3v0.5h2.3V0z M142.9,0h-2.3v0.5h2.3V0z M138.4,0h-2.3v0.5h2.3V0z M133.8,0h-2.3v0.5h2.3
					V0z M129.2,0h-2.3v0.5h2.3V0z M124.7,0h-2.3v0.5h2.3V0z M120.1,0h-2.3v0.5h2.3V0z M115.5,0h-2.3v0.5h2.3V0z M111,0h-2.3v0.5h2.3
					V0z M106.4,0h-2.3v0.5h2.3V0z M101.8,0h-2.3v0.5h2.3V0z M97.3,0H95v0.5h2.3V0z M92.7,0h-2.3v0.5h2.3V0z M88.1,0h-2.3v0.5h2.3V0z
					 M83.6,0h-2.3v0.5h2.3V0z M79,0h-2.3v0.5H79V0z M74.5,0h-2.3v0.5h2.3V0z M69.9,0h-2.3v0.5h2.3V0z M65.3,0H63v0.5h2.3V0z M60.8,0
					h-2.3v0.5h2.3V0z M56.2,0h-2.3v0.5h2.3V0z M51.6,0h-2.3v0.5h2.3V0z M47.1,0h-2.3v0.5h2.3V0z M42.5,0h-2.3v0.5h2.3V0z M37.9,0
					h-2.3v0.5h2.3V0z M33.4,0h-2.3v0.5h2.3V0z M28.8,0h-2.3v0.5h2.3V0z M24.2,0H22v0.5h2.3V0z M19.7,0h-2.3v0.5h2.3V0z M15.1,0h-2.3
					v0.5h2.3V0z M10.6,0H8.3v0.5h2.3V0z M6,0H3.7v0.5H6V0z"/>
			</g>
		</g>
		<g>
			<g>
				<polygon class="st0" points="242.5,2.8 241.9,2.8 241.9,1.9 241.1,1.9 241.1,1.4 242.5,1.4 				"/>
			</g>
		</g>
		<g>
			<g>
				<path class="st0" d="M242.5,212.4h-0.6v-2.3h0.6V212.4z M242.5,207.9h-0.6v-2.3h0.6V207.9z M242.5,203.3h-0.6V201h0.6V203.3z
					 M242.5,198.7h-0.6v-2.3h0.6V198.7z M242.5,194.2h-0.6v-2.3h0.6V194.2z M242.5,189.6h-0.6v-2.3h0.6V189.6z M242.5,185.1h-0.6
					v-2.3h0.6V185.1z M242.5,180.5h-0.6v-2.3h0.6V180.5z M242.5,176h-0.6v-2.3h0.6V176z M242.5,171.4h-0.6v-2.3h0.6V171.4z
					 M242.5,166.9h-0.6v-2.3h0.6V166.9z M242.5,162.3h-0.6V160h0.6V162.3z M242.5,157.7h-0.6v-2.3h0.6V157.7z M242.5,153.2h-0.6
					v-2.3h0.6V153.2z M242.5,148.6h-0.6v-2.3h0.6V148.6z M242.5,144.1h-0.6v-2.3h0.6V144.1z M242.5,139.5h-0.6v-2.3h0.6V139.5z
					 M242.5,135h-0.6v-2.3h0.6V135z M242.5,130.4h-0.6v-2.3h0.6V130.4z M242.5,125.8h-0.6v-2.3h0.6V125.8z M242.5,121.3h-0.6V119
					h0.6V121.3z M242.5,116.7h-0.6v-2.3h0.6V116.7z M242.5,112.2h-0.6v-2.3h0.6V112.2z M242.5,107.6h-0.6v-2.3h0.6V107.6z
					 M242.5,103.1h-0.6v-2.3h0.6V103.1z M242.5,98.5h-0.6v-2.3h0.6V98.5z M242.5,93.9h-0.6v-2.3h0.6V93.9z M242.5,89.4h-0.6v-2.3
					h0.6V89.4z M242.5,84.8h-0.6v-2.3h0.6V84.8z M242.5,80.3h-0.6V78h0.6V80.3z M242.5,75.7h-0.6v-2.3h0.6V75.7z M242.5,71.2h-0.6
					v-2.3h0.6V71.2z M242.5,66.6h-0.6v-2.3h0.6V66.6z M242.5,62h-0.6v-2.3h0.6V62z M242.5,57.5h-0.6v-2.3h0.6V57.5z M242.5,52.9
					h-0.6v-2.3h0.6V52.9z M242.5,48.4h-0.6v-2.3h0.6V48.4z M242.5,43.8h-0.6v-2.3h0.6V43.8z M242.5,39.3h-0.6V37h0.6V39.3z
					 M242.5,34.7h-0.6v-2.3h0.6V34.7z M242.5,30.1h-0.6v-2.3h0.6V30.1z M242.5,25.6h-0.6v-2.3h0.6V25.6z M242.5,21h-0.6v-2.3h0.6V21
					z M242.5,16.5h-0.6v-2.3h0.6V16.5z M242.5,11.9h-0.6V9.6h0.6V11.9z M242.5,7.4h-0.6V5.1h0.6V7.4z"/>
			</g>
		</g>
	</g>
	<g>
		<g>
			<rect x="121.7" y="47.7" width="176.1" height="0.4"/>
		</g>
	</g>
	<g>
		<g>
			<rect x="121.7" y="140" width="176.1" height="0.4"/>
		</g>
	</g>
	<g>
		<g>
			<path d="M312.8,100.8l-2-3.4c-0.8-1.3-1.3-2.2-1.8-3.1h0c-0.4,0.9-0.9,1.7-1.7,3.1l-1.9,3.4h-2.3l4.8-7.9l-4.6-7.7h2.3l2.1,3.7
				c0.6,1,1,1.8,1.4,2.6h0.1c0.4-0.9,0.8-1.6,1.4-2.6l2.1-3.7h2.3l-4.7,7.6l4.9,8H312.8z"/>
		</g>
	</g>
	<g>
		<path class="st0" d="M12.2,145.3v-4.8h0l-1,0.5l-0.2-0.8l1.4-0.6h0.9v5.7H12.2z M12.2,149.3l5.5-9.8h0.8l-5.5,9.8H12.2z
			 M16.9,148.6l0.9-0.9c1.2-1.1,1.8-1.8,1.8-2.5c0-0.6-0.3-1-1.1-1c-0.5,0-0.9,0.3-1.2,0.5L17,144c0.4-0.3,1-0.6,1.8-0.6
			c1.4,0,1.9,0.9,1.9,1.6c0,1.1-0.8,1.9-1.9,2.9l-0.5,0.4v0h2.5v0.8h-3.9V148.6z"/>
		<path class="st0" d="M31.1,149.2l-1.3-2.2c-0.5-0.8-0.8-1.4-1.1-1.9h0c-0.3,0.6-0.6,1.1-1.1,2l-1.2,2.2H25l3-5l-2.9-4.8h1.5
			l1.3,2.3c0.4,0.6,0.6,1.1,0.9,1.7h0c0.3-0.6,0.5-1,0.9-1.7l1.3-2.3h1.5l-3,4.8l3.1,5H31.1z"/>
	</g>
	<g>
		<path class="st0" d="M110.4,196.4v-4.8h0l-1,0.5l-0.2-0.8l1.4-0.6h0.9v5.7H110.4z M110.5,200.4l5.5-9.8h0.8l-5.5,9.8H110.5z
			 M115.1,199.7l0.9-0.9c1.2-1.1,1.8-1.8,1.8-2.5c0-0.6-0.3-1-1.1-1c-0.5,0-0.9,0.3-1.2,0.5l-0.3-0.7c0.4-0.3,1-0.6,1.8-0.6
			c1.4,0,1.9,0.9,1.9,1.6c0,1.1-0.8,1.9-1.9,2.9l-0.5,0.4v0h2.5v0.8h-3.9V199.7z"/>
		<path class="st0" d="M129.3,200.3l-1.3-2.2c-0.5-0.8-0.8-1.4-1.1-1.9h0c-0.3,0.6-0.6,1.1-1.1,2l-1.2,2.2h-1.5l3-5l-2.9-4.8h1.5
			l1.3,2.3c0.4,0.6,0.6,1.1,0.9,1.7h0c0.3-0.6,0.5-1,0.9-1.7l1.3-2.3h1.5l-3,4.8l3.1,5H129.3z"/>
	</g>
	<g>
		<path class="st0" d="M208.5,165.8V161h0l-1,0.5l-0.2-0.8l1.4-0.6h0.9v5.7H208.5z M208.6,169.9l5.5-9.8h0.8l-5.5,9.8H208.6z
			 M213.3,169.2l0.9-0.9c1.2-1.1,1.8-1.8,1.8-2.5c0-0.6-0.3-1-1.1-1c-0.5,0-0.9,0.3-1.2,0.5l-0.3-0.7c0.4-0.3,1-0.6,1.8-0.6
			c1.4,0,1.9,0.9,1.9,1.6c0,1.1-0.8,1.9-1.9,2.9l-0.5,0.4v0h2.5v0.8h-3.9V169.2z"/>
		<path class="st0" d="M227.5,169.7l-1.3-2.2c-0.5-0.8-0.8-1.4-1.1-1.9h0c-0.3,0.6-0.6,1.1-1.1,2l-1.2,2.2h-1.5l3-5l-2.9-4.8h1.5
			l1.3,2.3c0.4,0.6,0.6,1.1,0.9,1.7h0c0.3-0.6,0.5-1,0.9-1.7l1.3-2.3h1.5l-3,4.8l3.1,5H227.5z"/>
	</g>
	<g>
		<path class="st0" d="M126.4,25.5v-4.8h0l-1,0.5l-0.2-0.8l1.4-0.6h0.9v5.7H126.4z M126.5,29.6l5.5-9.8h0.8l-5.5,9.8H126.5z
			 M131.2,28.9l0.9-0.9c1.2-1.1,1.8-1.8,1.8-2.5c0-0.6-0.3-1-1.1-1c-0.5,0-0.9,0.3-1.2,0.5l-0.3-0.7c0.4-0.3,1-0.6,1.8-0.6
			c1.4,0,1.9,0.9,1.9,1.6c0,1.1-0.8,1.9-1.9,2.9l-0.5,0.4v0h2.5v0.8h-3.9V28.9z"/>
		<path class="st0" d="M145.4,29.4l-1.3-2.2c-0.5-0.8-0.8-1.4-1.1-1.9h0c-0.3,0.6-0.6,1.1-1.1,2l-1.2,2.2h-1.5l3-5l-2.9-4.8h1.5
			l1.3,2.3c0.4,0.6,0.6,1.1,0.9,1.7h0c0.3-0.6,0.5-1,0.9-1.7l1.3-2.3h1.5l-3,4.8l3.1,5H145.4z"/>
	</g>
	<g>
		<g>
			<g>
				<g>
					<rect x="105.2" y="169.9" class="st0" width="0.6" height="1.1"/>
				</g>
			</g>
			<g>
				<g>
					<path class="st0" d="M105.8,212.2h-0.6v-2.3h0.6V212.2z M105.8,207.6h-0.6v-2.3h0.6V207.6z M105.8,203h-0.6v-2.3h0.6V203z
						 M105.8,198.5h-0.6v-2.3h0.6V198.5z M105.8,193.9h-0.6v-2.3h0.6V193.9z M105.8,189.3h-0.6V187h0.6V189.3z M105.8,184.8h-0.6
						v-2.3h0.6V184.8z M105.8,180.2h-0.6v-2.3h0.6V180.2z M105.8,175.6h-0.6v-2.3h0.6V175.6z"/>
				</g>
			</g>
			<g>
				<g>
					<rect x="105.2" y="214.5" class="st0" width="0.6" height="1.1"/>
				</g>
			</g>
		</g>
		<g>
			<g>
				<g>
					<rect x="102.8" y="169.9" class="st0" width="5.3" height="0.9"/>
				</g>
			</g>
		</g>
		<g>
			<g>
				<g>
					<rect x="102.8" y="215.8" class="st0" width="5.3" height="0.9"/>
				</g>
			</g>
		</g>
	</g>
	<g>
		<g>
			<g>
				<g>
					<rect x="121.1" y="2.1" class="st0" width="0.6" height="1.1"/>
				</g>
			</g>
			<g>
				<g>
					<path class="st0" d="M121.7,44.4h-0.6v-2.3h0.6V44.4z M121.7,39.8h-0.6v-2.3h0.6V39.8z M121.7,35.2h-0.6V33h0.6V35.2z
						 M121.7,30.7h-0.6v-2.3h0.6V30.7z M121.7,26.1h-0.6v-2.3h0.6V26.1z M121.7,21.5h-0.6v-2.3h0.6V21.5z M121.7,17h-0.6v-2.3h0.6
						V17z M121.7,12.4h-0.6v-2.3h0.6V12.4z M121.7,7.8h-0.6V5.5h0.6V7.8z"/>
				</g>
			</g>
			<g>
				<g>
					<rect x="121.1" y="46.7" class="st0" width="0.6" height="1.1"/>
				</g>
			</g>
		</g>
		<g>
			<g>
				<g>
					<rect x="118.8" class="st0" width="5.3" height="0.9"/>
				</g>
			</g>
		</g>
		<g>
			<g>
				<g>
					<rect x="118.8" y="46.4" class="st0" width="5.3" height="0.9"/>
				</g>
			</g>
		</g>
	</g>
	<g>
		<g>
			<g>
				<g>
					<rect x="45.5" y="154.2" class="st0" width="1.1" height="0.6"/>
				</g>
			</g>
			<g>
				<g>
					<path class="st0" d="M43.2,154.7h-2.3v-0.6h2.3V154.7z M38.6,154.7h-2.3v-0.6h2.3V154.7z M34.1,154.7h-2.3v-0.6h2.3V154.7z
						 M29.5,154.7h-2.3v-0.6h2.3V154.7z M24.9,154.7h-2.3v-0.6h2.3V154.7z M20.3,154.7h-2.3v-0.6h2.3V154.7z M15.8,154.7h-2.3v-0.6
						h2.3V154.7z M11.2,154.7H8.9v-0.6h2.3V154.7z M6.6,154.7H4.3v-0.6h2.3V154.7z"/>
				</g>
			</g>
			<g>
				<g>
					<rect x="0.9" y="154.2" class="st0" width="1.1" height="0.6"/>
				</g>
			</g>
		</g>
		<g>
			<g>
				<g>
					<rect x="46.5" y="152.1" width="0.4" height="4.7"/>
				</g>
			</g>
			<g>
				<g>
					<rect x="46.2" y="151.8" class="st0" width="0.9" height="5.3"/>
				</g>
			</g>
		</g>
		<g>
			<g>
				<g>
					<rect y="151.8" class="st0" width="0.9" height="5.3"/>
				</g>
			</g>
		</g>
	</g>
	<g>
		<g>
			<g>
				<g>
					<rect x="240.6" y="154.2" class="st0" width="1.1" height="0.6"/>
				</g>
			</g>
			<g>
				<g>
					<path class="st0" d="M238.3,154.7H236v-0.6h2.3V154.7z M233.7,154.7h-2.3v-0.6h2.3V154.7z M229.1,154.7h-2.3v-0.6h2.3V154.7z
						 M224.6,154.7h-2.3v-0.6h2.3V154.7z M220,154.7h-2.3v-0.6h2.3V154.7z M215.4,154.7h-2.3v-0.6h2.3V154.7z M210.8,154.7h-2.3
						v-0.6h2.3V154.7z M206.3,154.7H204v-0.6h2.3V154.7z M201.7,154.7h-2.3v-0.6h2.3V154.7z"/>
				</g>
			</g>
			<g>
				<g>
					<rect x="196" y="154.2" class="st0" width="1.1" height="0.6"/>
				</g>
			</g>
		</g>
		<g>
			<g>
				<g>
					<rect x="241.5" y="152.1" width="0.4" height="4.7"/>
				</g>
			</g>
			<g>
				<g>
					<rect x="241.5" y="151.8" class="st0" width="0.9" height="5.3"/>
				</g>
			</g>
		</g>
		<g>
			<g>
				<g>
					<rect x="194.8" y="151.8" class="st0" width="0.9" height="5.3"/>
				</g>
			</g>
		</g>
	</g>
	<g>
		<g>
			<polygon points="302.5,47.9 292,49 292,46.9 			"/>
		</g>
	</g>
	<g>
		<g>
			<polygon points="302.5,140.2 292,141.2 292,139.2 			"/>
		</g>
	</g>
	<g>
		<g>
			<g>
				<rect x="296.4" y="49" width="0.4" height="1.1"/>
			</g>
		</g>
		<g>
			<g>
				<path d="M296.8,135.8h-0.4v-2.3h0.4V135.8z M296.8,131.2h-0.4V129h0.4V131.2z M296.8,126.7h-0.4v-2.3h0.4V126.7z M296.8,122.2
					h-0.4V120h0.4V122.2z M296.8,117.7h-0.4v-2.3h0.4V117.7z M296.8,113.2h-0.4V111h0.4V113.2z M296.8,108.7h-0.4v-2.3h0.4V108.7z
					 M296.8,104.2h-0.4V102h0.4V104.2z M296.8,99.7h-0.4v-2.3h0.4V99.7z M296.8,95.2h-0.4v-2.3h0.4V95.2z M296.8,90.7h-0.4v-2.3h0.4
					V90.7z M296.8,86.2h-0.4v-2.3h0.4V86.2z M296.8,81.7h-0.4v-2.3h0.4V81.7z M296.8,77.1h-0.4v-2.3h0.4V77.1z M296.8,72.6h-0.4
					v-2.3h0.4V72.6z M296.8,68.1h-0.4v-2.3h0.4V68.1z M296.8,63.6h-0.4v-2.3h0.4V63.6z M296.8,59.1h-0.4v-2.3h0.4V59.1z M296.8,54.6
					h-0.4v-2.3h0.4V54.6z"/>
			</g>
		</g>
		<g>
			<g>
				<rect x="296.4" y="138.1" width="0.4" height="1.1"/>
			</g>
		</g>
	</g>
</g>
<g>
	<g>
		<g>
			<path id="XMLID_27_" class="st1" d="M167.3,94c-0.2,25.6-20.9,46.2-46.4,46c-12.6-0.1-24-5.2-32.2-13.5
				c-8.5-8.5-13.7-20.2-13.6-33.1c0.2-25.6,20.9-46.2,46.4-46S167.4,68.4,167.3,94z"/>
			<path class="st2" d="M99.1,109.4l-10.2,17.4c0,0,4.1,5.7,16,10.3l5.9-16l3.9-10.7l4.1-11.8c0,0,1.4-3.9,1.4-3.9l0.2-0.4
				c0,0,0.1-0.1,0.1-0.2l0.1-0.1l0,0c0,0,0.1,0,0.1,0l0.1,0l0.1,0.1l0.2,0.3l0.4,1.1l0.8,2.2l2.8,8.5l2.4,7.5l3.8,11.5l2.9,8.1
				l1.5,4.4c0,0,9.3-2.6,17.3-10.5l-5.7-8.6l-3.7-6.4l-3.8-7.4l-3.1-6.5l-2.5-5.9l-2.1-5.9l-1.9-5.7l-2.1-6.5l-2-6.8l-1.8-6.8
				l-2-7.5l-1.1-3.8l-2.2,7.2l-3,10l-2.4,7.6l-2.9,8.5l-2.4,6.9l-2.7,6.7l-2.9,6.4L99.1,109.4z"/>
		</g>
	</g>
	<g>
		<path class="st1" d="M63.2,156.7c-0.5-1.1-1.1-2.1-2-3c-0.8-0.8-1.9-1.5-3-1.9c-1.2-0.5-2.5-0.7-3.9-0.7h-6.9
			c-0.2,0-0.3,0.1-0.3,0.3v6.6c0,0.2,0.1,0.3,0.3,0.3h3.3c0.2,0,0.3-0.1,0.3-0.3v-3.6c0-0.2,0.1-0.3,0.3-0.3h3
			c0.9,0,1.7,0.1,2.4,0.4c0.7,0.3,1.3,0.7,1.8,1.3c0.5,0.5,0.9,1.2,1.1,2c0.3,0.8,0.4,1.7,0.4,2.7c0,1-0.1,1.9-0.4,2.7
			c-0.3,0.8-0.6,1.5-1.1,2c-0.5,0.5-1.1,1-1.8,1.3c-0.7,0.3-1.5,0.4-2.4,0.4h-3c-0.2,0-0.3-0.1-0.3-0.3v-3.6c0-0.2-0.1-0.3-0.3-0.3
			h-3.3c-0.2,0-0.3,0.1-0.3,0.3v6.7c0,0.2,0.1,0.3,0.3,0.3h6.9c1.4,0,2.8-0.2,3.9-0.7c1.2-0.5,2.2-1.1,3-1.9c0.8-0.8,1.5-1.8,2-3
			c0.5-1.2,0.7-2.4,0.7-3.8C63.9,159.1,63.7,157.8,63.2,156.7z"/>
		<path class="st1" d="M71,154.1h7.5c0.2,0,0.3-0.1,0.3-0.3v-2.4c0-0.2-0.1-0.3-0.3-0.3H67.1c-0.2,0-0.3,0.1-0.3,0.3v18.2
			c0,0.2,0.1,0.3,0.3,0.3h11.4c0.2,0,0.3-0.1,0.3-0.3v-2.4c0-0.2-0.1-0.3-0.3-0.3H71c-0.2,0-0.3-0.1-0.3-0.3v-4.3
			c0-0.2,0.1-0.3,0.3-0.3h5.7c0.2,0,0.3-0.1,0.3-0.3v-2.3c0-0.2-0.1-0.3-0.3-0.3H71c-0.2,0-0.3-0.1-0.3-0.3v-4.2
			C70.7,154.3,70.8,154.1,71,154.1z"/>
		<path class="st1" d="M97.5,151.1h-2.8c-0.2,0-0.3,0.1-0.3,0.3v10.5c0,0.3,0,0.6,0,0.9c0,0.3,0,0.6,0.1,1l-9.4-12
			c-0.1-0.1-0.2-0.2-0.3-0.3c-0.1-0.1-0.2-0.1-0.3-0.2c-0.1,0-0.2-0.1-0.3-0.1c-0.1,0-0.3,0-0.4,0H82c-0.2,0-0.3,0.1-0.3,0.3v18.2
			c0,0.2,0.1,0.3,0.3,0.3h2.8c0.2,0,0.3-0.1,0.3-0.3V159c0-0.3,0-0.5,0-0.8c0-0.3,0-0.6-0.1-0.9l9.4,11.9c0.2,0.2,0.4,0.4,0.6,0.5
			c0.2,0.1,0.5,0.2,0.8,0.2h1.7c0.2,0,0.3-0.1,0.3-0.3v-18.2C97.8,151.2,97.6,151.1,97.5,151.1z"/>
		<path class="st1" d="M114.7,151.1h-14.3c-0.2,0-0.3,0.1-0.3,0.3v2.5c0,0.2,0.1,0.3,0.3,0.3h4.9c0.2,0,0.3,0.1,0.3,0.3v15.1
			c0,0.2,0.1,0.3,0.3,0.3h3.3c0.2,0,0.3-0.1,0.3-0.3v-15.1c0-0.2,0.1-0.3,0.3-0.3h4.9c0.2,0,0.3-0.1,0.3-0.3v-2.5
			C115,151.2,114.9,151.1,114.7,151.1z"/>
		<path class="st1" d="M131.8,169.5l-7.1-18.2c0-0.1-0.2-0.2-0.3-0.2h-3.6c-0.1,0-0.2,0.1-0.3,0.2l-7.1,18.2
			c-0.1,0.2,0.1,0.4,0.3,0.4h2.6c0.3,0,0.6-0.1,0.8-0.3c0.2-0.2,0.4-0.4,0.5-0.6l1.2-3.4c0-0.1,0.2-0.2,0.3-0.2h7.1
			c0.1,0,0.2,0.1,0.3,0.2l1.2,3.4c0.1,0.3,0.3,0.5,0.5,0.6c0.2,0.2,0.5,0.2,0.8,0.2h2.6C131.8,169.9,131.9,169.7,131.8,169.5z
			 M125,162.7h-4.7c-0.2,0-0.4-0.2-0.3-0.4l1.9-5.3c0.1-0.3,0.3-0.7,0.4-1.1c0-0.1,0.1-0.2,0.1-0.3c0.1-0.3,0.5-0.3,0.6,0
			c0,0.1,0.1,0.2,0.1,0.3c0.1,0.4,0.3,0.8,0.4,1.1l1.9,5.3C125.4,162.5,125.2,162.7,125,162.7z"/>
		<path class="st1" d="M147.9,166.9l-1.4-1.4c-0.1-0.2-0.3-0.2-0.5-0.2c-0.1,0-0.2,0-0.3,0.1c-0.1,0.1-0.2,0.1-0.3,0.2
			c-0.3,0.3-0.5,0.5-0.8,0.6c-0.3,0.2-0.6,0.3-0.9,0.4c-0.3,0.1-0.6,0.2-1,0.2c-0.4,0-0.8,0.1-1.2,0.1c-0.7,0-1.4-0.1-2.1-0.4
			c-0.7-0.3-1.2-0.7-1.7-1.2c-0.5-0.5-0.9-1.2-1.2-2c-0.3-0.8-0.4-1.7-0.4-2.7c0-1,0.1-1.9,0.4-2.7c0.3-0.8,0.6-1.4,1.1-2
			c0.5-0.5,1-1,1.7-1.2c0.7-0.3,1.4-0.4,2.2-0.4c0.7,0,1.3,0.1,1.8,0.2c0.5,0.1,0.8,0.3,1.2,0.5c0.3,0.2,0.6,0.3,0.8,0.5
			c0.2,0.1,0.4,0.2,0.6,0.2c0.2,0,0.4,0,0.5-0.1c0.1-0.1,0.2-0.2,0.3-0.3l1.2-1.6c0.1-0.1,0.1-0.3,0-0.4c-0.3-0.3-0.7-0.6-1-0.8
			c-0.5-0.3-0.9-0.6-1.5-0.8c-0.5-0.2-1.1-0.4-1.7-0.5c-0.6-0.1-1.3-0.2-2-0.2c-0.9,0-1.8,0.1-2.6,0.3c-0.8,0.2-1.6,0.5-2.3,0.9
			c-0.7,0.4-1.3,0.9-1.9,1.5c-0.5,0.6-1,1.2-1.4,1.9c-0.4,0.7-0.7,1.5-0.9,2.3c-0.2,0.8-0.3,1.7-0.3,2.7c0,1.4,0.2,2.7,0.6,3.8
			c0.4,1.2,1,2.2,1.8,3s1.7,1.5,2.9,2c1.1,0.5,2.4,0.7,3.8,0.7c1.6,0,2.9-0.3,4-0.8c1-0.5,1.9-1.1,2.7-2
			C148,167.2,148,167,147.9,166.9z"/>
		<path class="st1" d="M167.3,156.7c-0.5-1.2-1.1-2.2-2-3c-0.8-0.9-1.9-1.5-3-2c-1.2-0.5-2.5-0.7-3.9-0.7c-1.4,0-2.8,0.2-3.9,0.7
			c-1.2,0.5-2.2,1.2-3,2c-0.8,0.9-1.5,1.9-2,3c-0.5,1.2-0.7,2.4-0.7,3.8c0,1.4,0.2,2.6,0.7,3.8c0.5,1.2,1.1,2.2,2,3
			c0.8,0.9,1.9,1.5,3,2c1.2,0.5,2.5,0.7,3.9,0.7c1.4,0,2.8-0.2,3.9-0.7c1.2-0.5,2.2-1.2,3-2c0.8-0.9,1.5-1.9,2-3
			c0.5-1.2,0.7-2.4,0.7-3.8C168,159.1,167.7,157.8,167.3,156.7z M163.6,163.1c-0.3,0.8-0.6,1.4-1.1,2c-0.5,0.5-1.1,1-1.8,1.2
			c-0.7,0.3-1.5,0.4-2.4,0.4c-0.9,0-1.7-0.1-2.4-0.4c-0.7-0.3-1.3-0.7-1.8-1.2c-0.5-0.5-0.9-1.2-1.1-2c-0.3-0.8-0.4-1.7-0.4-2.7
			c0-1,0.1-1.9,0.4-2.7c0.3-0.8,0.6-1.4,1.1-2c0.5-0.5,1.1-1,1.8-1.3c0.7-0.3,1.5-0.4,2.4-0.4c0.9,0,1.7,0.1,2.4,0.4
			c0.7,0.3,1.3,0.7,1.8,1.3c0.5,0.5,0.9,1.2,1.1,2c0.3,0.8,0.4,1.7,0.4,2.7C164,161.5,163.9,162.3,163.6,163.1z"/>
		<path class="st1" d="M174.4,151.1h-3.3c-0.2,0-0.3,0.1-0.3,0.3v18.2c0,0.2,0.1,0.3,0.3,0.3h3.3c0.2,0,0.3-0.1,0.3-0.3v-18.2
			C174.7,151.2,174.6,151.1,174.4,151.1z"/>
		<path class="st1" d="M194.5,151.1h-2.8c-0.2,0-0.3,0.1-0.3,0.3v10.5c0,0.3,0,0.6,0,0.9c0,0.3,0,0.6,0.1,1l-9.4-12
			c-0.1-0.1-0.2-0.2-0.3-0.3c-0.1-0.1-0.2-0.1-0.3-0.2c-0.1,0-0.2-0.1-0.3-0.1c-0.1,0-0.3,0-0.4,0H179c-0.2,0-0.3,0.1-0.3,0.3v18.2
			c0,0.2,0.1,0.3,0.3,0.3h2.8c0.2,0,0.3-0.1,0.3-0.3V159c0-0.3,0-0.5,0-0.8c0-0.3,0-0.6-0.1-0.9l9.4,11.9c0.2,0.2,0.4,0.4,0.6,0.5
			c0.2,0.1,0.5,0.2,0.8,0.2h1.7c0.2,0,0.3-0.1,0.3-0.3v-18.2C194.8,151.2,194.7,151.1,194.5,151.1z"/>
	</g>
</g>
</svg>
