<?xml version="1.0" encoding="utf-8"?>
<!-- Generator: Adobe Illustrator 23.0.1, SVG Export Plug-In . SVG Version: 6.00 Build 0)  -->
<svg version="1.1" id="Layer_1" xmlns="http://www.w3.org/2000/svg" xmlns:xlink="http://www.w3.org/1999/xlink" x="0px" y="0px"
	 viewBox="0 0 108.7 90.3" style="enable-background:new 0 0 108.7 90.3;" xml:space="preserve">
<style type="text/css">
	.st0{fill:#FFFFFF;}
</style>
<g>
	<path class="st0" d="M30.7,58.4l7.5-12.8l2.5-5l2.2-4.7l2-4.9l1.8-5.1l2.1-6.2l1.8-5.6l2.2-7.4l1.6-5.3l0.8,2.8l1.5,5.5l1.3,5
		l1.5,5l1.5,4.8l1.4,4.2l1.5,4.3l1.8,4.4l2.3,4.8l2.8,5.4l2.7,4.7l4.2,6.3c6.4-6.2,10.4-14.8,10.5-24.4C88.5,15.5,73.4,0.1,54.7,0
		s-34,15-34.1,33.9c-0.1,9.5,3.8,18.2,10,24.4C30.6,58.3,30.7,58.4,30.7,58.4z"/>
	<path class="st0" d="M62,57.2l-2.8-8.4l-1.8-5.5l-2-6.3l-0.6-1.7l-0.3-0.8l-0.1-0.2l-0.1-0.1h-0.1h-0.1l0,0L54,34.3l-0.1,0.1
		l-0.1,0.3l-1,2.9l-3,8.7l-2.9,7.9L42.5,66c3.7,1.4,7.6,2.2,11.7,2.2c3.8,0,7.5-0.6,11-1.8l-1.1-3.3L62,57.2z"/>
	<path class="st0" d="M41.4,65.5c-0.1,0-0.1-0.1-0.2-0.1C41.3,65.5,41.4,65.5,41.4,65.5z"/>
	<path class="st0" d="M42.5,66L42.5,66c-0.4-0.1-0.7-0.3-1.1-0.4C41.8,65.7,42.1,65.8,42.5,66z"/>
	<path class="st0" d="M10.5,78.2c-0.6-0.6-1.4-1.1-2.2-1.4c-0.9-0.3-1.8-0.5-2.9-0.5H0.2c-0.1,0-0.2,0.1-0.2,0.2v4.9
		c0,0.1,0.1,0.2,0.2,0.2h2.4c0.1,0,0.2-0.1,0.2-0.2v-2.7c0-0.1,0.1-0.2,0.2-0.2h2.2c0.6,0,1.2,0.1,1.7,0.3c0.5,0.2,0.9,0.5,1.3,0.9
		c0.4,0.4,0.6,0.9,0.8,1.5s0.3,1.2,0.3,2c0,0.7-0.1,1.4-0.3,2s-0.5,1.1-0.8,1.5C8,87,7.6,87.3,7.1,87.6c-0.5,0.2-1.1,0.3-1.7,0.3
		H3.1c-0.1,0-0.2-0.1-0.2-0.2V85c0-0.1-0.1-0.2-0.2-0.2H0.2C0.1,84.8,0,84.9,0,85v4.9c0,0.1,0.1,0.2,0.2,0.2h5.1
		c1.1,0,2-0.2,2.9-0.5s1.6-0.8,2.2-1.4c0.6-0.6,1.1-1.3,1.4-2.2c0.3-0.9,0.5-1.8,0.5-2.8s-0.2-1.9-0.5-2.8
		C11.6,79.6,11.1,78.9,10.5,78.2z"/>
	<path class="st0" d="M23.1,76.3h-8.4c-0.1,0-0.2,0.1-0.2,0.2v13.4c0,0.1,0.1,0.2,0.2,0.2h8.4c0.1,0,0.2-0.1,0.2-0.2v-1.8
		c0-0.1-0.1-0.2-0.2-0.2h-5.5c-0.1,0-0.2-0.1-0.2-0.2v-3.2c0-0.1,0.1-0.2,0.2-0.2h4.2c0.1,0,0.2-0.1,0.2-0.2v-1.7
		c0-0.1-0.1-0.2-0.2-0.2h-4.2c-0.1,0-0.2-0.1-0.2-0.2v-3.1c0-0.1,0.1-0.2,0.2-0.2h5.5c0.1,0,0.2-0.1,0.2-0.2v-1.8
		C23.3,76.4,23.2,76.3,23.1,76.3z"/>
	<path class="st0" d="M37.1,76.3H35c-0.1,0-0.2,0.1-0.2,0.2v7.7c0,0.2,0,0.4,0,0.6s0,0.5,0.1,0.7L28,76.7c-0.1-0.1-0.1-0.2-0.2-0.2
		c-0.1-0.1-0.1-0.1-0.2-0.1s-0.1-0.1-0.2-0.1s-0.2,0-0.3,0h-1.3c-0.1,0-0.2,0.1-0.2,0.2v13.4c0,0.1,0.1,0.2,0.2,0.2h2.1
		c0.1,0,0.2-0.1,0.2-0.2v-7.8c0-0.2,0-0.4,0-0.6s0-0.4,0-0.7l6.9,8.8c0.1,0.2,0.3,0.3,0.4,0.4c0.2,0.1,0.3,0.1,0.6,0.1h1.3
		c0.1,0,0.2-0.1,0.2-0.2V76.5C37.3,76.4,37.2,76.3,37.1,76.3z"/>
	<path class="st0" d="M50,78.4v-1.9c0-0.1-0.1-0.2-0.2-0.2H39.3c-0.1,0-0.2,0.1-0.2,0.2v1.9c0,0.1,0.1,0.2,0.2,0.2h3.6
		c0.1,0,0.2,0.1,0.2,0.2v11.1c0,0.1,0.1,0.2,0.2,0.2h2.4c0.1,0,0.2-0.1,0.2-0.2V78.8c0-0.1,0.1-0.2,0.2-0.2h3.6
		C49.9,78.6,50,78.5,50,78.4z"/>
	<path class="st0" d="M57.1,76.4c0-0.1-0.1-0.1-0.2-0.1h-2.6c-0.1,0-0.2,0.1-0.2,0.1l-5.2,13.4c-0.1,0.1,0.1,0.3,0.2,0.3H51
		c0.2,0,0.4-0.1,0.6-0.2c0.2-0.1,0.3-0.3,0.3-0.4l0.9-2.5c0-0.1,0.1-0.1,0.2-0.1h5.2c0.1,0,0.2,0.1,0.2,0.1l0.9,2.5
		c0.1,0.2,0.2,0.3,0.3,0.5c0.2,0.1,0.4,0.2,0.6,0.2h1.9c0.2,0,0.3-0.2,0.2-0.3L57.1,76.4z M57.3,84.9h-3.5c-0.2,0-0.3-0.2-0.2-0.3
		l1.4-3.9c0.1-0.2,0.2-0.5,0.3-0.8c0-0.1,0-0.1,0.1-0.2c0.1-0.2,0.4-0.2,0.4,0c0,0.1,0,0.1,0.1,0.2c0.1,0.3,0.2,0.6,0.3,0.8l1.4,3.9
		C57.6,84.7,57.5,84.9,57.3,84.9z"/>
	<path class="st0" d="M73.1,86.9c-0.1-0.1-0.2-0.2-0.4-0.2c-0.1,0-0.2,0-0.2,0.1c-0.1,0-0.1,0.1-0.2,0.1c-0.2,0.2-0.4,0.3-0.6,0.5
		c-0.2,0.1-0.4,0.2-0.6,0.3c-0.2,0.1-0.5,0.1-0.7,0.2c-0.3,0-0.6,0-0.9,0c-0.5,0-1.1-0.1-1.5-0.3c-0.5-0.2-0.9-0.5-1.3-0.9
		s-0.6-0.9-0.9-1.5c-0.2-0.6-0.3-1.2-0.3-2c0-0.7,0.1-1.4,0.3-2c0.2-0.6,0.5-1.1,0.8-1.5s0.8-0.7,1.2-0.9c0.5-0.2,1-0.3,1.6-0.3
		c0.5,0,1,0.1,1.3,0.2s0.6,0.2,0.8,0.4c0.2,0.1,0.4,0.3,0.6,0.4s0.3,0.2,0.5,0.2s0.3,0,0.4-0.1s0.2-0.1,0.2-0.2l0.8-1.2
		c0.1-0.1,0.1-0.2,0-0.3c-0.2-0.2-0.5-0.4-0.8-0.6s-0.7-0.4-1.1-0.6s-0.8-0.3-1.3-0.4s-0.9-0.1-1.4-0.1c-0.7,0-1.3,0.1-1.9,0.2
		c-0.6,0.2-1.2,0.4-1.7,0.7c-0.5,0.3-1,0.7-1.4,1.1s-0.7,0.9-1,1.4s-0.5,1.1-0.7,1.7c-0.1,0.6-0.2,1.3-0.2,2c0,1,0.2,2,0.5,2.8
		c0.3,0.9,0.8,1.6,1.3,2.2c0.5,0.6,1.3,1.1,2.1,1.5c0.8,0.4,1.8,0.5,2.8,0.5c1.1,0,2.1-0.2,3-0.6c0.8-0.3,1.4-0.8,2-1.5
		c0.1-0.1,0.1-0.2,0-0.3L73.1,86.9z"/>
	<path class="st0" d="M87,78.2c-0.6-0.6-1.4-1.1-2.2-1.5c-0.9-0.4-1.8-0.5-2.9-0.5s-2,0.2-2.9,0.5c-0.9,0.4-1.6,0.9-2.2,1.5
		s-1.1,1.4-1.4,2.2c-0.3,0.9-0.5,1.8-0.5,2.8s0.2,1.9,0.5,2.8s0.8,1.6,1.4,2.2s1.4,1.1,2.2,1.5c0.9,0.4,1.8,0.5,2.9,0.5
		s2-0.2,2.9-0.5c0.9-0.4,1.6-0.9,2.2-1.5s1.1-1.4,1.4-2.2c0.3-0.9,0.5-1.8,0.5-2.8s-0.2-1.9-0.5-2.8C88.1,79.5,87.6,78.8,87,78.2z
		 M85.7,85.2c-0.2,0.6-0.5,1.1-0.8,1.5c-0.4,0.4-0.8,0.7-1.3,0.9c-0.5,0.2-1.1,0.3-1.7,0.3s-1.2-0.1-1.7-0.3c-0.5-0.2-1-0.5-1.3-0.9
		c-0.4-0.4-0.6-0.9-0.8-1.5c-0.2-0.6-0.3-1.2-0.3-2c0-0.7,0.1-1.4,0.3-2c0.2-0.6,0.5-1.1,0.8-1.5c0.4-0.4,0.8-0.7,1.3-0.9
		c0.5-0.2,1.1-0.3,1.7-0.3s1.2,0.1,1.7,0.3c0.5,0.2,0.9,0.5,1.3,0.9s0.6,0.9,0.8,1.5c0.2,0.6,0.3,1.2,0.3,2
		C86,83.9,85.9,84.6,85.7,85.2z"/>
	<path class="st0" d="M93.7,76.3h-2.4c-0.1,0-0.2,0.1-0.2,0.2v13.4c0,0.1,0.1,0.2,0.2,0.2h2.4c0.1,0,0.2-0.1,0.2-0.2V76.5
		C93.9,76.4,93.8,76.3,93.7,76.3z"/>
	<path class="st0" d="M108.4,76.3h-2.1c-0.1,0-0.2,0.1-0.2,0.2v7.7c0,0.2,0,0.4,0,0.6s0,0.5,0.1,0.7l-6.9-8.8
		c-0.1-0.1-0.1-0.2-0.2-0.2c-0.1-0.1-0.1-0.1-0.2-0.1s-0.1-0.1-0.2-0.1s-0.2,0-0.3,0H97c-0.1,0-0.2,0.1-0.2,0.2v13.4
		c0,0.1,0.1,0.2,0.2,0.2h2.1c0.1,0,0.2-0.1,0.2-0.2v-7.8c0-0.2,0-0.4,0-0.6s0-0.4,0-0.7l6.9,8.8c0.1,0.2,0.3,0.3,0.4,0.4
		c0.2,0.1,0.3,0.1,0.6,0.1h1.3c0.1,0,0.2-0.1,0.2-0.2V76.5C108.7,76.4,108.6,76.3,108.4,76.3z"/>
</g>
</svg>
