<?xml version="1.0" encoding="utf-8"?>
<!-- Generator: Adobe Illustrator 23.0.1, SVG Export Plug-In . SVG Version: 6.00 Build 0)  -->
<svg version="1.1" id="Layer_1" xmlns="http://www.w3.org/2000/svg" xmlns:xlink="http://www.w3.org/1999/xlink" x="0px" y="0px"
	 viewBox="0 0 254.4 195.5" style="enable-background:new 0 0 254.4 195.5;" xml:space="preserve">
<style type="text/css">
	.st0{fill:#FFFFFF;}
	.st1{fill:#EC1C24;}
	.st2{fill:#231F20;}
	.st3{fill:#010101;}
	.st4{fill:#333333;}
</style>
<g>
	<path id="XMLID_2_" d="M127.7,115.4c-0.2,27.2-22.4,49.2-49.4,49c-13.5,0-25.5-5.6-34.3-14.3c-9.1-8.9-14.5-21.6-14.5-35.3
		c0-27.4,22.2-49.4,49.2-49.2C105.9,65.8,127.9,88,127.7,115.4z"/>
	<path class="st0" d="M55,131.8l-11,18.5c0,0,4.4,6,17,11l6.2-17l4.2-11.4l4.4-12.7l1.5-4.2l0.2-0.4c0,0,0-0.2,0.2-0.2l0.2-0.2l0,0
		c0,0,0,0,0.2,0h0.2l0,0l0.2,0.4l0.4,1.2l0.8,2.5l2.9,9.1l2.5,7.9l3.9,12.3l3.1,8.7l1.7,4.8c0,0,10-2.7,18.5-11.2l-6-9.1l-3.9-6.9
		l-3.9-7.9l-3.3-6.9l-2.7-6.2l-2.3-6.2l-2.1-6l-2.3-6.9l-2.1-7.3l-1.9-7.3l-2.1-8.1l-1.2-3.9L76.2,76l-3.3,10.6l-2.5,7.7l-3.1,9.1
		l-2.5,7.5l-2.9,7.1l-3.3,6.6L55,131.8z"/>
</g>
<g>
	<g>
		<g>
			<g>
				<g>
					<rect x="152" y="33.5" class="st1" width="5.5" height="1.1"/>
				</g>
				<g>
					<path class="st1" d="M140.8,34.3h-11.2v-1.1h11.2V34.3z M118.4,34.3h-11.2v-1.1h11.2V34.3z M95.8,34.3H84.6v-1.1h11.2V34.3z
						 M73.4,34.3H62.2v-1.1h11.2V34.3z M51,34.3H39.8v-1.1H51V34.3z M28.7,34.3H17.5v-1.1h11.2V34.3z"/>
				</g>
				<g>
					<rect x="0.6" y="33.5" class="st1" width="5.5" height="1.1"/>
				</g>
			</g>
			<g>
				<g>
					<rect x="156.9" y="28.3" class="st2" width="1.4" height="11.2"/>
				</g>
				<g>
					<g>
						<rect x="155.8" y="34" class="st1" width="3.5" height="6.5"/>
					</g>
					<g>
						<rect x="155.8" y="27.2" class="st1" width="3.5" height="6.5"/>
					</g>
				</g>
			</g>
			<g>
				<g>
					<rect x="0.8" y="28.3" class="st2" width="1.4" height="11.2"/>
				</g>
				<g>
					<g>
						<rect x="-0.3" y="34" class="st1" width="3.5" height="6.5"/>
					</g>
					<g>
						<rect x="-0.3" y="27.2" class="st1" width="3.5" height="6.5"/>
					</g>
				</g>
			</g>
		</g>
		<g>
			<g>
				<g>
					<rect x="184.7" y="65.9" class="st1" width="1.9" height="5.4"/>
				</g>
				<g>
					<path class="st1" d="M186.6,178.4h-1.9v-10.6h1.9V178.4z M186.6,156.8h-1.9v-10.6h1.9V156.8z M186.6,135.6h-1.9V125h1.9V135.6z
						 M186.6,114.1h-1.9v-10.6h1.9V114.1z M186.6,92.9h-1.9V82.2h1.9V92.9z"/>
				</g>
				<g>
					<rect x="184.7" y="189" class="st1" width="1.9" height="5.4"/>
				</g>
			</g>
			<g>
				<g>
					<rect x="180.9" y="65.4" class="st2" width="9.3" height="1.1"/>
				</g>
				<g>
					<g>
						<rect x="185.5" y="64.3" class="st1" width="5.5" height="3.3"/>
					</g>
					<g>
						<rect x="180.1" y="64.3" class="st1" width="5.5" height="3.3"/>
					</g>
				</g>
			</g>
			<g>
				<g>
					<rect x="180.9" y="193.1" class="st2" width="9.3" height="1.1"/>
				</g>
				<g>
					<g>
						<rect x="185.5" y="192" class="st1" width="5.5" height="3.3"/>
					</g>
					<g>
						<rect x="180.1" y="192" class="st1" width="5.5" height="3.3"/>
					</g>
				</g>
			</g>
		</g>
	</g>
</g>
<g>
	<g>
		<path class="st3" d="M17.2,181.1c-0.5-1.1-1.1-2.2-1.9-3.3s-1.9-1.6-3.3-1.9c-1.4-0.5-2.7-0.8-4.1-0.8H0.3c-0.3,0-0.3,0.3-0.3,0.3
			v7.1c0,0.3,0.3,0.3,0.3,0.3h3.5c0.3,0,0.3-0.3,0.3-0.3v-3.8c0-0.3,0.3-0.3,0.3-0.3h3.3c0.8,0,1.6,0.3,2.5,0.5
			c0.8,0.3,1.4,0.8,1.9,1.4c0.5,0.5,0.8,1.4,1.1,2.2c0,0.5,0.3,1.6,0.3,2.7s-0.3,1.9-0.5,3c-0.3,0.8-0.8,1.6-1.1,2.2
			c-0.3,0.5-0.8,0.8-1.6,1.4c-0.8,0.3-1.6,0.5-2.5,0.5H4.4c-0.3,0-0.3-0.3-0.3-0.3v-3.8c0-0.3-0.3-0.3-0.3-0.3H0.3
			c-0.3,0-0.3,0.3-0.3,0.3v7.1c0,0.3,0.3,0.3,0.3,0.3h7.4c1.6,0,3-0.3,4.1-0.8c1.1-0.5,2.2-1.1,3.3-1.9c1.1-0.8,1.6-1.9,1.9-3.3
			c0.5-1.4,0.8-2.7,0.8-4.1C17.7,183.8,17.5,182.4,17.2,181.1z"/>
		<path class="st3" d="M25.4,178.4h7.9c0.3,0,0.3-0.3,0.3-0.3v-2.7c0-0.3-0.3-0.3-0.3-0.3H21c-0.3,0-0.3,0.3-0.3,0.3v19.3
			c0,0.3,0.3,0.3,0.3,0.3h12c0.3,0,0.3-0.3,0.3-0.3V192c0-0.3-0.3-0.3-0.3-0.3h-7.6c-0.3,0-0.3-0.3-0.3-0.3v-4.6
			c0-0.3,0.3-0.3,0.3-0.3h6c0.3,0,0.3-0.3,0.3-0.3v-2.5c0-0.3-0.3-0.3-0.3-0.3h-6c-0.3,0-0.3-0.3-0.3-0.3v-4.4
			C25.1,178.4,25.1,178.4,25.4,178.4z"/>
		<path class="st3" d="M53.5,175.1h-3c-0.3,0-0.3,0.3-0.3,0.3v11.2c0,0.3,0,0.5,0,0.8s0,0.8,0.3,1.1l-10.1-12.8
			c-0.3-0.3-0.3-0.3-0.3-0.3c-0.3-0.3-0.3-0.3-0.3-0.3l-0.3-0.3c-0.3,0-0.3,0-0.5,0h-1.9c-0.3,0-0.3,0.3-0.3,0.3v19.3
			c0,0.3,0.3,0.3,0.3,0.3h3c0.3,0,0.3-0.3,0.3-0.3v-11.2c0-0.3,0-0.5,0-0.8s0-0.5,0-1.1l10.1,12.8c0.3,0.3,0.5,0.5,0.5,0.5
			c0.3,0.3,0.5,0.3,0.8,0.3h1.9c0.3,0,0.3-0.3,0.3-0.3v-19.3C53.8,175.4,53.8,175.1,53.5,175.1z"/>
		<path class="st3" d="M71.8,175.1H56.5c-0.3,0-0.3,0.3-0.3,0.3v2.7c0,0.3,0.3,0.3,0.3,0.3h5.2c0.3,0,0.3,0.3,0.3,0.3v16.1
			c0,0.3,0.3,0.3,0.3,0.3h3.5c0.3,0,0.3-0.3,0.3-0.3v-16.1c0-0.3,0.3-0.3,0.3-0.3h5.2c0.3,0,0.3-0.3,0.3-0.3V175.1
			C72,175.4,72,175.1,71.8,175.1z"/>
		<path class="st3" d="M90.1,194.7l-7.6-19.3c0-0.3-0.3-0.3-0.3-0.3h-3.8c-0.3,0-0.3,0.3-0.3,0.3l-7.4,19.3
			c-0.3,0.3,0.3,0.5,0.3,0.5h2.7c0.3,0,0.5-0.3,0.8-0.3c0.3-0.3,0.5-0.5,0.5-0.5l1.1-3.8c0-0.3,0.3-0.3,0.3-0.3H84
			c0.3,0,0.3,0.3,0.3,0.3l1.4,3.5c0.3,0.3,0.3,0.5,0.5,0.8c0.3,0.3,0.5,0.3,0.8,0.3h2.7C90.1,195,90.1,195,90.1,194.7z M82.7,187.6
			h-5.2c-0.3,0-0.5-0.3-0.3-0.5l1.9-5.7c0.3-0.3,0.3-0.8,0.5-1.1c0-0.3,0-0.3,0.3-0.3c0.3-0.3,0.5-0.3,0.5,0s0,0.3,0.3,0.3
			c0.3,0.5,0.3,0.8,0.5,1.1l1.9,5.7C83.2,187.3,83,187.6,82.7,187.6z"/>
		<path class="st3" d="M107,192l-1.4-1.6c-0.3-0.3-0.3-0.3-0.5-0.3c-0.3,0-0.3,0-0.3,0.3c-0.3,0-0.3,0.3-0.3,0.3
			c-0.3,0.3-0.5,0.5-0.8,0.8c-0.3,0.3-0.5,0.3-0.8,0.5s-0.8,0.3-1.1,0.3c-0.5,0-0.8,0-1.4,0c-0.8,0-1.6-0.3-2.2-0.5
			c-0.8-0.3-1.4-0.8-1.9-1.4c-0.5-0.5-0.8-1.4-1.4-2.2c-0.3-0.8-0.5-1.6-0.5-3c0-1.1,0.3-1.9,0.5-3c0.3-0.8,0.8-1.6,1.1-2.2
			c0.5-0.5,1.1-1.1,1.6-1.4c0.8-0.3,1.4-0.5,2.2-0.5s1.4,0.3,1.9,0.3c0.5,0.3,0.8,0.3,1.1,0.5c0.3,0.3,0.5,0.5,0.8,0.5
			c0.3,0.3,0.5,0.3,0.8,0.3s0.5,0,0.5-0.3c0.3-0.3,0.3-0.3,0.3-0.3l1.1-1.6c0.3-0.3,0.3-0.3,0-0.5s-0.8-0.5-1.1-0.8
			c-0.3-0.3-1.1-0.5-1.6-0.8c-0.5-0.3-1.1-0.5-1.9-0.5c-0.8-0.3-1.4-0.3-1.9-0.3c-1.1,0-1.9,0.3-2.7,0.3c-0.8,0.3-1.6,0.5-2.5,1.1
			c-0.8,0.5-1.4,1.1-1.9,1.6c-0.5,0.5-1.1,1.4-1.4,1.9c-0.3,0.5-0.8,1.6-1.1,2.5c-0.3,0.8-0.3,1.9-0.3,3c0,1.4,0.3,3,0.8,4.1
			c0.5,1.4,1.1,2.2,1.9,3.3c0.8,0.8,1.9,1.6,3,2.2c1.1,0.5,2.7,0.8,4.1,0.8c1.6,0,3-0.3,4.4-0.8C105.3,193.9,106.2,193.3,107,192
			C107.2,192.2,107.2,192,107,192z"/>
		<path class="st3" d="M127.7,181.1c-0.5-1.4-1.1-2.2-1.9-3.3c-0.8-0.8-1.9-1.6-3.3-2.2c-1.4-0.5-2.7-0.8-4.1-0.8
			c-1.6,0-3,0.3-4.1,0.8c-1.4,0.5-2.2,1.4-3.3,2.2c-0.8,0.8-1.6,1.9-1.9,3.3c-0.5,1.4-0.8,2.7-0.8,4.1s0.3,2.7,0.8,4.1
			c0.5,1.4,1.1,2.2,1.9,3.3c0.8,0.8,1.9,1.6,3.3,2.2c1.4,0.5,2.7,0.8,4.1,0.8c1.6,0,3-0.3,4.1-0.8c1.4-0.5,2.2-1.4,3.3-2.2
			c0.8-0.8,1.6-1.9,1.9-3.3c0.5-1.4,0.8-2.7,0.8-4.1C128.3,183.8,128.3,182.4,127.7,181.1z M123.6,187.9c-0.3,0.8-0.8,1.6-1.1,2.2
			c-0.5,0.5-1.1,1.1-1.9,1.4c-0.8,0.3-1.6,0.5-2.5,0.5s-1.6-0.3-2.5-0.5c-0.8-0.3-1.4-0.8-1.9-1.4s-0.8-1.4-1.1-2.2s-0.5-1.6-0.5-3
			c0-1.1,0.3-1.9,0.5-3c0.3-0.8,0.8-1.6,1.1-2.2c0.5-0.5,1.1-1.1,1.9-1.4s1.6-0.5,2.5-0.5s1.6,0.3,2.5,0.5c0.8,0.3,1.4,0.8,1.9,1.4
			c0.5,0.5,0.8,1.4,1.1,2.2c0.3,0.8,0.5,1.6,0.5,3C124.2,186.3,124.2,187.1,123.6,187.9z"/>
		<path class="st3" d="M135.3,175.1h-3.5c-0.3,0-0.3,0.3-0.3,0.3v19.3c0,0.3,0.3,0.3,0.3,0.3h3.5c0.3,0,0.3-0.3,0.3-0.3L135.3,175.1
			L135.3,175.1z"/>
		<path class="st3" d="M156.6,175.1h-3c-0.3,0-0.3,0.3-0.3,0.3v11.2c0,0.3,0,0.5,0,0.8s0,0.8,0.3,1.1l-10.1-12.8
			c-0.3-0.3-0.3-0.3-0.3-0.3c-0.3-0.3-0.3-0.3-0.3-0.3c-0.3,0-0.3-0.3-0.3-0.3s-0.3,0-0.5,0h-1.9c-0.3,0-0.3,0.3-0.3,0.3v19.3
			c0,0.3,0.3,0.3,0.3,0.3h3c0.3,0,0.3-0.3,0.3-0.3v-11.2c0-0.3,0-0.5,0-0.8s0-0.5,0-1.1l10.1,12.8c0.3,0.3,0.5,0.5,0.5,0.5
			c0.3,0.3,0.5,0.3,0.8,0.3h1.9c0.3,0,0.3-0.3,0.3-0.3v-19.3C156.9,175.4,156.9,175.1,156.6,175.1z"/>
	</g>
</g>
<g>
	<path class="st4" d="M47.4,6.4c0.8-0.2,1.6-0.3,2.3-0.3c0.8,0,1.5,0.1,2.2,0.4c0.6,0.2,1.2,0.6,1.6,1c0.4,0.4,0.7,0.9,1,1.5
		c0.2,0.6,0.3,1.2,0.3,1.9c0,0.8-0.1,1.6-0.4,2.3s-0.7,1.3-1.2,1.7S52,15.7,51.3,16c-0.7,0.3-1.4,0.4-2.2,0.4c-0.5,0-0.9,0-1.3-0.1
		c-0.4-0.1-0.8-0.2-1.2-0.4c-0.4-0.2-0.7-0.3-1-0.5c-0.3-0.2-0.6-0.4-0.8-0.6l0.6-0.8c0.1-0.2,0.3-0.3,0.5-0.3
		c0.1,0,0.3,0.1,0.5,0.2c0.2,0.1,0.4,0.2,0.7,0.4c0.3,0.1,0.6,0.3,0.9,0.4c0.4,0.1,0.8,0.2,1.3,0.2c0.5,0,1-0.1,1.5-0.3
		s0.8-0.4,1.1-0.8c0.3-0.3,0.6-0.7,0.7-1.2s0.3-1,0.3-1.5c0-0.5-0.1-0.9-0.2-1.3s-0.4-0.7-0.7-1c-0.3-0.3-0.7-0.5-1.1-0.6
		c-0.4-0.2-0.9-0.2-1.5-0.2c-0.4,0-0.8,0-1.2,0.1c-0.4,0.1-0.9,0.2-1.3,0.3l-1.2-0.4l1.3-7.4h7.5v0.9c0,0.3-0.1,0.5-0.3,0.7
		c-0.2,0.2-0.5,0.3-0.9,0.3h-4.9L47.4,6.4z"/>
	<path class="st4" d="M68.3,8.3c0,1.4-0.1,2.6-0.4,3.6s-0.7,1.8-1.2,2.5s-1.1,1.2-1.8,1.5c-0.7,0.3-1.5,0.5-2.3,0.5
		c-0.8,0-1.6-0.2-2.3-0.5c-0.7-0.3-1.3-0.8-1.8-1.5s-0.9-1.5-1.2-2.5c-0.3-1-0.4-2.2-0.4-3.6c0-1.4,0.1-2.6,0.4-3.6
		c0.3-1,0.7-1.8,1.2-2.5C59,1.5,59.6,1,60.3,0.7c0.7-0.3,1.4-0.5,2.3-0.5c0.8,0,1.5,0.2,2.3,0.5c0.7,0.3,1.3,0.8,1.8,1.5
		c0.5,0.7,0.9,1.5,1.2,2.5C68.1,5.7,68.3,6.9,68.3,8.3z M66.3,8.3c0-1.2-0.1-2.2-0.3-3c-0.2-0.8-0.5-1.5-0.8-2
		c-0.3-0.5-0.7-0.9-1.2-1.1S63,1.9,62.6,1.9S61.6,2,61.2,2.2S60.3,2.8,60,3.3c-0.3,0.5-0.6,1.2-0.8,2c-0.2,0.8-0.3,1.8-0.3,3
		s0.1,2.2,0.3,3c0.2,0.8,0.5,1.5,0.8,2c0.3,0.5,0.7,0.9,1.2,1.1s0.9,0.3,1.4,0.3s0.9-0.1,1.4-0.3s0.8-0.6,1.2-1.1
		c0.3-0.5,0.6-1.2,0.8-2C66.2,10.5,66.3,9.5,66.3,8.3z"/>
	<path class="st4" d="M78,6.8c0.5-0.6,1-1,1.6-1.4C80.3,5,81,4.8,81.7,4.8c0.6,0,1.2,0.1,1.8,0.4c0.5,0.2,1,0.6,1.3,1.1
		c0.4,0.5,0.6,1.1,0.8,1.8c0.2,0.7,0.3,1.5,0.3,2.5c0,0.8-0.1,1.6-0.3,2.3c-0.2,0.7-0.5,1.3-1,1.8c-0.4,0.5-0.9,0.9-1.5,1.2
		c-0.6,0.3-1.3,0.4-2,0.4c-0.7,0-1.3-0.1-1.8-0.3c-0.5-0.2-0.9-0.6-1.3-1V20h-2V5h1.2c0.3,0,0.5,0.1,0.5,0.4L78,6.8z M78.1,13.5
		c0.4,0.5,0.8,0.8,1.2,1c0.4,0.2,0.9,0.3,1.4,0.3c1,0,1.8-0.4,2.4-1.1c0.6-0.7,0.8-1.8,0.8-3.2c0-0.7-0.1-1.3-0.2-1.9
		c-0.1-0.5-0.3-0.9-0.6-1.3s-0.5-0.6-0.9-0.7c-0.4-0.2-0.8-0.2-1.2-0.2c-0.6,0-1.2,0.1-1.7,0.4s-0.9,0.7-1.3,1.2V13.5z"/>
	<path class="st4" d="M97.2,16.2h-1.9c-0.2,0-0.3,0-0.4-0.1c-0.1-0.1-0.2-0.2-0.2-0.3l-2.8-4.4c0,0.1-0.1,0.2-0.1,0.3
		c0,0.1-0.1,0.2-0.1,0.3l-2.6,3.8c-0.1,0.1-0.2,0.2-0.2,0.3c-0.1,0.1-0.2,0.1-0.3,0.1h-1.8l3.9-5.7L86.9,5h1.9c0.2,0,0.3,0,0.4,0.1
		c0.1,0.1,0.1,0.1,0.2,0.2l2.7,4.2c0.1-0.2,0.2-0.4,0.3-0.6l2.4-3.5c0.1-0.1,0.1-0.2,0.2-0.2C95,5.1,95.1,5,95.2,5H97l-3.8,5.3
		L97.2,16.2z"/>
</g>
<g>
	<path class="st4" d="M202.2,122c0.1-0.7,0.3-1.4,0.6-1.9c0.3-0.6,0.7-1,1.1-1.4s1-0.7,1.6-0.9s1.2-0.3,1.9-0.3
		c0.7,0,1.3,0.1,1.8,0.3c0.6,0.2,1.1,0.5,1.5,0.8c0.4,0.4,0.7,0.8,1,1.3s0.3,1.1,0.3,1.7c0,0.5-0.1,0.9-0.2,1.3s-0.3,0.7-0.5,1
		c-0.2,0.3-0.5,0.5-0.9,0.7c-0.3,0.2-0.7,0.4-1.1,0.5c1,0.3,1.8,0.7,2.3,1.4c0.5,0.6,0.8,1.4,0.8,2.4c0,0.7-0.1,1.4-0.4,2
		c-0.3,0.6-0.7,1.1-1.1,1.5c-0.5,0.4-1,0.7-1.7,0.9c-0.6,0.2-1.3,0.3-2,0.3c-0.8,0-1.6-0.1-2.1-0.3c-0.6-0.2-1.1-0.5-1.5-0.9
		c-0.4-0.4-0.7-0.8-1-1.3c-0.3-0.5-0.5-1-0.7-1.6l0.8-0.4c0.2-0.1,0.4-0.1,0.6-0.1s0.4,0.2,0.5,0.4c0.1,0.2,0.2,0.5,0.4,0.7
		c0.1,0.3,0.3,0.6,0.6,0.8c0.2,0.3,0.6,0.5,1,0.7c0.4,0.2,0.9,0.3,1.5,0.3c0.5,0,1-0.1,1.4-0.3c0.4-0.2,0.8-0.4,1-0.7
		c0.3-0.3,0.5-0.6,0.6-1c0.1-0.4,0.2-0.7,0.2-1c0-0.4-0.1-0.8-0.2-1.2c-0.1-0.4-0.3-0.7-0.6-0.9s-0.7-0.5-1.2-0.6s-1.2-0.2-2-0.2
		v-1.4c0.7,0,1.2-0.1,1.7-0.2c0.5-0.1,0.9-0.3,1.2-0.6s0.5-0.5,0.6-0.9c0.1-0.3,0.2-0.7,0.2-1.1c0-0.5-0.1-0.9-0.2-1.2
		c-0.1-0.3-0.3-0.6-0.6-0.8c-0.2-0.2-0.5-0.4-0.9-0.5c-0.3-0.1-0.7-0.2-1.1-0.2c-0.4,0-0.8,0.1-1.1,0.2c-0.3,0.1-0.6,0.3-0.9,0.5
		c-0.3,0.2-0.5,0.5-0.7,0.7c-0.2,0.3-0.3,0.6-0.4,0.9c-0.1,0.3-0.2,0.4-0.4,0.5c-0.1,0.1-0.3,0.1-0.6,0.1L202.2,122z"/>
	<path class="st4" d="M221.2,127.3c0.2-0.2,0.3-0.4,0.5-0.6c0.1-0.2,0.3-0.4,0.4-0.6c-0.4,0.3-0.9,0.6-1.4,0.7
		c-0.5,0.2-1,0.3-1.6,0.3c-0.6,0-1.2-0.1-1.7-0.3c-0.5-0.2-1-0.5-1.4-0.9c-0.4-0.4-0.7-0.9-1-1.4s-0.4-1.2-0.4-1.9
		c0-0.7,0.1-1.3,0.4-1.9c0.3-0.6,0.6-1.1,1.1-1.6s1-0.8,1.6-1.1c0.6-0.3,1.3-0.4,2.1-0.4c0.8,0,1.4,0.1,2.1,0.4s1.1,0.6,1.6,1
		c0.4,0.4,0.8,1,1,1.6c0.2,0.6,0.4,1.3,0.4,2.1c0,0.5,0,0.9-0.1,1.3c-0.1,0.4-0.2,0.8-0.4,1.2c-0.2,0.4-0.4,0.8-0.6,1.2
		c-0.2,0.4-0.5,0.8-0.8,1.2l-3.8,5.5c-0.1,0.1-0.2,0.3-0.4,0.3s-0.4,0.1-0.6,0.1h-1.8L221.2,127.3z M216.7,122.4
		c0,0.5,0.1,0.9,0.2,1.3c0.1,0.4,0.3,0.7,0.6,1c0.3,0.3,0.6,0.5,1,0.6c0.4,0.1,0.8,0.2,1.3,0.2c0.5,0,1-0.1,1.4-0.3
		c0.4-0.2,0.8-0.4,1-0.7c0.3-0.3,0.5-0.6,0.6-1s0.2-0.8,0.2-1.2c0-0.5-0.1-0.9-0.2-1.3c-0.2-0.4-0.4-0.7-0.7-1
		c-0.3-0.3-0.6-0.5-1-0.6c-0.4-0.1-0.8-0.2-1.3-0.2c-0.5,0-0.9,0.1-1.3,0.2c-0.4,0.2-0.7,0.4-1,0.7c-0.3,0.3-0.5,0.6-0.7,1
		C216.8,121.5,216.7,121.9,216.7,122.4z"/>
	<path class="st4" d="M235.4,124.1c0.5-0.6,1-1,1.6-1.4s1.3-0.5,2.1-0.5c0.6,0,1.2,0.1,1.7,0.4c0.5,0.2,1,0.6,1.3,1.1
		c0.4,0.5,0.6,1.1,0.8,1.8c0.2,0.7,0.3,1.5,0.3,2.5c0,0.8-0.1,1.6-0.3,2.3c-0.2,0.7-0.5,1.3-1,1.8c-0.4,0.5-0.9,0.9-1.5,1.2
		c-0.6,0.3-1.3,0.4-2,0.4c-0.7,0-1.3-0.1-1.8-0.3s-0.9-0.6-1.3-1v4.9h-2v-14.9h1.2c0.3,0,0.5,0.1,0.5,0.4L235.4,124.1z M235.5,130.9
		c0.4,0.5,0.8,0.8,1.2,1c0.4,0.2,0.9,0.3,1.4,0.3c1,0,1.8-0.4,2.4-1.1c0.6-0.7,0.8-1.8,0.8-3.2c0-0.7-0.1-1.3-0.2-1.9
		c-0.1-0.5-0.3-0.9-0.6-1.3s-0.5-0.6-0.9-0.7c-0.4-0.2-0.8-0.2-1.2-0.2c-0.6,0-1.2,0.1-1.7,0.4s-0.9,0.7-1.3,1.2V130.9z"/>
	<path class="st4" d="M254.5,133.5h-1.9c-0.2,0-0.3,0-0.4-0.1s-0.2-0.2-0.2-0.3l-2.8-4.4c0,0.1-0.1,0.2-0.1,0.3
		c0,0.1-0.1,0.2-0.1,0.3l-2.6,3.8c-0.1,0.1-0.2,0.2-0.2,0.3c-0.1,0.1-0.2,0.1-0.3,0.1h-1.7l3.9-5.7l-3.8-5.4h1.9
		c0.2,0,0.3,0,0.4,0.1s0.1,0.1,0.2,0.2l2.7,4.2c0.1-0.2,0.2-0.4,0.3-0.6l2.4-3.5c0.1-0.1,0.1-0.2,0.2-0.2c0.1-0.1,0.2-0.1,0.3-0.1
		h1.8l-3.8,5.3L254.5,133.5z"/>
</g>
</svg>
