<?xml version="1.0" encoding="utf-8"?>
<!-- Generator: Adobe Illustrator 23.0.1, SVG Export Plug-In . SVG Version: 6.00 Build 0)  -->
<svg version="1.1" id="Layer_1" xmlns="http://www.w3.org/2000/svg" xmlns:xlink="http://www.w3.org/1999/xlink" x="0px" y="0px"
	 viewBox="0 0 108.7 80.7" style="enable-background:new 0 0 108.7 80.7;" xml:space="preserve">
<style type="text/css">
	.st0{fill:none;stroke:#EC1C24;stroke-miterlimit:10;}
	.st1{fill:#010101;}
	.st2{fill:#FFFFFF;}
</style>
<g>
	<defs>
		<rect id="SVGID_1_" x="0.6" width="107.6" height="80.2"/>
	</defs>
	<clipPath id="SVGID_2_">
		<use xlink:href="#SVGID_1_"  style="overflow:visible;"/>
	</clipPath>
</g>
<rect x="0.4" y="0.4" class="st0" width="107.9" height="79.8"/>
<g>
	<g>
		<g>
			<path id="XMLID_27_" class="st1" d="M79.2,32.2c-0.1,14.1-11.5,25.4-25.5,25.4c-7-0.1-13.2-2.8-17.7-7.4
				c-4.6-4.6-7.6-11.1-7.5-18.2C28.6,17.8,40.1,6.5,54,6.6C68,6.7,79.3,18.2,79.2,32.2z"/>
			<path class="st2" d="M41.8,40.7l-5.6,9.6c0,0,2.3,3.1,8.8,5.7l3.2-8.8l2.2-5.9l2.2-6.5l0.7-2.2l0.1-0.2l0.1-0.1l0.1-0.1l0,0h0.1
				h0.1l0.1,0.1l0.1,0.1l0.2,0.6l0.4,1.3l1.6,4.7l1.3,4.1l2.1,6.3l1.6,4.5l0.8,2.5c0,0,5.2-1.4,9.5-5.8l-3.1-4.7l-2.2-3.6l-2.1-4
				l-1.7-3.6l-1.3-3.3L60,28.1l-1-3.1l-1.1-3.6l-1.1-3.7l-1-3.7l-1.1-4.1L54,7.7l-1.2,4l-1.6,5.5l-1.3,4.2L48.1,26l-1.3,3.8
				l-1.5,3.7L43.6,37L41.8,40.7z"/>
		</g>
	</g>
	<g>
		<path class="st1" d="M34.7,67.6c-0.1-0.4-0.4-0.7-0.6-1c-0.3-0.3-0.6-0.5-1-0.6c-0.4-0.1-0.8-0.2-1.3-0.2h-2.3c0,0-0.1,0-0.1,0.1
			V68c0,0,0,0.1,0.1,0.1h1.1c0,0,0.1,0,0.1-0.1v-1.2c0,0,0-0.1,0.1-0.1h1c0.3,0,0.5,0,0.8,0.1c0.2,0.1,0.4,0.2,0.6,0.4
			c0.2,0.2,0.3,0.4,0.4,0.7c0.1,0.3,0.1,0.5,0.1,0.9c0,0.3,0,0.6-0.1,0.9c-0.1,0.3-0.2,0.5-0.4,0.7c-0.1,0.1-0.3,0.3-0.5,0.4
			c-0.2,0.1-0.5,0.1-0.8,0.1h-1c0,0-0.1,0-0.1-0.1v-1.2c0,0,0-0.1-0.1-0.1h-1.1c0,0-0.1,0-0.1,0.1v2.2c0,0,0,0.1,0.1,0.1h2.3
			c0.5,0,0.9-0.1,1.3-0.2c0.4-0.1,0.7-0.4,1-0.6c0.3-0.3,0.5-0.6,0.6-1c0.1-0.4,0.2-0.8,0.2-1.3C34.9,68.4,34.8,68,34.7,67.6z"/>
		<path class="st1" d="M37.3,66.7h2.5c0,0,0.1,0,0.1-0.1v-0.8c0,0,0-0.1-0.1-0.1H36c0,0-0.1,0-0.1,0.1v6c0,0,0,0.1,0.1,0.1h3.8
			c0,0,0.1,0,0.1-0.1V71c0,0,0-0.1-0.1-0.1h-2.5c0,0-0.1,0-0.1-0.1v-1.4c0,0,0-0.1,0.1-0.1h1.9c0,0,0.1,0,0.1-0.1v-0.8
			c0,0,0-0.1-0.1-0.1h-1.9c0,0-0.1,0-0.1-0.1v-1.4C37.2,66.8,37.2,66.7,37.3,66.7z"/>
		<path class="st1" d="M46,65.7h-0.9c0,0-0.1,0-0.1,0.1v3.5c0,0.1,0,0.2,0,0.3s0,0.2,0,0.3l-3.1-4c0,0,0-0.1-0.1-0.1c0,0,0,0-0.1,0
			c0,0,0,0-0.1,0c0,0-0.1,0-0.1,0H41c0,0-0.1,0-0.1,0.1v6c0,0,0,0.1,0.1,0.1h0.9c0,0,0.1,0,0.1-0.1v-3.5c0-0.1,0-0.2,0-0.3
			c0-0.1,0-0.2,0-0.3l3.1,4c0,0.1,0.1,0.1,0.2,0.2c0.1,0,0.1,0,0.3,0h0.6c0,0,0.1,0,0.1-0.1v-6C46.1,65.8,46.1,65.7,46,65.7z"/>
		<path class="st1" d="M51.7,65.7H47c0,0-0.1,0-0.1,0.1v0.9c0,0,0,0.1,0.1,0.1h1.6c0,0,0.1,0,0.1,0.1v5c0,0,0,0.1,0.1,0.1h1.1
			c0,0,0.1,0,0.1-0.1v-5c0,0,0-0.1,0.1-0.1h1.6c0,0,0.1,0,0.1-0.1L51.7,65.7C51.8,65.8,51.8,65.7,51.7,65.7z"/>
		<path class="st1" d="M57.4,71.8l-2.3-6c0,0,0,0-0.1,0h-1.2c0,0-0.1,0-0.1,0l-2.3,6c0,0,0,0.1,0.1,0.1h0.9c0.1,0,0.2,0,0.3-0.1
			c0.1,0,0.1-0.1,0.1-0.2l0.4-1.1c0,0,0,0,0.1,0h2.3c0,0,0.1,0,0.1,0l0.4,1.1c0,0.1,0.1,0.1,0.1,0.2c0.1,0,0.2,0.1,0.3,0.1h0.9
			C57.4,71.9,57.4,71.9,57.4,71.8z M55.1,69.6h-1.6c-0.1,0-0.1-0.1-0.1-0.1l0.6-1.8c0-0.1,0.1-0.2,0.1-0.4c0,0,0,0,0-0.1
			c0-0.1,0.2-0.1,0.2,0c0,0,0,0,0,0.1c0,0.1,0.1,0.3,0.1,0.4l0.6,1.8C55.2,69.5,55.2,69.6,55.1,69.6z"/>
		<path class="st1" d="M62.7,71l-0.4-0.5c0,0-0.1-0.1-0.2-0.1c0,0-0.1,0-0.1,0c0,0,0,0-0.1,0c-0.1,0.1-0.2,0.1-0.3,0.2
			c-0.1,0-0.2,0.1-0.3,0.1c-0.1,0-0.2,0-0.3,0.1c-0.1,0-0.3,0-0.4,0c-0.2,0-0.5,0-0.7-0.1c-0.2-0.1-0.4-0.2-0.6-0.4
			c-0.2-0.2-0.3-0.4-0.4-0.7c-0.1-0.3-0.1-0.5-0.1-0.9c0-0.3,0-0.6,0.1-0.9c0.1-0.3,0.2-0.5,0.4-0.7c0.1-0.2,0.4-0.3,0.5-0.4
			c0.2-0.1,0.4-0.1,0.7-0.1c0.2,0,0.4,0,0.6,0.1c0.1,0,0.3,0.1,0.4,0.2c0.1,0,0.2,0.1,0.3,0.2c0.1,0,0.1,0.1,0.2,0.1s0.1,0,0.2,0
			c0,0,0.1,0,0.1-0.1l0.4-0.5c0,0,0-0.1,0-0.1c-0.1-0.1-0.2-0.2-0.4-0.3c-0.1-0.1-0.3-0.2-0.5-0.3c-0.2-0.1-0.4-0.1-0.6-0.2
			c-0.2,0-0.4,0-0.6,0c-0.3,0-0.6,0-0.9,0.1c-0.3,0.1-0.5,0.2-0.8,0.3c-0.2,0.1-0.4,0.3-0.6,0.5c-0.2,0.2-0.3,0.4-0.4,0.6
			c-0.1,0.2-0.2,0.5-0.3,0.8c0,0.3-0.1,0.6-0.1,0.9c0,0.4,0.1,0.9,0.2,1.3c0.1,0.4,0.4,0.7,0.6,1c0.3,0.3,0.6,0.5,0.9,0.7
			C59.6,72,60,72,60.5,72c0.5,0,0.9-0.1,1.3-0.3C62.2,71.6,62.4,71.4,62.7,71C62.7,71.1,62.7,71,62.7,71z"/>
		<path class="st1" d="M69.1,67.6c-0.1-0.4-0.4-0.7-0.6-1c-0.3-0.3-0.6-0.5-1-0.7c-0.4-0.2-0.8-0.2-1.3-0.2s-0.9,0.1-1.3,0.2
			c-0.4,0.2-0.7,0.4-1,0.7s-0.5,0.6-0.6,1C63.1,68,63,68.4,63,68.8s0.1,0.9,0.2,1.3s0.4,0.7,0.6,1s0.6,0.5,1,0.7
			c0.4,0.2,0.8,0.2,1.3,0.2s0.9-0.1,1.3-0.2c0.4-0.2,0.7-0.4,1-0.7c0.3-0.3,0.5-0.6,0.6-1c0.1-0.4,0.2-0.8,0.2-1.3
			C69.3,68.4,69.3,68,69.1,67.6z M67.9,69.7c-0.1,0.3-0.2,0.5-0.4,0.7c-0.2,0.2-0.4,0.3-0.6,0.4c-0.2,0.1-0.5,0.1-0.8,0.1
			c-0.3,0-0.5,0-0.8-0.1s-0.4-0.2-0.6-0.4c-0.2-0.2-0.3-0.4-0.4-0.7c-0.1-0.3-0.1-0.5-0.1-0.9c0-0.3,0-0.6,0.1-0.9s0.2-0.5,0.4-0.7
			c0.2-0.2,0.4-0.3,0.6-0.4c0.2-0.1,0.5-0.1,0.8-0.1c0.3,0,0.5,0,0.8,0.1c0.2,0.1,0.4,0.2,0.6,0.4c0.2,0.2,0.3,0.4,0.4,0.7
			c0.1,0.3,0.1,0.5,0.1,0.9C68,69.1,68,69.5,67.9,69.7z"/>
		<path class="st1" d="M71.5,65.7h-1.1c0,0-0.1,0-0.1,0.1v6c0,0,0,0.1,0.1,0.1h1.1c0,0,0.1,0,0.1-0.1L71.5,65.7
			C71.6,65.8,71.5,65.7,71.5,65.7z"/>
		<path class="st1" d="M78.1,65.7h-0.9c0,0-0.1,0-0.1,0.1v3.5c0,0.1,0,0.2,0,0.3s0,0.2,0,0.3l-3.1-4c0,0,0-0.1-0.1-0.1
			c0,0,0,0-0.1,0c0,0,0,0-0.1,0c0,0-0.1,0-0.1,0h-0.6c0,0-0.1,0-0.1,0.1v6c0,0,0,0.1,0.1,0.1h0.9c0,0,0.1,0,0.1-0.1v-3.5
			c0-0.1,0-0.2,0-0.3c0-0.1,0-0.2,0-0.3l3.1,4c0,0.1,0.1,0.1,0.2,0.2c0.1,0,0.1,0,0.3,0h0.6c0,0,0.1,0,0.1-0.1v-6
			C78.2,65.8,78.2,65.7,78.1,65.7z"/>
	</g>
</g>
<line class="st0" x1="0.6" y1="0.2" x2="108.2" y2="79.8"/>
</svg>
