<?xml version="1.0" encoding="utf-8"?>
<!-- Generator: Adobe Illustrator 23.0.1, SVG Export Plug-In . SVG Version: 6.00 Build 0)  -->
<svg version="1.1" id="Layer_1" xmlns="http://www.w3.org/2000/svg" xmlns:xlink="http://www.w3.org/1999/xlink" x="0px" y="0px"
	 viewBox="0 0 108.7 80.7" style="enable-background:new 0 0 108.7 80.7;" xml:space="preserve">
<style type="text/css">
	.st0{fill:none;stroke:#EC1C24;stroke-miterlimit:10;}
	.st1{fill:#EE2C24;}
	.st2{fill:#FFFFFF;}
	.st3{fill:#73BF44;}
</style>
<g>
	<defs>
		<rect id="SVGID_1_" x="0.6" width="107.6" height="80.2"/>
	</defs>
	<clipPath id="SVGID_2_">
		<use xlink:href="#SVGID_1_"  style="overflow:visible;"/>
	</clipPath>
</g>
<rect x="0.4" y="0.4" class="st0" width="107.9" height="79.8"/>
<g>
	<g>
		<g>
			<path id="XMLID_27_" class="st1" d="M79.2,32.2c-0.1,14.1-11.5,25.4-25.5,25.4c-7-0.1-13.2-2.8-17.7-7.4
				c-4.6-4.6-7.6-11.1-7.5-18.2C28.6,17.8,40.1,6.5,54,6.6C68,6.7,79.3,18.2,79.2,32.2z"/>
			<path class="st2" d="M41.8,40.7l-5.6,9.6c0,0,2.3,3.1,8.8,5.7l3.2-8.8l2.2-5.9l2.2-6.5l0.7-2.2l0.1-0.2l0.1-0.1l0.1-0.1l0,0h0.1
				h0.1l0.1,0.1l0.1,0.1l0.2,0.6l0.4,1.3l1.6,4.7l1.3,4.1l2.1,6.3l1.6,4.5l0.8,2.5c0,0,5.2-1.4,9.5-5.8l-3.1-4.7l-2.2-3.6l-2.1-4
				l-1.7-3.6l-1.3-3.3L60,28.1l-1-3.1l-1.1-3.6l-1.1-3.7l-1-3.7l-1.1-4.1L54,7.7l-1.2,4l-1.6,5.5l-1.3,4.2L48.1,26l-1.3,3.8
				l-1.5,3.7L43.6,37L41.8,40.7z"/>
		</g>
	</g>
	<g>
		<path class="st3" d="M22,66.7c-0.2-0.6-0.6-1.2-1-1.6c-0.4-0.4-1-0.8-1.6-1c-0.7-0.2-1.3-0.4-2.2-0.4h-3.9c-0.1,0-0.1,0.1-0.1,0.1
			v3.7c0,0.1,0.1,0.1,0.1,0.1h1.8c0.1,0,0.1-0.1,0.1-0.1v-2c0-0.1,0.1-0.1,0.1-0.1H17c0.4,0,0.9,0.1,1.3,0.2c0.4,0.1,0.7,0.4,1,0.7
			c0.3,0.3,0.4,0.7,0.6,1.1s0.2,0.9,0.2,1.5c0,0.5-0.1,1-0.2,1.5s-0.4,0.8-0.6,1.1c-0.1,0.2-0.4,0.4-0.8,0.7
			c-0.4,0.1-0.8,0.2-1.3,0.2h-1.7c-0.1,0-0.1-0.1-0.1-0.1v-2c0-0.1-0.1-0.1-0.1-0.1h-1.9c-0.1,0-0.1,0.1-0.1,0.1v3.7
			c0,0.1,0.1,0.1,0.1,0.1h3.8c0.8,0,1.5-0.1,2.2-0.4c0.7-0.2,1.2-0.6,1.6-1c0.4-0.4,0.8-1,1-1.6c0.2-0.7,0.4-1.3,0.4-2.1
			C22.4,68.1,22.3,67.4,22,66.7z"/>
		<path class="st3" d="M26.3,65.3h4.1c0.1,0,0.1-0.1,0.1-0.1v-1.3c0-0.1-0.1-0.1-0.1-0.1h-6.3c-0.1,0-0.1,0.1-0.1,0.1v10
			c0,0.1,0.1,0.1,0.1,0.1h6.3c0.1,0,0.1-0.1,0.1-0.1v-1.3c0-0.1-0.1-0.1-0.1-0.1h-4.1c-0.1,0-0.1-0.1-0.1-0.1v-2.4
			c0-0.1,0.1-0.1,0.1-0.1h3.1c0.1,0,0.1-0.1,0.1-0.1v-1.3c0-0.1-0.1-0.1-0.1-0.1h-3.1c-0.1,0-0.1-0.1-0.1-0.1v-2.3
			C26.1,65.4,26.2,65.3,26.3,65.3z"/>
		<path class="st3" d="M40.9,63.6h-1.6c-0.1,0-0.1,0.1-0.1,0.1v5.8c0,0.1,0,0.3,0,0.4c0,0.1,0,0.4,0.1,0.5l-5.2-6.6
			c-0.1-0.1-0.1-0.1-0.1-0.1c-0.1-0.1-0.1-0.1-0.1-0.1c-0.1,0-0.1-0.1-0.1-0.1s-0.1,0-0.2,0h-1c-0.1,0-0.1,0.1-0.1,0.1v10
			c0,0.1,0.1,0.1,0.1,0.1H34c0.1,0,0.1-0.1,0.1-0.1V68c0-0.1,0-0.3,0-0.4c0-0.1,0-0.3,0-0.5l5.2,6.6c0.1,0.1,0.2,0.2,0.3,0.3
			c0.1,0.1,0.2,0.1,0.4,0.1h1c0.1,0,0.1-0.1,0.1-0.1v-10C41,63.7,41,63.6,40.9,63.6z"/>
		<path class="st3" d="M50.4,63.6h-7.9c-0.1,0-0.1,0.1-0.1,0.1v1.4c0,0.1,0.1,0.1,0.1,0.1h2.7c0.1,0,0.1,0.1,0.1,0.1v8.3
			c0,0.1,0.1,0.1,0.1,0.1h1.8c0.1,0,0.1-0.1,0.1-0.1v-8.3c0-0.1,0.1-0.1,0.1-0.1h2.7c0.1,0,0.1-0.1,0.1-0.1v-1.4
			C50.5,63.7,50.5,63.6,50.4,63.6z"/>
		<path class="st3" d="M59.7,73.7l-3.9-10c0-0.1-0.1-0.1-0.1-0.1h-1.9c-0.1,0-0.1,0.1-0.1,0.1l-3.9,10c-0.1,0.1,0.1,0.2,0.1,0.2h1.4
			c0.1,0,0.3-0.1,0.4-0.1c0.1-0.1,0.2-0.2,0.2-0.3l0.7-1.9c0-0.1,0.1-0.1,0.1-0.1h3.9c0.1,0,0.1,0.1,0.1,0.1l0.7,1.9
			c0.1,0.1,0.1,0.2,0.2,0.4C57.9,74,58,74,58.2,74h1.4C59.7,74,59.8,73.9,59.7,73.7z M56,70.1h-2.6c-0.1,0-0.2-0.1-0.1-0.2l1-2.9
			c0.1-0.1,0.1-0.4,0.2-0.6c0-0.1,0-0.1,0.1-0.1c0.1-0.1,0.3-0.1,0.3,0c0,0.1,0,0.1,0.1,0.1c0.1,0.2,0.1,0.4,0.2,0.6l1,2.9
			C56.2,69.9,56.1,70.1,56,70.1z"/>
		<path class="st3" d="M68.6,72.4l-0.7-0.8c-0.1-0.1-0.1-0.1-0.3-0.1c-0.1,0-0.1,0-0.1,0.1c-0.1,0-0.1,0.1-0.1,0.1
			c-0.1,0.1-0.3,0.2-0.4,0.4c-0.1,0.1-0.3,0.1-0.4,0.2c-0.1,0.1-0.4,0.1-0.5,0.1c-0.2,0-0.4,0-0.7,0c-0.4,0-0.8-0.1-1.1-0.2
			c-0.4-0.1-0.7-0.4-1-0.7c-0.3-0.3-0.4-0.7-0.7-1.1c-0.1-0.4-0.2-0.9-0.2-1.5c0-0.5,0.1-1,0.2-1.5c0.1-0.4,0.4-0.8,0.6-1.1
			s0.6-0.5,0.9-0.7c0.4-0.1,0.7-0.2,1.2-0.2c0.4,0,0.7,0.1,1,0.1c0.2,0.1,0.4,0.1,0.6,0.3c0.1,0.1,0.3,0.2,0.4,0.3
			c0.1,0.1,0.2,0.1,0.4,0.1c0.1,0,0.2,0,0.3-0.1c0.1-0.1,0.1-0.1,0.1-0.1l0.6-0.9c0.1-0.1,0.1-0.1,0-0.2c-0.1-0.1-0.4-0.3-0.6-0.4
			c-0.2-0.1-0.5-0.3-0.8-0.4c-0.3-0.1-0.6-0.2-1-0.3c-0.4-0.1-0.7-0.1-1-0.1c-0.5,0-1,0.1-1.4,0.1c-0.4,0.1-0.9,0.3-1.3,0.5
			c-0.4,0.2-0.7,0.5-1,0.8c-0.3,0.3-0.5,0.7-0.7,1s-0.4,0.8-0.5,1.3c-0.1,0.4-0.1,1-0.1,1.5c0,0.7,0.1,1.5,0.4,2.1
			c0.2,0.7,0.6,1.2,1,1.6c0.4,0.4,1,0.8,1.6,1.1c0.6,0.3,1.3,0.4,2.1,0.4c0.8,0,1.6-0.1,2.2-0.4c0.6-0.2,1-0.6,1.5-1.1
			C68.6,72.5,68.6,72.4,68.6,72.4z"/>
		<path class="st3" d="M79.2,66.7c-0.2-0.7-0.6-1.2-1-1.6s-1-0.8-1.6-1.1c-0.7-0.3-1.3-0.4-2.2-0.4s-1.5,0.1-2.2,0.4
			c-0.7,0.3-1.2,0.7-1.6,1.1s-0.8,1-1,1.6c-0.2,0.7-0.4,1.3-0.4,2.1c0,0.7,0.1,1.4,0.4,2.1c0.2,0.7,0.6,1.2,1,1.6s1,0.8,1.6,1.1
			c0.7,0.3,1.3,0.4,2.2,0.4s1.5-0.1,2.2-0.4c0.7-0.3,1.2-0.7,1.6-1.1s0.8-1,1-1.6c0.2-0.7,0.4-1.3,0.4-2.1
			C79.6,68.1,79.5,67.4,79.2,66.7z M77.2,70.3c-0.1,0.4-0.4,0.8-0.6,1.1c-0.3,0.3-0.6,0.5-1,0.7s-0.8,0.2-1.3,0.2s-0.9-0.1-1.3-0.2
			c-0.4-0.1-0.7-0.4-1-0.7c-0.3-0.3-0.4-0.7-0.6-1.1s-0.2-0.9-0.2-1.5c0-0.5,0.1-1,0.2-1.5c0.1-0.4,0.4-0.8,0.6-1.1
			c0.3-0.3,0.6-0.5,1-0.7c0.4-0.1,0.8-0.2,1.3-0.2s0.9,0.1,1.3,0.2s0.7,0.4,1,0.7c0.3,0.3,0.4,0.7,0.6,1.1c0.1,0.4,0.2,0.9,0.2,1.5
			C77.5,69.3,77.4,69.9,77.2,70.3z"/>
		<path class="st3" d="M83.2,63.6h-1.8c-0.1,0-0.1,0.1-0.1,0.1v10c0,0.1,0.1,0.1,0.1,0.1h1.8c0.1,0,0.1-0.1,0.1-0.1v-10
			C83.4,63.7,83.3,63.6,83.2,63.6z"/>
		<path class="st3" d="M94.2,63.6h-1.6c-0.1,0-0.1,0.1-0.1,0.1v5.8c0,0.1,0,0.3,0,0.4c0,0.1,0,0.4,0.1,0.5l-5.2-6.6
			c-0.1-0.1-0.1-0.1-0.1-0.1c-0.1-0.1-0.1-0.1-0.1-0.1c-0.1,0-0.1-0.1-0.1-0.1s-0.1,0-0.2,0h-1c-0.1,0-0.1,0.1-0.1,0.1v10
			c0,0.1,0.1,0.1,0.1,0.1h1.6c0.1,0,0.1-0.1,0.1-0.1V68c0-0.1,0-0.3,0-0.4c0-0.1,0-0.3,0-0.5l5.2,6.6c0.1,0.1,0.2,0.2,0.3,0.3
			C93,74,93.1,74,93.3,74h1c0.1,0,0.1-0.1,0.1-0.1v-10C94.4,63.7,94.4,63.6,94.2,63.6z"/>
	</g>
</g>
<line class="st0" x1="0.6" y1="0.2" x2="108.2" y2="79.8"/>
</svg>
