<?xml version="1.0" encoding="utf-8"?>
<!-- Generator: Adobe Illustrator 23.0.1, SVG Export Plug-In . SVG Version: 6.00 Build 0)  -->
<svg version="1.1" id="Layer_1" xmlns="http://www.w3.org/2000/svg" xmlns:xlink="http://www.w3.org/1999/xlink" x="0px" y="0px"
	 viewBox="0 0 108.7 80.7" style="enable-background:new 0 0 108.7 80.7;" xml:space="preserve">
<style type="text/css">
	.st0{fill:none;stroke:#EC1C24;stroke-miterlimit:10;}
	.st1{fill:#010101;}
	.st2{fill:#FFFFFF;}
</style>
<g>
	<defs>
		<rect id="SVGID_1_" x="0.6" width="107.6" height="80.2"/>
	</defs>
	<clipPath id="SVGID_2_">
		<use xlink:href="#SVGID_1_"  style="overflow:visible;"/>
	</clipPath>
</g>
<rect x="0.4" y="0.4" class="st0" width="107.9" height="79.8"/>
<g>
	<g>
		<g>
			<path id="XMLID_27_" class="st1" d="M68.4,22c4,11.4-2,24-13.4,28c-5.7,2-11.5,1.5-16.6-0.9c-5.1-2.4-9.4-6.9-11.4-12.7
				c-4-11.5,2-24,13.4-28S64.4,10.5,68.4,22z"/>
			<path class="st2" d="M40.4,39.7l-1.8,9.4c0,0,2.8,1.9,8.8,2.1l0-8.1l0-5.4l-0.1-5.9l0-2l0-0.2l0-0.1l0-0.1l0,0l0.1,0l0.1,0l0.1,0
				l0.1,0.1l0.4,0.4l0.7,0.9l2.6,3.4l2.3,3l3.5,4.5l2.6,3.2l1.4,1.8c0,0,3.8-2.7,6-7.4l-3.9-2.9l-2.8-2.3l-2.9-2.7l-2.4-2.4l-2-2.3
				l-1.8-2.3L49.8,22l-2-2.6l-2-2.7L43.9,14l-2.1-3l-1.1-1.5l0.2,3.6l0.3,5l0.1,3.8L41.2,26l0.1,3.5l-0.2,3.4l-0.3,3.3L40.4,39.7z"
				/>
		</g>
	</g>
	<g>
		<path class="st1" d="M31.9,66.6c-0.4-0.4-0.8-0.8-1.3-1s-1.1-0.4-1.6-0.4c-0.6,0-1.2,0.1-1.9,0.3l-3.2,1.1c-0.1,0-0.1,0.1-0.1,0.2
			l1.1,3c0,0.1,0.1,0.1,0.2,0.1l1.5-0.5c0.1,0,0.1-0.1,0.1-0.2L26,67.6c0-0.1,0-0.1,0.1-0.2l1.3-0.5c0.4-0.1,0.8-0.2,1.1-0.2
			c0.3,0,0.7,0.1,1,0.3c0.3,0.2,0.6,0.4,0.8,0.7s0.4,0.7,0.6,1.2c0.2,0.4,0.2,0.9,0.3,1.3c0,0.4-0.1,0.8-0.2,1.1
			c-0.1,0.2-0.2,0.5-0.5,0.8c-0.3,0.2-0.6,0.4-1,0.6l-1.4,0.5c-0.1,0-0.1,0-0.2-0.1l-0.6-1.6c0-0.1-0.1-0.1-0.2-0.1l-1.5,0.5
			c-0.1,0-0.1,0.1-0.1,0.2l1.1,3c0,0.1,0.1,0.1,0.2,0.1L30,74c0.7-0.2,1.2-0.6,1.7-0.9c0.5-0.4,0.8-0.8,1-1.3s0.4-1,0.4-1.6
			c0-0.6-0.1-1.2-0.3-1.8C32.6,67.6,32.3,67.1,31.9,66.6z"/>
		<path class="st1" d="M35,64.2l3.3-1.2c0.1,0,0.1-0.1,0.1-0.2L38,61.8c0-0.1-0.1-0.1-0.2-0.1l-5.1,1.8c-0.1,0-0.1,0.1-0.1,0.2
			l2.9,8.1c0,0.1,0.1,0.1,0.2,0.1l5.1-1.8c0.1,0,0.1-0.1,0.1-0.2l-0.4-1.1c0-0.1-0.1-0.1-0.2-0.1L37,70c-0.1,0-0.1,0-0.2-0.1
			l-0.7-1.9c0-0.1,0-0.1,0.1-0.2l2.6-0.9c0.1,0,0.1-0.1,0.1-0.2l-0.4-1c0-0.1-0.1-0.1-0.2-0.1l-2.6,0.9c-0.1,0-0.1,0-0.2-0.1
			l-0.7-1.9C34.9,64.3,34.9,64.3,35,64.2z"/>
		<path class="st1" d="M46.3,58.7l-1.3,0.5c-0.1,0-0.1,0.1-0.1,0.2l1.7,4.7c0,0.1,0.1,0.2,0.1,0.4c0,0.1,0.1,0.3,0.2,0.4l-6.1-3.8
			c-0.1,0-0.1-0.1-0.2-0.1c-0.1,0-0.1,0-0.1,0s-0.1,0-0.1,0c-0.1,0-0.1,0-0.2,0.1l-0.8,0.3c-0.1,0-0.1,0.1-0.1,0.2l2.9,8.1
			c0,0.1,0.1,0.1,0.2,0.1l1.3-0.5c0.1,0,0.1-0.1,0.1-0.2l-1.7-4.7c0-0.1-0.1-0.2-0.1-0.4c0-0.1-0.1-0.2-0.2-0.4l6.1,3.8
			c0.1,0.1,0.2,0.1,0.3,0.2c0.1,0,0.2,0,0.4-0.1l0.8-0.3c0.1,0,0.1-0.1,0.1-0.2l-2.9-8.1C46.5,58.7,46.4,58.6,46.3,58.7z"/>
		<path class="st1" d="M54.1,55.9l-6.4,2.3c-0.1,0-0.1,0.1-0.1,0.2l0.4,1.2c0,0.1,0.1,0.1,0.2,0.1l2.2-0.8c0.1,0,0.1,0,0.2,0.1
			l2.4,6.7c0,0.1,0.1,0.1,0.2,0.1l1.5-0.5c0.1,0,0.1-0.1,0.1-0.2l-2.4-6.7c0-0.1,0-0.1,0.1-0.2l2.2-0.8c0.1,0,0.1-0.1,0.1-0.2
			L54.2,56C54.2,55.9,54.1,55.9,54.1,55.9z"/>
		<path class="st1" d="M64.6,61.4l-6.1-7c0-0.1-0.1,0-0.1,0l-1.6,0.6c-0.1,0-0.1,0.1-0.1,0.1l-0.2,9.3c0,0.1,0.1,0.2,0.2,0.1
			l1.2-0.4c0.1,0,0.2-0.1,0.3-0.3c0.1-0.1,0.1-0.2,0.1-0.3l0-1.7c0-0.1,0-0.1,0.1-0.1l3.2-1.1c0.1,0,0.1,0,0.1,0l1.1,1.3
			c0.1,0.1,0.2,0.1,0.3,0.2c0.1,0,0.3,0,0.4,0l1.2-0.4C64.7,61.6,64.7,61.5,64.6,61.4z M60.5,59.5l-2.1,0.8c-0.1,0-0.2-0.1-0.2-0.1
			l0-2.7c0-0.1,0-0.3,0-0.6c0-0.1,0-0.1,0-0.1c0-0.1,0.2-0.2,0.2-0.1c0,0.1,0,0.1,0.1,0.1c0.1,0.2,0.3,0.3,0.4,0.4l1.7,2.1
			C60.6,59.3,60.6,59.5,60.5,59.5z"/>
		<path class="st1" d="M71.4,57.7l-0.8-0.5c-0.1,0-0.2-0.1-0.3,0c-0.1,0-0.1,0-0.1,0.1c-0.1,0,0,0.1-0.1,0.1
			c-0.1,0.2-0.2,0.3-0.3,0.4c-0.1,0.1-0.2,0.2-0.3,0.3c-0.1,0.1-0.3,0.2-0.4,0.3c-0.2,0.1-0.4,0.1-0.5,0.2c-0.3,0.1-0.7,0.2-1,0.1
			c-0.3,0-0.7-0.1-1-0.3c-0.3-0.2-0.6-0.4-0.9-0.7c-0.3-0.3-0.4-0.7-0.6-1.2c-0.2-0.4-0.2-0.9-0.3-1.3c0-0.4,0.1-0.8,0.2-1.1
			c0.1-0.3,0.3-0.6,0.5-0.8c0.3-0.2,0.5-0.4,0.9-0.5c0.3-0.1,0.6-0.2,0.8-0.2c0.2,0,0.4,0,0.6,0.1c0.1,0,0.3,0.1,0.5,0.1
			c0.1,0,0.2,0.1,0.3,0c0.1,0,0.2-0.1,0.2-0.1c0-0.1,0.1-0.1,0.1-0.2l0.2-0.9c0-0.1,0-0.1-0.1-0.2c-0.2-0.1-0.4-0.1-0.6-0.2
			c-0.2-0.1-0.5-0.1-0.8-0.1c-0.3,0-0.6,0-0.9,0s-0.6,0.1-0.9,0.2c-0.4,0.2-0.8,0.3-1.1,0.5c-0.3,0.3-0.6,0.5-0.9,0.8
			c-0.2,0.3-0.5,0.6-0.6,1c-0.2,0.3-0.2,0.7-0.3,1.1C63,55.3,63,55.7,63,56.1c0.1,0.4,0.2,0.8,0.3,1.3c0.2,0.6,0.6,1.2,0.9,1.6
			c0.4,0.5,0.8,0.8,1.3,1.1c0.5,0.2,1,0.4,1.6,0.5c0.6,0.1,1.2-0.1,1.8-0.3c0.7-0.2,1.2-0.6,1.7-1c0.4-0.4,0.7-0.8,0.9-1.3
			C71.5,57.8,71.4,57.7,71.4,57.7z"/>
		<path class="st1" d="M78.4,50c-0.4-0.5-0.8-0.8-1.3-1s-1.1-0.4-1.7-0.4c-0.6,0-1.2,0.1-1.9,0.3s-1.2,0.6-1.7,0.9
			c-0.5,0.4-0.8,0.9-1,1.4s-0.4,1.1-0.4,1.6c0,0.6,0.1,1.2,0.3,1.8c0.2,0.6,0.5,1.1,0.9,1.6s0.8,0.8,1.3,1s1.1,0.4,1.7,0.4
			c0.6,0,1.2-0.1,1.9-0.3c0.7-0.2,1.2-0.6,1.7-0.9c0.5-0.4,0.8-0.9,1-1.4s0.4-1.1,0.4-1.6c0-0.6-0.1-1.2-0.3-1.8
			C79.1,51,78.8,50.5,78.4,50z M77.8,53.5c0,0.4-0.1,0.8-0.2,1.1c-0.2,0.3-0.3,0.6-0.6,0.8c-0.3,0.2-0.6,0.4-1,0.6s-0.8,0.2-1.1,0.2
			s-0.7-0.1-1-0.3c-0.3-0.2-0.6-0.4-0.8-0.7c-0.3-0.3-0.4-0.7-0.6-1.2c-0.2-0.4-0.2-0.9-0.3-1.3c0-0.4,0.1-0.8,0.2-1.1
			c0.2-0.3,0.3-0.6,0.6-0.8c0.3-0.2,0.6-0.4,1-0.6s0.8-0.2,1.1-0.2c0.3,0,0.7,0.1,1,0.3c0.3,0.2,0.6,0.4,0.8,0.7
			c0.3,0.3,0.4,0.7,0.6,1.2C77.7,52.7,77.8,53.1,77.8,53.5z"/>
		<path class="st1" d="M80.7,46.4l-1.5,0.5c-0.1,0-0.1,0.1-0.1,0.2l2.9,8.1c0,0.1,0.1,0.1,0.2,0.1l1.5-0.5c0.1,0,0.1-0.1,0.1-0.2
			l-2.9-8.1C80.9,46.4,80.8,46.3,80.7,46.4z"/>
		<path class="st1" d="M89.7,43.2l-1.3,0.5c-0.1,0-0.1,0.1-0.1,0.2l1.7,4.7c0,0.1,0.1,0.2,0.1,0.4c0,0.1,0.1,0.3,0.2,0.4l-6.1-3.8
			c-0.1,0-0.1-0.1-0.2-0.1c-0.1,0-0.1,0-0.1,0c-0.1,0-0.1,0-0.1,0s-0.1,0-0.2,0.1l-0.9,0.3c-0.1,0-0.1,0.1-0.1,0.2l2.9,8.1
			c0,0.1,0.1,0.1,0.2,0.1l1.3-0.5c0.1,0,0.1-0.1,0.1-0.2l-1.7-4.7c0-0.1-0.1-0.2-0.1-0.4c0-0.1-0.1-0.2-0.2-0.4l6.1,3.8
			c0.1,0.1,0.2,0.1,0.3,0.2c0.1,0,0.2,0,0.4-0.1l0.8-0.3c0.1,0,0.1-0.1,0.1-0.2l-2.9-8.1C89.9,43.2,89.8,43.1,89.7,43.2z"/>
	</g>
</g>
<line class="st0" x1="0.6" y1="0.2" x2="108.2" y2="79.8"/>
</svg>
