<?xml version="1.0" encoding="utf-8"?>
<!-- Generator: Adobe Illustrator 23.0.1, SVG Export Plug-In . SVG Version: 6.00 Build 0)  -->
<svg version="1.1" id="Layer_1" xmlns="http://www.w3.org/2000/svg" xmlns:xlink="http://www.w3.org/1999/xlink" x="0px" y="0px"
	 viewBox="0 0 108.7 80.7" style="enable-background:new 0 0 108.7 80.7;" xml:space="preserve">
<style type="text/css">
	.st0{fill:none;stroke:#EC1C24;stroke-miterlimit:10;}
	.st1{fill:#010101;}
	.st2{fill:#FFFFFF;}
</style>
<g>
	<defs>
		<rect id="SVGID_1_" x="0.6" width="107.6" height="80.2"/>
	</defs>
	<clipPath id="SVGID_2_">
		<use xlink:href="#SVGID_1_"  style="overflow:visible;"/>
	</clipPath>
</g>
<rect x="0.4" y="0.4" class="st0" width="107.9" height="79.8"/>
<g>
	<g>
		<g>
			<path id="XMLID_27_" class="st1" d="M79.2,35.6c-0.1,8.2-11.5,14.8-25.5,14.8c-7,0-13.2-1.7-17.7-4.3c-4.6-2.7-7.6-6.5-7.5-10.6
				c0.1-8.2,11.5-14.8,25.5-14.8C68,20.7,79.3,27.4,79.2,35.6z"/>
			<path class="st2" d="M41.8,40.5l-5.6,5.6c0,0,2.3,1.8,8.8,3.3l3.2-5.1l2.2-3.4l2.2-3.8l0.7-1.3l0.1-0.1l0.1,0l0.1,0l0,0h0.1h0.1
				l0.1,0l0.1,0.1l0.2,0.3l0.4,0.7l1.6,2.7l1.3,2.4l2.1,3.7l1.6,2.6l0.8,1.4c0,0,5.2-0.8,9.5-3.4l-3.1-2.7l-2.2-2.1l-2.1-2.4
				L62.4,37l-1.3-1.9L60,33.2l-1-1.8l-1.1-2.1l-1.1-2.2l-1-2.2l-1.1-2.4L54,21.4l-1.2,2.3l-1.6,3.2l-1.3,2.4L48.1,32l-1.3,2.2
				l-1.5,2.1l-1.6,2L41.8,40.5z"/>
		</g>
	</g>
	<g>
		<path class="st1" d="M22,55.7c-0.2-0.3-0.6-0.7-1-1c-0.4-0.3-1-0.5-1.6-0.6c-0.7-0.1-1.3-0.2-2.2-0.2h-3.9c-0.1,0-0.1,0-0.1,0.1
			v2.1c0,0,0.1,0.1,0.1,0.1h1.8c0.1,0,0.1,0,0.1-0.1V55c0,0,0.1-0.1,0.1-0.1H17c0.4,0,0.9,0,1.3,0.1c0.4,0.1,0.7,0.2,1,0.4
			c0.3,0.2,0.4,0.4,0.6,0.7s0.2,0.5,0.2,0.9c0,0.3-0.1,0.6-0.2,0.9s-0.4,0.5-0.6,0.7c-0.1,0.1-0.4,0.3-0.8,0.4
			c-0.4,0.1-0.8,0.1-1.3,0.1h-1.7c-0.1,0-0.1,0-0.1-0.1v-1.2c0,0-0.1-0.1-0.1-0.1h-1.9c-0.1,0-0.1,0-0.1,0.1v2.1
			c0,0,0.1,0.1,0.1,0.1h3.8c0.8,0,1.5-0.1,2.2-0.2c0.7-0.1,1.2-0.3,1.6-0.6s0.8-0.6,1-1c0.2-0.4,0.4-0.8,0.4-1.2
			C22.4,56.5,22.3,56.1,22,55.7z"/>
		<path class="st1" d="M26.3,54.9h4.1c0.1,0,0.1,0,0.1-0.1V54c0,0-0.1-0.1-0.1-0.1h-6.3c-0.1,0-0.1,0-0.1,0.1v5.8
			c0,0,0.1,0.1,0.1,0.1h6.3c0.1,0,0.1,0,0.1-0.1V59c0,0-0.1-0.1-0.1-0.1h-4.1c-0.1,0-0.1,0-0.1-0.1v-1.4c0,0,0.1-0.1,0.1-0.1h3.1
			c0.1,0,0.1,0,0.1-0.1v-0.7c0,0-0.1-0.1-0.1-0.1h-3.1c-0.1,0-0.1,0-0.1-0.1V55C26.1,54.9,26.2,54.9,26.3,54.9z"/>
		<path class="st1" d="M40.9,53.9h-1.6c-0.1,0-0.1,0-0.1,0.1v3.4c0,0.1,0,0.2,0,0.3c0,0.1,0,0.2,0.1,0.3l-5.2-3.8
			C34,54,34,54,33.9,54c-0.1,0-0.1,0-0.1,0c-0.1,0-0.1,0-0.1,0s-0.1,0-0.2,0h-1c-0.1,0-0.1,0-0.1,0.1v5.8c0,0,0.1,0.1,0.1,0.1H34
			c0.1,0,0.1,0,0.1-0.1v-3.4c0-0.1,0-0.2,0-0.3c0-0.1,0-0.2,0-0.3l5.2,3.8c0.1,0.1,0.2,0.1,0.3,0.2c0.1,0,0.2,0,0.4,0h1
			c0.1,0,0.1,0,0.1-0.1V54C41,54,41,53.9,40.9,53.9z"/>
		<path class="st1" d="M50.4,53.9h-7.9c-0.1,0-0.1,0-0.1,0.1v0.8c0,0,0.1,0.1,0.1,0.1h2.7c0.1,0,0.1,0,0.1,0.1v4.8
			c0,0,0.1,0.1,0.1,0.1h1.8c0.1,0,0.1,0,0.1-0.1V55c0,0,0.1-0.1,0.1-0.1h2.7c0.1,0,0.1,0,0.1-0.1L50.4,53.9
			C50.5,54,50.5,53.9,50.4,53.9z"/>
		<path class="st1" d="M59.7,59.8L55.8,54c0,0-0.1,0-0.1,0h-1.9c-0.1,0-0.1,0-0.1,0l-3.9,5.8c-0.1,0,0.1,0.1,0.1,0.1h1.4
			c0.1,0,0.3,0,0.4-0.1c0.1,0,0.2-0.1,0.2-0.2l0.7-1.1c0,0,0.1,0,0.1,0h3.9c0.1,0,0.1,0,0.1,0l0.7,1.1c0.1,0.1,0.1,0.1,0.2,0.2
			c0.1,0,0.3,0.1,0.4,0.1h1.4C59.7,59.9,59.8,59.9,59.7,59.8z M56,57.6h-2.6c-0.1,0-0.2-0.1-0.1-0.1l1-1.7c0.1-0.1,0.1-0.2,0.2-0.3
			c0,0,0,0,0.1-0.1c0.1-0.1,0.3-0.1,0.3,0c0,0,0,0,0.1,0.1c0.1,0.1,0.1,0.3,0.2,0.3l1,1.7C56.2,57.6,56.1,57.6,56,57.6z"/>
		<path class="st1" d="M68.6,59l-0.7-0.5c-0.1,0-0.1-0.1-0.3-0.1c-0.1,0-0.1,0-0.1,0c-0.1,0-0.1,0-0.1,0c-0.1,0.1-0.3,0.1-0.4,0.2
			c-0.1,0-0.3,0.1-0.4,0.1c-0.1,0-0.4,0-0.5,0.1c-0.2,0-0.4,0-0.7,0c-0.4,0-0.8,0-1.1-0.1c-0.4-0.1-0.7-0.2-1-0.4
			c-0.3-0.2-0.4-0.4-0.7-0.7c-0.1-0.3-0.2-0.5-0.2-0.9c0-0.3,0.1-0.6,0.2-0.9c0.1-0.3,0.4-0.5,0.6-0.7c0.2-0.2,0.6-0.3,0.9-0.4
			c0.4-0.1,0.7-0.1,1.2-0.1c0.4,0,0.7,0,1,0.1c0.2,0,0.4,0.1,0.6,0.2c0.1,0,0.3,0.1,0.4,0.2c0.1,0,0.2,0.1,0.4,0.1
			c0.1,0,0.2,0,0.3,0c0.1,0,0.1,0,0.1-0.1l0.6-0.5c0.1,0,0.1-0.1,0-0.1c-0.1-0.1-0.4-0.2-0.6-0.3c-0.2-0.1-0.5-0.2-0.8-0.3
			c-0.3-0.1-0.6-0.1-1-0.2s-0.7,0-1,0c-0.5,0-1,0-1.4,0.1c-0.4,0.1-0.9,0.2-1.3,0.3c-0.4,0.1-0.7,0.3-1,0.5
			c-0.3,0.2-0.5,0.4-0.7,0.6s-0.4,0.5-0.5,0.7c-0.1,0.3-0.1,0.6-0.1,0.9c0,0.4,0.1,0.9,0.4,1.2c0.2,0.4,0.6,0.7,1,1
			c0.4,0.3,1,0.5,1.6,0.7c0.6,0.2,1.3,0.2,2.1,0.2c0.8,0,1.6-0.1,2.2-0.3C67.7,59.6,68.2,59.4,68.6,59C68.6,59.1,68.6,59,68.6,59z"
			/>
		<path class="st1" d="M79.2,55.7c-0.2-0.4-0.6-0.7-1-1s-1-0.5-1.6-0.7c-0.7-0.2-1.3-0.2-2.2-0.2s-1.5,0.1-2.2,0.2
			c-0.7,0.2-1.2,0.4-1.6,0.7s-0.8,0.6-1,1c-0.2,0.4-0.4,0.8-0.4,1.2c0,0.4,0.1,0.8,0.4,1.2c0.2,0.4,0.6,0.7,1,1s1,0.5,1.6,0.7
			c0.7,0.2,1.3,0.2,2.2,0.2s1.5-0.1,2.2-0.2c0.7-0.2,1.2-0.4,1.6-0.7s0.8-0.6,1-1c0.2-0.4,0.4-0.8,0.4-1.2
			C79.6,56.5,79.5,56.1,79.2,55.7z M77.2,57.8c-0.1,0.3-0.4,0.5-0.6,0.7c-0.3,0.2-0.6,0.3-1,0.4c-0.4,0.1-0.8,0.1-1.3,0.1
			s-0.9,0-1.3-0.1c-0.4-0.1-0.7-0.2-1-0.4c-0.3-0.2-0.4-0.4-0.6-0.7s-0.2-0.5-0.2-0.9c0-0.3,0.1-0.6,0.2-0.9
			c0.1-0.3,0.4-0.5,0.6-0.7c0.3-0.2,0.6-0.3,1-0.4s0.8-0.1,1.3-0.1s0.9,0,1.3,0.1c0.4,0.1,0.7,0.2,1,0.4c0.3,0.2,0.4,0.4,0.6,0.7
			s0.2,0.5,0.2,0.9C77.5,57.2,77.4,57.5,77.2,57.8z"/>
		<path class="st1" d="M83.2,53.9h-1.8c-0.1,0-0.1,0-0.1,0.1v5.8c0,0,0.1,0.1,0.1,0.1h1.8c0.1,0,0.1,0,0.1-0.1V54
			C83.4,54,83.3,53.9,83.2,53.9z"/>
		<path class="st1" d="M94.2,53.9h-1.6c-0.1,0-0.1,0-0.1,0.1v3.4c0,0.1,0,0.2,0,0.3c0,0.1,0,0.2,0.1,0.3l-5.2-3.8
			c-0.1,0-0.1-0.1-0.1-0.1c-0.1,0-0.1,0-0.1,0c-0.1,0-0.1,0-0.1,0s-0.1,0-0.2,0h-1c-0.1,0-0.1,0-0.1,0.1v5.8c0,0,0.1,0.1,0.1,0.1
			h1.6c0.1,0,0.1,0,0.1-0.1v-3.4c0-0.1,0-0.2,0-0.3c0-0.1,0-0.2,0-0.3l5.2,3.8c0.1,0.1,0.2,0.1,0.3,0.2c0.1,0,0.2,0,0.4,0h1
			c0.1,0,0.1,0,0.1-0.1V54C94.4,54,94.4,53.9,94.2,53.9z"/>
	</g>
</g>
<line class="st0" x1="0.6" y1="0.2" x2="108.2" y2="79.8"/>
</svg>
