<?xml version="1.0" encoding="utf-8"?>
<!-- Generator: Adobe Illustrator 23.0.1, SVG Export Plug-In . SVG Version: 6.00 Build 0)  -->
<svg version="1.1" id="Layer_1" xmlns="http://www.w3.org/2000/svg" xmlns:xlink="http://www.w3.org/1999/xlink" x="0px" y="0px"
	 viewBox="0 0 108.7 80.7" style="enable-background:new 0 0 108.7 80.7;" xml:space="preserve">
<style type="text/css">
	.st0{fill:#010101;}
	.st1{fill:#FFFFFF;}
	.st2{fill:none;stroke:#EC1C24;stroke-miterlimit:10;}
</style>
<g>
	<defs>
		<rect id="SVGID_1_" x="0.6" width="107.6" height="80.2"/>
	</defs>
	<clipPath id="SVGID_2_">
		<use xlink:href="#SVGID_1_"  style="overflow:visible;"/>
	</clipPath>
</g>
<g>
	<g>
		<g>
			<path id="XMLID_27_" class="st0" d="M104.6,29C104.5,43,93.1,54.4,79.1,54.3c-7-0.1-13.2-2.8-17.7-7.4
				c-4.6-4.6-7.6-11.1-7.5-18.2C54,14.5,65.4,3.2,79.4,3.3S104.7,14.9,104.6,29z"/>
			<path class="st1" d="M67.1,37.4L61.5,47c0,0,2.3,3.1,8.8,5.7l3.2-8.8l2.2-5.9l2.2-6.5l0.7-2.2l0.1-0.2l0.1-0.1l0.1-0.1l0,0H79
				h0.1l0.1,0.1l0.1,0.1l0.2,0.6l0.4,1.3l1.6,4.7l1.3,4.1l2.1,6.3l1.6,4.5l0.8,2.5c0,0,5.2-1.4,9.5-5.8l-3.1-4.7L91.6,39l-2.1-4
				l-1.7-3.6l-1.3-3.3l-1.1-3.2l-1-3.1l-1.1-3.6L82,14.4l-1-3.7l-1.1-4.1l-0.6-2.1l-1.2,4l-1.6,5.5l-1.3,4.2l-1.7,4.6l-1.3,3.8
				l-1.5,3.7L69,33.7L67.1,37.4z"/>
		</g>
	</g>
	<g>
		<path class="st0" d="M14.7,66.7c-0.2-0.6-0.6-1.2-1-1.6c-0.4-0.4-1-0.8-1.6-1c-0.7-0.2-1.3-0.4-2.2-0.4H5.9
			c-0.1,0-0.1,0.1-0.1,0.1v3.7c0,0.1,0.1,0.1,0.1,0.1h1.8c0.1,0,0.1-0.1,0.1-0.1v-2c0-0.1,0.1-0.1,0.1-0.1h1.6
			c0.4,0,0.9,0.1,1.3,0.2c0.4,0.1,0.7,0.4,1,0.7c0.3,0.3,0.4,0.7,0.6,1.1s0.2,0.9,0.2,1.5c0,0.5-0.1,1-0.2,1.5s-0.4,0.8-0.6,1.1
			c-0.1,0.2-0.4,0.4-0.8,0.7c-0.4,0.1-0.8,0.2-1.3,0.2H8.1C8,72.3,8,72.2,8,72.2v-2C8,70.1,7.9,70,7.8,70H5.9
			c-0.1,0-0.1,0.1-0.1,0.1v3.7c0,0.1,0.1,0.1,0.1,0.1h3.8c0.8,0,1.5-0.1,2.2-0.4c0.7-0.2,1.2-0.6,1.6-1c0.4-0.4,0.8-1,1-1.6
			c0.2-0.7,0.4-1.3,0.4-2.1C15.1,68.1,14.9,67.4,14.7,66.7z"/>
		<path class="st0" d="M18.9,65.3h4.1c0.1,0,0.1-0.1,0.1-0.1v-1.3c0-0.1-0.1-0.1-0.1-0.1h-6.3c-0.1,0-0.1,0.1-0.1,0.1v10
			c0,0.1,0.1,0.1,0.1,0.1h6.3c0.1,0,0.1-0.1,0.1-0.1v-1.3c0-0.1-0.1-0.1-0.1-0.1h-4.1c-0.1,0-0.1-0.1-0.1-0.1v-2.4
			c0-0.1,0.1-0.1,0.1-0.1h3.1c0.1,0,0.1-0.1,0.1-0.1v-1.3c0-0.1-0.1-0.1-0.1-0.1h-3.1c-0.1,0-0.1-0.1-0.1-0.1v-2.3
			C18.8,65.4,18.9,65.3,18.9,65.3z"/>
		<path class="st0" d="M33.5,63.6H32c-0.1,0-0.1,0.1-0.1,0.1v5.8c0,0.1,0,0.3,0,0.4c0,0.1,0,0.4,0.1,0.5l-5.2-6.6
			c-0.1-0.1-0.1-0.1-0.1-0.1c-0.1-0.1-0.1-0.1-0.1-0.1s-0.1-0.1-0.1-0.1c-0.1,0-0.1,0-0.2,0h-1c-0.1,0-0.1,0.1-0.1,0.1v10
			c0,0.1,0.1,0.1,0.1,0.1h1.6c0.1,0,0.1-0.1,0.1-0.1V68c0-0.1,0-0.3,0-0.4c0-0.1,0-0.3,0-0.5l5.2,6.6c0.1,0.1,0.2,0.2,0.3,0.3
			c0.1,0.1,0.2,0.1,0.4,0.1h1c0.1,0,0.1-0.1,0.1-0.1v-10C33.7,63.7,33.6,63.6,33.5,63.6z"/>
		<path class="st0" d="M43,63.6h-7.9c-0.1,0-0.1,0.1-0.1,0.1v1.4c0,0.1,0.1,0.1,0.1,0.1h2.7c0.1,0,0.1,0.1,0.1,0.1v8.3
			c0,0.1,0.1,0.1,0.1,0.1H40c0.1,0,0.1-0.1,0.1-0.1v-8.3c0-0.1,0.1-0.1,0.1-0.1H43c0.1,0,0.1-0.1,0.1-0.1v-1.4
			C43.2,63.7,43.1,63.6,43,63.6z"/>
		<path class="st0" d="M52.4,73.7l-3.9-10c0-0.1-0.1-0.1-0.1-0.1h-1.9c-0.1,0-0.1,0.1-0.1,0.1l-3.9,10c-0.1,0.1,0.1,0.2,0.1,0.2h1.4
			c0.1,0,0.3-0.1,0.4-0.1c0.1-0.1,0.2-0.2,0.2-0.3l0.7-1.9c0-0.1,0.1-0.1,0.1-0.1h3.9c0.1,0,0.1,0.1,0.1,0.1l0.7,1.9
			c0.1,0.1,0.1,0.2,0.2,0.4c0.1,0.1,0.3,0.1,0.4,0.1h1.4C52.4,74,52.5,73.9,52.4,73.7z M48.6,70.1H46c-0.1,0-0.2-0.1-0.1-0.2l1-2.9
			c0.1-0.1,0.1-0.4,0.2-0.6c0-0.1,0-0.1,0.1-0.1c0.1-0.1,0.3-0.1,0.3,0c0,0.1,0,0.1,0.1,0.1c0.1,0.2,0.1,0.4,0.2,0.6l1,2.9
			C48.9,69.9,48.8,70.1,48.6,70.1z"/>
		<path class="st0" d="M61.2,72.4l-0.7-0.8c-0.1-0.1-0.1-0.1-0.3-0.1c-0.1,0-0.1,0-0.1,0.1c-0.1,0-0.1,0.1-0.1,0.1
			c-0.1,0.1-0.3,0.2-0.4,0.4c-0.1,0.1-0.3,0.1-0.4,0.2s-0.4,0.1-0.5,0.1c-0.2,0-0.4,0-0.7,0c-0.4,0-0.8-0.1-1.1-0.2
			c-0.4-0.1-0.7-0.4-1-0.7s-0.4-0.7-0.7-1.1c-0.1-0.4-0.2-0.9-0.2-1.5c0-0.5,0.1-1,0.2-1.5c0.1-0.4,0.4-0.8,0.6-1.1
			c0.2-0.3,0.6-0.5,0.9-0.7c0.4-0.1,0.7-0.2,1.2-0.2c0.4,0,0.7,0.1,1,0.1c0.2,0.1,0.4,0.1,0.6,0.3c0.1,0.1,0.3,0.2,0.4,0.3
			s0.2,0.1,0.4,0.1s0.2,0,0.3-0.1c0.1-0.1,0.1-0.1,0.1-0.1l0.6-0.9c0.1-0.1,0.1-0.1,0-0.2c-0.1-0.1-0.4-0.3-0.6-0.4
			c-0.2-0.1-0.5-0.3-0.8-0.4c-0.3-0.1-0.6-0.2-1-0.3c-0.4-0.1-0.7-0.1-1-0.1c-0.5,0-1,0.1-1.4,0.1c-0.4,0.1-0.9,0.3-1.3,0.5
			s-0.7,0.5-1,0.8c-0.3,0.3-0.5,0.7-0.7,1s-0.4,0.8-0.5,1.3c-0.1,0.4-0.1,1-0.1,1.5c0,0.7,0.1,1.5,0.4,2.1c0.2,0.7,0.6,1.2,1,1.6
			c0.4,0.4,1,0.8,1.6,1.1c0.6,0.3,1.3,0.4,2.1,0.4c0.8,0,1.6-0.1,2.2-0.4c0.6-0.2,1-0.6,1.5-1.1C61.3,72.5,61.3,72.4,61.2,72.4z"/>
		<path class="st0" d="M71.9,66.7c-0.2-0.7-0.6-1.2-1-1.6s-1-0.8-1.6-1.1c-0.7-0.3-1.3-0.4-2.2-0.4c-0.8,0-1.5,0.1-2.2,0.4
			c-0.7,0.3-1.2,0.7-1.6,1.1c-0.4,0.4-0.8,1-1,1.6c-0.2,0.7-0.4,1.3-0.4,2.1c0,0.7,0.1,1.4,0.4,2.1c0.2,0.7,0.6,1.2,1,1.6
			c0.4,0.4,1,0.8,1.6,1.1C65.5,74,66.2,74,67,74c0.8,0,1.5-0.1,2.2-0.4c0.7-0.3,1.2-0.7,1.6-1.1s0.8-1,1-1.6
			c0.2-0.7,0.4-1.3,0.4-2.1C72.3,68.1,72.2,67.4,71.9,66.7z M69.9,70.3c-0.1,0.4-0.4,0.8-0.6,1.1c-0.3,0.3-0.6,0.5-1,0.7
			s-0.8,0.2-1.3,0.2s-0.9-0.1-1.3-0.2c-0.4-0.1-0.7-0.4-1-0.7c-0.3-0.3-0.4-0.7-0.6-1.1C64,69.9,64,69.4,64,68.8
			c0-0.5,0.1-1,0.2-1.5c0.1-0.4,0.4-0.8,0.6-1.1c0.3-0.3,0.6-0.5,1-0.7c0.4-0.1,0.8-0.2,1.3-0.2s0.9,0.1,1.3,0.2s0.7,0.4,1,0.7
			s0.4,0.7,0.6,1.1c0.1,0.4,0.2,0.9,0.2,1.5C70.1,69.3,70,69.9,69.9,70.3z"/>
		<path class="st0" d="M75.9,63.6h-1.8c-0.1,0-0.1,0.1-0.1,0.1v10c0,0.1,0.1,0.1,0.1,0.1h1.8c0.1,0,0.1-0.1,0.1-0.1v-10
			C76,63.7,75.9,63.6,75.9,63.6z"/>
		<path class="st0" d="M86.9,63.6h-1.6c-0.1,0-0.1,0.1-0.1,0.1v5.8c0,0.1,0,0.3,0,0.4c0,0.1,0,0.4,0.1,0.5L80,63.9
			c-0.1-0.1-0.1-0.1-0.1-0.1c-0.1-0.1-0.1-0.1-0.1-0.1c-0.1,0-0.1-0.1-0.1-0.1s-0.1,0-0.2,0h-1c-0.1,0-0.1,0.1-0.1,0.1v10
			c0,0.1,0.1,0.1,0.1,0.1h1.6c0.1,0,0.1-0.1,0.1-0.1V68c0-0.1,0-0.3,0-0.4c0-0.1,0-0.3,0-0.5l5.2,6.6c0.1,0.1,0.2,0.2,0.3,0.3
			C85.7,74,85.7,74,86,74h1c0.1,0,0.1-0.1,0.1-0.1v-10C87.1,63.7,87,63.6,86.9,63.6z"/>
	</g>
</g>
<rect x="0.4" y="0.4" class="st2" width="107.9" height="79.8"/>
<line class="st2" x1="0.6" y1="0.2" x2="108.2" y2="79.8"/>
</svg>
