<?xml version="1.0" encoding="utf-8"?>
<!-- Generator: Adobe Illustrator 23.0.1, SVG Export Plug-In . SVG Version: 6.00 Build 0)  -->
<svg version="1.1" id="Layer_1" xmlns="http://www.w3.org/2000/svg" xmlns:xlink="http://www.w3.org/1999/xlink" x="0px" y="0px"
	 viewBox="0 0 108.7 90.3" style="enable-background:new 0 0 108.7 90.3;" xml:space="preserve">
<style type="text/css">
	.st0{fill:#010101;}
	.st1{fill:#FFFFFF;}
</style>
<g>
	<g>
		<g>
			<path id="XMLID_27_" class="st0" d="M88.4,34.3c-0.1,18.8-15.4,34-34.1,33.9c-9.3-0.1-17.6-3.8-23.7-9.9
				c-6.2-6.2-10.1-14.9-10-24.4C20.7,15,36-0.1,54.7,0S88.5,15.5,88.4,34.3z"/>
			<path class="st1" d="M38.3,45.6l-7.5,12.8c0,0,3.1,4.2,11.8,7.6l4.3-11.8l2.9-7.9l3-8.7c0,0,1-2.9,1-2.9l0.1-0.3
				c0,0,0.1-0.1,0.1-0.1l0.1-0.1l0,0c0,0,0.1,0,0.1,0l0.1,0l0.1,0.1l0.1,0.2l0.3,0.8l0.6,1.7l2.1,6.3l1.8,5.5l2.8,8.4l2.2,6l1.1,3.3
				c0,0,6.9-1.9,12.7-7.7l-4.2-6.3L71,47.7l-2.8-5.4l-2.3-4.8l-1.8-4.4l-1.5-4.3l-1.4-4.2l-1.5-4.8l-1.5-5l-1.3-5l-1.5-5.5l-0.8-2.8
				l-1.6,5.3l-2.2,7.4l-1.8,5.6L46.7,26L45,31.1l-2,4.9l-2.2,4.7L38.3,45.6z"/>
		</g>
	</g>
	<g>
		<path class="st0" d="M11.9,80.4c-0.3-0.8-0.8-1.6-1.4-2.2c-0.6-0.6-1.4-1.1-2.2-1.4c-0.9-0.3-1.8-0.5-2.9-0.5H0.2
			c-0.1,0-0.2,0.1-0.2,0.2v4.9c0,0.1,0.1,0.2,0.2,0.2h2.4c0.1,0,0.2-0.1,0.2-0.2v-2.7c0-0.1,0.1-0.2,0.2-0.2h2.2
			c0.6,0,1.2,0.1,1.7,0.3c0.5,0.2,0.9,0.5,1.3,0.9c0.4,0.4,0.6,0.9,0.8,1.5c0.2,0.6,0.3,1.2,0.3,2c0,0.7-0.1,1.4-0.3,2
			c-0.2,0.6-0.5,1.1-0.8,1.5C8,87,7.6,87.3,7.1,87.6c-0.5,0.2-1.1,0.3-1.7,0.3H3.1c-0.1,0-0.2-0.1-0.2-0.2V85c0-0.1-0.1-0.2-0.2-0.2
			H0.2C0.1,84.8,0,84.9,0,85v4.9c0,0.1,0.1,0.2,0.2,0.2h5.1c1.1,0,2-0.2,2.9-0.5c0.9-0.3,1.6-0.8,2.2-1.4c0.6-0.6,1.1-1.3,1.4-2.2
			c0.3-0.9,0.5-1.8,0.5-2.8C12.4,82.2,12.2,81.3,11.9,80.4z"/>
		<path class="st0" d="M17.6,78.5h5.5c0.1,0,0.2-0.1,0.2-0.2v-1.8c0-0.1-0.1-0.2-0.2-0.2h-8.4c-0.1,0-0.2,0.1-0.2,0.2v13.4
			c0,0.1,0.1,0.2,0.2,0.2h8.4c0.1,0,0.2-0.1,0.2-0.2v-1.8c0-0.1-0.1-0.2-0.2-0.2h-5.5c-0.1,0-0.2-0.1-0.2-0.2v-3.2
			c0-0.1,0.1-0.2,0.2-0.2h4.2c0.1,0,0.2-0.1,0.2-0.2v-1.7c0-0.1-0.1-0.2-0.2-0.2h-4.2c-0.1,0-0.2-0.1-0.2-0.2v-3.1
			C17.4,78.6,17.5,78.5,17.6,78.5z"/>
		<path class="st0" d="M37.1,76.3H35c-0.1,0-0.2,0.1-0.2,0.2v7.7c0,0.2,0,0.4,0,0.6c0,0.2,0,0.5,0.1,0.7l-6.9-8.8
			c-0.1-0.1-0.1-0.2-0.2-0.2c-0.1-0.1-0.1-0.1-0.2-0.1c-0.1,0-0.1-0.1-0.2-0.1c-0.1,0-0.2,0-0.3,0h-1.3c-0.1,0-0.2,0.1-0.2,0.2v13.4
			c0,0.1,0.1,0.2,0.2,0.2h2.1c0.1,0,0.2-0.1,0.2-0.2v-7.8c0-0.2,0-0.4,0-0.6c0-0.2,0-0.4,0-0.7l6.9,8.8c0.1,0.2,0.3,0.3,0.4,0.4
			c0.2,0.1,0.3,0.1,0.6,0.1h1.3c0.1,0,0.2-0.1,0.2-0.2V76.5C37.3,76.4,37.2,76.3,37.1,76.3z"/>
		<path class="st0" d="M49.8,76.3H39.3c-0.1,0-0.2,0.1-0.2,0.2v1.9c0,0.1,0.1,0.2,0.2,0.2h3.6c0.1,0,0.2,0.1,0.2,0.2v11.1
			c0,0.1,0.1,0.2,0.2,0.2h2.4c0.1,0,0.2-0.1,0.2-0.2V78.8c0-0.1,0.1-0.2,0.2-0.2h3.6c0.1,0,0.2-0.1,0.2-0.2v-1.9
			C50,76.4,49.9,76.3,49.8,76.3z"/>
		<path class="st0" d="M62.3,89.8l-5.2-13.4c0-0.1-0.1-0.1-0.2-0.1h-2.6c-0.1,0-0.2,0.1-0.2,0.1l-5.2,13.4c-0.1,0.1,0.1,0.3,0.2,0.3
			H51c0.2,0,0.4-0.1,0.6-0.2c0.2-0.1,0.3-0.3,0.3-0.4l0.9-2.5c0-0.1,0.1-0.1,0.2-0.1h5.2c0.1,0,0.2,0.1,0.2,0.1l0.9,2.5
			c0.1,0.2,0.2,0.3,0.3,0.5c0.2,0.1,0.4,0.2,0.6,0.2h1.9C62.3,90.1,62.4,90,62.3,89.8z M57.3,84.9h-3.5c-0.2,0-0.3-0.2-0.2-0.3
			l1.4-3.9c0.1-0.2,0.2-0.5,0.3-0.8c0-0.1,0-0.1,0.1-0.2c0.1-0.2,0.4-0.2,0.4,0c0,0.1,0,0.1,0.1,0.2c0.1,0.3,0.2,0.6,0.3,0.8
			l1.4,3.9C57.6,84.7,57.5,84.9,57.3,84.9z"/>
		<path class="st0" d="M74.1,88l-1-1.1c-0.1-0.1-0.2-0.2-0.4-0.2c-0.1,0-0.2,0-0.2,0.1c-0.1,0-0.1,0.1-0.2,0.1
			c-0.2,0.2-0.4,0.3-0.6,0.5c-0.2,0.1-0.4,0.2-0.6,0.3c-0.2,0.1-0.5,0.1-0.7,0.2c-0.3,0-0.6,0-0.9,0c-0.5,0-1.1-0.1-1.5-0.3
			c-0.5-0.2-0.9-0.5-1.3-0.9c-0.4-0.4-0.6-0.9-0.9-1.5c-0.2-0.6-0.3-1.2-0.3-2c0-0.7,0.1-1.4,0.3-2c0.2-0.6,0.5-1.1,0.8-1.5
			c0.3-0.4,0.8-0.7,1.2-0.9c0.5-0.2,1-0.3,1.6-0.3c0.5,0,1,0.1,1.3,0.2c0.3,0.1,0.6,0.2,0.8,0.4c0.2,0.1,0.4,0.3,0.6,0.4
			c0.2,0.1,0.3,0.2,0.5,0.2c0.2,0,0.3,0,0.4-0.1c0.1-0.1,0.2-0.1,0.2-0.2l0.8-1.2c0.1-0.1,0.1-0.2,0-0.3c-0.2-0.2-0.5-0.4-0.8-0.6
			c-0.3-0.2-0.7-0.4-1.1-0.6s-0.8-0.3-1.3-0.4c-0.5-0.1-0.9-0.1-1.4-0.1c-0.7,0-1.3,0.1-1.9,0.2c-0.6,0.2-1.2,0.4-1.7,0.7
			c-0.5,0.3-1,0.7-1.4,1.1c-0.4,0.4-0.7,0.9-1,1.4c-0.3,0.5-0.5,1.1-0.7,1.7c-0.1,0.6-0.2,1.3-0.2,2c0,1,0.2,2,0.5,2.8
			c0.3,0.9,0.8,1.6,1.3,2.2c0.6,0.6,1.3,1.1,2.1,1.5c0.8,0.4,1.8,0.5,2.8,0.5c1.1,0,2.1-0.2,3-0.6c0.8-0.3,1.4-0.8,2-1.5
			C74.2,88.2,74.2,88,74.1,88z"/>
		<path class="st0" d="M88.4,80.4c-0.3-0.9-0.8-1.6-1.4-2.2c-0.6-0.6-1.4-1.1-2.2-1.5c-0.9-0.4-1.8-0.5-2.9-0.5
			c-1.1,0-2,0.2-2.9,0.5c-0.9,0.4-1.6,0.9-2.2,1.5c-0.6,0.6-1.1,1.4-1.4,2.2c-0.3,0.9-0.5,1.8-0.5,2.8c0,1,0.2,1.9,0.5,2.8
			c0.3,0.9,0.8,1.6,1.4,2.2c0.6,0.6,1.4,1.1,2.2,1.5c0.9,0.4,1.8,0.5,2.9,0.5c1.1,0,2-0.2,2.9-0.5c0.9-0.4,1.6-0.9,2.2-1.5
			c0.6-0.6,1.1-1.4,1.4-2.2c0.3-0.9,0.5-1.8,0.5-2.8C88.9,82.2,88.8,81.3,88.4,80.4z M85.7,85.2c-0.2,0.6-0.5,1.1-0.8,1.5
			c-0.4,0.4-0.8,0.7-1.3,0.9c-0.5,0.2-1.1,0.3-1.7,0.3c-0.6,0-1.2-0.1-1.7-0.3c-0.5-0.2-1-0.5-1.3-0.9c-0.4-0.4-0.6-0.9-0.8-1.5
			c-0.2-0.6-0.3-1.2-0.3-2c0-0.7,0.1-1.4,0.3-2c0.2-0.6,0.5-1.1,0.8-1.5c0.4-0.4,0.8-0.7,1.3-0.9c0.5-0.2,1.1-0.3,1.7-0.3
			c0.6,0,1.2,0.1,1.7,0.3c0.5,0.2,0.9,0.5,1.3,0.9c0.4,0.4,0.6,0.9,0.8,1.5c0.2,0.6,0.3,1.2,0.3,2C86,83.9,85.9,84.6,85.7,85.2z"/>
		<path class="st0" d="M93.7,76.3h-2.4c-0.1,0-0.2,0.1-0.2,0.2v13.4c0,0.1,0.1,0.2,0.2,0.2h2.4c0.1,0,0.2-0.1,0.2-0.2V76.5
			C93.9,76.4,93.8,76.3,93.7,76.3z"/>
		<path class="st0" d="M108.4,76.3h-2.1c-0.1,0-0.2,0.1-0.2,0.2v7.7c0,0.2,0,0.4,0,0.6c0,0.2,0,0.5,0.1,0.7l-6.9-8.8
			c-0.1-0.1-0.1-0.2-0.2-0.2c-0.1-0.1-0.1-0.1-0.2-0.1c-0.1,0-0.1-0.1-0.2-0.1c-0.1,0-0.2,0-0.3,0H97c-0.1,0-0.2,0.1-0.2,0.2v13.4
			c0,0.1,0.1,0.2,0.2,0.2h2.1c0.1,0,0.2-0.1,0.2-0.2v-7.8c0-0.2,0-0.4,0-0.6c0-0.2,0-0.4,0-0.7l6.9,8.8c0.1,0.2,0.3,0.3,0.4,0.4
			c0.2,0.1,0.3,0.1,0.6,0.1h1.3c0.1,0,0.2-0.1,0.2-0.2V76.5C108.7,76.4,108.6,76.3,108.4,76.3z"/>
	</g>
</g>
</svg>
