<?xml version="1.0" encoding="utf-8"?>
<!-- Generator: Adobe Illustrator 24.2.1, SVG Export Plug-In . SVG Version: 6.00 Build 0)  -->
<!DOCTYPE svg PUBLIC "-//W3C//DTD SVG 1.1//EN" "http://www.w3.org/Graphics/SVG/1.1/DTD/svg11.dtd" [
	<!ENTITY ns_extend "http://ns.adobe.com/Extensibility/1.0/">
	<!ENTITY ns_ai "http://ns.adobe.com/AdobeIllustrator/10.0/">
	<!ENTITY ns_graphs "http://ns.adobe.com/Graphs/1.0/">
	<!ENTITY ns_vars "http://ns.adobe.com/Variables/1.0/">
	<!ENTITY ns_imrep "http://ns.adobe.com/ImageReplacement/1.0/">
	<!ENTITY ns_sfw "http://ns.adobe.com/SaveForWeb/1.0/">
	<!ENTITY ns_custom "http://ns.adobe.com/GenericCustomNamespace/1.0/">
	<!ENTITY ns_adobe_xpath "http://ns.adobe.com/XPath/1.0/">
]>
<svg version="1.1" id="Layer_1" xmlns:x="&ns_extend;" xmlns:i="&ns_ai;" xmlns:graph="&ns_graphs;"
	 xmlns="http://www.w3.org/2000/svg" xmlns:xlink="http://www.w3.org/1999/xlink" x="0px" y="0px" viewBox="0 0 81 81"
	 style="enable-background:new 0 0 81 81;" xml:space="preserve">
<style type="text/css">
	.st0{fill:none;stroke:#000000;stroke-linecap:round;stroke-linejoin:round;stroke-miterlimit:10;}
	.st1{fill:#FFFFFF;}
</style>
<metadata>
	<sfw  xmlns="&ns_sfw;">
		<slices></slices>
		<sliceSourceBounds  bottomLeftOrigin="true" height="81" width="81.1" x="0" y="0"></sliceSourceBounds>
	</sfw>
</metadata>
<path class="st0" d="M38,39.7c-1.6,0.9-3.2,1.5-5,1.5c-2.2,0-4.4-0.8-6.3-2.3v0.5c0,1.8-0.7,3.5-2,4.7c-0.6,0.6-1.4,1.1-2.2,1.4
	L3.9,53.3c-2.1,2.1-3.4,5-3.4,8.1v19.1H38V39.7z"/>
<path class="st0" d="M38,1.4c-1.6-0.6-3.2-0.9-5-0.9c-7.3,0-13.2,5.4-14.1,12.5v4c-1.8,0.7-3.2,2.4-3.2,4.5c0,4,2,7.3,4.6,7.4
	c2.3,7.2,7.1,12.2,12.7,12.2c1.8,0,3.4-0.5,5-1.4V1.4L38,1.4z"/>
<path class="st0" d="M67.8,44l-2.7-2.7L67.8,44z"/>
<path class="st0" d="M77.1,27.2v-3.3V27.2z"/>
<path class="st0" d="M74.4,47.1L62,34.7c-1.5-1.5-3.8-1.5-5.3,0l0,0L38,53.5V69l7.2,7.2c1.5,1.5,3.8,1.5,5.3,0l6.5-6.5
	c-0.5-0.1-0.9-0.1-1.4,0c-0.1-0.6-0.1-1.2-0.1-1.8c0-0.6,0.1-1.2,0.1-1.8c1.5,0.4,3.1-0.3,3.7-1.8c0.6-1.5,0-3.1-1.3-3.9
	c0.7-1,1.6-1.8,2.5-2.5c0.8,1.3,2.4,1.9,3.9,1.3c1.5-0.6,2.2-2.2,1.8-3.7c0.6-0.1,1.2-0.1,1.8-0.1c0.6,0,1.2,0.1,1.8,0.1
	c-0.1,0.5-0.1,1,0,1.4l4.7-4.7l0,0C75.9,50.9,75.9,48.6,74.4,47.1z"/>
<path class="st0" d="M55.8,35.6L38,53.5v6.7l14.3,14.3l4.8-4.8c-0.5-0.1-0.9-0.1-1.4,0c-0.1-0.6-0.1-1.2-0.1-1.8
	c0-0.6,0.1-1.2,0.1-1.8c1.5,0.4,3.1-0.3,3.7-1.8c0.6-1.5,0-3.1-1.3-3.9c0.7-1,1.6-1.8,2.5-2.5c0.8,1.3,2.4,1.9,3.9,1.3
	c1.5-0.6,2.2-2.2,1.8-3.7c0.6-0.1,1.2-0.1,1.8-0.1c0.6,0,1.2,0.1,1.8,0.1c-0.1,0.5-0.1,1,0,1.4l3.8-3.8L55.8,35.6z"/>
<path class="st0" d="M61.1,7.3H38v36.4h9.8l9-9l0,0c1.5-1.5,3.8-1.5,5.3,0l9,9h6.2c1.8,0,3.3-1.5,3.3-3.3V10.6
	c-0.1-1.8-1.6-3.3-3.4-3.3H55.8"/>
<path class="st0" d="M64,9.6c-3.1,0-6.2,0-9.3,0c-1.4,0-2.7,0-4.1,0c-1.5,0-3,0-4.4,0c-1.4,0-2.7,0-4.1,0c-1,0-2,0-3,0
	c-0.4,0-0.8,0-1.2,0v31.8h12l6.7-6.7c1.5-1.5,3.8-1.5,5.3,0l6.7,6.7h5V9.6c0,0-0.1,0-0.1,0c-1.2,0-2.5,0-3.7,0c-0.9,0-1.8,0-2.7,0
	C66.2,9.6,65.1,9.6,64,9.6z"/>
<path class="st1" d="M43.6,71.3c-0.1,1.9,0.4,3.8,1.7,5.2c1.8,1.9,4.9,2.2,7.4,1.4s4.6-2.5,6.6-4.3s3.9-3.6,6.3-4.8
	c1.3-0.6,2.7-1,4-1.8c2.1-1.3,3.6-3.5,3.9-5.9c0.2-1.3,0-2.7-0.7-3.8c-0.5-0.8-1.8-0.7-2.4-2.3c-1.1-3.1-4.7-3.4-7.5-4.9
	c-0.7-0.4-1.4-0.7-2.2-0.7c-1.5,0-2.6,1.2-3.6,2.4c-2.4,3-4.9,5.9-7.3,8.9c-1.2,1.5-2.3,3-3.7,4.4c-0.4,0.4-0.8,0.7-1.2,1.1
	c-0.4,0.5-0.6,1.2-0.8,1.8C43.9,69.1,43.7,70.2,43.6,71.3z"/>
<g>
	<path d="M78,65.8c-0.9-4.4-2.8-10.3-8.6-10.4c-1.2,0-2.6,0.1-4.1,0.4c-1.1,0.2-2.2,0.3-3.3,0.4v-4.6c0-0.5-0.4-0.9-0.9-0.9
		s-0.9,0.4-0.9,0.9v4.6c-1.1,0-2.2-0.2-3.3-0.4c-1.5-0.3-2.9-0.4-4.1-0.4c-5.8,0.1-7.7,6-8.6,10.4c-1,4.9-1.3,8.6,0.2,10.9
		c0.7,1.1,1.9,1.8,3.3,2c3.8,0.7,7.4-2.3,10-8.1h6.8c2.3,5.3,5.4,8.2,8.9,8.2c0.3,0,0.7,0,1-0.1c1.5-0.3,2.6-0.9,3.3-2
		C79.3,74.4,79,70.7,78,65.8z M77.2,76.3C76.8,77,75,77.4,74,77.6c-4.4,0.8-7.4-4.5-8.5-7c-0.3-0.7-1-1.1-1.7-1.1h-5.2
		c-0.8,0-1.4,0.4-1.7,1.1c-1.1,2.5-4,7.8-8.5,7c-1.1-0.2-2.7-1.1-3.2-1.8c-1.3-2-0.9-5.6,0-9.7c1.3-6.5,3.6-9.5,7.3-9.5
		c0.1,0,0.2,0,0.3,0c1.1,0,2.3,0.1,3.6,0.4c3.1,0.6,6.5,0.6,9.6,0c1.4-0.3,2.8-0.4,3.9-0.4c3.7,0.1,6,3,7.3,9.5
		C78,70.2,78.6,74.3,77.2,76.3z"/>
	<path d="M56.4,63.2h-1.8v-1.8c0-0.2-0.2-0.4-0.4-0.4h-1.3c-0.2,0-0.4,0.2-0.4,0.4v1.8h-1.8c-0.2,0-0.4,0.2-0.4,0.4v1.3
		c0,0.2,0.2,0.4,0.4,0.4h1.8v1.8c0,0.2,0.2,0.4,0.4,0.4h1.3c0.2,0,0.4-0.2,0.4-0.4v-1.8h1.8c0.2,0,0.4-0.2,0.4-0.4v-1.3
		C56.8,63.4,56.7,63.2,56.4,63.2z"/>
	<path d="M68.6,60.7c-0.7,0-1.2,0.5-1.2,1.2s0.5,1.2,1.2,1.2s1.2-0.5,1.2-1.2C69.8,61.2,69.3,60.7,68.6,60.7z"/>
	<path d="M71,63.1c-0.7,0-1.2,0.5-1.2,1.2s0.5,1.2,1.2,1.2s1.2-0.5,1.2-1.2S71.6,63.1,71,63.1z"/>
	<path d="M66.2,63.1c-0.7,0-1.2,0.5-1.2,1.2s0.5,1.2,1.2,1.2s1.2-0.5,1.2-1.2C67.4,63.6,66.8,63.1,66.2,63.1z"/>
	<path d="M68.6,65.5c-0.7,0-1.2,0.5-1.2,1.2s0.5,1.2,1.2,1.2s1.2-0.5,1.2-1.2S69.2,65.5,68.6,65.5z"/>
</g>
<image style="overflow:visible;" width="499" height="465" xlink:href="E2914710.png"  transform="matrix(4.384325e-02 0 0 4.384325e-02 44.288 12.5851)">
</image>
</svg>
