<?xml version="1.0" encoding="utf-8"?>
<!-- Generator: Adobe Illustrator 24.2.1, SVG Export Plug-In . SVG Version: 6.00 Build 0)  -->
<!DOCTYPE svg PUBLIC "-//W3C//DTD SVG 1.1//EN" "http://www.w3.org/Graphics/SVG/1.1/DTD/svg11.dtd" [
	<!ENTITY ns_extend "http://ns.adobe.com/Extensibility/1.0/">
	<!ENTITY ns_ai "http://ns.adobe.com/AdobeIllustrator/10.0/">
	<!ENTITY ns_graphs "http://ns.adobe.com/Graphs/1.0/">
	<!ENTITY ns_vars "http://ns.adobe.com/Variables/1.0/">
	<!ENTITY ns_imrep "http://ns.adobe.com/ImageReplacement/1.0/">
	<!ENTITY ns_sfw "http://ns.adobe.com/SaveForWeb/1.0/">
	<!ENTITY ns_custom "http://ns.adobe.com/GenericCustomNamespace/1.0/">
	<!ENTITY ns_adobe_xpath "http://ns.adobe.com/XPath/1.0/">
]>
<svg version="1.1" id="Layer_1" xmlns:x="&ns_extend;" xmlns:i="&ns_ai;" xmlns:graph="&ns_graphs;"
	 xmlns="http://www.w3.org/2000/svg" xmlns:xlink="http://www.w3.org/1999/xlink" x="0px" y="0px" viewBox="0 0 120.7 120.7"
	 style="enable-background:new 0 0 120.7 120.7;" xml:space="preserve">
<style type="text/css">
	.st0{fill:#EEEEEE;}
</style>
<metadata>
	<sfw  xmlns="&ns_sfw;">
		<slices></slices>
		<sliceSourceBounds  bottomLeftOrigin="true" height="120.7" width="120.7" x="0.5" y="0"></sliceSourceBounds>
	</sfw>
</metadata>
<path class="st0" d="M121.2,60.3c0,33.3-27,60.4-60.3,60.4c-18.1,0-34.3-7.9-45.3-20.5c-7.1-7.9-12-17.7-14-28.4
	c-0.7-3.7-1.1-7.5-1.1-11.5C0.5,27,27.5,0,60.8,0c19.4,0,36.7,9.2,47.7,23.4c6.4,8.3,10.8,18.3,12.2,29.2
	C121,55.1,121.2,57.7,121.2,60.3z"/>
<path d="M83.6,26.7c3.5,0,6.2,1.3,8.2,3.3c1.8,2,2.7,4.5,2.7,7.3l0,0c0,0,0,0,0,0.2v45.8c0,5.8-4.7,10.7-10.7,10.7H38
	c-5.8,0-10.7-4.7-10.7-10.7V56.4v-19c0-2.5,0.7-5.3,2.7-7.3c1.8-2,4.7-3.5,8.2-3.5L83.6,26.7L83.6,26.7z M83.6,29.8H38.1
	c-2.7,0-4.7,0.9-6,2.4c-1.3,1.5-1.8,3.3-1.8,5.1l0,0v10.4c1.3-1.3,2.9-2.2,4.7-2.7v-1.5c0-2,0.7-4,1.8-5.5s2.7-2.5,4.7-2.5H80
	c1.8,0,3.6,0.9,4.7,2.4s1.8,3.3,1.8,5.5v0.5c1.3-0.4,2.2-1.1,2.9-1.8c1.3-1.5,2-3.3,2-5.1s-0.7-3.8-2-5.1
	C88.1,30.7,86.3,29.8,83.6,29.8z M91.4,44.7c-1.8,1.8-4.5,2.9-7.8,2.9H38.1c-3.1,0-4.7,1.1-6,2.5c-1.3,1.6-1.8,3.8-1.8,6v1.1
	c0.2,0.2,0.5,0.4,1.1,0.4s1.5,0,2.5,0h18c3.5,0,6.2,1.5,8,3.5s2.7,4.7,2.7,7.3s-0.9,5.3-2.7,7.3s-4.5,3.5-8,3.5H33.8
	c-0.9,0-2,0-3.1-0.4c-0.2,0-0.2,0-0.4-0.2v4.2c0,4.2,3.5,7.6,7.6,7.6h45.8c4.2,0,7.6-3.5,7.6-7.6V44.7H91.4z M51.6,63.8
	c-2.5,0-4.7,2.2-4.7,4.7s2.2,4.7,4.7,4.7s4.7-2.2,4.7-4.7S54.1,63.8,51.6,63.8z"/>
</svg>
