<?xml version="1.0" encoding="utf-8"?>
<!-- Generator: Adobe Illustrator 23.0.3, SVG Export Plug-In . SVG Version: 6.00 Build 0)  -->
<!DOCTYPE svg PUBLIC "-//W3C//DTD SVG 1.1//EN" "http://www.w3.org/Graphics/SVG/1.1/DTD/svg11.dtd" [
	<!ENTITY ns_extend "http://ns.adobe.com/Extensibility/1.0/">
	<!ENTITY ns_ai "http://ns.adobe.com/AdobeIllustrator/10.0/">
	<!ENTITY ns_graphs "http://ns.adobe.com/Graphs/1.0/">
	<!ENTITY ns_vars "http://ns.adobe.com/Variables/1.0/">
	<!ENTITY ns_imrep "http://ns.adobe.com/ImageReplacement/1.0/">
	<!ENTITY ns_sfw "http://ns.adobe.com/SaveForWeb/1.0/">
	<!ENTITY ns_custom "http://ns.adobe.com/GenericCustomNamespace/1.0/">
	<!ENTITY ns_adobe_xpath "http://ns.adobe.com/XPath/1.0/">
]>
<svg version="1.1" id="Layer_1" xmlns:x="&ns_extend;" xmlns:i="&ns_ai;" xmlns:graph="&ns_graphs;"
	 xmlns="http://www.w3.org/2000/svg" xmlns:xlink="http://www.w3.org/1999/xlink" x="0px" y="0px" viewBox="0 0 386.7 378.4"
	 style="enable-background:new 0 0 386.7 378.4;" xml:space="preserve">
<style type="text/css">
	.st0{fill:url(#SVGID_1_);}
	.st1{fill:url(#SVGID_2_);}
	.st2{fill:url(#SVGID_3_);}
	.st3{fill:url(#SVGID_4_);}
	.st4{fill:url(#SVGID_5_);}
	.st5{fill:#FFFFFF;}
	.st6{fill:url(#XMLID_2_);}
	.st7{fill:url(#XMLID_5_);}
</style>
<metadata>
	<sfw  xmlns="&ns_sfw;">
		<slices></slices>
		<sliceSourceBounds  bottomLeftOrigin="true" height="378.4" width="386.7" x="54.2" y="55.8"></sliceSourceBounds>
	</sfw>
</metadata>
<g>
	
		<linearGradient id="SVGID_1_" gradientUnits="userSpaceOnUse" x1="-0.2922" y1="2018.4858" x2="55.9514" y2="2018.4858" gradientTransform="matrix(1 0 0 1 0 -1868)">
		<stop  offset="0" style="stop-color:#00A99D"/>
		<stop  offset="1" style="stop-color:#0071BC"/>
	</linearGradient>
	<path class="st0" d="M19.3,83.8l36.5-12.5C45.3,75.5,38,85.9,38,98.4v131.2L1.6,121.3C-3.6,105.7,4.7,89,19.3,83.8z"/>
	
		<linearGradient id="SVGID_2_" gradientUnits="userSpaceOnUse" x1="53.9575" y1="1903.866" x2="317.4352" y2="1903.866" gradientTransform="matrix(1 0 0 1 0 -1868)">
		<stop  offset="0" style="stop-color:#00A99D"/>
		<stop  offset="1" style="stop-color:#0071BC"/>
	</linearGradient>
	<path class="st1" d="M301.5,20.3l16.7,49h-250c-2.1,0-11.4,1.4-13.5,2.5L265.1,1.5C279.6-3.7,296.3,4.7,301.5,20.3z"/>
	
		<linearGradient id="SVGID_3_" gradientUnits="userSpaceOnUse" x1="20.7505" y1="2072.4543" x2="369.1596" y2="2072.4543" gradientTransform="matrix(1 0 0 1 0 -1868)">
		<stop  offset="0" style="stop-color:#32FFC2"/>
		<stop  offset="1" style="stop-color:#00A9EB"/>
	</linearGradient>
	<circle class="st2" cx="195.1" cy="204.5" r="173.9"/>
	
		<linearGradient id="SVGID_4_" gradientUnits="userSpaceOnUse" x1="37.8219" y1="2077.6619" x2="372.6341" y2="2077.6619" gradientTransform="matrix(1 0 0 1 0 -1868)">
		<stop  offset="0" style="stop-color:#00C4E6"/>
		<stop  offset="1" style="stop-color:#1E8BAC"/>
	</linearGradient>
	<path class="st3" d="M343,350.3H67c-16.7,0-29.2-13.5-29.2-29.2V98.2c0-16.7,13.5-29.2,29.2-29.2h276c16.7,0,29.2,13.5,29.2,29.2
		v222.9C373.2,336.7,359.6,350.3,343,350.3z"/>
	
		<linearGradient id="SVGID_5_" gradientUnits="userSpaceOnUse" x1="253.4145" y1="2076.6204" x2="386.4904" y2="2076.6204" gradientTransform="matrix(1 0 0 1 0 -1868)">
		<stop  offset="0" style="stop-color:#0086AE"/>
		<stop  offset="1" style="stop-color:#0071BC"/>
	</linearGradient>
	<path class="st4" d="M290.9,158.6h83.3c7.3,0,12.5,6.2,12.5,12.5v75c0,7.3-6.2,12.5-12.5,12.5h-83.3c-20.8,0-37.5-16.7-37.5-37.5
		v-26C253.4,175.3,270.1,158.6,290.9,158.6z"/>
	<circle class="st5" cx="295.1" cy="209.7" r="20.8"/>
	<g>
		
			<linearGradient id="XMLID_2_" gradientUnits="userSpaceOnUse" x1="71.5679" y1="2076.0996" x2="230.1389" y2="2076.0996" gradientTransform="matrix(1 0 0 1 0 -1868)">
			<stop  offset="0" style="stop-color:#32FFC2"/>
			<stop  offset="1" style="stop-color:#00A9EB"/>
		</linearGradient>
		<path id="XMLID_4_" class="st6" d="M230.5,208.6c0,43.7-36.5,79.2-80.2,79.2c-21.9,0-40.6-9.4-55.2-22.9
			c-14.6-14.6-24-34.4-24-57.3c0-43.7,36.5-79.2,80.2-79.2C195.1,128.4,230.5,164.9,230.5,208.6z"/>
		
			<linearGradient id="XMLID_5_" gradientUnits="userSpaceOnUse" x1="71.5679" y1="2076.0996" x2="230.1389" y2="2076.0996" gradientTransform="matrix(1 0 0 1 0 -1868)">
			<stop  offset="0" style="stop-color:#32FFC2"/>
			<stop  offset="1" style="stop-color:#00A9EB"/>
		</linearGradient>
		<path id="XMLID_3_" class="st7" d="M230.5,208.6c0,43.7-36.5,79.2-80.2,79.2c-21.9,0-40.6-9.4-55.2-22.9
			c-14.6-14.6-24-34.4-24-57.3c0-43.7,36.5-79.2,80.2-79.2C195.1,128.4,230.5,164.9,230.5,208.6z"/>
		<path class="st5" d="M112.8,235.7l-17.7,30.2c0,0,7.3,9.4,27.1,17.7l10.4-27.1l7.3-18.7l7.3-20.8l2.1-6.2v-1l0,0l0,0l0,0l0,0l0,0
			l0,0l0,0l1,2.1l1,4.2l5.2,14.6l4.2,12.5l6.2,19.8l5.2,13.5l2.1,7.3c0,0,15.6-4.2,30.2-17.7l-8.3-14.6l-6.2-10.4l-7.3-13.5
			l-5.2-11.5l-4.2-10.4l-3.1-10.4l-3.1-9.4l-3.1-11.5l-3.1-11.5l-3.1-11.5l-3.1-12.5l-3.1-6.2l-4.2,12.5l-5.2,16.7l-4.2,13.5
			l-5.2,14.6l-4.2,11.5l-5.2,11.5l-5.2,10.4L112.8,235.7z"/>
	</g>
</g>
</svg>
