<?xml version="1.0" encoding="utf-8"?>
<!-- Generator: Adobe Illustrator 24.1.2, SVG Export Plug-In . SVG Version: 6.00 Build 0)  -->
<!DOCTYPE svg PUBLIC "-//W3C//DTD SVG 1.1//EN" "http://www.w3.org/Graphics/SVG/1.1/DTD/svg11.dtd" [
	<!ENTITY ns_extend "http://ns.adobe.com/Extensibility/1.0/">
	<!ENTITY ns_ai "http://ns.adobe.com/AdobeIllustrator/10.0/">
	<!ENTITY ns_graphs "http://ns.adobe.com/Graphs/1.0/">
	<!ENTITY ns_vars "http://ns.adobe.com/Variables/1.0/">
	<!ENTITY ns_imrep "http://ns.adobe.com/ImageReplacement/1.0/">
	<!ENTITY ns_sfw "http://ns.adobe.com/SaveForWeb/1.0/">
	<!ENTITY ns_custom "http://ns.adobe.com/GenericCustomNamespace/1.0/">
	<!ENTITY ns_adobe_xpath "http://ns.adobe.com/XPath/1.0/">
]>
<svg version="1.1" xmlns:x="&ns_extend;" xmlns:i="&ns_ai;" xmlns:graph="&ns_graphs;"
	 xmlns="http://www.w3.org/2000/svg" xmlns:xlink="http://www.w3.org/1999/xlink" x="0px" y="0px" viewBox="0 0 246.2 246.2"
	 style="enable-background:new 0 0 246.2 246.2;" xml:space="preserve">
<style type="text/css">
	.st0{display:none;}
	.st1{display:none;fill:#3DFFA5;}
	.st2{fill:#FFFFFF;}
	.st3{display:none;fill:#FFFFFF;}
	.st4{fill:url(#SVGID_1_);}
	.st5{fill:url(#SVGID_2_);}
	.st6{fill:url(#SVGID_3_);}
	.st7{fill:url(#SVGID_4_);}
	.st8{fill:url(#SVGID_5_);}
	.st9{fill:url(#SVGID_6_);}
</style>
<metadata>
	<sfw  xmlns="&ns_sfw;">
		<slices></slices>
		<sliceSourceBounds  bottomLeftOrigin="true" height="246.2" width="246.2" x="-98.1" y="-98.1"></sliceSourceBounds>
	</sfw>
</metadata>
<g id="Layer_2" class="st0">
</g>
<g id="Layer_1">
	<rect class="st1" width="246.2" height="246.2"/>
	<path class="st2" d="M246.2,205.8c0,22.2-18.2,40.4-40.4,40.4H40.4C18.2,246.2,0,228,0,205.8V40.4C0,18.2,18.2,0,40.4,0h164.9
		c22.6,0,40.9,18.2,40.9,40.4V205.8z"/>
	<ellipse class="st3" cx="123.1" cy="117" rx="24.9" ry="25"/>
	<g>
		<linearGradient id="SVGID_1_" gradientUnits="userSpaceOnUse" x1="49.1067" y1="108.6755" x2="174.6096" y2="108.6755">
			<stop  offset="0" style="stop-color:#ED1E79"/>
			<stop  offset="0.573" style="stop-color:#9D2787"/>
			<stop  offset="1" style="stop-color:#662D91"/>
		</linearGradient>
		<path class="st4" d="M148.1,163.2c7-5.5,21.5-20.4,26.5-37.3c-11.5-14.1-59.6-74.2-70.8-88.1C102.7,51,91.1,78.7,71,88
			c-9.2,4.5-18.4,7.3-21.9,8.3l68.7,83.2C125.6,177,140.9,168.8,148.1,163.2z"/>
		<g>
			<g>
				<linearGradient id="SVGID_2_" gradientUnits="userSpaceOnUse" x1="118.7618" y1="188.3658" x2="194.499" y2="188.3658">
					<stop  offset="0" style="stop-color:#ED1E79"/>
					<stop  offset="0.573" style="stop-color:#9D2787"/>
					<stop  offset="1" style="stop-color:#662D91"/>
				</linearGradient>
				<path class="st5" d="M194.5,168.4c-11.4,6.7-23.5,12.8-36.4,17.5c-15.2,5.5-33.5,11.8-39.4,13.5v9l75.7-27.2L194.5,168.4z"/>
				<linearGradient id="SVGID_3_" gradientUnits="userSpaceOnUse" x1="47.6082" y1="153.5278" x2="115.9318" y2="153.5278">
					<stop  offset="0" style="stop-color:#ED1E79"/>
					<stop  offset="0.573" style="stop-color:#9D2787"/>
					<stop  offset="1" style="stop-color:#662D91"/>
				</linearGradient>
				<polygon class="st6" points="47.6,98.9 47.6,123.9 115.9,208.1 115.9,181.7 				"/>
			</g>
			<linearGradient id="SVGID_4_" gradientUnits="userSpaceOnUse" x1="118.7635" y1="178.043" x2="195.0232" y2="178.043">
				<stop  offset="0" style="stop-color:#ED1E79"/>
				<stop  offset="0.573" style="stop-color:#9D2787"/>
				<stop  offset="1" style="stop-color:#662D91"/>
			</linearGradient>
			<path class="st7" d="M191.5,159.7c-8.8,6.9-20,13.9-32.1,20c-11.5,5.7-36.7,13.5-40.6,14.7v2c6.5-1.9,22.9-6.9,37.4-12.3
				c16-6.1,38.9-20.5,38.9-20.5L191.5,159.7z"/>
		</g>
		<linearGradient id="SVGID_5_" gradientUnits="userSpaceOnUse" x1="118.7635" y1="116.4814" x2="194.7242" y2="116.4814">
			<stop  offset="0" style="stop-color:#ED1E79"/>
			<stop  offset="0.573" style="stop-color:#9D2787"/>
			<stop  offset="1" style="stop-color:#662D91"/>
		</linearGradient>
		<path class="st8" d="M177.7,125.3l-0.2,0.7c-5,17.8-19.8,33.2-27.7,39.4c-7.4,5.8-22.9,14.2-31.1,16.8v3.8
			c11.5-3.6,27.5-11.2,36.4-17.5c15.3-10.8,30.2-25.7,39.4-39.4l0.1,0.1c-10.4-11.7-67.9-77.5-71.6-82.3c-1.3,2.4-2.4,4-4.3,5.1
			c19.1,23.8,50.3,62.7,58.4,72.7L177.7,125.3z"/>
		<linearGradient id="SVGID_6_" gradientUnits="userSpaceOnUse" x1="118.7635" y1="166.3253" x2="198.562" y2="166.3253">
			<stop  offset="0" style="stop-color:#ED1E79"/>
			<stop  offset="0.573" style="stop-color:#9D2787"/>
			<stop  offset="1" style="stop-color:#662D91"/>
		</linearGradient>
		<path class="st9" d="M189.1,141.3c0,0-20.4,21.3-32.2,29.6c-10,7-25.5,14-38.1,17.9v2.6c1.2-0.4,3.2-1,5.7-1.8
			c9.3-2.9,25.3-8.3,33.6-12.4c16.4-8.2,31-18.1,40.2-27.1c0.1-0.1,0.2-0.2,0.3-0.3L189.1,141.3z"/>
	</g>
</g>
</svg>
