<?xml version="1.0" encoding="utf-8"?>
<!-- Generator: Adobe Illustrator 23.1.0, SVG Export Plug-In . SVG Version: 6.00 Build 0)  -->
<!DOCTYPE svg PUBLIC "-//W3C//DTD SVG 1.1//EN" "http://www.w3.org/Graphics/SVG/1.1/DTD/svg11.dtd" [
	<!ENTITY ns_extend "http://ns.adobe.com/Extensibility/1.0/">
	<!ENTITY ns_ai "http://ns.adobe.com/AdobeIllustrator/10.0/">
	<!ENTITY ns_graphs "http://ns.adobe.com/Graphs/1.0/">
	<!ENTITY ns_vars "http://ns.adobe.com/Variables/1.0/">
	<!ENTITY ns_imrep "http://ns.adobe.com/ImageReplacement/1.0/">
	<!ENTITY ns_sfw "http://ns.adobe.com/SaveForWeb/1.0/">
	<!ENTITY ns_custom "http://ns.adobe.com/GenericCustomNamespace/1.0/">
	<!ENTITY ns_adobe_xpath "http://ns.adobe.com/XPath/1.0/">
]>
<svg version="1.1" id="Isolation_Mode" xmlns:x="&ns_extend;" xmlns:i="&ns_ai;" xmlns:graph="&ns_graphs;"
	 xmlns="http://www.w3.org/2000/svg" xmlns:xlink="http://www.w3.org/1999/xlink" x="0px" y="0px" viewBox="0 0 381 328.2"
	 style="enable-background:new 0 0 381 328.2;" xml:space="preserve">
<style type="text/css">
	.st0{fill:#343635;}
	.st1{fill:#F3D650;}
	.st2{fill:#E8A149;}
	.st3{fill:#F1F1F2;}
</style>
<metadata>
	<sfw  xmlns="&ns_sfw;">
		<slices></slices>
		<sliceSourceBounds  bottomLeftOrigin="true" height="328.2" width="381" x="427.7" y="-4236.7"></sliceSourceBounds>
	</sfw>
</metadata>
<g>
	<ellipse class="st0" cx="193.5" cy="318.5" rx="117.8" ry="9.7"/>
</g>
<g>
	<g>
		<path class="st1" d="M319.5,93.7c-4.7-8.9-1.4-20,7.5-24.7L290.1,0L6.1,151.7l36.9,69c8.9-4.7,20-1.4,24.7,7.5
			c4.7,8.9,1.4,20-7.5,24.7l36.9,69l284-151.7l-36.9-69C335.3,106,324.2,102.6,319.5,93.7z"/>
	</g>
	<g>
		<path class="st2" d="M299,33.4l-4.2-7.9l-9.2,4.9l-4.7-8.7L29.1,156.1l4.7,8.7l-9.2,4.9l4.2,7.9l9.2-4.9l4.4,8.3l-9.2,4.9l4.2,7.9
			l9.2-4.9l4.4,8.3l-9.2,4.9l4.2,7.9l9.2-4.9l0-0.1h0c12.8-6.8,28.6-2,35.5,10.8c6.8,12.8,2,28.6-10.8,35.5h0l-0.1-0.1l-9.2,4.9
			L75,264l9.2-4.9l4.4,8.3l-9.2,4.9l4.2,7.9l9.2-4.9l4.4,8.3l-9.2,4.9l4.2,7.9l9.2-4.9l4.7,8.8L358,165.8l-4.7-8.8l9.2-4.9l-4.2-7.9
			l-9.2,4.9l-4.4-8.3l9.2-4.9l-4.2-7.9l-9.2,4.9l-4.4-8.3l9.2-4.9l-4.2-7.9l-9.2,4.9l0.1,0.1c-12.8,6.8-28.6,2-35.5-10.8
			c-6.8-12.8-2-28.6,10.8-35.5l0,0.1l9.2-4.9l-4.2-7.9l-9.2,4.9l-4.4-8.3l9.2-4.9l-4.2-7.9l-9.2,4.9l-4.4-8.3L299,33.4z"/>
	</g>
	<g>
		<path class="st3" d="M287.7,71.7l-16-30L51,159.6l16,30c16.7-8.9,29.1,1.9,38,18.6c8.9,16.7,11,33-5.7,42l16,30l220.7-117.8
			l-16-30c-16.7,8.9-29.1-1.9-38-18.6C273.1,97,271,80.7,287.7,71.7z"/>
	</g>
	<g>
		
			<rect x="156.7" y="122.5" transform="matrix(0.8821 -0.471 0.471 0.8821 -66.1524 96.2318)" class="st2" width="5" height="115.5"/>
	</g>
	<g>
		
			<rect x="163.5" y="170" transform="matrix(0.8821 -0.4711 0.4711 0.8821 -54.461 127.3016)" class="st2" width="127.2" height="5"/>
	</g>
	<g>
		<polygon class="st2" points="102.7,144.9 114.6,153.4 128.2,148.5 123.8,162.3 132.7,173.8 118.2,173.9 110,185.9 105.5,172.1 
			91.5,168.1 103.2,159.5 		"/>
	</g>
	<g>
		<g>
			<path class="st2" d="M235.4,193.6c-0.8-1.5-1.3-2.8-1.5-3.9c-0.2-1.1-0.1-2.1,0.2-2.9c0.3-0.8,1-1.5,1.9-2c0.7-0.4,1.4-0.6,2-0.6
				c0.7,0,1.3,0.2,1.9,0.5c0.6,0.3,1.2,0.8,1.8,1.5c0.6,0.6,1.2,1.6,1.9,2.9c0.8,1.5,1.3,2.8,1.5,3.9c0.2,1.1,0.1,2.1-0.2,2.9
				c-0.3,0.8-1,1.5-1.9,2c-1.2,0.7-2.5,0.7-3.6,0.2C238,197.5,236.7,196,235.4,193.6z M237,192.7c1.1,2.1,2.1,3.4,3,3.8
				c0.9,0.4,1.7,0.5,2.4,0.1c0.7-0.4,1.1-1.1,1.3-2c0.1-1-0.4-2.5-1.5-4.6c-1.1-2.1-2.1-3.4-3-3.8c-0.9-0.4-1.7-0.5-2.4-0.1
				c-0.7,0.4-1.1,1-1.2,1.8C235.4,189,235.9,190.6,237,192.7z"/>
		</g>
		<g>
			<path class="st2" d="M256.2,188.7l0.8,1.5l-8.5,4.5c-0.2-0.4-0.3-0.8-0.4-1.2c-0.1-0.7-0.1-1.5,0.1-2.3c0.2-0.8,0.5-1.8,1-3.1
				c0.8-1.9,1.2-3.3,1.4-4.2c0.1-0.9,0-1.7-0.3-2.3c-0.3-0.6-0.8-1-1.5-1.2c-0.7-0.2-1.4-0.1-2.1,0.3c-0.8,0.4-1.2,1-1.5,1.7
				c-0.2,0.7-0.1,1.5,0.3,2.3l-1.7,0.7c-0.5-1.3-0.6-2.4-0.2-3.4c0.4-1,1.2-1.9,2.4-2.5c1.2-0.7,2.4-0.8,3.5-0.5
				c1.1,0.3,1.9,1,2.4,2c0.3,0.5,0.4,1.1,0.5,1.7c0.1,0.6,0,1.3-0.2,2.1c-0.2,0.8-0.6,2-1.2,3.6c-0.5,1.3-0.8,2.2-1,2.6
				c-0.1,0.4-0.2,0.8-0.2,1.2L256.2,188.7z"/>
		</g>
		<g>
			<path class="st2" d="M266.2,183.3l0.8,1.5l-8.5,4.5c-0.2-0.4-0.3-0.8-0.4-1.2c-0.1-0.7-0.1-1.4,0.1-2.3c0.2-0.8,0.5-1.8,1-3.1
				c0.8-1.9,1.2-3.3,1.4-4.2c0.1-0.9,0-1.7-0.3-2.3c-0.3-0.6-0.8-1-1.5-1.2c-0.7-0.2-1.4-0.1-2.1,0.3c-0.8,0.4-1.2,1-1.5,1.7
				c-0.2,0.7-0.1,1.5,0.3,2.3l-1.7,0.7c-0.5-1.3-0.6-2.4-0.2-3.4c0.4-1,1.2-1.9,2.4-2.5c1.2-0.7,2.4-0.8,3.5-0.5
				c1.1,0.3,1.9,1,2.4,2c0.3,0.5,0.4,1.1,0.5,1.7c0.1,0.6,0,1.3-0.2,2.1c-0.2,0.8-0.6,2-1.2,3.6c-0.5,1.3-0.8,2.2-1,2.6
				c-0.1,0.4-0.2,0.8-0.2,1.2L266.2,183.3z"/>
		</g>
		<g>
			<path class="st2" d="M267.4,180.8l1.4-1c0.5,0.6,1,1,1.6,1.2c0.5,0.1,1.1,0,1.7-0.3c0.5-0.3,0.9-0.6,1.1-1
				c0.2-0.4,0.4-0.9,0.4-1.4c0-0.5,0-1.1-0.2-1.8c-0.2-0.7-0.4-1.4-0.8-2.1c0-0.1-0.1-0.2-0.2-0.3c0,0.7-0.3,1.3-0.6,1.9
				c-0.4,0.6-0.9,1.1-1.5,1.4c-1.1,0.6-2.2,0.7-3.3,0.3c-1.1-0.4-2.1-1.2-2.7-2.5c-0.7-1.3-0.9-2.6-0.5-3.8c0.3-1.2,1.1-2.1,2.3-2.7
				c0.8-0.4,1.7-0.6,2.7-0.5c0.9,0.1,1.8,0.4,2.6,1.1c0.8,0.6,1.6,1.8,2.5,3.3c0.9,1.6,1.4,3,1.6,4.2c0.2,1.2,0,2.2-0.4,3.1
				c-0.4,0.9-1.1,1.6-2.1,2.1c-1,0.5-2,0.7-2.9,0.5C268.9,182.4,268.1,181.8,267.4,180.8z M270.8,171.7c-0.5-0.9-1.1-1.5-1.9-1.8
				c-0.8-0.3-1.5-0.2-2.2,0.1c-0.7,0.4-1.2,1-1.4,1.8c-0.2,0.9-0.1,1.7,0.4,2.6c0.4,0.8,1,1.4,1.8,1.6c0.8,0.2,1.5,0.2,2.2-0.2
				c0.7-0.4,1.2-1,1.4-1.7C271.5,173.4,271.3,172.6,270.8,171.7z"/>
		</g>
		<g>
			<path class="st2" d="M276.9,175.2l1.5-1.1c0.7,0.8,1.3,1.3,2,1.4c0.6,0.2,1.3,0.1,1.9-0.3c0.7-0.4,1.2-1,1.5-1.8
				c0.2-0.8,0.2-1.6-0.3-2.3c-0.4-0.7-0.9-1.2-1.7-1.4c-0.7-0.2-1.5-0.1-2.2,0.3c-0.3,0.2-0.6,0.4-1,0.8l-0.6-1.5
				c0.1,0,0.2-0.1,0.3-0.1c0.7-0.4,1.2-0.9,1.5-1.5c0.4-0.6,0.3-1.3-0.1-2.1c-0.3-0.6-0.8-1-1.4-1.1c-0.6-0.2-1.2-0.1-1.8,0.2
				c-0.6,0.3-1,0.8-1.2,1.4c-0.2,0.6-0.2,1.3,0.1,2.2l-1.7,0.6c-0.4-1.2-0.4-2.2,0-3.2c0.4-0.9,1.1-1.7,2.1-2.2
				c0.7-0.4,1.4-0.6,2.2-0.6c0.8,0,1.4,0.2,2,0.5c0.6,0.4,1,0.8,1.4,1.4c0.3,0.6,0.4,1.1,0.4,1.8c-0.1,0.6-0.3,1.2-0.7,1.8
				c0.9-0.2,1.6-0.2,2.4,0.1c0.7,0.3,1.3,0.9,1.7,1.7c0.6,1.1,0.7,2.3,0.3,3.5c-0.4,1.2-1.2,2.2-2.5,2.8c-1.1,0.6-2.2,0.8-3.4,0.5
				C278.5,176.9,277.6,176.2,276.9,175.2z"/>
		</g>
		<g>
			<path class="st2" d="M287.4,165c-0.8,0.1-1.5,0-2-0.2c-0.6-0.3-1-0.7-1.3-1.3c-0.5-0.9-0.6-1.9-0.3-2.9c0.3-1,1.1-1.8,2.2-2.4
				c1.1-0.6,2.2-0.8,3.2-0.5c1,0.3,1.8,0.9,2.3,1.8c0.3,0.6,0.4,1.2,0.4,1.8c-0.1,0.6-0.4,1.2-0.9,1.8c0.9-0.2,1.8-0.1,2.5,0.3
				c0.7,0.4,1.3,0.9,1.7,1.7c0.6,1.1,0.7,2.2,0.3,3.4c-0.4,1.2-1.2,2.1-2.5,2.8c-1.3,0.7-2.5,0.8-3.7,0.5c-1.2-0.3-2.1-1.1-2.7-2.2
				c-0.4-0.8-0.6-1.7-0.5-2.4C286.4,166.3,286.8,165.6,287.4,165z M288.4,168.7c0.2,0.5,0.6,0.8,1,1.1c0.4,0.3,0.9,0.5,1.5,0.5
				c0.5,0,1.1-0.1,1.5-0.4c0.8-0.4,1.2-1,1.5-1.7c0.2-0.7,0.1-1.5-0.3-2.2c-0.4-0.8-1-1.3-1.8-1.5c-0.8-0.2-1.5-0.1-2.3,0.3
				c-0.7,0.4-1.2,1-1.5,1.7C287.9,167.2,288,168,288.4,168.7z M285.7,162.5c0.3,0.6,0.8,1,1.4,1.2c0.6,0.2,1.2,0.1,1.8-0.2
				c0.6-0.3,1-0.8,1.2-1.4c0.2-0.6,0.1-1.2-0.2-1.7c-0.3-0.6-0.8-1-1.4-1.1c-0.6-0.2-1.2-0.1-1.8,0.2c-0.6,0.3-1,0.8-1.2,1.4
				C285.4,161.4,285.4,161.9,285.7,162.5z"/>
		</g>
	</g>
</g>
<g>
	<path class="st1" d="M63.9,77.6H38.5v27H25.3v-27H0v-12h25.3V38.7h13.2v26.9h25.4V77.6z"/>
</g>
<g>
	<path class="st1" d="M341.9,263.4h-20.3v21.5h-10.5v-21.5H291v-9.6h20.2v-21.4h10.5v21.4h20.3V263.4z"/>
</g>
<g>
	<path class="st1" d="M117.7,58h-14.5v15.4h-7.5V58H81.2v-6.8h14.4V35.8h7.5v15.3h14.5V58z"/>
</g>
</svg>
