<?xml version="1.0" encoding="utf-8"?>
<!-- Generator: Adobe Illustrator 23.1.0, SVG Export Plug-In . SVG Version: 6.00 Build 0)  -->
<!DOCTYPE svg PUBLIC "-//W3C//DTD SVG 1.1//EN" "http://www.w3.org/Graphics/SVG/1.1/DTD/svg11.dtd" [
	<!ENTITY ns_extend "http://ns.adobe.com/Extensibility/1.0/">
	<!ENTITY ns_ai "http://ns.adobe.com/AdobeIllustrator/10.0/">
	<!ENTITY ns_graphs "http://ns.adobe.com/Graphs/1.0/">
	<!ENTITY ns_vars "http://ns.adobe.com/Variables/1.0/">
	<!ENTITY ns_imrep "http://ns.adobe.com/ImageReplacement/1.0/">
	<!ENTITY ns_sfw "http://ns.adobe.com/SaveForWeb/1.0/">
	<!ENTITY ns_custom "http://ns.adobe.com/GenericCustomNamespace/1.0/">
	<!ENTITY ns_adobe_xpath "http://ns.adobe.com/XPath/1.0/">
]>
<svg version="1.1" id="Isolation_Mode" xmlns:x="&ns_extend;" xmlns:i="&ns_ai;" xmlns:graph="&ns_graphs;"
	 xmlns="http://www.w3.org/2000/svg" xmlns:xlink="http://www.w3.org/1999/xlink" x="0px" y="0px" viewBox="0 0 55.9 128.6"
	 style="enable-background:new 0 0 55.9 128.6;" xml:space="preserve">
<style type="text/css">
	.st0{fill:#FA0000;}
</style>
<metadata>
	<sfw  xmlns="&ns_sfw;">
		<slices></slices>
		<sliceSourceBounds  bottomLeftOrigin="true" height="128.6" width="55.9" x="362.9" y="-128.6"></sliceSourceBounds>
	</sfw>
</metadata>
<g id="XMLID_58_">
	<path id="XMLID_59_" class="st0" d="M50.2,117.5c3.6-4.7,5.7-10.5,5.7-16.9c0-6.3-2.1-12.2-5.7-16.9c-0.1-0.1-0.2-0.2-0.2-0.3
		c-4-5.1-9.8-8.8-16.4-10.2v-5.5c0-0.5-0.4-1-0.9-1h-3.7V0c-0.8,0-0.4,0-1,0c-0.5,0-0.4,0-1,0v66.8h-3.4c-0.5,0-1.2,0.4-1.2,1v5.4
		c-6.6,1.3-12.5,5-16.6,10.3c-0.1,0.1-0.1,0.2-0.1,0.3C2.1,88.4,0,94.3,0,100.6c0,6.4,2.2,12.2,5.7,16.9c0.1,0.1,0.1,0.2,0.2,0.2
		c5.1,6.6,13.1,10.8,22,10.8c8.9,0,16.9-4.2,22-10.8C50.1,117.7,50.1,117.6,50.2,117.5z M4.7,112.1h46.5c-0.7,1.4-1.5,2.7-2.4,3.9
		H7.1C6.2,114.8,5.4,113.5,4.7,112.1z M53.1,107.1c-1.8-0.1-3-3.6-4.1-6.8c-1.4-4-2.8-8.1-6-8.1c-3.2,0-4.6,4.1-6,8.1
		c-1.1,3.2-2.3,6.8-4.1,6.8c-1.8,0-3-3.6-4.1-6.8c-1.4-4-2.8-8.1-6-8.1c-3.2,0-4.6,4.1-6,8.1c-1.1,3.2-2.3,6.8-4.1,6.8
		c-1.8,0-3-3.6-4.1-6.8c-1.2-3.7-2.5-7.5-5.3-8c0.1-0.4,0.3-0.8,0.4-1.2h48.3c1.2,3,1.8,6.2,1.8,9.5C53.9,102.9,53.6,105,53.1,107.1
		z M7.1,85.2h41.7c0.9,1.2,1.7,2.6,2.4,3.9H4.7C5.4,87.7,6.2,86.4,7.1,85.2z M28,74.7c4.1,0,7.9,0.9,11.4,2.6H16.6
		C20,75.6,23.9,74.7,28,74.7z M24.3,68.7h7.2v3.9h-7.2V68.7z M13.2,79.3h29.5c1.6,1.1,3.2,2.5,4.5,3.9H8.7
		C10.1,81.7,11.6,80.4,13.2,79.3z M2.8,94.2c1.7,0.2,2.9,3.7,4,6.8c1.4,4,2.8,8.1,6,8.1c3.2,0,4.6-4.1,6-8.1
		c1.1-3.2,2.3-6.8,4.1-6.8c1.8,0,3,3.6,4.1,6.8c1.4,4,2.8,8.1,6,8.1c3.2,0,4.6-4.1,6-8.1c1.1-3.2,2.3-6.8,4.1-6.8
		c1.8,0,3,3.6,4.1,6.8c1.3,3.7,2.6,7.6,5.4,8.1c-0.1,0.4-0.3,0.8-0.4,1.1H3.8c-1.2-3-1.8-6.2-1.8-9.5C2,98.4,2.3,96.2,2.8,94.2z
		 M16.6,124h22.7c-3.4,1.7-7.3,2.6-11.4,2.6S20,125.6,16.6,124z M42.7,122H13.2c-1.6-1.1-3.2-2.5-4.5-3.9h38.5
		C45.9,119.5,44.3,120.8,42.7,122z"/>
</g>
</svg>
