<?xml version="1.0" encoding="utf-8"?>
<!-- Generator: Adobe Illustrator 23.1.0, SVG Export Plug-In . SVG Version: 6.00 Build 0)  -->
<!DOCTYPE svg PUBLIC "-//W3C//DTD SVG 1.1//EN" "http://www.w3.org/Graphics/SVG/1.1/DTD/svg11.dtd" [
	<!ENTITY ns_extend "http://ns.adobe.com/Extensibility/1.0/">
	<!ENTITY ns_ai "http://ns.adobe.com/AdobeIllustrator/10.0/">
	<!ENTITY ns_graphs "http://ns.adobe.com/Graphs/1.0/">
	<!ENTITY ns_vars "http://ns.adobe.com/Variables/1.0/">
	<!ENTITY ns_imrep "http://ns.adobe.com/ImageReplacement/1.0/">
	<!ENTITY ns_sfw "http://ns.adobe.com/SaveForWeb/1.0/">
	<!ENTITY ns_custom "http://ns.adobe.com/GenericCustomNamespace/1.0/">
	<!ENTITY ns_adobe_xpath "http://ns.adobe.com/XPath/1.0/">
]>
<svg version="1.1" xmlns:x="&ns_extend;" xmlns:i="&ns_ai;" xmlns:graph="&ns_graphs;"
	 xmlns="http://www.w3.org/2000/svg" xmlns:xlink="http://www.w3.org/1999/xlink" x="0px" y="0px" viewBox="0 0 240.8 167.4"
	 style="enable-background:new 0 0 240.8 167.4;" xml:space="preserve">
<style type="text/css">
	.st0{fill:#2F3332;}
	.st1{fill:#FFA340;}
	.st2{fill:#FFD840;}
	.st3{fill:#FFE066;}
</style>
<metadata>
	<sfw  xmlns="&ns_sfw;">
		<slices></slices>
		<sliceSourceBounds  bottomLeftOrigin="true" height="167.4" width="240.8" x="194.6" y="-363.5"></sliceSourceBounds>
	</sfw>
</metadata>
<g id="OBJECTS">
	<ellipse class="st0" cx="34.2" cy="121.6" rx="34.2" ry="16.4"/>
	<g>
		<ellipse class="st1" cx="41.6" cy="117" rx="34.2" ry="16.4"/>
		<rect x="7.4" y="110.4" class="st1" width="68.4" height="8"/>
		<ellipse class="st2" cx="41.6" cy="111" rx="34.2" ry="16.4"/>
		<ellipse class="st3" cx="41.6" cy="111" rx="27.2" ry="12.6"/>
	</g>
	<g>
		<ellipse class="st1" cx="41.6" cy="103.4" rx="34.2" ry="16.4"/>
		<rect x="7.4" y="96.7" class="st1" width="68.4" height="8"/>
		<ellipse class="st2" cx="41.6" cy="97.3" rx="34.2" ry="16.4"/>
		<ellipse class="st3" cx="41.6" cy="97.3" rx="27.2" ry="12.6"/>
	</g>
	<g>
		<ellipse class="st1" cx="41.6" cy="90.2" rx="34.2" ry="16.4"/>
		<rect x="7.4" y="83.5" class="st1" width="68.4" height="8"/>
		<ellipse class="st2" cx="41.6" cy="84.1" rx="34.2" ry="16.4"/>
		<ellipse class="st3" cx="41.6" cy="84.1" rx="27.2" ry="12.6"/>
	</g>
	<ellipse class="st0" cx="199.2" cy="121.6" rx="34.2" ry="16.4"/>
	<g>
		<ellipse class="st1" cx="206.6" cy="117" rx="34.2" ry="16.4"/>
		<rect x="172.4" y="110.4" class="st1" width="68.4" height="8"/>
		<ellipse class="st2" cx="206.6" cy="111" rx="34.2" ry="16.4"/>
		<ellipse class="st3" cx="206.6" cy="111" rx="27.2" ry="12.6"/>
	</g>
	<g>
		<ellipse class="st1" cx="206.6" cy="104.4" rx="34.2" ry="16.4"/>
		<rect x="172.4" y="97.7" class="st1" width="68.4" height="8"/>
		<ellipse class="st2" cx="206.6" cy="98.3" rx="34.2" ry="16.4"/>
		<ellipse class="st3" cx="206.6" cy="98.3" rx="27.2" ry="12.6"/>
	</g>
	<g>
		<ellipse class="st0" cx="114.5" cy="96.5" rx="34.2" ry="16.4"/>
		<g>
			<ellipse class="st1" cx="118.9" cy="92" rx="34.2" ry="16.4"/>
			<rect x="84.7" y="85.3" class="st1" width="68.4" height="8"/>
			<ellipse class="st2" cx="118.9" cy="85.9" rx="34.2" ry="16.4"/>
			<ellipse class="st3" cx="118.9" cy="85.9" rx="27.2" ry="12.6"/>
			<g>
				<g>
					<path class="st1" d="M111.1,87.1l-4.3-2.3l3.3-1.7l4.3,2.3c2,1.1,5.3,1.1,7.4,0c2.1-1.1,2.1-2.8,0.1-3.9l-4.5-2.4l3.3-1.7
						l4.5,2.4c3.8,2,3.7,5.3-0.2,7.3C121.1,89.1,114.9,89.1,111.1,87.1z"/>
				</g>
				<g>
					<polygon class="st1" points="127.1,89.9 112,81.9 115.3,80.2 130.5,88.2 					"/>
				</g>
				<g>
					<polygon class="st1" points="132.5,87.1 117.4,79.1 120.7,77.4 135.9,85.4 					"/>
				</g>
				<g>
					<polygon class="st1" points="110,94.5 111.5,85 106.8,84.8 105.7,92.2 					"/>
				</g>
			</g>
		</g>
		<g>
			<ellipse class="st1" cx="118.9" cy="80.4" rx="34.2" ry="16.4"/>
			<rect x="84.7" y="73.7" class="st1" width="68.4" height="8"/>
			<ellipse class="st2" cx="118.9" cy="74.3" rx="34.2" ry="16.4"/>
			<ellipse class="st3" cx="118.9" cy="74.3" rx="27.2" ry="12.6"/>
			<g>
				<g>
					<path class="st1" d="M111.1,75.5l-4.3-2.3l3.3-1.7l4.3,2.3c2,1.1,5.3,1.1,7.4,0c2.1-1.1,2.1-2.8,0.1-3.9l-4.5-2.4l3.3-1.7
						l4.5,2.4c3.8,2,3.7,5.3-0.2,7.3C121.1,77.5,114.9,77.5,111.1,75.5z"/>
				</g>
				<g>
					<polygon class="st1" points="127.1,78.4 112,70.3 115.3,68.6 130.5,76.6 					"/>
				</g>
				<g>
					<polygon class="st1" points="132.5,75.6 117.4,67.5 120.7,65.8 135.9,73.8 					"/>
				</g>
				<g>
					<polygon class="st1" points="110,82.9 111.5,73.4 106.8,73.2 105.7,80.6 					"/>
				</g>
			</g>
		</g>
		<g>
			<ellipse class="st1" cx="118.9" cy="68.8" rx="34.2" ry="16.4"/>
			<rect x="84.7" y="62.1" class="st1" width="68.4" height="8"/>
			<ellipse class="st2" cx="118.9" cy="62.7" rx="34.2" ry="16.4"/>
			<ellipse class="st3" cx="118.9" cy="62.7" rx="27.2" ry="12.6"/>
			<g>
				<g>
					<path class="st1" d="M111.1,63.9l-4.3-2.3l3.3-1.7l4.3,2.3c2,1.1,5.3,1.1,7.4,0c2.1-1.1,2.1-2.8,0.1-3.9l-4.5-2.4l3.3-1.7
						l4.5,2.4c3.8,2,3.7,5.3-0.2,7.3C121.1,65.9,114.9,65.9,111.1,63.9z"/>
				</g>
				<g>
					<polygon class="st1" points="127.1,66.8 112,58.7 115.3,57 130.5,65 					"/>
				</g>
				<g>
					<polygon class="st1" points="132.5,64 117.4,55.9 120.7,54.2 135.9,62.2 					"/>
				</g>
				<g>
					<polygon class="st1" points="110,71.3 111.5,61.8 106.8,61.6 105.7,69 					"/>
				</g>
			</g>
		</g>
		<g>
			<ellipse class="st1" cx="118.9" cy="57.2" rx="34.2" ry="16.4"/>
			<rect x="84.7" y="50.6" class="st1" width="68.4" height="8"/>
			<ellipse class="st2" cx="118.9" cy="51.1" rx="34.2" ry="16.4"/>
			<ellipse class="st3" cx="118.9" cy="51.1" rx="27.2" ry="12.6"/>
			<g>
				<g>
					<path class="st1" d="M111.1,52.3l-4.3-2.3l3.3-1.7l4.3,2.3c2,1.1,5.3,1.1,7.4,0c2.1-1.1,2.1-2.8,0.1-3.9l-4.5-2.4l3.3-1.7
						l4.5,2.4c3.8,2,3.7,5.3-0.2,7.3C121.1,54.3,114.9,54.3,111.1,52.3z"/>
				</g>
				<g>
					<polygon class="st1" points="127.1,55.2 112,47.1 115.3,45.4 130.5,53.4 					"/>
				</g>
				<g>
					<polygon class="st1" points="132.5,52.4 117.4,44.3 120.7,42.6 135.9,50.6 					"/>
				</g>
				<g>
					<polygon class="st1" points="110,59.7 111.5,50.2 106.8,50 105.7,57.4 					"/>
				</g>
			</g>
		</g>
		<g>
			<ellipse class="st1" cx="118.9" cy="45.6" rx="34.2" ry="16.4"/>
			<rect x="84.7" y="39" class="st1" width="68.4" height="8"/>
			<ellipse class="st2" cx="118.9" cy="39.6" rx="34.2" ry="16.4"/>
			<ellipse class="st3" cx="118.9" cy="39.6" rx="27.2" ry="12.6"/>
			<g>
				<g>
					<path class="st1" d="M111.1,40.7l-4.3-2.3l3.3-1.7l4.3,2.3c2,1.1,5.3,1.1,7.4,0c2.1-1.1,2.1-2.8,0.1-3.9l-4.5-2.4l3.3-1.7
						l4.5,2.4c3.8,2,3.7,5.3-0.2,7.3C121.1,42.7,114.9,42.7,111.1,40.7z"/>
				</g>
				<g>
					<polygon class="st1" points="127.1,43.6 112,35.5 115.3,33.8 130.5,41.8 					"/>
				</g>
				<g>
					<polygon class="st1" points="132.5,40.8 117.4,32.7 120.7,31 135.9,39 					"/>
				</g>
				<g>
					<polygon class="st1" points="110,48.1 111.5,38.6 106.8,38.4 105.7,45.8 					"/>
				</g>
			</g>
		</g>
		<g>
			<ellipse class="st1" cx="118.9" cy="34" rx="34.2" ry="16.4"/>
			<rect x="84.7" y="27.4" class="st1" width="68.4" height="8"/>
			<ellipse class="st2" cx="118.9" cy="28" rx="34.2" ry="16.4"/>
			<ellipse class="st3" cx="118.9" cy="28" rx="27.2" ry="12.6"/>
			<g>
				<g>
					<path class="st1" d="M111.1,29.1l-4.3-2.3l3.3-1.7l4.3,2.3c2,1.1,5.3,1.1,7.4,0c2.1-1.1,2.1-2.8,0.1-3.9l-4.5-2.4l3.3-1.7
						l4.5,2.4c3.8,2,3.7,5.3-0.2,7.3C121.1,31.1,114.9,31.1,111.1,29.1z"/>
				</g>
				<g>
					<polygon class="st1" points="127.1,32 112,23.9 115.3,22.2 130.5,30.2 					"/>
				</g>
				<g>
					<polygon class="st1" points="132.5,29.2 117.4,21.1 120.7,19.4 135.9,27.5 					"/>
				</g>
				<g>
					<polygon class="st1" points="110,36.5 111.5,27 106.8,26.9 105.7,34.2 					"/>
				</g>
			</g>
		</g>
		<g>
			<ellipse class="st1" cx="118.9" cy="22.5" rx="34.2" ry="16.4"/>
			<rect x="84.7" y="15.8" class="st1" width="68.4" height="8"/>
			<ellipse class="st2" cx="118.9" cy="16.4" rx="34.2" ry="16.4"/>
			<ellipse class="st3" cx="118.9" cy="16.4" rx="27.2" ry="12.6"/>
		</g>
	</g>
	<g>
		<ellipse class="st0" cx="108.1" cy="151" rx="34.2" ry="16.4"/>
		<g>
			<ellipse class="st1" cx="112.4" cy="146.5" rx="34.2" ry="16.4"/>
			<rect x="78.3" y="139.8" class="st1" width="68.4" height="8"/>
			<ellipse class="st2" cx="112.4" cy="140.4" rx="34.2" ry="16.4"/>
			<ellipse class="st3" cx="112.4" cy="140.4" rx="27.2" ry="12.6"/>
			<g>
				<g>
					<path class="st1" d="M104.6,141.5l-4.3-2.3l3.3-1.7l4.3,2.3c2,1.1,5.3,1.1,7.4,0c2.1-1.1,2.1-2.8,0.1-3.9l-4.5-2.4l3.3-1.7
						l4.5,2.4c3.8,2,3.7,5.3-0.2,7.3C114.7,143.5,108.4,143.5,104.6,141.5z"/>
				</g>
				<g>
					<polygon class="st1" points="120.7,144.4 105.6,136.4 108.9,134.6 124,142.7 					"/>
				</g>
				<g>
					<polygon class="st1" points="126.1,141.6 110.9,133.6 114.3,131.8 129.4,139.9 					"/>
				</g>
				<g>
					<polygon class="st1" points="103.5,148.9 105,139.4 100.4,139.3 99.2,146.6 					"/>
				</g>
			</g>
		</g>
		<g>
			<ellipse class="st1" cx="112.4" cy="133.1" rx="34.2" ry="16.4"/>
			<rect x="78.3" y="126.5" class="st1" width="68.4" height="8"/>
			<ellipse class="st2" cx="112.4" cy="127" rx="34.2" ry="16.4"/>
			<ellipse class="st3" cx="112.4" cy="127" rx="27.2" ry="12.6"/>
			<g>
				<g>
					<path class="st1" d="M104.6,128.2l-4.3-2.3l3.3-1.7l4.3,2.3c2,1.1,5.3,1.1,7.4,0c2.1-1.1,2.1-2.8,0.1-3.9l-4.5-2.4l3.3-1.7
						l4.5,2.4c3.8,2,3.7,5.3-0.2,7.3C114.7,130.2,108.4,130.2,104.6,128.2z"/>
				</g>
				<g>
					<polygon class="st1" points="120.7,131.1 105.6,123 108.9,121.3 124,129.3 					"/>
				</g>
				<g>
					<polygon class="st1" points="126.1,128.3 110.9,120.2 114.3,118.5 129.4,126.5 					"/>
				</g>
				<g>
					<polygon class="st1" points="103.5,135.6 105,126.1 100.4,125.9 99.2,133.3 					"/>
				</g>
			</g>
		</g>
		<g>
			<ellipse class="st1" cx="112.4" cy="119.8" rx="34.2" ry="16.4"/>
			<rect x="78.3" y="113.1" class="st1" width="68.4" height="8"/>
			<ellipse class="st2" cx="112.4" cy="113.7" rx="34.2" ry="16.4"/>
			<ellipse class="st3" cx="112.4" cy="113.7" rx="27.2" ry="12.6"/>
		</g>
	</g>
</g>
<g id="DESIGNED_BY_FREEPIK">
	<path class="st1" d="M110,19.5l-3.8,4c0,0,1.7,1.2,6.3,1.9l2.1-3.6l1.4-2.4l1.5-2.6c0,0,0.5-0.9,0.5-0.9l0.1-0.1c0,0,0,0,0,0l0,0
		l0,0c0,0,0,0,0,0l0,0l0,0l0.1,0.1l0.2,0.2l0.3,0.5l1.2,1.8l1,1.6l1.6,2.4l1.2,1.7l0.6,0.9c0,0,3.6-0.7,6.6-2.6l-2.3-1.7l-1.5-1.3
		l-1.5-1.5l-1.3-1.3l-1-1.2l-0.9-1.2l-0.8-1.2l-0.9-1.4L120,9.9l-0.8-1.4l-0.9-1.6l-0.5-0.8l-0.8,1.6l-1.1,2.2l-0.9,1.7l-1,1.9
		l-0.9,1.5l-1,1.5l-1.1,1.4L110,19.5z"/>
	<path class="st1" d="M32.7,87.3l-4.1,3.7c0,0,1.6,1.3,6.2,2.4l2.4-3.4l1.6-2.3l1.6-2.5c0,0,0.6-0.8,0.6-0.8l0.1-0.1c0,0,0,0,0,0
		l0,0l0,0c0,0,0,0,0,0l0,0l0,0l0.1,0.1l0.1,0.3l0.3,0.5l1,1.9l0.9,1.6l1.4,2.5l1.1,1.8l0.6,1c0,0,3.6-0.5,6.7-2.1l-2.2-1.9l-1.4-1.4
		l-1.4-1.6l-1.2-1.4l-0.9-1.3l-0.8-1.3l-0.7-1.3l-0.8-1.4l-0.7-1.5l-0.7-1.5L42,75.3l-0.4-0.8L40.7,76l-1.2,2.1l-1,1.6l-1.2,1.8
		l-1,1.5l-1.1,1.4l-1.2,1.4L32.7,87.3z"/>
	<path class="st1" d="M197.7,101.4l-4.1,3.7c0,0,1.6,1.3,6.2,2.4l2.4-3.4l1.6-2.3l1.6-2.5c0,0,0.6-0.8,0.6-0.8l0.1-0.1c0,0,0,0,0,0
		l0,0l0,0c0,0,0,0,0,0l0,0l0,0l0.1,0.1l0.1,0.3l0.3,0.5l1,1.9l0.9,1.6l1.4,2.5l1.1,1.8l0.6,1c0,0,3.6-0.5,6.7-2.1l-2.2-1.9l-1.4-1.4
		l-1.4-1.6l-1.2-1.4l-0.9-1.3l-0.8-1.3l-0.7-1.3l-0.8-1.4l-0.7-1.5l-0.7-1.5l-0.7-1.6l-0.4-0.8l-0.9,1.5l-1.2,2.1l-1,1.6l-1.2,1.8
		l-1,1.5l-1.1,1.4l-1.2,1.4L197.7,101.4z"/>
	<path class="st1" d="M107.9,107.7l-7.4-2c0,0-2.3,1.2-3.9,4.3l6.7,1l4.5,0.6l5,0.6c0,0,1.6,0.2,1.6,0.2l0.2,0c0,0,0.1,0,0.1,0l0,0
		l0,0c0,0,0,0,0,0l0,0l0,0l-0.1,0.1l-0.5,0.1l-0.9,0.3l-3.5,1l-3,0.8l-4.7,1.3l-3.3,1l-1.8,0.5c0,0,1.2,2.3,4.7,4l3.4-1.7l2.6-1.1
		l3-1.2l2.6-1l2.4-0.8l2.4-0.7l2.3-0.7l2.6-0.7l2.8-0.7l2.8-0.7l3.1-0.7l1.5-0.4l-3-0.3l-4.2-0.4l-3.2-0.4l-3.5-0.5l-2.9-0.4
		l-2.8-0.5l-2.7-0.5L107.9,107.7z"/>
</g>
</svg>
