<?xml version="1.0" encoding="utf-8"?>
<!-- Generator: Adobe Illustrator 23.1.0, SVG Export Plug-In . SVG Version: 6.00 Build 0)  -->
<!DOCTYPE svg PUBLIC "-//W3C//DTD SVG 1.1//EN" "http://www.w3.org/Graphics/SVG/1.1/DTD/svg11.dtd" [
	<!ENTITY ns_extend "http://ns.adobe.com/Extensibility/1.0/">
	<!ENTITY ns_ai "http://ns.adobe.com/AdobeIllustrator/10.0/">
	<!ENTITY ns_graphs "http://ns.adobe.com/Graphs/1.0/">
	<!ENTITY ns_vars "http://ns.adobe.com/Variables/1.0/">
	<!ENTITY ns_imrep "http://ns.adobe.com/ImageReplacement/1.0/">
	<!ENTITY ns_sfw "http://ns.adobe.com/SaveForWeb/1.0/">
	<!ENTITY ns_custom "http://ns.adobe.com/GenericCustomNamespace/1.0/">
	<!ENTITY ns_adobe_xpath "http://ns.adobe.com/XPath/1.0/">
]>
<svg version="1.1" xmlns:x="&ns_extend;" xmlns:i="&ns_ai;" xmlns:graph="&ns_graphs;"
	 xmlns="http://www.w3.org/2000/svg" xmlns:xlink="http://www.w3.org/1999/xlink" x="0px" y="0px" viewBox="0 0 259.6 232.4"
	 style="enable-background:new 0 0 259.6 232.4;" xml:space="preserve">
<style type="text/css">
	.st0{fill:#2F3332;}
	.st1{fill:#FFA340;}
	.st2{fill:#FFD840;}
	.st3{fill:#FFE066;}
	.st4{opacity:5.000000e-02;}
	.st5{opacity:0.1;}
	.st6{fill:#FFFFFF;}
	.st7{font-family:'Calibri-Bold';}
	.st8{font-size:109.5938px;}
</style>
<metadata>
	<sfw  xmlns="&ns_sfw;">
		<slices></slices>
		<sliceSourceBounds  bottomLeftOrigin="true" height="270.5" width="272.1" x="194.6" y="-415.3"></sliceSourceBounds>
	</sfw>
</metadata>
<g id="OBJECTS">
	<g>
		<ellipse class="st0" cx="174.2" cy="137.8" rx="34.2" ry="16.4"/>
		<g>
			<ellipse class="st1" cx="178.5" cy="133.3" rx="34.2" ry="16.4"/>
			<rect x="144.3" y="126.6" class="st1" width="68.4" height="8"/>
			<ellipse class="st2" cx="178.5" cy="127.2" rx="34.2" ry="16.4"/>
			<ellipse class="st3" cx="178.5" cy="127.2" rx="27.2" ry="12.6"/>
			<g>
				<g>
					<path class="st1" d="M170.7,128.3l-4.3-2.3l3.3-1.7l4.3,2.3c2,1.1,5.3,1.1,7.4,0c2.1-1.1,2.1-2.8,0.1-3.9l-4.5-2.4l3.3-1.7
						l4.5,2.4c3.8,2,3.7,5.3-0.2,7.3C180.8,130.3,174.5,130.3,170.7,128.3z"/>
				</g>
				<g>
					<polygon class="st1" points="186.8,131.2 171.6,123.2 175,121.4 190.1,129.5 					"/>
				</g>
				<g>
					<polygon class="st1" points="192.2,128.4 177,120.4 180.4,118.6 195.5,126.7 					"/>
				</g>
				<g>
					<polygon class="st1" points="169.6,135.7 171.1,126.3 166.5,126.1 165.3,133.4 					"/>
				</g>
			</g>
		</g>
		<g>
			<ellipse class="st1" cx="178.5" cy="121.7" rx="34.2" ry="16.4"/>
			<rect x="144.3" y="115" class="st1" width="68.4" height="8"/>
			<ellipse class="st2" cx="178.5" cy="115.6" rx="34.2" ry="16.4"/>
			<ellipse class="st3" cx="178.5" cy="115.6" rx="27.2" ry="12.6"/>
			<g>
				<g>
					<path class="st1" d="M170.7,116.7l-4.3-2.3l3.3-1.7l4.3,2.3c2,1.1,5.3,1.1,7.4,0c2.1-1.1,2.1-2.8,0.1-3.9l-4.5-2.4l3.3-1.7
						l4.5,2.4c3.8,2,3.7,5.3-0.2,7.3C180.8,118.7,174.5,118.7,170.7,116.7z"/>
				</g>
				<g>
					<polygon class="st1" points="186.8,119.6 171.6,111.6 175,109.8 190.1,117.9 					"/>
				</g>
				<g>
					<polygon class="st1" points="192.2,116.8 177,108.8 180.4,107 195.5,115.1 					"/>
				</g>
				<g>
					<polygon class="st1" points="169.6,124.1 171.1,114.7 166.5,114.5 165.3,121.9 					"/>
				</g>
			</g>
		</g>
		<g>
			<ellipse class="st1" cx="178.5" cy="110.1" rx="34.2" ry="16.4"/>
			<rect x="144.3" y="103.4" class="st1" width="68.4" height="8"/>
			<ellipse class="st2" cx="178.5" cy="104" rx="34.2" ry="16.4"/>
			<ellipse class="st3" cx="178.5" cy="104" rx="27.2" ry="12.6"/>
			<g>
				<g>
					<path class="st1" d="M170.7,105.1l-4.3-2.3l3.3-1.7l4.3,2.3c2,1.1,5.3,1.1,7.4,0c2.1-1.1,2.1-2.8,0.1-3.9l-4.5-2.4l3.3-1.7
						l4.5,2.4c3.8,2,3.7,5.3-0.2,7.3C180.8,107.2,174.5,107.2,170.7,105.1z"/>
				</g>
				<g>
					<polygon class="st1" points="186.8,108 171.6,100 175,98.2 190.1,106.3 					"/>
				</g>
				<g>
					<polygon class="st1" points="192.2,105.2 177,97.2 180.4,95.4 195.5,103.5 					"/>
				</g>
				<g>
					<polygon class="st1" points="169.6,112.5 171.1,103.1 166.5,102.9 165.3,110.3 					"/>
				</g>
			</g>
		</g>
		<g>
			<ellipse class="st1" cx="178.5" cy="98.5" rx="34.2" ry="16.4"/>
			<rect x="144.3" y="91.8" class="st1" width="68.4" height="8"/>
			<ellipse class="st2" cx="178.5" cy="92.4" rx="34.2" ry="16.4"/>
			<ellipse class="st3" cx="178.5" cy="92.4" rx="27.2" ry="12.6"/>
			<g>
				<g>
					<path class="st1" d="M170.7,93.5l-4.3-2.3l3.3-1.7l4.3,2.3c2,1.1,5.3,1.1,7.4,0c2.1-1.1,2.1-2.8,0.1-3.9l-4.5-2.4l3.3-1.7
						l4.5,2.4c3.8,2,3.7,5.3-0.2,7.3C180.8,95.6,174.5,95.6,170.7,93.5z"/>
				</g>
				<g>
					<polygon class="st1" points="186.8,96.4 171.6,88.4 175,86.7 190.1,94.7 					"/>
				</g>
				<g>
					<polygon class="st1" points="192.2,93.6 177,85.6 180.4,83.9 195.5,91.9 					"/>
				</g>
				<g>
					<polygon class="st1" points="169.6,101 171.1,91.5 166.5,91.3 165.3,98.7 					"/>
				</g>
			</g>
		</g>
		<g>
			<ellipse class="st1" cx="178.5" cy="86.9" rx="34.2" ry="16.4"/>
			<rect x="144.3" y="80.2" class="st1" width="68.4" height="8"/>
			<ellipse class="st2" cx="178.5" cy="80.8" rx="34.2" ry="16.4"/>
			<ellipse class="st3" cx="178.5" cy="80.8" rx="27.2" ry="12.6"/>
			<g>
				<g>
					<path class="st1" d="M170.7,82l-4.3-2.3l3.3-1.7l4.3,2.3c2,1.1,5.3,1.1,7.4,0c2.1-1.1,2.1-2.8,0.1-3.9L177,74l3.3-1.7l4.5,2.4
						c3.8,2,3.7,5.3-0.2,7.3C180.8,84,174.5,84,170.7,82z"/>
				</g>
				<g>
					<polygon class="st1" points="186.8,84.8 171.6,76.8 175,75.1 190.1,83.1 					"/>
				</g>
				<g>
					<polygon class="st1" points="192.2,82 177,74 180.4,72.3 195.5,80.3 					"/>
				</g>
				<g>
					<polygon class="st1" points="169.6,89.4 171.1,79.9 166.5,79.7 165.3,87.1 					"/>
				</g>
			</g>
		</g>
		<g>
			<ellipse class="st1" cx="178.5" cy="75.3" rx="34.2" ry="16.4"/>
			<rect x="144.3" y="68.6" class="st1" width="68.4" height="8"/>
			<ellipse class="st2" cx="178.5" cy="69.2" rx="34.2" ry="16.4"/>
			<ellipse class="st3" cx="178.5" cy="69.2" rx="27.2" ry="12.6"/>
			<g>
				<g>
					<path class="st1" d="M170.7,70.4l-4.3-2.3l3.3-1.7l4.3,2.3c2,1.1,5.3,1.1,7.4,0c2.1-1.1,2.1-2.8,0.1-3.9l-4.5-2.4l3.3-1.7
						l4.5,2.4c3.8,2,3.7,5.3-0.2,7.3C180.8,72.4,174.5,72.4,170.7,70.4z"/>
				</g>
				<g>
					<polygon class="st1" points="186.8,73.2 171.6,65.2 175,63.5 190.1,71.5 					"/>
				</g>
				<g>
					<polygon class="st1" points="192.2,70.4 177,62.4 180.4,60.7 195.5,68.7 					"/>
				</g>
				<g>
					<polygon class="st1" points="169.6,77.8 171.1,68.3 166.5,68.1 165.3,75.5 					"/>
				</g>
			</g>
		</g>
		<g>
			<ellipse class="st1" cx="178.5" cy="63.7" rx="34.2" ry="16.4"/>
			<rect x="144.3" y="57" class="st1" width="68.4" height="8"/>
			<ellipse class="st2" cx="178.5" cy="57.6" rx="34.2" ry="16.4"/>
			<ellipse class="st3" cx="178.5" cy="57.6" rx="27.2" ry="12.6"/>
		</g>
	</g>
	<g class="st4">
		<ellipse cx="174.2" cy="137.8" rx="34.2" ry="16.4"/>
		<g>
			<ellipse cx="178.5" cy="133.3" rx="34.2" ry="16.4"/>
			<rect x="144.3" y="126.6" width="68.4" height="8"/>
			<ellipse cx="178.5" cy="127.2" rx="34.2" ry="16.4"/>
			<ellipse cx="178.5" cy="127.2" rx="27.2" ry="12.6"/>
			<g>
				<g>
					<path d="M170.7,128.3l-4.3-2.3l3.3-1.7l4.3,2.3c2,1.1,5.3,1.1,7.4,0c2.1-1.1,2.1-2.8,0.1-3.9l-4.5-2.4l3.3-1.7l4.5,2.4
						c3.8,2,3.7,5.3-0.2,7.3C180.8,130.3,174.5,130.3,170.7,128.3z"/>
				</g>
				<g>
					<polygon points="186.8,131.2 171.6,123.2 175,121.4 190.1,129.5 					"/>
				</g>
				<g>
					<polygon points="192.2,128.4 177,120.4 180.4,118.6 195.5,126.7 					"/>
				</g>
				<g>
					<polygon points="169.6,135.7 171.1,126.3 166.5,126.1 165.3,133.4 					"/>
				</g>
			</g>
		</g>
		<g>
			<ellipse cx="178.5" cy="121.7" rx="34.2" ry="16.4"/>
			<rect x="144.3" y="115" width="68.4" height="8"/>
			<ellipse cx="178.5" cy="115.6" rx="34.2" ry="16.4"/>
			<ellipse cx="178.5" cy="115.6" rx="27.2" ry="12.6"/>
			<g>
				<g>
					<path d="M170.7,116.7l-4.3-2.3l3.3-1.7l4.3,2.3c2,1.1,5.3,1.1,7.4,0c2.1-1.1,2.1-2.8,0.1-3.9l-4.5-2.4l3.3-1.7l4.5,2.4
						c3.8,2,3.7,5.3-0.2,7.3C180.8,118.7,174.5,118.7,170.7,116.7z"/>
				</g>
				<g>
					<polygon points="186.8,119.6 171.6,111.6 175,109.8 190.1,117.9 					"/>
				</g>
				<g>
					<polygon points="192.2,116.8 177,108.8 180.4,107 195.5,115.1 					"/>
				</g>
				<g>
					<polygon points="169.6,124.1 171.1,114.7 166.5,114.5 165.3,121.9 					"/>
				</g>
			</g>
		</g>
		<g>
			<ellipse cx="178.5" cy="110.1" rx="34.2" ry="16.4"/>
			<rect x="144.3" y="103.4" width="68.4" height="8"/>
			<ellipse cx="178.5" cy="104" rx="34.2" ry="16.4"/>
			<ellipse cx="178.5" cy="104" rx="27.2" ry="12.6"/>
			<g>
				<g>
					<path d="M170.7,105.1l-4.3-2.3l3.3-1.7l4.3,2.3c2,1.1,5.3,1.1,7.4,0c2.1-1.1,2.1-2.8,0.1-3.9l-4.5-2.4l3.3-1.7l4.5,2.4
						c3.8,2,3.7,5.3-0.2,7.3C180.8,107.2,174.5,107.2,170.7,105.1z"/>
				</g>
				<g>
					<polygon points="186.8,108 171.6,100 175,98.2 190.1,106.3 					"/>
				</g>
				<g>
					<polygon points="192.2,105.2 177,97.2 180.4,95.4 195.5,103.5 					"/>
				</g>
				<g>
					<polygon points="169.6,112.5 171.1,103.1 166.5,102.9 165.3,110.3 					"/>
				</g>
			</g>
		</g>
		<g>
			<ellipse cx="178.5" cy="98.5" rx="34.2" ry="16.4"/>
			<rect x="144.3" y="91.8" width="68.4" height="8"/>
			<ellipse cx="178.5" cy="92.4" rx="34.2" ry="16.4"/>
			<ellipse cx="178.5" cy="92.4" rx="27.2" ry="12.6"/>
			<g>
				<g>
					<path d="M170.7,93.5l-4.3-2.3l3.3-1.7l4.3,2.3c2,1.1,5.3,1.1,7.4,0c2.1-1.1,2.1-2.8,0.1-3.9l-4.5-2.4l3.3-1.7l4.5,2.4
						c3.8,2,3.7,5.3-0.2,7.3C180.8,95.6,174.5,95.6,170.7,93.5z"/>
				</g>
				<g>
					<polygon points="186.8,96.4 171.6,88.4 175,86.7 190.1,94.7 					"/>
				</g>
				<g>
					<polygon points="192.2,93.6 177,85.6 180.4,83.9 195.5,91.9 					"/>
				</g>
				<g>
					<polygon points="169.6,101 171.1,91.5 166.5,91.3 165.3,98.7 					"/>
				</g>
			</g>
		</g>
		<g>
			<ellipse cx="178.5" cy="86.9" rx="34.2" ry="16.4"/>
			<rect x="144.3" y="80.2" width="68.4" height="8"/>
			<ellipse cx="178.5" cy="80.8" rx="34.2" ry="16.4"/>
			<ellipse cx="178.5" cy="80.8" rx="27.2" ry="12.6"/>
			<g>
				<g>
					<path d="M170.7,82l-4.3-2.3l3.3-1.7l4.3,2.3c2,1.1,5.3,1.1,7.4,0c2.1-1.1,2.1-2.8,0.1-3.9L177,74l3.3-1.7l4.5,2.4
						c3.8,2,3.7,5.3-0.2,7.3C180.8,84,174.5,84,170.7,82z"/>
				</g>
				<g>
					<polygon points="186.8,84.8 171.6,76.8 175,75.1 190.1,83.1 					"/>
				</g>
				<g>
					<polygon points="192.2,82 177,74 180.4,72.3 195.5,80.3 					"/>
				</g>
				<g>
					<polygon points="169.6,89.4 171.1,79.9 166.5,79.7 165.3,87.1 					"/>
				</g>
			</g>
		</g>
		<g>
			<ellipse cx="178.5" cy="75.3" rx="34.2" ry="16.4"/>
			<rect x="144.3" y="68.6" width="68.4" height="8"/>
			<ellipse cx="178.5" cy="69.2" rx="34.2" ry="16.4"/>
			<ellipse cx="178.5" cy="69.2" rx="27.2" ry="12.6"/>
			<g>
				<g>
					<path d="M170.7,70.4l-4.3-2.3l3.3-1.7l4.3,2.3c2,1.1,5.3,1.1,7.4,0c2.1-1.1,2.1-2.8,0.1-3.9l-4.5-2.4l3.3-1.7l4.5,2.4
						c3.8,2,3.7,5.3-0.2,7.3C180.8,72.4,174.5,72.4,170.7,70.4z"/>
				</g>
				<g>
					<polygon points="186.8,73.2 171.6,65.2 175,63.5 190.1,71.5 					"/>
				</g>
				<g>
					<polygon points="192.2,70.4 177,62.4 180.4,60.7 195.5,68.7 					"/>
				</g>
				<g>
					<polygon points="169.6,77.8 171.1,68.3 166.5,68.1 165.3,75.5 					"/>
				</g>
			</g>
		</g>
		<g>
			<ellipse cx="178.5" cy="63.7" rx="34.2" ry="16.4"/>
			<rect x="144.3" y="57" width="68.4" height="8"/>
			<ellipse cx="178.5" cy="57.6" rx="34.2" ry="16.4"/>
			<ellipse cx="178.5" cy="57.6" rx="27.2" ry="12.6"/>
		</g>
	</g>
	<g>
		<ellipse class="st0" cx="66.2" cy="128.3" rx="34.2" ry="16.4"/>
		<g>
			<ellipse class="st1" cx="70.5" cy="123.8" rx="34.2" ry="16.4"/>
			<rect x="36.4" y="117.1" class="st1" width="68.4" height="8"/>
			<ellipse class="st2" cx="70.5" cy="117.7" rx="34.2" ry="16.4"/>
			<ellipse class="st3" cx="70.5" cy="117.7" rx="27.2" ry="12.6"/>
			<g>
				<g>
					<path class="st1" d="M62.7,118.9l-4.3-2.3l3.3-1.7l4.3,2.3c2,1.1,5.3,1.1,7.4,0c2.1-1.1,2.1-2.8,0.1-3.9l-4.5-2.4l3.3-1.7
						l4.5,2.4c3.8,2,3.7,5.3-0.2,7.3C72.8,120.9,66.5,120.9,62.7,118.9z"/>
				</g>
				<g>
					<polygon class="st1" points="78.8,121.7 63.7,113.7 67,112 82.2,120 					"/>
				</g>
				<g>
					<polygon class="st1" points="84.2,118.9 69,110.9 72.4,109.2 87.5,117.2 					"/>
				</g>
				<g>
					<polygon class="st1" points="61.6,126.3 63.1,116.8 58.5,116.6 57.3,124 					"/>
				</g>
			</g>
		</g>
		<g>
			<ellipse class="st1" cx="70.5" cy="112.2" rx="34.2" ry="16.4"/>
			<rect x="36.4" y="105.5" class="st1" width="68.4" height="8"/>
			<ellipse class="st2" cx="70.5" cy="106.1" rx="34.2" ry="16.4"/>
			<ellipse class="st3" cx="70.5" cy="106.1" rx="27.2" ry="12.6"/>
			<g>
				<g>
					<path class="st1" d="M62.7,107.3l-4.3-2.3l3.3-1.7l4.3,2.3c2,1.1,5.3,1.1,7.4,0c2.1-1.1,2.1-2.8,0.1-3.9L69,99.3l3.3-1.7
						l4.5,2.4c3.8,2,3.7,5.3-0.2,7.3C72.8,109.3,66.5,109.3,62.7,107.3z"/>
				</g>
				<g>
					<polygon class="st1" points="78.8,110.1 63.7,102.1 67,100.4 82.2,108.4 					"/>
				</g>
				<g>
					<polygon class="st1" points="84.2,107.3 69,99.3 72.4,97.6 87.5,105.6 					"/>
				</g>
				<g>
					<polygon class="st1" points="61.6,114.7 63.1,105.2 58.5,105 57.3,112.4 					"/>
				</g>
			</g>
		</g>
		<g>
			<ellipse class="st1" cx="70.5" cy="100.6" rx="34.2" ry="16.4"/>
			<rect x="36.4" y="93.9" class="st1" width="68.4" height="8"/>
			<ellipse class="st2" cx="70.5" cy="94.5" rx="34.2" ry="16.4"/>
			<ellipse class="st3" cx="70.5" cy="94.5" rx="27.2" ry="12.6"/>
			<g>
				<g>
					<path class="st1" d="M62.7,95.7l-4.3-2.3l3.3-1.7l4.3,2.3c2,1.1,5.3,1.1,7.4,0c2.1-1.1,2.1-2.8,0.1-3.9L69,87.7l3.3-1.7
						l4.5,2.4c3.8,2,3.7,5.3-0.2,7.3C72.8,97.7,66.5,97.7,62.7,95.7z"/>
				</g>
				<g>
					<polygon class="st1" points="78.8,98.6 63.7,90.5 67,88.8 82.2,96.8 					"/>
				</g>
				<g>
					<polygon class="st1" points="84.2,95.8 69,87.7 72.4,86 87.5,94 					"/>
				</g>
				<g>
					<polygon class="st1" points="61.6,103.1 63.1,93.6 58.5,93.4 57.3,100.8 					"/>
				</g>
			</g>
		</g>
		<g>
			<ellipse class="st1" cx="70.5" cy="89" rx="34.2" ry="16.4"/>
			<rect x="36.4" y="82.3" class="st1" width="68.4" height="8"/>
			<ellipse class="st2" cx="70.5" cy="82.9" rx="34.2" ry="16.4"/>
			<ellipse class="st3" cx="70.5" cy="82.9" rx="27.2" ry="12.6"/>
			<g>
				<g>
					<path class="st1" d="M62.7,84.1l-4.3-2.3l3.3-1.7l4.3,2.3c2,1.1,5.3,1.1,7.4,0c2.1-1.1,2.1-2.8,0.1-3.9L69,76.1l3.3-1.7
						l4.5,2.4c3.8,2,3.7,5.3-0.2,7.3C72.8,86.1,66.5,86.1,62.7,84.1z"/>
				</g>
				<g>
					<polygon class="st1" points="78.8,87 63.7,78.9 67,77.2 82.2,85.2 					"/>
				</g>
				<g>
					<polygon class="st1" points="84.2,84.2 69,76.1 72.4,74.4 87.5,82.4 					"/>
				</g>
				<g>
					<polygon class="st1" points="61.6,91.5 63.1,82 58.5,81.8 57.3,89.2 					"/>
				</g>
			</g>
		</g>
		<g>
			<ellipse class="st1" cx="70.5" cy="77.4" rx="34.2" ry="16.4"/>
			<rect x="36.4" y="70.8" class="st1" width="68.4" height="8"/>
			<ellipse class="st2" cx="70.5" cy="71.3" rx="34.2" ry="16.4"/>
			<ellipse class="st3" cx="70.5" cy="71.3" rx="27.2" ry="12.6"/>
			<g>
				<g>
					<path class="st1" d="M62.7,72.5l-4.3-2.3l3.3-1.7l4.3,2.3c2,1.1,5.3,1.1,7.4,0c2.1-1.1,2.1-2.8,0.1-3.9L69,64.5l3.3-1.7
						l4.5,2.4c3.8,2,3.7,5.3-0.2,7.3C72.8,74.5,66.5,74.5,62.7,72.5z"/>
				</g>
				<g>
					<polygon class="st1" points="78.8,75.4 63.7,67.3 67,65.6 82.2,73.6 					"/>
				</g>
				<g>
					<polygon class="st1" points="84.2,72.6 69,64.5 72.4,62.8 87.5,70.8 					"/>
				</g>
				<g>
					<polygon class="st1" points="61.6,79.9 63.1,70.4 58.5,70.2 57.3,77.6 					"/>
				</g>
			</g>
		</g>
		<g>
			<ellipse class="st1" cx="70.5" cy="65.8" rx="34.2" ry="16.4"/>
			<rect x="36.4" y="59.2" class="st1" width="68.4" height="8"/>
			<ellipse class="st2" cx="70.5" cy="59.8" rx="34.2" ry="16.4"/>
			<ellipse class="st3" cx="70.5" cy="59.8" rx="27.2" ry="12.6"/>
			<g>
				<g>
					<path class="st1" d="M62.7,60.9l-4.3-2.3l3.3-1.7l4.3,2.3c2,1.1,5.3,1.1,7.4,0c2.1-1.1,2.1-2.8,0.1-3.9L69,52.9l3.3-1.7
						l4.5,2.4c3.8,2,3.7,5.3-0.2,7.3C72.8,62.9,66.5,62.9,62.7,60.9z"/>
				</g>
				<g>
					<polygon class="st1" points="78.8,63.8 63.7,55.7 67,54 82.2,62 					"/>
				</g>
				<g>
					<polygon class="st1" points="84.2,61 69,52.9 72.4,51.2 87.5,59.2 					"/>
				</g>
				<g>
					<polygon class="st1" points="61.6,68.3 63.1,58.8 58.5,58.6 57.3,66 					"/>
				</g>
			</g>
		</g>
		<g>
			<ellipse class="st1" cx="70.5" cy="54.2" rx="34.2" ry="16.4"/>
			<rect x="36.4" y="47.6" class="st1" width="68.4" height="8"/>
			<ellipse class="st2" cx="70.5" cy="48.2" rx="34.2" ry="16.4"/>
			<ellipse class="st3" cx="70.5" cy="48.2" rx="27.2" ry="12.6"/>
		</g>
	</g>
	<g class="st5">
		<ellipse cx="66.2" cy="128.3" rx="34.2" ry="16.4"/>
		<g>
			<ellipse cx="70.5" cy="123.8" rx="34.2" ry="16.4"/>
			<rect x="36.4" y="117.1" width="68.4" height="8"/>
			<ellipse cx="70.5" cy="117.7" rx="34.2" ry="16.4"/>
			<ellipse cx="70.5" cy="117.7" rx="27.2" ry="12.6"/>
			<g>
				<g>
					<path d="M62.7,118.9l-4.3-2.3l3.3-1.7l4.3,2.3c2,1.1,5.3,1.1,7.4,0c2.1-1.1,2.1-2.8,0.1-3.9l-4.5-2.4l3.3-1.7l4.5,2.4
						c3.8,2,3.7,5.3-0.2,7.3C72.8,120.9,66.5,120.9,62.7,118.9z"/>
				</g>
				<g>
					<polygon points="78.8,121.7 63.7,113.7 67,112 82.2,120 					"/>
				</g>
				<g>
					<polygon points="84.2,118.9 69,110.9 72.4,109.2 87.5,117.2 					"/>
				</g>
				<g>
					<polygon points="61.6,126.3 63.1,116.8 58.5,116.6 57.3,124 					"/>
				</g>
			</g>
		</g>
		<g>
			<ellipse cx="70.5" cy="112.2" rx="34.2" ry="16.4"/>
			<rect x="36.4" y="105.5" width="68.4" height="8"/>
			<ellipse cx="70.5" cy="106.1" rx="34.2" ry="16.4"/>
			<ellipse cx="70.5" cy="106.1" rx="27.2" ry="12.6"/>
			<g>
				<g>
					<path d="M62.7,107.3l-4.3-2.3l3.3-1.7l4.3,2.3c2,1.1,5.3,1.1,7.4,0c2.1-1.1,2.1-2.8,0.1-3.9L69,99.3l3.3-1.7l4.5,2.4
						c3.8,2,3.7,5.3-0.2,7.3C72.8,109.3,66.5,109.3,62.7,107.3z"/>
				</g>
				<g>
					<polygon points="78.8,110.1 63.7,102.1 67,100.4 82.2,108.4 					"/>
				</g>
				<g>
					<polygon points="84.2,107.3 69,99.3 72.4,97.6 87.5,105.6 					"/>
				</g>
				<g>
					<polygon points="61.6,114.7 63.1,105.2 58.5,105 57.3,112.4 					"/>
				</g>
			</g>
		</g>
		<g>
			<ellipse cx="70.5" cy="100.6" rx="34.2" ry="16.4"/>
			<rect x="36.4" y="93.9" width="68.4" height="8"/>
			<ellipse cx="70.5" cy="94.5" rx="34.2" ry="16.4"/>
			<ellipse cx="70.5" cy="94.5" rx="27.2" ry="12.6"/>
			<g>
				<g>
					<path d="M62.7,95.7l-4.3-2.3l3.3-1.7l4.3,2.3c2,1.1,5.3,1.1,7.4,0c2.1-1.1,2.1-2.8,0.1-3.9L69,87.7l3.3-1.7l4.5,2.4
						c3.8,2,3.7,5.3-0.2,7.3C72.8,97.7,66.5,97.7,62.7,95.7z"/>
				</g>
				<g>
					<polygon points="78.8,98.6 63.7,90.5 67,88.8 82.2,96.8 					"/>
				</g>
				<g>
					<polygon points="84.2,95.8 69,87.7 72.4,86 87.5,94 					"/>
				</g>
				<g>
					<polygon points="61.6,103.1 63.1,93.6 58.5,93.4 57.3,100.8 					"/>
				</g>
			</g>
		</g>
		<g>
			<ellipse cx="70.5" cy="89" rx="34.2" ry="16.4"/>
			<rect x="36.4" y="82.3" width="68.4" height="8"/>
			<ellipse cx="70.5" cy="82.9" rx="34.2" ry="16.4"/>
			<ellipse cx="70.5" cy="82.9" rx="27.2" ry="12.6"/>
			<g>
				<g>
					<path d="M62.7,84.1l-4.3-2.3l3.3-1.7l4.3,2.3c2,1.1,5.3,1.1,7.4,0c2.1-1.1,2.1-2.8,0.1-3.9L69,76.1l3.3-1.7l4.5,2.4
						c3.8,2,3.7,5.3-0.2,7.3C72.8,86.1,66.5,86.1,62.7,84.1z"/>
				</g>
				<g>
					<polygon points="78.8,87 63.7,78.9 67,77.2 82.2,85.2 					"/>
				</g>
				<g>
					<polygon points="84.2,84.2 69,76.1 72.4,74.4 87.5,82.4 					"/>
				</g>
				<g>
					<polygon points="61.6,91.5 63.1,82 58.5,81.8 57.3,89.2 					"/>
				</g>
			</g>
		</g>
		<g>
			<ellipse cx="70.5" cy="77.4" rx="34.2" ry="16.4"/>
			<rect x="36.4" y="70.8" width="68.4" height="8"/>
			<ellipse cx="70.5" cy="71.3" rx="34.2" ry="16.4"/>
			<ellipse cx="70.5" cy="71.3" rx="27.2" ry="12.6"/>
			<g>
				<g>
					<path d="M62.7,72.5l-4.3-2.3l3.3-1.7l4.3,2.3c2,1.1,5.3,1.1,7.4,0c2.1-1.1,2.1-2.8,0.1-3.9L69,64.5l3.3-1.7l4.5,2.4
						c3.8,2,3.7,5.3-0.2,7.3C72.8,74.5,66.5,74.5,62.7,72.5z"/>
				</g>
				<g>
					<polygon points="78.8,75.4 63.7,67.3 67,65.6 82.2,73.6 					"/>
				</g>
				<g>
					<polygon points="84.2,72.6 69,64.5 72.4,62.8 87.5,70.8 					"/>
				</g>
				<g>
					<polygon points="61.6,79.9 63.1,70.4 58.5,70.2 57.3,77.6 					"/>
				</g>
			</g>
		</g>
		<g>
			<ellipse cx="70.5" cy="65.8" rx="34.2" ry="16.4"/>
			<rect x="36.4" y="59.2" width="68.4" height="8"/>
			<ellipse cx="70.5" cy="59.8" rx="34.2" ry="16.4"/>
			<ellipse cx="70.5" cy="59.8" rx="27.2" ry="12.6"/>
			<g>
				<g>
					<path d="M62.7,60.9l-4.3-2.3l3.3-1.7l4.3,2.3c2,1.1,5.3,1.1,7.4,0c2.1-1.1,2.1-2.8,0.1-3.9L69,52.9l3.3-1.7l4.5,2.4
						c3.8,2,3.7,5.3-0.2,7.3C72.8,62.9,66.5,62.9,62.7,60.9z"/>
				</g>
				<g>
					<polygon points="78.8,63.8 63.7,55.7 67,54 82.2,62 					"/>
				</g>
				<g>
					<polygon points="84.2,61 69,52.9 72.4,51.2 87.5,59.2 					"/>
				</g>
				<g>
					<polygon points="61.6,68.3 63.1,58.8 58.5,58.6 57.3,66 					"/>
				</g>
			</g>
		</g>
		<g>
			<ellipse cx="70.5" cy="54.2" rx="34.2" ry="16.4"/>
			<rect x="36.4" y="47.6" width="68.4" height="8"/>
			<ellipse cx="70.5" cy="48.2" rx="34.2" ry="16.4"/>
			<ellipse cx="70.5" cy="48.2" rx="27.2" ry="12.6"/>
		</g>
	</g>
	<ellipse class="st0" cx="34.2" cy="172.9" rx="34.2" ry="16.4"/>
	<ellipse class="st0" cx="199.2" cy="172.9" rx="34.2" ry="16.4"/>
	<g>
		<ellipse class="st0" cx="114.5" cy="147.9" rx="34.2" ry="16.4"/>
		<g>
			<ellipse class="st1" cx="118.9" cy="143.4" rx="34.2" ry="16.4"/>
			<rect x="84.7" y="136.7" class="st1" width="68.4" height="8"/>
			<ellipse class="st2" cx="118.9" cy="137.3" rx="34.2" ry="16.4"/>
			<ellipse class="st3" cx="118.9" cy="137.3" rx="27.2" ry="12.6"/>
			<g>
				<g>
					<path class="st1" d="M111.1,138.4l-4.3-2.3l3.3-1.7l4.3,2.3c2,1.1,5.3,1.1,7.4,0c2.1-1.1,2.1-2.8,0.1-3.9l-4.5-2.4l3.3-1.7
						l4.5,2.4c3.8,2,3.7,5.3-0.2,7.3C121.1,140.4,114.9,140.4,111.1,138.4z"/>
				</g>
				<g>
					<polygon class="st1" points="127.1,141.3 112,133.2 115.3,131.5 130.5,139.6 					"/>
				</g>
				<g>
					<polygon class="st1" points="132.5,138.5 117.4,130.4 120.7,128.7 135.9,136.8 					"/>
				</g>
				<g>
					<polygon class="st1" points="110,145.8 111.5,136.3 106.8,136.2 105.7,143.5 					"/>
				</g>
			</g>
		</g>
		<g>
			<ellipse class="st1" cx="118.9" cy="131.8" rx="34.2" ry="16.4"/>
			<rect x="84.7" y="125.1" class="st1" width="68.4" height="8"/>
			<ellipse class="st2" cx="118.9" cy="125.7" rx="34.2" ry="16.4"/>
			<ellipse class="st3" cx="118.9" cy="125.7" rx="27.2" ry="12.6"/>
			<g>
				<g>
					<path class="st1" d="M111.1,126.8l-4.3-2.3l3.3-1.7l4.3,2.3c2,1.1,5.3,1.1,7.4,0c2.1-1.1,2.1-2.8,0.1-3.9l-4.5-2.4l3.3-1.7
						l4.5,2.4c3.8,2,3.7,5.3-0.2,7.3C121.1,128.8,114.9,128.8,111.1,126.8z"/>
				</g>
				<g>
					<polygon class="st1" points="127.1,129.7 112,121.7 115.3,119.9 130.5,128 					"/>
				</g>
				<g>
					<polygon class="st1" points="132.5,126.9 117.4,118.9 120.7,117.1 135.9,125.2 					"/>
				</g>
				<g>
					<polygon class="st1" points="110,134.2 111.5,124.7 106.8,124.6 105.7,131.9 					"/>
				</g>
			</g>
		</g>
		<g>
			<ellipse class="st1" cx="118.9" cy="120.2" rx="34.2" ry="16.4"/>
			<rect x="84.7" y="113.5" class="st1" width="68.4" height="8"/>
			<ellipse class="st2" cx="118.9" cy="114.1" rx="34.2" ry="16.4"/>
			<ellipse class="st3" cx="118.9" cy="114.1" rx="27.2" ry="12.6"/>
			<g>
				<g>
					<path class="st1" d="M111.1,115.2l-4.3-2.3l3.3-1.7l4.3,2.3c2,1.1,5.3,1.1,7.4,0c2.1-1.1,2.1-2.8,0.1-3.9l-4.5-2.4l3.3-1.7
						l4.5,2.4c3.8,2,3.7,5.3-0.2,7.3C121.1,117.2,114.9,117.2,111.1,115.2z"/>
				</g>
				<g>
					<polygon class="st1" points="127.1,118.1 112,110.1 115.3,108.3 130.5,116.4 					"/>
				</g>
				<g>
					<polygon class="st1" points="132.5,115.3 117.4,107.3 120.7,105.5 135.9,113.6 					"/>
				</g>
				<g>
					<polygon class="st1" points="110,122.6 111.5,113.1 106.8,113 105.7,120.3 					"/>
				</g>
			</g>
		</g>
		<g>
			<ellipse class="st1" cx="118.9" cy="108.6" rx="34.2" ry="16.4"/>
			<rect x="84.7" y="101.9" class="st1" width="68.4" height="8"/>
			<ellipse class="st2" cx="118.9" cy="102.5" rx="34.2" ry="16.4"/>
			<ellipse class="st3" cx="118.9" cy="102.5" rx="27.2" ry="12.6"/>
			<g>
				<g>
					<path class="st1" d="M111.1,103.6l-4.3-2.3l3.3-1.7l4.3,2.3c2,1.1,5.3,1.1,7.4,0c2.1-1.1,2.1-2.8,0.1-3.9l-4.5-2.4l3.3-1.7
						l4.5,2.4c3.8,2,3.7,5.3-0.2,7.3C121.1,105.6,114.9,105.6,111.1,103.6z"/>
				</g>
				<g>
					<polygon class="st1" points="127.1,106.5 112,98.5 115.3,96.7 130.5,104.8 					"/>
				</g>
				<g>
					<polygon class="st1" points="132.5,103.7 117.4,95.7 120.7,93.9 135.9,102 					"/>
				</g>
				<g>
					<polygon class="st1" points="110,111 111.5,101.6 106.8,101.4 105.7,108.7 					"/>
				</g>
			</g>
		</g>
		<g>
			<ellipse class="st1" cx="118.9" cy="97" rx="34.2" ry="16.4"/>
			<rect x="84.7" y="90.3" class="st1" width="68.4" height="8"/>
			<ellipse class="st2" cx="118.9" cy="90.9" rx="34.2" ry="16.4"/>
			<ellipse class="st3" cx="118.9" cy="90.9" rx="27.2" ry="12.6"/>
			<g>
				<g>
					<path class="st1" d="M111.1,92l-4.3-2.3l3.3-1.7l4.3,2.3c2,1.1,5.3,1.1,7.4,0c2.1-1.1,2.1-2.8,0.1-3.9l-4.5-2.4l3.3-1.7
						l4.5,2.4c3.8,2,3.7,5.3-0.2,7.3C121.1,94,114.9,94,111.1,92z"/>
				</g>
				<g>
					<polygon class="st1" points="127.1,94.9 112,86.9 115.3,85.1 130.5,93.2 					"/>
				</g>
				<g>
					<polygon class="st1" points="132.5,92.1 117.4,84.1 120.7,82.3 135.9,90.4 					"/>
				</g>
				<g>
					<polygon class="st1" points="110,99.4 111.5,90 106.8,89.8 105.7,97.2 					"/>
				</g>
			</g>
		</g>
		<g>
			<ellipse class="st1" cx="118.9" cy="85.4" rx="34.2" ry="16.4"/>
			<rect x="84.7" y="78.7" class="st1" width="68.4" height="8"/>
			<ellipse class="st2" cx="118.9" cy="79.3" rx="34.2" ry="16.4"/>
			<ellipse class="st3" cx="118.9" cy="79.3" rx="27.2" ry="12.6"/>
			<g>
				<g>
					<path class="st1" d="M111.1,80.4l-4.3-2.3l3.3-1.7l4.3,2.3c2,1.1,5.3,1.1,7.4,0c2.1-1.1,2.1-2.8,0.1-3.9l-4.5-2.4l3.3-1.7
						l4.5,2.4c3.8,2,3.7,5.3-0.2,7.3C121.1,82.5,114.9,82.5,111.1,80.4z"/>
				</g>
				<g>
					<polygon class="st1" points="127.1,83.3 112,75.3 115.3,73.5 130.5,81.6 					"/>
				</g>
				<g>
					<polygon class="st1" points="132.5,80.5 117.4,72.5 120.7,70.7 135.9,78.8 					"/>
				</g>
				<g>
					<polygon class="st1" points="110,87.8 111.5,78.4 106.8,78.2 105.7,85.6 					"/>
				</g>
			</g>
		</g>
		<g>
			<ellipse class="st1" cx="118.9" cy="73.8" rx="34.2" ry="16.4"/>
			<rect x="84.7" y="67.1" class="st1" width="68.4" height="8"/>
			<ellipse class="st2" cx="118.9" cy="67.7" rx="34.2" ry="16.4"/>
			<ellipse class="st3" cx="118.9" cy="67.7" rx="27.2" ry="12.6"/>
		</g>
	</g>
	<g>
		<ellipse class="st0" cx="34.2" cy="173.2" rx="34.2" ry="16.4"/>
		<g>
			<ellipse class="st1" cx="38.5" cy="168.7" rx="34.2" ry="16.4"/>
			<rect x="4.3" y="162" class="st1" width="68.4" height="8"/>
			<ellipse class="st2" cx="38.5" cy="162.6" rx="34.2" ry="16.4"/>
			<ellipse class="st3" cx="38.5" cy="162.6" rx="27.2" ry="12.6"/>
			<g>
				<g>
					<path class="st1" d="M30.7,163.7l-4.3-2.3l3.3-1.7L34,162c2,1.1,5.3,1.1,7.4,0c2.1-1.1,2.1-2.8,0.1-3.9l-4.5-2.4l3.3-1.7
						l4.5,2.4c3.8,2,3.7,5.3-0.2,7.3C40.8,165.7,34.5,165.7,30.7,163.7z"/>
				</g>
				<g>
					<polygon class="st1" points="46.8,166.6 31.6,158.6 35,156.8 50.1,164.9 					"/>
				</g>
				<g>
					<polygon class="st1" points="52.2,163.8 37,155.8 40.4,154 55.5,162.1 					"/>
				</g>
				<g>
					<polygon class="st1" points="29.6,171.1 31.1,161.6 26.5,161.5 25.3,168.8 					"/>
				</g>
			</g>
		</g>
		<g>
			<ellipse class="st1" cx="38.5" cy="157.1" rx="34.2" ry="16.4"/>
			<rect x="4.3" y="150.4" class="st1" width="68.4" height="8"/>
			<ellipse class="st2" cx="38.5" cy="151" rx="34.2" ry="16.4"/>
			<ellipse class="st3" cx="38.5" cy="151" rx="27.2" ry="12.6"/>
			<g>
				<g>
					<path class="st1" d="M30.7,152.1l-4.3-2.3l3.3-1.7l4.3,2.3c2,1.1,5.3,1.1,7.4,0c2.1-1.1,2.1-2.8,0.1-3.9l-4.5-2.4l3.3-1.7
						l4.5,2.4c3.8,2,3.7,5.3-0.2,7.3C40.8,154.1,34.5,154.1,30.7,152.1z"/>
				</g>
				<g>
					<polygon class="st1" points="46.8,155 31.6,147 35,145.2 50.1,153.3 					"/>
				</g>
				<g>
					<polygon class="st1" points="52.2,152.2 37,144.2 40.4,142.4 55.5,150.5 					"/>
				</g>
				<g>
					<polygon class="st1" points="29.6,159.5 31.1,150.1 26.5,149.9 25.3,157.2 					"/>
				</g>
			</g>
		</g>
		<g>
			<ellipse class="st1" cx="38.5" cy="145.5" rx="34.2" ry="16.4"/>
			<rect x="4.3" y="138.8" class="st1" width="68.4" height="8"/>
			<ellipse class="st2" cx="38.5" cy="139.4" rx="34.2" ry="16.4"/>
			<ellipse class="st3" cx="38.5" cy="139.4" rx="27.2" ry="12.6"/>
			<g>
				<g>
					<path class="st1" d="M30.7,140.5l-4.3-2.3l3.3-1.7l4.3,2.3c2,1.1,5.3,1.1,7.4,0s2.1-2.8,0.1-3.9l-4.5-2.4l3.3-1.7l4.5,2.4
						c3.8,2,3.7,5.3-0.2,7.3C40.8,142.5,34.5,142.5,30.7,140.5z"/>
				</g>
				<g>
					<polygon class="st1" points="46.8,143.4 31.6,135.4 35,133.6 50.1,141.7 					"/>
				</g>
				<g>
					<polygon class="st1" points="52.2,140.6 37,132.6 40.4,130.8 55.5,138.9 					"/>
				</g>
				<g>
					<polygon class="st1" points="29.6,147.9 31.1,138.5 26.5,138.3 25.3,145.7 					"/>
				</g>
			</g>
		</g>
		<g>
			<ellipse class="st1" cx="38.5" cy="133.9" rx="34.2" ry="16.4"/>
			<rect x="4.3" y="127.2" class="st1" width="68.4" height="8"/>
			<ellipse class="st2" cx="38.5" cy="127.8" rx="34.2" ry="16.4"/>
			<ellipse class="st3" cx="38.5" cy="127.8" rx="27.2" ry="12.6"/>
			<g>
				<g>
					<path class="st1" d="M30.7,128.9l-4.3-2.3l3.3-1.7l4.3,2.3c2,1.1,5.3,1.1,7.4,0c2.1-1.1,2.1-2.8,0.1-3.9L37,121l3.3-1.7
						l4.5,2.4c3.8,2,3.7,5.3-0.2,7.3C40.8,131,34.5,131,30.7,128.9z"/>
				</g>
				<g>
					<polygon class="st1" points="46.8,131.8 31.6,123.8 35,122 50.1,130.1 					"/>
				</g>
				<g>
					<polygon class="st1" points="52.2,129 37,121 40.4,119.2 55.5,127.3 					"/>
				</g>
				<g>
					<polygon class="st1" points="29.6,136.3 31.1,126.9 26.5,126.7 25.3,134.1 					"/>
				</g>
			</g>
		</g>
		<g>
			<ellipse class="st1" cx="38.5" cy="122.3" rx="34.2" ry="16.4"/>
			<rect x="4.3" y="115.6" class="st1" width="68.4" height="8"/>
			<ellipse class="st2" cx="38.5" cy="116.2" rx="34.2" ry="16.4"/>
			<ellipse class="st3" cx="38.5" cy="116.2" rx="27.2" ry="12.6"/>
			<g>
				<g>
					<path class="st1" d="M30.7,117.3l-4.3-2.3l3.3-1.7l4.3,2.3c2,1.1,5.3,1.1,7.4,0c2.1-1.1,2.1-2.8,0.1-3.9l-4.5-2.4l3.3-1.7
						l4.5,2.4c3.8,2,3.7,5.3-0.2,7.3C40.8,119.4,34.5,119.4,30.7,117.3z"/>
				</g>
				<g>
					<polygon class="st1" points="46.8,120.2 31.6,112.2 35,110.5 50.1,118.5 					"/>
				</g>
				<g>
					<polygon class="st1" points="52.2,117.4 37,109.4 40.4,107.7 55.5,115.7 					"/>
				</g>
				<g>
					<polygon class="st1" points="29.6,124.8 31.1,115.3 26.5,115.1 25.3,122.5 					"/>
				</g>
			</g>
		</g>
		<g>
			<ellipse class="st1" cx="38.5" cy="110.7" rx="34.2" ry="16.4"/>
			<rect x="4.3" y="104" class="st1" width="68.4" height="8"/>
			<ellipse class="st2" cx="38.5" cy="104.6" rx="34.2" ry="16.4"/>
			<ellipse class="st3" cx="38.5" cy="104.6" rx="27.2" ry="12.6"/>
			<g>
				<g>
					<path class="st1" d="M30.7,105.8l-4.3-2.3l3.3-1.7L34,104c2,1.1,5.3,1.1,7.4,0c2.1-1.1,2.1-2.8,0.1-3.9L37,97.8l3.3-1.7
						l4.5,2.4c3.8,2,3.7,5.3-0.2,7.3C40.8,107.8,34.5,107.8,30.7,105.8z"/>
				</g>
				<g>
					<polygon class="st1" points="46.8,108.6 31.6,100.6 35,98.9 50.1,106.9 					"/>
				</g>
				<g>
					<polygon class="st1" points="52.2,105.8 37,97.8 40.4,96.1 55.5,104.1 					"/>
				</g>
				<g>
					<polygon class="st1" points="29.6,113.2 31.1,103.7 26.5,103.5 25.3,110.9 					"/>
				</g>
			</g>
		</g>
		<g>
			<ellipse class="st1" cx="38.5" cy="99.1" rx="34.2" ry="16.4"/>
			<rect x="4.3" y="92.4" class="st1" width="68.4" height="8"/>
			<ellipse class="st2" cx="38.5" cy="93" rx="34.2" ry="16.4"/>
			<ellipse class="st3" cx="38.5" cy="93" rx="27.2" ry="12.6"/>
		</g>
	</g>
	<ellipse class="st0" cx="199.2" cy="172.4" rx="34.2" ry="16.4"/>
	<g>
		<ellipse class="st0" cx="199.2" cy="172.7" rx="34.2" ry="16.4"/>
		<g>
			<ellipse class="st1" cx="203.5" cy="168.1" rx="34.2" ry="16.4"/>
			<rect x="169.4" y="161.5" class="st1" width="68.4" height="8"/>
			<ellipse class="st2" cx="203.5" cy="162" rx="34.2" ry="16.4"/>
			<ellipse class="st3" cx="203.5" cy="162" rx="27.2" ry="12.6"/>
			<g>
				<g>
					<path class="st1" d="M195.7,163.2l-4.3-2.3l3.3-1.7l4.3,2.3c2,1.1,5.3,1.1,7.4,0c2.1-1.1,2.1-2.8,0.1-3.9l-4.5-2.4l3.3-1.7
						l4.5,2.4c3.8,2,3.7,5.3-0.2,7.3C205.8,165.2,199.5,165.2,195.7,163.2z"/>
				</g>
				<g>
					<polygon class="st1" points="211.8,166.1 196.7,158 200,156.3 215.1,164.3 					"/>
				</g>
				<g>
					<polygon class="st1" points="217.2,163.3 202,155.2 205.4,153.5 220.5,161.5 					"/>
				</g>
				<g>
					<polygon class="st1" points="194.6,170.6 196.1,161.1 191.5,160.9 190.3,168.3 					"/>
				</g>
			</g>
		</g>
		<g>
			<ellipse class="st1" cx="203.5" cy="156.5" rx="34.2" ry="16.4"/>
			<rect x="169.4" y="149.9" class="st1" width="68.4" height="8"/>
			<ellipse class="st2" cx="203.5" cy="150.4" rx="34.2" ry="16.4"/>
			<ellipse class="st3" cx="203.5" cy="150.4" rx="27.2" ry="12.6"/>
			<g>
				<g>
					<path class="st1" d="M195.7,151.6l-4.3-2.3l3.3-1.7l4.3,2.3c2,1.1,5.3,1.1,7.4,0c2.1-1.1,2.1-2.8,0.1-3.9l-4.5-2.4l3.3-1.7
						l4.5,2.4c3.8,2,3.7,5.3-0.2,7.3C205.8,153.6,199.5,153.6,195.7,151.6z"/>
				</g>
				<g>
					<polygon class="st1" points="211.8,154.5 196.7,146.4 200,144.7 215.1,152.7 					"/>
				</g>
				<g>
					<polygon class="st1" points="217.2,151.7 202,143.6 205.4,141.9 220.5,149.9 					"/>
				</g>
				<g>
					<polygon class="st1" points="194.6,159 196.1,149.5 191.5,149.3 190.3,156.7 					"/>
				</g>
			</g>
		</g>
		<g>
			<ellipse class="st1" cx="203.5" cy="144.9" rx="34.2" ry="16.4"/>
			<rect x="169.4" y="138.3" class="st1" width="68.4" height="8"/>
			<ellipse class="st2" cx="203.5" cy="138.9" rx="34.2" ry="16.4"/>
			<ellipse class="st3" cx="203.5" cy="138.9" rx="27.2" ry="12.6"/>
			<g>
				<g>
					<path class="st1" d="M195.7,140l-4.3-2.3l3.3-1.7l4.3,2.3c2,1.1,5.3,1.1,7.4,0c2.1-1.1,2.1-2.8,0.1-3.9L202,132l3.3-1.7
						l4.5,2.4c3.8,2,3.7,5.3-0.2,7.3C205.8,142,199.5,142,195.7,140z"/>
				</g>
				<g>
					<polygon class="st1" points="211.8,142.9 196.7,134.8 200,133.1 215.1,141.1 					"/>
				</g>
				<g>
					<polygon class="st1" points="217.2,140.1 202,132 205.4,130.3 220.5,138.3 					"/>
				</g>
				<g>
					<polygon class="st1" points="194.6,147.4 196.1,137.9 191.5,137.8 190.3,145.1 					"/>
				</g>
			</g>
		</g>
		<g>
			<ellipse class="st1" cx="203.5" cy="133.4" rx="34.2" ry="16.4"/>
			<rect x="169.4" y="126.7" class="st1" width="68.4" height="8"/>
			<ellipse class="st2" cx="203.5" cy="127.3" rx="34.2" ry="16.4"/>
			<ellipse class="st3" cx="203.5" cy="127.3" rx="27.2" ry="12.6"/>
			<g>
				<g>
					<path class="st1" d="M195.7,128.4l-4.3-2.3l3.3-1.7l4.3,2.3c2,1.1,5.3,1.1,7.4,0c2.1-1.1,2.1-2.8,0.1-3.9l-4.5-2.4l3.3-1.7
						l4.5,2.4c3.8,2,3.7,5.3-0.2,7.3C205.8,130.4,199.5,130.4,195.7,128.4z"/>
				</g>
				<g>
					<polygon class="st1" points="211.8,131.3 196.7,123.2 200,121.5 215.1,129.6 					"/>
				</g>
				<g>
					<polygon class="st1" points="217.2,128.5 202,120.4 205.4,118.7 220.5,126.8 					"/>
				</g>
				<g>
					<polygon class="st1" points="194.6,135.8 196.1,126.3 191.5,126.2 190.3,133.5 					"/>
				</g>
			</g>
		</g>
		<g>
			<ellipse class="st1" cx="203.5" cy="121.8" rx="34.2" ry="16.4"/>
			<rect x="169.4" y="115.1" class="st1" width="68.4" height="8"/>
			<ellipse class="st2" cx="203.5" cy="115.7" rx="34.2" ry="16.4"/>
			<ellipse class="st3" cx="203.5" cy="115.7" rx="27.2" ry="12.6"/>
			<g>
				<g>
					<path class="st1" d="M195.7,116.8l-4.3-2.3l3.3-1.7l4.3,2.3c2,1.1,5.3,1.1,7.4,0c2.1-1.1,2.1-2.8,0.1-3.9l-4.5-2.4l3.3-1.7
						l4.5,2.4c3.8,2,3.7,5.3-0.2,7.3C205.8,118.8,199.5,118.8,195.7,116.8z"/>
				</g>
				<g>
					<polygon class="st1" points="211.8,119.7 196.7,111.6 200,109.9 215.1,118 					"/>
				</g>
				<g>
					<polygon class="st1" points="217.2,116.9 202,108.9 205.4,107.1 220.5,115.2 					"/>
				</g>
				<g>
					<polygon class="st1" points="194.6,124.2 196.1,114.7 191.5,114.6 190.3,121.9 					"/>
				</g>
			</g>
		</g>
		<g>
			<ellipse class="st1" cx="203.5" cy="110.2" rx="34.2" ry="16.4"/>
			<rect x="169.4" y="103.5" class="st1" width="68.4" height="8"/>
			<ellipse class="st2" cx="203.5" cy="104.1" rx="34.2" ry="16.4"/>
			<ellipse class="st3" cx="203.5" cy="104.1" rx="27.2" ry="12.6"/>
			<g>
				<g>
					<path class="st1" d="M195.7,105.2l-4.3-2.3l3.3-1.7l4.3,2.3c2,1.1,5.3,1.1,7.4,0c2.1-1.1,2.1-2.8,0.1-3.9l-4.5-2.4l3.3-1.7
						l4.5,2.4c3.8,2,3.7,5.3-0.2,7.3C205.8,107.2,199.5,107.2,195.7,105.2z"/>
				</g>
				<g>
					<polygon class="st1" points="211.8,108.1 196.7,100.1 200,98.3 215.1,106.4 					"/>
				</g>
				<g>
					<polygon class="st1" points="217.2,105.3 202,97.3 205.4,95.5 220.5,103.6 					"/>
				</g>
				<g>
					<polygon class="st1" points="194.6,112.6 196.1,103.1 191.5,103 190.3,110.3 					"/>
				</g>
			</g>
		</g>
		<g>
			<ellipse class="st1" cx="203.5" cy="98.6" rx="34.2" ry="16.4"/>
			<rect x="169.4" y="91.9" class="st1" width="68.4" height="8"/>
			<ellipse class="st2" cx="203.5" cy="92.5" rx="34.2" ry="16.4"/>
			<ellipse class="st3" cx="203.5" cy="92.5" rx="27.2" ry="12.6"/>
		</g>
	</g>
	<g>
		<ellipse class="st0" cx="108.1" cy="202.3" rx="34.2" ry="16.4"/>
		<g>
			<ellipse class="st1" cx="112.4" cy="197.8" rx="34.2" ry="16.4"/>
			<rect x="78.3" y="191.1" class="st1" width="68.4" height="8"/>
			<ellipse class="st2" cx="112.4" cy="191.7" rx="34.2" ry="16.4"/>
			<ellipse class="st3" cx="112.4" cy="191.7" rx="27.2" ry="12.6"/>
			<g>
				<g>
					<path class="st1" d="M104.6,192.9l-4.3-2.3l3.3-1.7l4.3,2.3c2,1.1,5.3,1.1,7.4,0c2.1-1.1,2.1-2.8,0.1-3.9l-4.5-2.4l3.3-1.7
						l4.5,2.4c3.8,2,3.7,5.3-0.2,7.3C114.7,194.9,108.4,194.9,104.6,192.9z"/>
				</g>
				<g>
					<polygon class="st1" points="120.7,195.7 105.6,187.7 108.9,186 124,194 					"/>
				</g>
				<g>
					<polygon class="st1" points="126.1,192.9 110.9,184.9 114.3,183.2 129.4,191.2 					"/>
				</g>
				<g>
					<polygon class="st1" points="103.5,200.3 105,190.8 100.4,190.6 99.2,198 					"/>
				</g>
			</g>
		</g>
		<g>
			<ellipse class="st1" cx="112.4" cy="184.5" rx="34.2" ry="16.4"/>
			<rect x="78.3" y="177.8" class="st1" width="68.4" height="8"/>
			<ellipse class="st2" cx="112.4" cy="178.4" rx="34.2" ry="16.4"/>
			<ellipse class="st3" cx="112.4" cy="178.4" rx="27.2" ry="12.6"/>
			<g>
				<g>
					<path class="st1" d="M104.6,179.5l-4.3-2.3l3.3-1.7l4.3,2.3c2,1.1,5.3,1.1,7.4,0c2.1-1.1,2.1-2.8,0.1-3.9l-4.5-2.4l3.3-1.7
						l4.5,2.4c3.8,2,3.7,5.3-0.2,7.3C114.7,181.5,108.4,181.5,104.6,179.5z"/>
				</g>
				<g>
					<polygon class="st1" points="120.7,182.4 105.6,174.4 108.9,172.6 124,180.7 					"/>
				</g>
				<g>
					<polygon class="st1" points="126.1,179.6 110.9,171.6 114.3,169.8 129.4,177.9 					"/>
				</g>
				<g>
					<polygon class="st1" points="103.5,186.9 105,177.5 100.4,177.3 99.2,184.7 					"/>
				</g>
			</g>
		</g>
		<g>
			<ellipse class="st1" cx="112.4" cy="171.2" rx="34.2" ry="16.4"/>
			<rect x="78.3" y="164.5" class="st1" width="68.4" height="8"/>
			<ellipse class="st2" cx="112.4" cy="165.1" rx="34.2" ry="16.4"/>
			<ellipse class="st3" cx="112.4" cy="165.1" rx="27.2" ry="12.6"/>
		</g>
	</g>
</g>
<g id="DESIGNED_BY_FREEPIK">
	<path class="st1" d="M169.7,60.8l-3.8,4c0,0,1.7,1.2,6.3,1.9l2.1-3.6l1.4-2.4l1.5-2.6c0,0,0.5-0.9,0.5-0.9l0.1-0.1c0,0,0,0,0,0l0,0
		l0,0c0,0,0,0,0,0l0,0l0,0l0.1,0.1l0.2,0.2l0.3,0.5l1.2,1.8l1,1.6l1.6,2.4l1.2,1.7l0.6,0.9c0,0,3.6-0.7,6.6-2.6l-2.3-1.7l-1.5-1.3
		l-1.5-1.5l-1.3-1.3l-1-1.2l-0.9-1.2l-0.8-1.2l-0.9-1.4l-0.9-1.4l-0.8-1.4l-0.9-1.6l-0.5-0.8l-0.8,1.6l-1.1,2.2l-0.9,1.7l-1,1.9
		l-0.9,1.5l-1,1.5l-1.1,1.4L169.7,60.8z"/>
	<path class="st5" d="M169.7,60.8l-3.8,4c0,0,1.7,1.2,6.3,1.9l2.1-3.6l1.4-2.4l1.5-2.6c0,0,0.5-0.9,0.5-0.9l0.1-0.1c0,0,0,0,0,0l0,0
		l0,0c0,0,0,0,0,0l0,0l0,0l0.1,0.1l0.2,0.2l0.3,0.5l1.2,1.8l1,1.6l1.6,2.4l1.2,1.7l0.6,0.9c0,0,3.6-0.7,6.6-2.6l-2.3-1.7l-1.5-1.3
		l-1.5-1.5l-1.3-1.3l-1-1.2l-0.9-1.2l-0.8-1.2l-0.9-1.4l-0.9-1.4l-0.8-1.4l-0.9-1.6l-0.5-0.8l-0.8,1.6l-1.1,2.2l-0.9,1.7l-1,1.9
		l-0.9,1.5l-1,1.5l-1.1,1.4L169.7,60.8z"/>
	<path class="st1" d="M110,70.9l-3.8,4c0,0,1.7,1.2,6.3,1.9l2.1-3.6l1.4-2.4l1.5-2.6c0,0,0.5-0.9,0.5-0.9l0.1-0.1c0,0,0,0,0,0l0,0
		l0,0c0,0,0,0,0,0l0,0l0,0l0.1,0.1l0.2,0.2l0.3,0.5l1.2,1.8l1,1.6l1.6,2.4l1.2,1.7l0.6,0.9c0,0,3.6-0.7,6.6-2.6l-2.3-1.7l-1.5-1.3
		l-1.5-1.5l-1.3-1.3l-1-1.2l-0.9-1.2l-0.8-1.2l-0.9-1.4l-0.9-1.4l-0.8-1.4l-0.9-1.6l-0.5-0.8l-0.8,1.6l-1.1,2.2l-0.9,1.7l-1,1.9
		l-0.9,1.5l-1,1.5l-1.1,1.4L110,70.9z"/>
	<path class="st1" d="M61.9,50.9l-3.8,4c0,0,1.7,1.2,6.3,1.9l2.1-3.6l1.4-2.4l1.5-2.6c0,0,0.5-0.9,0.5-0.9l0.1-0.1c0,0,0,0,0,0l0,0
		l0,0c0,0,0,0,0,0l0,0l0,0l0.1,0.1l0.2,0.2l0.3,0.5l1.2,1.8l1,1.6l1.6,2.4l1.2,1.7l0.6,0.9c0,0,3.6-0.7,6.6-2.6L80.7,52l-1.5-1.3
		l-1.5-1.5l-1.3-1.3l-1-1.2l-0.9-1.2l-0.8-1.2l-0.9-1.4l-0.9-1.4l-0.8-1.4l-0.9-1.6l-0.5-0.8L69,39.1L68,41.3L67.1,43l-1,1.9
		l-0.9,1.5l-1,1.5l-1.1,1.4L61.9,50.9z"/>
	<path class="st5" d="M61.9,50.9l-3.8,4c0,0,1.7,1.2,6.3,1.9l2.1-3.6l1.4-2.4l1.5-2.6c0,0,0.5-0.9,0.5-0.9l0.1-0.1c0,0,0,0,0,0l0,0
		l0,0c0,0,0,0,0,0l0,0l0,0l0.1,0.1l0.2,0.2l0.3,0.5l1.2,1.8l1,1.6l1.6,2.4l1.2,1.7l0.6,0.9c0,0,3.6-0.7,6.6-2.6L80.7,52l-1.5-1.3
		l-1.5-1.5l-1.3-1.3l-1-1.2l-0.9-1.2l-0.8-1.2l-0.9-1.4l-0.9-1.4l-0.8-1.4l-0.9-1.6l-0.5-0.8L69,39.1L68,41.3L67.1,43l-1,1.9
		l-0.9,1.5l-1,1.5l-1.1,1.4L61.9,50.9z"/>
	<path class="st1" d="M29.7,96.2l-3.8,4c0,0,1.7,1.2,6.3,1.9l2.1-3.6l1.4-2.4l1.5-2.6c0,0,0.5-0.9,0.5-0.9l0.1-0.1c0,0,0,0,0,0l0,0
		l0,0c0,0,0,0,0,0l0,0l0,0l0.1,0.1l0.2,0.2l0.3,0.5l1.2,1.8l1,1.6l1.6,2.4l1.2,1.7l0.6,0.9c0,0,3.6-0.7,6.6-2.6l-2.3-1.7L47,95.9
		l-1.5-1.5l-1.3-1.3l-1-1.2l-0.9-1.2l-0.8-1.2L40.6,88l-0.9-1.4l-0.8-1.4l-0.9-1.6l-0.5-0.8l-0.8,1.6l-1.1,2.2l-0.9,1.7l-1,1.9
		L33,91.7l-1,1.5l-1.1,1.4L29.7,96.2z"/>
	<path class="st1" d="M194.7,95.7l-3.8,4c0,0,1.7,1.2,6.3,1.9l2.1-3.6l1.4-2.4l1.5-2.6c0,0,0.5-0.9,0.5-0.9l0.1-0.1c0,0,0,0,0,0l0,0
		l0,0c0,0,0,0,0,0l0,0l0,0l0.1,0.1l0.2,0.2l0.3,0.5l1.2,1.8l1,1.6l1.6,2.4l1.2,1.7l0.6,0.9c0,0,3.6-0.7,6.6-2.6l-2.3-1.7l-1.5-1.3
		l-1.5-1.5l-1.3-1.3l-1-1.2l-0.9-1.2l-0.8-1.2l-0.9-1.4l-0.9-1.4l-0.8-1.4l-0.9-1.6l-0.5-0.8l-0.8,1.6l-1.1,2.2l-0.9,1.7l-1,1.9
		l-0.9,1.5l-1,1.5l-1.1,1.4L194.7,95.7z"/>
	<path class="st1" d="M107.9,159l-7.4-2c0,0-2.3,1.2-3.9,4.3l6.7,1l4.5,0.6l5,0.6c0,0,1.6,0.2,1.6,0.2l0.2,0c0,0,0.1,0,0.1,0l0,0
		l0,0c0,0,0,0,0,0l0,0l0,0l-0.1,0.1l-0.5,0.1l-0.9,0.3l-3.5,1l-3,0.8l-4.7,1.3l-3.3,1l-1.8,0.5c0,0,1.2,2.3,4.7,4l3.4-1.7l2.6-1.1
		l3-1.2l2.6-1l2.4-0.8l2.4-0.7l2.3-0.7l2.6-0.7l2.8-0.7l2.8-0.7l3.1-0.7l1.5-0.4l-3-0.3l-4.2-0.4l-3.2-0.4l-3.5-0.5l-2.9-0.4
		l-2.8-0.5l-2.7-0.5L107.9,159z"/>
	<path class="st6" d="M1.9,37.4c-0.1-0.9,0.6-1.1,1.2-1.3c2.1-0.7,4.3-1.2,6.2-2.4c1.7-1.1,3.1-2.5,3.8-4.5c0.6-1.7,1.2-3.4,1.8-5.1
		c0.2-0.7,0.6-1.1,1.2-1.1c0.7,0,1.1,0.5,1.3,1.2c0.7,2.2,1.4,4.3,2.5,6.3c1.3,2.3,3.3,3.5,5.6,4.5c1.2,0.5,2.6,0.8,3.9,1.2
		c0.6,0.2,1.1,0.4,1.1,1.2c0,0.8-0.4,1.1-1,1.3c-1.3,0.5-2.7,0.9-4,1.3c-4,1.3-6.1,4.3-7.3,8.1c-0.3,0.8-0.5,1.7-0.7,2.5
		c-0.2,0.8-0.4,1.3-1.3,1.3c-0.9,0-1.1-0.7-1.3-1.4c-0.5-1.7-1-3.4-1.8-5.1c-1-2.3-2.6-3.9-4.8-4.9c-1.5-0.7-3.1-1.2-4.7-1.6
		C2.8,38.8,1.8,38.6,1.9,37.4z M16.2,28.9c-1.6,4-4.2,6.9-8.1,8.3c-0.2,0.1-0.3,0.2-0.3,0.4c0.1,0.3,0.3,0.3,0.6,0.4
		c3.6,1.2,5.8,3.8,7.3,7.2c0.1,0.3,0.1,0.7,0.5,0.7c0.5,0,0.4-0.5,0.6-0.8c1-2.1,2.1-4,4-5.4c1.2-0.9,2.7-1.4,4-2.3
		C20.6,35.8,17.6,33.2,16.2,28.9z"/>
	<path class="st6" d="M128.5,25.1c0-0.5,0.4-0.6,0.7-0.8c1.3-0.4,2.5-0.7,3.7-1.4c1-0.7,1.9-1.5,2.3-2.7c0.4-1,0.7-2,1-3
		c0.1-0.4,0.3-0.7,0.7-0.7c0.4,0,0.6,0.3,0.8,0.7c0.4,1.3,0.8,2.6,1.5,3.8c0.8,1.4,2,2.1,3.3,2.7c0.7,0.3,1.5,0.5,2.3,0.7
		c0.4,0.1,0.7,0.3,0.7,0.7c0,0.5-0.2,0.7-0.6,0.8c-0.8,0.3-1.6,0.5-2.4,0.8c-2.4,0.8-3.6,2.6-4.3,4.8c-0.2,0.5-0.3,1-0.4,1.5
		c-0.1,0.4-0.3,0.8-0.8,0.8c-0.5,0-0.7-0.4-0.8-0.8c-0.3-1-0.6-2-1-3c-0.6-1.4-1.6-2.3-2.9-2.9c-0.9-0.4-1.8-0.7-2.8-1
		C129,25.9,128.4,25.8,128.5,25.1z M137,20c-0.9,2.4-2.5,4.1-4.8,5c-0.1,0-0.2,0.1-0.2,0.2c0,0.2,0.2,0.2,0.4,0.3
		c2.1,0.7,3.5,2.3,4.3,4.3c0.1,0.2,0,0.4,0.3,0.4c0.3,0,0.3-0.3,0.3-0.5c0.6-1.2,1.3-2.4,2.4-3.2c0.7-0.5,1.6-0.8,2.4-1.4
		C139.6,24.1,137.8,22.6,137,20z"/>
	<path class="st6" d="M103.8,14.1c-0.1-0.9,0.6-1,1.2-1.2c2.1-0.6,4.2-1.2,6-2.3c1.7-1.1,3-2.5,3.7-4.4c0.6-1.6,1.2-3.3,1.7-5
		c0.2-0.7,0.6-1.1,1.2-1.1c0.7,0,1,0.5,1.3,1.2c0.6,2.1,1.3,4.2,2.4,6.2c1.2,2.3,3.2,3.5,5.5,4.4c1.2,0.5,2.5,0.8,3.8,1.1
		c0.6,0.2,1.1,0.4,1.1,1.2c0,0.8-0.4,1.1-1,1.3c-1.3,0.5-2.6,0.8-3.9,1.3c-3.9,1.3-6,4.2-7.1,7.9c-0.3,0.8-0.5,1.6-0.7,2.5
		c-0.2,0.7-0.4,1.3-1.3,1.3c-0.9,0-1.1-0.7-1.3-1.4c-0.5-1.7-1-3.3-1.7-5c-1-2.2-2.6-3.8-4.7-4.8c-1.5-0.7-3-1.2-4.6-1.6
		C104.6,15.4,103.7,15.2,103.8,14.1z M117.7,5.7c-1.5,3.9-4,6.7-7.9,8.1c-0.2,0.1-0.3,0.2-0.3,0.4c0.1,0.3,0.3,0.3,0.6,0.4
		c3.5,1.2,5.7,3.7,7.1,7c0.1,0.3,0.1,0.7,0.5,0.7c0.5,0,0.4-0.5,0.6-0.7c0.9-2,2.1-3.9,3.9-5.3c1.2-0.9,2.6-1.3,3.9-2.2
		C122,12.5,119.1,10,117.7,5.7z"/>
	<path class="st6" d="M223.8,44.2c-0.1-0.9,0.6-1,1.2-1.2c2.1-0.6,4.2-1.2,6-2.3c1.7-1.1,3-2.5,3.7-4.4c0.6-1.6,1.2-3.3,1.7-5
		c0.2-0.7,0.6-1.1,1.2-1.1c0.7,0,1,0.5,1.3,1.2c0.6,2.1,1.3,4.2,2.4,6.2c1.2,2.3,3.2,3.5,5.5,4.4c1.2,0.5,2.5,0.8,3.8,1.1
		c0.6,0.2,1.1,0.4,1.1,1.2c0,0.8-0.4,1.1-1,1.3c-1.3,0.5-2.6,0.8-3.9,1.3c-3.9,1.3-6,4.2-7.1,7.9c-0.3,0.8-0.5,1.6-0.7,2.5
		c-0.2,0.7-0.4,1.3-1.3,1.3c-0.9,0-1.1-0.7-1.3-1.4c-0.5-1.7-1-3.3-1.7-5c-1-2.2-2.6-3.8-4.7-4.8c-1.5-0.7-3-1.2-4.6-1.6
		C224.7,45.6,223.7,45.4,223.8,44.2z M237.7,35.9c-1.5,3.9-4,6.7-7.9,8.1c-0.2,0.1-0.3,0.2-0.3,0.4c0.1,0.3,0.3,0.3,0.6,0.4
		c3.5,1.2,5.7,3.7,7.1,7c0.1,0.3,0.1,0.7,0.5,0.7c0.5,0,0.4-0.5,0.6-0.7c0.9-2,2.1-3.9,3.9-5.3c1.2-0.9,2.6-1.3,3.9-2.2
		C242.1,42.6,239.1,40.1,237.7,35.9z"/>
	<path class="st6" d="M107.2,14.5c0,0,0.9,0.1,3.6,2c2.7,1.9,3.4,2.5,3.9,3.5c0.5,1,0.9,2,1.3,3.1c0.4,1,1.3,2.8,1.3,2.8
		s1.9-4.6,2.7-5.6c0.8-0.9,0.4-1.1,2.4-2.6s3.6-2.3,4.2-2.7s1.8-0.5,1.5-1c-0.2-0.5-2.1-1.4-4.1-2.4c-2-1-5-4.8-5.3-5.5
		c-0.3-0.7-1.1-2.2-1.1-2.2s-1.1,0.5-1.8,1.9c-0.7,1.3-1.9,3.5-2.7,4.2c-0.8,0.8-2.7,1.8-3.8,2.5C108.4,13.2,107.2,14.5,107.2,14.5z
		"/>
	<path class="st6" d="M130.6,25.4c0,0,0.5,0.1,2.3,1.2s2.2,1.6,2.5,2.2c0.3,0.7,0.5,1.3,0.8,2c0.3,0.7,0.8,1.8,0.8,1.8
		s1.2-3,1.7-3.6c0.5-0.6,0.2-0.7,1.5-1.7s2.3-1.4,2.7-1.7c0.4-0.2,1.1-0.3,1-0.6c-0.2-0.3-1.3-0.9-2.6-1.5c-1.3-0.6-3.2-3.1-3.4-3.5
		c-0.2-0.5-0.7-1.4-0.7-1.4s-0.7,0.3-1.1,1.2c-0.4,0.9-1.2,2.2-1.7,2.7c-0.5,0.5-1.7,1.2-2.4,1.6C131.3,24.5,130.6,25.4,130.6,25.4z
		"/>
	<path class="st6" d="M6.8,37.9c0,0,0.8,0.1,3.2,1.8s3.1,2.2,3.5,3.1c0.5,0.9,0.8,1.8,1.1,2.8c0.4,0.9,1.2,2.6,1.2,2.6
		s1.7-4.2,2.5-5s0.3-1,2.2-2.3s3.2-2,3.7-2.4c0.6-0.3,1.6-0.5,1.4-0.9c-0.2-0.4-1.9-1.3-3.7-2.2s-4.5-4.3-4.8-5c-0.3-0.6-1-2-1-2
		s-1,0.5-1.6,1.7s-1.7,3.1-2.4,3.8c-0.7,0.7-2.4,1.7-3.4,2.3S6.8,37.9,6.8,37.9z"/>
	<path class="st6" d="M228.3,45.2c0,0,0.8,0.1,3.3,1.8s3.2,2.3,3.6,3.2c0.5,1,0.8,1.9,1.2,2.8c0.4,1,1.2,2.6,1.2,2.6
		s1.8-4.3,2.5-5.2c0.7-0.9,0.4-1.1,2.2-2.4c1.9-1.4,3.3-2.1,3.9-2.5c0.6-0.4,1.6-0.5,1.4-0.9s-1.9-1.3-3.8-2.2s-4.6-4.5-4.9-5.1
		c-0.3-0.7-1-2.1-1-2.1s-1,0.5-1.6,1.7c-0.6,1.2-1.8,3.2-2.5,3.9c-0.7,0.7-2.5,1.7-3.5,2.3C229.3,43.9,228.3,45.2,228.3,45.2z"/>
	<text transform="matrix(1.0116 -0.2105 0.2037 0.979 147.0097 233.0017)" class="st6 st7 st8">X2</text>
</g>
</svg>
