<?xml version="1.0" encoding="utf-8"?>
<!-- Generator: Adobe Illustrator 23.1.0, SVG Export Plug-In . SVG Version: 6.00 Build 0)  -->
<!DOCTYPE svg PUBLIC "-//W3C//DTD SVG 1.1//EN" "http://www.w3.org/Graphics/SVG/1.1/DTD/svg11.dtd" [
	<!ENTITY ns_extend "http://ns.adobe.com/Extensibility/1.0/">
	<!ENTITY ns_ai "http://ns.adobe.com/AdobeIllustrator/10.0/">
	<!ENTITY ns_graphs "http://ns.adobe.com/Graphs/1.0/">
	<!ENTITY ns_vars "http://ns.adobe.com/Variables/1.0/">
	<!ENTITY ns_imrep "http://ns.adobe.com/ImageReplacement/1.0/">
	<!ENTITY ns_sfw "http://ns.adobe.com/SaveForWeb/1.0/">
	<!ENTITY ns_custom "http://ns.adobe.com/GenericCustomNamespace/1.0/">
	<!ENTITY ns_adobe_xpath "http://ns.adobe.com/XPath/1.0/">
]>
<svg version="1.1" id="Layer_1" xmlns:x="&ns_extend;" xmlns:i="&ns_ai;" xmlns:graph="&ns_graphs;"
	 xmlns="http://www.w3.org/2000/svg" xmlns:xlink="http://www.w3.org/1999/xlink" x="0px" y="0px" viewBox="0 0 1017.9 268"
	 style="enable-background:new 0 0 1017.9 268;" xml:space="preserve">
<style type="text/css">
	.st0{fill:#4EB6EB;}
	.st1{fill:url(#SVGID_1_);}
	.st2{fill:#C8DAEA;}
	.st3{fill:#A9C9DD;}
	.st4{fill:url(#SVGID_2_);}
	.st5{fill:#FFFFFF;}
</style>
<metadata>
	<sfw  xmlns="&ns_sfw;">
		<slices></slices>
		<sliceSourceBounds  bottomLeftOrigin="true" height="268" width="1017.9" x="-71.5" y="-14"></sliceSourceBounds>
	</sfw>
</metadata>
<path class="st0" d="M975.1,268H42.8C19.3,268,0,248.8,0,225.2L0,42.8C0,19.3,19.3,0,42.8,0l932.2,0c23.6,0,42.8,19.3,42.8,42.8
	v182.4C1017.9,248.8,998.6,268,975.1,268z"/>
<g>
	
		<linearGradient id="SVGID_1_" gradientUnits="userSpaceOnUse" x1="33.1784" y1="294.698" x2="32.9284" y2="294.115" gradientTransform="matrix(240 0 0 -240 -7758.1704 70779.5078)">
		<stop  offset="0" style="stop-color:#37AEE2"/>
		<stop  offset="1" style="stop-color:#1E96C8"/>
	</linearGradient>
	<circle class="st1" cx="169.5" cy="134" r="120"/>
	<path class="st2" d="M147.5,189c-3.9,0-3.2-1.5-4.6-5.2l-11.4-37.6l88-52.2"/>
	<path class="st3" d="M147.5,189c3,0,4.3-1.4,6-3l16-15.6l-20-12"/>
	
		<linearGradient id="SVGID_2_" gradientUnits="userSpaceOnUse" x1="33.2006" y1="294.1989" x2="33.3916" y2="293.8339" gradientTransform="matrix(130.4927 0 0 -109.4498 -4154.5396 32336.9492)">
		<stop  offset="0" style="stop-color:#EFF7FC"/>
		<stop  offset="1" style="stop-color:#FFFFFF"/>
	</linearGradient>
	<path class="st4" d="M149.5,158.4l48.4,35.7c5.5,3,9.5,1.5,10.9-5.1l19.7-92.8c2-8.1-3.1-11.7-8.4-9.3l-115.6,44.6
		c-7.9,3.2-7.8,7.6-1.4,9.5l29.7,9.3l68.7-43.3c3.2-2,6.2-0.9,3.8,1.3"/>
</g>
<g>
	<path class="st5" d="M397.3,147.8c0,4.1-0.5,7.9-1.5,11.2c-1,3.3-2.6,6.2-4.6,8.6c-2.1,2.4-4.6,4.2-7.7,5.5s-6.7,1.9-10.8,1.9
		c-1.9,0-3.7-0.1-5.5-0.3c-1.8-0.2-3.7-0.6-5.7-1c0.1-1.5,0.3-3,0.4-4.5c0.1-1.5,0.3-3,0.4-4.5c0.1-0.8,0.4-1.5,1-2
		c0.5-0.5,1.3-0.7,2.3-0.7c0.6,0,1.3,0.1,2.2,0.3c0.9,0.2,2,0.3,3.3,0.3c1.8,0,3.4-0.3,4.8-0.8c1.4-0.5,2.5-1.3,3.4-2.5
		c0.9-1.2,1.6-2.7,2.1-4.5c0.5-1.8,0.7-4.1,0.7-6.7v-47.7h15.3V147.8z"/>
	<path class="st5" d="M483.4,137.4c0,5.4-0.9,10.4-2.7,15c-1.8,4.6-4.4,8.6-7.7,12c-3.3,3.4-7.3,6-11.9,7.9
		c-4.6,1.9-9.8,2.9-15.5,2.9c-5.7,0-10.8-1-15.5-2.9c-4.6-1.9-8.6-4.6-12-7.9c-3.3-3.4-5.9-7.3-7.7-12c-1.8-4.6-2.7-9.6-2.7-15
		s0.9-10.4,2.7-15c1.8-4.6,4.4-8.6,7.7-11.9c3.3-3.4,7.3-6,12-7.9c4.6-1.9,9.8-2.9,15.5-2.9c5.7,0,10.8,1,15.5,2.9
		c4.6,1.9,8.6,4.6,11.9,7.9c3.3,3.4,5.9,7.4,7.7,12C482.5,127,483.4,132,483.4,137.4z M467.8,137.4c0-3.9-0.5-7.3-1.5-10.4
		c-1-3.1-2.5-5.7-4.4-7.8c-1.9-2.2-4.2-3.8-7-4.9c-2.7-1.1-5.8-1.7-9.3-1.7s-6.6,0.6-9.3,1.7c-2.7,1.1-5.1,2.8-7,4.9
		c-1.9,2.2-3.4,4.8-4.4,7.8c-1,3.1-1.5,6.5-1.5,10.4c0,3.9,0.5,7.4,1.5,10.5c1,3.1,2.5,5.7,4.4,7.8c1.9,2.1,4.2,3.8,7,4.9
		c2.7,1.1,5.8,1.7,9.3,1.7s6.6-0.6,9.3-1.7c2.7-1.1,5.1-2.8,7-4.9s3.4-4.7,4.4-7.8C467.3,144.8,467.8,141.3,467.8,137.4z"/>
	<path class="st5" d="M509.9,174.3h-15.4v-73.8h15.4V174.3z"/>
	<path class="st5" d="M588.6,100.5v73.8h-7.9c-1.2,0-2.2-0.2-3-0.6c-0.8-0.4-1.6-1.1-2.4-2l-36.8-46.8c0.1,1.2,0.2,2.4,0.2,3.5
		c0.1,1.2,0.1,2.2,0.1,3.2v42.7h-13.5v-73.8h8c0.6,0,1.2,0,1.7,0.1c0.5,0.1,0.9,0.2,1.2,0.4c0.4,0.2,0.7,0.4,1.1,0.7
		c0.3,0.3,0.7,0.7,1.1,1.2l37,47c-0.1-1.3-0.2-2.5-0.3-3.7c-0.1-1.2-0.1-2.3-0.1-3.4v-42.2H588.6z"/>
	<path class="st5" d="M691.4,100.5v73.8h-7.9c-1.2,0-2.2-0.2-3-0.6c-0.8-0.4-1.6-1.1-2.4-2l-36.8-46.8c0.1,1.2,0.2,2.4,0.2,3.5
		c0.1,1.2,0.1,2.2,0.1,3.2v42.7h-13.5v-73.8h8c0.6,0,1.2,0,1.7,0.1c0.5,0.1,0.9,0.2,1.2,0.4c0.4,0.2,0.7,0.4,1.1,0.7
		c0.3,0.3,0.7,0.7,1.1,1.2l37,47c-0.1-1.3-0.2-2.5-0.3-3.7c-0.1-1.2-0.1-2.3-0.1-3.4v-42.2H691.4z"/>
	<path class="st5" d="M778.2,137.4c0,5.4-0.9,10.4-2.7,15c-1.8,4.6-4.4,8.6-7.7,12c-3.3,3.4-7.3,6-11.9,7.9
		c-4.6,1.9-9.8,2.9-15.5,2.9c-5.7,0-10.8-1-15.5-2.9c-4.6-1.9-8.6-4.6-12-7.9c-3.3-3.4-5.9-7.3-7.7-12c-1.8-4.6-2.7-9.6-2.7-15
		s0.9-10.4,2.7-15c1.8-4.6,4.4-8.6,7.7-11.9c3.3-3.4,7.3-6,12-7.9c4.6-1.9,9.8-2.9,15.5-2.9c5.7,0,10.8,1,15.5,2.9
		c4.6,1.9,8.6,4.6,11.9,7.9c3.3,3.4,5.9,7.4,7.7,12C777.3,127,778.2,132,778.2,137.4z M762.6,137.4c0-3.9-0.5-7.3-1.5-10.4
		c-1-3.1-2.5-5.7-4.4-7.8c-1.9-2.2-4.2-3.8-7-4.9c-2.7-1.1-5.8-1.7-9.3-1.7s-6.6,0.6-9.3,1.7c-2.7,1.1-5.1,2.8-7,4.9
		c-1.9,2.2-3.4,4.8-4.4,7.8c-1,3.1-1.5,6.5-1.5,10.4c0,3.9,0.5,7.4,1.5,10.5c1,3.1,2.5,5.7,4.4,7.8c1.9,2.1,4.2,3.8,7,4.9
		c2.7,1.1,5.8,1.7,9.3,1.7s6.6-0.6,9.3-1.7c2.7-1.1,5.1-2.8,7-4.9s3.4-4.7,4.4-7.8C762.1,144.8,762.6,141.3,762.6,137.4z"/>
	<path class="st5" d="M887,100.5l-22.9,73.8h-13.8L835.2,126c-0.2-0.7-0.5-1.4-0.7-2.2c-0.2-0.8-0.5-1.7-0.7-2.6
		c-0.2,0.9-0.4,1.8-0.7,2.6c-0.2,0.8-0.5,1.6-0.7,2.2l-15.3,48.3h-13.8l-22.8-73.8h12.8c1.3,0,2.4,0.3,3.3,0.9
		c0.9,0.6,1.5,1.4,1.8,2.4l11.4,41.6c0.3,1.2,0.6,2.4,0.8,3.7c0.3,1.3,0.6,2.8,0.8,4.2c0.3-1.5,0.6-3,1-4.3c0.3-1.3,0.7-2.6,1.1-3.7
		l13.3-41.6c0.3-0.8,0.9-1.6,1.8-2.3c0.9-0.7,2-1,3.3-1h4.5c1.3,0,2.4,0.3,3.2,0.9c0.8,0.6,1.4,1.4,1.9,2.4l13.3,41.6
		c0.4,1.1,0.8,2.3,1.1,3.5s0.7,2.6,1,4c0.3-1.4,0.5-2.8,0.8-4c0.3-1.3,0.5-2.4,0.8-3.5l11.4-41.6c0.2-0.9,0.8-1.7,1.7-2.3
		c0.9-0.7,2-1,3.3-1H887z"/>
</g>
</svg>
