<?xml version="1.0" encoding="utf-8"?>
<!-- Generator: Adobe Illustrator 23.1.0, SVG Export Plug-In . SVG Version: 6.00 Build 0)  -->
<!DOCTYPE svg PUBLIC "-//W3C//DTD SVG 1.1//EN" "http://www.w3.org/Graphics/SVG/1.1/DTD/svg11.dtd" [
	<!ENTITY ns_extend "http://ns.adobe.com/Extensibility/1.0/">
	<!ENTITY ns_ai "http://ns.adobe.com/AdobeIllustrator/10.0/">
	<!ENTITY ns_graphs "http://ns.adobe.com/Graphs/1.0/">
	<!ENTITY ns_vars "http://ns.adobe.com/Variables/1.0/">
	<!ENTITY ns_imrep "http://ns.adobe.com/ImageReplacement/1.0/">
	<!ENTITY ns_sfw "http://ns.adobe.com/SaveForWeb/1.0/">
	<!ENTITY ns_custom "http://ns.adobe.com/GenericCustomNamespace/1.0/">
	<!ENTITY ns_adobe_xpath "http://ns.adobe.com/XPath/1.0/">
]>
<svg version="1.1" id="Layer_1" xmlns:x="&ns_extend;" xmlns:i="&ns_ai;" xmlns:graph="&ns_graphs;"
	 xmlns="http://www.w3.org/2000/svg" xmlns:xlink="http://www.w3.org/1999/xlink" x="0px" y="0px" viewBox="0 0 473.4 157"
	 style="enable-background:new 0 0 473.4 157;" xml:space="preserve">
<style type="text/css">
	.st0{fill:#D70A10;}
	.st1{fill:#FFFFFF;}
	.st2{fill-rule:evenodd;clip-rule:evenodd;fill:#FFFFFF;}
</style>
<metadata>
	<sfw  xmlns="&ns_sfw;">
		<slices></slices>
		<sliceSourceBounds  bottomLeftOrigin="true" height="157" width="473.4" x="0" y="0"></sliceSourceBounds>
	</sfw>
</metadata>
<path class="st0" d="M92.2,134h350c17.2,0,31.2-14.1,31.2-31.2V51.2c0-17.2-14.1-31.2-31.2-31.2h-350C75.1,20,61,34.1,61,51.2v51.5
	C61,119.9,75.1,134,92.2,134z"/>
<g>
	<path class="st1" d="M200,90.6h-6.2c-1.2,0-2-0.4-2.5-1.3l-4.9-8.6c-0.2-0.4-0.5-0.6-0.8-0.8c-0.3-0.2-0.7-0.3-1.2-0.3h-1.8v11
		h-6.9V60.9h9.7c2.1,0,4,0.2,5.5,0.7c1.5,0.4,2.8,1.1,3.7,1.8s1.7,1.7,2.1,2.8c0.4,1.1,0.7,2.2,0.7,3.5c0,1-0.1,1.9-0.4,2.7
		c-0.3,0.9-0.6,1.6-1.1,2.4c-0.5,0.7-1.1,1.4-1.9,1.9c-0.7,0.6-1.6,1-2.6,1.4c0.4,0.2,0.9,0.5,1.3,0.9c0.4,0.3,0.7,0.8,1.1,1.2
		L200,90.6z M185.3,74.8c0.9,0,1.7-0.1,2.4-0.4s1.2-0.6,1.6-1c0.4-0.4,0.7-0.9,0.9-1.5s0.3-1.2,0.3-1.8c0-1.3-0.4-2.3-1.3-3.1
		c-0.8-0.7-2.2-1.1-3.9-1.1h-2.8v8.8H185.3z"/>
	<path class="st1" d="M209.4,66.2v6.9h9.3v5.1h-9.3v7.1h12.2v5.3h-19.1V60.9h19.1v5.3H209.4z"/>
	<path class="st1" d="M252.5,90.6h-5.3c-0.6,0-1.1-0.1-1.4-0.4c-0.4-0.3-0.6-0.6-0.8-1.1l-1.8-5.2h-11.3l-1.8,5.2
		c-0.1,0.4-0.4,0.7-0.8,1c-0.4,0.3-0.9,0.5-1.4,0.5h-5.4l11.5-29.7h7.1L252.5,90.6z M241.5,79.2l-2.8-8.1c-0.2-0.5-0.4-1.1-0.7-1.8
		s-0.5-1.5-0.7-2.3c-0.2,0.8-0.4,1.6-0.7,2.3c-0.2,0.7-0.4,1.3-0.7,1.8l-2.7,8.1H241.5z"/>
	<path class="st1" d="M281.8,75.7c0,2.1-0.4,4.1-1.1,5.9s-1.8,3.4-3.1,4.7s-3,2.4-4.9,3.1c-1.9,0.7-4,1.1-6.3,1.1h-11.5V60.9h11.5
		c2.3,0,4.4,0.4,6.3,1.1c1.9,0.7,3.5,1.8,4.9,3.1s2.4,2.9,3.1,4.7C281.4,71.6,281.8,73.6,281.8,75.7z M274.7,75.7
		c0-1.5-0.2-2.8-0.6-4c-0.4-1.2-0.9-2.2-1.6-3c-0.7-0.8-1.6-1.5-2.6-1.9c-1-0.4-2.2-0.7-3.5-0.7h-4.6v19.1h4.6
		c1.3,0,2.5-0.2,3.5-0.7c1-0.4,1.9-1.1,2.6-1.9c0.7-0.8,1.3-1.8,1.6-3C274.5,78.5,274.7,77.2,274.7,75.7z"/>
	<path class="st1" d="M298.2,79.3v11.3h-6.9V79.3l-10.8-18.4h6.1c0.6,0,1.1,0.1,1.4,0.4c0.3,0.3,0.6,0.6,0.9,1.1l4.2,8.6
		c0.4,0.7,0.7,1.3,1,1.9c0.3,0.6,0.5,1.2,0.8,1.7c0.2-0.6,0.4-1.2,0.7-1.8s0.6-1.2,0.9-1.9l4.2-8.6c0.1-0.2,0.2-0.4,0.3-0.5
		c0.1-0.2,0.3-0.3,0.5-0.5s0.4-0.3,0.6-0.3c0.2-0.1,0.5-0.1,0.8-0.1h6.1L298.2,79.3z"/>
	<path class="st1" d="M309.6,63.6c0.5-0.4,1-0.8,1.6-1.2c0.6-0.4,1.2-0.7,1.9-1c0.7-0.3,1.4-0.5,2.2-0.7c0.8-0.2,1.6-0.2,2.5-0.2
		c1.3,0,2.4,0.2,3.5,0.5c1,0.3,1.9,0.8,2.6,1.5c0.7,0.6,1.3,1.4,1.7,2.3s0.6,1.9,0.6,3c0,1-0.1,1.9-0.4,2.7c-0.3,0.8-0.6,1.4-1.1,2
		c-0.4,0.6-0.9,1-1.4,1.4c-0.5,0.4-1,0.8-1.5,1.1c-0.5,0.3-0.9,0.7-1.2,1c-0.3,0.3-0.6,0.7-0.7,1.1l-0.6,2.9H315l-0.4-3.3
		c-0.1-0.7,0-1.2,0.2-1.7s0.6-0.9,1-1.3s0.9-0.8,1.4-1.1c0.5-0.4,1-0.7,1.5-1.2c0.5-0.4,0.9-0.9,1.2-1.4c0.3-0.5,0.5-1.1,0.5-1.8
		c0-0.8-0.3-1.5-0.8-1.9c-0.5-0.5-1.3-0.7-2.2-0.7c-0.7,0-1.3,0.1-1.8,0.2c-0.5,0.1-0.9,0.3-1.2,0.5s-0.6,0.4-0.9,0.5
		c-0.3,0.1-0.5,0.2-0.8,0.2c-0.6,0-1-0.3-1.3-0.8L309.6,63.6z M313.4,87.4c0-0.5,0.1-0.9,0.3-1.4c0.2-0.4,0.4-0.8,0.8-1.1
		s0.7-0.6,1.1-0.7c0.4-0.2,0.9-0.3,1.4-0.3c0.5,0,1,0.1,1.4,0.3c0.4,0.2,0.8,0.4,1.1,0.7s0.6,0.7,0.8,1.1c0.2,0.4,0.3,0.9,0.3,1.4
		s-0.1,0.9-0.3,1.4c-0.2,0.4-0.4,0.8-0.8,1.1c-0.3,0.3-0.7,0.6-1.1,0.7c-0.4,0.2-0.9,0.3-1.4,0.3c-0.5,0-1-0.1-1.4-0.3
		c-0.4-0.2-0.8-0.4-1.1-0.7c-0.3-0.3-0.6-0.7-0.8-1.1C313.5,88.3,313.4,87.9,313.4,87.4z"/>
	<path class="st1" d="M354.2,75.2h10.6v12.5c-1.5,1.1-3.1,1.9-4.9,2.4c-1.7,0.5-3.5,0.8-5.4,0.8c-2.4,0-4.7-0.4-6.7-1.2
		c-2-0.8-3.7-1.8-5.1-3.2s-2.5-3-3.3-4.8c-0.8-1.9-1.2-3.9-1.2-6c0-2.2,0.4-4.3,1.1-6.1c0.7-1.9,1.8-3.5,3.1-4.8
		c1.4-1.3,3-2.4,5-3.1c1.9-0.7,4.1-1.1,6.5-1.1c1.2,0,2.4,0.1,3.5,0.3c1.1,0.2,2.1,0.5,3,0.8c0.9,0.4,1.8,0.8,2.5,1.3s1.4,1,2,1.6
		l-2,3c-0.3,0.5-0.7,0.8-1.2,0.9s-1,0-1.6-0.4c-0.5-0.3-1.1-0.6-1.5-0.8s-1-0.4-1.5-0.6c-0.5-0.1-1-0.3-1.6-0.3
		c-0.6-0.1-1.2-0.1-1.9-0.1c-1.3,0-2.5,0.2-3.5,0.7c-1,0.5-1.9,1.1-2.6,1.9c-0.7,0.8-1.3,1.8-1.7,3c-0.4,1.2-0.6,2.5-0.6,3.9
		c0,1.6,0.2,3,0.7,4.2c0.4,1.2,1.1,2.3,1.8,3.1s1.7,1.5,2.9,1.9c1.1,0.4,2.3,0.7,3.7,0.7c0.8,0,1.6-0.1,2.3-0.2s1.3-0.4,2-0.7v-4.5
		h-2.9c-0.4,0-0.8-0.1-1-0.3c-0.2-0.2-0.4-0.5-0.4-0.9V75.2z"/>
	<path class="st1" d="M398.5,75.7c0,2.1-0.4,4.1-1.1,6c-0.7,1.8-1.8,3.5-3.1,4.8c-1.3,1.4-3,2.4-4.9,3.2c-1.9,0.8-4,1.2-6.3,1.2
		s-4.4-0.4-6.3-1.2c-1.9-0.8-3.5-1.8-4.9-3.2s-2.4-3-3.1-4.8c-0.7-1.8-1.1-3.8-1.1-6c0-2.1,0.4-4.1,1.1-6c0.7-1.8,1.8-3.5,3.1-4.8
		c1.4-1.4,3-2.4,4.9-3.2c1.9-0.8,4-1.2,6.3-1.2s4.4,0.4,6.3,1.2c1.9,0.8,3.5,1.9,4.9,3.2c1.3,1.4,2.4,3,3.1,4.8
		C398.1,71.6,398.5,73.6,398.5,75.7z M391.5,75.7c0-1.5-0.2-2.8-0.6-4c-0.4-1.2-0.9-2.2-1.6-3c-0.7-0.8-1.6-1.4-2.6-1.9
		c-1-0.4-2.2-0.7-3.5-0.7c-1.3,0-2.5,0.2-3.6,0.7c-1,0.4-1.9,1.1-2.6,1.9c-0.7,0.8-1.3,1.8-1.6,3s-0.6,2.5-0.6,4
		c0,1.5,0.2,2.8,0.6,4c0.4,1.2,0.9,2.2,1.6,3c0.7,0.8,1.6,1.4,2.6,1.9c1,0.4,2.2,0.6,3.6,0.6c1.3,0,2.5-0.2,3.5-0.6
		c1-0.4,1.9-1,2.6-1.9c0.7-0.8,1.3-1.8,1.6-3C391.3,78.5,391.5,77.2,391.5,75.7z"/>
</g>
<circle class="st0" cx="78.5" cy="78.5" r="78.5"/>
<g>
	<path class="st2" d="M78.3,144.7c-36.4,0-65.8-29.5-65.8-65.8S41.9,13,78.3,13s65.8,29.5,65.8,65.8l0,0
		C144.1,115.2,114.7,144.7,78.3,144.7z M78.3,24C48,24,23.4,48.5,23.4,78.8s24.6,54.9,54.9,54.9s54.9-24.6,54.9-54.9
		S108.6,24,78.3,24z"/>
	<path class="st2" d="M76.5,83.3c0,10.8,0,21.2,0,32.2c-7.7,0-15.3,0.2-22.8-0.2c-3.3,0-3.9-2.2-3.9-4.4c-0.1-9.1,0-18.1,0-27.5
		C59,83.3,67.6,83.3,76.5,83.3z"/>
	<path class="st2" d="M80.9,115.7c0-11,0-21.5,0-32.4c8.7,0,17.3,0,26.5,0c0,9.3,0,18.4,0,27.6c0,3.3-2.6,4.8-5.7,4.8
		C95.1,115.7,88.3,115.7,80.9,115.7z"/>
	<path class="st2" d="M78.7,54.5c2.5-3.1,4.5-6,7-8.7c3.5-3.9,8-4.5,12-2.3c3.7,2.2,5.8,6.6,4.8,10.7c-1.2,4.6-4.5,7.3-9.9,7.4
		c-9.4,0.1-18.8,0.1-28.2,0c-5.2-0.1-8.4-2.7-9.5-7.6c-0.9-4,0.9-8.2,4.5-10.3c4-2.4,8.2-1.9,11.8,1.7
		C73.8,48.2,76.1,51.3,78.7,54.5z M75.7,57.6c-2.9-3.7-4.8-6.9-7.5-9.2c-1.6-1.2-4.8-1.9-6.6-1.1c-1.6,0.7-3.5,2.9-2.9,5.8
		c0.3,1.9,3.1,3.7,5,4.2C67.2,58.1,70.9,57.6,75.7,57.6z M81.6,57.7c5,0.2,8.6,0.5,11.9-0.3c3.5-0.8,4.8-3.1,5.1-5.1
		c0.2-1.5-0.9-4.2-2.8-5c-1.8-0.8-5-0.2-6.5,1C86.5,50.4,83.8,55,81.6,57.7z"/>
	<path class="st2" d="M76.5,65.8c0,4.5,0,8.5,0,13c-4.8,0-9.4,0-14,0c-2.5,0-5,0-7.5,0c-7,0-9.1,0.8-9.1-7.4c0-2.4,0.5-5.6,4.8-5.7
		C59.1,65.6,67.5,65.8,76.5,65.8z"/>
	<path class="st2" d="M80.9,78.9c0-4.9,0-8.7,0-13c9.1,0,17.9-0.1,26.7,0.1c3.4,0.2,2.9,4.5,2.9,4.8c0,9.2-1,8.3-8.8,8.2
		C94.9,78.9,88,78.9,80.9,78.9z"/>
</g>
</svg>
