<?xml version="1.0" encoding="utf-8"?>
<!-- Generator: Adobe Illustrator 23.1.0, SVG Export Plug-In . SVG Version: 6.00 Build 0)  -->
<!DOCTYPE svg PUBLIC "-//W3C//DTD SVG 1.1//EN" "http://www.w3.org/Graphics/SVG/1.1/DTD/svg11.dtd" [
	<!ENTITY ns_extend "http://ns.adobe.com/Extensibility/1.0/">
	<!ENTITY ns_ai "http://ns.adobe.com/AdobeIllustrator/10.0/">
	<!ENTITY ns_graphs "http://ns.adobe.com/Graphs/1.0/">
	<!ENTITY ns_vars "http://ns.adobe.com/Variables/1.0/">
	<!ENTITY ns_imrep "http://ns.adobe.com/ImageReplacement/1.0/">
	<!ENTITY ns_sfw "http://ns.adobe.com/SaveForWeb/1.0/">
	<!ENTITY ns_custom "http://ns.adobe.com/GenericCustomNamespace/1.0/">
	<!ENTITY ns_adobe_xpath "http://ns.adobe.com/XPath/1.0/">
]>
<svg version="1.1" id="Layer_1" xmlns:x="&ns_extend;" xmlns:i="&ns_ai;" xmlns:graph="&ns_graphs;"
	 xmlns="http://www.w3.org/2000/svg" xmlns:xlink="http://www.w3.org/1999/xlink" x="0px" y="0px" viewBox="0 0 733 157"
	 style="enable-background:new 0 0 733 157;" xml:space="preserve">
<style type="text/css">
	.st0{fill:#D70A10;}
	.st1{fill-rule:evenodd;clip-rule:evenodd;fill:#FFFFFF;}
	.st2{fill:#FFFFFF;}
</style>
<metadata>
	<sfw  xmlns="&ns_sfw;">
		<slices></slices>
		<sliceSourceBounds  bottomLeftOrigin="true" height="157" width="733" x="357" y="-1016"></sliceSourceBounds>
	</sfw>
</metadata>
<path class="st0" d="M92.2,134h609.5c17.2,0,31.2-14.1,31.2-31.2V51.2c0-17.2-14.1-31.2-31.2-31.2H92.2C75.1,20,61,34.1,61,51.2
	v51.5C61,119.9,75.1,134,92.2,134z"/>
<circle class="st0" cx="78.5" cy="78.5" r="78.5"/>
<g>
	<path class="st1" d="M78.3,144.7c-36.4,0-65.8-29.5-65.8-65.8S41.9,13,78.3,13s65.8,29.5,65.8,65.8l0,0
		C144.1,115.2,114.7,144.7,78.3,144.7z M78.3,24C48,24,23.4,48.5,23.4,78.8s24.6,54.9,54.9,54.9s54.9-24.6,54.9-54.9
		S108.6,24,78.3,24z"/>
	<path class="st1" d="M76.5,83.3c0,10.8,0,21.2,0,32.2c-7.7,0-15.3,0.2-22.8-0.2c-3.3,0-3.9-2.2-3.9-4.4c-0.1-9.1,0-18.1,0-27.5
		C59,83.3,67.6,83.3,76.5,83.3z"/>
	<path class="st1" d="M80.9,115.7c0-11,0-21.5,0-32.4c8.7,0,17.3,0,26.5,0c0,9.3,0,18.4,0,27.6c0,3.3-2.6,4.8-5.7,4.8
		C95.1,115.7,88.3,115.7,80.9,115.7z"/>
	<path class="st1" d="M78.7,54.5c2.5-3.1,4.5-6,7-8.7c3.5-3.9,8-4.5,12-2.3c3.7,2.2,5.8,6.6,4.8,10.7c-1.2,4.6-4.5,7.3-9.9,7.4
		c-9.4,0.1-18.8,0.1-28.2,0c-5.2-0.1-8.4-2.7-9.5-7.6c-0.9-4,0.9-8.2,4.5-10.3c4-2.4,8.2-1.9,11.8,1.7
		C73.8,48.2,76.1,51.3,78.7,54.5z M75.7,57.6c-2.9-3.7-4.8-6.9-7.5-9.2c-1.6-1.2-4.8-1.9-6.6-1.1c-1.6,0.7-3.5,2.9-2.9,5.8
		c0.3,1.9,3.1,3.7,5,4.2C67.2,58.1,70.9,57.6,75.7,57.6z M81.6,57.7c5,0.2,8.6,0.5,11.9-0.3c3.5-0.8,4.8-3.1,5.1-5.1
		c0.2-1.5-0.9-4.2-2.8-5c-1.8-0.8-5-0.2-6.5,1C86.5,50.4,83.8,55,81.6,57.7z"/>
	<path class="st1" d="M76.5,65.8c0,4.5,0,8.5,0,13c-4.8,0-9.4,0-14,0c-2.5,0-5,0-7.5,0c-7,0-9.1,0.8-9.1-7.4c0-2.4,0.5-5.6,4.8-5.7
		C59.1,65.6,67.5,65.8,76.5,65.8z"/>
	<path class="st1" d="M80.9,78.9c0-4.9,0-8.7,0-13c9.1,0,17.9-0.1,26.7,0.1c3.4,0.2,2.9,4.5,2.9,4.8c0,9.2-1,8.3-8.8,8.2
		C94.9,78.9,88,78.9,80.9,78.9z"/>
</g>
<g>
	<path class="st2" d="M192.7,66.3c-0.2,0.3-0.3,0.5-0.5,0.6c-0.2,0.1-0.4,0.2-0.7,0.2c-0.3,0-0.6-0.1-0.9-0.3
		c-0.3-0.2-0.7-0.4-1.2-0.7c-0.5-0.3-1-0.5-1.6-0.7c-0.6-0.2-1.3-0.3-2.2-0.3c-0.8,0-1.4,0.1-2,0.3c-0.6,0.2-1,0.4-1.4,0.8
		s-0.7,0.7-0.9,1.2c-0.2,0.4-0.3,0.9-0.3,1.5c0,0.7,0.2,1.3,0.6,1.7c0.4,0.5,0.9,0.8,1.5,1.2c0.6,0.3,1.3,0.6,2.2,0.9
		c0.8,0.3,1.6,0.5,2.5,0.8c0.8,0.3,1.7,0.6,2.5,1c0.8,0.4,1.5,0.9,2.2,1.4c0.6,0.6,1.1,1.3,1.5,2.1s0.6,1.9,0.6,3.1
		c0,1.3-0.2,2.5-0.7,3.7c-0.4,1.1-1.1,2.1-2,3c-0.9,0.9-1.9,1.5-3.2,2c-1.2,0.5-2.7,0.7-4.3,0.7c-0.9,0-1.8-0.1-2.7-0.3
		c-0.9-0.2-1.8-0.4-2.6-0.8c-0.8-0.3-1.6-0.7-2.3-1.2c-0.7-0.5-1.4-1-1.9-1.6l1.6-2.6c0.1-0.2,0.3-0.3,0.5-0.5
		c0.2-0.1,0.4-0.2,0.7-0.2c0.3,0,0.7,0.1,1.1,0.4c0.4,0.3,0.9,0.6,1.4,0.9c0.5,0.3,1.2,0.6,1.9,0.9c0.7,0.3,1.6,0.4,2.6,0.4
		c1.5,0,2.7-0.4,3.6-1.1c0.8-0.7,1.3-1.8,1.3-3.1c0-0.8-0.2-1.4-0.6-1.9s-0.9-0.9-1.5-1.2c-0.6-0.3-1.3-0.6-2.2-0.8
		c-0.8-0.2-1.6-0.5-2.5-0.7c-0.8-0.3-1.6-0.6-2.5-1c-0.8-0.4-1.5-0.9-2.2-1.5c-0.6-0.6-1.1-1.4-1.5-2.3c-0.4-0.9-0.6-2-0.6-3.4
		c0-1.1,0.2-2.1,0.6-3.1c0.4-1,1-1.9,1.8-2.7s1.8-1.4,3-1.9c1.2-0.5,2.5-0.7,4.1-0.7c1.7,0,3.3,0.3,4.7,0.8c1.4,0.5,2.7,1.3,3.7,2.3
		L192.7,66.3z"/>
	<path class="st2" d="M204.7,90.1h-5.4V61h5.4V90.1z"/>
	<path class="st2" d="M235.2,75.5v11.8c-1.5,1.1-3,1.9-4.7,2.4c-1.7,0.5-3.5,0.8-5.4,0.8c-2.4,0-4.5-0.4-6.4-1.1s-3.6-1.8-4.9-3.1
		c-1.4-1.3-2.4-2.9-3.1-4.7c-0.7-1.8-1.1-3.8-1.1-6c0-2.2,0.4-4.2,1.1-6s1.7-3.4,3-4.7s2.9-2.3,4.8-3.1c1.9-0.7,4-1.1,6.3-1.1
		c1.2,0,2.3,0.1,3.3,0.3c1,0.2,2,0.4,2.9,0.8c0.9,0.3,1.7,0.7,2.4,1.2c0.7,0.5,1.4,1,2,1.5l-1.5,2.5c-0.2,0.4-0.6,0.6-0.9,0.7
		c-0.4,0.1-0.8,0-1.3-0.3c-0.4-0.3-0.9-0.5-1.3-0.8c-0.4-0.3-0.9-0.5-1.5-0.7c-0.5-0.2-1.2-0.3-1.8-0.5s-1.5-0.2-2.3-0.2
		c-1.4,0-2.7,0.2-3.9,0.7s-2.1,1.2-3,2.1c-0.8,0.9-1.4,2-1.9,3.2c-0.4,1.3-0.7,2.7-0.7,4.2c0,1.7,0.2,3.1,0.7,4.5s1.1,2.4,2,3.3
		s1.9,1.6,3.1,2.1c1.2,0.5,2.6,0.7,4.1,0.7c1.1,0,2-0.1,2.9-0.3c0.8-0.2,1.7-0.5,2.5-0.9v-5.3h-3.7c-0.3,0-0.6-0.1-0.8-0.3
		c-0.2-0.2-0.3-0.4-0.3-0.7v-3.1H235.2z"/>
	<path class="st2" d="M265,61v29.1h-2.8c-0.4,0-0.8-0.1-1.1-0.2c-0.3-0.1-0.6-0.4-0.8-0.7l-15.2-19.4c0.1,0.9,0.1,1.7,0.1,2.5v17.9
		h-4.8V61h2.8c0.2,0,0.4,0,0.6,0c0.2,0,0.3,0.1,0.4,0.1c0.1,0.1,0.3,0.1,0.4,0.3c0.1,0.1,0.3,0.3,0.4,0.5l15.3,19.5
		c0-0.5-0.1-0.9-0.1-1.4s0-0.9,0-1.3V61H265z"/>
	<path class="st2" d="M292.9,85.7c1,0,2-0.2,2.8-0.5c0.8-0.3,1.5-0.8,2.1-1.5c0.6-0.6,1-1.4,1.3-2.3c0.3-0.9,0.5-1.9,0.5-3V61h5.4
		v17.4c0,1.7-0.3,3.3-0.8,4.8s-1.4,2.7-2.4,3.8s-2.3,1.9-3.8,2.5s-3.2,0.9-5,0.9c-1.9,0-3.6-0.3-5-0.9c-1.5-0.6-2.8-1.4-3.8-2.5
		s-1.8-2.3-2.4-3.8c-0.6-1.5-0.8-3.1-0.8-4.8V61h5.4v17.4c0,1.1,0.2,2.1,0.5,3c0.3,0.9,0.7,1.7,1.3,2.3c0.6,0.6,1.3,1.1,2.1,1.5
		C291,85.6,291.9,85.7,292.9,85.7z"/>
	<path class="st2" d="M320.6,61c1.9,0,3.6,0.2,5.1,0.7c1.4,0.5,2.6,1.1,3.5,1.9c0.9,0.8,1.6,1.8,2.1,2.9c0.4,1.1,0.7,2.4,0.7,3.7
		c0,1.4-0.2,2.7-0.7,3.9c-0.5,1.2-1.2,2.2-2.1,3c-0.9,0.8-2.1,1.5-3.5,2c-1.4,0.5-3.1,0.7-5,0.7h-4v10.2h-5.4V61H320.6z M320.6,75.6
		c1,0,1.9-0.1,2.6-0.4c0.7-0.2,1.4-0.6,1.8-1.1c0.5-0.5,0.9-1,1.1-1.7c0.2-0.7,0.4-1.4,0.4-2.2c0-0.8-0.1-1.5-0.4-2.1
		c-0.2-0.6-0.6-1.2-1.1-1.6c-0.5-0.4-1.1-0.8-1.8-1c-0.7-0.2-1.6-0.4-2.6-0.4h-4v10.4H320.6z"/>
	<path class="st2" d="M350.1,65.3v8.6H361v4.3h-10.9v11.9h-5.4V61H363v4.3H350.1z"/>
	<path class="st2" d="M394.9,75.6c0,2.1-0.4,4.1-1.1,5.9c-0.7,1.8-1.7,3.4-3,4.7c-1.3,1.3-2.8,2.4-4.6,3.1c-1.8,0.7-3.8,1.1-6,1.1
		c-2.2,0-4.2-0.4-6-1.1c-1.8-0.7-3.4-1.8-4.7-3.1c-1.3-1.3-2.3-2.9-3-4.7c-0.7-1.8-1.1-3.8-1.1-5.9s0.4-4.1,1.1-5.9
		c0.7-1.8,1.7-3.4,3-4.7c1.3-1.3,2.8-2.4,4.7-3.1c1.8-0.7,3.8-1.1,6-1.1c1.5,0,2.9,0.2,4.2,0.5c1.3,0.3,2.5,0.8,3.6,1.4
		c1.1,0.6,2.1,1.4,2.9,2.3s1.6,1.9,2.2,3c0.6,1.1,1.1,2.3,1.4,3.6C394.8,72.8,394.9,74.1,394.9,75.6z M389.4,75.6
		c0-1.6-0.2-3-0.6-4.3c-0.4-1.3-1-2.3-1.8-3.2c-0.8-0.9-1.8-1.6-2.9-2c-1.1-0.5-2.4-0.7-3.8-0.7c-1.4,0-2.7,0.2-3.8,0.7
		c-1.1,0.5-2.1,1.1-2.9,2c-0.8,0.9-1.4,2-1.8,3.2c-0.4,1.3-0.6,2.7-0.6,4.3s0.2,3,0.6,4.3c0.4,1.3,1,2.3,1.8,3.2
		c0.8,0.9,1.8,1.6,2.9,2c1.1,0.5,2.4,0.7,3.8,0.7c1.4,0,2.7-0.2,3.8-0.7c1.1-0.5,2.1-1.1,2.9-2c0.8-0.9,1.4-2,1.8-3.2
		C389.2,78.6,389.4,77.2,389.4,75.6z"/>
	<path class="st2" d="M422.4,90.1h-4.9c-0.9,0-1.6-0.4-2-1.1l-6.1-9.3c-0.2-0.3-0.5-0.6-0.8-0.7c-0.3-0.1-0.7-0.2-1.2-0.2h-2.3v11.4
		h-5.4V61h8.9c2,0,3.7,0.2,5.1,0.6c1.4,0.4,2.6,1,3.5,1.7c0.9,0.7,1.6,1.6,2,2.6c0.4,1,0.6,2.2,0.6,3.4c0,1-0.1,1.9-0.4,2.8
		s-0.7,1.7-1.2,2.4c-0.5,0.7-1.2,1.3-2,1.9c-0.8,0.5-1.7,1-2.7,1.3c0.3,0.2,0.7,0.4,1,0.7c0.3,0.3,0.6,0.6,0.8,1L422.4,90.1z
		 M408.5,74.9c1,0,1.9-0.1,2.7-0.4s1.4-0.6,1.9-1.1c0.5-0.4,0.9-1,1.1-1.6c0.2-0.6,0.4-1.3,0.4-2c0-1.5-0.5-2.6-1.5-3.4
		c-1-0.8-2.5-1.2-4.5-1.2h-3.5v9.7H408.5z"/>
	<path class="st2" d="M455.3,83.2c0.3,0,0.6,0.1,0.8,0.3l2.1,2.3c-1.2,1.5-2.6,2.6-4.4,3.4c-1.7,0.8-3.8,1.2-6.2,1.2
		c-2.2,0-4.1-0.4-5.8-1.1c-1.7-0.7-3.2-1.8-4.4-3.1c-1.2-1.3-2.2-2.9-2.8-4.7c-0.7-1.8-1-3.8-1-6c0-2.2,0.3-4.2,1-6
		c0.7-1.8,1.7-3.4,2.9-4.7s2.8-2.3,4.5-3.1s3.7-1.1,5.8-1.1c2.1,0,4,0.3,5.6,1c1.6,0.7,3,1.6,4.2,2.7l-1.8,2.5
		c-0.1,0.2-0.2,0.3-0.4,0.4c-0.2,0.1-0.4,0.2-0.7,0.2c-0.2,0-0.4-0.1-0.6-0.2c-0.2-0.1-0.4-0.3-0.7-0.4c-0.3-0.2-0.6-0.4-0.9-0.6
		c-0.3-0.2-0.7-0.4-1.2-0.6c-0.4-0.2-1-0.3-1.5-0.4s-1.3-0.2-2-0.2c-1.3,0-2.5,0.2-3.6,0.7c-1.1,0.5-2,1.1-2.8,2
		c-0.8,0.9-1.4,2-1.8,3.2s-0.6,2.7-0.6,4.3c0,1.6,0.2,3.1,0.7,4.4c0.5,1.3,1.1,2.3,1.9,3.2s1.7,1.5,2.8,2c1.1,0.5,2.2,0.7,3.5,0.7
		c0.7,0,1.4,0,2-0.1s1.1-0.2,1.6-0.4s1-0.4,1.4-0.7c0.4-0.3,0.9-0.6,1.3-1c0.1-0.1,0.3-0.2,0.4-0.3C455,83.3,455.2,83.2,455.3,83.2z
		"/>
	<path class="st2" d="M486.5,61v29.1h-5.4V77.4h-13.7v12.7H462V61h5.4v12.5h13.7V61H486.5z"/>
	<path class="st2" d="M517.9,90.1h-4.2c-0.5,0-0.9-0.1-1.1-0.4c-0.3-0.2-0.5-0.5-0.7-0.9l-2.2-5.9h-12.1l-2.2,5.9
		c-0.1,0.3-0.3,0.6-0.6,0.8c-0.3,0.3-0.7,0.4-1.1,0.4h-4.2L501,61h5.5L517.9,90.1z M508.4,79.1l-3.5-9.7c-0.2-0.4-0.4-0.9-0.5-1.5
		c-0.2-0.6-0.4-1.2-0.6-1.9c-0.2,0.7-0.4,1.3-0.5,1.9c-0.2,0.6-0.4,1.1-0.5,1.6l-3.5,9.6H508.4z"/>
	<path class="st2" d="M538,85.6v4.5h-17V61h5.4v24.6H538z"/>
	<path class="st2" d="M558.9,85.6v4.5h-17V61h5.4v24.6H558.9z"/>
	<path class="st2" d="M568.2,65.3v8.1h10.2v4.2h-10.2v8.2h12.9v4.3h-18.4V61h18.4v4.3H568.2z"/>
	<path class="st2" d="M610.4,61v29.1h-2.8c-0.4,0-0.8-0.1-1.1-0.2c-0.3-0.1-0.6-0.4-0.8-0.7l-15.2-19.4c0.1,0.9,0.1,1.7,0.1,2.5
		v17.9h-4.8V61h2.8c0.2,0,0.4,0,0.6,0c0.2,0,0.3,0.1,0.4,0.1c0.1,0.1,0.3,0.1,0.4,0.3c0.1,0.1,0.3,0.3,0.4,0.5l15.3,19.5
		c0-0.5-0.1-0.9-0.1-1.4c0-0.5,0-0.9,0-1.3V61H610.4z"/>
	<path class="st2" d="M640.9,75.5v11.8c-1.5,1.1-3,1.9-4.7,2.4c-1.7,0.5-3.5,0.8-5.4,0.8c-2.4,0-4.5-0.4-6.4-1.1
		c-1.9-0.7-3.6-1.8-4.9-3.1c-1.4-1.3-2.4-2.9-3.1-4.7c-0.7-1.8-1.1-3.8-1.1-6c0-2.2,0.4-4.2,1.1-6s1.7-3.4,3-4.7s2.9-2.3,4.8-3.1
		c1.9-0.7,4-1.1,6.3-1.1c1.2,0,2.3,0.1,3.3,0.3c1,0.2,2,0.4,2.9,0.8c0.9,0.3,1.7,0.7,2.4,1.2c0.7,0.5,1.4,1,2,1.5l-1.5,2.5
		c-0.2,0.4-0.6,0.6-0.9,0.7c-0.4,0.1-0.8,0-1.3-0.3c-0.4-0.3-0.9-0.5-1.3-0.8s-0.9-0.5-1.5-0.7c-0.5-0.2-1.2-0.3-1.8-0.5
		c-0.7-0.1-1.5-0.2-2.3-0.2c-1.4,0-2.7,0.2-3.9,0.7s-2.1,1.2-3,2.1c-0.8,0.9-1.4,2-1.9,3.2c-0.4,1.3-0.7,2.7-0.7,4.2
		c0,1.7,0.2,3.1,0.7,4.5c0.5,1.3,1.1,2.4,2,3.3s1.9,1.6,3.1,2.1c1.2,0.5,2.6,0.7,4.1,0.7c1.1,0,2-0.1,2.9-0.3
		c0.8-0.2,1.7-0.5,2.5-0.9v-5.3h-3.7c-0.3,0-0.6-0.1-0.8-0.3c-0.2-0.2-0.3-0.4-0.3-0.7v-3.1H640.9z"/>
	<path class="st2" d="M651.5,65.3v8.1h10.2v4.2h-10.2v8.2h12.9v4.3h-18.4V61h18.4v4.3H651.5z"/>
</g>
</svg>
