<?xml version="1.0" encoding="utf-8"?>
<!-- Generator: Adobe Illustrator 23.1.0, SVG Export Plug-In . SVG Version: 6.00 Build 0)  -->
<!DOCTYPE svg PUBLIC "-//W3C//DTD SVG 1.1//EN" "http://www.w3.org/Graphics/SVG/1.1/DTD/svg11.dtd" [
	<!ENTITY ns_extend "http://ns.adobe.com/Extensibility/1.0/">
	<!ENTITY ns_ai "http://ns.adobe.com/AdobeIllustrator/10.0/">
	<!ENTITY ns_graphs "http://ns.adobe.com/Graphs/1.0/">
	<!ENTITY ns_vars "http://ns.adobe.com/Variables/1.0/">
	<!ENTITY ns_imrep "http://ns.adobe.com/ImageReplacement/1.0/">
	<!ENTITY ns_sfw "http://ns.adobe.com/SaveForWeb/1.0/">
	<!ENTITY ns_custom "http://ns.adobe.com/GenericCustomNamespace/1.0/">
	<!ENTITY ns_adobe_xpath "http://ns.adobe.com/XPath/1.0/">
]>
<svg version="1.1" id="Layer_1" xmlns:x="&ns_extend;" xmlns:i="&ns_ai;" xmlns:graph="&ns_graphs;"
	 xmlns="http://www.w3.org/2000/svg" xmlns:xlink="http://www.w3.org/1999/xlink" x="0px" y="0px" viewBox="0 0 386.3 157"
	 style="enable-background:new 0 0 386.3 157;" xml:space="preserve">
<style type="text/css">
	.st0{fill:#D70A10;}
	.st1{fill-rule:evenodd;clip-rule:evenodd;fill:#FFFFFF;}
	.st2{fill:#FFFFFF;}
</style>
<metadata>
	<sfw  xmlns="&ns_sfw;">
		<slices></slices>
		<sliceSourceBounds  bottomLeftOrigin="true" height="157" width="386.3" x="0" y="0"></sliceSourceBounds>
	</sfw>
</metadata>
<path class="st0" d="M92.2,134h262.9c17.2,0,31.2-14.1,31.2-31.2V51.2c0-17.2-14.1-31.2-31.2-31.2H92.2C75.1,20,61,34.1,61,51.2
	v51.5C61,119.9,75.1,134,92.2,134z"/>
<circle class="st0" cx="78.5" cy="78.5" r="78.5"/>
<g>
	<path class="st1" d="M78.3,144.7c-36.4,0-65.8-29.5-65.8-65.8S41.9,13,78.3,13s65.8,29.5,65.8,65.8l0,0
		C144.1,115.2,114.7,144.7,78.3,144.7z M78.3,24C48,24,23.4,48.5,23.4,78.8s24.6,54.9,54.9,54.9s54.9-24.6,54.9-54.9
		S108.6,24,78.3,24z"/>
	<path class="st1" d="M76.5,83.3c0,10.8,0,21.2,0,32.2c-7.7,0-15.3,0.2-22.8-0.2c-3.3,0-3.9-2.2-3.9-4.4c-0.1-9.1,0-18.1,0-27.5
		C59,83.3,67.6,83.3,76.5,83.3z"/>
	<path class="st1" d="M80.9,115.7c0-11,0-21.5,0-32.4c8.7,0,17.3,0,26.5,0c0,9.3,0,18.4,0,27.6c0,3.3-2.6,4.8-5.7,4.8
		C95.1,115.7,88.3,115.7,80.9,115.7z"/>
	<path class="st1" d="M78.7,54.5c2.5-3.1,4.5-6,7-8.7c3.5-3.9,8-4.5,12-2.3c3.7,2.2,5.8,6.6,4.8,10.7c-1.2,4.6-4.5,7.3-9.9,7.4
		c-9.4,0.1-18.8,0.1-28.2,0c-5.2-0.1-8.4-2.7-9.5-7.6c-0.9-4,0.9-8.2,4.5-10.3c4-2.4,8.2-1.9,11.8,1.7
		C73.8,48.2,76.1,51.3,78.7,54.5z M75.7,57.6c-2.9-3.7-4.8-6.9-7.5-9.2c-1.6-1.2-4.8-1.9-6.6-1.1c-1.6,0.7-3.5,2.9-2.9,5.8
		c0.3,1.9,3.1,3.7,5,4.2C67.2,58.1,70.9,57.6,75.7,57.6z M81.6,57.7c5,0.2,8.6,0.5,11.9-0.3c3.5-0.8,4.8-3.1,5.1-5.1
		c0.2-1.5-0.9-4.2-2.8-5c-1.8-0.8-5-0.2-6.5,1C86.5,50.4,83.8,55,81.6,57.7z"/>
	<path class="st1" d="M76.5,65.8c0,4.5,0,8.5,0,13c-4.8,0-9.4,0-14,0c-2.5,0-5,0-7.5,0c-7,0-9.1,0.8-9.1-7.4c0-2.4,0.5-5.6,4.8-5.7
		C59.1,65.6,67.5,65.8,76.5,65.8z"/>
	<path class="st1" d="M80.9,78.9c0-4.9,0-8.7,0-13c9.1,0,17.9-0.1,26.7,0.1c3.4,0.2,2.9,4.5,2.9,4.8c0,9.2-1,8.3-8.8,8.2
		C94.9,78.9,88,78.9,80.9,78.9z"/>
</g>
<g>
	<path class="st2" d="M192.1,67c-0.2,0.3-0.4,0.6-0.6,0.7s-0.5,0.2-0.9,0.2c-0.3,0-0.7-0.1-1-0.3c-0.4-0.2-0.8-0.4-1.2-0.7
		c-0.5-0.2-1-0.5-1.6-0.7c-0.6-0.2-1.3-0.3-2-0.3c-1.3,0-2.3,0.3-2.9,0.8c-0.6,0.6-1,1.3-1,2.2c0,0.6,0.2,1.1,0.6,1.5
		c0.4,0.4,0.9,0.7,1.5,1c0.6,0.3,1.3,0.6,2.1,0.8c0.8,0.2,1.6,0.5,2.5,0.8c0.8,0.3,1.7,0.6,2.5,1c0.8,0.4,1.5,0.9,2.1,1.5
		c0.6,0.6,1.1,1.4,1.5,2.2c0.4,0.9,0.6,1.9,0.6,3.2c0,1.4-0.2,2.7-0.7,3.9c-0.5,1.2-1.2,2.3-2.1,3.1c-0.9,0.9-2,1.6-3.4,2.1
		c-1.3,0.5-2.8,0.8-4.5,0.8c-0.9,0-1.9-0.1-2.8-0.3c-1-0.2-1.9-0.5-2.8-0.8c-0.9-0.3-1.8-0.8-2.5-1.2c-0.8-0.5-1.5-1-2.1-1.6
		l2.1-3.2c0.2-0.2,0.4-0.4,0.6-0.6s0.6-0.2,0.9-0.2c0.4,0,0.8,0.1,1.2,0.4c0.4,0.3,0.9,0.5,1.4,0.9s1.1,0.6,1.8,0.9
		c0.7,0.3,1.5,0.4,2.4,0.4c1.3,0,2.2-0.3,2.9-0.8c0.7-0.6,1-1.4,1-2.6c0-0.7-0.2-1.3-0.6-1.7s-0.9-0.8-1.5-1.1
		c-0.6-0.3-1.3-0.5-2.1-0.8c-0.8-0.2-1.6-0.5-2.4-0.7c-0.8-0.3-1.6-0.6-2.4-1c-0.8-0.4-1.5-0.9-2.1-1.5c-0.6-0.6-1.1-1.4-1.5-2.4
		c-0.4-1-0.6-2.1-0.6-3.5c0-1.1,0.2-2.2,0.7-3.3c0.5-1.1,1.1-2,2-2.9c0.9-0.8,1.9-1.5,3.2-2c1.3-0.5,2.7-0.7,4.4-0.7
		c0.9,0,1.8,0.1,2.7,0.2s1.7,0.4,2.5,0.6c0.8,0.3,1.5,0.6,2.2,1c0.7,0.4,1.3,0.8,1.8,1.3L192.1,67z"/>
	<path class="st2" d="M210.8,85.3c0.9,0,1.8-0.2,2.5-0.5c0.7-0.3,1.4-0.7,1.9-1.3c0.5-0.6,0.9-1.3,1.2-2.1c0.3-0.8,0.4-1.8,0.4-2.8
		V60.9h6.9v17.7c0,1.8-0.3,3.5-0.9,5c-0.6,1.5-1.4,2.9-2.6,4s-2.5,2-4,2.6s-3.4,0.9-5.4,0.9c-2,0-3.8-0.3-5.4-0.9s-2.9-1.5-4-2.6
		s-2-2.4-2.5-4c-0.6-1.5-0.9-3.2-0.9-5V60.9h6.9v17.7c0,1.1,0.1,2,0.4,2.8c0.3,0.8,0.7,1.5,1.2,2.1c0.5,0.6,1.1,1,1.9,1.3
		C209,85.2,209.8,85.3,210.8,85.3z"/>
	<path class="st2" d="M240,60.9c2.1,0,3.8,0.2,5.3,0.6c1.4,0.4,2.6,0.9,3.5,1.6c0.9,0.7,1.6,1.5,2,2.5c0.4,1,0.6,2.1,0.6,3.3
		c0,0.7-0.1,1.3-0.3,1.9c-0.2,0.6-0.5,1.2-0.9,1.7c-0.4,0.5-0.9,1-1.6,1.5c-0.6,0.5-1.4,0.8-2.3,1.2c2,0.5,3.4,1.3,4.4,2.3
		c0.9,1.1,1.4,2.4,1.4,4.1c0,1.3-0.2,2.5-0.7,3.5c-0.5,1.1-1.2,2-2.2,2.9c-1,0.8-2.1,1.4-3.5,1.9c-1.4,0.5-3,0.7-4.8,0.7H229V60.9
		H240z M236,66.1v7.4h3.6c0.8,0,1.5-0.1,2.1-0.2s1.1-0.3,1.6-0.6c0.4-0.3,0.8-0.6,1-1.1s0.3-1.1,0.3-1.8c0-0.7-0.1-1.3-0.3-1.8
		c-0.2-0.5-0.5-0.9-0.8-1.1c-0.4-0.3-0.8-0.5-1.4-0.6c-0.6-0.1-1.2-0.2-2-0.2H236z M240.8,85.6c0.9,0,1.7-0.1,2.2-0.3s1-0.5,1.4-0.9
		s0.6-0.8,0.7-1.3s0.2-0.9,0.2-1.4c0-0.5-0.1-1-0.2-1.5c-0.1-0.4-0.4-0.8-0.7-1.1c-0.3-0.3-0.8-0.5-1.4-0.7
		c-0.6-0.2-1.3-0.2-2.2-0.2H236v7.4H240.8z"/>
	<path class="st2" d="M290.1,60.9v29.9H284V73.6c0-0.4,0-0.8,0-1.3c0-0.5,0.1-0.9,0.1-1.4l-7.9,15.4c-0.2,0.5-0.6,0.8-1,1.1
		s-0.9,0.4-1.4,0.4h-0.9c-0.5,0-1-0.1-1.4-0.4s-0.7-0.6-1-1.1l-7.9-15.4c0,0.5,0.1,1,0.1,1.4s0,0.9,0,1.3v17.2h-6.1V60.9h5.3
		c0.3,0,0.6,0,0.8,0s0.4,0.1,0.6,0.1s0.3,0.2,0.5,0.3s0.3,0.3,0.4,0.6l7.7,15.2c0.3,0.5,0.5,1.1,0.8,1.6c0.3,0.6,0.5,1.1,0.7,1.7
		c0.2-0.6,0.5-1.2,0.7-1.8c0.3-0.6,0.5-1.1,0.8-1.6l7.7-15.1c0.1-0.3,0.3-0.5,0.4-0.6s0.3-0.2,0.5-0.3c0.2-0.1,0.4-0.1,0.6-0.1
		s0.5,0,0.8,0H290.1z"/>
	<path class="st2" d="M302.9,90.8h-7V60.9h7V90.8z"/>
	<path class="st2" d="M330.1,66.4h-8.4v24.4h-6.9V66.4h-8.4v-5.5h23.8V66.4z"/>
</g>
</svg>
