<?xml version="1.0" encoding="utf-8"?>
<!-- Generator: Adobe Illustrator 23.1.0, SVG Export Plug-In . SVG Version: 6.00 Build 0)  -->
<!DOCTYPE svg PUBLIC "-//W3C//DTD SVG 1.1//EN" "http://www.w3.org/Graphics/SVG/1.1/DTD/svg11.dtd" [
	<!ENTITY ns_extend "http://ns.adobe.com/Extensibility/1.0/">
	<!ENTITY ns_ai "http://ns.adobe.com/AdobeIllustrator/10.0/">
	<!ENTITY ns_graphs "http://ns.adobe.com/Graphs/1.0/">
	<!ENTITY ns_vars "http://ns.adobe.com/Variables/1.0/">
	<!ENTITY ns_imrep "http://ns.adobe.com/ImageReplacement/1.0/">
	<!ENTITY ns_sfw "http://ns.adobe.com/SaveForWeb/1.0/">
	<!ENTITY ns_custom "http://ns.adobe.com/GenericCustomNamespace/1.0/">
	<!ENTITY ns_adobe_xpath "http://ns.adobe.com/XPath/1.0/">
]>
<svg version="1.1" id="Isolation_Mode" xmlns:x="&ns_extend;" xmlns:i="&ns_ai;" xmlns:graph="&ns_graphs;"
	 xmlns="http://www.w3.org/2000/svg" xmlns:xlink="http://www.w3.org/1999/xlink" x="0px" y="0px" viewBox="0 0 374.9 328.2"
	 style="enable-background:new 0 0 374.9 328.2;" xml:space="preserve">
<style type="text/css">
	.st0{fill:#343635;}
	.st1{fill:#F3D650;}
	.st2{fill:#E8A149;}
	.st3{fill:#F1F1F2;}
</style>
<metadata>
	<sfw  xmlns="&ns_sfw;">
		<slices></slices>
		<sliceSourceBounds  bottomLeftOrigin="true" height="328.2" width="374.9" x="433.8" y="-4236.7"></sliceSourceBounds>
	</sfw>
</metadata>
<g>
	<ellipse class="st0" cx="187.5" cy="318.5" rx="117.8" ry="9.7"/>
</g>
<g>
	<g>
		<path class="st1" d="M313.4,93.7c-4.7-8.9-1.4-20,7.5-24.7L284,0L0,151.7l36.9,69c8.9-4.7,20-1.4,24.7,7.5
			c4.7,8.9,1.4,20-7.5,24.7l36.9,69l284-151.7l-36.9-69C329.2,106,318.1,102.6,313.4,93.7z"/>
	</g>
	<g>
		<path class="st2" d="M292.9,33.4l-4.2-7.9l-9.2,4.9l-4.7-8.7L23.1,156.1l4.7,8.7l-9.2,4.9l4.2,7.9l9.2-4.9l4.4,8.3l-9.2,4.9
			l4.2,7.9l9.2-4.9l4.4,8.3l-9.2,4.9l4.2,7.9l9.2-4.9l0-0.1h0c12.8-6.8,28.6-2,35.5,10.8c6.8,12.8,2,28.6-10.8,35.5h0l-0.1-0.1
			l-9.2,4.9l4.2,7.9l9.2-4.9l4.4,8.3l-9.2,4.9l4.2,7.9l9.2-4.9l4.4,8.3l-9.2,4.9l4.2,7.9l9.2-4.9l4.7,8.8l251.8-134.5l-4.7-8.8
			l9.2-4.9l-4.2-7.9l-9.2,4.9l-4.4-8.3l9.2-4.9l-4.2-7.9l-9.2,4.9l-4.4-8.3l9.2-4.9l-4.2-7.9l-9.2,4.9l0.1,0.1
			c-12.8,6.8-28.6,2-35.5-10.8c-6.8-12.8-2-28.6,10.8-35.5l0,0.1l9.2-4.9l-4.2-7.9l-9.2,4.9l-4.4-8.3l9.2-4.9l-4.2-7.9l-9.2,4.9
			l-4.4-8.3L292.9,33.4z"/>
	</g>
	<g>
		<path class="st3" d="M281.6,71.7l-16-30L44.9,159.6l16,30c16.7-8.9,29.1,1.9,38,18.6c8.9,16.7,11,33-5.7,42l16,30L330,162.3
			l-16-30c-16.7,8.9-29.1-1.9-38-18.6C267,97,264.9,80.7,281.6,71.7z"/>
	</g>
	<g>
		
			<rect x="150.6" y="122.5" transform="matrix(0.8821 -0.471 0.471 0.8821 -66.8674 93.3746)" class="st2" width="5" height="115.5"/>
	</g>
	<g>
		
			<rect x="157.4" y="170" transform="matrix(0.8821 -0.4711 0.4711 0.8821 -55.1762 124.4442)" class="st2" width="127.2" height="5"/>
	</g>
	<g>
		<polygon class="st2" points="96.7,144.9 108.5,153.4 122.2,148.5 117.8,162.3 126.7,173.8 112.1,173.9 104,185.9 99.4,172.1 
			85.4,168.1 97.1,159.5 		"/>
	</g>
	<g>
		<g>
			<path class="st2" d="M229.3,193.6c-0.8-1.5-1.3-2.8-1.5-3.9c-0.2-1.1-0.1-2.1,0.2-2.9c0.3-0.8,1-1.5,1.9-2c0.7-0.4,1.4-0.6,2-0.6
				c0.7,0,1.3,0.2,1.9,0.5c0.6,0.3,1.2,0.8,1.8,1.5c0.6,0.6,1.2,1.6,1.9,2.9c0.8,1.5,1.3,2.8,1.5,3.9c0.2,1.1,0.1,2.1-0.2,2.9
				c-0.3,0.8-1,1.5-1.9,2c-1.2,0.7-2.5,0.7-3.6,0.2C231.9,197.5,230.6,196,229.3,193.6z M230.9,192.7c1.1,2.1,2.1,3.4,3,3.8
				c0.9,0.4,1.7,0.5,2.4,0.1c0.7-0.4,1.1-1.1,1.3-2c0.1-1-0.4-2.5-1.5-4.6c-1.1-2.1-2.1-3.4-3-3.8c-0.9-0.4-1.7-0.5-2.4-0.1
				c-0.7,0.4-1.1,1-1.2,1.8C229.3,189,229.8,190.6,230.9,192.7z"/>
		</g>
		<g>
			<path class="st2" d="M250.2,188.7l0.8,1.5l-8.5,4.5c-0.2-0.4-0.3-0.8-0.4-1.2c-0.1-0.7-0.1-1.5,0.1-2.3c0.2-0.8,0.5-1.8,1-3.1
				c0.8-1.9,1.2-3.3,1.4-4.2c0.1-0.9,0-1.7-0.3-2.3c-0.3-0.6-0.8-1-1.5-1.2c-0.7-0.2-1.4-0.1-2.1,0.3c-0.8,0.4-1.2,1-1.5,1.7
				c-0.2,0.7-0.1,1.5,0.3,2.3l-1.7,0.7c-0.5-1.3-0.6-2.4-0.2-3.4c0.4-1,1.2-1.9,2.4-2.5c1.2-0.7,2.4-0.8,3.5-0.5
				c1.1,0.3,1.9,1,2.4,2c0.3,0.5,0.4,1.1,0.5,1.7c0.1,0.6,0,1.3-0.2,2.1c-0.2,0.8-0.6,2-1.2,3.6c-0.5,1.3-0.8,2.2-1,2.6
				c-0.1,0.4-0.2,0.8-0.2,1.2L250.2,188.7z"/>
		</g>
		<g>
			<path class="st2" d="M260.2,183.3l0.8,1.5l-8.5,4.5c-0.2-0.4-0.3-0.8-0.4-1.2c-0.1-0.7-0.1-1.4,0.1-2.3c0.2-0.8,0.5-1.8,1-3.1
				c0.8-1.9,1.2-3.3,1.4-4.2c0.1-0.9,0-1.7-0.3-2.3c-0.3-0.6-0.8-1-1.5-1.2c-0.7-0.2-1.4-0.1-2.1,0.3c-0.8,0.4-1.2,1-1.5,1.7
				c-0.2,0.7-0.1,1.5,0.3,2.3l-1.7,0.7c-0.5-1.3-0.6-2.4-0.2-3.4c0.4-1,1.2-1.9,2.4-2.5c1.2-0.7,2.4-0.8,3.5-0.5
				c1.1,0.3,1.9,1,2.4,2c0.3,0.5,0.4,1.1,0.5,1.7c0.1,0.6,0,1.3-0.2,2.1c-0.2,0.8-0.6,2-1.2,3.6c-0.5,1.3-0.8,2.2-1,2.6
				c-0.1,0.4-0.2,0.8-0.2,1.2L260.2,183.3z"/>
		</g>
		<g>
			<path class="st2" d="M261.3,180.8l1.4-1c0.5,0.6,1,1,1.6,1.2c0.5,0.1,1.1,0,1.7-0.3c0.5-0.3,0.9-0.6,1.1-1
				c0.2-0.4,0.4-0.9,0.4-1.4c0-0.5,0-1.1-0.2-1.8c-0.2-0.7-0.4-1.4-0.8-2.1c0-0.1-0.1-0.2-0.2-0.3c0,0.7-0.3,1.3-0.6,1.9
				c-0.4,0.6-0.9,1.1-1.5,1.4c-1.1,0.6-2.2,0.7-3.3,0.3c-1.1-0.4-2.1-1.2-2.7-2.5c-0.7-1.3-0.9-2.6-0.5-3.8c0.3-1.2,1.1-2.1,2.3-2.7
				c0.8-0.4,1.7-0.6,2.7-0.5c0.9,0.1,1.8,0.4,2.6,1.1c0.8,0.6,1.6,1.8,2.5,3.3c0.9,1.6,1.4,3,1.6,4.2c0.2,1.2,0,2.2-0.4,3.1
				c-0.4,0.9-1.1,1.6-2.1,2.1c-1,0.5-2,0.7-2.9,0.5C262.8,182.4,262,181.8,261.3,180.8z M264.8,171.7c-0.5-0.9-1.1-1.5-1.9-1.8
				c-0.8-0.3-1.5-0.2-2.2,0.1c-0.7,0.4-1.2,1-1.4,1.8c-0.2,0.9-0.1,1.7,0.4,2.6c0.4,0.8,1,1.4,1.8,1.6c0.8,0.2,1.5,0.2,2.2-0.2
				c0.7-0.4,1.2-1,1.4-1.7C265.4,173.4,265.2,172.6,264.8,171.7z"/>
		</g>
		<g>
			<path class="st2" d="M270.9,175.2l1.5-1.1c0.7,0.8,1.3,1.3,2,1.4c0.6,0.2,1.3,0.1,1.9-0.3c0.7-0.4,1.2-1,1.5-1.8
				c0.2-0.8,0.2-1.6-0.3-2.3c-0.4-0.7-0.9-1.2-1.7-1.4c-0.7-0.2-1.5-0.1-2.2,0.3c-0.3,0.2-0.6,0.4-1,0.8l-0.6-1.5
				c0.1,0,0.2-0.1,0.3-0.1c0.7-0.4,1.2-0.9,1.5-1.5c0.4-0.6,0.3-1.3-0.1-2.1c-0.3-0.6-0.8-1-1.4-1.1c-0.6-0.2-1.2-0.1-1.8,0.2
				c-0.6,0.3-1,0.8-1.2,1.4c-0.2,0.6-0.2,1.3,0.1,2.2l-1.7,0.6c-0.4-1.2-0.4-2.2,0-3.2c0.4-0.9,1.1-1.7,2.1-2.2
				c0.7-0.4,1.4-0.6,2.2-0.6c0.8,0,1.4,0.2,2,0.5c0.6,0.4,1,0.8,1.4,1.4c0.3,0.6,0.4,1.1,0.4,1.8c-0.1,0.6-0.3,1.2-0.7,1.8
				c0.9-0.2,1.6-0.2,2.4,0.1c0.7,0.3,1.3,0.9,1.7,1.7c0.6,1.1,0.7,2.3,0.3,3.5c-0.4,1.2-1.2,2.2-2.5,2.8c-1.1,0.6-2.2,0.8-3.4,0.5
				C272.4,176.9,271.5,176.2,270.9,175.2z"/>
		</g>
		<g>
			<path class="st2" d="M281.4,165c-0.8,0.1-1.5,0-2-0.2c-0.6-0.3-1-0.7-1.3-1.3c-0.5-0.9-0.6-1.9-0.3-2.9c0.3-1,1.1-1.8,2.2-2.4
				c1.1-0.6,2.2-0.8,3.2-0.5c1,0.3,1.8,0.9,2.3,1.8c0.3,0.6,0.4,1.2,0.4,1.8c-0.1,0.6-0.4,1.2-0.9,1.8c0.9-0.2,1.8-0.1,2.5,0.3
				c0.7,0.4,1.3,0.9,1.7,1.7c0.6,1.1,0.7,2.2,0.3,3.4c-0.4,1.2-1.2,2.1-2.5,2.8c-1.3,0.7-2.5,0.8-3.7,0.5c-1.2-0.3-2.1-1.1-2.7-2.2
				c-0.4-0.8-0.6-1.7-0.5-2.4C280.3,166.3,280.7,165.6,281.4,165z M282.3,168.7c0.2,0.5,0.6,0.8,1,1.1c0.4,0.3,0.9,0.5,1.5,0.5
				c0.5,0,1.1-0.1,1.5-0.4c0.8-0.4,1.2-1,1.5-1.7c0.2-0.7,0.1-1.5-0.3-2.2c-0.4-0.8-1-1.3-1.8-1.5c-0.8-0.2-1.5-0.1-2.3,0.3
				c-0.7,0.4-1.2,1-1.5,1.7C281.8,167.2,281.9,168,282.3,168.7z M279.6,162.5c0.3,0.6,0.8,1,1.4,1.2c0.6,0.2,1.2,0.1,1.8-0.2
				c0.6-0.3,1-0.8,1.2-1.4c0.2-0.6,0.1-1.2-0.2-1.7c-0.3-0.6-0.8-1-1.4-1.1c-0.6-0.2-1.2-0.1-1.8,0.2c-0.6,0.3-1,0.8-1.2,1.4
				C279.3,161.4,279.3,161.9,279.6,162.5z"/>
		</g>
	</g>
</g>
</svg>
