<?xml version="1.0" encoding="utf-8"?>
<!-- Generator: Adobe Illustrator 22.1.0, SVG Export Plug-In . SVG Version: 6.00 Build 0)  -->
<svg version="1.1" id="Layer_1" xmlns="http://www.w3.org/2000/svg" xmlns:xlink="http://www.w3.org/1999/xlink" x="0px" y="0px"
	 viewBox="0 0 1800 477.7" style="enable-background:new 0 0 1800 477.7;" xml:space="preserve">
<style type="text/css">
	.st0{display:none;}
	.st1{display:inline;}
</style>
<g class="st0">
	<path class="st1" d="M520.2-62.8l0.1,347.7h85V158.2c0-11,5.3-21.9,21.9-21.9s21.9,11,21.9,21.9v126.7c11.4,0,21.9,6.1,21.9,21.9
		s-10.5,21.9-21.9,21.9v89.4c0,14-6.1,21.9-21.9,21.9c-15.8,0-21.9-7.9-21.9-21.9v-89.4H476.4l-0.1-391.6"/>
	<path class="st1" d="M942.8,98.9c24.1,0,43.8,19.7,43.8,43.8l0.1,253.4c0,24.5-18.8,43.8-43.8,43.8H814c-25,0-43.8-19.3-43.8-43.8
		l-0.1-253.4c0-24.1,19.7-43.8,43.8-43.8L942.8,98.9z M942.9,396.1l-0.1-253.4H813.9l0.1,253.4H942.9z"/>
	<path class="st1" d="M1236.6,554.2l-0.1-225.7h-128.9l-0.1-207.8c0-11,5.3-21.9,21.9-21.9c16.7,0,21.9,11,21.9,21.9l0.1,163.9h85
		V157.9c0-11,5.3-21.9,21.9-21.9c16.7,0,21.9,11,21.9,21.9v126.7c11.4,0,21.9,6.1,21.9,21.9s-10.5,21.9-21.9,21.9l0.1,225.7"/>
</g>
<g>
	<g>
		<rect x="0.1" y="0.1" width="866" height="4.5"/>
		<path d="M958.2,475.6c35.6-6,71.1-22,99.7-43.9c11.4-8.7,22-18.4,31.6-29c4.4-3.5,8.7-7.2,12.6-11.3c22.1-23.3,38-55.1,49.5-86.2
			c12.2-24.1,19.4-50.2,18.7-78c1.6-20.3,0.3-40.9-4.6-60.8c-9.4-37.8-32.3-68.2-63.3-91.3c-18.3-13.6-38.4-25.1-59.6-34
			c-5.9-3.5-12-6.6-18.3-9.4C994.2,14.2,957.8,7.6,923.6,3.1c-8.5-1.1-17-1.8-25.4-2.1c-12.9-0.9-25.6-1.2-38.1-0.9
			c-33.2,0.7-67.8,7.2-95.3,26.7c-28.9,20.5-45.2,52.6-52.9,86.5c-0.6,2.8-1.2,5.7-1.8,8.5C672,180.7,651.5,252.7,673,321.4
			c11.2,35.8,32.1,69.8,65.8,87.9c17.4,9.3,36.5,14.8,55.2,20.8c5.8,1.9,11.6,3.7,17.3,5.6c11.3,6.6,22.5,12.6,33.1,18
			C880.4,472,917.9,482.4,958.2,475.6z M1078.9,401.1c-12.8,8.9-27.2,17-42.2,23.9c10.5-7.1,20.7-14.8,30.6-22.6
			c14.2-11.2,28.1-23.6,40.9-37c-6.9,11.2-14.9,21.8-23.7,31.6C1082.6,398.4,1080.7,399.8,1078.9,401.1z M716.2,126.4
			c9-14.2,19.1-27.8,30.5-40c-1.1,1.6-2.1,3.2-3.1,4.8c-11.4,17.7-21.6,36.8-30,56.5C714.2,140.5,715,133.4,716.2,126.4z
			 M1162.4,221.4c-1.4,28-8.4,56.3-19,82.6c0,0.1-0.1,0.2-0.1,0.2c-1.4,2.8-3,5.5-4.6,8.3c3.1-12.4,5.2-25.2,6.3-38
			c7.1-33,5.1-67.5-6.4-99.6c-3.7-15.1-9.3-29.6-17.6-43.3c-0.1-0.2-0.1-0.4-0.2-0.6c-1.8-4.7-3.8-9.3-6-13.8
			c19.2,20.4,34.2,44.5,42.3,72.6C1160.1,200.5,1161.8,211.1,1162.4,221.4z M707.8,245.1c0.6-2.1,1.2-4.2,1.8-6.3
			c5.3,36.5,16,72.4,34.7,104.3c13.4,22.9,30.6,42.4,50.6,58.1c-23.4-13.2-44.1-30.7-59.7-52.9C713.7,317.7,705.9,281.5,707.8,245.1
			z M1138.3,242.2c0.2,9.5,0.1,19-0.6,28.4c-6.2,29.7-19.9,58-39.7,82.1c1.4-2.5,2.8-5.1,4.1-7.7c1.1-1.7,2.2-3.4,3.2-5.2
			c28.1-47.2,36.9-103.7,25.6-156.5c-0.1-2.7-0.3-5.4-0.5-8.1c0.2,0.6,0.5,1.1,0.7,1.7c0.2,0.5,0.4,1.1,0.6,1.6
			C1136.4,199.2,1137.7,220.7,1138.3,242.2z M900.9,431.6c-19.9-1.2-40.1-4.7-59.6-10.7c-7.4-3.1-14.5-6.7-21.5-10.8
			c-3.1-2.2-6-4.5-9-6.8c36.1,21.5,79.4,29.5,121.9,24.6c19.2,1.5,38.6-0.9,56.8-7.9c10.2-3.9,19.8-9.1,28.7-15.2
			c5.7-0.6,11.3-1.6,16.8-2.9c-5.7,3.7-11.5,7.2-17.6,10.4C981,427.8,940.5,434,900.9,431.6z M978.5,29.8
			c14.5,4.4,28.4,10.2,41.6,17.4c-32.5-12.7-67.7-21.9-102.7-20.1c-0.3-0.1-0.5-0.1-0.7-0.2C937.1,25.3,957.9,26.3,978.5,29.8z
			 M1053.4,387.4c-7.3,3.8-15,6.4-23.1,8.2c3.4-2.8,6.6-5.8,9.8-8.8c18.1-12.5,34.4-27.4,47.5-44.6c1.4-1.5,2.8-3.1,4.2-4.6
			c-2.9,8-6.3,15.8-10.6,22.9c-7.5,9-15.7,17.4-24.5,25.1C1055.5,386.2,1054.5,386.8,1053.4,387.4z M802.6,388.5
			c-17.1-12.3-31.9-28-42.8-45.9c6.9,7.6,14.4,14.4,22.4,20.4c5.3,4.9,11,9.5,16.9,13.8c23,16.5,49.5,28,76.8,35.6
			c3.3,1.6,6.7,3.2,10.2,4.6c3.7,1.5,7.4,2.8,11.2,4.1C863.9,419.2,831,409,802.6,388.5z M796.3,75.1c2.6-1.6,5.3-3.2,8-4.6
			c-2.7,1.8-5.3,3.7-7.9,5.6c-0.8,0.6-1.5,1.2-2.3,1.8C794.9,77,795.6,76,796.3,75.1z M795.5,86.1c15.5-12,32.5-23,50.5-31.8
			c7.7-2,15.6-3.6,23.6-4.7c-8.3,2.3-16.3,5.5-24.1,9.7c-1,0.5-1.5,1.3-1.6,2.2c-13,5.9-25.4,13.3-36.8,22
			c-9.5,4.7-18.7,10.1-27.4,16.3c0-0.1,0.1-0.1,0.1-0.2C784.8,94.9,790,90.4,795.5,86.1z M999.3,53.6c-12-3.6-24.2-6.5-36.5-8.7
			c-0.9-0.5-1.7-0.9-2.6-1.4C973.6,45.2,986.7,48.6,999.3,53.6z M1097.3,120.5c3.4,5.6,6.6,11.3,9.4,17.1
			c-7.9-10.8-17.1-20.9-26.6-30.3c-2.4-3.3-4.9-6.5-7.5-9.6c0.7,0.6,1.5,1.1,2.2,1.7C1083,105.7,1090.5,112.8,1097.3,120.5z
			 M1121.5,230.9c0,1.7-0.1,3.3-0.2,5c-0.7,5.4-1.6,10.7-2.5,16.1l0,0c-0.4-8.3-1.6-16.4-3.5-24.5c0.3-5.9,0.4-11.8,0.2-17.8
			c-1-24.7-6.7-48.5-16.6-70.3c7.2,9.3,13.5,19.2,18.2,29.7C1120.8,189.4,1121.9,210.5,1121.5,230.9z M1063.6,101.8
			c4,3.7,8,7.6,12,11.6c9.1,12.7,16.5,26.5,21.7,41.4c5.6,15.8,8.9,32.1,10,48.4c-0.6-1.5-1.3-3-1.9-4.4
			c-3.7-20.2-10.9-39.8-21-57.7c-20-35.4-52.1-63.4-89.2-80c0.4,0.1,0.8,0.2,1.2,0.3C1021.1,69.5,1043.3,82.7,1063.6,101.8z
			 M1001.7,399L1001.7,399c8.2-5.4,16.4-11,24.3-16.8c2.6-1,5.3-2.1,7.8-3.3c-1.7,1.8-3.5,3.5-5.3,5.1
			C1019.7,389.7,1010.7,394.7,1001.7,399z M1076.1,318.1c-2.4,4.5-5,9.1-7.7,13.8c-5.6,7.3-11.8,14.3-18.6,20.7
			c-8.5,8.1-17.6,15.4-27,22.3c-9.3,3.6-18.8,6.4-28.5,8.3c21.5-11,39.8-27.1,54.5-46.4c9.1-9.2,16.9-19.7,23.2-31.5
			c18.1-34.2,22.7-75.1,16.4-113c-0.3-2-0.7-3.9-1.1-5.8c10.6,38.9,8.3,81.3-5.6,120c-0.2,0.6-0.5,1.3-0.7,1.9
			C1079.5,311.7,1077.8,314.9,1076.1,318.1z M986.7,399.3c-11.3-0.1-22.5-0.7-33-0.9c-2.3-0.1-4.6-0.1-6.9-0.2
			c2.8-0.4,5.5-0.9,8.2-1.4c4-0.7,7.9-1.7,11.8-2.7c4.5-0.1,9-0.3,13.5-0.7c7-0.6,14-1.8,20.9-3.4
			C996.5,393.1,991.7,396.3,986.7,399.3z M762.4,214.1c-2.1-21,2.1-41.8,17-60.6c3.4-4.3,7-8.3,10.8-12.2
			c-7,19.3-11.1,39.8-13.8,60.3c-2.4,18.5-3.6,37.6-1.9,56.4c-4.8-11.2-8.6-22.7-10.7-34.2C763.3,220.6,762.9,217.4,762.4,214.1z
			 M786.2,281.4c-10.7-39.5-4.7-85.6,6.2-124.1c2.7-9.7,6.4-18.9,10.7-27.7c18-14.6,39.2-25.6,61-32.3c66.7-20.3,151,2.1,189.9,62.8
			c20.1,31.4,19.3,69.3,13.9,104.9c-3.6,23.3-10.2,47.7-25,66c-30.3,30.9-74.7,46.8-119.7,43.3C864.9,369.7,815,331,786.2,281.4z
			 M1013.2,101.7c31.4,18.1,56.1,45.7,64.9,81.4c5.8,23.7,4.9,48.7-0.4,72.5c4.1-31.8,3.4-65-12.5-93.6
			c-37.1-66.9-127.2-93.4-198-74c-19,5.2-37.5,13.5-54.1,24.5c6.9-10.5,15-20.1,24-28.6c20.1-7,42-9.7,63.3-10
			C939.4,73.3,979.1,82,1013.2,101.7z M817.4,92.8c-0.1,0.1-0.2,0.2-0.3,0.4c-7.9,9.5-14.3,19.8-19.6,30.7
			c-7.7,6.4-14.8,13.3-21.2,20.9c-6,7.1-11.3,14.9-15.3,23.2c0.3-4.8,0.8-9.6,1.5-14.3c1.4-2.9,2.8-5.7,4.3-8.5
			C779,122.5,796.4,105.3,817.4,92.8z M835.5,348.9c-0.7-0.4-1.3-0.8-2-1.2c-12.2-7.8-21.9-17.2-29.5-27.8
			C813.5,330.6,824.1,340.4,835.5,348.9z M936.5,384.5c-4.5-0.7-9.1-1.5-13.6-2.4c30.9,2.3,62.4-4,89.6-18.3
			c-0.2,0.2-0.4,0.4-0.7,0.5c-14,10.6-29.8,17.6-46.4,22C955.8,386.6,946.2,386,936.5,384.5z M1003.7,80.7c4,3.3,8,6.6,11.9,10.1
			C989.8,75.4,960.8,66,931,62.6c10.3,0,20.6,0.9,30.7,2.9C976.5,68.5,990.6,73.7,1003.7,80.7z M740.8,249.8
			c-0.1-24.8,4.4-50.4,12.8-74.3c-0.1,5.5,0,10.9,0.2,16.4c-0.1,0.8-0.2,1.6-0.3,2.4c-1.7,17.6,2.4,35.6,8.1,52.2
			c7.7,34.5,20.7,69,40.2,98.6c-12.3-10.8-23.4-23-32.9-36.3C756.4,291.1,745.9,271,740.8,249.8z M796.6,322.7
			c16.2,22.5,40.4,37.4,66.6,48.2c23,9.5,47.3,17.3,72.2,21c-9.3,1-18.8,1.4-28.1,1.4c-2,0-4.1,0-6.1-0.1
			c-19.2-3.6-37.8-9.4-55.7-18.5c-7.6-3.9-14.9-8.2-22-12.9C813.2,349.8,804.3,336.6,796.6,322.7z M854,387c-1.3-0.3-2.6-0.7-4-1
			c-1.3-0.6-2.7-1.3-4-1.9c-0.7-0.6-1.3-1.1-2-1.7C847.3,384,850.7,385.6,854,387z M900.7,404.1c-4.5-1.2-9-2.5-13.4-3.9
			c4.6,0.4,9.3,0.6,13.9,0.7c23.9,4.2,48.4,5.1,72.8,5.2c-5.1,2.4-10.3,4.5-15.7,5.9C938.9,412.6,919.1,409.1,900.7,404.1z
			 M875.2,58.1c34.7-9.3,71-6.9,104.1,4.9c0.4,0.3,0.8,0.5,1.2,0.8c-24.2-7.7-50.3-10.1-76.8-6.5c-11,1.5-22.2,3.6-33.3,6.4
			c-3.1,0.5-6.2,1-9.2,1.6c3.7-2.3,7.4-4.4,11.3-6.4C873.4,58.6,874.3,58.3,875.2,58.1z M745.5,287.8c-0.5-2-1-4-1.4-6
			c7.9,16.7,18.5,32.3,30.1,46c13,15.3,28.1,28.8,44.8,40c0.8,1,1.7,1.9,2.5,2.9C789.2,350.7,762.2,323.5,745.5,287.8z M770.9,119.8
			c0.7-1.9,1.4-3.7,2.1-5.5c2.3-1.9,4.6-3.8,7-5.6C776.9,112.2,773.8,115.9,770.9,119.8z M737.6,161.6c5.6-13.7,13.9-25.8,24-36.4
			c-1.6,5.1-3,10.2-4.1,15.4c-1.3,2.3-2.5,4.6-3.6,7c-0.9,1.7-1.7,3.5-2.5,5.3c-13.8,24-23.4,50.7-21.4,78.3
			c0.2,2.6,0.5,5.3,0.9,7.9c0,0.7-0.1,1.4-0.1,2.1C726.1,214.4,727.4,186.5,737.6,161.6z M775.1,345c-3.7-4.2-7-8.6-10-13.1
			c9.6,11.6,20.5,22.1,32.5,31.4c-5.8-3.7-11.4-7.8-16.8-12.2C778.8,349.1,776.9,347.1,775.1,345z M1071.7,346.1
			c3.8-6.4,7.2-13,10.3-19.7c1.9-2.8,3.8-5.7,5.6-8.7c11.1-18.5,19-38.7,23.5-59.7c-0.5,29.8-12.7,57-31.2,80.2
			C1077.4,341,1074.6,343.6,1071.7,346.1z M1074.2,89.7c-8.4-6.1-17.3-11.6-26.6-16.5c-8.5-6.8-17.6-12.9-27.4-18
			c12.6,5.1,24.9,10.9,36.7,17.7C1063,78,1068.8,83.7,1074.2,89.7z M943,35.5c-0.4-0.2-0.9-0.4-1.3-0.6c2.2,0.2,4.3,0.4,6.5,0.7
			C946.4,35.6,944.7,35.5,943,35.5z M918.1,34.4c2.2,0.6,4.4,1.3,6.5,2c-6,0.6-12,1.6-17.9,2.9c-8.2-0.1-16.5,0.3-24.8,1.1
			c2.5-0.7,5.1-1.4,7.7-2C899.1,36.1,908.6,34.9,918.1,34.4z M724.7,248.6c1.6,7.8,3.7,15.3,6.1,22.6c0.1,2.2,0.3,4.5,0.5,6.7
			c-0.7-2.1-1.3-4.2-2-6.3C727.5,264,725.9,256.3,724.7,248.6z M895.6,29.6c-17.9,3.4-35.3,9.6-51.9,17.6c-4.9,1.3-9.8,2.8-14.6,4.5
			c20.4-10.7,42.5-18.2,65.8-22.2C895.1,29.5,895.4,29.6,895.6,29.6z M775.7,93.4c-14.1,13.4-26.1,28.4-35.9,45
			c10.8-19.1,24.1-36.2,39.5-50.9C778.1,89.4,776.9,91.4,775.7,93.4z M894.7,442.7c13.2,1.6,26.7,2,40.4,0.9
			c28.4-2.2,56-9.9,81.3-22.4c7.6-3.1,14.9-6.5,22.1-10.4c-3.3,2.5-6.7,5-10.2,7.3C988.4,444.9,940.3,452.1,894.7,442.7z M801.1,60
			c-7.9,5.5-15.3,11.5-22.4,18c-6.2,4.6-12,9.7-17.5,15.2c7.5-9.2,16.2-17.8,26.1-25.5c6.6-5.2,13.6-9.9,20.8-14.3
			C805.7,55.6,803.4,57.8,801.1,60z M1119.7,336.5c3.1-4.9,6-10,8.6-15.1c-1.6,5.1-3.4,10.1-5.4,15c-8.5,11.3-18,22-28.1,31.9
			C1104,358.6,1112.4,348,1119.7,336.5z M918.2,10.9c4.3,0.6,8.5,1.2,12.8,1.9c-2.8,0-5.7,0.1-8.5,0.2c-41.9-2-83.5,5.9-120.2,23.9
			c6.4-4.7,13.1-9,20.1-12.8c23.8-12.6,49.7-16.3,75.8-15.4C905,9.3,911.6,10,918.2,10.9z M793.5,48.8c16-9,33.4-15.8,51.2-20.5
			c-1.2,0.4-2.3,0.8-3.5,1.3c-31.7,12.1-61.3,30.8-83.8,56.4c-6.3,7.1-11.8,14.7-16.6,22.6c10.3-17.8,22.3-34.7,36.2-49.3
			C782.3,55.5,787.8,52,793.5,48.8z M733.8,121.7c-6.3,12.9-10.9,26.6-14,40.7c-0.9,2.2-1.8,4.4-2.6,6.6c-1.7,4.4-3.3,8.9-4.8,13.4
			c0-3.5,0-6.9,0-10.4C718.1,155.2,725.2,138.1,733.8,121.7z M706.1,205.3c-2.7,12.1-4.5,24.4-5.3,36.7c-1.3,4.6-2.5,9.3-3.5,14
			c-0.3-20.7,2.8-41.4,8.2-61.5C705.6,198.1,705.8,201.7,706.1,205.3z M701.9,293.1c-0.5-5.1-0.5-10.1-0.2-15.1
			c2.4,20.6,8.2,40.5,17.9,59c-7.2-11.5-12.8-24-16.5-37.8c-0.3-1.3-0.6-2.6-1-3.8C702.1,294.7,702,293.9,701.9,293.1z M767.6,394.6
			c31.4,20.3,66.8,38.9,103.8,50.3c-18.4-4.2-36.7-9.5-54.8-15.3c-20.2-12-39.8-25.7-57.3-40.7C762,390.9,764.8,392.8,767.6,394.6z
			 M1115.5,95.9c22.6,21.2,36.1,46.8,42.6,74.1c-12.1-29.6-32.2-54.7-56.7-75.4c-7.1-10.1-15.3-19.5-24.3-28
			C1090.9,75.1,1103.8,84.9,1115.5,95.9z M735.9,68.8c17.5-30.2,46.5-48.8,80-56.6c8.1-1.9,16.3-3.2,24.5-4
			c-8.5,2.7-16.9,6.3-25,10.9c-17.2,9.6-32.2,22.5-45.4,37.1c-15.3,11.1-29.3,24.4-41.5,39.9c-2.7,3.5-5.4,7.1-8.1,10.7
			C724,93.5,729,80.7,735.9,68.8z M776.2,416.4c-19.5-6.5-38.8-14.2-54.4-28c-13.2-11.7-23.3-26.5-30.9-42.3
			c-33-67.6-19.2-141.6,16.2-204.5c-1,9.1-1.6,18.3-1.9,27.5c-3.8,11-7.1,22.1-9.7,33.4c-7.2,31.1-8.5,63.9-0.9,94.9
			c6.2,52.1,46.3,92.1,90.8,122.2C782.4,418.5,779.3,417.4,776.2,416.4z M852.1,448.9c-1.3-0.7-2.7-1.4-4-2.1
			c1.2,0.3,2.5,0.7,3.7,1.1c36,9.8,73.9,16.3,111.1,9.7c9.3-1.7,18.3-4.3,27-7.5c2.7-0.7,5.4-1.5,8.1-2.4
			c19-6.1,37.4-14.4,55.3-23.2c1.3-0.6,2.6-1.3,3.9-2c-0.6,0.5-1.2,1-1.9,1.5c-25.8,20.1-55.8,34.8-87.7,42.1
			C927.4,475.3,888.5,466.8,852.1,448.9z"/>
		<rect x="930.8" y="473.7" width="869.2" height="3.9"/>
	</g>
	<g>
		<path d="M598.6,310.6c0,5.7-0.9,10.1-2.6,13.4c-1.7,3.3-4.1,4.9-7.2,4.9h-37.6v70c0,1.4-0.4,2.5-1.1,3.5c-0.7,0.9-1.9,1.8-3.7,2.4
			c-1.8,0.7-4.1,1.2-6.9,1.5c-2.8,0.3-6.4,0.5-10.9,0.5c-4.2,0-7.8-0.2-10.6-0.5s-5.1-0.9-6.8-1.5c-1.7-0.7-2.8-1.5-3.4-2.4
			s-0.9-2.1-0.9-3.5v-70H370.8c-2,0-3.7-0.3-5.1-0.8s-2.6-1.5-3.7-2.8c-1.1-1.4-1.9-3.3-2.3-5.9s-0.6-5.9-0.6-10
			c0-3.3,0.1-6.2,0.3-8.7c0.2-2.6,0.5-4.9,1-7.1c0.5-2.1,1.2-4.2,2-6.2s1.9-4.1,3.1-6.3L484.2,78.9c0.9-1.4,2.1-2.6,3.8-3.6
			c1.7-1,3.8-1.9,6.4-2.6c2.6-0.7,5.9-1.2,9.7-1.4s8.4-0.4,13.6-0.4c5.8,0,10.8,0.2,15.1,0.6c4.3,0.4,7.7,1,10.4,1.7
			c2.6,0.7,4.6,1.6,6,2.7c1.4,1.1,2.1,2.4,2.1,4v212.4h37.6c2.9,0,5.3,1.5,7.1,4.5C597.7,299.8,598.6,304.4,598.6,310.6z M507,109.7
			h-0.5l-107,182.6H507V109.7z"/>
	</g>
	<g>
		<path d="M1450.8,309.6c0,5.7-0.9,10.1-2.6,13.4s-4.1,4.9-7.2,4.9h-37.6v70c0,1.4-0.4,2.5-1.1,3.5c-0.7,0.9-1.9,1.8-3.7,2.4
			s-4.1,1.2-6.9,1.5s-6.4,0.5-10.9,0.5c-4.2,0-7.8-0.2-10.6-0.5c-2.8-0.3-5.1-0.9-6.8-1.5c-1.7-0.7-2.8-1.5-3.4-2.4
			s-0.9-2.1-0.9-3.5v-70H1223c-2,0-3.7-0.3-5.1-0.8s-2.6-1.5-3.7-2.8c-1.1-1.4-1.9-3.3-2.3-5.9s-0.6-5.9-0.6-10
			c0-3.3,0.1-6.2,0.3-8.7c0.2-2.6,0.5-4.9,1-7.1c0.5-2.1,1.2-4.2,2-6.2s1.9-4.1,3.1-6.3l118.7-202.2c0.9-1.4,2.1-2.6,3.8-3.6
			c1.7-1,3.8-1.9,6.4-2.6c2.6-0.7,5.9-1.2,9.7-1.4c3.8-0.3,8.4-0.4,13.6-0.4c5.8,0,10.8,0.2,15.1,0.6c4.3,0.4,7.7,1,10.4,1.7
			c2.6,0.7,4.6,1.6,6,2.7c1.4,1.1,2.1,2.4,2.1,4v212.4h37.6c2.9,0,5.3,1.5,7.1,4.5C1449.9,298.8,1450.8,303.4,1450.8,309.6z
			 M1359.2,108.6h-0.5l-107,182.7h107.5V108.6z"/>
	</g>
</g>
</svg>
