<?xml version="1.0" encoding="utf-8"?>
<!-- Generator: Adobe Illustrator 22.1.0, SVG Export Plug-In . SVG Version: 6.00 Build 0)  -->
<svg version="1.1" id="Layer_1" xmlns="http://www.w3.org/2000/svg" xmlns:xlink="http://www.w3.org/1999/xlink" x="0px" y="0px"
	 viewBox="0 0 90 90" style="enable-background:new 0 0 90 90;" xml:space="preserve">
<g>
	<g>
		<path d="M45,2.1C21.3,2.1,2.1,21.4,2.1,45S21.3,87.9,45,87.9S87.9,68.7,87.9,45S68.7,2.1,45,2.1 M45,90C20.2,90,0,69.8,0,45
			S20.2,0,45,0s45,20.2,45,45S69.8,90,45,90"/>
	</g>
</g>
<g>
	<path d="M72.6,23c-0.1-0.3-0.4-0.5-0.7-0.5l-10.1-3.2v2.3l8.4,2.7l-8.4,26.5v7.4l10.9-34.3C72.7,23.6,72.7,23.3,72.6,23z"/>
	<path d="M36,44c0,5.2,4.2,9.5,9.5,9.5c5.2,0,9.5-4.2,9.5-9.5s-4.2-9.5-9.5-9.5C40.2,34.5,36,38.8,36,44z M45.4,36.8
		c4,0,7.2,3.2,7.2,7.2s-3.2,7.2-7.2,7.2c-4,0-7.2-3.2-7.2-7.2S41.5,36.8,45.4,36.8z"/>
	<path d="M41.1,44.6h0.7c0.2,1.7,1.1,2.6,2.4,2.6c3.1,0,2.4-4.6,4-4.6c0.5,0,1,0.4,1,1.4c0,0.7-0.3,1.4-0.7,1.8
		c-0.2,0.2-0.3,0.4-0.3,0.5c0,0.4,0.3,0.7,0.7,0.7c0.2,0,0.3-0.1,0.4-0.1c0.6-0.4,1-1.3,1.1-2.3h0.7c0.3,0,0.6-0.3,0.6-0.6
		c0-0.3-0.3-0.6-0.6-0.6h-0.7c-0.2-1.6-1.1-2.3-2.3-2.3c-3,0-2.2,4.6-4,4.6c-0.8,0-1.2-0.6-1.2-1.7c0-0.9,0.4-1.5,1-2.1
		c0.1-0.1,0.3-0.3,0.3-0.6c0-0.4-0.3-0.7-0.7-0.7c-0.1,0-0.3,0-0.4,0.1c-0.7,0.4-1.3,1.4-1.5,2.6h-0.7c-0.3,0-0.6,0.3-0.6,0.6
		C40.5,44.4,40.8,44.6,41.1,44.6z"/>
	<path d="M66.7,81.3c-4.2,0-10.5-0.4-13.9-2.6c-0.1,0.2-0.1,0.4-0.1,0.6c0,4.1,12.6,4.2,14,4.2c0.1,0,0.4,0,0.8,0
		c0.4-0.8,1.6-1.5,1.8-2.3C68.4,81.3,67.5,81.3,66.7,81.3z"/>
	<path d="M66.7,72.4c-2.6,0-6.1-0.2-9.1-0.8c-0.1,0-0.1,0-0.2,0c-0.2,0-0.4-0.1-0.6-0.1c-0.1,0-0.2,0-0.2-0.1
		c-0.2-0.1-0.4-0.1-0.6-0.2c-0.1,0-0.2,0-0.2-0.1c-0.2-0.1-0.4-0.1-0.6-0.2c0,0-0.1,0-0.1,0c-0.3-0.1-0.5-0.2-0.7-0.3
		c0,0-0.1,0-0.1-0.1c-0.5-0.2-0.9-0.4-1.3-0.7c-0.1,0.2-0.1,0.3-0.1,0.5h0c0,0,0,0.1,0,0.1c0,0.1,0,0.2,0,0.3c0,0.1,0,0.2,0.1,0.3
		c0,0,0,0,0,0c1.1,3.5,12.5,3.6,13.9,3.6c1.4,0,14-0.1,14-4.2c0-0.2,0-0.4-0.1-0.6C77.2,72,71,72.4,66.7,72.4z"/>
	<path d="M66.7,61.8c-0.4,0-1.5,0-3,0.1l0,0c-0.2,0-0.4,0-0.6,0l0,0c-4.2,0.3-10.3,1.2-10.3,4c0,4.1,12.6,4.2,14,4.2
		c1.4,0,14-0.1,14-4.2C80.7,62,68.2,61.8,66.7,61.8z M66.7,68c-6.6,0-10.8-1.2-11.7-1.9c0.8-0.8,5.1-1.9,11.7-1.9
		c6.6,0,10.8,1.2,11.7,1.9C77.6,66.8,73.4,68,66.7,68z"/>
	<path d="M78,35L65.1,55.5l-1.3,4.2c0.5,0,0.9,0,1.4,0l15.3-24.3c0.2-0.2,0.2-0.6,0.1-0.8c-0.1-0.3-0.2-0.5-0.5-0.7l-6.8-4.3
		l-0.7,2.2L78,35z"/>
	<path d="M48.5,60.2c0.6,0,1.1-0.5,1.1-1.1c0-0.6-0.5-1.1-1.1-1.1h-5.9c-0.6,0-1.1,0.5-1.1,1.1c0,0.6,0.5,1.1,1.1,1.1H48.5z"/>
	<path d="M55.2,59.1c0-0.6-0.5-1.1-1.1-1.1h-1.5c-0.6,0-1.1,0.5-1.1,1.1c0,0.6,0.5,1.1,1.1,1.1h1.5C54.7,60.2,55.2,59.7,55.2,59.1z"
		/>
	<path d="M37,60.2h1.5c0.6,0,1.1-0.5,1.1-1.1c0-0.6-0.5-1.1-1.1-1.1H37c-0.6,0-1.1,0.5-1.1,1.1C35.9,59.7,36.4,60.2,37,60.2z"/>
	<path d="M48.5,30.1c0.6,0,1.1-0.5,1.1-1.1c0-0.6-0.5-1.1-1.1-1.1h-5.9c-0.6,0-1.1,0.5-1.1,1.1c0,0.6,0.5,1.1,1.1,1.1H48.5z"/>
	<path d="M54.1,27.9h-1.5c-0.6,0-1.1,0.5-1.1,1.1c0,0.6,0.5,1.1,1.1,1.1h1.5c0.6,0,1.1-0.5,1.1-1.1C55.2,28.4,54.7,27.9,54.1,27.9z"
		/>
	<path d="M38.5,27.9H37c-0.6,0-1.1,0.5-1.1,1.1c0,0.6,0.5,1.1,1.1,1.1h1.5c0.6,0,1.1-0.5,1.1-1.1C39.6,28.4,39.1,27.9,38.5,27.9z"/>
	<path d="M66.7,76.9c-4.2,0-10.5-0.4-13.9-2.6c-0.1,0.2-0.1,0.4-0.1,0.6c0,4.1,12.6,4.2,14,4.2c0.7,0,3.7,0,6.5-0.4
		c0.8-0.9,1.7-1.7,2.4-2.6C72.8,76.8,69.5,76.9,66.7,76.9z"/>
	<path d="M37.3,79.4c0-0.2,0-0.4-0.1-0.6c-3.4,2.2-9.6,2.6-13.9,2.6c-0.8,0-1.6,0-2.4,0c1.2,1,2.4,1.6,3.6,2.3
		C28,83.4,37.3,82.9,37.3,79.4z"/>
	<path d="M23.3,74.6c1.4,0,14-0.1,14-4.2c0-0.2,0-0.4-0.1-0.6c-3.4,2.2-9.6,2.6-13.9,2.6S12.8,72,9.4,69.8c-0.1,0.2-0.1,0.4-0.1,0.6
		C9.3,74.5,21.8,74.6,23.3,74.6z"/>
	<path d="M24.8,59.6c0.4,0,0.9,0,1.4,0l-1.3-4.2L12,35l5.3-3.4l-0.7-2.2l-6.8,4.3c-0.3,0.2-0.4,0.4-0.5,0.7c-0.1,0.3,0,0.6,0.1,0.8
		L24.8,59.6z"/>
	<path d="M28.8,59.9c0.1,0,0.2,0,0.4,0v-6.3l-9.3-29.4l9.3-2.9V19l-11,3.5c-0.3,0.1-0.5,0.3-0.7,0.5c-0.1,0.3-0.2,0.6-0.1,0.8
		L28.8,59.9z"/>
	<path d="M33.7,17.7h23.4v42.8c0.7-0.2,1.5-0.3,2.2-0.4V16.6c0-0.6-0.5-1.1-1.1-1.1H32.6c-0.6,0-1.1,0.5-1.1,1.1v43.7
		c0.8,0.1,1.5,0.3,2.2,0.5V17.7z"/>
	<path d="M23.3,70.2c1.4,0,14-0.1,14-4.2c0-2.8-6.1-3.8-10.3-4l0,0c-0.2,0-0.4,0-0.6,0l0,0c-1.5-0.1-2.6-0.1-3-0.1
		c-1.4,0-14,0.1-14,4.2C9.3,70.1,21.8,70.2,23.3,70.2z M23.3,64.1c6.6,0,10.8,1.2,11.7,1.9c-0.8,0.8-5.1,1.9-11.7,1.9
		c-6.6,0-10.8-1.2-11.7-1.9C12.4,65.2,16.6,64.1,23.3,64.1z"/>
	<path d="M37.1,74.3c-3.4,2.2-9.6,2.6-13.9,2.6c-2.7,0-6.2-0.2-9.3-0.9c0.7,1.2,1.6,2,2.9,2.7c3,0.4,5.8,0.4,6.4,0.4
		c1.4,0,14-0.1,14-4.2C37.3,74.7,37.2,74.5,37.1,74.3z"/>
	<path d="M51.1,72.6c-0.4-0.6-0.6-1.3-0.6-2.1c0,0,0-0.1,0-0.1H39.5c0,0,0,0.1,0,0.1c0,0.8-0.2,1.5-0.6,2.1H51.1z"/>
</g>
</svg>
