<?xml version="1.0" encoding="utf-8"?>
<!-- Generator: Adobe Illustrator 22.1.0, SVG Export Plug-In . SVG Version: 6.00 Build 0)  -->
<svg version="1.1" id="Layer_1" xmlns="http://www.w3.org/2000/svg" xmlns:xlink="http://www.w3.org/1999/xlink" x="0px" y="0px"
	 viewBox="0 0 40.2 50" style="enable-background:new 0 0 40.2 50;" xml:space="preserve">
<style type="text/css">
	.st0{display:none;fill:#FFFFFF;}
	.st1{display:none;}
	.st2{display:inline;}
	.st3{fill:#FFFFFF;}
	.st4{fill:#030303;}
	.st5{fill:#010101;}
</style>
<ellipse class="st0" cx="20.1" cy="18.9" rx="24.9" ry="25"/>
<g>
	<g class="st1">
		<g class="st2">
			<circle class="st3" cx="20.1" cy="25" r="24.3"/>
			<path class="st4" d="M20.1,50c-13.8,0-25-11.2-25-25S6.3,0,20.1,0s25,11.2,25,25S33.9,50,20.1,50z M20.1,1.3
				C7,1.3-3.6,11.9-3.6,25S7,48.7,20.1,48.7S43.8,38.1,43.8,25S33.2,1.3,20.1,1.3z"/>
		</g>
		<g class="st2">
			<g>
				<path class="st5" d="M20.1,40.9c0.7,0,1.2,0.6,1.2,1.2s-0.6,1.2-1.2,1.2c-0.7,0-1.2-0.6-1.2-1.2S19.4,40.9,20.1,40.9z
					 M20.1,44.7c0.7,0,1.2,0.6,1.2,1.2c0,0.7-0.6,1.2-1.2,1.2c-0.7,0-1.2-0.6-1.2-1.2C18.9,45.2,19.4,44.7,20.1,44.7z"/>
			</g>
		</g>
	</g>
	<g>
		<path class="st5" d="M15.5,50.5l11.9-0.6c3.3-2,10-3.8,12.4-7.5c1.1-1.8-0.4-3.7-2.2-4.9c-2.9-1.9-5.5-3.4-7.2-4.3l0,0
			c-1.6,1.8-3.6,3.5-6.3,4.5c-1.2,0.4-2.7,0.7-4,0.7s-2.7-0.2-4-0.7c-2.7-0.9-4.7-2.6-6.3-4.5c-1.7,0.9-4.3,2.4-7.2,4.3
			c-1.8,1.1-2.5,3-2.5,5.2l0,0C2.8,45.4,10.2,48.6,15.5,50.5z"/>
		<path class="st5" d="M7,22.4c0.3,1,0.8,2.9,2,4.2c0.9,3.5,3.6,7.4,7.9,8.9c1,0.3,2.1,0.6,3.1,0.6c1.1,0,2.2-0.2,3.3-0.6
			c4.3-1.6,7-5.5,7.9-8.9c1.2-1.1,1.8-3,2-4.2c0.4-1.7,0.9-3.9-0.3-5.6c0,0-0.1-0.1-0.1-0.2c0.6-2.7,1.6-10.5-4.3-14.1
			c0,0,1.2-1,1.1-2.5c0,0-7,0.8-10.3,0.1s-7,1.9-7.6,4.5c0,0,0,0-0.1,0c-0.6,0-6,0.6-4.5,10.2c0,0.6,0.1,1.1,0.2,1.7
			c0,0-0.1,0.1-0.1,0.2C6,18.4,6.4,20.7,7,22.4z M10,17.9h0.1l0,0c0,0,0.7-10,8.8-6.5c4.2,1.8,7.3,1.7,9.3,1.2
			c2.6,1.8,1.8,4.7,1.7,5.2l0,0H30c0.8,0,1.7,0.7,0.8,3.8c-0.7,2.5-1.3,3.3-1.8,3.3c-0.4,2.9-2.8,6.7-6.5,8.1
			c-0.8,0.2-1.6,0.4-2.4,0.4c-0.8,0-1.7-0.1-2.4-0.4c-3.8-1.3-6.1-5.2-6.5-8.1c-0.6,0-1.1-0.8-1.8-3.3C8.3,18.4,9.2,17.9,10,17.9z"
			/>
	</g>
</g>
</svg>
