<?xml version="1.0" encoding="utf-8"?>
<!-- Generator: Adobe Illustrator 22.1.0, SVG Export Plug-In . SVG Version: 6.00 Build 0)  -->
<svg version="1.1" id="Layer_1" xmlns="http://www.w3.org/2000/svg" xmlns:xlink="http://www.w3.org/1999/xlink" x="0px" y="0px"
	 viewBox="0 0 50 50" style="enable-background:new 0 0 50 50;" xml:space="preserve">
<style type="text/css">
	.st0{display:none;fill:#FFFFFF;}
	.st1{fill:#FFFFFF;}
	.st2{fill:#030303;}
	.st3{fill:#010101;}
</style>
<ellipse class="st0" cx="25" cy="18.9" rx="24.9" ry="25"/>
<g>
	<g>
		<g>
			<circle class="st1" cx="25" cy="25" r="24.3"/>
			<path class="st2" d="M25,50C11.2,50,0,38.8,0,25C0,11.2,11.2,0,25,0s25,11.2,25,25C50,38.8,38.8,50,25,50z M25,1.3
				C11.9,1.3,1.3,11.9,1.3,25c0,13.1,10.6,23.7,23.7,23.7S48.7,38.1,48.7,25C48.7,11.9,38.1,1.3,25,1.3z"/>
		</g>
		<g>
			<g>
				<path class="st3" d="M25,40.9c0.7,0,1.2,0.6,1.2,1.2s-0.6,1.2-1.2,1.2c-0.7,0-1.2-0.6-1.2-1.2S24.3,40.9,25,40.9z M25,44.7
					c0.7,0,1.2,0.6,1.2,1.2c0,0.7-0.6,1.2-1.2,1.2c-0.7,0-1.2-0.6-1.2-1.2C23.8,45.2,24.3,44.7,25,44.7z"/>
			</g>
		</g>
	</g>
	<g>
		<path class="st3" d="M21,49l10.6-0.5c2.9-1.8,8.9-3.4,11-6.7c1-1.6-0.4-3.3-2-4.4c-2.6-1.7-4.9-3-6.4-3.8l0,0
			c-1.4,1.6-3.2,3.1-5.6,4c-1.1,0.4-2.4,0.6-3.6,0.6s-2.4-0.2-3.6-0.6c-2.4-0.8-4.2-2.3-5.6-4c-1.5,0.8-3.8,2.1-6.4,3.8
			c-1.6,1-2.2,2.7-2.2,4.6l0,0C9.7,44.5,16.3,47.3,21,49z"/>
		<path class="st3" d="M13.4,24c0.3,0.9,0.7,2.6,1.8,3.7c0.8,3.1,3.2,6.6,7,7.9c0.9,0.3,1.9,0.5,2.8,0.5c1,0,2-0.2,2.9-0.5
			c3.8-1.4,6.2-4.9,7-7.9c1.1-1,1.6-2.7,1.8-3.7c0.4-1.5,0.8-3.5-0.3-5c0,0-0.1-0.1-0.1-0.2c0.5-2.4,1.4-9.3-3.8-12.5
			c0,0,1.1-0.9,1-2.2c0,0-6.2,0.7-9.2,0.1c-3-0.6-6.2,1.7-6.8,4c0,0,0,0-0.1,0c-0.5,0-5.3,0.5-4,9.1c0,0.5,0.1,1,0.2,1.5
			c0,0-0.1,0.1-0.1,0.2C12.5,20.5,12.9,22.5,13.4,24z M16.1,20c0,0,0.1,0,0.1,0l0,0c0,0,0.6-8.9,7.8-5.8c3.7,1.6,6.5,1.5,8.3,1.1
			c2.3,1.6,1.6,4.2,1.5,4.6v0c0,0,0.1,0,0.1,0c0.7,0,1.5,0.6,0.7,3.4c-0.6,2.2-1.2,2.9-1.6,2.9c-0.4,2.6-2.5,6-5.8,7.2
			c-0.7,0.2-1.4,0.4-2.1,0.4c-0.7,0-1.5-0.1-2.1-0.4c-3.4-1.2-5.4-4.6-5.8-7.2c-0.5,0-1-0.7-1.6-2.9C14.6,20.5,15.4,20,16.1,20z"/>
	</g>
</g>
</svg>
