<?xml version="1.0" encoding="utf-8"?>
<!-- Generator: Adobe Illustrator 22.1.0, SVG Export Plug-In . SVG Version: 6.00 Build 0)  -->
<svg version="1.1" id="Layer_1" xmlns="http://www.w3.org/2000/svg" xmlns:xlink="http://www.w3.org/1999/xlink" x="0px" y="0px"
	 viewBox="0 0 50 50" style="enable-background:new 0 0 50 50;" xml:space="preserve">
<style type="text/css">
	.st0{display:none;fill:#FFFFFF;}
	.st1{fill:#FFFFFF;}
	.st2{fill:#030303;}
	.st3{fill:#010101;}
</style>
<ellipse class="st0" cx="25" cy="18.9" rx="24.9" ry="25"/>
<g>
	<g>
		<circle class="st1" cx="25" cy="25" r="24.3"/>
		<path class="st2" d="M25,50C11.2,50,0,38.8,0,25C0,11.2,11.2,0,25,0s25,11.2,25,25C50,38.8,38.8,50,25,50z M25,1.3
			C11.9,1.3,1.3,11.9,1.3,25c0,13.1,10.6,23.7,23.7,23.7S48.7,38.1,48.7,25C48.7,11.9,38.1,1.3,25,1.3z"/>
	</g>
	<g>
		<g>
			<path class="st3" d="M12.8,23.9c0.3,0.9,0.8,2.7,1.9,3.8c0.8,3.2,3.3,6.8,7.3,8.2c1,0.3,2,0.5,3,0.5c1,0,2-0.2,3-0.5
				c4-1.4,6.5-5.1,7.3-8.3c1.1-1.1,1.6-2.9,1.9-3.8c0.4-1.5,0.9-3.7-0.3-5.2c0,0-0.1-0.1-0.1-0.2c0.3-1.9,0.3-3.4,0-4.9
				c-0.5-2-1.5-3.8-3-5.3c-0.8-0.8-1.7-1.6-2.6-2.2c-0.9-0.6-1.8-1.1-2.7-1.4l0,0c-0.8-0.3-1.7-0.5-2.6-0.5c-0.3,0-0.7,0-1,0
				c-2,0-3.7,0.5-5.3,1.4c-1.4,0.8-2.3,1.7-2.8,2.4c-0.7,0.3-1.5,0.7-2.2,1.7c-1.5,2-2,5-1.3,9c0,0-0.1,0.1-0.1,0.2
				C11.9,20.2,12.4,22.4,12.8,23.9z M15.7,19.7c0,0,0.1,0,0.1,0v0c-0.1-0.5-0.8-3.2,1.5-4.8c1.9,0.5,4.8,0.5,8.7-1.2
				c7.5-3.2,8.2,6,8.2,6l0,0c0,0,0.1,0,0.1,0c0.8,0,1.6,0.6,0.7,3.6c-0.7,2.3-1.3,3-1.7,3c-0.4,2.8-2.6,6.3-6.1,7.5
				c-0.7,0.2-1.5,0.4-2.2,0.4c-0.7,0-1.5-0.1-2.2-0.4c-3.4-1.3-5.7-4.7-6.1-7.5c-0.5,0-1.1-0.7-1.7-3C14.1,20.3,14.9,19.7,15.7,19.7
				z"/>
		</g>
		<g>
			<path class="st3" d="M25,49.3c7.8,0,14.6-3.8,18.8-9.6c-3.7-2.7-7.2-4.7-9.3-5.8l0,0c-1.4,1.7-3.3,3.3-5.8,4.1
				c-1.2,0.4-2.5,0.7-3.8,0.7c-1.3,0-2.5-0.2-3.7-0.7c-2.5-0.9-4.4-2.4-5.8-4.1c-2,1.1-5.6,3.1-9.3,5.8C10.4,45.5,17.2,49.3,25,49.3
				z M25,40.9c0.7,0,1.2,0.6,1.2,1.2s-0.6,1.2-1.2,1.2c-0.7,0-1.2-0.6-1.2-1.2S24.3,40.9,25,40.9z M25,44.7c0.7,0,1.2,0.6,1.2,1.2
				c0,0.7-0.6,1.2-1.2,1.2c-0.7,0-1.2-0.6-1.2-1.2C23.8,45.2,24.3,44.7,25,44.7z"/>
		</g>
	</g>
</g>
</svg>
