<?xml version="1.0" encoding="utf-8"?>
<!-- Generator: Adobe Illustrator 24.2.1, SVG Export Plug-In . SVG Version: 6.00 Build 0)  -->
<!DOCTYPE svg PUBLIC "-//W3C//DTD SVG 1.1//EN" "http://www.w3.org/Graphics/SVG/1.1/DTD/svg11.dtd" [
	<!ENTITY ns_extend "http://ns.adobe.com/Extensibility/1.0/">
	<!ENTITY ns_ai "http://ns.adobe.com/AdobeIllustrator/10.0/">
	<!ENTITY ns_graphs "http://ns.adobe.com/Graphs/1.0/">
	<!ENTITY ns_vars "http://ns.adobe.com/Variables/1.0/">
	<!ENTITY ns_imrep "http://ns.adobe.com/ImageReplacement/1.0/">
	<!ENTITY ns_sfw "http://ns.adobe.com/SaveForWeb/1.0/">
	<!ENTITY ns_custom "http://ns.adobe.com/GenericCustomNamespace/1.0/">
	<!ENTITY ns_adobe_xpath "http://ns.adobe.com/XPath/1.0/">
]>
<svg version="1.1" id="Layer_1" xmlns:x="&ns_extend;" xmlns:i="&ns_ai;" xmlns:graph="&ns_graphs;"
	 xmlns="http://www.w3.org/2000/svg" xmlns:xlink="http://www.w3.org/1999/xlink" x="0px" y="0px" viewBox="0 0 5202.7 5202.7"
	 style="enable-background:new 0 0 5202.7 5202.7;" xml:space="preserve">
<style type="text/css">
	.st0{fill:#FFFFFF;}
</style>
<metadata>
	<sfw  xmlns="&ns_sfw;">
		<slices></slices>
		<sliceSourceBounds  bottomLeftOrigin="true" height="5202.7" width="5202.7" x="119.9" y="-5322.6"></sliceSourceBounds>
	</sfw>
</metadata>
<circle cx="2601.3" cy="2601.3" r="2601.3"/>
<path class="st0" d="M3408,2410.6c-277.3-256.1-497.6-461.8-720.5-664.6c-104.7-95.3-184-207-68.1-328.2
	c111-116.1,229-57.7,335.4,41.6c331.8,309.7,668.5,614.1,1002,921.9c178.4,164.6,180.9,270.8,8.2,430.3
	c-338.9,313.1-680.7,623.2-1019.9,936.1c-106.1,97.9-225.7,154.3-334,29c-99.5-115.1-30.2-221.3,69-312.1
	c228-208.4,461.4-438.5,718.6-678.4c-112.2,2-171.4,0.9-233.8,0.8c-590.2-1.1-1180.4-1.4-1770.5-0.2c-134.3,0.3-276.5,2.6-284-177.5
	c-8.2-197.4,141.2-199.4,284.6-199.2c575,0.7,1150.1,0.3,1725.1,0.2C3192.9,2410.6,3265.6,2410.6,3408,2410.6z"/>
</svg>
