<?xml version="1.0" encoding="utf-8"?>
<!-- Generator: Adobe Illustrator 23.0.3, SVG Export Plug-In . SVG Version: 6.00 Build 0)  -->
<!DOCTYPE svg PUBLIC "-//W3C//DTD SVG 1.1//EN" "http://www.w3.org/Graphics/SVG/1.1/DTD/svg11.dtd" [
	<!ENTITY ns_extend "http://ns.adobe.com/Extensibility/1.0/">
	<!ENTITY ns_ai "http://ns.adobe.com/AdobeIllustrator/10.0/">
	<!ENTITY ns_graphs "http://ns.adobe.com/Graphs/1.0/">
	<!ENTITY ns_vars "http://ns.adobe.com/Variables/1.0/">
	<!ENTITY ns_imrep "http://ns.adobe.com/ImageReplacement/1.0/">
	<!ENTITY ns_sfw "http://ns.adobe.com/SaveForWeb/1.0/">
	<!ENTITY ns_custom "http://ns.adobe.com/GenericCustomNamespace/1.0/">
	<!ENTITY ns_adobe_xpath "http://ns.adobe.com/XPath/1.0/">
]>
<svg version="1.1" id="Layer_1" xmlns:x="&ns_extend;" xmlns:i="&ns_ai;" xmlns:graph="&ns_graphs;"
	 xmlns="http://www.w3.org/2000/svg" xmlns:xlink="http://www.w3.org/1999/xlink" x="0px" y="0px" viewBox="0 0 119.5 111.3"
	 style="enable-background:new 0 0 119.5 111.3;" xml:space="preserve">
<style type="text/css">
	.st0{fill:#3AABE1;}
</style>
<metadata>
	<sfw  xmlns="&ns_sfw;">
		<slices></slices>
		<sliceSourceBounds  bottomLeftOrigin="true" height="111.3" width="119.5" x="-34.9" y="-18.9"></sliceSourceBounds>
	</sfw>
</metadata>
<path class="st0" d="M56.3,90.5c-19.4,0-35.1-15.8-35.1-35.1s15.8-35.1,35.1-35.1S91.4,36,91.4,55.3S75.7,90.5,56.3,90.5z
	 M56.3,23.4c-17.6,0-32,14.3-32,32s14.3,32,32,32s32-14.3,32-32S73.9,23.4,56.3,23.4z"/>
<path class="st0" d="M56.3,83.2c-15.4,0-27.8-12.5-27.8-27.8s12.5-27.8,27.8-27.8S84.1,40,84.1,55.3S71.6,83.2,56.3,83.2z
	 M56.3,30.7c-13.6,0-24.7,11.1-24.7,24.7C31.6,68.9,42.7,80,56.3,80S81,68.9,81,55.3C81,41.7,69.9,30.7,56.3,30.7z"/>
<path class="st0" d="M61.5,21.8h-2.9V7.1c0-0.8,0.6-1.5,1.5-1.5h8.7v2.9h-7.3V21.8z"/>
<rect x="58.6" y="88.7" class="st0" width="2.9" height="11.3"/>
<path class="st0" d="M106.4,77.3h-2.9V70H87.6v-2.9h17.4c0.8,0,1.5,0.6,1.5,1.5V77.3z"/>
<path class="st0" d="M50.8,21.8h-2.9v-7.2H41v-2.9h8.3c0.8,0,1.5,0.6,1.5,1.5V21.8z"/>
<rect x="84.8" y="36.1" class="st0" width="16" height="2.9"/>
<rect x="88.7" y="57.2" class="st0" width="18.8" height="2.9"/>
<path class="st0" d="M74.1,13.4c-0.4,0-0.9,0-1.3-0.1c-1.8-0.3-3.3-1.4-4.3-2.8s-1.3-3.3-1-5c0.3-1.8,1.4-3.3,2.8-4.3
	c1.5-1,3.3-1.3,5-1c3.6,0.7,6,4.3,5.3,7.9l0,0C80,11.2,77.2,13.4,74.1,13.4z M74,2.9c-0.7,0-1.5,0.2-2.1,0.6C71.1,4.1,70.5,5,70.3,6
	s0,2,0.6,2.8c0.6,0.8,1.4,1.4,2.4,1.6c2,0.4,4.1-0.9,4.5-3l0,0c0.2-1,0-2-0.6-2.8c-0.6-0.8-1.4-1.4-2.4-1.6
	C74.5,2.9,74.3,2.9,74,2.9z"/>
<path class="st0" d="M60.1,111.1c-3.7,0-6.7-3-6.7-6.7s3-6.7,6.7-6.7c3.7,0,6.7,3,6.7,6.7S63.8,111.1,60.1,111.1z M60.1,100.6
	c-2.1,0-3.8,1.7-3.8,3.8s1.7,3.8,3.8,3.8c2.1,0,3.8-1.7,3.8-3.8S62.2,100.6,60.1,100.6z"/>
<path class="st0" d="M104.9,88.3c-3.7,0-6.7-3-6.7-6.7c0-3.7,3-6.7,6.7-6.7c3.7,0,6.7,3,6.7,6.7C111.6,85.3,108.6,88.3,104.9,88.3z
	 M104.9,77.8c-2.1,0-3.8,1.7-3.8,3.8c0,2.1,1.7,3.8,3.8,3.8c2.1,0,3.8-1.7,3.8-3.8C108.7,79.5,107,77.8,104.9,77.8z"/>
<path class="st0" d="M36.8,19.8c-3.7,0-6.7-3-6.7-6.7c0-3.7,3-6.7,6.7-6.7c3.7,0,6.7,3,6.7,6.7C43.5,16.8,40.5,19.8,36.8,19.8z
	 M36.8,9.3c-2.1,0-3.8,1.7-3.8,3.8c0,2.1,1.7,3.8,3.8,3.8c2.1,0,3.8-1.7,3.8-3.8C40.6,11,38.9,9.3,36.8,9.3z"/>
<path class="st0" d="M11.9,42.8c-3.7,0-6.7-3-6.7-6.7c0-3.7,3-6.7,6.7-6.7s6.7,3,6.7,6.7C18.6,39.8,15.6,42.8,11.9,42.8z M11.9,32.3
	c-2.1,0-3.8,1.7-3.8,3.8c0,2.1,1.7,3.8,3.8,3.8s3.8-1.7,3.8-3.8C15.7,34,14,32.3,11.9,32.3z"/>
<path class="st0" d="M104.9,44.3c-3.7,0-6.7-3-6.7-6.7c0-3.7,3-6.7,6.7-6.7c3.7,0,6.7,3,6.7,6.7C111.6,41.3,108.6,44.3,104.9,44.3z
	 M104.9,33.8c-2.1,0-3.8,1.7-3.8,3.8s1.7,3.8,3.8,3.8c2.1,0,3.8-1.7,3.8-3.8S107,33.8,104.9,33.8z"/>
<path class="st0" d="M112.8,65.3c-3.7,0-6.7-3-6.7-6.7c0-3.7,3-6.7,6.7-6.7c3.7,0,6.7,3,6.7,6.7C119.5,62.3,116.5,65.3,112.8,65.3z
	 M112.8,54.8c-2.1,0-3.8,1.7-3.8,3.8s1.7,3.8,3.8,3.8c2.1,0,3.8-1.7,3.8-3.8S114.9,54.8,112.8,54.8z"/>
<rect x="11.9" y="59.8" class="st0" width="11.5" height="2.9"/>
<path class="st0" d="M23.5,49.7H11.9c-0.8,0-1.5-0.6-1.5-1.5v-7.8h2.9v6.4h10.1V49.7z"/>
<path class="st0" d="M6.7,68C3,68,0,64.9,0,61.3c0-3.7,3-6.7,6.7-6.7c3.7,0,6.7,3,6.7,6.7C13.4,64.9,10.4,68,6.7,68z M6.7,57.5
	c-2.1,0-3.8,1.7-3.8,3.8c0,2.1,1.7,3.8,3.8,3.8c2.1,0,3.8-1.7,3.8-3.8C10.5,59.2,8.8,57.5,6.7,57.5z"/>
<path class="st0" d="M46.4,105.6h-8.7v-2.9H45V86.8h2.9v17.4C47.9,105,47.2,105.6,46.4,105.6z"/>
<path class="st0" d="M32.4,111.3c-3.7,0-6.7-3-6.7-6.7s3-6.7,6.7-6.7s6.7,3,6.7,6.7S36.1,111.3,32.4,111.3z M32.4,100.8
	c-2.1,0-3.8,1.7-3.8,3.8s1.7,3.8,3.8,3.8s3.8-1.7,3.8-3.8S34.5,100.8,32.4,100.8z"/>
<rect x="58.6" y="29.1" class="st0" width="2.9" height="13.9"/>
<rect x="58.6" y="54.1" class="st0" width="2.9" height="27.5"/>
<path class="st0" d="M75.6,62.7h-26v-2.9h24.6V37.6h2.9v23.7C77.1,62.1,76.4,62.7,75.6,62.7z"/>
<rect x="30.7" y="59.8" class="st0" width="8.2" height="2.9"/>
<rect x="31.6" y="46.8" class="st0" width="24.4" height="2.9"/>
<path class="st0" d="M60.1,54.9c-0.4,0-0.9,0-1.3-0.1c-3.6-0.7-6-4.3-5.3-7.9c0.4-1.8,1.4-3.3,2.8-4.3c1.5-1,3.3-1.3,5-1
	c1.8,0.3,3.3,1.4,4.3,2.8c1,1.5,1.3,3.3,1,5C66,52.7,63.2,54.9,60.1,54.9z M60.1,44.4c-0.7,0-1.5,0.2-2.1,0.6
	c-0.8,0.6-1.4,1.4-1.6,2.4c-0.4,2.1,0.9,4.1,3,4.5c2.1,0.4,4.1-0.9,4.5-3l0,0c0.2-1,0-2-0.6-2.8c-0.6-0.8-1.4-1.4-2.4-1.6
	C60.6,44.4,60.3,44.4,60.1,44.4z"/>
<path class="st0" d="M44.1,68c-0.4,0-0.9,0-1.3-0.1c-3.6-0.7-6-4.3-5.3-7.9c0.4-1.8,1.4-3.3,2.8-4.3c1.5-1,3.3-1.3,5-1
	c1.8,0.3,3.3,1.4,4.3,2.8s1.3,3.3,1,5c-0.3,1.8-1.4,3.3-2.8,4.3C46.7,67.6,45.4,68,44.1,68z M44,57.5c-0.7,0-1.5,0.2-2.1,0.6
	c-0.8,0.6-1.4,1.4-1.6,2.4c-0.2,1,0,2,0.6,2.8c0.6,0.8,1.4,1.4,2.4,1.6c1,0.2,2,0,2.8-0.6c0.8-0.6,1.4-1.4,1.6-2.4l0,0
	c0.2-1,0-2-0.6-2.8s-1.4-1.4-2.4-1.6C44.5,57.5,44.3,57.5,44,57.5z"/>
</svg>
