<?xml version="1.0" encoding="utf-8"?>
<!-- Generator: Adobe Illustrator 22.1.0, SVG Export Plug-In . SVG Version: 6.00 Build 0)  -->
<svg version="1.1" id="Layer_1" xmlns="http://www.w3.org/2000/svg" xmlns:xlink="http://www.w3.org/1999/xlink" x="0px" y="0px"
	 viewBox="0 0 50 50" style="enable-background:new 0 0 50 50;" xml:space="preserve">
<style type="text/css">
	.st0{display:none;fill:#FFFFFF;}
	.st1{fill:#FFFFFF;}
	.st2{fill:url(#SVGID_1_);}
	.st3{fill:url(#SVGID_2_);}
	.st4{fill:url(#SVGID_3_);}
</style>
<ellipse class="st0" cx="25" cy="18.9" rx="24.9" ry="25"/>
<g>
	<path class="st1" d="M50,41.8c0,4.5-3.7,8.2-8.2,8.2H8.2C3.7,50,0,46.3,0,41.8V8.3C0,3.8,3.7,0,8.2,0h33.5C46.3,0,50,3.8,50,8.3
		V41.8z"/>
	<g transform="translate(0,-952.36218)">
		<path class="st1" d="M38.2,957.1c2.1,0,3.8,0.8,4.9,2c1.1,1.2,1.7,2.8,1.7,4.4v0c0,0,0,0,0,0.1v27.7c0,3.5-2.9,6.4-6.4,6.4H10.5
			c-3.5,0-6.4-2.9-6.4-6.4V975v-11.4c0-1.6,0.5-3.2,1.6-4.4c1.1-1.2,2.8-2,5-2H38.2z M38.2,958.9H10.6c-1.7,0-2.8,0.6-3.6,1.4
			c-0.8,0.8-1.1,2-1.1,3.1c0,0,0,0,0,0v6.3c0.7-0.8,1.7-1.4,2.9-1.7v-0.9c0-1.3,0.4-2.4,1.1-3.3c0.7-0.9,1.7-1.5,2.8-1.5H36
			c1.1,0,2.2,0.6,2.8,1.5s1.1,2,1.1,3.3v0.4c0.7-0.2,1.3-0.6,1.7-1.1c0.8-0.8,1.2-1.9,1.2-3.1s-0.4-2.3-1.2-3.1
			C40.9,959.5,39.8,958.9,38.2,958.9z M42.9,968c-1.1,1.1-2.7,1.8-4.7,1.8H10.7c-1.8,0-2.9,0.6-3.7,1.6s-1.1,2.3-1.1,3.7v0.7
			c0.2,0.1,0.3,0.2,0.6,0.2c0.4,0.1,0.9,0,1.5,0h10.9c2.1,0,3.7,0.8,4.8,2.1c1.1,1.2,1.6,2.8,1.6,4.4s-0.5,3.2-1.6,4.4
			c-1.1,1.2-2.8,2.1-4.8,2.1H8.1c-0.5,0-1.2,0-1.9-0.2c-0.1,0-0.2,0-0.2-0.1v2.5c0,2.5,2.1,4.6,4.6,4.6h27.8c2.5,0,4.6-2.1,4.6-4.6
			L42.9,968L42.9,968z M18.8,979.5c-1.6,0-2.8,1.3-2.8,2.8c0,1.6,1.3,2.8,2.8,2.8c1.6,0,2.8-1.3,2.8-2.8
			C21.6,980.8,20.3,979.5,18.8,979.5z"/>
		<path class="st1" d="M18.8,981.4c-0.6,0-1,0.4-1,1c0,0.6,0.4,1,1,1c0.6,0,1-0.4,1-1C19.8,981.8,19.3,981.4,18.8,981.4z"/>
	</g>
</g>
<g>
	<linearGradient id="SVGID_1_" gradientUnits="userSpaceOnUse" x1="6.0153" y1="30.0066" x2="24.6696" y2="30.0066">
		<stop  offset="0" style="stop-color:#F15B27"/>
		<stop  offset="0.2648" style="stop-color:#F36D26"/>
		<stop  offset="1" style="stop-color:#F79421"/>
	</linearGradient>
	<path class="st2" d="M6,26.9c0-2.5,0-5.1,0-7.6c0-1.9,1.1-3.2,2.7-3.2c1.6,0,2.7,1.3,2.7,3.2c0,5,0,10,0,15c0,1.9,1,3.4,2.6,3.9
		c1.9,0.6,3.9-0.2,4.8-2c0.9-1.8,0.3-3.9-1.4-5c-0.9-0.5-1.6-1.1-1.7-2.2c-0.1-1.1,0.2-2,1.2-2.6c1-0.6,2-0.6,3,0
		c3.4,1.8,5.2,5.5,4.7,9.5c-0.4,3.6-3.2,6.7-6.8,7.7C11.9,45.1,6.1,40.8,6,34.6C6,32.1,6,29.5,6,26.9z"/>
	<linearGradient id="SVGID_2_" gradientUnits="userSpaceOnUse" x1="15.682" y1="21.689" x2="43.9847" y2="21.689">
		<stop  offset="0" style="stop-color:#F15B27"/>
		<stop  offset="0.2648" style="stop-color:#F36D26"/>
		<stop  offset="1" style="stop-color:#F79421"/>
	</linearGradient>
	<path class="st3" d="M44,33.7c0,2.1-0.7,3.4-2.3,3.6c-1.8,0.2-3.1-1-3.1-3c0-3.6-0.8-7-2.5-10.1c-3.8-7.2-9.7-11.3-17.6-12.6
		c-1.9-0.3-2.9-1.5-2.7-3.2c0.2-1.5,1.6-2.4,3.4-2.2C32.9,7.9,43.7,19.8,44,33.7z"/>
	<linearGradient id="SVGID_3_" gradientUnits="userSpaceOnUse" x1="15.6783" y1="26.5559" x2="34.3797" y2="26.5559">
		<stop  offset="0" style="stop-color:#F15B27"/>
		<stop  offset="0.2648" style="stop-color:#F36D26"/>
		<stop  offset="1" style="stop-color:#F79421"/>
	</linearGradient>
	<path class="st4" d="M34.4,33.5c-0.1,0.7,0,1.3-0.2,1.9c-0.3,1.2-1.6,2-2.9,1.9c-1.2-0.1-2.2-1.1-2.4-2.3c-0.2-1.3-0.2-2.5-0.5-3.7
		c-1.5-5.3-5-8.6-10.4-9.9c-1.2-0.3-2.1-0.9-2.3-2.1c-0.4-1.8,1-3.5,2.9-3.2c1.3,0.2,2.6,0.5,3.8,1.1C29.8,20.1,33.6,25.8,34.4,33.5
		z"/>
</g>
</svg>
