<?xml version="1.0" encoding="utf-8"?>
<!-- Generator: Adobe Illustrator 23.0.3, SVG Export Plug-In . SVG Version: 6.00 Build 0)  -->
<!DOCTYPE svg PUBLIC "-//W3C//DTD SVG 1.1//EN" "http://www.w3.org/Graphics/SVG/1.1/DTD/svg11.dtd" [
	<!ENTITY ns_extend "http://ns.adobe.com/Extensibility/1.0/">
	<!ENTITY ns_ai "http://ns.adobe.com/AdobeIllustrator/10.0/">
	<!ENTITY ns_graphs "http://ns.adobe.com/Graphs/1.0/">
	<!ENTITY ns_vars "http://ns.adobe.com/Variables/1.0/">
	<!ENTITY ns_imrep "http://ns.adobe.com/ImageReplacement/1.0/">
	<!ENTITY ns_sfw "http://ns.adobe.com/SaveForWeb/1.0/">
	<!ENTITY ns_custom "http://ns.adobe.com/GenericCustomNamespace/1.0/">
	<!ENTITY ns_adobe_xpath "http://ns.adobe.com/XPath/1.0/">
]>
<svg version="1.1" id="Isolation_Mode" xmlns:x="&ns_extend;" xmlns:i="&ns_ai;" xmlns:graph="&ns_graphs;"
	 xmlns="http://www.w3.org/2000/svg" xmlns:xlink="http://www.w3.org/1999/xlink" x="0px" y="0px" viewBox="0 0 254.2 483.7"
	 style="enable-background:new 0 0 254.2 483.7;" xml:space="preserve">
<style type="text/css">
	.st0{fill:#FFFFFF;}
	.st1{fill:#D8D8D8;}
	.st2{fill:#F4F4F5;}
	.st3{fill:#C3E6F7;}
	.st4{fill:#C6C6C5;}
	.st5{fill:#2A4867;}
	.st6{fill:#EFBBAB;}
	.st7{fill:#1C3042;}
</style>
<metadata>
	<sfw  xmlns="&ns_sfw;">
		<slices></slices>
		<sliceSourceBounds  bottomLeftOrigin="true" height="483.7" width="254.2" x="139.8" y="-451.9"></sliceSourceBounds>
	</sfw>
</metadata>
<g>
	<g>
		<path class="st0" d="M212,81.3c8.7,3.7,16.6,10.5,19.4,19.5c2.7,8.8,0.4,18.2-2,27.1c-6.2,22.5-13.2,46.7-5.5,68.7
			c4.4,12.6,13.2,23.1,20.3,34.4s12.5,24.9,9,37.8c-7.1-9.5-18.5-15.6-30.4-16.2c2.3-4.8-0.9-10.8-5.5-13.5
			c-4.6-2.7-10.2-2.9-15.5-3.1c-20.3-0.7-45.7,3-66,2.3c-7.9-25.4-10.4-54.8-12-81.3c-1.2-19.9-1.3-42.8,8.5-60.1
			C148.6,68.1,184.9,69.6,212,81.3z"/>
		<path class="st1" d="M226.3,238.4c0.4,0.2,0.7,0.5,1.1,0.7c3.3,2,6.4,4.4,9.5,6.7c2.1,1.6,4.2,3.1,6.1,4.9
			c5.1,4.9,8.8,11.3,10.3,18.1c-1.4-2.5-3.7-4.2-6-5.9c-3.2-2.3-6.3-4.6-9.9-6.3c-2.3-1.1-4.7-1.8-7.2-2.5c-2.1-0.6-4.3-1.1-6.5-1.1
			c-2.2,0-4.5,0.5-6.2,1.9c-0.1-6.9-0.9-13.8-2.4-20.6c-0.4-1.7-0.9-3.6-2.2-4.7c2.1,1.7,4,3.9,6.5,5
			C221.9,235.7,224.1,237,226.3,238.4z"/>
		<path class="st2" d="M218.1,326.9c-0.1,2.1-0.1,4.3,0.8,6.2c1,2.1,4.7,11.2,5.4,13.4c9.9,30.4,6.5,28.7,9.1,47
			c2.4,17,0.2,25.7,0.7,42.8c0.4,12.2,3.4,23.4,5.9,35.2c0.6,2.9,0.9,6.3-0.9,8.6c-1.7,2.1-4.6,2.7-7.2,2.9
			c-4.7,0.3-9.5-0.3-13.9-1.8c-0.5-0.2-1-0.4-1.4-0.8c-0.5-0.5-0.5-1.2-0.6-1.9c-0.2-6.5,3.8-12.3,4.9-18.7
			c0.8-4.4,1.9-8.7,0.9-13.1c-1.1-4.9-3.9-9.1-6.2-13.6c-5.5-10.8-7.6-23-9.6-35c-4.6-27.5-15-71.6-19.6-99.1c0.7,5.8-4.7,13-4,27.3
			c0.3,6.9,2.5,18.3,4.5,24.9c8.8,29.8,2.4,61.6-2.1,92.4c-1,6.8-2,13.6-1.5,20.5c0.3,4.1,0.8,8.7-2.1,11.6
			c-2.1,2.2-5.5,2.5-8.5,2.7c-3.5,0.2-6.9,0.2-10.4,0c-0.4,0-0.8,0-1.1-0.2c-0.9-0.4-1.1-1.6-1.2-2.6c-0.2-3.2-0.4-6.5,0.7-9.5
			c1.3-3.4,4-5.9,6.3-8.7c1.8-2.2,4.5-5.4,4.7-8.4c0.2-2.8-0.6-6-0.8-8.8c-0.5-7.6-1.4-15.1-2.7-22.6c-2.5-15.1-6.2-29.9-9.4-44.9
			c-2.2-10.6-4.2-21.2-5.3-32c-1.1-10.7-2.8-21.6-3.4-32.4c-1.4-25.2-9-48.3-9-74.1c0.2,1.2,41.5-0.1,45.5-0.1
			c8.9,0,28.5-4.5,33,5.3c4.4,9.3,0,28.4-0.3,38.3C218.9,294.2,218.5,310.6,218.1,326.9z"/>
		<path class="st3" d="M167.2,145.7c0.4,5.5,1.3,11,2.7,16.4c1.7,6.9,5,12.8,8.5,19c10.1,18,22.5,34.8,36.9,49.7
			c1.5,1.6,4.6,7.3,4.4,9.4c-0.4,3.6-6.6,0.6-10.2,0.5c-21.9-0.5-43.8-1.1-65.6-1.6c-8.3-32.1-11.1-64.5-7.1-96.1
			c0.9-7,0.1-14.6,1.3-21.6c2.3-13.4,4.5-26,11.8-37.4c1.8-2.8,8.2-6.6,11.4-7.6c1.8-0.6,0-0.1,1.9-0.4c6.8-0.9-0.1-4.3,24.5-1.6
			c0.6,0.1-4.1,10.3-5.1,11.5c-3.2,4-5.8,7.9-7.8,12.8c-5.5,13.2-8.1,27.7-7.7,42C166.9,142.3,167,144,167.2,145.7z"/>
		<path class="st4" d="M157.6,86c-0.7,0.2-1.4,0.4-2.1,0.6c-1.7,0.6-3.3,1.5-4.7,2.7c0.5-1.1,1-2.1,1.4-3.2c0.2-0.6,0.9-1.1,1.3-1.6
			c0.4-0.5,0.2-0.9,0.7-1.2c0.4-0.3,0.8-0.7,1.3-1c1.1-0.7,2.3-1.2,3.5-1.5c1.2-0.3,3.4-0.9,4.2,0.3c0.6,0.9,0.2,2.2-0.4,2.9
			c-0.8,1-2,1.3-3.2,1.5C158.9,85.7,158.2,85.8,157.6,86z"/>
		<path class="st4" d="M166.3,84.3c0.6,0.8,1.5,1.3,2.3,1.8c1.9,1.1,3.9,2.2,5.7,3.5c0.9,0.7,1.8,1.4,2.6,2.1c0.3,0.3,0.8,1,1.2,1.1
			c0.5,0.1,0.5-0.8,0.4-1.1c-0.1-0.5-0.5-1-0.8-1.4c-2.2-2.6-5-4.6-8.1-5.9c-0.6-0.2-1.2-0.4-1.7-0.8c-0.6-0.3-1-0.7-1.5-1.2
			c-0.2-0.2-0.9-1.4-1.1-1.4C164.4,81.1,166,83.9,166.3,84.3C166.3,84.2,166.3,84.3,166.3,84.3z"/>
		<path class="st5" d="M160.5,86.8c-1.4-1.8,2.3-4.5,3.2-5.7c0.9-1.2,0.5-1.8,2.3-1.6c0.9,0.2,1.7,0.8,2.2,1.6
			c0.9,1.6,0.4,4.2-0.5,5.7C166.6,88.7,162,88.7,160.5,86.8z"/>
		<path class="st5" d="M162.9,96.6c-18.6,40.1,2.9,82.1,26.3,114.6c0.8,1.1,1.6,2.2,2,3.6c0.9,3.3-1.2,6.3-2.4,9.2
			c-1.5,3.4-1.9,7.3-2.2,11c0.1-1.2-5.5-4.3-6.5-4.9c-2.2-1.3-5-1.8-7.1-3c-4.1-2.4-6-8.1-7.9-12.2c-2.4-5.3-4.5-10.6-6.3-16.1
			c-5.3-16.1-7.6-33-8.6-49.9c-1-16.6-0.4-33.8,5.2-49.6c1-2.9,4.3-16.4,9.2-15c1.5,0.4,2.3,2.2,2.2,3.7c-0.1,1.5-0.9,2.9-1.7,4.3
			C164.3,93.7,163.6,95.1,162.9,96.6z"/>
		<path class="st6" d="M141.3,24.7c0.5,3.1-0.6,6.2-2.6,8.8c-0.7,0.9-1.1,1.7-2.3,2.5c-0.6,0.4-1.2,0.9-1.6,1.5
			c-1,1.3-0.2,3.1,1.5,3.4c0.8,0.2,1.6,0.3,2.1,0.8c0.7,0.7,0.6,1.7,0.5,2.6c-0.1,1.3-0.1,2.7-0.3,4c-0.2,2-0.5,1.2-0.5,3.3
			c0,0.3-0.5,2.5-0.4,2.7c0.1,0.2-0.1,1-0.1,1.2c0.1,0.3,0.1,0.7,0,1c-0.1,2-0.3,3.9-0.5,5.9c-0.1,1.2,0.8,2.2,2,2.4
			c4.6,0.6,9.8-1.1,14,0.9c1.6,0.8,2.8,2,3.9,3.3c1,1.2,2.1,2.4,2.8,3.7c0.6,1.3,2.2,3.7,2.2,5.1c0.3,0.6,0.6,1.3,1.1,1.8
			c0.5,0.5,1.3,0.8,2,1c1.8,0.6,3.6,1.3,5.5,1.6c3.4,0.6,6.9,0.2,10.1-1.1c0.7-0.3,1.4-0.6,1.8-1.2c0.3-0.4,0.4-0.9,0.5-1.4
			c0.8-4.1,1.2-8.3,1.6-12.5c0.5-4.4,0.8-8.9,0.5-13.3c-0.2-2.2-0.5-4.5-0.8-6.7c-0.7-6.1-0.7-12.5,2.1-18.1
			c0.8-1.5,0.4-2.9,0.6-4.5c0.3-2.6,0.8-5.3-0.7-7.5c-1-1.5-2.9-2.3-4.6-3.1c-4.1-1.8-8.1-3.6-12.2-5.5c-2.9-1.3-5.8-2.6-8.9-3.3
			c-2.9-0.7-5.9-0.9-8.9-1.1c-3.3-0.2-7.2-0.2-9.3,2.1c-1.5,1.7-1.6,4.3-0.7,6.3c0.9,2.1,3.3,3.7,2.8,5.9
			C144.1,19.8,140.8,21.4,141.3,24.7z"/>
		<path class="st5" d="M182.8,50.4c-4.4-2.3-7.2-6.7-9.4-11.1c-0.3-0.7-0.7-1.4-1.2-2c-1.9-2.1-5.6-1.5-7.6,0.4
			c-2.1,2-2.9,4.8-3.7,7.6c-1.1,0-2.2-0.1-3.3-0.1c0.4-2.1,0.6-4.2,0.6-6.3c0-1.2-0.1-2.5,0-3.7c0.2-1.5,0.7-2.9,1.1-4.4
			c0.3-1.1,0.8-2,0.5-3.1c-0.3-1.1-1-2.2-1.8-2.9c-1.3-1.2-2.9-1.9-4.4-2.7c-1.3-0.7-2.7-1.4-3.9-2.1c-1.8-1.1-3.6-2.2-5.1-3.6
			c-1.5-1.4-2.8-3.2-3.4-5.2c-0.2-0.6-0.3-1.2-0.3-1.8c0-0.6,0.1-1.3,0.1-1.9c0.1-0.9,0.1-1.8,0.5-2.6c0.3-0.7,0.8-1.4,1.3-1.9
			c1.1-1.2,2.5-2,4.1-2.4c3.3-0.9,6.7-0.2,10.1,0.5c5,1.1,10.1,2.3,14.9,4.3c4.7,1.9,8.6,4.5,12.8,7.4c1.2,0.9,2.5,1.8,3.3,3.1
			c1.4,2.4,0.8,5.4,0.6,8.1c-0.3,3.9,0.2,7.8,0.9,11.7c0.3,1.6,0.9,3.3,0.8,5c-0.1,1.4-0.2,2.9-0.3,4.4c-0.1,1.4,0.3,4.4-0.6,5.6
			C187.8,52.3,184.2,51.2,182.8,50.4z"/>
		<path class="st3" d="M178.5,92c-2.5-3.2-6.6-4.7-10.2-6.6c-1.1-0.6-2.2-1.2-2.9-2.1c-0.8-0.9-0.7-2.7-0.3-3.8
			c1.9,0.9,5.3,0.1,7.3-0.6c3.4-1.2,5.1-1.8,7.9-3.9c1.4-1.1,2.9-2.4,4.7-2.4c1.2,0,3.7,1,3.6,2.4c-0.1,1.3-2.4,3.8-3,4.9
			C183.2,84,180.9,88,178.5,92z"/>
		<path class="st3" d="M163.7,83.2c-0.3,0.2-0.6,0.3-0.9,0.4c-2.3,0.8-4.7,1.5-7,2.3c-2,0.6-4.1,1.5-4.9,3.4c0.4-2,1.6-3.8,2.7-5.6
			c0.7-1,1.4-2,2.2-2.9c1.1-1.1,2.3-1.9,3.1-3.1c0.8-1.1,1.5-1.9,3-1.8c0.1,0,1.1,1.7,1.2,1.8c0.5,0.6,1.3,1,1.8,1.5
			c0.8,1-0.1,3.2-1.1,3.9C163.8,83.2,163.7,83.2,163.7,83.2z"/>
		<path class="st3" d="M240.6,471.4c0.7,2.9,1.3,6.1-0.3,8.6c-1.9,3-5.9,3.4-9.5,3.6c-2.7,0.1-5.5,0.2-8.2-0.5
			c-2.6-0.7-6.3-0.4-7.3-3c-1-2.6,1-7.5,1.8-10.2c1.9-6.6,3.9-13.3,5.8-19.9c0.4-1.3,7.2-0.6,8.2-0.4c2.3,0.4,4,0.8,4.9,3.1
			C238.3,458.6,239.1,465.4,240.6,471.4z"/>
		<path class="st3" d="M178.3,449.8c-1.8-0.5-3.8-1-5.4-0.1c-0.9,0.5-1.5,1.3-2.1,2.1c-2,2.7-4,5.5-6.1,8.2
			c-2.4,3.3-4.9,6.7-5.7,10.7c-0.5,2.6-0.1,5.6,1.8,7.3c2.1,1.9,5.3,1.8,8.2,1.5c2.3-0.2,4.6-0.4,6.9-0.6c2.5-0.2,5.2-0.6,6.8-2.5
			c1.3-1.6,1.3-3.9,1.3-6c-0.1-4.7-0.1-9.3-0.2-14c0-1.4,0.6-4.7-0.4-5.9C182.4,449.6,179.6,450.2,178.3,449.8z"/>
	</g>
	<g>
		<path class="st5" d="M118,178.2c-2.8,2.2-5.6,4.3-8.5,6.4c-12.2,8.4-25.5,15.2-39,21.2c-6.8,3-13.7,5.9-20.7,8.7
			c-2.6,1-5.4,1.5-7.9,2.6c-3.4,1.5-6.7,2.5-10.5,2.3c-1,0-2.1-0.2-2.9-0.9c-0.8-0.7-1-1.9-1.7-2.7c-0.4-0.4-0.8-0.7-1.1-1.2
			c-1-1.3-0.5-3.2,0.7-4.4c1.1-1.1,2.7-1.6,4.3-2.1c2.9-0.8,5.2-2.5,7.9-3.7c3.1-1.4,6.1-2.9,9-4.6c6.1-3.4,11.8-7.4,17.6-11.3
			c16.3-11.2,32.8-22.5,46.5-36.7c11-11.4,20.3-24.9,25.1-40c1.5-4.7,2.2-9.6,3-14.4c0.6-3.8,0-8.3,3.6-10.7
			c2.5-1.6,5.6-1.9,8.6-1.6c5.2,0.5,10.6,2.5,13.8,6.7c5.3,6.7,1,14.8-1.5,21.7c-2.9,7.7-6,15.6-10.2,22.7
			C144.9,151.3,131.9,167.1,118,178.2z"/>
		<path class="st6" d="M14.4,209.1c-1.3-0.8-2.7-2-4.3-1.6c-0.9,0.2-1.6,0.9-1.8,1.8s0.2,1.9,0.9,2.4c1.3,1,3.4,0.5,4.7,1.6
			c0.3,0.2,0.5,0.6,0.4,0.9c-0.1,0.6-0.7,0.8-1.2,1c-3.9,1.3-7.6,3-11.1,5.1c-0.7,0.4-1.4,0.9-1.7,1.6c-0.2,0.5-0.2,1.2-0.1,1.7
			c0.4,2.5,2.6,4.5,5,5.2s5.1,0.5,7.5,0c4.6-1,8.9-2.9,12.8-5.6c2.2-1.6,4.4-3.5,7-4.1c-0.1,0,0.4-12-5.3-10
			C22.8,210.8,18.6,211.8,14.4,209.1z"/>
		<path class="st5" d="M212,81.3c8.7,3.7,16.6,10.5,19.4,19.5c2.7,8.8,0.4,18.2-2,27.1c-6.2,22.5-13.2,46.7-5.5,68.7
			c4.4,12.6,13.2,23.1,20.3,34.4s12.5,24.9,9,37.8c-7.1-9.5-18.5-15.6-30.4-16.2c2.3-4.8-0.9-10.8-5.5-13.5
			c-4.6-2.7-10.2-2.9-15.5-3.1c-20.3-0.7-45.7,3-66,2.3c-7.9-25.4-10.4-54.8-12-81.3c-1.2-19.9-1.3-42.8,8.5-60.1
			C148.6,68.1,184.9,69.6,212,81.3z"/>
		<path class="st5" d="M218.1,326.9c-0.1,2.1-0.1,4.3,0.8,6.2c1,2.1,4.7,11.2,5.4,13.4c9.9,30.4,6.5,28.7,9.1,47
			c2.4,17,0.2,25.7,0.7,42.8c0.4,12.2,3.4,23.4,5.9,35.2c0.6,2.9,0.9,6.3-0.9,8.6c-1.7,2.1-4.6,2.7-7.2,2.9
			c-4.7,0.3-9.5-0.3-13.9-1.8c-0.5-0.2-1-0.4-1.4-0.8c-0.5-0.5-0.5-1.2-0.6-1.9c-0.2-6.5,3.8-12.3,4.9-18.7
			c0.8-4.4,1.9-8.7,0.9-13.1c-1.1-4.9-3.9-9.1-6.2-13.6c-5.5-10.8-7.6-23-9.6-35c-4.6-27.5-15-71.6-19.6-99.1c0.7,5.8-4.7,13-4,27.3
			c0.3,6.9,2.5,18.3,4.5,24.9c8.8,29.8,2.4,61.6-2.1,92.4c-1,6.8-2,13.6-1.5,20.5c0.3,4.1,0.8,8.7-2.1,11.6
			c-2.1,2.2-5.5,2.5-8.5,2.7c-3.5,0.2-6.9,0.2-10.4,0c-0.4,0-0.8,0-1.1-0.2c-0.9-0.4-1.1-1.6-1.2-2.6c-0.2-3.2-0.4-6.5,0.7-9.5
			c1.3-3.4,4-5.9,6.3-8.7c1.8-2.2,4.5-5.4,4.7-8.4c0.2-2.8-0.6-6-0.8-8.8c-0.5-7.6-1.4-15.1-2.7-22.6c-2.5-15.1-6.2-29.9-9.4-44.9
			c-2.2-10.6-4.2-21.2-5.3-32c-1.1-10.7-2.8-21.6-3.4-32.4c-1.4-25.2-9-48.3-9-74.1c0.2,1.2,41.5-0.1,45.5-0.1
			c8.9,0,28.5-4.5,33,5.3c4.4,9.3,0,28.4-0.3,38.3C218.9,294.2,218.5,310.6,218.1,326.9z"/>
		<path class="st7" d="M226.3,238.4c0.4,0.2,0.7,0.5,1.1,0.7c3.3,2,6.4,4.4,9.5,6.7c2.1,1.6,4.2,3.1,6.1,4.9
			c5.1,4.9,8.8,11.3,10.3,18.1c-1.4-2.5-3.7-4.2-6-5.9c-3.2-2.3-6.3-4.6-9.9-6.3c-2.3-1.1-4.7-1.8-7.2-2.5c-2.1-0.6-4.3-1.1-6.5-1.1
			c-2.2,0-4.5,0.5-6.2,1.9c-0.1-6.9-0.9-13.8-2.4-20.6c-0.4-1.7-0.9-3.6-2.2-4.7c2.1,1.7,4,3.9,6.5,5
			C221.9,235.7,224.1,237,226.3,238.4z"/>
		<path class="st0" d="M167.2,145.7c0.4,5.5,1.3,11,2.7,16.4c1.7,6.9,5,12.8,8.5,19c10.1,18,22.5,34.8,36.9,49.7
			c1.5,1.6,4.6,7.3,4.4,9.4c-0.4,3.6-6.6,0.6-10.2,0.5c-21.9-0.5-43.8-1.1-65.6-1.6c-8.3-32.1-11.1-64.5-7.1-96.1
			c0.9-7,0.1-14.6,1.3-21.6c2.3-13.4,4.5-26,11.8-37.4c1.8-2.8,8.2-6.6,11.4-7.6c1.8-0.6,0-0.1,1.9-0.4c6.8-0.9-0.1-4.3,24.5-1.6
			c0.6,0.1-4.1,10.3-5.1,11.5c-3.2,4-5.8,7.9-7.8,12.8c-5.5,13.2-8.1,27.7-7.7,42C166.9,142.3,167,144,167.2,145.7z"/>
		<path class="st4" d="M157.6,86c-0.7,0.2-1.4,0.4-2.1,0.6c-1.7,0.6-3.3,1.5-4.7,2.7c0.5-1.1,1-2.1,1.4-3.2c0.2-0.6,0.9-1.1,1.3-1.6
			c0.4-0.5,0.2-0.9,0.7-1.2c0.4-0.3,0.8-0.7,1.3-1c1.1-0.7,2.3-1.2,3.5-1.5c1.2-0.3,3.4-0.9,4.2,0.3c0.6,0.9,0.2,2.2-0.4,2.9
			c-0.8,1-2,1.3-3.2,1.5C158.9,85.7,158.2,85.8,157.6,86z"/>
		<path class="st4" d="M166.3,84.3c0.6,0.8,1.5,1.3,2.3,1.8c1.9,1.1,3.9,2.2,5.7,3.5c0.9,0.7,1.8,1.4,2.6,2.1c0.3,0.3,0.8,1,1.2,1.1
			c0.5,0.1,0.5-0.8,0.4-1.1c-0.1-0.5-0.5-1-0.8-1.4c-2.2-2.6-5-4.6-8.1-5.9c-0.6-0.2-1.2-0.4-1.7-0.8c-0.6-0.3-1-0.7-1.5-1.2
			c-0.2-0.2-0.9-1.4-1.1-1.4C164.4,81.1,166,83.9,166.3,84.3C166.3,84.2,166.3,84.3,166.3,84.3z"/>
		<path class="st5" d="M160.5,86.8c-1.4-1.8,2.3-4.5,3.2-5.7c0.9-1.2,0.5-1.8,2.3-1.6c0.9,0.2,1.7,0.8,2.2,1.6
			c0.9,1.6,0.4,4.2-0.5,5.7C166.6,88.7,162,88.7,160.5,86.8z"/>
		<path class="st5" d="M162.9,96.6c-18.6,40.1,2.9,82.1,26.3,114.6c0.8,1.1,1.6,2.2,2,3.6c0.9,3.3-1.2,6.3-2.4,9.2
			c-1.5,3.4-1.9,7.3-2.2,11c0.1-1.2-5.5-4.3-6.5-4.9c-2.2-1.3-5-1.8-7.1-3c-4.1-2.4-6-8.1-7.9-12.2c-2.4-5.3-4.5-10.6-6.3-16.1
			c-5.3-16.1-7.6-33-8.6-49.9c-1-16.6-0.4-33.8,5.2-49.6c1-2.9,4.3-16.4,9.2-15c1.5,0.4,2.3,2.2,2.2,3.7c-0.1,1.5-0.9,2.9-1.7,4.3
			C164.3,93.7,163.6,95.1,162.9,96.6z"/>
		<path class="st5" d="M252.9,197.2c-0.5,3.5-1.1,7-1.9,10.5c-3.1,14.5-8.2,28.5-14,42.2c-2.9,6.9-6,13.7-9.2,20.5
			c-1.2,2.6-2.9,4.7-4,7.3c-1.5,3.4-3.2,6.4-6.1,8.9c-0.8,0.7-1.7,1.3-2.7,1.3c-1.1,0-2.1-0.7-3.1-0.8c-0.5-0.1-1.1,0-1.6-0.1
			c-1.6-0.3-2.6-2-2.5-3.6c0.1-1.6,0.9-3.1,1.7-4.5c1.5-2.6,2.1-5.4,3.2-8.1c1.3-3.1,2.4-6.3,3.4-9.5c2.1-6.7,3.6-13.5,5.1-20.3
			c4.3-19.3,8.5-38.8,8.8-58.6c0.2-15.8-2.2-32-9.1-46.4c-3.5-7.4-8.9-13.8-13.1-20.7c-5.1-8.5-8.9-17.6-11.6-27.1
			c-0.5-1.8-0.9-4.1,0.4-5.5c0.5-0.6,1.3-0.9,2-1.1c4-1.3,8.3-1.2,12.3-0.2c4.9,1.2,9.6,3.3,13.2,6.8c2.6,2.5,4.8,5.4,6.7,8.4
			c4.5,6.8,8.1,14.3,11.2,21.8c3.2,7.6,6.3,15.5,8.1,23.5C254.1,159.1,255.4,179.6,252.9,197.2z"/>
		<path class="st6" d="M199.1,291.3c-1.4,1.4-2.5,3.1-3.2,4.9c-0.1,0.4-0.3,0.8-0.2,1.2c0.2,0.7,1,1,1.6,0.9
			c0.7-0.1,1.2-0.7,1.6-1.2c0.4-0.6,0.7-1.2,1.2-1.7s1.1-0.9,1.8-0.9c0.5,0-0.7,2.4-0.8,2.6c-0.5,1-1,2.1-1.5,3.2
			c-1,2.3-1.9,4.7-2.6,7.1c-0.2,0.8-0.4,1.6-0.2,2.4c0.2,0.6,0.6,1,1.1,1.4c2,1.5,4.9,1.5,7.2,0.4s4.1-3.1,5.5-5.1
			c2.7-3.8,4.6-8.2,5.5-12.8c0.5-2.7,0.8-5.5,2.3-7.8c0,0.1-7.9-9-10.7-3.7c-0.7,1.5-1.6,2.9-2.5,4.2c-0.5,0.6-1,1.3-1.6,1.8
			c-0.6,0.5-1.3,0.7-1.9,1.1C200.8,289.7,199.9,290.5,199.1,291.3z"/>
		<path class="st6" d="M141.3,24.7c0.5,3.1-0.6,6.2-2.6,8.8c-0.7,0.9-1.1,1.7-2.3,2.5c-0.6,0.4-1.2,0.9-1.6,1.5
			c-1,1.3-0.2,3.1,1.5,3.4c0.8,0.2,1.6,0.3,2.1,0.8c0.7,0.7,0.6,1.7,0.5,2.6c-0.6,6-1.1,12-1.7,18.1c-0.1,1.2,0.8,2.2,2,2.4
			c4.6,0.6,9.8-1.1,14,0.9c1.6,0.8,2.8,2,3.9,3.3c1,1.2,2.1,2.4,2.8,3.7c0.6,1.3,2.2,3.7,2.2,5.1c0.3,0.6,0.6,1.3,1.1,1.8
			c0.5,0.5,1.3,0.8,2,1c1.8,0.6,3.6,1.3,5.5,1.6c3.4,0.6,6.9,0.2,10.1-1.1c0.7-0.3,1.4-0.6,1.8-1.2c0.3-0.4,0.4-0.9,0.5-1.4
			c0.8-4.1,1.2-8.3,1.6-12.5c0.5-4.4,0.8-8.9,0.5-13.3c-0.2-2.2-0.5-4.5-0.8-6.7c-0.7-6.1-0.7-12.5,2.1-18.1
			c0.8-1.5,0.4-2.9,0.6-4.5c0.3-2.6,0.8-5.3-0.7-7.5c-1-1.5-2.9-2.3-4.6-3.1c-4.1-1.8-8.1-3.6-12.2-5.5c-2.9-1.3-5.8-2.6-8.9-3.3
			c-2.9-0.7-5.9-0.9-8.9-1.1c-3.3-0.2-7.2-0.2-9.3,2.1c-1.5,1.7-1.6,4.3-0.7,6.3c0.9,2.1,3.3,3.7,2.8,5.9
			C144.1,19.8,140.8,21.4,141.3,24.7z"/>
		<path class="st5" d="M182.8,50.4c-4.4-2.3-7.2-6.7-9.4-11.1c-0.3-0.7-0.7-1.4-1.2-2c-1.9-2.1-5.6-1.5-7.6,0.4
			c-2.1,2-2.9,4.8-3.7,7.6c-1.1,0-2.2-0.1-3.3-0.1c0.4-2.1,0.6-4.2,0.6-6.3c0-1.2-0.1-2.5,0-3.7c0.2-1.5,0.7-2.9,1.1-4.4
			c0.3-1.1,0.8-2,0.5-3.1c-0.3-1.1-1-2.2-1.8-2.9c-1.3-1.2-2.9-1.9-4.4-2.7c-1.3-0.7-2.7-1.4-3.9-2.1c-1.8-1.1-3.6-2.2-5.1-3.6
			c-1.5-1.4-2.8-3.2-3.4-5.2c-0.2-0.6-0.3-1.2-0.3-1.8c0-0.6,0.1-1.3,0.1-1.9c0.1-0.9,0.1-1.8,0.5-2.6c0.3-0.7,0.8-1.4,1.3-1.9
			c1.1-1.2,2.5-2,4.1-2.4c3.3-0.9,6.7-0.2,10.1,0.5c5,1.1,10.1,2.3,14.9,4.3c4.7,1.9,8.6,4.5,12.8,7.4c1.2,0.9,2.5,1.8,3.3,3.1
			c1.4,2.4,0.8,5.4,0.6,8.1c-0.3,3.9,0.2,7.8,0.9,11.7c0.3,1.6,0.9,3.3,0.8,5c-0.1,1.4-0.2,2.9-0.3,4.4c-0.1,1.4,0.3,4.4-0.6,5.6
			C187.8,52.3,184.2,51.2,182.8,50.4z"/>
		<path class="st0" d="M178.5,92c-2.5-3.2-6.6-4.7-10.2-6.6c-1.1-0.6-2.2-1.2-2.9-2.1c-0.8-0.9-0.7-2.7-0.3-3.8
			c1.9,0.9,5.3,0.1,7.3-0.6c3.4-1.2,5.1-1.8,7.9-3.9c1.4-1.1,2.9-2.4,4.7-2.4c1.2,0,3.7,1,3.6,2.4c-0.1,1.3-2.4,3.8-3,4.9
			C183.2,84,180.9,88,178.5,92z"/>
		<path class="st0" d="M163.7,83.2c-0.3,0.2-0.6,0.3-0.9,0.4c-2.3,0.8-4.7,1.5-7,2.3c-2,0.6-4.1,1.5-4.9,3.4c0.4-2,1.6-3.8,2.7-5.6
			c0.7-1,1.4-2,2.2-2.9c1.1-1.1,2.3-1.9,3.1-3.1c0.8-1.1,1.5-1.9,3-1.8c0.1,0,1.1,1.7,1.2,1.8c0.5,0.6,1.3,1,1.8,1.5
			c0.8,1-0.1,3.2-1.1,3.9C163.8,83.2,163.7,83.2,163.7,83.2z"/>
	</g>
</g>
</svg>
