<?xml version="1.0" encoding="utf-8"?>
<!-- Generator: Adobe Illustrator 22.1.0, SVG Export Plug-In . SVG Version: 6.00 Build 0)  -->
<svg version="1.1" id="Isolation_Mode" xmlns="http://www.w3.org/2000/svg" xmlns:xlink="http://www.w3.org/1999/xlink" x="0px"
	 y="0px" viewBox="0 0 557.3 506.8" style="enable-background:new 0 0 557.3 506.8;" xml:space="preserve">
<g>
	<g>
		<g>
			<path d="M189,506.4c-0.1-1-0.2-2-0.2-3c-0.1-24.9-0.1-49.7-0.2-74.6c0-0.9,0.5-2-0.5-2.5c-0.9-0.5-1.6,0.6-2.3,1.1
				c-5.3,3.3-10.5,6.8-15.8,10.1c-2.5,1.6-5.1,2.8-8.1,3.1c-3.9,0.3-6.8-1.4-8.7-4.7c-1.9-3.2-2.8-6.7-2.8-10.5c0-30.5,0-61,0-91.6
				c0-2-0.5-3.6-1.9-5.1c-34.8-40-69.5-80-104.3-119.9c-1.2-1.4-1.4-2.4-0.1-3.8c1.5-1.8,2.8-3.7,4.1-5.6c1.1-1.6,1.9-1.6,3.3-0.3
				c12.1,10.6,24.2,21,36.4,31.6c22.4,19.4,44.9,38.9,67.3,58.3c1.4,1.2,2.4,1.5,3.9,0.3c1.4-1.2,3.9-1.5,4.2-3.2
				c0.5-2.6,0.3-5.5,0.2-8.2c0-1.2-1.1-1-1.9-1c-2.2,0-4.5,0.1-6.7,0c-4-0.1-7.2-3.2-7.5-7c-0.1-1.4,0.4-2.3,1.9-2.2
				c0.7,0,1.5,0,2.2,0c36.4,0,72.9,0,109.3-0.1c2.2,0,2.8,0.8,2.5,2.8c-0.5,3.7-3.5,6.4-7.7,6.5c-4,0.1-8,0-12,0
				c-22.1,0-44.2,0-66.4-0.1c-2.5,0-2.9,0.8-3.1,3.1c-0.3,4.2,0.5,7.1,4.7,9.4c4.9,2.7,8,7.5,9.5,13c0.5,1.8,1.4,2.5,3.3,2.6
				c35.4,2.1,70.9,4.4,106.3,6.5c4.7,0.3,8.9,2.1,13.2,3.4c24,7.3,48,14.6,72,21.9c2.4,0.7,2.6,0.6,2.6-2.4c0-41.6,0-83.2,0-124.8
				c0-3.6,0-3.6,3.6-3.6c26.9,0,53.9,0,80.8,0c3.4,0,3.4,0,3.4,3.5c0,7.9,0.2,15.8-0.1,23.7c-0.2,5.9,3.4,11.2,10.5,10.6
				c1.6-0.2,3.3-0.1,5,0c1.5,0.1,2.2-0.5,2.1-2c0-0.7,0-1.5,0-2.2c-0.7-7.7,1.4-15.3,1.5-23c0-0.4,0-0.8,0.7-1.1
				c1,0.6,0.7,1.7,0.8,2.6c0.6,7.9,2,15.8,1.4,23.7c-0.1,1.5,0.5,2.1,2,2.1c4.8,0,9.6,0,14.5,0c1.5,0,2.1-0.6,2.1-2.1c0-1,0.1-2,0-3
				c-0.7-7.4,1.4-14.7,1.5-22c0-0.5,0.1-1,0.7-1.2c1.1,0.7,0.7,1.9,0.8,2.9c0.5,7.8,2.2,15.6,1.5,23.5c-0.1,1.4,0.6,1.9,1.9,1.9
				c4.7,0,9.3,0,14,0c1.6,0,2.1-0.7,2-2.1c0-0.9,0.1-1.8,0-2.7c-0.7-7.5,1.3-14.8,1.5-22.3c0-0.4,0-0.8,0.7-1.2
				c1,0.5,0.8,1.6,0.8,2.5c0.4,7.9,2.2,15.8,1.5,23.7c-0.1,1.5,0.6,2.1,2.1,2.1c1.2-0.1,2.3,0,3.5,0c5.5,0,8.8-2.8,8.9-8.3
				c0.2-12.7,0.1-25.4,0.1-38.2c0-1.4-0.7-1.9-2-1.9c-1,0-2,0-3,0c-53.6,0-107.1,0-160.7,0c-3.9,0-3.9,0-3.9-3.9
				c0-18.3,0-36.6,0.1-54.9c0-2.4-0.7-3-3-2.9c-3.6,0.2-3.6,0.1-3.6-3.4c0-33.4,0-66.9,0-100.3c0-6.9,3.7-12.2,9.8-14.1
				c1.9-0.6,3.9-0.6,5.9-0.6c29.1,0,58.2,0,87.3-0.1c2.3,0,3.2,0.5,3.2,3.1c-0.2,7.2-0.2,14.5-0.1,21.7c0,2.2-0.8,2.6-2.7,2.6
				c-9.2-0.1-18.5,0-27.7-0.1c-2.1,0-2.7,0.7-2.7,2.7c0.1,6.2,0,12.3,0.1,18.5c0.2,13.6,9.5,22.7,23.1,22.8c11.4,0,22.8,0,34.2,0
				c13.6,0,22.9-9.2,23.1-22.8c0.1-6.2-0.1-12.3,0.1-18.5c0-2-0.6-2.6-2.6-2.6c-9.5,0.1-19-0.1-28.4,0.1c-2.5,0-3-0.8-3-3.1
				c0.2-11.2,0.1-22.4,0.3-33.7c0-2.2-0.7-2.8-2.8-2.8c-33,0.1-66,0-99.1,0c-7.1,0-13.9,1.4-19.9,5.4c-6.2,4.1-9.5,9.8-9.5,17.3
				c0,8.4-0.1,16.8,0,25.2c0,1.9-0.6,2.4-2.4,2.4c-24.6,0-49.2,0-73.9,0c-1.8,0-2.4-0.6-2.4-2.4c0.1-10,0.1-20,0-29.9
				c0-5.7-2.2-7.9-7.8-7.9c-35.3,0-70.7,0-106,0c-5.5,0-7.7,2.2-7.7,7.7c0,22.7,0,45.4,0,68.1c0,5.3,2.2,7.6,7.6,7.6
				c35.5,0,71,0,106.5,0c5.2,0,7.4-2.3,7.4-7.5c0-7.4,0.1-14.8,0-22.2c0-2.1,0.7-2.7,2.7-2.7c24.4,0.1,48.7,0.1,73.1,0
				c2.1,0,2.9,0.5,2.9,2.8c-0.1,21.3-0.1,42.6,0,63.9c0,2.2-0.7,2.9-2.8,2.8c-4.4-0.1-4.2-0.7-4.2,4.1c0,23.3,0,46.6,0.1,69.9
				c0,2.5-0.8,3-3.2,3c-48.5-0.1-97,0-145.5-0.1c-4.2,0-8.3,0.2-12.2,1.9c-5.5,2.3-8.8,6.4-9,12.4c-0.3,9.1-0.1,18.1-0.1,27.2
				c0,2.2,1.5,2,2.9,2c20,0,40.1,0,60.1,0c1.1,0,2.2,0,3.2,0.2c3.4,0.5,5.9,3.6,6,7c0,1.4-0.5,2-1.9,1.9c-1.2,0-2.5,0-3.7,0
				c-35.7,0-71.4,0-107,0c-3.5,0-4.1-0.8-2.9-4.2c1.1-3.1,3.8-4.9,7.6-4.9c10.1,0,20.1-0.1,30.2,0c2.3,0,3-0.6,3-3
				c-0.1-7.6,0.2-15.3-0.1-23c-0.5-13.3,8.5-19.1,18.4-19.9c8.8-0.7,17.6-0.2,26.4-0.2c40.8,0,81.7,0,122.5,0c2.2,0,2.6-0.8,2.6-2.8
				c-0.1-23.7,0-47.4-0.1-71.1c0-2.5,0.7-3.2,3.1-3.1c4,0.2,4,0,4-3.8c0-19.2,0-38.4,0.1-57.6c0-2.4-0.7-3.1-3.1-3.1
				c-22.5,0.1-45.1,0.1-67.6,0c-2.4,0-3.2,0.6-3.1,3.1c0.2,6.6,0.1,13.1,0.1,19.7c0,6.3-3.4,9.7-9.8,9.7c-35.7,0-71.4,0-107,0
				c-6.3,0-9.7-3.5-9.7-9.8c0-23,0-45.9,0-68.9c0-6.3,3.4-9.7,9.7-9.7c35.7,0,71.4,0,107,0c6.5,0,9.8,3.3,9.8,9.9
				c0,9.1,0.1,18.3,0,27.4c0,2.1,0.5,2.9,2.7,2.9c22.8-0.1,45.6-0.1,68.4,0c2.1,0,2.7-0.7,2.7-2.7c-0.1-6.9,0-13.8,0-20.7
				c0-12.3,5.8-20.4,17.3-24.6c4.4-1.6,9-2.4,13.7-2.4c34.3,0,68.5,0,102.8-0.1c2,0,2.6,0.7,2.5,2.6c-0.2,11.1,0.3,22.3-0.2,33.4
				c-0.1,3.3-0.1,3.3,3.2,3.3c9.5,0,19,0,28.4,0c1.3,0,2.6-0.2,2.4,1.8c-0.6,7.4-0.1,14.8-0.3,22.2c-0.2,10.9-6.1,19.5-15.7,23.3
				c-3,1.2-6.1,1.7-9.3,1.7c-11.7,0-23.5,0.1-35.2,0c-14.1-0.1-24.3-9.7-25.1-23.8c-0.4-7.8-0.2-15.6-0.3-23.4
				c0-1.9,1.1-1.7,2.3-1.7c9.4,0,18.8-0.1,28.2,0c2,0,2.8-0.5,2.7-2.6c-0.3-6-0.1-12,0-17.9c0-1.3-0.6-1.8-1.8-1.8c-0.5,0-1,0-1.5,0
				c-28.2,0-56.4,0-84.6,0c-9,0-13.3,4.3-13.3,13.3c0,32.4,0,64.9-0.1,97.3c0,2.5,0.8,3.1,3.1,3c3.5-0.2,3.5,0,3.5,3.6
				c0,18.3,0,36.6,0,54.9c0,3.1,0,3.1,3.2,3.1c27.4,0,54.9,0,82.3,0c26.6,0,53.2,0,79.8,0c1.1,0,2.1,0.1,3.2,0.2
				c0,15.8,0,31.6,0,47.4c-2.8,3.9-6.5,5.8-11.4,5.7c-5.2-0.2-4.7-0.5-4.7,4.6c0,0.7-0.1,1.3-0.1,2c0,6.9-0.9,13.8,0.5,20.6
				c1.7,8.3,3.4,16.6,4.5,25c1.1,8.4,2.1,16.8,1.3,25.4c-0.3,3.2-0.9,6.4-2.1,9.5c-1.2,3.1-3.5,4.6-6.7,4.7
				c-2.9,0.1-4.7-1.9-5.9-4.3c-1.3-2.4-1.9-5.1-2.1-7.9c-1.3-14.7,0.7-29.1,3.9-43.3c2.6-11.5,2-23,2.4-34.5c0-1.3-0.5-2-1.9-2
				c-4.7,0-9.3,0-14,0c-1.5,0-2.1,0.6-2.1,2.1c0,1.6-0.1,3.2-0.1,4.7c-0.1,6.2-0.8,12.5,0.2,18.7c1.5,8.8,3.5,17.6,4.7,26.5
				c1.2,9.3,2.3,18.7,1.2,28.1c-0.4,2.9-0.9,5.8-2.5,8.3c-3.1,5-9,4.9-11.9-0.3c-1.4-2.5-2.1-5.3-2.3-8.1c-1.3-13.3,0.7-26.4,3-39.4
				c0.9-5.5,2.6-10.9,3.1-16.4c0.6-7.3,0.2-14.6,0.3-21.9c0-1.8-0.7-2.3-2.4-2.3c-4.5,0.1-9,0.1-13.5,0c-2,0-2.8,0.5-2.7,2.7
				c0.1,5.7,0,11.3,0.1,17c0,2-0.2,4,0.2,6c1.5,6.9,2.9,13.8,4,20.8c1.7,11.3,3.2,22.6,1.9,34c-0.4,3.1-1,6.1-2.9,8.7
				c-2.8,3.8-7.7,3.9-10.6,0.2c-1-1.3-1.7-2.8-2.2-4.5c-0.9-3.3-1.3-6.7-1.4-10.1c-0.2-12.9,1.8-25.5,4.1-38.1
				c0.8-4.3,2.3-8.6,2.4-13c0.2-7.1,0-14.1,0.1-21.2c0-1.7-0.5-2.5-2.3-2.4c-1.7,0.1-3.3,0-5,0c-8.3,0-12.7-4.4-12.8-12.8
				c0-7.3-0.1-14.6,0.1-22c0.1-2.4-0.7-3.1-3.1-3.1c-25.5,0.1-51.1,0-76.6,0c-3.1,0-3.1,0-3.1,3.3c0,41.1,0,82.2-0.1,123.3
				c0,2.7,0.9,3.7,3.4,4.5c28.3,8.6,56.6,17.2,84.9,25.9c2.3,0.7,4.6,1.5,6.5,3.1c3,2.5,3.9,5.7,3.1,9.4c-0.7,3.6-2.9,5.9-6.4,7
				c-3.9,1.2-7.8,0.4-11.5-0.7c-13.3-3.9-26.6-7.8-39.9-11.9c-40.2-12.4-80.3-24.9-120.5-37.3c-4.7-1.5-9.3-3.7-14.4-3.7
				c-33.7,0-67.4,0-101.1,0c-5,0-4.6-0.7-4.7,4.7c-0.1,2.4,0.6,3.1,3.1,3.1c34.4-0.1,68.9,0,103.3-0.1c1.6,0,3.1,0.2,4.7,0.7
				c20,6,39.9,12,59.9,18.1c31.5,9.5,63,19,94.5,28.6c5.7,1.7,11.5,3.5,17.2,5.2c0.8,0.3,2,0.2,2,1.4c0.1,1-0.7,1.6-1.5,2.2
				c-1.2,0.8-2.6,1.1-4,1.2c-3.5,0.3-7-0.3-10.4-1.2c-21.9-5.8-43.5-12.3-65.2-18.7c-2.9-0.9-3-0.8-3,2.4c0,9.2,0,18.5,0,27.7
				c0,3.8,0,3.8,3.6,4.6c6.4,1.4,12.6,3.2,18.6,5.8c32.9,13.9,55.2,38.3,70.1,70.1c1.1,2.3-0.5,2.1-1.9,2.1c-29.6,0-59.2,0-88.8-0.1
				c-1.7,0-2,0.5-2,2.1c0.1,5.2,0,10.5,0,15.7c-0.8,0-1.7,0-2.5,0c0-4.8-0.1-9.6,0-14.5c0.1-3.3,0.2-3.3-3.2-3.3
				c-32.1,0-64.2,0-96.3,0c-3.9,0-4.4-0.8-2.6-4.2c12.7-24.9,25.4-49.8,38-74.7c0.8-1.6,1.8-2.1,3.5-2.1c6.6,0.1,13.1,0,19.7,0
				c13,0.1,26.1-0.6,39.1,1.5c2.1,0.3,2.4-0.7,2.4-2.4c0-9.7-0.1-19.5,0-29.2c0-2.5-0.9-3.4-3.1-4.1c-17-5-33.9-10.1-50.9-15.2
				c-8-2.4-16-5.2-24.2-6.9c-3.4-0.7-6.8-1.4-10.1,0.8c-34.9,23.5-69.8,46.9-104.8,70.4c-1.1,0.8-1.7,1.6-1.7,3
				c0,26.9,0,53.9,0,80.8C190.6,506.4,189.8,506.4,189,506.4z M500.9,317.5c-0.4-15.2-3.1-30-6.2-44.8c-0.1-0.6-0.3-1.5-1.2-1.3
				c-0.8,0.1-0.8,1-1,1.6c-0.9,4.7-1.9,9.4-2.8,14.2c-2,11.2-3.6,22.5-3.3,33.9c0.1,3.1,0.3,6.1,1.2,9.1c1.2,4.2,3.3,6.4,6,6.4
				c2.8,0,4.9-2.2,6-6.4C500.7,326,501,321.7,500.9,317.5z M523.5,314.4c-0.3-7-1.1-13.9-2.2-20.8c-1.2-6.9-2.5-13.7-3.8-20.6
				c-0.1-0.7-0.1-1.7-1.2-1.6c-0.9,0.1-0.9,1-1.1,1.8c-2.6,12.4-4.9,24.9-5.8,37.6c-0.5,6.8-0.8,13.6,1.3,20.3
				c0.8,2.7,2.2,5.1,5.5,5.4c2.5,0.2,4.7-1.8,5.8-5.3c0.1-0.3,0.2-0.6,0.3-1C523.7,325,523.7,319.7,523.5,314.4z M546,316.7
				c-0.4-14.6-3.2-29.2-6.1-43.7c-0.1-0.6-0.2-1.5-1-1.5c-1-0.1-1,0.9-1.2,1.6c-3,14.1-5.5,28.2-6.1,42.6
				c-0.2,5.6-0.1,11.2,1.9,16.5c0.9,2.4,2.4,4.3,5.2,4.4c2.8,0.1,4.3-1.9,5.3-4.2c0.3-0.7,0.5-1.4,0.7-2.1
				C545.9,325.9,546,321.5,546,316.7z M342.5,446.5c0.1-8.7-8.4-14.4-16.2-11.2c-1.7,0.7-1.9,1.5-0.5,2.8c3.9,3.8,7.6,7.6,11.5,11.4
				c1,0.9,1.8,2.9,3.1,2.4c1.6-0.5,1.6-2.7,2-4.3C342.6,447.2,342.5,446.7,342.5,446.5z M331.1,457.6c1.4,0.1,2.9-0.3,4.3-0.9
				c1.7-0.7,2.1-1.3,0.6-2.8c-4.4-4.3-8.7-8.6-13-13c-1.3-1.4-2-1.3-2.8,0.5C316.9,448.9,322.5,457.5,331.1,457.6z"/>
			<path d="M557.3,190c-28,0-56,0-84.1,0.1c-1.9,0-2.5-0.6-2.4-2.4c0-2.1-0.2-4.2-0.2-6.2c-0.1-8.7,5.9-15.2,14.6-15.3
				c20-0.2,39.9-0.2,59.9-0.1c5,0,8.9,2.4,11.4,6.9c0.2,0.4,0.6,0.8,0.9,1.2C557.3,179.4,557.3,184.7,557.3,190z M514.6,187.3
				c12.8,0,25.6,0,38.4,0c1.1,0,2.5,0.4,2.5-1.5c-0.1-2.5,0.1-5-0.3-7.5c-0.9-6-4.8-9.6-10.9-9.6c-19.7-0.1-39.4,0-59.1,0.2
				c-7.2,0.1-12,5.4-11.9,12.6c0,0.9,0.1,1.8,0.1,2.7c-0.2,2.4,0.7,3.1,3.1,3.1C489.2,187.3,501.9,187.3,514.6,187.3z"/>
			<path d="M36.6,225.5c-0.1-2.7,0.4-6,1.4-9.2c0.2-0.7,0.1-1.7,1-1.8c0.8-0.2,1.2,0.7,1.7,1.3c10.2,11.6,20.4,23.2,30.6,34.9
				c22.5,25.7,45,51.4,67.5,77.1c0.5,0.6,1.6,1.1,1.2,2c-0.4,1.1-1.5,0.8-2.4,0.9c-12.9,1.4-23.3-2.9-31.9-12.7
				c-19.9-22.8-40-45.4-60-68.1C39.7,243,36.5,235.2,36.6,225.5z"/>
			<path d="M228.6,21c17,0,34.1,0.1,51.1-0.1c2.5,0,3,0.7,3,3.1c-0.1,20.8-0.1,41.6,0,62.3c0,2.1-0.5,2.7-2.6,2.7
				c-34.3-0.1-68.7-0.1-103,0c-2.2,0-2.7-0.7-2.7-2.8c0.1-20.8,0.1-41.6,0-62.3c0-2.3,0.5-3,2.9-2.9C194.4,21,211.5,21,228.6,21z
				 M228.4,86.3c16.3,0,32.6,0,48.9,0c2,0,2.7-0.5,2.7-2.6c-0.1-19.1-0.1-38.2,0-57.4c0-2.1-0.7-2.6-2.7-2.6
				c-32.5,0.1-65,0.1-97.5,0c-2,0-2.7,0.5-2.7,2.6c0.1,19.1,0.1,38.2,0,57.4c0,2.1,0.7,2.6,2.7,2.6C196,86.2,212.2,86.3,228.4,86.3z
				"/>
			<path d="M44.8,179.5c0,3.7-2,6.1-5.4,7c-5.5,1.4-4.7,2-6.1-3.6c-5.8-23.7-11.5-47.3-17.3-71c-0.8-3.2-0.7-3.4,2.6-4.1
				c5.3-1.2,8.2,0.5,9.6,5.9c5.4,21.2,10.8,42.4,16.2,63.5C44.6,178.1,44.8,179,44.8,179.5z"/>
			<path d="M7.3,113.1c0.8,0.2,0.6,0.9,0.7,1.4c3,11.2,5.9,22.5,8.9,33.7c3.3,12.5,6.6,25.1,9.9,37.6c0.2,0.7,0.9,1.5,0,2
				c-0.7,0.4-1.2-0.3-1.8-0.6c-12.5-7.4-19.8-18.5-23.1-32.3c-3.3-13.5-2-26.7,3.7-39.5C6,114.6,6.2,113.5,7.3,113.1z"/>
			<path d="M222,162.4c9.1,0,18.1-0.1,27.2,0c2.1,0,2.7-0.6,2.6-2.7c-0.2-3.2,0-6.3-0.1-9.5c-0.1-3.7-2.7-6.4-6-6.3
				c-3.3,0.1-5.5,2.7-5.5,6.4c0,1.4,0,2.8,0,4.2c0,0.9,0,2-1.2,2.1c-1.4,0.1-1.3-1-1.3-1.9c0-1.8-0.1-3.7,0-5.5
				c0.2-4.4,3.8-7.8,8.1-7.8c4.4,0,8.1,3.5,8.3,8c0.1,3.5,0.2,7,0,10.5c-0.1,2.1,0.7,2.5,2.6,2.5c12.9-0.1,25.8,0,38.7-0.1
				c2.3,0,2.7,1,2.3,2.9c-3.5,16.8-12.6,29.4-28.2,36.8c-22.7,10.7-55.1,6.1-70.5-19c-3.2-5.3-5.4-11-6.6-17.1
				c-0.6-3.2-0.4-3.4,2.8-3.5C204.2,162.4,213.1,162.4,222,162.4z M244.8,165c-15.6,0-31.2,0-46.9,0c-1.9,0-2.9,0.1-2.3,2.6
				c2.9,11.7,9.2,21.1,19.1,28c14.7,10.1,30.9,11.4,47.4,6.4c16.3-5,26.8-16.3,31.7-32.7c1.2-4.1,1.2-4.2-3-4.2
				C275.6,165,260.2,165,244.8,165z"/>
			<path d="M37.3,202.5c0,0.3,0,0.8-0.2,1.2c-0.4,1.3-0.5,3.2-2,3.4c-1.3,0.2-1.3-1.7-1.8-2.6c-1.5-2.6-2.9-5.2-4.7-7.6
				c-0.3-0.4-0.9-0.8-0.7-1.5c0.3-0.8,1.1-0.7,1.7-0.7C33.6,194.6,37.2,198.1,37.3,202.5z"/>
			<path d="M29.4,210c-2.6-0.1-4.8-1.3-6.2-3.7c-1.5-2.5-1.4-5.1-0.1-7.6c0.3-0.5,0.5-1.1,1.2-1.1c0.7,0,0.8,0.7,1.1,1.2
				c1.4,3.2,3.3,6.2,5.4,9c0.4,0.5,1.1,1,0.7,1.7C31,210.1,30.2,209.9,29.4,210z"/>
			<path d="M293.7,442.7c-0.2,0.5-0.4,0.9-0.7,1.4c-2.4,4.4-4.9,8.7-7.2,13.1c-0.8,1.6-1.7,1.8-3.4,1.3c-26.9-7.7-53.8-15.3-80.7-23
				c-0.7-0.2-1.7-0.1-1.8-1.1c-0.1-0.8,0.8-1,1.3-1.3c6.9-4.7,13.7-9.4,20.5-14.1c1.2-0.9,2.3-1,3.7-0.5c22,7.6,44,15.2,65.9,22.8
				C292.4,441.6,293.3,441.7,293.7,442.7z"/>
			<path d="M307.9,417c-0.2,0.3-0.3,0.7-0.5,1c-2.6,4.8-5.3,9.6-7.9,14.4c-0.6,1.2-1.2,1.9-2.9,1.3c-20.5-7.1-41.1-14.2-61.7-21.3
				c-0.5-0.2-1.2-0.2-1.3-0.9c0-0.7,0.6-0.9,1.1-1.3c5.9-4,11.8-8,17.7-12.1c0.9-0.6,1.7-0.7,2.8-0.3c16.9,5.8,33.8,11.5,50.7,17.3
				C306.6,415.5,307.9,415.5,307.9,417z"/>
		</g>
	</g>
	<rect y="505.1" width="557.3" height="1.7"/>
</g>
</svg>
