<?xml version="1.0" encoding="utf-8"?>
<!-- Generator: Adobe Illustrator 22.1.0, SVG Export Plug-In . SVG Version: 6.00 Build 0)  -->
<svg version="1.1" id="Isolation_Mode" xmlns="http://www.w3.org/2000/svg" xmlns:xlink="http://www.w3.org/1999/xlink" x="0px"
	 y="0px" viewBox="0 0 563 508.9" style="enable-background:new 0 0 563 508.9;" xml:space="preserve">
<g>
	<g>
		<g>
			<path d="M190.6,510.8c-0.1-1,0-1.4,0-2.4c-0.1-25.2-0.1-50.2-0.2-75.4c0-0.9,0.5-2-0.5-2.5c-0.9-0.5-1.6,0.6-2.3,1.1
				c-5.4,3.3-10.6,6.9-16,10.2c-2.5,1.6-5.2,2.8-8.2,3.1c-3.9,0.3-6.9-1.4-8.8-4.8c-1.9-3.2-2.8-6.8-2.8-10.6c0-30.8,0-61.6,0-92.6
				c0-2-0.5-3.6-1.9-5.2c-35.2-40.4-70.2-80.9-105.4-121.2c-1.2-1.4-1.4-2.4-0.1-3.8c1.5-1.8,2.8-3.7,4.1-5.7
				c1.1-1.6,1.9-1.6,3.3-0.3c12.2,10.7,24.4,21.2,36.8,31.9c22.6,19.6,45.4,39.3,68,58.9c1.4,1.2,2.4,1.5,3.9,0.3
				c1.4-1.2,3.9-1.5,4.2-3.2c0.5-2.6,0.3-5.6,0.2-8.3c0-1.2-1.1-1-1.9-1c-2.2,0-4.5,0.1-6.8,0c-4-0.1-7.3-3.2-7.6-7.1
				c-0.1-1.4,0.4-2.3,1.9-2.2c0.7,0,1.5,0,2.2,0c36.8,0,73.7,0,110.4-0.1c2.2,0,2.8,0.8,2.5,2.8c-0.5,3.7-3.5,6.5-7.8,6.6
				c-4,0.1-8.1,0-12.1,0c-22.3,0-44.7,0-67.1-0.1c-2.5,0-2.9,0.8-3.1,3.1c-0.3,4.2,0.5,7.2,4.7,9.5c5,2.7,8.1,7.6,9.6,13.1
				c0.5,1.8,1.4,2.5,3.3,2.6c35.8,2.1,71.6,4.4,107.4,6.6c4.7,0.3,9,2.1,13.3,3.4c24.2,7.4,48.5,14.8,72.7,22.1
				c2.4,0.7,2.6,0.6,2.6-2.4c0-42,0-84.1,0-126.1c0-3.6,0-3.6,3.6-3.6c27.2,0,54.5,0,81.6,0c3.4,0,3.4,0,3.4,3.5c0,8,0.2,16-0.1,24
				c-0.2,6,3.4,11.3,10.6,10.7c1.6-0.2,3.3-0.1,5.1,0c1.5,0.1,2.2-0.5,2.1-2c0-0.7,0-1.5,0-2.2c-0.7-7.8,1.4-15.5,1.5-23.2
				c0-0.4,0-0.8,0.7-1.1c1,0.6,0.7,1.7,0.8,2.6c0.6,8,2,16,1.4,24c-0.1,1.5,0.5,2.1,2,2.1c4.8,0,9.7,0,14.6,0c1.5,0,2.1-0.6,2.1-2.1
				c0-1,0.1-2,0-3c-0.7-7.5,1.4-14.9,1.5-22.2c0-0.5,0.1-1,0.7-1.2c1.1,0.7,0.7,1.9,0.8,2.9c0.5,7.9,2.2,15.8,1.5,23.8
				c-0.1,1.4,0.6,1.9,1.9,1.9c4.7,0,9.4,0,14.1,0c1.6,0,2.1-0.7,2-2.1c0-0.9,0.1-1.8,0-2.7c-0.7-7.6,1.3-15,1.5-22.5
				c0-0.4,0-0.8,0.7-1.2c1,0.5,0.8,1.6,0.8,2.5c0.4,8,2.2,16,1.5,24c-0.1,1.5,0.6,2.1,2.1,2.1c1.2-0.1,2.3,0,3.5,0
				c5.6,0,8.9-2.8,9-8.4c0.2-12.8,0.1-25.7,0.1-38.6c0-1.4-0.7-1.9-2-1.9c-1,0-2,0-3,0c-54.2,0-108.2,0-162.4,0
				c-3.9,0-3.9,0-3.9-3.9c0-18.5,0-37,0.1-55.5c0-2.4-0.7-3-3-2.9c-3.6,0.2-3.6,0.1-3.6-3.4c0-33.8,0-67.6,0-101.4
				c0-7,3.7-12.3,9.9-14.3c1.9-0.6,3.9-0.6,6-0.6c29.4,0,58.8,0,88.2-0.1c2.3,0,3.2,0.5,3.2,3.1c-0.2,7.3-0.2,14.7-0.1,21.9
				c0,2.2-0.8,2.6-2.7,2.6c-9.3-0.1-18.7,0-28-0.1c-2.1,0-2.7,0.7-2.7,2.7c0.1,6.3,0,12.4,0.1,18.7c0.2,13.7,9.6,22.9,23.3,23
				c11.5,0,23,0,34.6,0c13.7,0,23.1-9.3,23.3-23c0.1-6.3-0.1-12.4,0.1-18.7c0-2-0.6-2.6-2.6-2.6c-9.6,0.1-19.2-0.1-28.7,0.1
				c-2.5,0-3-0.8-3-3.1c0.2-11.3,0.1-22.6,0.3-34.1c0-2.2-0.7-2.8-2.8-2.8c-33.3,0.1-66.7,0-100.1,0c-7.2,0-14,1.4-20.1,5.5
				c-6.3,4.1-9.6,9.9-9.6,17.5c0,8.5-0.1,17,0,25.5c0,1.9-0.6,2.4-2.4,2.4c-24.9,0-49.7,0-74.7,0c-1.8,0-2.4-0.6-2.4-2.4
				c0.1-10.1,0.1-20.2,0-30.2c0-5.8-2.2-8-7.9-8c-35.7,0-71.4,0-107.1,0c-5.6,0-7.8,2.2-7.8,7.8c0,22.9,0,45.9,0,68.8
				c0,5.4,2.2,7.7,7.7,7.7c35.9,0,71.7,0,107.6,0c5.3,0,7.5-2.3,7.5-7.6c0-7.5,0.1-15,0-22.4c0-2.1,0.7-2.7,2.7-2.7
				c24.7,0.1,49.2,0.1,73.9,0c2.1,0,2.9,0.5,2.9,2.8c-0.1,21.5-0.1,43.1,0,64.6c0,2.2-0.7,2.9-2.8,2.8c-4.4-0.1-4.2-0.7-4.2,4.1
				c0,23.5,0,47.1,0.1,70.6c0,2.5-0.8,3-3.2,3c-49-0.1-98,0-147-0.1c-4.2,0-8.4,0.2-12.3,1.9c-5.6,2.3-8.9,6.5-9.1,12.5
				c-0.3,9.2-0.1,18.3-0.1,27.5c0,2.2,1.5,2,2.9,2c20.2,0,40.5,0,60.7,0c1.1,0,2.2,0,3.2,0.2c3.4,0.5,6,3.6,6.1,7.1
				c0,1.4-0.5,2-1.9,1.9c-1.2,0-2.5,0-3.7,0c-36.1,0-72.1,0-108.1,0c-3.5,0-4.1-0.8-2.9-4.2c1.1-3.1,3.8-5,7.7-5
				c10.2,0,20.3-0.1,30.5,0c2.3,0,3-0.6,3-3c-0.1-7.7,0.2-15.5-0.1-23.2c-0.5-13.4,8.6-19.3,18.6-20.1c8.9-0.7,17.8-0.2,26.7-0.2
				c41.2,0,82.5,0,123.8,0c2.2,0,2.6-0.8,2.6-2.8c-0.1-24,0-47.9-0.1-71.9c0-2.5,0.7-3.2,3.1-3.1c4,0.2,4,0,4-3.8
				c0-19.4,0-38.8,0.1-58.2c0-2.4-0.7-3.1-3.1-3.1c-22.7,0.1-45.6,0.1-68.3,0c-2.4,0-3.2,0.6-3.1,3.1c0.2,6.7,0.1,13.2,0.1,19.9
				c0,6.4-3.4,9.8-9.9,9.8c-36.1,0-72.1,0-108.1,0c-6.4,0-9.8-3.5-9.8-9.9c0-23.2,0-46.4,0-69.6c0-6.4,3.4-9.8,9.8-9.8
				c36.1,0,72.1,0,108.1,0c6.6,0,9.9,3.3,9.9,10c0,9.2,0.1,18.5,0,27.7c0,2.1,0.5,2.9,2.7,2.9c23-0.1,46.1-0.1,69.1,0
				c2.1,0,2.7-0.7,2.7-2.7c-0.1-7,0-13.9,0-20.9c0-12.4,5.9-20.6,17.5-24.9c4.4-1.6,9.1-2.4,13.8-2.4c34.7,0,69.2,0,103.9-0.1
				c2,0,2.6,0.7,2.5,2.6c-0.2,11.2,0.3,22.5-0.2,33.8c-0.1,3.3-0.1,3.3,3.2,3.3c9.6,0,19.2,0,28.7,0c1.3,0,2.6-0.2,2.4,1.8
				c-0.6,7.5-0.1,15-0.3,22.4c-0.2,11-6.2,19.7-15.9,23.5c-3,1.2-6.2,1.7-9.4,1.7c-11.8,0-23.7,0.1-35.6,0
				c-14.2-0.1-24.6-9.8-25.4-24.1c-0.4-7.9-0.2-15.8-0.3-23.6c0-1.9,1.1-1.7,2.3-1.7c9.5,0,19-0.1,28.5,0c2,0,2.8-0.5,2.7-2.6
				c-0.3-6.1-0.1-12.1,0-18.1c0-1.3-0.6-1.8-1.8-1.8c-0.5,0-1,0-1.5,0c-28.5,0-57,0-85.5,0c-9.1,0-13.4,4.3-13.4,13.4
				c0,32.7,0,65.6-0.1,98.3c0,2.5,0.8,3.1,3.1,3c3.5-0.2,3.5,0,3.5,3.6c0,18.5,0,37,0,55.5c0,3.1,0,3.1,3.2,3.1
				c27.7,0,55.5,0,83.1,0c26.9,0,53.7,0,80.6,0c1.1,0,2.1,0.1,3.2,0.2c0,16,0,31.9,0,47.9c-2.8,3.9-6.6,5.9-11.5,5.8
				c-5.3-0.2-4.7-0.5-4.7,4.6c0,0.7-0.1,1.3-0.1,2c0,7-0.9,13.9,0.5,20.8c1.7,8.4,3.4,16.8,4.5,25.3s2.1,17,1.3,25.7
				c-0.3,3.2-0.9,6.5-2.1,9.6c-1.2,3.1-3.5,4.6-6.8,4.8c-2.9,0.1-4.7-1.9-6-4.3s-1.9-5.2-2.1-8c-1.3-14.9,0.7-29.4,3.9-43.8
				c2.6-11.6,2-23.2,2.4-34.9c0-1.3-0.5-2-1.9-2c-4.7,0-9.4,0-14.1,0c-1.5,0-2.1,0.6-2.1,2.1c0,1.6-0.1,3.2-0.1,4.8
				c-0.1,6.3-0.8,12.6,0.2,18.9c1.5,8.9,3.5,17.8,4.7,26.8c1.2,9.4,2.3,18.9,1.2,28.4c-0.4,2.9-0.9,5.9-2.5,8.4
				c-3.1,5.1-9.1,5-12-0.3c-1.4-2.5-2.1-5.4-2.3-8.2c-1.3-13.4,0.7-26.7,3-39.8c0.9-5.6,2.6-11,3.1-16.6c0.6-7.4,0.2-14.8,0.3-22.1
				c0-1.8-0.7-2.3-2.4-2.3c-4.5,0.1-9.1,0.1-13.6,0c-2,0-2.8,0.5-2.7,2.7c0.1,5.8,0,11.4,0.1,17.2c0,2-0.2,4,0.2,6.1
				c1.5,7,2.9,13.9,4,21c1.7,11.4,3.2,22.8,1.9,34.4c-0.4,3.1-1,6.2-2.9,8.8c-2.8,3.8-7.8,3.9-10.7,0.2c-1-1.3-1.7-2.8-2.2-4.5
				c-0.9-3.3-1.3-6.8-1.4-10.2c-0.2-13,1.8-25.8,4.1-38.5c0.8-4.3,2.3-8.7,2.4-13.1c0.2-7.2,0-14.3,0.1-21.4c0-1.7-0.5-2.5-2.3-2.4
				c-1.7,0.1-3.3,0-5.1,0c-8.4,0-12.8-4.4-12.9-12.9c0-7.4-0.1-14.8,0.1-22.2c0.1-2.4-0.7-3.1-3.1-3.1c-25.8,0.1-51.6,0-77.4,0
				c-3.1,0-3.1,0-3.1,3.3c0,41.5,0,83.1-0.1,124.6c0,2.7,0.9,3.7,3.4,4.5c28.6,8.7,57.2,17.4,85.8,26.2c2.3,0.7,4.6,1.5,6.6,3.1
				c3,2.5,3.9,5.8,3.1,9.5c-0.7,3.6-2.9,6-6.5,7.1c-3.9,1.2-7.9,0.4-11.6-0.7c-13.4-3.9-26.9-7.9-40.3-12
				c-40.6-12.5-81.1-25.2-121.7-37.7c-4.7-1.5-9.4-3.7-14.5-3.7c-34,0-68.1,0-102.1,0c-5.1,0-4.6-0.7-4.7,4.8
				c-0.1,2.4,0.6,3.1,3.1,3.1c34.8-0.1,69.6,0,104.4-0.1c1.6,0,3.1,0.2,4.7,0.7c20.2,6.1,40.3,12.1,60.5,18.3
				c31.8,9.6,63.6,19.2,95.5,28.9c5.8,1.7,11.6,3.5,17.4,5.3c0.8,0.3,2,0.2,2,1.4c0.1,1-0.7,1.6-1.5,2.2c-1.2,0.8-2.6,1.1-4,1.2
				c-3.5,0.3-7.1-0.3-10.5-1.2c-22.1-5.9-43.9-12.4-65.9-18.9c-2.9-0.9-3-0.8-3,2.4c0,9.3,0,18.7,0,28c0,3.8,0,3.8,3.6,4.6
				c6.5,1.4,12.7,3.2,18.8,5.9c33.2,14,55.8,38.7,70.8,70.8c1.1,2.3-0.5,2.1-1.9,2.1c-29.9,0-59.8,0-89.7-0.1c-1.7,0-2,0.5-2,2.1
				c0.1,5.3-0.1,9.9-0.1,15.2c-0.8,0-1.7,0-2.5,0c0-4.9,0-9,0.1-14c0.1-3.3,0.2-3.3-3.2-3.3c-32.4,0-64.9,0-97.3,0
				c-3.9,0-4.4-0.8-2.6-4.2c12.8-25.2,25.7-50.3,38.4-75.5c0.8-1.6,1.8-2.1,3.5-2.1c6.7,0.1,13.2,0,19.9,0
				c13.1,0.1,26.4-0.6,39.5,1.5c2.1,0.3,2.4-0.7,2.4-2.4c0-9.8-0.1-19.7,0-29.5c0-2.5-0.9-3.4-3.1-4.1
				c-17.2-5.1-34.2-10.2-51.4-15.4c-8.1-2.4-16.2-5.3-24.4-7c-3.4-0.7-6.9-1.4-10.2,0.8c-35.3,23.8-70.5,47.4-105.9,71.2
				c-1.1,0.8-1.7,1.6-1.7,3c0,27.2,0,53.9,0,81.1C192.4,510.9,191.4,510.8,190.6,510.8z M505.9,320.6c-0.4-15.4-3.1-30.3-6.3-45.3
				c-0.1-0.6-0.3-1.5-1.2-1.3c-0.8,0.1-0.8,1-1,1.6c-0.9,4.8-1.9,9.5-2.8,14.4c-2,11.3-3.6,22.7-3.3,34.3c0.1,3.1,0.3,6.2,1.2,9.2
				c1.2,4.2,3.3,6.5,6.1,6.5s5-2.2,6.1-6.5C505.7,329.2,506,324.8,505.9,320.6z M528.7,317.4c-0.3-7.1-1.1-14-2.2-21
				c-1.2-7-2.5-13.8-3.8-20.8c-0.1-0.7-0.1-1.7-1.2-1.6c-0.9,0.1-0.9,1-1.1,1.8c-2.6,12.5-5,25.2-5.9,38c-0.5,6.9-0.8,13.7,1.3,20.5
				c0.8,2.7,2.2,5.2,5.6,5.5c2.5,0.2,4.7-1.8,5.9-5.4c0.1-0.3,0.2-0.6,0.3-1C529,328.2,529,322.8,528.7,317.4z M551.5,319.8
				c-0.4-14.8-3.2-29.5-6.2-44.2c-0.1-0.6-0.2-1.5-1-1.5c-1-0.1-1,0.9-1.2,1.6c-3,14.3-5.6,28.5-6.2,43.1
				c-0.2,5.7-0.1,11.3,1.9,16.7c0.9,2.4,2.4,4.3,5.3,4.4c2.8,0.1,4.3-1.9,5.4-4.2c0.3-0.7,0.5-1.4,0.7-2.1
				C551.4,329.1,551.5,324.6,551.5,319.8z M345.9,451c0.1-8.8-8.5-14.6-16.4-11.3c-1.7,0.7-1.9,1.5-0.5,2.8
				c3.9,3.8,7.7,7.7,11.6,11.5c1,0.9,1.8,2.9,3.1,2.4c1.6-0.5,1.6-2.7,2-4.3C346,451.7,345.9,451.2,345.9,451z M334.4,462.2
				c1.4,0.1,2.9-0.3,4.3-0.9c1.7-0.7,2.1-1.3,0.6-2.8c-4.4-4.3-8.8-8.7-13.1-13.1c-1.3-1.4-2-1.3-2.8,0.5
				C320,453.4,325.7,462.1,334.4,462.2z"/>
			<path d="M562.9,191.7c-28.3,0-56.6,0-85,0.1c-1.9,0-2.5-0.6-2.4-2.4c0-2.1-0.2-4.2-0.2-6.3c-0.1-8.8,6-15.4,14.8-15.5
				c20.2-0.2,40.3-0.2,60.5-0.1c5.1,0,9,2.4,11.5,7c0.2,0.4,0.6,0.8,0.9,1.2C562.9,181,562.9,186.4,562.9,191.7z M519.8,189
				c12.9,0,25.9,0,38.8,0c1.1,0,2.5,0.4,2.5-1.5c-0.1-2.5,0.1-5.1-0.3-7.6c-0.9-6.1-4.8-9.7-11-9.7c-19.9-0.1-39.8,0-59.7,0.2
				c-7.3,0.1-12.1,5.5-12,12.7c0,0.9,0.1,1.8,0.1,2.7c-0.2,2.4,0.7,3.1,3.1,3.1C494.1,189,506.9,189,519.8,189z"/>
			<path d="M36.8,227.6c-0.1-2.7,0.4-6.1,1.4-9.3c0.2-0.7,0.1-1.7,1-1.8c0.8-0.2,1.2,0.7,1.7,1.3c10.3,11.7,20.6,23.4,30.9,35.3
				c22.7,26,45.5,51.9,68.2,77.9c0.5,0.6,1.6,1.1,1.2,2c-0.4,1.1-1.5,0.8-2.4,0.9c-13,1.4-23.5-2.9-32.2-12.8
				c-20.1-23-40.4-45.9-60.6-68.8C40,245.3,36.7,237.4,36.8,227.6z"/>
			<path d="M230.8,20.9c17.2,0,34.5,0.1,51.6-0.1c2.5,0,3,0.7,3,3.1c-0.1,21-0.1,42,0,63c0,2.1-0.5,2.7-2.6,2.7
				c-34.7-0.1-69.4-0.1-104.1,0c-2.2,0-2.7-0.7-2.7-2.8c0.1-21,0.1-42,0-63c0-2.3,0.5-3,2.9-2.9C196.3,20.9,213.5,20.9,230.8,20.9z
				 M230.6,86.9c16.5,0,32.9,0,49.4,0c2,0,2.7-0.5,2.7-2.6c-0.1-19.3-0.1-38.6,0-58c0-2.1-0.7-2.6-2.7-2.6
				c-32.8,0.1-65.7,0.1-98.5,0c-2,0-2.7,0.5-2.7,2.6c0.1,19.3,0.1,38.6,0,58c0,2.1,0.7,2.6,2.7,2.6
				C197.9,86.8,214.2,86.9,230.6,86.9z"/>
			<path d="M45.1,181.1c0,3.7-2,6.2-5.5,7.1c-5.6,1.4-4.7,2-6.2-3.6c-5.9-24-11.6-47.8-17.5-71.8c-0.8-3.2-0.7-3.4,2.6-4.1
				c5.4-1.2,8.3,0.5,9.7,6c5.5,21.4,10.9,42.9,16.4,64.2C44.9,179.7,45.1,180.6,45.1,181.1z"/>
			<path d="M7.2,114c0.8,0.2,0.6,0.9,0.7,1.4c3,11.3,6,22.7,9,34.1c3.3,12.6,6.7,25.4,10,38c0.2,0.7,0.9,1.5,0,2
				c-0.7,0.4-1.2-0.3-1.8-0.6c-12.6-7.5-20-18.7-23.3-32.6c-3.3-13.6-2-27,3.7-39.9C5.9,115.5,6.1,114.4,7.2,114z"/>
			<path d="M224.1,163.8c9.2,0,18.3-0.1,27.5,0c2.1,0,2.7-0.6,2.6-2.7c-0.2-3.2,0-6.4-0.1-9.6c-0.1-3.7-2.7-6.5-6.1-6.4
				c-3.3,0.1-5.6,2.7-5.6,6.5c0,1.4,0,2.8,0,4.2c0,0.9,0,2-1.2,2.1c-1.4,0.1-1.3-1-1.3-1.9c0-1.8-0.1-3.7,0-5.6
				c0.2-4.4,3.8-7.9,8.2-7.9c4.4,0,8.2,3.5,8.4,8.1c0.1,3.5,0.2,7.1,0,10.6c-0.1,2.1,0.7,2.5,2.6,2.5c13-0.1,26.1,0,39.1-0.1
				c2.3,0,2.7,1,2.3,2.9c-3.5,17-12.7,29.7-28.5,37.2c-22.9,10.8-55.7,6.2-71.2-19.2c-3.2-5.4-5.5-11.1-6.7-17.3
				c-0.6-3.2-0.4-3.4,2.8-3.5C206.2,163.8,215.1,163.8,224.1,163.8z M247.2,166.5c-15.8,0-31.5,0-47.4,0c-1.9,0-2.9,0.1-2.3,2.6
				c2.9,11.8,9.3,21.3,19.3,28.3c14.9,10.2,31.2,11.5,47.9,6.5c16.5-5.1,27.1-16.5,32-33c1.2-4.1,1.2-4.2-3-4.2
				C278.3,166.5,262.7,166.5,247.2,166.5z"/>
			<path d="M37.5,204.4c0,0.3,0,0.8-0.2,1.2c-0.4,1.3-0.5,3.2-2,3.4c-1.3,0.2-1.3-1.7-1.8-2.6c-1.5-2.6-2.9-5.3-4.7-7.7
				c-0.3-0.4-0.9-0.8-0.7-1.5c0.3-0.8,1.1-0.7,1.7-0.7C33.8,196.4,37.4,199.9,37.5,204.4z"/>
			<path d="M29.6,211.9c-2.6-0.1-4.8-1.3-6.3-3.7c-1.5-2.5-1.4-5.2-0.1-7.7c0.3-0.5,0.5-1.1,1.2-1.1s0.8,0.7,1.1,1.2
				c1.4,3.2,3.3,6.3,5.5,9.1c0.4,0.5,1.1,1,0.7,1.7C31.2,212,30.4,211.8,29.6,211.9z"/>
			<path d="M296.6,447.1c-0.2,0.5-0.4,0.9-0.7,1.4c-2.4,4.4-5,8.8-7.3,13.2c-0.8,1.6-1.7,1.8-3.4,1.3c-27.2-7.8-54.4-15.5-81.5-23.2
				c-0.7-0.2-1.7-0.1-1.8-1.1c-0.1-0.8,0.8-1,1.3-1.3c7-4.8,13.8-9.5,20.7-14.3c1.2-0.9,2.3-1,3.7-0.5c22.2,7.7,44.5,15.4,66.6,23
				C295.3,446,296.2,446.1,296.6,447.1z"/>
			<path d="M310.9,421.1c-0.2,0.3-0.3,0.7-0.5,1c-2.6,4.9-5.4,9.7-8,14.6c-0.6,1.2-1.2,1.9-2.9,1.3c-20.7-7.2-41.5-14.4-62.3-21.5
				c-0.5-0.2-1.2-0.2-1.3-0.9c0-0.7,0.6-0.9,1.1-1.3c6-4,11.9-8.1,17.9-12.2c0.9-0.6,1.7-0.7,2.8-0.3c17.1,5.9,34.1,11.6,51.2,17.5
				C309.6,419.6,310.9,419.6,310.9,421.1z"/>
		</g>
	</g>
</g>
</svg>
