<?xml version="1.0" encoding="utf-8"?>
<!-- Generator: Adobe Illustrator 22.1.0, SVG Export Plug-In . SVG Version: 6.00 Build 0)  -->
<svg version="1.1" id="Layer_1" xmlns="http://www.w3.org/2000/svg" xmlns:xlink="http://www.w3.org/1999/xlink" x="0px" y="0px"
	 viewBox="0 0 69.1 78.4" style="enable-background:new 0 0 69.1 78.4;" xml:space="preserve">
<g>
	<path d="M2.7,52.7c-0.8-0.8-1.4-1.5-2-2.1C0.3,50,0,49.4,0,48.9c0-0.5,0.2-1,0.7-1.4c0.5-0.4,1-0.7,1.7-1C3,46.4,3.7,46.2,4.4,46
		c0.7-0.1,1.4-0.2,1.9-0.2c0.5,0,1,0.1,1.4,0.4c0.4,0.3,0.8,0.6,1.3,1.1c3.2,3.2,6.1,6.7,8.8,10.4c2.6,3.7,5,7.4,7.3,11
		c4.3-11.8,9.3-23.3,14.9-34.5C45.6,23.1,52,12.7,59.1,3c0.7-1,1.8-1.7,3.2-2.2C63.8,0.3,65.4,0,67.2,0c0.6,0,1,0.1,1.4,0.3
		c0.3,0.2,0.5,0.5,0.5,1S69.1,2,69,2.3c-0.1,0.3-0.3,0.7-0.7,1.2c-3.8,5-7.5,10.3-11.1,15.8c-3.6,5.5-7,11.3-10.2,17.4
		c-3.3,6.1-6.3,12.5-9.2,19.2c-2.9,6.7-5.6,13.8-8,21.2c-0.1,0.2-0.3,0.4-0.6,0.5S28.4,78,28,78.1c-0.4,0.1-0.9,0.2-1.5,0.2
		c-0.5,0.1-1.1,0.1-1.6,0.1c-0.8,0-1.5-0.1-2.2-0.2c-0.7-0.2-1.1-0.5-1.4-1c-1.6-2.8-3.2-5.3-4.6-7.4c-1.4-2.1-2.8-4.1-4.3-6
		c-1.4-1.8-2.9-3.6-4.5-5.4C6.4,56.6,4.6,54.7,2.7,52.7z"/>
</g>
</svg>
