<?xml version="1.0" encoding="utf-8"?>
<!-- Generator: Adobe Illustrator 23.0.1, SVG Export Plug-In . SVG Version: 6.00 Build 0)  -->
<svg version="1.1" id="Layer_1" xmlns="http://www.w3.org/2000/svg" xmlns:xlink="http://www.w3.org/1999/xlink" x="0px" y="0px"
	 viewBox="0 0 120.7 120.7" style="enable-background:new 0 0 120.7 120.7;" xml:space="preserve">
<style type="text/css">
	.st0{fill:#EEEEEE;}
	.st1{fill:#041E42;}
	.st2{fill:#FFFFFF;}
</style>
<path class="st0" d="M120.7,60.3c0,33.3-27,60.4-60.3,60.4c-18.1,0-34.3-7.9-45.3-20.5C8,92.3,3.1,82.5,1.1,71.8
	C0.4,68.1,0,64.3,0,60.3C0,27,27,0,60.3,0C79.7,0,97,9.2,108,23.4c6.4,8.3,10.8,18.3,12.2,29.2C120.5,55.1,120.7,57.7,120.7,60.3z"
	/>
<path class="st1" d="M120.2,52.6L15,100.2C8,92.3,3.1,82.5,1.1,71.8l107-48.4C114.5,31.7,118.8,41.7,120.2,52.6z"/>
<g>
	<path class="st2" d="M19.8,82.9c0.1,0,0.1,0,0.2,0c0.1,0,0.1,0,0.2,0l1.3,0.5c-0.2,0.7-0.5,1.3-1,1.8c-0.5,0.5-1.1,1-1.9,1.3
		c-0.7,0.3-1.5,0.5-2.2,0.5c-0.7,0-1.4-0.1-2-0.4c-0.6-0.3-1.2-0.6-1.7-1.2c-0.5-0.5-0.9-1.1-1.2-1.8c-0.3-0.7-0.5-1.5-0.6-2.2
		c0-0.7,0.1-1.4,0.3-2c0.2-0.6,0.6-1.2,1.1-1.7c0.5-0.5,1.1-0.9,1.8-1.3c0.4-0.2,0.7-0.3,1.1-0.4c0.4-0.1,0.7-0.1,1-0.1s0.7,0,1,0.1
		c0.3,0.1,0.6,0.1,0.9,0.2l-0.3,1.4c0,0.1-0.1,0.2-0.1,0.3s-0.1,0.1-0.2,0.2c-0.1,0-0.2,0.1-0.3,0c-0.1,0-0.2,0-0.3,0
		c-0.1,0-0.2,0-0.3,0c-0.1,0-0.3,0-0.4,0c-0.2,0-0.3,0-0.5,0.1c-0.2,0-0.4,0.1-0.6,0.2c-0.4,0.2-0.7,0.4-0.9,0.7
		c-0.2,0.3-0.4,0.6-0.5,1c-0.1,0.4-0.1,0.8-0.1,1.2c0.1,0.4,0.2,0.9,0.4,1.4c0.2,0.5,0.5,0.9,0.8,1.2c0.3,0.3,0.6,0.6,1,0.7
		c0.4,0.2,0.7,0.2,1.1,0.2s0.7-0.1,1.1-0.2c0.2-0.1,0.4-0.2,0.6-0.3c0.2-0.1,0.3-0.2,0.4-0.3c0.1-0.1,0.2-0.2,0.3-0.4
		c0.1-0.1,0.2-0.3,0.3-0.5c0-0.1,0.1-0.1,0.1-0.2C19.7,83,19.7,82.9,19.8,82.9z"/>
	<path class="st2" d="M30.3,75.3c0.3,0.7,0.5,1.4,0.5,2.1c0,0.7-0.1,1.4-0.3,2.1c-0.2,0.7-0.6,1.2-1.1,1.8c-0.5,0.5-1.1,1-1.9,1.3
		c-0.8,0.3-1.5,0.5-2.3,0.6c-0.7,0-1.4-0.1-2.1-0.3c-0.6-0.2-1.2-0.6-1.8-1.1c-0.5-0.5-0.9-1.1-1.3-1.8c-0.3-0.7-0.5-1.4-0.5-2.1
		c0-0.7,0.1-1.4,0.3-2.1c0.2-0.6,0.6-1.2,1.1-1.8c0.5-0.5,1.1-1,1.9-1.3c0.8-0.3,1.5-0.5,2.3-0.6c0.7,0,1.4,0.1,2.1,0.3
		c0.6,0.2,1.2,0.6,1.7,1.1C29.6,74,30,74.6,30.3,75.3z M28,76.3c-0.2-0.5-0.5-0.9-0.8-1.2c-0.3-0.3-0.6-0.6-1-0.7
		c-0.4-0.2-0.7-0.2-1.1-0.2c-0.4,0-0.8,0.1-1.3,0.3c-0.4,0.2-0.8,0.4-1.1,0.7c-0.3,0.3-0.5,0.6-0.6,1S22,77,22.1,77.4
		s0.2,0.9,0.4,1.4c0.2,0.5,0.5,0.9,0.8,1.2c0.3,0.3,0.6,0.6,1,0.7C24.6,81,25,81,25.4,81c0.4,0,0.8-0.1,1.3-0.3
		c0.4-0.2,0.8-0.4,1.1-0.7c0.3-0.3,0.5-0.6,0.6-1s0.1-0.8,0.1-1.2C28.3,77.3,28.2,76.8,28,76.3z"/>
	<path class="st2" d="M40.5,64.8l4.4,9.8l-2,0.9l-2.5-5.6c-0.1-0.1-0.1-0.3-0.2-0.4C40.1,69.3,40,69.2,40,69l-0.3,6.2
		c0,0.2-0.1,0.4-0.2,0.5c-0.1,0.1-0.2,0.3-0.4,0.3l-0.3,0.1c-0.2,0.1-0.3,0.1-0.5,0.1c-0.2,0-0.3-0.1-0.5-0.2l-4.9-3.9
		c0.1,0.2,0.2,0.3,0.2,0.5c0.1,0.1,0.1,0.3,0.2,0.4l2.5,5.6l-2,0.9l-4.4-9.8l1.7-0.8c0.1,0,0.2-0.1,0.3-0.1c0.1,0,0.1,0,0.2,0
		c0.1,0,0.1,0,0.2,0c0.1,0,0.1,0.1,0.2,0.1l4.8,3.8c0.2,0.1,0.3,0.3,0.5,0.4c0.2,0.1,0.3,0.3,0.5,0.5c0-0.2,0-0.5,0-0.7
		c0-0.2,0-0.4,0-0.7l0.3-6.1c0-0.1,0-0.2,0-0.3c0-0.1,0.1-0.1,0.1-0.2c0,0,0.1-0.1,0.2-0.1c0.1,0,0.2-0.1,0.3-0.1L40.5,64.8z"/>
	<path class="st2" d="M49.1,72.7l-2.3,1L42.4,64l2.3-1L49.1,72.7z"/>
	<path class="st2" d="M55.1,58.2l4.4,9.8l-1.2,0.5c-0.2,0.1-0.3,0.1-0.5,0.1c-0.1,0-0.3,0-0.5-0.1l-7.3-3.8c0.1,0.2,0.2,0.3,0.3,0.5
		c0.1,0.2,0.2,0.3,0.2,0.5L53,71l-2,0.9l-4.4-9.8l1.2-0.5c0.1,0,0.2-0.1,0.3-0.1s0.1,0,0.2,0c0.1,0,0.1,0,0.2,0s0.2,0.1,0.3,0.1
		l7.3,3.8c-0.1-0.2-0.2-0.4-0.3-0.5c-0.1-0.2-0.2-0.3-0.2-0.5l-2.3-5.2L55.1,58.2z"/>
	<path class="st2" d="M63.8,60l3.5-1.6l1.9,4.1c-0.3,0.6-0.8,1.1-1.2,1.5s-1,0.8-1.7,1.1c-0.8,0.4-1.6,0.6-2.4,0.6
		c-0.8,0-1.5,0-2.2-0.3c-0.7-0.2-1.3-0.6-1.8-1.1c-0.5-0.5-1-1.1-1.3-1.8c-0.3-0.7-0.5-1.5-0.5-2.2c0-0.7,0.1-1.4,0.3-2.1
		c0.3-0.6,0.6-1.2,1.2-1.8c0.5-0.5,1.2-1,2-1.3c0.4-0.2,0.8-0.3,1.2-0.4s0.8-0.2,1.1-0.2s0.7,0,1,0c0.3,0,0.6,0.1,0.9,0.2l-0.2,1.3
		c0,0.2-0.1,0.4-0.3,0.5c-0.1,0.1-0.3,0.1-0.6,0.1c-0.2,0-0.4,0-0.6,0c-0.2,0-0.4,0-0.6,0c-0.2,0-0.4,0.1-0.6,0.1
		c-0.2,0.1-0.4,0.1-0.6,0.2c-0.4,0.2-0.8,0.4-1,0.7c-0.3,0.3-0.5,0.6-0.6,1c-0.1,0.4-0.2,0.8-0.1,1.2s0.2,0.9,0.4,1.4
		c0.2,0.5,0.5,0.9,0.8,1.3c0.3,0.3,0.7,0.6,1.1,0.7s0.8,0.2,1.2,0.2c0.4,0,0.9-0.1,1.3-0.3c0.3-0.1,0.5-0.3,0.7-0.4
		c0.2-0.2,0.4-0.3,0.6-0.5L66,61l-1,0.4c-0.1,0.1-0.3,0.1-0.4,0c-0.1,0-0.2-0.1-0.3-0.2L63.8,60z"/>
	<path class="st2" d="M76.1,51.1c0,0.1-0.1,0.3-0.1,0.3c0,0.1-0.1,0.2-0.2,0.2c-0.1,0-0.2,0.1-0.4,0.1c-0.1,0-0.3,0-0.5,0
		c-0.2,0-0.4,0-0.6,0c-0.2,0-0.5,0.1-0.7,0.2c-0.4,0.2-0.7,0.4-0.8,0.7c-0.1,0.3-0.1,0.6,0,0.9c0.1,0.2,0.2,0.3,0.4,0.4
		c0.2,0.1,0.4,0.1,0.6,0.1c0.2,0,0.5,0,0.8-0.1c0.3,0,0.6-0.1,0.9-0.1c0.3,0,0.6,0,1,0c0.3,0,0.6,0.1,0.9,0.2s0.6,0.3,0.8,0.5
		c0.3,0.2,0.5,0.6,0.7,1c0.2,0.5,0.3,0.9,0.3,1.4c0,0.5-0.1,0.9-0.2,1.3c-0.2,0.4-0.4,0.8-0.8,1.2s-0.8,0.7-1.4,0.9
		c-0.3,0.1-0.6,0.2-1,0.3s-0.7,0.1-1,0.1c-0.3,0-0.7,0-1,0c-0.3,0-0.6-0.1-0.9-0.2l0.2-1.4c0-0.1,0.1-0.2,0.1-0.3
		c0.1-0.1,0.1-0.2,0.3-0.2c0.1-0.1,0.3-0.1,0.5-0.1c0.2,0,0.4,0,0.6,0.1s0.5,0,0.7,0c0.3,0,0.5-0.1,0.9-0.2c0.4-0.2,0.7-0.4,0.8-0.7
		c0.1-0.3,0.1-0.6,0-1c-0.1-0.2-0.3-0.4-0.4-0.5c-0.2-0.1-0.4-0.1-0.7-0.1c-0.2,0-0.5,0-0.8,0.1c-0.3,0-0.6,0.1-0.9,0.1
		c-0.3,0-0.6,0-0.9,0c-0.3,0-0.6-0.1-0.9-0.2s-0.6-0.3-0.8-0.6c-0.3-0.3-0.5-0.6-0.7-1.1c-0.2-0.4-0.3-0.8-0.3-1.2s0.1-0.8,0.2-1.2
		c0.2-0.4,0.4-0.8,0.8-1.1c0.3-0.4,0.8-0.6,1.3-0.9c0.3-0.1,0.6-0.2,0.9-0.3c0.3-0.1,0.6-0.1,0.9-0.2c0.3,0,0.6,0,0.9,0
		c0.3,0,0.5,0.1,0.8,0.2L76.1,51.1z"/>
	<path class="st2" d="M89.1,48.8c0.3,0.7,0.5,1.4,0.5,2.1c0,0.7-0.1,1.4-0.3,2.1c-0.2,0.7-0.6,1.2-1.1,1.8s-1.1,1-1.9,1.3
		c-0.8,0.3-1.5,0.5-2.3,0.6c-0.7,0-1.4-0.1-2.1-0.3c-0.7-0.2-1.2-0.6-1.8-1.1c-0.5-0.5-0.9-1.1-1.3-1.8c-0.3-0.7-0.5-1.4-0.5-2.1
		c0-0.7,0.1-1.4,0.3-2.1c0.2-0.6,0.6-1.2,1.1-1.8s1.1-1,1.9-1.3c0.8-0.3,1.5-0.5,2.3-0.6c0.7,0,1.4,0.1,2.1,0.3
		c0.6,0.2,1.2,0.6,1.7,1.1C88.4,47.5,88.8,48.1,89.1,48.8z M86.8,49.8c-0.2-0.5-0.5-0.9-0.8-1.2c-0.3-0.3-0.6-0.6-1-0.7
		s-0.7-0.2-1.1-0.2c-0.4,0-0.8,0.1-1.3,0.3c-0.4,0.2-0.8,0.4-1.1,0.7c-0.3,0.3-0.5,0.6-0.6,1c-0.1,0.4-0.1,0.8-0.1,1.2
		c0,0.4,0.2,0.9,0.4,1.4c0.2,0.5,0.5,0.9,0.8,1.2c0.3,0.3,0.6,0.6,1,0.7c0.4,0.2,0.7,0.2,1.1,0.2c0.4,0,0.8-0.1,1.3-0.3
		c0.4-0.2,0.8-0.4,1.1-0.7c0.3-0.3,0.5-0.6,0.6-1c0.1-0.4,0.1-0.8,0.1-1.2C87.1,50.8,87,50.3,86.8,49.8z"/>
	<path class="st2" d="M100.1,43.9c0.3,0.7,0.5,1.4,0.5,2.1c0,0.7-0.1,1.4-0.3,2.1c-0.2,0.7-0.6,1.2-1.1,1.8c-0.5,0.5-1.1,1-1.9,1.3
		c-0.8,0.3-1.5,0.5-2.3,0.6c-0.7,0-1.4-0.1-2.1-0.3c-0.7-0.2-1.2-0.6-1.8-1.1c-0.5-0.5-0.9-1.1-1.3-1.8c-0.3-0.7-0.5-1.4-0.5-2.1
		c0-0.7,0.1-1.4,0.3-2.1c0.2-0.6,0.6-1.2,1.1-1.8c0.5-0.5,1.1-1,1.9-1.3c0.8-0.3,1.5-0.5,2.3-0.6c0.7,0,1.4,0.1,2.1,0.3
		c0.6,0.2,1.2,0.6,1.7,1.1C99.3,42.6,99.7,43.2,100.1,43.9z M97.7,44.9c-0.2-0.5-0.5-0.9-0.8-1.2c-0.3-0.3-0.6-0.6-1-0.7
		c-0.4-0.2-0.7-0.2-1.1-0.2c-0.4,0-0.8,0.1-1.3,0.3c-0.4,0.2-0.8,0.4-1.1,0.7c-0.3,0.3-0.5,0.6-0.6,1c-0.1,0.4-0.1,0.8-0.1,1.2
		c0,0.4,0.2,0.9,0.4,1.4c0.2,0.5,0.5,0.9,0.8,1.2c0.3,0.3,0.6,0.6,1,0.7c0.4,0.2,0.7,0.2,1.1,0.2c0.4,0,0.8-0.1,1.3-0.3
		c0.4-0.2,0.8-0.4,1.1-0.7c0.3-0.3,0.5-0.6,0.6-1c0.1-0.4,0.1-0.8,0.1-1.2C98.1,45.9,98,45.4,97.7,44.9z"/>
	<path class="st2" d="M107.8,34.5l4.4,9.8l-1.2,0.5c-0.2,0.1-0.3,0.1-0.5,0.1c-0.1,0-0.3,0-0.5-0.1l-7.3-3.8
		c0.1,0.2,0.2,0.3,0.3,0.5s0.2,0.3,0.2,0.5l2.4,5.3l-2,0.9l-4.4-9.8l1.2-0.5c0.1,0,0.2-0.1,0.3-0.1s0.1,0,0.2,0c0.1,0,0.1,0,0.2,0
		c0.1,0,0.2,0.1,0.3,0.1l7.3,3.8c-0.1-0.2-0.2-0.4-0.3-0.5s-0.2-0.3-0.2-0.5l-2.3-5.2L107.8,34.5z"/>
</g>
</svg>
