<?xml version="1.0" encoding="utf-8"?>
<!-- Generator: Adobe Illustrator 24.2.1, SVG Export Plug-In . SVG Version: 6.00 Build 0)  -->
<!DOCTYPE svg PUBLIC "-//W3C//DTD SVG 1.1//EN" "http://www.w3.org/Graphics/SVG/1.1/DTD/svg11.dtd" [
	<!ENTITY ns_extend "http://ns.adobe.com/Extensibility/1.0/">
	<!ENTITY ns_ai "http://ns.adobe.com/AdobeIllustrator/10.0/">
	<!ENTITY ns_graphs "http://ns.adobe.com/Graphs/1.0/">
	<!ENTITY ns_vars "http://ns.adobe.com/Variables/1.0/">
	<!ENTITY ns_imrep "http://ns.adobe.com/ImageReplacement/1.0/">
	<!ENTITY ns_sfw "http://ns.adobe.com/SaveForWeb/1.0/">
	<!ENTITY ns_custom "http://ns.adobe.com/GenericCustomNamespace/1.0/">
	<!ENTITY ns_adobe_xpath "http://ns.adobe.com/XPath/1.0/">
]>
<svg version="1.1" id="Layer_1" xmlns:x="&ns_extend;" xmlns:i="&ns_ai;" xmlns:graph="&ns_graphs;"
	 xmlns="http://www.w3.org/2000/svg" xmlns:xlink="http://www.w3.org/1999/xlink" x="0px" y="0px" viewBox="0 0 430.3 299.1"
	 style="enable-background:new 0 0 430.3 299.1;" xml:space="preserve">
<style type="text/css">
	.st0{fill:#00AEEF;}
	.st1{fill:#27234C;}
	.st2{fill:#EAC1CE;}
	.st3{fill:#FDFEFE;}
	.st4{fill:#E48F9B;}
	.st5{fill:#FFFFFF;}
	.st6{fill:#E9F0FF;}
	.st7{fill:none;stroke:#0F1E51;stroke-width:0.25;stroke-miterlimit:10;}
	.st8{fill:#FF0046;}
	.st9{fill:none;stroke:#FFFFFF;stroke-miterlimit:10;}
	.st10{fill:none;stroke:#FFFFFF;stroke-miterlimit:10;stroke-dasharray:2.9788,2.9788;}
	.st11{fill:none;stroke:#FFFFFF;stroke-miterlimit:10;stroke-dasharray:3.0186,3.0186;}
	.st12{fill:none;stroke:#FFFFFF;stroke-miterlimit:10;stroke-dasharray:3.033,3.033;}
	.st13{fill:none;stroke:#FFFFFF;stroke-miterlimit:10;stroke-dasharray:2.8953,2.8953;}
	.st14{fill:none;stroke:#FFFFFF;stroke-miterlimit:10;stroke-dasharray:2.9531,2.9531;}
	.st15{fill:none;stroke:#FFFFFF;stroke-miterlimit:10;stroke-dasharray:3.0259,3.0259;}
	.st16{fill:none;stroke:#FFFFFF;stroke-miterlimit:10;stroke-dasharray:2.9772,2.9772;}
	.st17{enable-background:new    ;}
	.st18{fill:#23A2F8;}
	.st19{fill:#058DD8;}
	.st20{fill:#2161EC;}
	.st21{fill:#FCD67A;}
	.st22{fill:#ECB329;}
	.st23{fill:#C35C3A;}
	.st24{fill:#B0CEF1;}
</style>
<metadata>
	<sfw  xmlns="&ns_sfw;">
		<slices></slices>
		<sliceSourceBounds  bottomLeftOrigin="true" height="299.2" width="430.3" x="0" y="-0.1"></sliceSourceBounds>
	</sfw>
</metadata>
<g id="BACKGROUND">
</g>
<g id="OBJECTS">
	<g>
		<g>
			<path class="st0" d="M59.2,59.3c-1.8-0.7-3.7-0.9-5.6-0.7c-1.7,1.6-4.7,2-7,2.2c-2.3-2.3-5.2-4.4-8.1-5.9c-1.9-1-4.2-2-4.8-4.1
				c-1-3.3-6.7-4.7-10.1-3.9c-4.3-1.2-9.2,0.3-12.7,3.2c-1.5,1.2,0.2,4.3,1.5,5.8s3,3.1,2.6,5c-1.6,0.8-3.8,0.9-5.5,0.8
				c-1.1,0-2.1-0.3-3.1,0.1C5.5,62,4.7,63.1,5,64c-0.7,1.2-1.5,1.8-0.7,3C4.9,67.9,6,68.6,6,69.7c0,0.9-0.7,1.6-1.5,1.9
				c-0.8,0.4-1.6,0.6-2.4,1c-2.3,1.4-2.3,4.7-2,7.4c1.5,1.8,1.7,4.9,1,7.1c-0.3,0.8-0.7,1.7-0.4,2.6c0.3,1,1.5,1.3,2.4,1.6
				c2.1,0.5,4.6,1,6.2-0.4c4.4-3.6,11.2-1.8,16.8-0.5c1.9,0.4,3.9,1.1,5.1,2.8c1.5,2.2,0.9,5.2-0.4,7.5c-1.2,2.3-3,4.4-3.8,6.9
				c-0.7,2.4-0.5,4.9-0.3,7.3c0.3,3,0.6,6.2,2.3,8.7c1.8,2.6,3,6.5,2.8,9.6c-0.1,2.5-1,5.1-0.8,7.6c0.4,4.6,4.4,8.1,8.5,10.3
				c4.3,2.3,7.9,6.3,9.4,10.9c0.7,2.3,1,4.8,1.6,7.1c1.1,4.1,3.6,7.7,6.9,10.4c2.4,1.9,6.3,2.6,9.4,3.1c1.6,0.3,3.3,0.5,4.4,1.6
				c0.5,0.5,0.9,1.1,1.5,1.6c2.5,2.5,7.2,1.5,9.7,3.9c0.7,0.6,1.1,1.5,1.7,2.2c1.6,1.9,4.1,3,6.5,2.8c-0.6,1.9,1.7,4.1,1,5.9
				c-0.6,1.5-2.2,2.1-3.4,3.2c-2,1.9-2.3,5-1.5,7.6c0.9,2.6,2.7,4.7,4.5,6.8c3.4,3.8,7.5,5.6,11.2,9.1c3.4,3.2,4.2,8.5,3.4,13.1
				c-0.8,4.6-2.8,9-4.2,13.5c-2.7,8.4-3.4,17.6-0.8,26s8.7,15.9,16.8,19.2c0.9,0.4,2-0.3,2.7-1s0.8-1.9,0.3-2.7
				c-1.5-2.7-4.1-5-6-7.4c-0.6-0.8-1.2-1.6-1.2-2.6c0.1-1.1,1-1.9,1.7-2.7c1-1.3,1.6-2.9,1.6-4.6c0-1.6-0.9-3.1-0.9-4.6
				c0.1-1.5,0.9-3.2,2.4-3.7c0.7-0.2,1.4-0.2,2.1-0.5c2.1-0.9,1.8-4.2,3.3-5.9c0.7-0.8,1.8-1.2,2.7-1.7c4.1-2,7.5-5.9,7.9-10.4
				c0.3-3.6-1-8,1.7-10.4c2.5-2.2,6.4-0.7,9.7-1.3c1.3-0.2,2.2-1.5,2.9-2.7c0.6-1.2,0.7-2.6,0.5-4c-0.3-1.7-1-3.3-0.8-4.9
				c0.2-2.3,2.1-4.2,3.5-6c1.7-2.2,2.9-4.8,3.5-7.5c0.7-3.1-1.3-6.8-4.1-8.3s-6.1-1.6-9.3-1.7c-3.2-0.1-6.6-0.3-9.2-2.2
				c-2.4-1.7-3.7-4.4-5.6-6.7c-3.2-3.8-7.8-5.9-12.3-8c-1.7-0.8-3.6-1.6-5.3-1c-0.7,0.2-1.3,0.7-2,0.8c-2,0.4-3.6-1.5-5.3-2.4
				c-3.7-2-8.9,0.9-9.3,5c-1.9,0.7-5.4,0.1-6.5-1.6c-0.8-1.2-1.1-2.9-2.4-3.5c-0.7-0.3-1.6-0.2-2.2-0.7c-1-0.8-0.2-2.4,0-3.6
				c0.3-2-1.2-3.9-3.1-4.8c-1.8-0.9-4-1-6-1c-2-0.1-4.2-0.2-6-1.1c-3.6-1.8-5-6.6-3.5-10.3c1.6-3.7,5.6-5.9,9.6-5.8
				c3.9,0.1,8,3,8,6.9c0,1,1.6,1.1,2.5,0.6s1.3-1.5,1.5-2.4c0.2-1,0.2-2,0.5-2.9c0.7-2.2,2.9-3.8,5.2-3.8c2.4,0,4.1-2.4,5.8-4
				c1.7-1.7,2.7-4.2,2-6.5c-0.4-1.2-1.2-2.5-0.8-3.7c0.3-1,1.3-1.5,2.2-1.9c2.6-1.1,5.4-1.6,8.2-1.5c2.4,0.1,3.7-1.4,4.9-3.5
				c0.9-1.5,1.3-3.4,2.7-4.4c2.1-1.5,5.1-0.2,7.7-0.4c3.8-0.3,6.8-4.6,5.7-8.2c-0.5-1.8-1.7-3.2-2.7-4.7c-1.4-2.1-2.3-4.5-2.8-6.9
				c-0.5-2.3-0.6-4.8-2.1-6.5c-2.3,0.1-5.2,0-7.2,1.1c-0.4-2.4-0.9-4.9-2.3-6.8c-1.5-1.9-4.3-3-6.4-1.8c-2,1.2-2.5,4-2.1,6.3
				s1.3,4.6,1.3,6.9c-0.1,2.4-1.7,5-4.1,4.9c-1.2,0-2.3-0.8-3.2-1.7c-1.2-1.2-2.2-2.8-3.8-3.6c-1.2-0.6-2.6-0.6-3.9-0.9
				c-4.5-1-7.6-6.1-6.3-10.6c1.2-4.4,6.5-7.2,10.9-5.8c5.3-1.9,7.4-8.6,5.3-13.8c-2.1-5.2-7.8-8.4-13.4-8.7
				c-1.6-0.1-3.3,0.1-4.9-0.3c-4.5-1.1-6.9-6.1-10.8-8.6C68,58.8,62.1,60.4,59.2,59.3z"/>
			<path class="st0" d="M130.2,43.2c-1.7,2.6,0.2,6.2,2.7,8.1s5.7,3,7.7,5.5c3.2,3.9,2.3,9.8,0.5,14.5c-1.8,4.8-4.2,9.6-3.6,14.6
				c0.3,2.4,1.3,4.6,2.5,6.7c1.2,2,2.9,3.9,5.2,4.4c2.9,0.7,5.8-1,7.9-3c2.2-2,4.1-4.4,6.7-5.7c3.8-1.9,8.7-1.2,12-3.8
				c4.1-3.3,3.5-9.5,4.6-14.7c1.9-8.6,9.4-15,12.3-23.3c0.6-1.6,1-3.3,0.9-5.1c-0.1-5.6-4.8-10.2-10.1-12.1
				c-6.5-2.3-13.1-0.9-19.7-1.2c-3.6-0.2-7.6-1.7-11.1-0.2c-5.4,2.3-3.8,7.6-7.4,10.8C138.3,41.6,132.6,39.5,130.2,43.2z"/>
			<path class="st0" d="M276.3,77c-3.1-3-8.2-0.1-11.4,2.8c-3.2,2.9-6.4,5.7-9.6,8.6c-2.4,2.2-5,4.4-8.2,4.9s-7-1.5-7.1-4.7
				c2.2-2.1,6.5,1,8.5-1.2c1.8-2-0.8-4.8-3.1-6.1c-4.2-2.4-8.5-4.9-13.4-5.6c-4.8-0.7-10.3,1-12.8,5.1c-2.1,3.6-1.7,8.2-3.9,11.8
				c-1.3,2.2-3.5,3.8-5,6c-1.5,2.1-2.1,5.3-0.3,7.2c1.5,1.5,4,1.5,5.5,3c1.1,1.2,1.5,3.1,3,3.7c1.7,0.7,3.6-0.9,4-2.7
				c0.4-1.8-0.2-3.7-0.5-5.5c-0.9-5.4,1.9-12.1,7.3-12.9c1.2,0,1.7,1.8,1.1,2.9c-0.6,1.1-1.6,1.9-2.2,3c-1.1,2.1,0.2,5,2.4,5.6
				c2.4,0.6,6.3,0.1,6,2.5c-0.3,2.6-5.1,0.9-6.6,3c-0.9,1.2-0.1,3-0.1,4.5c0,3-3.3,4.9-6.3,5.2c-3,0.2-6-0.7-9-0.4
				c-3,0.3-6.2,2.4-6.1,5.4c-4.1,1.9-8.4,3.5-12.8,4.7c0.2,3.2,6.3,3.5,6.3,6.8c0,1.9-2.4,3-4.4,2.8c-1.9-0.1-3.9-0.9-5.8-0.4
				c-3.3,0.9-4.4,5.4-2.6,8.3c1.8,2.8,5.5,4,8.9,3.7c1.3-0.1,2.8-0.5,3.6-1.5s0.9-2.4,1.2-3.6c0.8-2.8,3.1-5.1,5.9-5.7
				c1.6-0.4,3.5-0.4,4.4-1.8c3.6,2,6.2,5.8,6.6,9.9c1.2,1.5,3.8-0.4,3.5-2.3c-0.3-1.9-1.9-3.2-3.2-4.6c-1.3-1.4-2.4-3.5-1.4-5.1
				c6.2,1.8,11.2,7.2,12.6,13.5c2.2-0.4,3.4-3.4,2.1-5.2c0.7-1.5,3.1-0.6,3.8,0.8s0.6,3.3,1.7,4.6c2.9,3.8,10.8-0.8,13.2,3.3
				c1.7,2.9-2.1,6.3-5.5,6.2c-3.3-0.1-6.4-2-9.7-2.3c-3.7-0.4-7.3,1.2-10.9,1.6c-3.7,0.4-8.2-1-9-4.6c-0.2-1-0.1-2-0.6-2.9
				c-0.7-1.2-2.4-1.5-3.8-1.3c-6.1,0.7-12.3,7-17.4,3.5c-3.2,6.3-11.1,8.6-15.5,14.2c-4.8,6-4.4,15.3,0.3,21.4
				c4.6,6.1,12.9,9,20.5,8c1.7-0.2,3.6-0.6,5.2,0.1c1.6,0.7,2.6,2.2,4,3.3c1.3,1.1,3.6,1.7,4.7,0.3c-1.3,3.2-0.9,6.9,0.9,9.8
				c2,3.1,5.7,5.5,5.6,9.2c0,1.9-1.1,3.6-1.7,5.4c-2.4,8.4,7.5,15.2,9.1,23.8c0.4,2.3,0.4,5.1,2.4,6.4c0.9,0.6,2,0.7,3.1,0.8
				c5.5,0.4,12.5-1.3,13.6-6.7c0.3-1.5,0.1-3.1,0.1-4.7c0.1-4.7,3-9.2,7.2-11.3c1.1-0.6,2.4-1,3.3-1.9c2-2,1.6-5.3,0.5-7.9
				c-1-2.6-2.5-5.2-2.2-8c0.6-4.5,5.4-6.8,9-9.5c5.5-4,9.2-10.3,10.2-17c-5,1.6-11.2,2.9-15-0.7c-1.3-1.3-2.1-2.9-2.9-4.6
				c-2.4-5-4.7-9.9-7.1-14.9c-0.3-0.7-0.6-1.4-0.4-2.1c0.7-1.8,3.5-0.3,4.5,1.3c3.8,5.9,7.2,12,10.2,18.4c6.1-1.1,12-3.7,17-7.4
				c1.6-1.2,3.2-2.6,3.7-4.5s-0.5-4.4-2.4-4.7c-0.8-0.1-1.5,0.1-2.3,0.1c-4.6,0.5-8.6-3-11.7-6.6c2.1-2.3,5.8-1,8.7,0.3
				c5.1,2.3,10.4,4,15.9,4.9c1.4,0.2,2.8,0.4,4,1.1c0.9,0.4,1.6,1.1,2.3,1.7c6.3,5.8,11,13.4,13.4,21.7c2.4,0.5,4.1-2.4,4.3-4.9
				s-0.1-5.3,1.7-7c1.4-1.4,3.7-1.5,4.9-3.1c1.5-1.9,0.7-5.1,2.5-6.8c2.3-2.1,5.9,0.5,7.1,3.3s1.6,6.3,4.2,8
				c1.4-0.2,2.7-0.4,4.1-0.6c0,6.9,2.4,13.8,6.7,19.3c2.3-1.2,1.3-4.8-0.2-7s-2.9-5.5-0.8-7.1c2.9,0,4.2,4,7,4.7s5.3-2.6,4.8-5.5
				c-0.5-2.8-2.9-4.9-5.4-6.3c-2.3-2.5,1-6.4,4.3-7s6.9,0.4,9.9-1.1c3.6-1.8,4.8-6.5,4-10.4s-3.1-7.3-5-10.8c-1.6-3-2.4-7.7,0.7-9
				c0.8-0.4,1.8-0.3,2.7-0.4c11.9-0.5,21.8-13.1,19.4-24.8c-0.5-2.2-1.3-4.4-2.9-6c-2.8-2.9-7.6-3.6-9.8-7
				c-2.6-4.2,0.6-9.8,4.8-12.5c4.1-2.7,9.2-3.9,13.1-7c1,0,1.6-1,1.8-2.1c0.1-0.6,0-1.3,0-1.9c0-1.8,1.3-3.5,3-4s3.7,0.2,4.7,1.8
				c1.2,1.9,0.7,4.3-0.2,6.3c-0.9,2-2.1,4-2.3,6.1c-0.2,2.2,1,4.7,3.2,5c2.7,0.3,4.4-2.9,4.6-5.5c0.2-2.7-0.3-5.6,1.1-7.9
				c2.2-3.4,8.2-4.2,8.4-8.3c0.1-3.3-4-5.2-4.8-8.4c-0.3-1.3,0-2.6,0.1-4c0.5-4.9-1.7-10.1-5.6-13.1c-3.9-3.1-9.3-4.1-14.1-2.5
				c-1.5,0.5-3,1.3-4.6,1.7c-2.3,0.6-4.7,0.4-7.1,0.3c-4.3-0.3-8.5-0.6-12.8-0.9c-3.8-0.3-7.9-0.5-11.2,1.3
				c-4.9,2.6-7.7,9.1-13.3,9.7c-3.9,0.5-7.4-2.2-11.1-3.7c-5.9-2.3-13.1-1.2-18,2.8c-1.9-0.9-1.3-3.7-1.9-5.7
				c-0.7-2.1-2.9-3.3-5.1-3.5s-4.3,0.5-6.4,1.1c-4.5,1.5-9.6,3.9-10,8.6c-0.1,1.3,0.2,2.7-0.4,3.9c-0.8,1.7-2.9,2.3-4.2,3.6
				c-1.6,1.6-1.8,4-1.9,6.3c-0.1,2.2-0.1,4.6-1.4,6.5C284.7,77.7,277.9,78.6,276.3,77z"/>
			<path class="st0" d="M359.7,206c1,1.5,2.7,2.4,4.4,3.1c2,0.9,4.5,1.5,6.3,0.3c1.2-0.8,5.4-6.6,5.7-7.8c0.6-2.4-0.2-2.3-2.6-2.7
				C369.5,198,355.2,199.5,359.7,206z"/>
			<path class="st0" d="M345.6,205.2c5.5,10.1,16.9,16.7,28.4,16.6c0.8-0.8-0.4-2.1-1.4-2.5c-2.9-1.2-6-1.8-9-2.9
				c-3-1-5.9-2.6-7.7-5.2c-0.7-1.1-1.2-2.3-1.8-3.5c-1.7-3.4-8.6-11.9-12.9-9.8C342.3,200.1,344.2,202.7,345.6,205.2z"/>
			<path class="st0" d="M375.7,228.7c-1.5,1.7-2.9,3.7-5,4.2c-1.3,0.3-2.6,0-3.9,0.3c-3.8,0.9-4.6,5.9-3.8,9.7
				c0.9,3.8,2.6,7.7,1.2,11.3c-0.3,0.7-0.7,1.4-0.7,2.2c0,0.9,0.7,1.7,1.4,2.3c3.4,2.6,8.3,0.7,12.1-1.3c3.8-2,8.3-4.3,12.1-2.2
				c4,2.2,4.4,7.8,6.9,11.6c2.2,3.4,7,5.4,10.4,3.3c1.2-0.7,2-1.8,2.8-2.9c1.7-2.2,3.4-4.5,5.1-6.7c2.3-2.9,4.6-6.1,5-9.8
				c0.8-7.1-5.5-12.8-11.2-17.2c-0.3-2.3-0.6-4.6-1.8-6.6c-2.3-4-7.1-4.4-5.8,1.2c-3.7,0.1-6.7-5.4-10.9-5.9
				C384.8,221.6,378.9,225.1,375.7,228.7z"/>
		</g>
		<g>
			<path class="st1" d="M118.3,206.1c0,0-0.2,3.8-0.5,4.1c-0.3,0.4-1.3,0.3-1.6-0.2c-0.3-0.5,0.8-3.8,0.8-3.8L118.3,206.1z"/>
			<path class="st2" d="M124.9,172.5l1.2,7.4l-0.9,14.9l-0.8,11.1c-0.1,0.5,0.2,0.8-0.3,0.9l0,0c-0.7,0.1-1.4-0.4-1.3-1.2l0.3-11.7
				l0.4-10.8l-2.6,0.2l-1.2,12.8l-1.5,10.1l-1.1,0.3l0.3-11l1.2-14.7l0.7-4.8l2.5-0.5L124.9,172.5z"/>
			<path class="st1" d="M124.4,206l2.7,1.4l-0.2,0.3c-0.7,0.1-1,0.1-1.7-0.2l-2.3-1v-0.8L124.4,206z"/>
			<path class="st1" d="M121.1,173.1l-3.4,5.3l-1.9,13.7c0,0,5.9,1.9,8.5,0.5c2.6-1.5,2.5-2.2,2.5-2.2l-0.5-11.8l-2.9-8
				c-0.1-1-0.4-2.5-1.4-2.7l-0.4-1.2l-2.6,0.7h0.3c-0.8,0.5-0.2,0.2-0.5,1.1L121.1,173.1z"/>
			<polygon class="st2" points="119.4,165.3 123.7,164.9 122.4,169.3 			"/>
			<path class="st1" d="M117.5,159.2c0,2.1,1.7,3.9,3.9,3.9c2.1,0,3.9-1.7,3.9-3.9c0-2.1-1.7-3.9-3.9-3.9S117.5,157.1,117.5,159.2z"
				/>
			<path class="st1" d="M116.8,156.5c0,1.2,1,2.2,2.2,2.2s2.2-1,2.2-2.2s-1-2.2-2.2-2.2S116.8,155.3,116.8,156.5z"/>
			<path class="st3" d="M124.2,164.8c0,0,6.7,6.3,6.8,6s3.2-5.7,3.2-5.7l0.9,0.5l-3,7.2c-0.2,0.6-0.9,0.8-1.5,0.6l-6.6-2.7
				L124.2,164.8z"/>
			<path class="st2" d="M121.8,156c1.8,0,3.3,1.5,3.3,3.3v2.1c0,1.8-1.5,3.3-3.3,3.3s-3.3-1.5-3.3-3.3v-2.1
				C118.5,157.5,120,156,121.8,156z"/>
			<path class="st1" d="M121.8,156c-1.8,0-3.3,1.5-3.3,3.3v1.7c1-0.4,1.7-1.5,1.7-2.7c0-0.3,0-0.5-0.1-0.8c0.5,0.3,1,0.5,1.7,0.5
				c0.9,0,1.7-0.4,2.3-1.1C123.5,156.4,122.7,156,121.8,156z"/>
			<path class="st3" d="M125.6,172.7l1-1.4c0.5-0.7,0.5-1.5,0.1-2.3l-0.6-1.1c-0.9-1.1-0.9-2.9-1.9-3.1l-6.6,0.6l-0.2,0.1
				c-0.5,0.4-0.8,2.6-0.1,4.8c0.4,1.1,2,3.1,2,3.1l-1.8,5c0.3,0.4,0.9,0.8,2,0.9c1.8,0.1,5.7-0.1,6.9-0.9L125.6,172.7z"/>
			<path class="st3" d="M117.4,165.6"/>
			<polygon class="st3" points="117.4,165.6 112.4,173.6 114.2,182.1 115.6,182.3 115.3,173.8 119.5,168.3 			"/>
			<polygon class="st4" points="112,181.6 118.7,184 117.5,190.4 110.6,187.8 			"/>
			<circle class="st2" cx="114.8" cy="183" r="1.1"/>
			<g>
				
					<rect x="134.4" y="161.1" transform="matrix(0.6384 -0.7697 0.7697 0.6384 -77.4378 162.8267)" class="st1" width="0.3" height="5.5"/>
			</g>
			<circle class="st2" cx="134.9" cy="164.8" r="1.1"/>
		</g>
		<g>
			<path class="st1" d="M376.2,71.5c0,0,0.2,3.7,0.5,4c0.3,0.4,1.3,0.3,1.6-0.2c0.3-0.5-0.8-3.7-0.8-3.7L376.2,71.5z"/>
			<path class="st1" d="M369.8,38.9l-1.4,5.9l0.4,15.5l1.5,11.2c0.1,0.5-0.2,0.7,0.3,0.8l0,0c0.7,0.1,1.3-0.4,1.3-1.1V60.6V49.3
				l1.3,0.1l1,12.5l2.1,9.8l1.1,0.2l-0.3-10.7L377,44.8l-1.7-2.6l-2.4-0.5L369.8,38.9z"/>
			<path class="st1" d="M370.3,71.4l-2.6,1.4l0.2,0.3c0.7,0.1,1,0.1,1.7-0.2l2.3-1v-0.8L370.3,71.4z"/>
			<polygon class="st2" points="375.2,31.8 371,31.4 372.3,35.6 			"/>
			<path class="st1" d="M377,25.9c0,2.1-1.7,3.8-3.8,3.8c-2.1,0-3.8-1.7-3.8-3.8s1.7-3.8,3.8-3.8C375.4,22.1,377,23.8,377,25.9z"/>
			<path class="st1" d="M377.7,23.2c0,1.2-1,2.1-2.1,2.1c-1.2,0-2.1-1-2.1-2.1c0-1.2,1-2.1,2.1-2.1S377.7,22,377.7,23.2z"/>
			<path class="st3" d="M370.5,31.4c0,0-6.5,6.1-6.6,5.9c-0.1-0.3-3.1-5.6-3.1-5.6l-0.9,0.5l2.9,7c0.2,0.6,0.9,0.8,1.4,0.6l6.4-2.7
				L370.5,31.4z"/>
			<path class="st2" d="M372.9,22.8c-1.8,0-3.2,1.4-3.2,3.2v2c0,1.8,1.4,3.2,3.2,3.2c1.8,0,3.2-1.4,3.2-3.2v-2
				C376,24.2,374.6,22.8,372.9,22.8z"/>
			<path class="st1" d="M372.9,22.8c1.8,0,3.2,1.4,3.2,3.2v1.6c-1-0.4-1.7-1.4-1.7-2.6c0-0.3,0-0.5,0.1-0.7c-0.5,0.3-1,0.5-1.6,0.5
				c-0.9,0-1.7-0.4-2.2-1.1C371.2,23.1,372,22.8,372.9,22.8z"/>
			<path class="st3" d="M369.2,39l-1-1.4c-0.4-0.7-0.5-1.5-0.1-2.2l0.6-1.1c0.8-1.1,0.9-2.8,1.8-3l6.4,0.6l0.2,0.1
				c0.5,0.3,0.8,2.5,0.1,4.7c-0.4,1.1-1.9,3-1.9,3l1.7,4.9c-0.3,0.4-0.9,0.8-2,0.9c-1.7,0.1-5.5-0.1-6.7-0.9L369.2,39z"/>
			<path class="st3" d="M377.1,32.1"/>
			<polygon class="st3" points="377.1,32.1 382,39.9 380.2,48.2 378.9,48.4 379.1,40.1 375.1,34.7 			"/>
			<polygon class="st4" points="382.4,47.7 375.9,50 377,56.2 383.7,53.7 			"/>
			<circle class="st2" cx="379.7" cy="49" r="1.1"/>
			<g>
				
					<rect x="357.8" y="30.2" transform="matrix(0.7697 -0.6384 0.6384 0.7697 63.641 237.0983)" class="st1" width="5.3" height="0.3"/>
			</g>
			<circle class="st2" cx="360.1" cy="31.3" r="1.1"/>
		</g>
		<g>
			<g>
				<path class="st5" d="M292.9,78.4L291.4,91l3.3-0.1c0,0,2.1-2.6,2.1-3.1c0-0.4,2.1-1.7,0.9-3.1C296.6,83.2,292.9,78.4,292.9,78.4
					z"/>
				<path class="st5" d="M296.1,75.8l-2.9,0.6c-0.6,0.3-1,0.9-1.1,1.6l-2.4,16.6l1.7,0.1l2.4-13.4L296.1,75.8z"/>
				<path class="st5" d="M293.8,81.4l-0.7,6.6l0.6,12.4l1.3,10.2c0.1,0.4,0.4,0.7,0.8,0.8l0,0c0.6,0.1,1.2-0.4,1.1-1l-0.3-10
					l-0.3-9.2l2.2,0.2l1,9.9l1.3,13.7c0.1,0.6,0.6,1.1,1.2,1.1l0,0c0.9,0.1,1.6-0.7,1.5-1.5l-1.1-13.7l-0.7-12.2l-1.7-3.6l-2.1-0.5
					L293.8,81.4z"/>
				<path class="st6" d="M293.9,77.6c0.2-1.2,1.4-1.9,2.5-1.5c0.5,0.1,4,0.3,4,0.3l1.1,2l-0.5,1.7l0.5,9.1c0,0-4.2,1.2-5.6,0.6
					s-2.9-2.2-2.9-2.2l0.7-9.4L293.9,77.6z"/>
				<path class="st5" d="M295.5,110.7l-2.9,1.4l0.4,0.1c0.6,0.1,1.3,0,1.9-0.2l2-0.9v-0.7L295.5,110.7z"/>
				<path class="st5" d="M301.3,115.3c0,0,0.3,2.5,0.5,2.9c0.3,0.3,1.1,0.3,1.4-0.2c0.3-0.4-0.7-3.2-0.7-3.2L301.3,115.3z"/>
				<path class="st6" d="M295.5,75.5c0-0.1,0.2-1,0.2-1s2.6-0.1,2.7,0c0.1,0.2,0.4,3.1,0.4,3.1s-2.1-0.1-2.2-0.1s-0.9-0.4-0.9-0.4
					L295.5,75.5z"/>
				<polygon class="st0" points="295.7,75.5 297,75.6 296.3,76.7 				"/>
				<polygon class="st0" points="294.9,84.6 295.4,85.7 296.5,84.7 296.5,76.6 296.1,76.7 				"/>
				<path class="st2" d="M297.3,68.5c-1.5-0.1-2.8,1-2.9,2.4l-0.1,1.7c-0.1,1.5,1,2.8,2.4,2.9c1.5,0.1,2.8-1,2.9-2.4l0.1-1.7
					C299.9,70,298.8,68.7,297.3,68.5z"/>
				<path class="st1" d="M299.8,71.3c0.1-1.4-1-2.7-2.4-2.8c-0.7-0.1-1.3,0.2-1.8,0.5c0.3,0.4,1.2,0.9,1.5,1
					c0.4,0.2,0.8,0.4,1.2,0.6C298.7,70.9,299.3,71.1,299.8,71.3z"/>
				<path class="st1" d="M299.8,71.4c0-0.5-0.1-1-0.3-1.4c-0.1,0.2-0.2,0.4-0.2,0.6c-0.1,0.4,0,0.7,0.1,1.1c0.1,0.2,0.1,0.4,0.3,0.5
					c0,0,0.1,0,0.1,0.1V71.4z"/>
				<path class="st5" d="M300.5,76.3c-0.7,0.5-16.1,11.7-16.1,11.7l0.4,1.4l16.4-9.4l0.5-1.7L300.5,76.3z"/>
				<path class="st5" d="M298.4,76l0.7,17.2l4.6-1.3l-2.1-13.6l-0.3-1.2c-0.3-0.5-0.8-0.9-1.4-1L298.4,76z"/>
				<path class="st2" d="M291.6,95.9c0,0.7-0.6,1.3-1.3,1.3c-0.7,0-1.3-0.6-1.3-1.3s0.6-1.3,1.3-1.3S291.6,95.2,291.6,95.9z"/>
				<path class="st2" d="M285.5,88.8c0,0.7-0.6,1.3-1.3,1.3c-0.7,0-1.3-0.6-1.3-1.3c0-0.7,0.6-1.3,1.3-1.3S285.5,88.1,285.5,88.8z"
					/>
			</g>
			<g>
				<path class="st3" d="M270.9,81.5l13.3,8.2l0.4-1.4c0,0-12.4-10-13.1-10.5l-1-0.6h-2.3l-0.5,2c0,0,0.5,1.9,0.7,2
					C268.6,81.4,270.9,81.5,270.9,81.5z"/>
				<path class="st3" d="M268.1,77.1l-2.9,0.2c-0.6,0.3-1.2,0.8-1.8,1.6l-5.4,7.3l6.3,6.7l0.6-2.9l-4.2-3.8l4.8-5.2L268.1,77.1z"/>
				<path class="st1" d="M271.5,88.9l1.2,1v12l-1.3,10.2c-0.1,0.4-0.4,0.7-0.8,0.8l0,0c-0.6,0.1-1.2-0.4-1.1-1l0.3-10l0.3-9.2
					l-2.2,0.2l-1,9.9l-1.3,13.7c-0.1,0.6-0.6,1.1-1.2,1.1l0,0c-0.9,0.1-1.6-0.7-1.5-1.5l1.1-13.7l0.7-12.2l1.7-3.6l2.1-0.5
					L271.5,88.9z"/>
				<path class="st3" d="M271.9,79.6c-0.2-1.2-0.9-2.5-2.1-2.1c-0.5,0.1-4,0.3-4,0.3l-1.1,2l0.5,1.7l-0.5,9.1c0,0,4.2,1.2,5.6,0.6
					c1.3-0.6,2.5-1.3,2.5-1.3l-0.4-7.8L271.9,79.6z"/>
				<path class="st1" d="M270.8,112.2l2.9,1.4l-0.4,0.1c-0.6,0.1-1.3,0-1.9-0.2l-2-0.9v-0.7L270.8,112.2z"/>
				<path class="st1" d="M265,116.7c0,0-0.3,2.5-0.5,2.9c-0.3,0.3-1.1,0.3-1.4-0.2c-0.3-0.4,0.7-3.2,0.7-3.2L265,116.7z"/>
				<path class="st3" d="M270.8,76.9c0-0.1-0.2-1-0.2-1s-2.6-0.1-2.7,0c-0.1,0.2-0.4,3.1-0.4,3.1s2.1-0.1,2.2-0.1s0.9-0.4,0.9-0.4
					L270.8,76.9z"/>
				<polygon class="st4" points="271.2,76.7 269.9,76.8 270.6,77.9 				"/>
				<polygon class="st4" points="272.1,85.8 271.5,86.9 270.4,85.9 270.4,77.8 270.8,77.9 				"/>
				<path class="st2" d="M269,70c1.5-0.1,2.8,1,2.9,2.4l0.1,1.7c0.1,1.5-1,2.8-2.4,2.9c-1.5,0.1-2.8-1-2.9-2.4l-0.1-1.7
					C266.4,71.4,267.5,70.1,269,70z"/>
				<path class="st1" d="M266.5,72.7c-0.1-1.4,1-2.7,2.4-2.8c0.7-0.1,1.3,0.2,1.8,0.5c-0.3,0.4-1.2,0.9-1.5,1
					c-0.4,0.2-0.8,0.4-1.2,0.6C267.6,72.4,267,72.5,266.5,72.7z"/>
				<path class="st1" d="M266.5,72.8c0-0.5,0.1-1,0.3-1.4c0.1,0.2,0.2,0.4,0.2,0.5c0.1,0.4,0,0.7-0.1,1.1c-0.1,0.2-0.1,0.4-0.3,0.5
					c0,0-0.1,0-0.1,0.1V72.8z"/>
				<circle class="st2" cx="264.8" cy="91.8" r="1.3"/>
				<circle class="st2" cx="284.1" cy="88.4" r="1.3"/>
			</g>
		</g>
		<g>
			<g>
				<path class="st1" d="M59.9,33.4L58.4,46l3.3-0.1c0,0,2.1-2.6,2.1-3.1c0-0.4,2.1-1.7,0.9-3.1C63.6,38.2,59.9,33.4,59.9,33.4z"/>
				<path class="st1" d="M63.1,30.8l-2.9,0.6c-0.6,0.3-1,0.9-1.1,1.6l-2.4,16.6l1.7,0.1l2.4-13.4L63.1,30.8z"/>
				<path class="st1" d="M60.8,36.4L60.1,43l0.6,12.4L62,65.6c0.1,0.4,0.4,0.7,0.8,0.8l0,0c0.6,0.1,1.2-0.4,1.1-1l-0.3-10l-0.3-9.2
					l2.2,0.2l1,9.9L67.8,70c0.1,0.6,0.6,1.1,1.2,1.1l0,0c0.9,0.1,1.6-0.7,1.5-1.5L69.3,56l-0.7-12.2l-1.7-3.6l-2.1-0.5L60.8,36.4z"
					/>
				<path class="st3" d="M60.9,32.6c0.2-1.2,1.4-1.9,2.5-1.5c0.5,0.1,4,0.3,4,0.3l1.1,2L68,35.1l0.5,9.1c0,0-4.2,1.2-5.6,0.6
					c-1.3-0.6-2.9-2.1-2.9-2.1l0.6-9.5L60.9,32.6z"/>
				<path class="st1" d="M62.5,65.7l-2.9,1.4l0.4,0.1c0.6,0.1,1.3,0,1.9-0.2l2-0.9v-0.7L62.5,65.7z"/>
				<path class="st1" d="M68.3,70.3c0,0,0.3,2.5,0.5,2.9c0.3,0.3,1.1,0.3,1.4-0.2c0.3-0.4-0.7-3.2-0.7-3.2L68.3,70.3z"/>
				<path class="st3" d="M62.5,30.5c0-0.1,0.2-1,0.2-1s2.6-0.1,2.7,0c0.1,0.2,0.4,3.1,0.4,3.1s-2.1-0.1-2.2-0.1
					c-0.1,0-0.9-0.4-0.9-0.4L62.5,30.5z"/>
				<polygon class="st4" points="62.7,30.5 64,30.6 63.3,31.7 				"/>
				<polygon class="st4" points="61.9,39.6 62.4,40.7 63.5,39.7 63.5,31.6 63.1,31.7 				"/>
				<path class="st2" d="M64.3,23.5c-1.5-0.1-2.8,1-2.9,2.4l-0.1,1.7c-0.1,1.5,1,2.8,2.4,2.9c1.5,0.1,2.8-1,2.9-2.4l0.1-1.7
					C66.9,25,65.8,23.7,64.3,23.5z"/>
				<path class="st1" d="M66.8,26.3c0.1-1.4-1-2.7-2.4-2.8c-0.7-0.1-1.3,0.2-1.8,0.5c0.3,0.4,1.2,0.9,1.5,1c0.4,0.2,0.8,0.4,1.2,0.6
					C65.7,25.9,66.3,26.1,66.8,26.3z"/>
				<path class="st1" d="M66.8,26.4c0-0.5-0.1-1-0.3-1.4c-0.1,0.2-0.2,0.4-0.2,0.5c-0.1,0.4,0,0.7,0.1,1.1c0.1,0.2,0.1,0.4,0.3,0.5
					c0,0,0.1,0,0.1,0.1V26.4z"/>
				<path class="st1" d="M67.5,31.3C66.8,31.8,51.4,43,51.4,43l0.4,1.4L68.2,35l0.5-1.7L67.5,31.3z"/>
				<path class="st1" d="M65.4,31l0.7,17.2l4.6-1.3l-2.1-13.6l-0.3-1.2c-0.3-0.5-0.8-0.9-1.4-1L65.4,31z"/>
				<path class="st2" d="M58.6,50.9c0,0.7-0.6,1.3-1.3,1.3S56,51.6,56,50.9s0.6-1.3,1.3-1.3C58,49.6,58.6,50.2,58.6,50.9z"/>
				<path class="st2" d="M52.5,43.8c0,0.7-0.6,1.3-1.3,1.3s-1.3-0.6-1.3-1.3s0.6-1.3,1.3-1.3S52.5,43.1,52.5,43.8z"/>
			</g>
			<g>
				<path class="st5" d="M37.9,36.5l13.3,8.2l0.4-1.4c0,0-12.4-10-13.1-10.5l-1-0.6h-2.3l-0.5,2c0,0,0.5,1.9,0.7,2
					C35.6,36.4,37.9,36.5,37.9,36.5z"/>
				<path class="st5" d="M35.1,32.1l-2.9,0.2c-0.6,0.3-1.2,0.8-1.8,1.6L25,41.2l6.3,6.7l0.6-2.9l-4.2-3.8l4.8-5.2L35.1,32.1z"/>
				<path class="st5" d="M38.5,43.9l1.2,1v12l-1.3,10.2c-0.1,0.4-0.4,0.7-0.8,0.8l0,0c-0.6,0.1-1.2-0.4-1.1-1l0.3-10l0.3-9.2
					l-2.2,0.2l-1,9.9l-1.3,13.7c-0.1,0.6-0.6,1.1-1.2,1.1l0,0c-0.9,0.1-1.6-0.7-1.5-1.5L31,57.4l0.7-12.2l1.7-3.6l2.1-0.5L38.5,43.9
					z"/>
				<path class="st5" d="M38.9,34.6c-0.2-1.2-0.9-2.5-2.1-2.1c-0.5,0.1-4,0.3-4,0.3l-1.1,2l0.5,1.7l-0.5,9.1c0,0,4.2,1.2,5.6,0.6
					c1.3-0.6,2.5-1.3,2.5-1.3L39.3,37L38.9,34.6z"/>
				<path class="st5" d="M37.8,67.2l2.9,1.4l-0.4,0.1c-0.6,0.1-1.3,0-1.9-0.2l-2-0.9v-0.7L37.8,67.2z"/>
				<path class="st5" d="M32,71.7c0,0-0.3,2.5-0.5,2.9c-0.3,0.3-1.1,0.3-1.4-0.2c-0.3-0.4,0.7-3.2,0.7-3.2L32,71.7z"/>
				<path class="st6" d="M37.8,31.9c0-0.1-0.2-1-0.2-1s-2.6-0.1-2.7,0c-0.1,0.2-0.4,2.1-0.4,2.1s2.2,0.9,2.3,0.9s0.9-0.4,0.9-0.4
					L37.8,31.9z"/>
				<polygon class="st0" points="38.2,31.7 36.9,31.8 37.6,32.9 				"/>
				<path class="st2" d="M36,25c1.5-0.1,2.8,1,2.9,2.4l0.1,1.7c0.1,1.5-1,2.8-2.4,2.9c-1.5,0.1-2.8-1-2.9-2.4l-0.1-1.7
					C33.4,26.4,34.5,25.1,36,25z"/>
				<path class="st1" d="M33.5,27.7c-0.1-1.4,1-2.7,2.4-2.8c0.7-0.1,1.3,0.2,1.8,0.5c-0.3,0.4-1.2,0.9-1.5,1
					c-0.4,0.2-0.8,0.4-1.2,0.6C34.6,27.4,34,27.5,33.5,27.7z"/>
				<path class="st1" d="M33.5,27.8c0-0.5,0.1-1,0.3-1.4c0.1,0.2,0.2,0.4,0.2,0.6c0.1,0.4,0,0.7-0.1,1.1c-0.1,0.2-0.1,0.4-0.3,0.5
					c0,0-0.1,0-0.1,0.1L33.5,27.8z"/>
				<circle class="st2" cx="31.8" cy="46.8" r="1.3"/>
				<circle class="st2" cx="51.1" cy="43.4" r="1.3"/>
				<polygon class="st6" points="34.5,33 37.7,40.3 37.9,36.5 37.6,32.7 				"/>
				<polygon class="st0" points="39.1,40.8 38.5,41.9 37.4,40.9 37.4,32.8 37.8,32.9 				"/>
			</g>
		</g>
		<g>
			<path class="st1" d="M58.2,139.8c0,0-0.2,3.8-0.5,4.1c-0.3,0.4-1.3,0.3-1.6-0.2s0.8-3.8,0.8-3.8L58.2,139.8z"/>
			<path class="st1" d="M64.9,106.3l1.2,7.4l-0.9,14.9l-0.8,11.1c-0.1,0.5,0.2,0.8-0.3,0.9l0,0c-0.7,0.1-1.4-0.4-1.3-1.2l0.3-11.7
				l0.4-10.8l-2.6,0.2l-1.2,12.8L58.2,140l-1.1,0.3l0.3-11l1.2-14.7l0.7-4.8l2.5-0.5L64.9,106.3z"/>
			<path class="st1" d="M64.3,139.7l2.7,1.4l-0.2,0.3c-0.7,0.1-1,0.1-1.7-0.2l-2.3-1v-0.8L64.3,139.7z"/>
			<g>
				<path class="st1" d="M56.8,92.3c0,1.2,1,2.2,2.2,2.2s2.2-1,2.2-2.2s-1-2.2-2.2-2.2C57.7,90.1,56.8,91.1,56.8,92.3z"/>
				<path class="st2" d="M62.7,98.3c0,0,0.5,3.5,0.2,3.8s-1.6-0.6-1.7-0.8c-0.1-0.9-0.4-4-0.4-4L62.7,98.3z"/>
				<path class="st2" d="M58.9,96c0.5,1.9,2.2,3.2,3.8,2.8c1.7-0.4,2.6-2.3,2.2-4.2c-0.5-1.9-2.2-3.2-3.8-2.8
					C59.4,92.2,58.4,94,58.9,96z"/>
				<path class="st3" d="M62.8,99.3c0,0-0.1,2.5-0.3,2.3c-0.3-0.2-1.5-2-1.5-2l-2.5,3.2l1.1,5.8l-2.1,3.5c4.5,3.7,9,0.2,9,0.2
					l-1-4.8c-0.1-0.5,0-1,0.2-1.4l0.4-0.8c0.2-0.4,0.3-0.9,0.2-1.4l-0.4-2.1l0.1-3.3L62.8,99.3z"/>
				<path class="st1" d="M60.3,93.2c0.8-0.1,1.7-0.2,2.5-0.3c0.4-0.1,0.8-0.1,1.1-0.2c-0.5-0.6-1.3-1.2-2.1-1.2s-1.6,0.5-2.3,1
					c-0.2,0.2-0.5,0.4-0.6,0.7c-0.1,0.2-0.4,0.7-0.4,0.9c0,1.1,0.1,2.5,1,3.3c0.1-0.3,0.4-0.9,0.3-1.2c-0.1-0.3-0.6-0.5-0.7-0.8
					c0-0.3,0.1-0.6,0.3-0.8c0.3-0.1,0.6,0.6,0.8,0.8C60.4,94.8,60.3,94.2,60.3,93.2z"/>
				<path class="st7" d="M64.1,94.5c0.1,0.6,0.5,1,1,1s0.7-0.6,0.6-1.2s-0.5-1-1-1S64,93.9,64.1,94.5z"/>
				<path class="st7" d="M62.1,95.1c0.1,0.6,0.5,1,1,1c0.4-0.1,0.7-0.6,0.6-1.2c-0.1-0.6-0.5-1-1-1C62.3,94,62,94.5,62.1,95.1z"/>
			</g>
			<path class="st3" d="M72.9,85.8l-2.6,7.5l-4.4,5.4l-0.2,3.5l6.6-7.5c0,0,2.2-7.4,2-7.7C74.1,86.7,72.9,85.8,72.9,85.8z"/>
			<path class="st3" d="M60.3,102.4l-0.5-0.9l-1.2,1.4l-3.8,7l-1.3,6.3c0,0,1.4,0.9,1.5,0.5s1.2-4.3,2.2-6.1
				c0.9-1.8,3.3-5.1,3.3-5.1L60.3,102.4z"/>
			<circle class="st2" cx="73.8" cy="85.7" r="1.1"/>
			<circle class="st2" cx="53.9" cy="117.4" r="1.1"/>
		</g>
		<path class="st8" d="M308.8,136.1c0,3.2-2.6,5.8-5.8,5.8c-3.2,0-5.8-2.6-5.8-5.8s2.6-5.8,5.8-5.8
			C306.2,130.4,308.8,132.9,308.8,136.1z"/>
		<path class="st8" d="M396.4,240.5c0,3.2-2.6,5.8-5.8,5.8c-3.2,0-5.8-2.6-5.8-5.8s2.6-5.8,5.8-5.8S396.4,237.3,396.4,240.5z"/>
		<path class="st8" d="M366,113.7c0,3.2-2.6,5.8-5.8,5.8c-3.2,0-5.8-2.6-5.8-5.8c0-3.2,2.6-5.8,5.8-5.8
			C363.4,107.9,366,110.5,366,113.7z"/>
		<path class="st8" d="M174,58.6c0,3.2-2.6,5.8-5.8,5.8s-5.8-2.6-5.8-5.8s2.6-5.8,5.8-5.8S174,55.4,174,58.6z"/>
		<path class="st8" d="M50.1,73.1c0,3.2-2.6,5.8-5.8,5.8s-5.8-2.6-5.8-5.8c0-3.2,2.6-5.8,5.8-5.8S50.1,69.9,50.1,73.1z"/>
		<path class="st8" d="M132.7,224.5c0,3.2-2.6,5.8-5.8,5.8s-5.8-2.6-5.8-5.8s2.6-5.8,5.8-5.8C130.1,218.7,132.7,221.3,132.7,224.5z"
			/>
		<path class="st8" d="M87.1,134c0,3.2-2.6,5.8-5.8,5.8c-3.2,0-5.8-2.6-5.8-5.8s2.6-5.8,5.8-5.8S87.1,130.8,87.1,134z"/>
		<path class="st8" d="M218.9,178.2c0,3.2-2.6,5.8-5.8,5.8s-5.8-2.6-5.8-5.8s2.6-5.8,5.8-5.8C216.3,172.4,218.9,175,218.9,178.2z"/>
		<g>
			<g>
				<path class="st9" d="M43.4,72.2c0.3-0.4,0.6-0.8,1-1.2"/>
				<path class="st10" d="M46.3,68.8C78,33.6,131.4,28.5,169.2,57.4"/>
				<path class="st9" d="M170.3,58.3c0.4,0.3,0.8,0.6,1.2,0.9c0,0,0.3-0.4,1-1.1"/>
				<path class="st11" d="M174.6,55.9c10.2-9.3,41.6-27.2,38.6,113.4"/>
				<path class="st9" d="M213.2,170.9c0,0.5,0,1,0,1.5"/>
			</g>
		</g>
		<g>
			<g>
				<path class="st9" d="M302.9,136.1c-0.5-0.2-0.9-0.4-1.4-0.5"/>
				<path class="st12" d="M298.6,134.6c-33.7-10.7-70.2,5.8-84.5,38.4"/>
				<path class="st9" d="M213.5,174.4c-0.2,0.5-0.4,0.9-0.6,1.4"/>
			</g>
		</g>
		<g>
			<g>
				<path class="st9" d="M356.1,113.5c-0.5-0.2-0.9-0.4-1.4-0.5"/>
				<path class="st13" d="M351.9,112.1c-18.9-5.1-38.8,4.1-47.2,21.8"/>
				<path class="st9" d="M304.1,135.3c-0.2,0.5-0.4,0.9-0.6,1.4"/>
			</g>
		</g>
		<g>
			<g>
				<path class="st9" d="M212.4,175.7c-0.2-0.4-0.5-0.9-0.7-1.3"/>
				<path class="st14" d="M210.2,171.8c-25.7-44.1-81.1-61.1-127.2-38.7"/>
				<path class="st9" d="M81.7,133.8c-0.4,0.2-0.9,0.5-1.3,0.7"/>
			</g>
		</g>
		<g>
			<path class="st1" d="M191.7,179.9c0,0,0.3,3,0.6,3.4s1.3,0.3,1.6-0.2s-0.8-3.8-0.8-3.8L191.7,179.9z"/>
			<path class="st1" d="M182.9,145.1l-0.9,7.8l0.7,14.6l1.5,12c0.1,0.5,0.4,0.9,0.9,1l0,0c0.7,0.1,1.4-0.4,1.3-1.2l-0.3-11.7
				l-0.4-10.8l2.6,0.2l1.2,11.7l1.5,11.2c0.1,0.7,0.7,1.3,1.5,1.3l0,0c1,0.1,1.9-0.8,1.8-1.8l-1.3-11.2l0.2-18.4l-3.1-0.1l-2.5-0.5
				L182.9,145.1z"/>
			<path class="st1" d="M184.8,179.5l-3.4,1.7l0.5,0.1c0.7,0.1,1.5,0.1,2.2-0.3l2.3-1v-0.8L184.8,179.5z"/>
			<path class="st1" d="M184.1,138.4l-1.2,0.7c-1.2,0.7-2.1,1.8-2.3,3.1l-0.8,4.1l4.8,1.7l1.5-4.2L184.1,138.4z"/>
			<path class="st1" d="M199.6,159.3l-5.9-18c-0.5-1.5-1.8-2.6-3.4-2.8l-2.1-0.3l-4.1,0.1l-1.6,2.1l-0.5,11.5c0,0,0.9,3.1,4.9,3
				c3.9-0.2,6.3-4.4,6.3-4.4v-1c2,4.3,5.1,10.6,5.1,10.6L199.6,159.3z"/>
			<polygon class="st3" points="187.2,138.8 185.6,145.9 184.4,138.5 184.9,137.8 186.2,137.7 			"/>
			<path class="st2" d="M200.6,160.5c0,0.8-0.7,1.5-1.5,1.5s-1.5-0.7-1.5-1.5s0.7-1.5,1.5-1.5C199.9,158.9,200.6,159.6,200.6,160.5z
				"/>
			<path class="st3" d="M184.1,138.4l-0.1-1.2l1.4-0.3l2.3,0.1l0.5,1.3l-1.9,1.7c0,0-0.4-0.8-0.5-0.8s-1.2,0.8-1.2,0.8L184.1,138.4z
				"/>
			<polygon class="st1" points="184.7,139.1 185.5,138.4 186.2,139 185.7,140.4 187,148.6 185.7,149.8 184.6,148.8 185.2,140.3 			
				"/>
			<polygon class="st4" points="179,143.2 186.1,143.7 187,152.4 180.4,151.7 			"/>
			<path class="st2" d="M180.3,148.2c0,0.8-0.5,1.4-1.2,1.4c-0.6,0-1.2-0.6-1.2-1.4s0.5-1.4,1.2-1.4
				C179.8,146.9,180.3,147.5,180.3,148.2z"/>
			<path class="st2" d="M188.9,133.8c0.1,2.3-1.4,4.2-3.3,4.2c-2,0.1-3.6-1.7-3.7-3.9c-0.1-2.3,1.4-4.2,3.3-4.2
				C187.1,129.8,188.8,131.5,188.9,133.8z"/>
			<path class="st1" d="M182.4,131.7c1.1,0.9,2.9,1,4.4,0.3c0.4-0.2,0.8-0.5,1.1-0.8c-0.7-0.8-1.7-1.3-2.7-1.3
				C184,129.9,183,130.6,182.4,131.7z"/>
			<path class="st1" d="M187.4,130.7c-0.6,1.2-0.4,2.9,0.6,4.2c0.2,0.2,0.4,0.4,0.6,0.6c0.2-0.5,0.3-1.1,0.2-1.7
				C188.8,132.5,188.2,131.4,187.4,130.7z"/>
		</g>
		<g>
			<g>
				<path class="st9" d="M127.1,225c0.1-0.5,0.3-1,0.4-1.4"/>
				<path class="st15" d="M128.4,220.7C140,187.4,175,168,209.5,176"/>
				<path class="st9" d="M211,176.4c0.5,0.1,1,0.3,1.4,0.4c0,0,0.3-0.4,1-1.1"/>
				<path class="st16" d="M215.6,173.6c15.3-14.2,84.8-65.9,173.3,64.4"/>
				<path class="st9" d="M389.8,239.2c0.3,0.4,0.6,0.8,0.8,1.2"/>
			</g>
		</g>
		<g>
			<g class="st17">
				<g>
					<polygon class="st18" points="111.3,202.9 101.6,208.6 91.8,202.9 101.5,197.3 					"/>
				</g>
				<g>
					<polygon class="st19" points="111.3,202.9 111.2,214.6 101.5,220.2 101.6,208.6 					"/>
				</g>
				<g>
					<polygon class="st20" points="101.6,208.6 101.5,220.2 91.8,214.6 91.8,202.9 					"/>
				</g>
			</g>
		</g>
		<g>
			<g class="st17">
				<g>
					<polygon class="st21" points="355.4,76.2 345.7,81.8 335.9,76.2 345.6,70.5 					"/>
				</g>
				<g>
					<polygon class="st22" points="355.4,76.2 355.4,87.8 345.7,93.4 345.7,81.8 					"/>
				</g>
				<g>
					<polygon class="st23" points="345.7,81.8 345.7,93.4 335.9,87.8 335.9,76.2 					"/>
				</g>
			</g>
		</g>
		<g>
			<g class="st17">
				<g>
					<polygon class="st21" points="235.9,185.9 226.2,191.6 216.4,185.9 226.1,180.3 					"/>
				</g>
				<g>
					<polygon class="st22" points="235.9,185.9 235.8,197.5 226.1,203.2 226.2,191.6 					"/>
				</g>
				<g>
					<polygon class="st23" points="226.2,191.6 226.1,203.2 216.4,197.5 216.4,185.9 					"/>
				</g>
			</g>
		</g>
		<g>
			<g class="st17">
				<g>
					<polygon class="st21" points="413.3,244.6 403.6,250.3 393.8,244.6 403.6,239 					"/>
				</g>
				<g>
					<polygon class="st22" points="413.3,244.6 413.3,256.3 403.6,261.9 403.6,250.3 					"/>
				</g>
				<g>
					<polygon class="st23" points="403.6,250.3 403.6,261.9 393.8,256.2 393.8,244.6 					"/>
				</g>
			</g>
		</g>
		<g>
			<g class="st17">
				<g>
					<polygon class="st21" points="109,189.6 99.3,195.2 89.5,189.6 99.2,183.9 					"/>
				</g>
				<g>
					<polygon class="st22" points="109,189.6 109,201.2 99.3,206.8 99.3,195.2 					"/>
				</g>
				<g>
					<polygon class="st23" points="99.3,195.2 99.3,206.8 89.5,201.2 89.5,189.6 					"/>
				</g>
			</g>
		</g>
		<g>
			<g class="st17">
				<g>
					<polygon class="st18" points="342.4,84.1 332.7,89.8 322.9,84.1 332.6,78.5 					"/>
				</g>
				<g>
					<polygon class="st19" points="342.4,84.1 342.4,95.7 332.7,101.4 332.7,89.8 					"/>
				</g>
				<g>
					<polygon class="st20" points="332.7,89.8 332.7,101.4 322.9,95.7 322.9,84.1 					"/>
				</g>
			</g>
		</g>
		<g>
			<g class="st17">
				<g>
					<polygon class="st18" points="97.9,105.5 88.2,111.2 78.4,105.5 88.1,99.9 					"/>
				</g>
				<g>
					<polygon class="st19" points="97.9,105.5 97.8,117.1 88.1,122.8 88.2,111.2 					"/>
				</g>
				<g>
					<polygon class="st20" points="88.2,111.2 88.1,122.8 78.4,117.1 78.4,105.5 					"/>
				</g>
			</g>
		</g>
		<g>
			<path class="st5" d="M399.8,235.3c0,0-0.3,3-0.6,3.4c-0.3,0.4-1.3,0.3-1.6-0.2c-0.3-0.5,0.8-3.8,0.8-3.8L399.8,235.3z"/>
			<path class="st5" d="M408.7,200l0.9,7.9l-0.7,14.7l-1.5,12.1c-0.1,0.5-0.4,0.9-0.9,1l0,0c-0.7,0.1-1.4-0.4-1.4-1.2l0.3-11.9
				l0.4-10.9l-2.6,0.2l-1.2,11.8l-1.5,11.3c-0.1,0.7-0.7,1.3-1.5,1.3l0,0c-1,0.1-1.9-0.8-1.8-1.8l1.3-11.3l-0.2-18.6l3.1-0.1
				l2.5-0.5L408.7,200z"/>
			<path class="st5" d="M406.8,234.9l3.4,1.7l-0.5,0.1c-0.7,0.1-1.5,0.1-2.2-0.3l-2.4-1v-0.8L406.8,234.9z"/>
			<path class="st5" d="M407.5,193.3l1.2,0.7c1.2,0.7,2.1,1.8,2.4,3.2l0.8,4.1l-4.8,1.7l-1.6-4.3L407.5,193.3z"/>
			<path class="st5" d="M391.8,214.5l6-18.2c0.5-1.5,1.8-2.7,3.5-2.9l2.1-0.3l4.1,0.1l1.7,2.1l0.5,11.6c0,0-1,3.2-4.9,3
				s-6.4-4.5-6.4-4.5v-1c-2,4.3-5.1,10.7-5.1,10.7L391.8,214.5z"/>
			<polygon class="st3" points="404.4,193.7 406,200.9 407.2,193.4 406.7,192.7 405.4,192.5 			"/>
			<path class="st2" d="M390.9,215.6c0,0.9,0.7,1.5,1.5,1.5c0.9,0,1.5-0.7,1.5-1.5s-0.7-1.5-1.5-1.5S390.9,214.8,390.9,215.6z"/>
			<path class="st3" d="M407.5,193.3l0.1-1.3l-1.5-0.3l-2.3,0.1l-0.5,1.3l1.9,1.8l0.5-0.8c0.1,0,1.2,0.8,1.2,0.8L407.5,193.3z"/>
			<polygon class="st1" points="406.9,194 406.1,193.3 405.4,193.9 405.9,195.3 404.5,203.7 405.9,204.8 407,203.8 406.4,195.2 			
				"/>
			<polygon class="st4" points="412.6,198.1 405.5,198.7 404.5,207.5 411.2,206.8 			"/>
			<path class="st2" d="M411.3,203.2c0,0.8,0.5,1.4,1.2,1.4s1.2-0.6,1.2-1.4c0-0.8-0.5-1.4-1.2-1.4
				C411.8,201.9,411.3,202.5,411.3,203.2z"/>
			<path class="st2" d="M402.7,188.6c-0.1,2.3,1.4,4.2,3.4,4.3s3.7-1.7,3.8-4c0.1-2.3-1.4-4.2-3.4-4.3
				C404.5,184.6,402.8,186.4,402.7,188.6z"/>
			<path class="st1" d="M409.2,186.5c-1.1,0.9-2.9,1.1-4.4,0.3c-0.4-0.2-0.8-0.5-1.1-0.8c0.7-0.8,1.7-1.3,2.7-1.3
				C407.6,184.7,408.6,185.5,409.2,186.5z"/>
			<path class="st1" d="M404.1,185.5c0.6,1.3,0.4,2.9-0.6,4.2c-0.2,0.2-0.4,0.4-0.6,0.6c-0.2-0.5-0.3-1.1-0.3-1.7
				C402.7,187.3,403.3,186.2,404.1,185.5z"/>
		</g>
		<g>
			<path class="st24" d="M190,4.3h-31c-1.3,0-2.4,1.1-2.4,2.4s1.1,2.4,2.4,2.4h31c1.3,0,2.4-1.1,2.4-2.4S191.3,4.3,190,4.3z"/>
			<path class="st24" d="M202.3,0h-31c-1.3,0-2.4,1.1-2.4,2.4s1.1,2.4,2.4,2.4h31c1.3,0,2.4-1.1,2.4-2.4C204.6,1.1,203.6,0,202.3,0z
				"/>
			<path class="st24" d="M211.5,8.9h-31c-1.3,0-2.4,1.1-2.4,2.4s1.1,2.4,2.4,2.4h31c1.3,0,2.4-1.1,2.4-2.4S212.8,8.9,211.5,8.9z"/>
		</g>
		<g>
			<path class="st24" d="M403.2,162.7h25.2c1.1,0,1.9-0.9,1.9-1.9c0-1.1-0.9-1.9-1.9-1.9h-25.2c-1.1,0-1.9,0.9-1.9,1.9
				C401.3,161.9,402.1,162.7,403.2,162.7z"/>
			<path class="st24" d="M393.2,166.2h25.2c1.1,0,1.9-0.9,1.9-1.9c0-1.1-0.9-1.9-1.9-1.9h-25.2c-1.1,0-1.9,0.9-1.9,1.9
				C391.3,165.4,392.2,166.2,393.2,166.2z"/>
			<path class="st24" d="M385.7,159h25.2c1.1,0,1.9-0.9,1.9-1.9c0-1.1-0.9-1.9-1.9-1.9h-25.2c-1.1,0-1.9,0.9-1.9,1.9
				C383.8,158.1,384.6,159,385.7,159z"/>
		</g>
		<g>
			<path class="st24" d="M309.8,268.3h-25.2c-1.1,0-1.9,0.9-1.9,1.9c0,1.1,0.9,1.9,1.9,1.9h25.2c1.1,0,1.9-0.9,1.9-1.9
				C311.7,269.2,310.8,268.3,309.8,268.3z"/>
			<path class="st24" d="M319.7,264.8h-25.2c-1.1,0-1.9,0.9-1.9,1.9c0,1.1,0.9,1.9,1.9,1.9h25.2c1.1,0,1.9-0.9,1.9-1.9
				C321.6,265.7,320.8,264.8,319.7,264.8z"/>
			<path class="st24" d="M327.3,272.1h-25.2c-1.1,0-1.9,0.9-1.9,1.9c0,1.1,0.9,1.9,1.9,1.9h25.2c1.1,0,1.9-0.9,1.9-1.9
				C329.2,272.9,328.3,272.1,327.3,272.1z"/>
		</g>
		<g>
			<path class="st24" d="M108.5,2.9H83.3c-1.1,0-1.9,0.9-1.9,1.9c0,1.1,0.9,1.9,1.9,1.9h25.2c1.1,0,1.9-0.9,1.9-1.9
				C110.5,3.8,109.6,2.9,108.5,2.9z"/>
			<path class="st24" d="M101,6.7H75.8c-1.1,0-1.9,0.9-1.9,1.9s0.9,1.9,1.9,1.9H101c1.1,0,1.9-0.9,1.9-1.9S102.1,6.7,101,6.7z"/>
		</g>
		<path class="st24" d="M69.7,274.2H44.5c-1.1,0-1.9,0.9-1.9,1.9c0,1.1,0.9,1.9,1.9,1.9h25.2c1.1,0,1.9-0.9,1.9-1.9
			S70.8,274.2,69.7,274.2z"/>
		<path class="st24" d="M29.5,246H11.9c-1.1,0-1.9,0.9-1.9,1.9c0,1.1,0.9,1.9,1.9,1.9h17.6c1.1,0,1.9-0.9,1.9-1.9
			C31.4,246.8,30.6,246,29.5,246z"/>
		<path class="st24" d="M38.2,242.2H20.7c-1.1,0-1.9,0.9-1.9,1.9c0,1.1,0.9,1.9,1.9,1.9h17.6c1.1,0,1.9-0.9,1.9-1.9
			C40.2,243,39.3,242.2,38.2,242.2z"/>
		<path class="st24" d="M184.4,247.6h-17.6c-1.1,0-1.9,0.9-1.9,1.9c0,1.1,0.9,1.9,1.9,1.9h17.6c1.1,0,1.9-0.9,1.9-1.9
			C186.3,248.5,185.5,247.6,184.4,247.6z"/>
		<path class="st24" d="M180.7,251.4h-17.6c-1.1,0-1.9,0.9-1.9,1.9c0,1.1,0.9,1.9,1.9,1.9h17.6c1.1,0,1.9-0.9,1.9-1.9
			C182.6,252.3,181.7,251.4,180.7,251.4z"/>
		<g>
			<g class="st17">
				<g>
					<polygon class="st21" points="107.2,35.2 100.3,39.3 93.3,35.2 100.2,31.2 					"/>
				</g>
				<g>
					<polygon class="st22" points="107.2,35.2 107.2,43.5 100.3,47.5 100.3,39.3 					"/>
				</g>
				<g>
					<polygon class="st23" points="100.3,39.3 100.3,47.5 93.3,43.5 93.3,35.2 					"/>
				</g>
			</g>
		</g>
		<g>
			<g class="st17">
				<g>
					<polygon class="st21" points="305.2,154.2 298.3,158.2 291.3,154.2 298.2,150.2 					"/>
				</g>
				<g>
					<polygon class="st22" points="305.2,154.2 305.2,162.5 298.2,166.5 298.3,158.2 					"/>
				</g>
				<g>
					<polygon class="st23" points="298.3,158.2 298.2,166.5 291.3,162.5 291.3,154.2 					"/>
				</g>
			</g>
		</g>
	</g>
</g>
<g id="DESIGNED_BY_FREEPIK">
</g>
</svg>
