<?xml version="1.0" encoding="utf-8"?>
<!-- Generator: Adobe Illustrator 23.0.3, SVG Export Plug-In . SVG Version: 6.00 Build 0)  -->
<!DOCTYPE svg PUBLIC "-//W3C//DTD SVG 1.1//EN" "http://www.w3.org/Graphics/SVG/1.1/DTD/svg11.dtd" [
	<!ENTITY ns_extend "http://ns.adobe.com/Extensibility/1.0/">
	<!ENTITY ns_ai "http://ns.adobe.com/AdobeIllustrator/10.0/">
	<!ENTITY ns_graphs "http://ns.adobe.com/Graphs/1.0/">
	<!ENTITY ns_vars "http://ns.adobe.com/Variables/1.0/">
	<!ENTITY ns_imrep "http://ns.adobe.com/ImageReplacement/1.0/">
	<!ENTITY ns_sfw "http://ns.adobe.com/SaveForWeb/1.0/">
	<!ENTITY ns_custom "http://ns.adobe.com/GenericCustomNamespace/1.0/">
	<!ENTITY ns_adobe_xpath "http://ns.adobe.com/XPath/1.0/">
]>
<svg version="1.1" id="Layer_1" xmlns:x="&ns_extend;" xmlns:i="&ns_ai;" xmlns:graph="&ns_graphs;"
	 xmlns="http://www.w3.org/2000/svg" xmlns:xlink="http://www.w3.org/1999/xlink" x="0px" y="0px" viewBox="0 0 386.1 113.9"
	 style="enable-background:new 0 0 386.1 113.9;" xml:space="preserve">
<style type="text/css">
	.st0{fill:#49858E;}
	.st1{fill:#D54B67;}
</style>
<metadata>
	<sfw  xmlns="&ns_sfw;">
		<slices></slices>
		<sliceSourceBounds  bottomLeftOrigin="true" height="113.9" width="386.1" x="153.9" y="-495.5"></sliceSourceBounds>
	</sfw>
</metadata>
<g>
	<path class="st0" d="M377,61.2c-1.2,0-2.4-0.1-3.5,0c-3.8,0.6-5.5-0.3-5.6-4.8c-0.1-4.8-4.3-7.7-9.7-8.2
		c-5.3-0.5-11.3,2.3-12.9,5.9c-1.7,3.8-0.3,7.1,3.9,8.8c4.7,1.8,9.7,2,14.6,3c8.4,1.7,17.1,3.3,19.4,13.5c2.4,10.7-1,20.1-9.7,26.5
		c-12.4,9-26.5,10.2-40.7,4.9c-8.7-3.2-14.6-14.8-13.1-23.7c0.3-1.8,1.1-2.2,2.6-2.1c2,0.1,4,0.1,6,0c5.2-0.3,9.7-0.9,10.3,6.8
		c0.3,4.8,5.4,7.3,11.1,7.3c6,0,11.8-0.7,14.9-6.9c2.2-4.4,0.6-8.3-4.3-9.8c-5.2-1.5-10.7-2.2-16-3.3c-7.3-1.5-14.7-3.1-17-11.6
		c-2.4-8.9-0.6-17.2,5.9-24c9.2-9.7,30-12.9,41.8-6.7c7.5,4,12.1,12.8,11.4,21.7c-0.1,1.9-0.6,2.7-2.5,2.6
		C381.3,61.1,379.1,61.2,377,61.2z"/>
	<path class="st0" d="M269.8,34.9c8.6,0,8.7,0,7.3,8.7c-2.1,12.9-4.2,25.9-6.5,38.8c-1.7,9.5,0.2,14.5,6.8,16.3
		c8,2.2,16.6-2.2,18.7-10.6c2.2-8.7,3.4-17.6,4.9-26.4c1.4-8,2.8-16,4-24c0.3-2.1,1.1-2.8,3.2-2.8c3.8,0.1,7.7,0.2,11.5,0
		c2.5-0.1,2.7,1.1,2.4,3c-2.9,16.5-5.1,33.2-8.7,49.5c-4.1,18.7-19.3,28-40,25.8c-14.5-1.5-21.5-9.1-21.1-23.6
		c0.2-5.3,1.3-10.5,2.1-15.8c1.8-10.8,4.1-21.5,5.5-32.4c0.6-5.1,2.2-7.6,7.5-6.5C268.1,35,269,34.9,269.8,34.9z"/>
	<path class="st0" d="M14.1,75.7c-0.3,6.8,0.6,13.3,4.9,18.8c4,5.3,9.5,7.3,15.8,6.3c6.6-1,10.8-5.1,13.4-11.3c0.8-1.9,0-5,2.6-5.5
		c3.4-0.6,7-0.5,10.4-0.1c1.9,0.2,0.9,2.2,0.8,3.3c-2.4,15-16.3,25.9-31.4,24.5C11.7,110.1,0.7,98.5,0.1,79.6
		C-0.2,71.7,0.3,64,3.7,56.7c5.8-12.4,18-18.5,33.6-16.6c12.3,1.5,22,10.8,24.6,23.4c0.6,2.9,0,4.5-3.4,4.1c-2-0.2-4-0.1-6,0
		c-1.9,0.1-3.1-0.5-3.5-2.6C46.9,54.7,38.6,49.6,30,50.7c-8.8,1.2-14.8,8.2-15.8,19C13.9,71.7,14.1,73.7,14.1,75.7z"/>
	<path class="st0" d="M116.1,87.1c0,15.4-9.6,24.9-24.9,24.8c-15.5-0.1-24.7-9.5-24.6-25.1c0.1-15.5,9.4-24.8,24.9-24.7
		C106.8,62.2,116.1,71.6,116.1,87.1z M103.1,87c0-7.4-2.8-12.3-8.1-14c-6.5-2.1-12.9,1.3-14.8,8c-2.7,9.6,1.1,18.7,8.3,20.2
		C97.2,102.9,103.1,97.2,103.1,87z"/>
	<path class="st0" d="M193.5,88.6c-4.7,0-9.3,0.1-14,0c-2.5-0.1-3.1,0.8-2.6,3.3c0.8,5,4.1,9.1,8.4,10.1c4.9,1.1,9.6-1.2,12.5-6
		c1.1-1.9,11.1-3.5,12.6-2c1,1,0,1.9-0.2,2.7c-2,8.7-8.8,14.1-20.4,15.1c-12.4,1-22.4-4.6-25.2-18c-2.9-13.7,2.7-26.2,13.9-30
		c16.5-5.6,30.3,3.1,32.4,20.2c0.5,3.7-0.6,5.1-4.5,4.8C202.2,88.3,197.8,88.6,193.5,88.6z M187.4,84c2.7,0,5.3-0.1,8,0
		c2.1,0.1,3-0.4,2.6-2.8c-0.8-4.7-4.8-8.8-9.2-9.3c-5-0.5-8.9,1.9-10.9,6.8c-2,4.9-1.9,5.2,3.5,5.2C183.4,84,185.4,84,187.4,84z"/>
	<path class="st0" d="M140.6,107c3.1-13.4,6.6-28,9.4-41.5c0.7-3.3,1.4-2.7,4.4-2.7c9.7,0,10.4-1,8,8.5c-3,11.6-6.3,24.2-9.3,35.7
		c-0.7,2.6-1.7,4.2-4.9,4c-5.5-0.4-11-0.3-16.5,0c-2.8,0.2-3.7-1.1-4.3-3.4c-3.6-13.8-7.2-27.6-10.8-41.3c-0.7-2.5-0.1-3.1,2.5-3.2
		c10.1-0.4,10.2-0.5,12.5,9.3c2.8,11.5,5.5,23.1,8.2,34.7C139.9,107,140.2,107,140.6,107z"/>
	<path class="st0" d="M228.1,74.3c2.5-5.2,4.8-10.3,11.1-11.7c0.8-0.2,1.6-0.5,2.4-0.5c2.8-0.1,7-0.2,7.6,2
		c0.9,3.2-1.4,6.9-2.8,10.2c-0.5,1.2-1.7,0-2.6-0.2c-8.7-1.8-13.2,1.1-15,9.9c-1.6,7.6-0.6,15.2-0.6,22.9c0,3.3-1,4.1-4.2,4.1
		c-8.5-0.1-8.5,0-8.5-8.3c0-11.6,0.1-23.3-0.1-34.9c-0.1-3.6,0.7-4.9,4.6-4.8c8,0.3,8,0,8,8.1C228.1,72.2,228.1,73.3,228.1,74.3z"/>
	<path class="st1" d="M242.2,28.7c-6.1,2.1-11.1,4.1-16.3,5.6c-3,0.9-6.3,2.3-8-2.7c-1.3-3.6,0.1-4.8,2.9-5.6
		c7.4-2.2,14.8-4.7,22.6-5.2c2.5-0.2,3.7-1.8,4.7-3.7c2.8-5.4,5.1-11.1,9.9-17.2c0,4.4,0.4,7.4-0.1,10.4c-1,6.5,1.3,8.9,7.6,7.4
		c6.3-1.5,12.6-1.1,19-0.6c-4.6,0.5-9.2,1.6-13.3,3.2c-7.9,3-17.8,4.4-20.1,15.2c-0.9,4.2-3.3,7.9-3.2,12.4c0.1,3.5-2.3,2.6-4,1.4
		c-5.7-4-6.8-8.4-4-14.9C240.6,32.9,241.2,31.2,242.2,28.7z"/>
	<path class="st0" d="M118.8,63.1c10.1-0.4,9.7-2.5,12,7.3c2.8,11.5,6,25.1,8.7,36.7"/>
</g>
</svg>
