<?xml version="1.0" encoding="utf-8"?>
<!-- Generator: Adobe Illustrator 23.0.3, SVG Export Plug-In . SVG Version: 6.00 Build 0)  -->
<!DOCTYPE svg PUBLIC "-//W3C//DTD SVG 1.1//EN" "http://www.w3.org/Graphics/SVG/1.1/DTD/svg11.dtd" [
	<!ENTITY ns_extend "http://ns.adobe.com/Extensibility/1.0/">
	<!ENTITY ns_ai "http://ns.adobe.com/AdobeIllustrator/10.0/">
	<!ENTITY ns_graphs "http://ns.adobe.com/Graphs/1.0/">
	<!ENTITY ns_vars "http://ns.adobe.com/Variables/1.0/">
	<!ENTITY ns_imrep "http://ns.adobe.com/ImageReplacement/1.0/">
	<!ENTITY ns_sfw "http://ns.adobe.com/SaveForWeb/1.0/">
	<!ENTITY ns_custom "http://ns.adobe.com/GenericCustomNamespace/1.0/">
	<!ENTITY ns_adobe_xpath "http://ns.adobe.com/XPath/1.0/">
]>
<svg version="1.1" id="Isolation_Mode" xmlns:x="&ns_extend;" xmlns:i="&ns_ai;" xmlns:graph="&ns_graphs;"
	 xmlns="http://www.w3.org/2000/svg" xmlns:xlink="http://www.w3.org/1999/xlink" x="0px" y="0px" viewBox="0 0 12.1 12.1"
	 style="enable-background:new 0 0 12.1 12.1;" xml:space="preserve">
<style type="text/css">
	.st0{fill-rule:evenodd;clip-rule:evenodd;fill:#EE1D48;}
	.st1{fill:#EE1D48;}
</style>
<metadata>
	<sfw  xmlns="&ns_sfw;">
		<slices></slices>
		<sliceSourceBounds  bottomLeftOrigin="true" height="12.1" width="12.1" x="265.6" y="-278.4"></sliceSourceBounds>
	</sfw>
</metadata>
<g transform="matrix(1,0,0,1,0,-77)">
	<g transform="matrix(1,0,0,1,0,77)">
		<g transform="matrix(1,0,0,1,0,-77)">
			<path class="st0" d="M12.1,86.1C12.1,86.1,12.1,86.2,12.1,86.1c0,0.1-0.1,0.2-0.1,0.3c0,0,0,0-0.1,0.1L9.4,89c0,0,0,0-0.1,0.1
				c-0.1,0-0.1,0.1-0.2,0.1c0,0-0.1,0-0.1,0v-3H12.1z M12.1,85H8.6c0,0,0,0-0.1,0c-0.2,0-0.4,0.2-0.5,0.4c0,0.1,0,0.1,0,0.2v3.5
				c-2.2,0-4.3,0-6.5,0c-0.8,0-1.5-0.7-1.5-1.5V82h12.1V85z M12.1,81H0c0-0.5,0-1,0-1.5C0,78.7,0.7,78,1.5,78c0.5,0,1,0,1.5,0v1.5
				C3,79.8,3.2,80,3.4,80C3.7,80.1,4,79.8,4,79.5V78c0.5,0,1,0,1.5,0v1.5c0,0.2,0.1,0.4,0.3,0.5c0.3,0.1,0.7-0.2,0.7-0.5V78
				c0.5,0,1,0,1.5,0v1.5c0,0.1,0.1,0.3,0.2,0.4c0.3,0.3,0.8,0,0.8-0.4V78c0.5,0,1,0,1.5,0c0.8,0,1.5,0.7,1.5,1.5V81z"/>
		</g>
		<g transform="matrix(1,0,0,1,0,-77)">
			<path class="st1" d="M3,78v-0.5c0-0.1,0-0.1,0-0.2C3.1,77.1,3.3,77,3.5,77c0.1,0,0.1,0,0.2,0C3.9,77.1,4,77.3,4,77.5V78H3z"/>
		</g>
		<g transform="matrix(1,0,0,1,0,-77)">
			<path class="st1" d="M5.5,78v-0.5c0-0.1,0-0.1,0-0.2C5.6,77.1,5.8,77,6.1,77c0.3,0,0.5,0.2,0.5,0.5c0,0,0,0,0,0V78H5.5z"/>
		</g>
		<g transform="matrix(1,0,0,1,0,-77)">
			<path class="st1" d="M8.1,78v-0.5c0-0.3,0.2-0.5,0.5-0.5c0,0,0,0,0.1,0c0.3,0,0.5,0.2,0.5,0.5c0,0,0,0,0,0V78H8.1z"/>
		</g>
	</g>
</g>
</svg>
