<?xml version="1.0" encoding="utf-8"?>
<!-- Generator: Adobe Illustrator 23.0.3, SVG Export Plug-In . SVG Version: 6.00 Build 0)  -->
<!DOCTYPE svg PUBLIC "-//W3C//DTD SVG 1.1//EN" "http://www.w3.org/Graphics/SVG/1.1/DTD/svg11.dtd" [
	<!ENTITY ns_extend "http://ns.adobe.com/Extensibility/1.0/">
	<!ENTITY ns_ai "http://ns.adobe.com/AdobeIllustrator/10.0/">
	<!ENTITY ns_graphs "http://ns.adobe.com/Graphs/1.0/">
	<!ENTITY ns_vars "http://ns.adobe.com/Variables/1.0/">
	<!ENTITY ns_imrep "http://ns.adobe.com/ImageReplacement/1.0/">
	<!ENTITY ns_sfw "http://ns.adobe.com/SaveForWeb/1.0/">
	<!ENTITY ns_custom "http://ns.adobe.com/GenericCustomNamespace/1.0/">
	<!ENTITY ns_adobe_xpath "http://ns.adobe.com/XPath/1.0/">
]>
<svg version="1.1" id="Layer_1" xmlns:x="&ns_extend;" xmlns:i="&ns_ai;" xmlns:graph="&ns_graphs;"
	 xmlns="http://www.w3.org/2000/svg" xmlns:xlink="http://www.w3.org/1999/xlink" x="0px" y="0px" viewBox="0 0 597.3 86"
	 style="enable-background:new 0 0 597.3 86;" xml:space="preserve">
<style type="text/css">
	.st0{fill:#3DABE1;}
	.st1{fill:#C3E6F7;}
</style>
<metadata>
	<sfw  xmlns="&ns_sfw;">
		<slices></slices>
		<sliceSourceBounds  bottomLeftOrigin="true" height="114.8" width="16383" x="-7893" y="-759.3"></sliceSourceBounds>
	</sfw>
</metadata>
<polygon class="st0" points="0,0 0,86.1 295,86 295.3,0 "/>
<path class="st1" d="M597.3,0v86H294.8l0.2-37.9c0.4-0.4,0.9-0.7,1.4-0.7c1.4,0,2.1,1.2,3.3,1.9c0.9,0.5,1.2,0.9,2.1,1.1
	c0.9,0.2,1.9,0.4,2.6,0c0.6-0.4,1.3-0.7,1.6-1.3c2-4.1,2.2-9,0.5-13.3c-0.4-1.1-1.2-2.1-2.3-2.6c-1.1-0.4-2.4-0.1-3.4,0.4
	c-1.1,0.5-1.9,1.3-2.8,2c-0.6,0.5-1.7,1.2-2.5,1.1c-0.1,0-0.2-0.1-0.3-0.2L295.4,0L597.3,0z"/>
<path class="st0" d="M295.1,35.2c-0.3,0.7,0.1,1.7,0.8,1.9c0.7,0.2,1.7-0.3,2.2-0.7c0.8-0.6,1.6-1.3,2.5-1.8c0.9-0.4,2.1-0.7,3-0.3
	c1,0.4,1.6,1.3,2,2.3c1.5,3.8,1.3,8.1-0.5,11.7c-0.3,0.5-0.9,0.9-1.4,1.2c-0.7,0.4-1.6,0.2-2.3,0s-1.1-0.5-1.8-0.9
	c-1-0.6-1.7-1.7-2.9-1.7c-0.9,0-1.7,0.8-1.8,1.8c-0.1,0.9-1.1,1.8-1.3,2.7c-0.9-4.3-1.2-9.4-0.8-13.8c0-0.5,0.1-0.9,0.3-1.4
	c0.2-0.4,0.5-0.8,1-0.9C294.7,35.2,295,34.7,295.1,35.2"/>
</svg>
