<?xml version="1.0" encoding="utf-8"?>
<!-- Generator: Adobe Illustrator 23.0.3, SVG Export Plug-In . SVG Version: 6.00 Build 0)  -->
<!DOCTYPE svg PUBLIC "-//W3C//DTD SVG 1.1//EN" "http://www.w3.org/Graphics/SVG/1.1/DTD/svg11.dtd" [
	<!ENTITY ns_extend "http://ns.adobe.com/Extensibility/1.0/">
	<!ENTITY ns_ai "http://ns.adobe.com/AdobeIllustrator/10.0/">
	<!ENTITY ns_graphs "http://ns.adobe.com/Graphs/1.0/">
	<!ENTITY ns_vars "http://ns.adobe.com/Variables/1.0/">
	<!ENTITY ns_imrep "http://ns.adobe.com/ImageReplacement/1.0/">
	<!ENTITY ns_sfw "http://ns.adobe.com/SaveForWeb/1.0/">
	<!ENTITY ns_custom "http://ns.adobe.com/GenericCustomNamespace/1.0/">
	<!ENTITY ns_adobe_xpath "http://ns.adobe.com/XPath/1.0/">
]>
<svg version="1.1" id="Layer_1" xmlns:x="&ns_extend;" xmlns:i="&ns_ai;" xmlns:graph="&ns_graphs;"
	 xmlns="http://www.w3.org/2000/svg" xmlns:xlink="http://www.w3.org/1999/xlink" x="0px" y="0px" viewBox="0 0 170.6 200.8"
	 style="enable-background:new 0 0 170.6 200.8;" xml:space="preserve">
<style type="text/css">
	.st0{fill:#3DABE1;}
	.st1{fill:#C3E6F7;}
</style>
<metadata>
	<sfw  xmlns="&ns_sfw;">
		<slices></slices>
		<sliceSourceBounds  bottomLeftOrigin="true" height="200.8" width="16383" x="-7893" y="-799.5"></sliceSourceBounds>
	</sfw>
</metadata>
<polygon class="st0" points="170.6,0 0,0 0,99 170.6,99.3 "/>
<path class="st1" d="M170.6,200.8H0L0,98.7l77,0.2c0.4,0.4,0.7,0.9,0.7,1.4c0,1.4-1.2,2.1-1.9,3.3c-0.5,0.9-0.9,1.2-1.1,2.1
	c-0.3,1-0.4,2.1,0.3,3c0.6,0.8,1.4,1.4,2.3,1.8c1.1,0.5,2.3,0.6,3.4,0.9c1.2,0.2,2.5,0.3,3.8,0.2c1.7-0.1,3.4-0.5,5-1.1
	c1.1-0.4,2.1-1.2,2.6-2.3c0.4-1.1,0.1-2.4-0.4-3.4c-0.5-1.1-1.3-1.9-2-2.8c-0.5-0.6-1.2-1.7-1.1-2.5c0-0.1,0.1-0.2,0.2-0.3l81.9,0.2
	V200.8z"/>
<path class="st0" d="M89.9,99c-0.7-0.3-1.7,0.1-1.9,0.8c-0.2,0.7,0.3,1.7,0.7,2.2c0.6,0.8,1.3,1.6,1.8,2.5c0.4,0.9,0.7,2.1,0.3,3
	c-0.4,1-1.3,1.6-2.3,2c-1.6,0.6-3.4,1-5.2,1c-1.7,0-3.5-0.2-5.1-0.8c-1-0.4-2.3-1-2.7-2.1c-0.6-1.5,0.2-2.9,0.9-4.1
	c0.6-1,1.7-1.7,1.7-2.9c0-0.9-0.8-1.7-1.8-1.8c-0.9-0.1-1.8-1.1-2.7-1.3c4.3-0.9,9.4-1.2,13.8-0.8c0.5,0,0.9,0.1,1.4,0.3
	s0.8,0.5,0.9,1C89.9,98.6,90.4,98.9,89.9,99"/>
</svg>
