<?xml version="1.0" encoding="utf-8"?>
<!-- Generator: Adobe Illustrator 23.0.1, SVG Export Plug-In . SVG Version: 6.00 Build 0)  -->
<svg version="1.1" id="Layer_1" xmlns="http://www.w3.org/2000/svg" xmlns:xlink="http://www.w3.org/1999/xlink" x="0px" y="0px"
	 viewBox="0 0 120.7 120.7" style="enable-background:new 0 0 120.7 120.7;" xml:space="preserve">
<style type="text/css">
	.st0{fill:#EEEEEE;}
	.st1{fill:#002248;}
</style>
<path class="st0" d="M120.7,60.3c0,33.3-27,60.4-60.3,60.4c-18.1,0-34.3-7.9-45.3-20.5c-7.1-7.9-12-17.7-14-28.4
	C0.4,68.1,0,64.3,0,60.3C0,27,27,0,60.3,0C79.7,0,97,9.2,108,23.4c6.4,8.3,10.8,18.3,12.2,29.2C120.5,55.1,120.7,57.7,120.7,60.3z"
	/>
<g>
	<path class="st1" d="M91.8,64.7c-0.3,1.3-0.8,1.8-2.1,1.8c-23.1-0.1-46.2-0.1-69.4-0.1c-0.5,0-1,0-1.6,0c-0.5-1.6-0.3-1.8,1.1-1.8
		c11.5,0,22.9,0,34.4,0c0.4,0,0.6-0.1,1.1,0.1c0.3-0.1,1.1-0.1,1.6-0.1c11.4,0,22.8,0,34.2,0C91.2,64.7,91.4,64.7,91.8,64.7z"/>
	<path class="st1" d="M25,47c0-0.6,0-1.1,0-1.8c0.4,0,0.9,0,1.3,0c16.8,0,33.7,0,50.5,0c1.3,0,1.8,0.6,2.1,1.8C60.9,47,43,47,25,47z
		"/>
	<path class="st1" d="M25,43c0-0.6,0-1.1,0-1.8c0.4,0,0.8,0,1.2,0c16.2,0,32.4,0,48.5,0c1.3,0,1.7,0.6,2,1.8C59.5,43,42.3,43,25,43z
		"/>
	<path class="st1" d="M74.7,39.1c-16.6,0-33.1,0-49.7,0c0-0.6,0-1.1,0-1.8c0.4,0,0.7,0,1.1,0c15.6,0,31.1,0,46.7,0
		C74.2,37.3,74.4,37.5,74.7,39.1z"/>
	<path class="st1" d="M25,35c0-0.6,0-1.1,0-1.7c0.7,0,1.3,0,1.9,0c14.6,0,29.3,0,43.9,0c1.3,0,1.6,0.7,2,1.7C56.8,35,41,35,25,35z"
		/>
	<path class="st1" d="M66.6,76.5c-0.7,1-1.2,1.9-2.6,1.9c-13.6-0.1-27.3-0.2-40.9-0.2c-0.4,0-0.8,0-1.3,0c0-0.6,0-1.1,0-1.7
		C36.7,76.5,51.6,76.5,66.6,76.5z"/>
	<path class="st1" d="M25,74.3c0-0.6,0-1.1,0-1.6c14.7,0,29.4,0,44.2,0c-0.4,0.9-0.6,1.7-1.8,1.7c-13.7,0-27.5,0-41.2,0
		C25.8,74.4,25.4,74.3,25,74.3z"/>
	<path class="st1" d="M57.2,57c12.8,0,25.5,0,38.3,0c-0.3,1.6-0.6,1.8-1.9,1.8c-11.6,0-23.2,0-34.8,0C57.2,58.8,57.2,58.8,57.2,57z"
		/>
	<path class="st1" d="M55.7,53.1c14,0,27.9,0,41.8,0c-0.4,1.6-0.5,1.7-2,1.7c-12.6,0-25.2,0-37.8,0C56.8,54.5,56.3,54,55.7,53.1z"/>
	<path class="st1" d="M62.7,80.4c-1.1,1.2-2.3,1.7-3.9,1.7c-10.6-0.1-21.2,0-31.8,0c-0.7,0-1.3,0-2,0c0-0.6,0-1.1,0-1.6
		C37.5,80.4,50,80.4,62.7,80.4z"/>
	<path class="st1" d="M56.8,62.6c0.1-0.7,0.2-1.2,0.3-1.7c12.2,0,24.3,0,36.4,0c-0.2,1.5-0.4,1.7-1.8,1.7c-11.3,0-22.5,0-33.8,0
		C57.6,62.6,57.3,62.6,56.8,62.6z"/>
	<path class="st1" d="M13.4,54.7c0-0.6,0-1.1,0-1.6c10.8,0,21.7,0,32.6,0c0,0.5,0,1,0,1.6C35.1,54.7,24.3,54.7,13.4,54.7z"/>
	<path class="st1" d="M25,58.7c-0.2-1.8-0.2-1.8,1.3-1.8c8.6,0,17.2,0,25.8,0c0.4,0,0.8,0,1.3,0c0,0.7,0,1.2,0,1.8
		C43.9,58.7,34.5,58.7,25,58.7z"/>
	<path class="st1" d="M48.1,68.7c0,0.5,0,1,0,1.6c-10.4,0-20.9,0-31.5,0c0-0.2-0.1-0.5-0.1-0.8c0-0.3,0-0.5,0-0.8
		C27.1,68.7,37.5,68.7,48.1,68.7z"/>
	<path class="st1" d="M52.2,49.1c6,0,12,0,18,0c2.8,0,5.6,0,8.3,0c1.7,0,1.7,0,2.3,1.8c-0.3,0-0.5,0.1-0.8,0.1
		c-8.4,0-16.8,0.1-25.3-0.1c-0.9-0.5-1.9-1-2.8-1.4C52.1,49.3,52.2,49.2,52.2,49.1z"/>
	<path class="st1" d="M25,86.1c0-0.6,0-1.1,0-1.6c10.3,0,20.5,0,30.7,0c0,0.1,0,0.2,0.1,0.3C53.5,85.2,51.2,86,49,86
		c-7.7,0.2-15.5,0.1-23.2,0.1C25.5,86.1,25.3,86.1,25,86.1z"/>
	<path class="st1" d="M21.5,62.6c0-0.6,0-1.1,0-1.7c9.4,0,18.7,0,28.1,0c0,0.5,0,1.1,0,1.7C40.2,62.6,30.9,62.6,21.5,62.6z"/>
	<path class="st1" d="M48.7,49.1c0,0.6,0,1.2,0,1.8c-7.9,0-15.8,0-23.7,0c0-0.6,0-1.1,0-1.8C32.9,49.1,40.8,49.1,48.7,49.1z"/>
	<path class="st1" d="M101.5,45.1c-0.5,1.9-0.6,2-2.2,2c-5,0-9.9,0-14.9,0c-0.3,0-0.7,0-1.1,0c0.4-1.7,0.7-2,2.2-2c5,0,9.9,0,14.9,0
		C100.8,45.1,101.1,45.1,101.5,45.1z"/>
	<path class="st1" d="M99.5,49.1C98.9,51,98.9,51,97.2,51c-5.1,0-10.1,0-15.2,0c-0.2,0-0.4,0-0.6,0c0.3-1.7,0.5-1.9,2-1.9
		c5,0,10,0,15,0C98.7,49.1,99.1,49.1,99.5,49.1z"/>
	<path class="st1" d="M49.3,70.4c3.6-0.7,4.6-1.2,6.4-1.9c4.5,0.1,8.9,0,13.4,0c0.4,0,0.8,0,1.3,0c-0.2,1.7-0.4,1.9-1.9,1.9
		c-6,0-11.9,0-17.9,0C50.2,70.4,49.8,70.4,49.3,70.4z"/>
	<path class="st1" d="M72.6,68.6c5.8,0,11.5,0,17.2,0c-0.2,1.6-0.5,2-2,2c-4.3,0-8.6,0-12.9,0C73.1,70.6,73.1,70.6,72.6,68.6z"/>
	<path class="st1" d="M103.4,41.3c-0.2,1.3-0.8,1.8-2,1.8c-5.3-0.1-10.6,0-16,0c0.3-1.5,0.6-1.8,2-1.8c5,0,9.9,0,14.9,0
		C102.6,41.3,102.9,41.3,103.4,41.3z"/>
	<path class="st1" d="M105.4,37.3c-0.6,1.8-0.6,1.8-2.2,1.8c-5,0-9.9,0-14.9,0c-0.3,0-0.5,0-0.8,0c0.3-1.6,0.5-1.8,1.9-1.8
		c5,0,10.1,0,15.1,0C104.7,37.3,105,37.3,105.4,37.3z"/>
	<path class="st1" d="M107.3,33.4c-0.3,1.5-1,1.8-2.2,1.8c-4.9-0.1-9.7,0-14.6,0c-0.3,0-0.7,0-1.1,0c0.3-1.2,0.7-1.8,1.9-1.8
		c4.9,0.1,9.8,0,14.7,0C106.4,33.4,106.9,33.4,107.3,33.4z"/>
	<path class="st1" d="M74.4,72.6c4.5,0,8.9,0,13.4,0c-0.2,1.6-0.5,1.8-1.9,1.8c-3,0-6,0-9,0C75.2,74.4,75.2,74.4,74.4,72.6z"/>
	<path class="st1" d="M85.9,76.5c-0.7,1.9-0.7,1.9-2.4,1.9c-1.5,0-3,0-4.5,0c-1.8,0-1.8,0-2.5-1.9C79.6,76.5,82.7,76.5,85.9,76.5z"
		/>
	<path class="st1" d="M78.5,80.4c1.9,0,3.6,0,5.6,0c-0.4,0.8-0.3,1.9-1.4,1.9C78.8,82.2,79.5,82.7,78.5,80.4z"/>
	<path class="st1" d="M81.2,86.4c-0.4-0.8-0.7-1.3-1-2c0.6,0,1.2,0,1.9,0C81.8,85,81.6,85.6,81.2,86.4z"/>
</g>
</svg>
