<?xml version="1.0" encoding="utf-8"?>
<!-- Generator: Adobe Illustrator 22.1.0, SVG Export Plug-In . SVG Version: 6.00 Build 0)  -->
<svg version="1.1" id="Layer_1" xmlns="http://www.w3.org/2000/svg" xmlns:xlink="http://www.w3.org/1999/xlink" x="0px" y="0px"
	 viewBox="0 0 50 50" style="enable-background:new 0 0 50 50;" xml:space="preserve">
<style type="text/css">
	.st0{fill:#FFFFFF;}
	.st1{display:none;fill:#FFFFFF;}
	.st2{fill:url(#SVGID_1_);}
	.st3{fill:url(#SVGID_2_);}
	.st4{fill:url(#SVGID_3_);}
	.st5{fill:url(#SVGID_4_);}
	.st6{fill:url(#SVGID_5_);}
	.st7{fill:url(#SVGID_6_);}
	.st8{fill:url(#SVGID_7_);}
	.st9{fill:url(#SVGID_8_);}
	.st10{fill:url(#SVGID_9_);}
	.st11{fill:url(#SVGID_10_);}
	.st12{fill:url(#SVGID_11_);}
	.st13{fill:url(#SVGID_12_);}
	.st14{fill:url(#SVGID_13_);}
	.st15{fill:url(#SVGID_14_);}
	.st16{fill:url(#SVGID_15_);}
	.st17{fill:url(#SVGID_16_);}
	.st18{fill:url(#SVGID_17_);}
	.st19{fill:url(#SVGID_18_);}
	.st20{fill:url(#SVGID_19_);}
	.st21{fill:url(#SVGID_20_);}
	.st22{fill:url(#SVGID_21_);}
	.st23{fill:url(#SVGID_22_);}
	.st24{fill:url(#SVGID_23_);}
	.st25{fill:url(#SVGID_24_);}
	.st26{fill:url(#SVGID_25_);}
	.st27{fill:url(#SVGID_26_);}
	.st28{fill:url(#SVGID_27_);}
	.st29{fill:url(#SVGID_28_);}
	.st30{fill:url(#SVGID_29_);}
</style>
<path class="st0" d="M50,41.8c0,4.5-3.7,8.2-8.2,8.2H8.2C3.7,50,0,46.3,0,41.8V8.3C0,3.8,3.7,0,8.2,0h33.5C46.3,0,50,3.8,50,8.3
	V41.8z"/>
<ellipse class="st1" cx="25" cy="18.9" rx="24.9" ry="25"/>
<g>
	<linearGradient id="SVGID_1_" gradientUnits="userSpaceOnUse" x1="6.1298" y1="27.4838" x2="39.174" y2="27.4838">
		<stop  offset="0" style="stop-color:#932A8E"/>
		<stop  offset="0.5558" style="stop-color:#562673;stop-opacity:0.8888"/>
		<stop  offset="1" style="stop-color:#272361;stop-opacity:0.8"/>
	</linearGradient>
	<path class="st2" d="M39.2,27.1c-0.1,0.5-0.4,0.8-1,0.8c-10.4,0-20.8,0-31.3,0c-0.2,0-0.5,0-0.7,0c-0.2-0.7-0.1-0.8,0.5-0.8
		c5.2,0,10.3,0,15.5,0c0.2,0,0.3,0,0.5,0c0.1,0,0.5,0,0.7,0c5.1,0,10.3,0,15.4,0C38.9,27.1,39,27.1,39.2,27.1z"/>
	<linearGradient id="SVGID_2_" gradientUnits="userSpaceOnUse" x1="9.0515" y1="19.1085" x2="33.3453" y2="19.1085">
		<stop  offset="0" style="stop-color:#932A8E"/>
		<stop  offset="0.5558" style="stop-color:#562673;stop-opacity:0.8888"/>
		<stop  offset="1" style="stop-color:#272361;stop-opacity:0.8"/>
	</linearGradient>
	<path class="st3" d="M9.1,19.5c0-0.3,0-0.5,0-0.8c0.2,0,0.4,0,0.6,0c7.6,0,15.2,0,22.8,0c0.6,0,0.8,0.3,1,0.8
		C25.2,19.5,17.2,19.5,9.1,19.5z"/>
	<linearGradient id="SVGID_3_" gradientUnits="userSpaceOnUse" x1="9.0481" y1="17.4036" x2="32.4017" y2="17.4036">
		<stop  offset="0" style="stop-color:#932A8E"/>
		<stop  offset="0.5558" style="stop-color:#562673;stop-opacity:0.8888"/>
		<stop  offset="1" style="stop-color:#272361;stop-opacity:0.8"/>
	</linearGradient>
	<path class="st4" d="M9,17.8c0-0.2,0-0.5,0-0.8c0.2,0,0.4,0,0.6,0c7.3,0,14.6,0,21.9,0c0.6,0,0.8,0.2,0.9,0.8
		C24.6,17.8,16.9,17.8,9,17.8z"/>
	<linearGradient id="SVGID_4_" gradientUnits="userSpaceOnUse" x1="9.0657" y1="15.7146" x2="31.4763" y2="15.7146">
		<stop  offset="0" style="stop-color:#932A8E"/>
		<stop  offset="0.5558" style="stop-color:#562673;stop-opacity:0.8888"/>
		<stop  offset="1" style="stop-color:#272361;stop-opacity:0.8"/>
	</linearGradient>
	<path class="st5" d="M31.5,16.1c-7.5,0-14.9,0-22.4,0c0-0.2,0-0.5,0-0.8c0.2,0,0.3,0,0.5,0c7,0,14,0,21.1,0
		C31.3,15.3,31.3,15.4,31.5,16.1z"/>
	<linearGradient id="SVGID_5_" gradientUnits="userSpaceOnUse" x1="9.0532" y1="13.987" x2="30.6176" y2="13.987">
		<stop  offset="0" style="stop-color:#932A8E"/>
		<stop  offset="0.5558" style="stop-color:#562673;stop-opacity:0.8888"/>
		<stop  offset="1" style="stop-color:#272361;stop-opacity:0.8"/>
	</linearGradient>
	<path class="st6" d="M9.1,14.4c0-0.3,0-0.5,0-0.7c0.3,0,0.6,0,0.9,0c6.6,0,13.2,0,19.8,0c0.6,0,0.7,0.3,0.9,0.7
		C23.4,14.4,16.3,14.4,9.1,14.4z"/>
	<linearGradient id="SVGID_6_" gradientUnits="userSpaceOnUse" x1="7.5956" y1="32.5564" x2="27.8127" y2="32.5564">
		<stop  offset="0" style="stop-color:#932A8E"/>
		<stop  offset="0.5558" style="stop-color:#562673;stop-opacity:0.8888"/>
		<stop  offset="1" style="stop-color:#272361;stop-opacity:0.8"/>
	</linearGradient>
	<path class="st7" d="M27.8,32.1c-0.3,0.4-0.5,0.8-1.2,0.8c-6.1-0.1-12.3-0.1-18.4-0.1c-0.2,0-0.4,0-0.6,0c0-0.3,0-0.5,0-0.7
		C14.3,32.1,21,32.1,27.8,32.1z"/>
	<linearGradient id="SVGID_7_" gradientUnits="userSpaceOnUse" x1="9.0598" y1="30.8818" x2="28.9738" y2="30.8818">
		<stop  offset="0" style="stop-color:#932A8E"/>
		<stop  offset="0.5558" style="stop-color:#562673;stop-opacity:0.8888"/>
		<stop  offset="1" style="stop-color:#272361;stop-opacity:0.8"/>
	</linearGradient>
	<path class="st8" d="M9.1,31.2c0-0.3,0-0.5,0-0.7c6.6,0,13.3,0,19.9,0c-0.2,0.4-0.3,0.7-0.8,0.7c-6.2,0-12.4,0-18.6,0
		C9.4,31.2,9.3,31.2,9.1,31.2z"/>
	<linearGradient id="SVGID_8_" gradientUnits="userSpaceOnUse" x1="23.6016" y1="24.1631" x2="40.8607" y2="24.1631">
		<stop  offset="0" style="stop-color:#932A8E"/>
		<stop  offset="0.5558" style="stop-color:#562673;stop-opacity:0.8888"/>
		<stop  offset="1" style="stop-color:#272361;stop-opacity:0.8"/>
	</linearGradient>
	<path class="st9" d="M23.6,23.8c5.8,0,11.5,0,17.3,0c-0.1,0.7-0.2,0.8-0.9,0.8c-5.2,0-10.5,0-15.7,0C23.6,24.6,23.6,24.6,23.6,23.8
		z"/>
	<linearGradient id="SVGID_9_" gradientUnits="userSpaceOnUse" x1="22.9138" y1="22.4659" x2="41.7657" y2="22.4659">
		<stop  offset="0" style="stop-color:#932A8E"/>
		<stop  offset="0.5558" style="stop-color:#562673;stop-opacity:0.8888"/>
		<stop  offset="1" style="stop-color:#272361;stop-opacity:0.8"/>
	</linearGradient>
	<path class="st10" d="M22.9,22.1c6.3,0,12.6,0,18.9,0c-0.2,0.7-0.2,0.7-0.9,0.7c-5.7,0-11.4,0-17,0C23.4,22.7,23.2,22.5,22.9,22.1z
		"/>
	<linearGradient id="SVGID_10_" gradientUnits="userSpaceOnUse" x1="9.0555" y1="34.2104" x2="26.0603" y2="34.2104">
		<stop  offset="0" style="stop-color:#932A8E"/>
		<stop  offset="0.5558" style="stop-color:#562673;stop-opacity:0.8888"/>
		<stop  offset="1" style="stop-color:#272361;stop-opacity:0.8"/>
	</linearGradient>
	<path class="st11" d="M26.1,33.8c-0.5,0.5-1,0.7-1.7,0.7c-4.8,0-9.6,0-14.3,0c-0.3,0-0.6,0-0.9,0c0-0.3,0-0.5,0-0.7
		C14.7,33.8,20.4,33.8,26.1,33.8z"/>
	<linearGradient id="SVGID_11_" gradientUnits="userSpaceOnUse" x1="23.3992" y1="25.8355" x2="39.955" y2="25.8355">
		<stop  offset="0" style="stop-color:#932A8E"/>
		<stop  offset="0.5558" style="stop-color:#562673;stop-opacity:0.8888"/>
		<stop  offset="1" style="stop-color:#272361;stop-opacity:0.8"/>
	</linearGradient>
	<path class="st12" d="M23.4,26.2c0.1-0.3,0.1-0.5,0.2-0.7c5.5,0,10.9,0,16.4,0c-0.1,0.7-0.2,0.7-0.8,0.7c-5.1,0-10.2,0-15.2,0
		C23.8,26.2,23.6,26.2,23.4,26.2z"/>
	<linearGradient id="SVGID_12_" gradientUnits="userSpaceOnUse" x1="3.823" y1="22.4456" x2="18.5102" y2="22.4456">
		<stop  offset="0" style="stop-color:#932A8E"/>
		<stop  offset="0.5558" style="stop-color:#562673;stop-opacity:0.8888"/>
		<stop  offset="1" style="stop-color:#272361;stop-opacity:0.8"/>
	</linearGradient>
	<path class="st13" d="M3.8,22.8c0-0.3,0-0.5,0-0.7c4.9,0,9.8,0,14.7,0c0,0.2,0,0.4,0,0.7C13.6,22.8,8.8,22.8,3.8,22.8z"/>
	<linearGradient id="SVGID_13_" gradientUnits="userSpaceOnUse" x1="9.025" y1="24.1341" x2="21.8802" y2="24.1341">
		<stop  offset="0" style="stop-color:#932A8E"/>
		<stop  offset="0.5558" style="stop-color:#562673;stop-opacity:0.8888"/>
		<stop  offset="1" style="stop-color:#272361;stop-opacity:0.8"/>
	</linearGradient>
	<path class="st14" d="M9.1,24.5C9,23.7,9,23.7,9.7,23.7c3.9,0,7.8,0,11.6,0c0.2,0,0.4,0,0.6,0c0,0.3,0,0.5,0,0.8
		C17.6,24.5,13.3,24.5,9.1,24.5z"/>
	<linearGradient id="SVGID_14_" gradientUnits="userSpaceOnUse" x1="5.2371" y1="29.1574" x2="19.4579" y2="29.1574">
		<stop  offset="0" style="stop-color:#932A8E"/>
		<stop  offset="0.5558" style="stop-color:#562673;stop-opacity:0.8888"/>
		<stop  offset="1" style="stop-color:#272361;stop-opacity:0.8"/>
	</linearGradient>
	<path class="st15" d="M19.5,28.8c0,0.2,0,0.4,0,0.7c-4.7,0-9.4,0-14.2,0c0-0.1,0-0.2,0-0.3c0-0.1,0-0.2,0-0.4
		C10,28.8,14.7,28.8,19.5,28.8z"/>
	<linearGradient id="SVGID_15_" gradientUnits="userSpaceOnUse" x1="21.2479" y1="20.7865" x2="34.2373" y2="20.7865">
		<stop  offset="0" style="stop-color:#932A8E"/>
		<stop  offset="0.5558" style="stop-color:#562673;stop-opacity:0.8888"/>
		<stop  offset="1" style="stop-color:#272361;stop-opacity:0.8"/>
	</linearGradient>
	<path class="st16" d="M21.3,20.4c2.7,0,5.4,0,8.1,0c1.3,0,2.5,0,3.8,0c0.8,0,0.8,0,1,0.8c-0.1,0-0.2,0-0.4,0c-3.8,0-7.6,0-11.4,0
		c-0.4-0.2-0.9-0.4-1.2-0.6C21.3,20.5,21.3,20.4,21.3,20.4z"/>
	<linearGradient id="SVGID_16_" gradientUnits="userSpaceOnUse" x1="9.0525" y1="35.9222" x2="22.9145" y2="35.9222">
		<stop  offset="0" style="stop-color:#932A8E"/>
		<stop  offset="0.5558" style="stop-color:#562673;stop-opacity:0.8888"/>
		<stop  offset="1" style="stop-color:#272361;stop-opacity:0.8"/>
	</linearGradient>
	<path class="st17" d="M9.1,36.3c0-0.3,0-0.5,0-0.7c4.6,0,9.2,0,13.8,0c0,0,0,0.1,0,0.1c-1,0.2-2,0.5-3.1,0.5c-3.5,0.1-7,0-10.5,0
		C9.3,36.3,9.2,36.3,9.1,36.3z"/>
	<linearGradient id="SVGID_17_" gradientUnits="userSpaceOnUse" x1="7.476" y1="25.8259" x2="20.1406" y2="25.8259">
		<stop  offset="0" style="stop-color:#932A8E"/>
		<stop  offset="0.5558" style="stop-color:#562673;stop-opacity:0.8888"/>
		<stop  offset="1" style="stop-color:#272361;stop-opacity:0.8"/>
	</linearGradient>
	<path class="st18" d="M7.5,26.2c0-0.3,0-0.5,0-0.7c4.2,0,8.4,0,12.7,0c0,0.2,0,0.5,0,0.7C15.9,26.2,11.7,26.2,7.5,26.2z"/>
	<linearGradient id="SVGID_18_" gradientUnits="userSpaceOnUse" x1="9.0603" y1="20.7865" x2="19.7629" y2="20.7865">
		<stop  offset="0" style="stop-color:#932A8E"/>
		<stop  offset="0.5558" style="stop-color:#562673;stop-opacity:0.8888"/>
		<stop  offset="1" style="stop-color:#272361;stop-opacity:0.8"/>
	</linearGradient>
	<path class="st19" d="M19.8,20.4c0,0.3,0,0.5,0,0.8c-3.6,0-7.1,0-10.7,0c0-0.3,0-0.5,0-0.8C12.6,20.4,16.2,20.4,19.8,20.4z"/>
	<linearGradient id="SVGID_19_" gradientUnits="userSpaceOnUse" x1="35.3663" y1="19.104" x2="43.5475" y2="19.104">
		<stop  offset="0" style="stop-color:#932A8E"/>
		<stop  offset="0.5558" style="stop-color:#562673;stop-opacity:0.8888"/>
		<stop  offset="1" style="stop-color:#272361;stop-opacity:0.8"/>
	</linearGradient>
	<path class="st20" d="M43.5,18.7c-0.2,0.8-0.3,0.9-1,0.9c-2.2,0-4.5,0-6.7,0c-0.2,0-0.3,0-0.5,0c0.2-0.7,0.3-0.9,1-0.9
		c2.2,0,4.5,0,6.7,0C43.2,18.7,43.4,18.7,43.5,18.7z"/>
	<linearGradient id="SVGID_20_" gradientUnits="userSpaceOnUse" x1="34.4979" y1="20.7857" x2="42.6696" y2="20.7857">
		<stop  offset="0" style="stop-color:#932A8E"/>
		<stop  offset="0.5558" style="stop-color:#562673;stop-opacity:0.8888"/>
		<stop  offset="1" style="stop-color:#272361;stop-opacity:0.8"/>
	</linearGradient>
	<path class="st21" d="M42.7,20.4c-0.3,0.8-0.3,0.8-1,0.8c-2.3,0-4.6,0-6.9,0c-0.1,0-0.2,0-0.3,0c0.1-0.7,0.2-0.8,0.9-0.8
		c2.3,0,4.5,0,6.8,0C42.3,20.4,42.5,20.4,42.7,20.4z"/>
	<linearGradient id="SVGID_21_" gradientUnits="userSpaceOnUse" x1="19.9985" y1="29.1493" x2="29.5093" y2="29.1493">
		<stop  offset="0" style="stop-color:#932A8E"/>
		<stop  offset="0.5558" style="stop-color:#562673;stop-opacity:0.8888"/>
		<stop  offset="1" style="stop-color:#272361;stop-opacity:0.8"/>
	</linearGradient>
	<path class="st22" d="M20,29.6c1.6-0.3,2.1-0.5,2.9-0.8c2,0.1,4,0,6,0c0.2,0,0.4,0,0.6,0c-0.1,0.7-0.2,0.8-0.9,0.8
		c-2.7,0-5.4,0-8.1,0C20.4,29.6,20.3,29.6,20,29.6z"/>
	<linearGradient id="SVGID_22_" gradientUnits="userSpaceOnUse" x1="30.5086" y1="29.1899" x2="38.251" y2="29.1899">
		<stop  offset="0" style="stop-color:#932A8E"/>
		<stop  offset="0.5558" style="stop-color:#562673;stop-opacity:0.8888"/>
		<stop  offset="1" style="stop-color:#272361;stop-opacity:0.8"/>
	</linearGradient>
	<path class="st23" d="M30.5,28.8c2.6,0,5.2,0,7.7,0c-0.1,0.7-0.2,0.8-0.9,0.8c-1.9,0-3.9,0-5.8,0C30.8,29.6,30.8,29.6,30.5,28.8z"
		/>
	<linearGradient id="SVGID_23_" gradientUnits="userSpaceOnUse" x1="36.2854" y1="17.4227" x2="44.3961" y2="17.4227">
		<stop  offset="0" style="stop-color:#932A8E"/>
		<stop  offset="0.5558" style="stop-color:#562673;stop-opacity:0.8888"/>
		<stop  offset="1" style="stop-color:#272361;stop-opacity:0.8"/>
	</linearGradient>
	<path class="st24" d="M44.4,17c-0.1,0.6-0.3,0.8-0.9,0.8c-2.4,0-4.8,0-7.2,0c0.1-0.6,0.3-0.8,0.9-0.8c2.2,0,4.5,0,6.7,0
		C44,17,44.2,17,44.4,17z"/>
	<linearGradient id="SVGID_24_" gradientUnits="userSpaceOnUse" x1="37.2172" y1="15.7215" x2="45.2972" y2="15.7215">
		<stop  offset="0" style="stop-color:#932A8E"/>
		<stop  offset="0.5558" style="stop-color:#562673;stop-opacity:0.8888"/>
		<stop  offset="1" style="stop-color:#272361;stop-opacity:0.8"/>
	</linearGradient>
	<path class="st25" d="M45.3,15.3c-0.3,0.8-0.3,0.8-1,0.8c-2.2,0-4.5,0-6.7,0c-0.1,0-0.2,0-0.4,0c0.1-0.7,0.2-0.8,0.8-0.8
		c2.3,0,4.5,0,6.8,0C45,15.3,45.1,15.3,45.3,15.3z"/>
	<linearGradient id="SVGID_25_" gradientUnits="userSpaceOnUse" x1="38.1078" y1="14.0094" x2="46.177" y2="14.0094">
		<stop  offset="0" style="stop-color:#932A8E"/>
		<stop  offset="0.5558" style="stop-color:#562673;stop-opacity:0.8888"/>
		<stop  offset="1" style="stop-color:#272361;stop-opacity:0.8"/>
	</linearGradient>
	<path class="st26" d="M46.2,13.6c-0.1,0.7-0.5,0.8-1,0.8c-2.2,0-4.4,0-6.6,0c-0.2,0-0.3,0-0.5,0c0.1-0.5,0.3-0.8,0.9-0.8
		c2.2,0,4.4,0,6.6,0C45.8,13.6,46,13.6,46.2,13.6z"/>
	<linearGradient id="SVGID_26_" gradientUnits="userSpaceOnUse" x1="31.3523" y1="30.868" x2="37.3745" y2="30.868">
		<stop  offset="0" style="stop-color:#932A8E"/>
		<stop  offset="0.5558" style="stop-color:#562673;stop-opacity:0.8888"/>
		<stop  offset="1" style="stop-color:#272361;stop-opacity:0.8"/>
	</linearGradient>
	<path class="st27" d="M31.4,30.5c2,0,4,0,6,0c-0.1,0.7-0.2,0.8-0.8,0.8c-1.3,0-2.7,0-4,0C31.7,31.3,31.7,31.3,31.4,30.5z"/>
	<linearGradient id="SVGID_27_" gradientUnits="userSpaceOnUse" x1="32.2824" y1="32.574" x2="36.5262" y2="32.574">
		<stop  offset="0" style="stop-color:#932A8E"/>
		<stop  offset="0.5558" style="stop-color:#562673;stop-opacity:0.8888"/>
		<stop  offset="1" style="stop-color:#272361;stop-opacity:0.8"/>
	</linearGradient>
	<path class="st28" d="M36.5,32.2C36.2,33,36.2,33,35.4,33c-0.7,0-1.4,0-2,0c-0.8,0-0.8,0-1.1-0.8C33.7,32.2,35.1,32.2,36.5,32.2z"
		/>
	<linearGradient id="SVGID_28_" gradientUnits="userSpaceOnUse" x1="33.172" y1="34.2266" x2="35.6783" y2="34.2266">
		<stop  offset="0" style="stop-color:#932A8E"/>
		<stop  offset="0.5558" style="stop-color:#562673;stop-opacity:0.8888"/>
		<stop  offset="1" style="stop-color:#272361;stop-opacity:0.8"/>
	</linearGradient>
	<path class="st29" d="M33.2,33.8c0.8,0,1.6,0,2.5,0c-0.2,0.3-0.1,0.8-0.6,0.8C33.3,34.6,33.6,34.8,33.2,33.8z"/>
	<linearGradient id="SVGID_29_" gradientUnits="userSpaceOnUse" x1="33.9634" y1="35.959" x2="34.8232" y2="35.959">
		<stop  offset="0" style="stop-color:#932A8E"/>
		<stop  offset="0.5558" style="stop-color:#562673;stop-opacity:0.8888"/>
		<stop  offset="1" style="stop-color:#272361;stop-opacity:0.8"/>
	</linearGradient>
	<path class="st30" d="M34.4,36.4c-0.2-0.3-0.3-0.6-0.4-0.9c0.3,0,0.5,0,0.9,0C34.7,35.8,34.6,36.1,34.4,36.4z"/>
</g>
</svg>
