<?xml version="1.0" encoding="utf-8"?>
<!-- Generator: Adobe Illustrator 23.0.3, SVG Export Plug-In . SVG Version: 6.00 Build 0)  -->
<!DOCTYPE svg PUBLIC "-//W3C//DTD SVG 1.1//EN" "http://www.w3.org/Graphics/SVG/1.1/DTD/svg11.dtd" [
	<!ENTITY ns_extend "http://ns.adobe.com/Extensibility/1.0/">
	<!ENTITY ns_ai "http://ns.adobe.com/AdobeIllustrator/10.0/">
	<!ENTITY ns_graphs "http://ns.adobe.com/Graphs/1.0/">
	<!ENTITY ns_vars "http://ns.adobe.com/Variables/1.0/">
	<!ENTITY ns_imrep "http://ns.adobe.com/ImageReplacement/1.0/">
	<!ENTITY ns_sfw "http://ns.adobe.com/SaveForWeb/1.0/">
	<!ENTITY ns_custom "http://ns.adobe.com/GenericCustomNamespace/1.0/">
	<!ENTITY ns_adobe_xpath "http://ns.adobe.com/XPath/1.0/">
]>
<svg version="1.1" id="Isolation_Mode" xmlns:x="&ns_extend;" xmlns:i="&ns_ai;" xmlns:graph="&ns_graphs;"
	 xmlns="http://www.w3.org/2000/svg" xmlns:xlink="http://www.w3.org/1999/xlink" x="0px" y="0px" viewBox="0 0 253.6 484.1"
	 style="enable-background:new 0 0 253.6 484.1;" xml:space="preserve">
<style type="text/css">
	.st0{fill:#FFFFFF;}
	.st1{fill:#EFBBAB;}
	.st2{fill:#D8D8D8;}
	.st3{fill:#F4F4F5;}
	.st4{fill:#C3E6F7;}
	.st5{fill:#C6C6C5;}
	.st6{fill:#2A4867;}
	.st7{fill:#3DABE1;}
</style>
<metadata>
	<sfw  xmlns="&ns_sfw;">
		<slices></slices>
		<sliceSourceBounds  bottomLeftOrigin="true" height="484.1" width="253.6" x="141" y="-452.2"></sliceSourceBounds>
	</sfw>
</metadata>
<g>
	<path class="st0" d="M116.9,87.6c0.4,0.4,0.8,0.9,1.2,1.3c3.6,4,6.6,8.6,9,13.3c1.3,2.4,2.3,4.9,3.4,7.3c0.9,1.9,2.5,3.4,3.9,5
		c6.8,8.3,14.2,16.3,19.1,26c1.1,2.2,2.1,4.6,3.8,6.5c1.6,1.9,4.1,3.3,6.6,3c1.6-0.2,3-1,4.3-1.9c5.6-3.5,11-7.3,16.2-11.4
		c4.2-3.3,9.2-6.2,13.6-9.2c7.5-5.2,14.8-9.7,23-13.5c1.4-0.7,3-1.3,4.5-1c2,0.5,3.2,2.6,4.1,4.4c0.4,0.9,0.8,1.8,0.6,2.7
		c-0.2,0.7-0.8,1.3-1.4,1.7c-8.9,7.4-16.9,15-25.8,22.4c-2.8,2.3-6.4,4.5-9,6.9c-5.4,5.1-10.1,10.9-16,15.3
		c-5.9,4.4-13.4,7.5-20.6,5.9c-6.9-1.5-12.3-6.8-17-12.1c-14.8-16.9-26.6-36.2-38.4-55.4C97.6,97.9,94.4,90.2,92,82
		c-0.3-1-0.6-2.1-0.5-3.2s0.6-2.2,1.6-2.6c0.8-0.4,1.7-0.3,2.5-0.2C103.7,77.2,111.2,81.7,116.9,87.6z"/>
	<path class="st1" d="M230.6,100.5c0.1-1.6-0.1-3.5,1.1-4.6c0.7-0.7,1.8-0.9,2.7-0.5c0.9,0.4,1.5,1.3,1.6,2.2c0.1,1.7-1.6,3.3-1.4,5
		c0.1,0.4,0.2,0.7,0.5,0.9c0.5,0.3,1.1-0.1,1.6-0.5c3.4-2.6,7.1-4.8,10.9-6.6c0.8-0.4,1.6-0.7,2.4-0.6c0.6,0.1,1.1,0.5,1.6,0.9
		c1.9,1.8,2.3,4.9,1.6,7.4s-2.5,4.7-4.4,6.5c-3.5,3.4-7.8,6-12.4,7.7c-2.7,1-5.5,1.8-7.6,3.7c0,0-10.3-5.5-5.2-9.2
		C227.5,110.1,230.4,105.7,230.6,100.5z"/>
	<g>
		<path class="st0" d="M42.3,81.3c-8.7,3.7-16.6,10.5-19.4,19.5c-2.7,8.8-0.4,18.3,2,27.1c6.2,22.5,13.2,46.7,5.5,68.7
			c-4.4,12.6-13.2,23.1-20.3,34.4c-7,11.3-12.5,25-9,37.9c7.1-9.5,18.6-15.6,30.4-16.2c-2.3-4.8,0.9-10.8,5.5-13.5
			s10.2-2.9,15.5-3.1c20.3-0.7,45.8,3,66.1,2.3c7.9-25.4,10.4-54.8,12-81.4c1.2-19.9,1.3-42.8-8.5-60.1
			C105.7,68.1,69.4,69.7,42.3,81.3z"/>
		<path class="st2" d="M27.9,238.6c-0.4,0.2-0.7,0.5-1.1,0.7c-3.3,2-6.4,4.4-9.5,6.7c-2.1,1.6-4.2,3.1-6.1,4.9
			c-5.1,4.9-8.8,11.3-10.3,18.2c1.4-2.5,3.7-4.2,6-5.9c3.2-2.3,6.3-4.6,9.9-6.3c2.3-1.1,4.7-1.8,7.2-2.5c2.1-0.6,4.3-1.1,6.5-1.1
			c2.2,0,4.5,0.5,6.2,1.9c0.1-6.9,0.9-13.9,2.4-20.6c0.4-1.7,0.9-3.6,2.2-4.7c-2.1,1.7-4,3.9-6.5,5
			C32.3,235.9,30.2,237.2,27.9,238.6z"/>
		<path class="st3" d="M36.1,327.2c0.1,2.1,0.1,4.3-0.8,6.2c-1,2.1-4.7,11.2-5.4,13.4c-10,30.4-6.5,28.8-9.1,47.1
			c-2.4,17-0.2,25.7-0.7,42.8c-0.4,12.2-3.4,23.5-5.9,35.3c-0.6,2.9-0.9,6.3,0.9,8.6c1.7,2.1,4.6,2.7,7.2,2.9
			c4.7,0.3,9.5-0.3,13.9-1.8c0.5-0.2,1-0.4,1.4-0.8c0.5-0.5,0.5-1.2,0.6-1.9c0.2-6.5-3.8-12.3-4.9-18.7c-0.8-4.4-1.9-8.7-0.9-13.1
			c1.1-4.9,3.9-9.1,6.2-13.6c5.5-10.8,7.6-23.1,9.6-35.1c4.6-27.6,15-71.6,19.6-99.2c-0.7,5.8,4.7,13,4,27.3
			c-0.3,6.9-2.5,18.3-4.5,24.9c-8.8,29.8-2.4,61.7,2.1,92.4c1,6.8,2,13.6,1.5,20.6c-0.3,4.1-0.8,8.7,2.1,11.6
			c2.1,2.2,5.5,2.5,8.5,2.7c3.5,0.2,7,0.2,10.4,0c0.4,0,0.8,0,1.1-0.2c0.9-0.4,1.1-1.6,1.2-2.6c0.2-3.2,0.4-6.5-0.7-9.5
			c-1.3-3.4-4-5.9-6.3-8.7c-1.8-2.2-4.5-5.4-4.7-8.4c-0.2-2.8,0.6-6,0.8-8.8c0.5-7.6,1.4-15.1,2.7-22.6c2.5-15.1,6.2-30,9.4-44.9
			c2.2-10.6,4.2-21.3,5.3-32c1.1-10.7,2.8-21.6,3.4-32.4c1.4-25.2,9-48.3,9-74.2c-0.2,1.2-41.5-0.1-45.6-0.1
			c-8.9,0-28.5-4.5-33.1,5.3c-4.4,9.3,0,28.4,0.3,38.3C35.3,294.5,35.7,310.8,36.1,327.2z"/>
		<path class="st4" d="M87.1,145.8c-0.4,5.5-1.3,11-2.7,16.4c-1.7,6.9-5,12.8-8.5,19c-10.1,18.1-22.5,34.8-36.9,49.7
			c-1.5,1.6-4.6,7.3-4.4,9.4c0.4,3.6,6.6,0.6,10.2,0.5c21.9-0.5,43.8-1.1,65.7-1.6c8.3-32.1,11.1-64.6,7.1-96.2
			c-0.9-7-0.1-14.6-1.3-21.6c-2.3-13.4-4.5-26-11.8-37.5c-1.8-2.8-8.2-6.6-11.4-7.6c-1.8-0.6,0-0.1-1.9-0.4
			c-6.8-0.9,0.1-4.3-24.5-1.6c-0.6,0.1,4.1,10.3,5.1,11.5c3.2,4,5.8,7.9,7.8,12.8c5.5,13.3,8.1,27.7,7.7,42.1
			C87.4,142.4,87.3,144.1,87.1,145.8z"/>
		<path class="st5" d="M96.7,86.1c0.7,0.2,1.4,0.4,2.1,0.6c1.8,0.6,3.3,1.5,4.7,2.7c-0.5-1.1-1-2.1-1.4-3.2
			c-0.2-0.6-0.9-1.1-1.3-1.6c-0.4-0.5-0.2-0.9-0.7-1.2c-0.4-0.3-0.8-0.7-1.3-1c-1.1-0.7-2.3-1.2-3.5-1.5c-1.2-0.3-3.4-0.9-4.3,0.3
			c-0.6,0.9-0.2,2.2,0.4,2.9c0.8,1,2,1.3,3.2,1.5C95.4,85.8,96.1,85.9,96.7,86.1z"/>
		<path class="st5" d="M88,84.4c-0.6,0.8-1.5,1.3-2.3,1.8c-1.9,1.1-3.9,2.2-5.7,3.5c-0.9,0.7-1.8,1.4-2.6,2.1
			c-0.3,0.3-0.8,1-1.2,1.1c-0.5,0.1-0.5-0.8-0.4-1.1c0.1-0.5,0.5-1,0.8-1.4c2.2-2.6,5-4.6,8.1-5.9c0.6-0.2,1.2-0.4,1.7-0.8
			c0.6-0.3,1-0.7,1.5-1.2c0.2-0.2,0.9-1.4,1.1-1.4C89.9,81.2,88.3,83.9,88,84.4C88,84.3,88,84.3,88,84.4z"/>
		<path class="st6" d="M93.8,86.9c1.4-1.8-2.3-4.5-3.2-5.7c-0.9-1.2-0.5-1.9-2.3-1.6c-0.9,0.2-1.7,0.8-2.2,1.6
			c-0.9,1.6-0.4,4.2,0.5,5.7C87.7,88.8,92.2,88.7,93.8,86.9z"/>
		<path class="st6" d="M91.4,96.7c18.6,40.1-2.9,82.2-26.4,114.7c-0.8,1.1-1.6,2.2-2,3.6c-0.9,3.3,1.2,6.3,2.4,9.2
			c1.5,3.5,1.9,7.3,2.2,11.1c-0.1-1.2,5.5-4.3,6.5-4.9c2.2-1.3,5-1.8,7.1-3c4.1-2.4,6-8.1,7.9-12.2c2.4-5.3,4.5-10.7,6.3-16.2
			c5.3-16.1,7.6-33,8.6-50c1-16.6,0.4-33.8-5.2-49.7c-1-2.9-4.3-16.4-9.3-15c-1.5,0.4-2.3,2.2-2.2,3.7c0.1,1.5,0.9,2.9,1.7,4.3
			C90,93.8,90.7,95.2,91.4,96.7z"/>
		<path class="st0" d="M88,203.1c3.1,1.8,6.2,3.5,9.4,5.1c13.3,6.6,27.4,11.4,41.7,15.4c7.2,2,14.5,3.9,21.7,5.6
			c2.7,0.7,5.5,0.7,8.2,1.4c3.6,1,7,1.5,10.7,0.8c1-0.2,2.1-0.5,2.7-1.3c0.7-0.8,0.7-2,1.3-3c0.3-0.5,0.7-0.9,1-1.3
			c0.8-1.4,0-3.3-1.3-4.2c-1.3-1-3-1.2-4.5-1.5c-3-0.4-5.5-1.7-8.4-2.6c-3.3-0.9-6.5-2-9.6-3.3c-6.5-2.6-12.8-5.6-19-8.7
			c-17.8-8.8-35.7-17.6-51.3-29.8C78.1,166.2,67,154.2,60,139.8c-3.6-7.3-5.2-15.6-8-23.2c-3.4-9.3-8.2-17.9-13.9-26
			c-1.1-1.6-2.6-3.3-4.5-3.1c-0.8,0.1-1.5,0.5-2.1,0.9c-3.5,2.3-6.1,5.7-7.9,9.5c-2.1,4.6-3.5,9.5-3,14.5c0.4,3.6,1.3,7.1,2.4,10.5
			c2.5,7.8,6.1,15.2,10,22.4c3.9,7.2,8.1,14.6,13.3,21C57.5,180.2,72.6,194,88,203.1z"/>
		<path class="st1" d="M195,219c1.2-1,2.4-2.3,4-2.2c0.9,0.1,1.8,0.7,2.1,1.6s0.1,1.9-0.5,2.5c-1.2,1.2-3.3,1-4.4,2.3
			c-0.2,0.3-0.4,0.6-0.3,1c0.1,0.5,0.8,0.7,1.4,0.8c4,0.7,7.9,1.9,11.7,3.4c0.7,0.3,1.5,0.7,2,1.3c0.3,0.5,0.4,1.1,0.4,1.7
			c-0.1,2.5-1.9,4.8-4.2,5.9c-2.3,1.1-4.9,1.3-7.5,1.1c-4.7-0.3-9.3-1.6-13.4-3.7c-2.4-1.2-4.8-2.8-7.5-3.1c0.1,0-2.1-11.9,3.8-10.7
			C186.9,221.8,191.2,222.2,195,219z"/>
		<path class="st1" d="M113,24.7c-0.5,3.1,0.6,6.2,2.6,8.8c0.7,0.9,1.1,1.7,2.3,2.5c0.6,0.4,1.2,0.9,1.6,1.5c1,1.3,0.2,3.1-1.5,3.4
			c-0.8,0.2-1.6,0.3-2.1,0.8c-0.7,0.7-0.6,1.7-0.5,2.6c0.1,1.3,0.4,2.7,0.3,4c-0.2,2.1,1.2,3.8,1.3,5.9c0,0.3,0,0.6-0.1,0.8
			c-0.1,0.2-0.1,0.3-0.2,0.5c-0.1,0.3-0.1,0.7,0,1c0.1,2,0.3,3.9,0.5,5.9c0.1,1.2-0.8,2.2-2,2.4c-4.6,0.6-9.9-1.1-14,0.9
			c-1.6,0.8-2.8,2-3.9,3.3c-1,1.2-2.1,2.4-2.8,3.7c-0.6,1.3-2.2,3.7-2.2,5.1c-0.3,0.6-0.6,1.3-1.1,1.8c-0.5,0.5-1.3,0.8-2,1
			c-1.8,0.6-3.6,1.3-5.5,1.6c-3.4,0.6-7,0.2-10.1-1.1c-0.7-0.3-1.4-0.6-1.8-1.2c-0.3-0.4-0.4-0.9-0.5-1.4c-0.8-4.1-1.2-8.3-1.6-12.5
			C69,61.5,68.6,57,69,52.6c0.2-2.2,0.5-4.5,0.8-6.7c0.7-6.1,0.7-12.5-2.1-18.1c-0.8-1.5-0.4-2.9-0.6-4.5c-0.3-2.6-0.8-5.4,0.7-7.5
			c1-1.5,2.9-2.3,4.6-3.1c4.1-1.8,8.1-3.7,12.2-5.5c2.9-1.3,5.8-2.6,8.9-3.3c2.9-0.7,5.9-0.9,8.9-1.1c3.3-0.2,7.2-0.2,9.3,2.1
			c1.5,1.7,1.6,4.3,0.7,6.3c-0.9,2.1-3.3,3.7-2.8,5.9C110.3,19.8,113.5,21.4,113,24.7z"/>
		<path class="st6" d="M71.5,50.5c4.4-2.3,7.2-6.7,9.4-11.1c0.3-0.7,0.7-1.4,1.2-2c1.9-2.1,5.6-1.5,7.6,0.4c2.1,2,2.9,4.8,3.7,7.6
			c1.1,0,2.2-0.1,3.3-0.1c-0.4-2.1-0.6-4.2-0.6-6.3c0-1.2,0.1-2.5,0-3.7c-0.2-1.5-0.7-2.9-1.1-4.4c-0.3-1.1-0.8-2-0.5-3.1
			c0.3-1.1,1-2.2,1.8-2.9c1.3-1.2,2.9-1.9,4.4-2.7c1.3-0.7,2.7-1.4,4-2.1c1.8-1.1,3.6-2.2,5.1-3.6c1.5-1.4,2.8-3.2,3.4-5.2
			c0.2-0.6,0.3-1.2,0.3-1.8c0-0.6-0.1-1.3-0.1-1.9c-0.1-0.9-0.1-1.8-0.5-2.6c-0.3-0.7-0.8-1.4-1.3-1.9c-1.1-1.2-2.5-2-4.1-2.4
			c-3.3-0.9-6.8-0.2-10.1,0.5c-5,1.1-10.1,2.3-14.9,4.3C78,7.2,74,9.8,69.9,12.7c-1.2,0.9-2.5,1.8-3.3,3.1c-1.4,2.4-0.8,5.4-0.6,8.1
			c0.3,3.9-0.2,7.9-0.9,11.7c-0.3,1.6-0.9,3.3-0.8,5c0.1,1.4,0.2,2.9,0.3,4.4c0.1,1.4-0.3,4.4,0.6,5.7C66.5,52.3,70,51.2,71.5,50.5z
			"/>
		<path class="st4" d="M75.8,92.1c2.5-3.2,6.6-4.7,10.2-6.6c1.1-0.6,2.2-1.2,2.9-2.1c0.8-0.9,0.7-2.7,0.3-3.8
			c-1.9,0.9-5.3,0.1-7.3-0.6c-3.4-1.2-5.1-1.8-7.9-3.9c-1.4-1.1-2.9-2.4-4.7-2.4c-1.2,0-3.7,1-3.6,2.4c0.1,1.3,2.4,3.8,3,4.9
			C71.1,84.1,73.4,88.1,75.8,92.1z"/>
		<path class="st4" d="M90.6,83.3c0.3,0.2,0.6,0.3,0.9,0.4c2.3,0.8,4.7,1.5,7,2.3c2,0.6,4.1,1.5,4.9,3.4c-0.4-2-1.6-3.8-2.7-5.6
			c-0.7-1-1.4-2-2.2-2.9c-1.1-1.1-2.3-1.9-3.1-3.1c-0.8-1.1-1.5-1.9-3-1.8c-0.1,0-1.1,1.7-1.2,1.8c-0.5,0.6-1.3,1-1.8,1.5
			c-0.8,1,0.1,3.2,1.1,3.9C90.5,83.2,90.6,83.3,90.6,83.3z"/>
		<path class="st4" d="M13.6,471.8c-0.7,2.9-1.3,6.1,0.3,8.6c1.9,3,6,3.4,9.5,3.6c2.7,0.1,5.5,0.2,8.2-0.5s6.3-0.4,7.3-3
			c1-2.6-1-7.5-1.8-10.2c-1.9-6.7-3.9-13.3-5.8-20c-0.4-1.3-7.2-0.6-8.2-0.4c-2.3,0.4-4,0.8-4.9,3.1
			C15.9,458.9,15.1,465.7,13.6,471.8z"/>
		<path class="st4" d="M76,450.2c1.8-0.5,3.8-1,5.4-0.1c0.9,0.5,1.5,1.3,2.1,2.1c2,2.7,4.1,5.5,6.1,8.2c2.4,3.3,4.9,6.7,5.7,10.8
			c0.5,2.6,0.1,5.6-1.8,7.3c-2.1,1.9-5.3,1.8-8.2,1.5c-2.3-0.2-4.6-0.4-6.9-0.6c-2.5-0.2-5.3-0.6-6.8-2.5c-1.3-1.6-1.3-3.9-1.3-6
			c0.1-4.7,0.1-9.3,0.2-14c0-1.4-0.6-4.8,0.4-5.9C71.9,450,74.7,450.5,76,450.2z"/>
	</g>
	<path class="st3" d="M116.9,87.6c0.4,0.4,0.8,0.9,1.2,1.3c3.6,4,6.6,8.6,9,13.3c1.3,2.4,2.3,4.9,3.4,7.3c0.9,1.9,2.5,3.4,3.9,5
		c6.8,8.3,14.2,16.3,19.1,26c1.1,2.2,2.1,2.3,3.8,4.2c1.6,1.9,4.1,5.7,6.6,5.4c1.6-0.2,3-1,4.3-1.9c5.6-3.5,11-7.3,16.2-11.4
		c4.2-3.3,9.2-6.2,13.6-9.2c7.5-5.2,14.8-9.7,23-13.5c1.4-0.7,3-1.3,4.5-1c2,0.5,3.2,2.6,4.1,4.4c0.4,0.9,0.8,1.8,0.6,2.7
		c-0.2,0.7-0.8,1.3-1.4,1.7c-8.9,7.4-15.3,15.4-24.2,22.9c-2.8,2.3-6.6,6-9.2,8.4c-5.4,5.1-11.6,8.9-17.5,13.3
		c-5.9,4.4-13.4,7.5-20.6,5.9c-6.9-1.5-12.3-6.8-17-12.1c-14.8-16.9-26.6-36.2-38.4-55.4C97.6,97.9,94.4,90.2,92,82
		c-0.3-1-0.6-2.1-0.5-3.2s0.6-2.2,1.6-2.6c0.8-0.4,1.7-0.3,2.5-0.2C103.7,77.2,111.2,81.7,116.9,87.6z"/>
	<g>
		<path class="st3" d="M42.3,81.3c-8.7,3.7-16.6,10.5-19.4,19.5c-2.7,8.8-0.4,18.3,2,27.1c6.2,22.5,13.2,46.7,5.5,68.7
			c-4.4,12.6-13.2,23.1-20.3,34.4c-7,11.3-12.5,25-9,37.9c7.1-9.5,18.6-15.6,30.4-16.2c-2.3-4.8,0.9-10.8,5.5-13.5
			s10.2-2.9,15.5-3.1c20.3-0.7,45.8,3,66.1,2.3c7.9-25.4,10.4-54.8,12-81.4c1.2-19.9,1.3-42.8-8.5-60.1
			C105.7,68.1,69.4,69.7,42.3,81.3z"/>
		<path class="st2" d="M27.9,238.6c-0.4,0.2-0.7,0.5-1.1,0.7c-3.3,2-6.4,4.4-9.5,6.7c-2.1,1.6-4.2,3.1-6.1,4.9
			c-5.1,4.9-8.8,11.3-10.3,18.2c1.4-2.5,3.7-4.2,6-5.9c3.2-2.3,6.3-4.6,9.9-6.3c2.3-1.1,4.7-1.8,7.2-2.5c2.1-0.6,4.3-1.1,6.5-1.1
			c2.2,0,4.5,0.5,6.2,1.9c0.1-6.9,0.9-13.9,2.4-20.6c0.4-1.7,0.9-3.6,2.2-4.7c-2.1,1.7-4,3.9-6.5,5
			C32.3,235.9,30.2,237.2,27.9,238.6z"/>
		<path class="st3" d="M36.1,327.2c0.1,2.1,0.1,4.3-0.8,6.2c-1,2.1-4.7,11.2-5.4,13.4c-10,30.4-6.5,28.8-9.1,47.1
			c-2.4,17-0.2,25.7-0.7,42.8c-0.4,12.2-3.4,23.5-5.9,35.3c-0.6,2.9-0.9,6.3,0.9,8.6c1.7,2.1,4.6,2.7,7.2,2.9
			c4.7,0.3,9.5-0.3,13.9-1.8c0.5-0.2,1-0.4,1.4-0.8c0.5-0.5,0.5-1.2,0.6-1.9c0.2-6.5-3.8-12.3-4.9-18.7c-0.8-4.4-1.9-8.7-0.9-13.1
			c1.1-4.9,3.9-9.1,6.2-13.6c5.5-10.8,7.6-23.1,9.6-35.1c4.6-27.6,15-71.6,19.6-99.2c-0.7,5.8,4.7,13,4,27.3
			c-0.3,6.9-2.5,18.3-4.5,24.9c-8.8,29.8-2.4,61.7,2.1,92.4c1,6.8,2,13.6,1.5,20.6c-0.3,4.1-0.8,8.7,2.1,11.6
			c2.1,2.2,5.5,2.5,8.5,2.7c3.5,0.2,7,0.2,10.4,0c0.4,0,0.8,0,1.1-0.2c0.9-0.4,1.1-1.6,1.2-2.6c0.2-3.2,0.4-6.5-0.7-9.5
			c-1.3-3.4-4-5.9-6.3-8.7c-1.8-2.2-4.5-5.4-4.7-8.4c-0.2-2.8,0.6-6,0.8-8.8c0.5-7.6,1.4-15.1,2.7-22.6c2.5-15.1,6.2-30,9.4-44.9
			c2.2-10.6,4.2-21.3,5.3-32c1.1-10.7,2.8-21.6,3.4-32.4c1.4-25.2,9-48.3,9-74.2c-0.2,1.2-41.5-0.1-45.6-0.1
			c-8.9,0-28.5-4.5-33.1,5.3c-4.4,9.3,0,28.4,0.3,38.3C35.3,294.5,35.7,310.8,36.1,327.2z"/>
		<path class="st4" d="M87.1,145.8c-0.4,5.5-1.3,11-2.7,16.4c-1.7,6.9-5,12.8-8.5,19c-10.1,18.1-22.5,34.8-36.9,49.7
			c-1.5,1.6-4.6,7.3-4.4,9.4c0.4,3.6,6.6,0.6,10.2,0.5c21.9-0.5,43.8-1.1,65.7-1.6c8.3-32.1,11.1-64.6,7.1-96.2
			c-0.9-7-0.1-14.6-1.3-21.6c-2.3-13.4-4.5-26-11.8-37.5c-1.8-2.8-8.2-6.6-11.4-7.6c-1.8-0.6,0-0.1-1.9-0.4
			c-6.8-0.9,0.1-4.3-24.5-1.6c-0.6,0.1,4.1,10.3,5.1,11.5c3.2,4,5.8,7.9,7.8,12.8c5.5,13.3,8.1,27.7,7.7,42.1
			C87.4,142.4,87.3,144.1,87.1,145.8z"/>
		<path class="st5" d="M96.7,86.1c0.7,0.2,1.4,0.4,2.1,0.6c1.8,0.6,3.3,1.5,4.7,2.7c-0.5-1.1-1-2.1-1.4-3.2
			c-0.2-0.6-0.9-1.1-1.3-1.6c-0.4-0.5-0.2-0.9-0.7-1.2c-0.4-0.3-0.8-0.7-1.3-1c-1.1-0.7-2.3-1.2-3.5-1.5c-1.2-0.3-3.4-0.9-4.3,0.3
			c-0.6,0.9-0.2,2.2,0.4,2.9c0.8,1,2,1.3,3.2,1.5C95.4,85.8,96.1,85.9,96.7,86.1z"/>
		<path class="st5" d="M88,84.4c-0.6,0.8-1.5,1.3-2.3,1.8c-1.9,1.1-3.9,2.2-5.7,3.5c-0.9,0.7-1.8,1.4-2.6,2.1
			c-0.3,0.3-0.8,1-1.2,1.1c-0.5,0.1-0.5-0.8-0.4-1.1c0.1-0.5,0.5-1,0.8-1.4c2.2-2.6,5-4.6,8.1-5.9c0.6-0.2,1.2-0.4,1.7-0.8
			c0.6-0.3,1-0.7,1.5-1.2c0.2-0.2,0.9-1.4,1.1-1.4C89.9,81.2,88.3,83.9,88,84.4C88,84.3,88,84.3,88,84.4z"/>
		<path class="st7" d="M93.8,86.9c1.4-1.8-2.3-4.5-3.2-5.7c-0.9-1.2-0.5-1.9-2.3-1.6c-0.9,0.2-1.7,0.8-2.2,1.6
			c-0.9,1.6-0.4,4.2,0.5,5.7C87.7,88.8,92.2,88.7,93.8,86.9z"/>
		<path class="st7" d="M91.4,96.7c18.6,40.1-2.9,82.2-26.4,114.7c-0.8,1.1-1.6,2.2-2,3.6c-0.9,3.3,1.2,6.3,2.4,9.2
			c1.5,3.5,1.9,7.3,2.2,11.1c-0.1-1.2,5.5-4.3,6.5-4.9c2.2-1.3,5-1.8,7.1-3c4.1-2.4,6-8.1,7.9-12.2c2.4-5.3,4.5-10.7,6.3-16.2
			c5.3-16.1,7.6-33,8.6-50c1-16.6,0.4-33.8-5.2-49.7c-1-2.9-4.3-16.4-9.3-15c-1.5,0.4-2.3,2.2-2.2,3.7c0.1,1.5,0.9,2.9,1.7,4.3
			C90,93.8,90.7,95.2,91.4,96.7z"/>
		<path class="st3" d="M88,203.1c3.1,1.8,6.2,3.5,9.4,5.1c13.3,6.6,27.4,11.4,41.7,15.4c7.2,2,14.5,3.9,21.7,5.6
			c2.7,0.7,5.5,0.7,8.2,1.4c3.6,1,7,1.5,10.7,0.8c1-0.2,2.1-0.5,2.7-1.3c0.7-0.8,0.7-2,1.3-3c0.3-0.5,0.7-0.9,1-1.3
			c0.8-1.4,0-3.3-1.3-4.2c-1.3-1-3-1.2-4.5-1.5c-3-0.4-5.5-1.7-8.4-2.6c-3.3-0.9-6.5-2-9.6-3.3c-6.5-2.6-12.8-5.6-19-8.7
			c-17.8-8.8-35.7-17.6-51.3-29.8C78.1,166.2,67,154.2,60,139.8c-3.6-7.3-5.2-15.6-8-23.2c-3.4-9.3-8.2-17.9-13.9-26
			c-1.1-1.6-2.6-3.3-4.5-3.1c-0.8,0.1-1.5,0.5-2.1,0.9c-3.5,2.3-6.1,5.7-7.9,9.5c-2.1,4.6-3.5,9.5-3,14.5c0.4,3.6,1.3,7.1,2.4,10.5
			c2.5,7.8,6.1,15.2,10,22.4c3.9,7.2,8.1,14.6,13.3,21C57.5,180.2,72.6,194,88,203.1z"/>
		<path class="st1" d="M195,219c1.2-1,2.4-2.3,4-2.2c0.9,0.1,1.8,0.7,2.1,1.6s0.1,1.9-0.5,2.5c-1.2,1.2-3.3,1-4.4,2.3
			c-0.2,0.3-0.4,0.6-0.3,1c0.1,0.5,0.8,0.7,1.4,0.8c4,0.7,7.9,1.9,11.7,3.4c0.7,0.3,1.5,0.7,2,1.3c0.3,0.5,0.4,1.1,0.4,1.7
			c-0.1,2.5-1.9,4.8-4.2,5.9c-2.3,1.1-4.9,1.3-7.5,1.1c-4.7-0.3-9.3-1.6-13.4-3.7c-2.4-1.2-4.8-2.8-7.5-3.1c0.1,0-2.1-11.9,3.8-10.7
			C186.9,221.8,191.2,222.2,195,219z"/>
		<path class="st1" d="M113,24.7c-0.5,3.1,0.6,6.2,2.6,8.8c0.7,0.9,1.1,1.7,2.3,2.5c0.6,0.4,1.2,0.9,1.6,1.5c1,1.3,0.2,3.1-1.5,3.4
			c-0.8,0.2-1.6,0.3-2.1,0.8c-0.7,0.7-0.6,1.7-0.5,2.6c0.1,1.3,0.4,2.7,0.3,4c-0.2,2.1,1.2,3.8,1.3,5.9c0,0.3,0,0.6-0.1,0.8
			c-0.1,0.2-0.1,0.3-0.2,0.5c-0.1,0.3-0.1,0.7,0,1c0.1,2,0.3,3.9,0.5,5.9c0.1,1.2-0.8,2.2-2,2.4c-4.6,0.6-9.9-1.1-14,0.9
			c-1.6,0.8-2.8,2-3.9,3.3c-1,1.2-2.1,2.4-2.8,3.7c-0.6,1.3-2.2,3.7-2.2,5.1c-0.3,0.6-0.6,1.3-1.1,1.8c-0.5,0.5-1.3,0.8-2,1
			c-1.8,0.6-3.6,1.3-5.5,1.6c-3.4,0.6-7,0.2-10.1-1.1c-0.7-0.3-1.4-0.6-1.8-1.2c-0.3-0.4-0.4-0.9-0.5-1.4c-0.8-4.1-1.2-8.3-1.6-12.5
			C69,61.5,68.6,57,69,52.6c0.2-2.2,0.5-4.5,0.8-6.7c0.7-6.1,0.7-12.5-2.1-18.1c-0.8-1.5-0.4-2.9-0.6-4.5c-0.3-2.6-0.8-5.4,0.7-7.5
			c1-1.5,2.9-2.3,4.6-3.1c4.1-1.8,8.1-3.7,12.2-5.5c2.9-1.3,5.8-2.6,8.9-3.3c2.9-0.7,5.9-0.9,8.9-1.1c3.3-0.2,7.2-0.2,9.3,2.1
			c1.5,1.7,1.6,4.3,0.7,6.3c-0.9,2.1-3.3,3.7-2.8,5.9C110.3,19.8,113.5,21.4,113,24.7z"/>
		<path class="st6" d="M114.9,65c1.6-0.1,2.3-0.5,2.4-2.3c0.2-2.1,0.2-4.3,0.2-6.5c0-1.6,0-3.2-0.5-4.7c-0.4-1.4-1.3-2.9-0.8-4.2
			c0.2-0.7,0.8-1.3,1.2-1.9c0.4-0.6,0.7-1.5,0.3-2.1c-0.5-1-1.9-0.9-2.9-0.7c-3,0.6-6.4,1.7-9.4,1.5c-2.5-0.2-5.6,1-7.8-0.6
			c-1.1-0.8-1.6-2.1-1.7-3.4c-0.1-1.6,0.5-3.1,0.4-4.7c-0.2-1.5-0.7-2.9-1.1-4.4c-0.3-1.1-0.8-2-0.5-3.1c0.3-1.1,1-2.2,1.8-2.9
			c1.3-1.2,2.9-1.9,4.4-2.7c1.3-0.7,2.7-1.4,4-2.1c1.8-1.1,3.6-2.2,5.1-3.6c1.5-1.4,2.8-3.2,3.4-5.2c0.2-0.6,0.3-1.2,0.3-1.8
			c0-0.6-0.1-1.3-0.1-1.9c-0.1-0.9-0.1-1.8-0.5-2.6c-0.3-0.7-0.8-1.4-1.3-1.9c-1.1-1.2-2.5-2-4.1-2.4c-3.3-0.9-6.8-0.2-10.1,0.5
			c-5,1.1-10.1,2.3-14.9,4.3C78,7.2,74,9.8,69.9,12.7c-1.2,0.9-2.5,1.8-3.3,3.1c-1.4,2.4-0.8,5.4-0.6,8.1c0.3,3.9-0.2,7.9-0.9,11.7
			c-0.3,1.6-0.9,3.3-0.8,5c0.1,1.4,0.2,2.9,0.3,4.4c0.1,1.4-0.3,4.4,0.6,5.7c1.3,1.7,4.8,0.7,6.3-0.1c4.4-2.3,7.2-6.7,9.4-11.1
			c0.3-0.7,0.7-1.4,1.2-2c1.9-2.1,5.6-1.5,7.6,0.4c1.1,1.1,2,2.4,2.1,4c0.1,1.4-0.1,2.7-0.4,4.1c-0.6,2.7-1.6,5.3-1.9,8.1
			c-0.4,2.7-0.1,5.7,1.5,8c1,1.4,2.4,2.5,4.1,3c1.8,0.6,3.6,1.1,5.4,1c4.7,0,9.3-0.8,14-0.9C114.6,65,114.8,65,114.9,65z"/>
		<path class="st4" d="M75.8,92.1c2.5-3.2,6.6-4.7,10.2-6.6c1.1-0.6,2.2-1.2,2.9-2.1c0.8-0.9,0.7-2.7,0.3-3.8
			c-1.9,0.9-5.3,0.1-7.3-0.6c-3.4-1.2-5.1-1.8-7.9-3.9c-1.4-1.1-2.9-2.4-4.7-2.4c-1.2,0-3.7,1-3.6,2.4c0.1,1.3,2.4,3.8,3,4.9
			C71.1,84.1,73.4,88.1,75.8,92.1z"/>
		<path class="st4" d="M90.6,83.3c0.3,0.2,0.6,0.3,0.9,0.4c2.3,0.8,4.7,1.5,7,2.3c2,0.6,4.1,1.5,4.9,3.4c-0.4-2-1.6-3.8-2.7-5.6
			c-0.7-1-1.4-2-2.2-2.9c-1.1-1.1-2.3-1.9-3.1-3.1c-0.8-1.1-1.5-1.9-3-1.8c-0.1,0-1.1,1.7-1.2,1.8c-0.5,0.6-1.3,1-1.8,1.5
			c-0.8,1,0.1,3.2,1.1,3.9C90.5,83.2,90.6,83.3,90.6,83.3z"/>
	</g>
</g>
</svg>
