<?xml version="1.0" encoding="utf-8"?>
<!-- Generator: Adobe Illustrator 23.0.1, SVG Export Plug-In . SVG Version: 6.00 Build 0)  -->
<svg version="1.1" id="Layer_1" xmlns="http://www.w3.org/2000/svg" xmlns:xlink="http://www.w3.org/1999/xlink" x="0px" y="0px"
	 viewBox="0 0 120.7 120.7" style="enable-background:new 0 0 120.7 120.7;" xml:space="preserve">
<style type="text/css">
	.st0{fill:#EEEEEE;}
	.st1{fill:#002248;}
</style>
<path class="st0" d="M120.7,60.3c0,33.3-27,60.4-60.3,60.4c-18.1,0-34.3-7.9-45.3-20.5c-7.1-7.9-12-17.7-14-28.4
	C0.4,68.1,0,64.3,0,60.3C0,27,27,0,60.3,0C79.7,0,97,9.2,108,23.4c6.4,8.3,10.8,18.3,12.2,29.2C120.5,55.1,120.7,57.7,120.7,60.3z"
	/>
<path class="st1" d="M60.1,55.9c-3.3-4.6-10.9-7.1-14.5-1.4c-3.7,5.9,2.4,12.1,6.2,16c1.3,1.3,4.8,3.4,5.5,5.2
	c0.5,1.4-0.3,4.3-0.5,5.8c-0.5,4.7-2.4,13-8.8,12.2c-4.9-0.6-7-8.5-8.5-12.6c-1.6-4.2-2.8-8.5-4.7-12.6c-1.7-3.7-4.2-7.1-5.5-11
	c-2.4-7-2.1-15.6,1.5-22.1c3.1-5.5,9.5-8.5,15.7-8.3c6.2,0.2,11.3,3.5,17.6,2.2c4.7-1,9.4-2.9,14.3-1.9c6.6,1.4,11.8,6.6,13.5,13
	c1.9,7,0.8,15-2.4,21.5c-1.9,3.7-3.8,6.9-5.3,10.8c-1.5,4-3,8-4.6,12c-1.3,3.1-3.2,8.7-7.1,9.1c-7,0.7-7.7-7.7-8.5-12.3
	c-0.3-1.6-1.4-4.5-0.8-6.1c0.7-2.1,4.4-4.4,5.9-6c3.6-3.7,8.3-8.5,5.7-14.1c-1.7-3.6-6.9-5.1-10.5-3.3
	C62.7,52.7,61.5,54.5,60.1,55.9z"/>
</svg>
