<?xml version="1.0" encoding="utf-8"?>
<!-- Generator: Adobe Illustrator 24.2.1, SVG Export Plug-In . SVG Version: 6.00 Build 0)  -->
<!DOCTYPE svg PUBLIC "-//W3C//DTD SVG 1.1//EN" "http://www.w3.org/Graphics/SVG/1.1/DTD/svg11.dtd" [
	<!ENTITY ns_extend "http://ns.adobe.com/Extensibility/1.0/">
	<!ENTITY ns_ai "http://ns.adobe.com/AdobeIllustrator/10.0/">
	<!ENTITY ns_graphs "http://ns.adobe.com/Graphs/1.0/">
	<!ENTITY ns_vars "http://ns.adobe.com/Variables/1.0/">
	<!ENTITY ns_imrep "http://ns.adobe.com/ImageReplacement/1.0/">
	<!ENTITY ns_sfw "http://ns.adobe.com/SaveForWeb/1.0/">
	<!ENTITY ns_custom "http://ns.adobe.com/GenericCustomNamespace/1.0/">
	<!ENTITY ns_adobe_xpath "http://ns.adobe.com/XPath/1.0/">
]>
<svg version="1.1" id="Layer_1" xmlns:x="&ns_extend;" xmlns:i="&ns_ai;" xmlns:graph="&ns_graphs;"
	 xmlns="http://www.w3.org/2000/svg" xmlns:xlink="http://www.w3.org/1999/xlink" x="0px" y="0px" viewBox="0 0 484.3 500"
	 style="enable-background:new 0 0 484.3 500;" xml:space="preserve">
<style type="text/css">
	.st0{fill:none;stroke:#E5E5E5;stroke-miterlimit:10;}
	.st1{fill:none;}
	.st2{fill:#E5E5E5;}
</style>
<metadata>
	<sfw  xmlns="&ns_sfw;">
		<slices></slices>
		<sliceSourceBounds  bottomLeftOrigin="true" height="500" width="484.3" x="3" y="0"></sliceSourceBounds>
	</sfw>
</metadata>
<g>
	<g>
		<path class="st0" d="M33.7,73.5c2.6,0.3,4.6,1.5,6.2,3.6c4.9,6.7,8.2,9,12.3,8.2c3.3-0.5,7.7,0.8,9.8,2.3c0.8,0.5,1,1.5,1,2.3
			c-0.3,2.1-2.3,21.1-8,28c-2.1,2.3-2.1,3.6-2.1,3.9c0.5,0.8,0.8,1.8,0.3,2.8c9.5,6.9,21.3,11,34.2,11c32.6,0,59.1-26.5,59.1-59.1
			c0-1,0-1.8,0-2.8c-2.3-2.1-7.4-3.6-10.3-3.1c-0.3,0-1,0.3-1,0.5c-1,2.8-3.9,4.6-5.9,6.2c-1,0.5-2.3,1.3-2.6,1.8
			c1.8,4.9,1.3,20.3-2.1,29.8c-2.1,5.7-6.7,9.5-12.8,11c-1.5,0.3-3.3,0.5-4.9,0.5c-4.1,0-8-1-10.3-3.3c-3.9-3.9-3.6-12.1-2.8-21.8
			c0-1.8,0.3-3.6,0.3-4.6c-0.8-0.3-2.6-0.5-3.9-0.8c-5.9-1-14.9-2.6-18-11c-2.3-6.4-1-16.7,5.1-22.1c2.3-1.8,8.2-2.8,10-3.1
			c2.8-0.5,7.7,1,13.4,2.6c4.4,1.3,11,3.3,13.4,2.8c1.3-1.5,3.1-7.5,3.1-10c-0.8,0.3-1.8,0.5-2.6,0.8c-2.6,1-5.4,1.8-7.5,0.5
			c-0.8-0.3-1.8-1.3-2.1-2.8c-0.3-1-1.5-2.1-2.6-2.3c-1-0.3-2.3,0-2.8,0.5c-5.1,5.1-10.8,5.4-13.6,4.9c-2.3-0.3-5.4-1.3-6.4-3.3
			c-0.8-1.8-2.1-8.5-0.8-11.8c0.5-1.5,1.5-2.1,2.3-2.3c1-0.3,2.3-0.3,4.6-0.5c1-0.3,3.1-0.3,4.6-0.5c-1.5-1.8-1.8-3.6-1.5-4.9
			c0.3-3.6,3.6-6.7,6.4-8.5c-2.8-0.3-5.7-0.5-8.5-0.5c-16.7,0-31.9,6.9-42.4,17.5c-0.3,0.3-0.3,0.5-0.5,0.8c0,0.3-0.3,0.5-0.5,0.5
			c-9,9.8-14.6,22.9-15.2,37.3C29.8,73.8,31.6,73.3,33.7,73.5z"/>
		<path class="st0" d="M52.4,91.5c-7.7,1.3-12.8-4.1-17.5-10.3c-0.8-1-1.5-1.5-2.6-1.8c-1.5-0.3-3.6,0.5-4.6,1.3
			c1,16.2,8.2,30.6,19.5,40.6c0.5-1.8,1.5-3.6,2.8-5.4c3.6-4.4,5.9-17.2,6.7-23.6C55.5,91.8,53.7,91.3,52.4,91.5z"/>
		<path class="st0" d="M95.6,29.9c2.1,1.5,1.8,3.3,1.5,4.1c-1,2.8-4.6,3.3-10.8,3.9c-1,0-2.1,0.3-2.8,0.3c-0.3,1.5,0.3,5.4,0.8,6.7
			c1.3,0.8,6.7,2.6,11.8-2.6c1.8-2.1,4.9-2.8,8-1.8c2.8,0.8,5.1,3.1,5.9,5.7c0.8,0,2.1-0.5,2.8-0.8c2.8-0.8,5.7-1.8,7.7,0
			c1.5,1.3,1.8,3.3,1.3,6.9c0,0.3-2.1,10.5-5.9,12.1c-3.3,1.3-8.7-0.3-17-2.6c-4.4-1-9.5-2.6-11.3-2.3c-3.1,0.5-6.4,1.5-7.2,2.1
			C76.3,65.1,75,73,76.8,77.9c2.1,5.7,8.7,6.7,14.1,7.7c4.1,0.8,7.7,1.3,8.2,4.6c0,1.3,0,3.3-0.3,6.2c-0.3,4.9-1,15.4,1.3,17.7
			c1.5,1.5,5.7,2.6,10.3,1.5c2.6-0.8,7.2-2.6,9-7.7c3.1-8.7,3.3-23.1,2.1-26.2c-1.5-3.9,2.1-6.4,4.4-8c1.5-1,3.3-2.3,3.9-3.6
			c0.8-1.8,2.6-3.3,4.9-3.9c2.8-0.5,7.2,0.3,10.5,1.8c-3.6-23.1-20.6-41.9-42.4-48c-0.3,0.5-0.8,1-1.3,1.3c-2.8,1.3-6.9,4.4-7.2,6.4
			C94.3,28.1,94.3,28.8,95.6,29.9z"/>
		<path class="st0" d="M86.8,141.6c-35.5,0-64.2-28.8-64.2-64.2c0-15.9,5.9-30.6,15.7-41.9L25.7,23.2C12.3,38.1,5.1,57.4,5.1,77.4
			c0,45,36.7,81.7,81.7,81.7c20.6,0,40.1-7.4,55-21.3l-12.6-12.3C117.9,135.5,103,141.6,86.8,141.6z"/>
	</g>
	<g>
		<rect x="74.9" y="346.6" class="st1" width="32.9" height="153.4"/>
		<circle class="st1" cx="91.4" cy="68.8" r="53.8"/>
		<polygon class="st1" points="81.9,298.9 76.3,331.7 106.4,331.7 100.8,298.9 		"/>
		<path class="st2" d="M427.8,500h25.4h13.6h-0.2h15l2.5-84.5v0c0.3-8.4,0.1-17-0.5-25.5l-7.9-117.5L463,84.3l-0.2-1.5
			c-0.3-3.2-1.7-6.3-3.9-8.6l-68.6-71c-3.8-4-9.9-4.2-14.1-0.6c-4.2,3.6-4.8,9.6-1.4,14L431,89.3c0.2,0.2,0.3,0.5,0.3,0.7L429,124
			l-5.2-39.5l-0.2-1.5c-0.5-3.2-2.1-6.1-4.5-8.3L346.2,8.1c-4.1-3.7-10.1-3.6-14.1,0.2c-3.9,3.9-4.2,9.9-0.5,14.1l60.6,69.2
			c0.2,0.2,0.3,0.5,0.3,0.7l-1.6,300.6c0,8.5,0.3,17,1.1,25.5l7.5,81.6H428H427.8z M442.9,80.2l-4.4-5.7l9.6,9.9l0.1,1l12.7,187.2
			h-12.4h-14.5l4.9-73L446.2,91C446.4,87.1,445.2,83.3,442.9,80.2z M432.9,287.5h2.3h15.1h11.4l0.7,11h-10.8h-15.1h-4.5L432.9,287.5
			z M430.5,322.7l0.6-9.2h7.5h15.1h9.8l0.7,11h-9.1H440h-9.7L430.5,322.7z M429.4,339.4H442h15.1h8.2l0.7,11h-7.5h-15.1h-14.8
			L429.4,339.4z M427.6,365.3h17.8h15.1h6.5l0.7,10.5l0,0.5h-5.9h-15.1h-19.9L427.6,365.3z M418.9,272.6l-0.6,9.3L411,390
			c-0.5,7.3-0.7,14.8-0.6,22.2c0,1.1,0,2.2,0.1,3.3l1.8,59.4l-5.4-57.9c-0.7-7.9-1.1-16-1-24l1.6-300.7c0-3.9-1.4-7.7-4-10.6
			l-4.8-5.4l10.2,9.3l0.2,1l14.8,113.6L418.9,272.6z M425.5,399.4c0-0.6,0-1.1,0.1-1.7c0-0.6,0-1.1,0.1-1.6c0-0.7,0.1-1.4,0.1-2.2
			c0-0.9,0.1-1.8,0.2-2.7h22.9h15.1h4.9c0.1,1.3,0.2,2.6,0.2,4c0,1,0.1,2,0.1,3c0,0.4,0,0.9,0,1.3c0,0.9,0,1.8,0.1,2.8h-4.3h-15
			h-24.5C425.4,401.2,425.4,400.3,425.5,399.4z M425.5,417.1h25.2h15h3.5l-0.3,11H466h-15h-25.2L425.5,417.1z M426.2,443h25.3h15
			h1.9l-0.3,11h-1.2h-15h-25.3L426.2,443z M427,468.9h25.4h15h0.3l-0.1,4.3l-0.2,6.6h-14.5h-25.4L427,468.9z"/>
		<path class="st2" d="M269.3,339c0-0.4,0-0.8-0.1-1.1l-8.1-47.7c-0.6-3.6-3.7-6.2-7.4-6.2h-8.3V137.1c34.4-3.7,61.3-33,61.3-68.4
			c0-37.9-30.9-68.8-68.8-68.8c-16,0-31.7,5.6-44,15.9c-3.2,2.6-3.6,7.4-1,10.5c2.6,3.2,7.4,3.6,10.5,1c9.6-8,21.8-12.4,34.4-12.4
			c29.7,0,53.8,24.1,53.8,53.8s-24.1,53.8-53.8,53.8c-4.1,0-7.5,3.3-7.5,7.5V284h-8.3c-3.6,0-6.8,2.6-7.4,6.2l-8.1,47.7
			c-0.1,0.4-0.1,0.8-0.1,1.1c0,0,0,0.1,0,0.1V500h14.9V346.6h32.9V500h14.9V339.1C269.3,339.1,269.3,339.1,269.3,339z M222.9,331.7
			l5.6-32.7h19l5.6,32.7H222.9z"/>
		<g>
			<path class="st2" d="M159.8,148l-26.7-26.2c11-11.6,18-27.2,18-44.4c0-35.5-28.8-64.2-64.2-64.2c-17.5,0-33.4,7.2-45.2,18.5
				L28.3,18.3c-0.3-0.3-0.3-0.5-0.5-1c-0.3-0.3-0.5-0.5-0.8-0.5L13.9,3.9c-1-1-2.6-1-3.6,0c-1,1-1,2.6,0,3.6l12.1,11.8
				C8,35.5,0,55.8,0,77.4c0,46.8,37.5,85.2,83.9,86.8V284h-8.3c-3.6,0-6.8,2.6-7.4,6.2l-8.1,47.7c-0.1,0.4-0.1,0.8-0.1,1.1
				c0,0,0,0.1,0,0.1V500h14.9V346.6h32.9V500h15V339.1c0,0,0-0.1,0-0.1c0-0.4,0-0.8-0.1-1.2l-8.1-47.7c-0.6-3.6-3.7-6.2-7.4-6.2
				h-8.3V163.5c17.4-2.3,33.8-10,46.8-22.2l10.5,10.3c0.5,0.5,1,0.8,1.8,0.8s1.3-0.3,1.8-0.8C160.8,150.6,160.8,149.1,159.8,148z
				 M101.5,21.4c0.5-0.3,1-0.8,1.3-1.3c21.8,6.2,38.8,24.9,42.4,48c-3.3-1.5-7.7-2.3-10.5-1.8c-2.3,0.5-4.1,2.1-4.9,3.9
				c-0.5,1.3-2.3,2.6-3.8,3.6c-2.3,1.5-5.9,4.1-4.4,8c1.3,3.1,1,17.5-2,26.2c-1.8,5.1-6.4,6.9-9,7.7c-4.6,1-8.7,0-10.3-1.5
				c-2.3-2.3-1.5-12.8-1.3-17.7c0.3-2.8,0.3-4.9,0.3-6.2c-0.5-3.3-4.1-3.8-8.2-4.6c-5.4-1-12.1-2.1-14.1-7.7
				C75,73,76.3,65.1,80.4,61.5c0.8-0.5,4.1-1.5,7.2-2.1c1.8-0.3,6.9,1.3,11.3,2.3c8.2,2.3,13.6,3.9,17,2.6
				c3.9-1.5,5.9-11.8,5.9-12.1c0.5-3.6,0.3-5.6-1.3-6.9c-2.1-1.8-4.9-0.8-7.7,0c-0.8,0.3-2.1,0.8-2.8,0.8c-0.8-2.6-3.1-4.9-5.9-5.6
				c-3.1-1-6.2-0.3-8,1.8c-5.1,5.1-10.5,3.3-11.8,2.6c-0.5-1.3-1-5.1-0.8-6.7c0.8,0,1.8-0.3,2.8-0.3c6.2-0.5,9.8-1,10.8-3.9
				c0.3-0.8,0.5-2.6-1.5-4.1c-1.3-1-1.3-1.8-1.3-2C94.5,25.8,98.7,22.7,101.5,21.4z M43.4,37.1c0.3,0,0.5-0.3,0.5-0.5
				c0.3-0.3,0.3-0.5,0.5-0.8C55,25.3,70.1,18.3,86.8,18.3c2.8,0,5.6,0.3,8.5,0.5c-2.8,1.8-6.2,4.9-6.4,8.5c-0.3,1.3,0,3.1,1.5,4.9
				c-1.5,0.3-3.6,0.3-4.6,0.5c-2.3,0.3-3.6,0.3-4.6,0.5c-0.8,0.3-1.8,0.8-2.3,2.3c-1.3,3.3,0,10,0.8,11.8c1,2,4.1,3.1,6.4,3.3
				c2.8,0.5,8.5,0.3,13.6-4.9c0.5-0.5,1.8-0.8,2.8-0.5c1,0.3,2.3,1.3,2.6,2.3c0.3,1.5,1.3,2.6,2.1,2.8c2,1.3,4.9,0.5,7.5-0.5
				c0.8-0.3,1.8-0.5,2.6-0.8c0,2.6-1.8,8.5-3.1,10c-2.3,0.5-9-1.5-13.4-2.8c-5.7-1.5-10.5-3.1-13.4-2.6c-1.8,0.3-7.7,1.3-10,3.1
				c-6.2,5.4-7.5,15.7-5.1,22.1c3.1,8.5,12.1,10,18,11c1.3,0.3,3.1,0.5,3.9,0.8c0,1-0.3,2.8-0.3,4.6c-0.8,9.8-1,18,2.8,21.8
				c2.3,2.3,6.2,3.3,10.3,3.3c1.5,0,3.3-0.3,4.9-0.5c6.2-1.5,10.8-5.4,12.8-11c3.3-9.5,3.9-24.9,2.1-29.8c0.3-0.5,1.5-1.3,2.6-1.8
				c2.1-1.5,4.9-3.3,5.9-6.2c0-0.3,0.8-0.5,1-0.5c2.8-0.5,8,1,10.3,3.1v2.8c0,32.6-26.5,59.1-59.1,59.1c-12.8,0-24.7-4.1-34.2-11
				c0.5-1,0.3-2.1-0.3-2.8c0-0.3,0-1.5,2.1-3.9c5.7-6.9,7.7-26,8-28c0-0.8-0.3-1.8-1-2.3c-2-1.5-6.4-2.8-9.8-2.3
				c-4.1,0.8-7.5-1.5-12.3-8.2c-1.5-2.1-3.6-3.3-6.2-3.6c-2.1-0.3-3.9,0.3-5.4,0.8C28.8,59.9,34.4,46.8,43.4,37.1z M50.1,115.9
				c-1.3,1.8-2.3,3.6-2.8,5.4c-11.3-10-18.5-24.4-19.5-40.6c1-0.8,3.1-1.5,4.6-1.3c1,0.3,1.8,0.8,2.6,1.8
				c4.6,6.2,9.8,11.6,17.5,10.3c1.3-0.3,3.1,0.3,4.4,0.8C56,98.7,53.7,111.6,50.1,115.9z M100.8,298.9l5.6,32.7H76.3l5.6-32.7H100.8
				z M86.8,159.1c-45,0-81.7-36.7-81.7-81.7c0-20,7.2-39.3,20.5-54.2l12.6,12.3c-9.8,11.3-15.7,25.9-15.7,41.9
				c0,35.4,28.8,64.2,64.2,64.2c16.2,0,31.1-6.2,42.4-16.2l12.6,12.3C126.9,151.6,107.4,159.1,86.8,159.1z"/>
		</g>
	</g>
</g>
</svg>
