<?xml version="1.0" encoding="utf-8"?>
<!-- Generator: Adobe Illustrator 23.0.3, SVG Export Plug-In . SVG Version: 6.00 Build 0)  -->
<!DOCTYPE svg PUBLIC "-//W3C//DTD SVG 1.1//EN" "http://www.w3.org/Graphics/SVG/1.1/DTD/svg11.dtd" [
	<!ENTITY ns_extend "http://ns.adobe.com/Extensibility/1.0/">
	<!ENTITY ns_ai "http://ns.adobe.com/AdobeIllustrator/10.0/">
	<!ENTITY ns_graphs "http://ns.adobe.com/Graphs/1.0/">
	<!ENTITY ns_vars "http://ns.adobe.com/Variables/1.0/">
	<!ENTITY ns_imrep "http://ns.adobe.com/ImageReplacement/1.0/">
	<!ENTITY ns_sfw "http://ns.adobe.com/SaveForWeb/1.0/">
	<!ENTITY ns_custom "http://ns.adobe.com/GenericCustomNamespace/1.0/">
	<!ENTITY ns_adobe_xpath "http://ns.adobe.com/XPath/1.0/">
]>
<svg version="1.1" id="Layer_1" xmlns:x="&ns_extend;" xmlns:i="&ns_ai;" xmlns:graph="&ns_graphs;"
	 xmlns="http://www.w3.org/2000/svg" xmlns:xlink="http://www.w3.org/1999/xlink" x="0px" y="0px" viewBox="0 0 863.2 796.4"
	 style="enable-background:new 0 0 863.2 796.4;" xml:space="preserve">
<style type="text/css">
	.st0{fill:#3AABE1;}
</style>
<metadata>
	<sfw  xmlns="&ns_sfw;">
		<slices></slices>
		<sliceSourceBounds  bottomLeftOrigin="true" height="796.4" width="863.2" x="80.1" y="369.7"></sliceSourceBounds>
	</sfw>
</metadata>
<g>
	<g>
		<g>
			<path class="st0" d="M685.9,358.5c-25.4,25.4-50.8,50.8-76.3,76.3L460.3,584.1c-3.5,3.5-7.5,6.2-11.8,8c-5.4,2.4-11.2,3.5-17,3.4
				c-10.1-0.1-20.3-3.9-27.8-11.5c-25.4-25.4-50.8-50.8-76.3-76.3L178.1,358.5c-14.8-14.8-15.9-42,0-56.6c16-14.7,40.8-15.8,56.6,0
				l157.2,157.2V103.7c0-20.9-0.3-41.9,0-62.8V40c0-20.9,18.4-41,40-40c21.7,1,40,17.6,40,40v419.3c2.7-2.7,5.4-5.4,8.1-8.1
				l121.5-121.5c9.3-9.3,18.5-18.5,27.8-27.8c14.8-14.8,42-15.9,56.6,0C700.6,317.9,701.7,342.7,685.9,358.5z"/>
		</g>
	</g>
	<g>
		<g>
			<path class="st0" d="M783.5,575.4c0,19.7,0,39.5,0,59.2c0,30.6,0,21.2,0,51.8c0,8.4,0.6,17.2-0.5,25.5c0.5-3.5,1-7.1,1.4-10.6
				c-0.7,4.5-1.9,8.8-3.6,13c1.3-3.2,2.7-6.4,4-9.6c-1.8,4.1-4,7.8-6.7,11.4c2.1-2.7,4.2-5.4,6.3-8.1c-2.8,3.5-5.8,6.5-9.3,9.3
				c2.7-2.1,5.4-4.2,8.1-6.3c-3.6,2.7-7.3,4.9-11.4,6.7c3.2-1.3,6.4-2.7,9.6-4c-4.2,1.7-8.5,2.9-13,3.6c3.5-0.5,7.1-1,10.6-1.4
				c-7.8,1-15.9,0.5-23.7,0.5c-16.4,0-32.8,0-49.2,0c-24.4,0-48.9,0-73.3,0c-30,0-59.9,0-89.9,0c-32.9,0-65.8,0-98.6,0
				c-33.4,0-66.7,0-100.1,0c-30.9,0-61.8,0-92.7,0c-26,0-52.1,0-78.1,0c-18.6,0-37.1,0-55.7,0c-8.5,0-17,0-25.5,0
				c-2.6,0-5.1-0.2-7.7-0.5c3.5,0.5,7.1,1,10.6,1.4c-4.5-0.7-8.8-1.9-13-3.6c3.2,1.3,6.4,2.7,9.6,4c-4.1-1.8-7.8-4-11.4-6.7
				c2.7,2.1,5.4,4.2,8.1,6.3c-3.5-2.8-6.5-5.8-9.3-9.3c2.1,2.7,4.2,5.4,6.3,8.1c-2.7-3.6-4.9-7.3-6.7-11.4c1.3,3.2,2.7,6.4,4,9.6
				c-1.7-4.2-2.9-8.5-3.6-13c0.5,3.5,1,7.1,1.4,10.6c-0.9-7-0.5-14.2-0.5-21.2c0-13.4,0-26.8,0-40.2c0-31,0-22.1,0-53.1
				c0-7.3,0-14.7,0-22c0-20.9-18.4-41-40-40c-21.7,1-40,17.6-40,40c0,39.8,0,39.5,0,79.3c0,16.5-0.1,32.9,0,49.4
				c0.1,23.3,8.5,43.9,23.3,61.5C39.8,785.3,66,796,91.4,796.3c16,0.2,32.1,0,48.1,0c39.4,0,78.9,0,118.3,0c51.4,0,102.9,0,154.3,0
				c52.8,0,105.5,0,158.3,0c43.3,0,86.6,0,129.9,0c22.7,0,45.4,0,68.1,0c27.2,0,54.9-10.1,72.4-31.7c14.3-17.7,22.4-37.8,22.4-60.9
				c0-5.9,0-11.8,0-17.7c0-46.6,0-53.1,0-99.7c0-3.6,0-7.3,0-10.9c0-20.9-18.4-41-40-40C801.8,536.3,783.5,552.9,783.5,575.4
				L783.5,575.4z"/>
		</g>
	</g>
</g>
</svg>
