<?xml version="1.0" encoding="utf-8"?>
<!-- Generator: Adobe Illustrator 23.0.3, SVG Export Plug-In . SVG Version: 6.00 Build 0)  -->
<!DOCTYPE svg PUBLIC "-//W3C//DTD SVG 1.1//EN" "http://www.w3.org/Graphics/SVG/1.1/DTD/svg11.dtd" [
	<!ENTITY ns_extend "http://ns.adobe.com/Extensibility/1.0/">
	<!ENTITY ns_ai "http://ns.adobe.com/AdobeIllustrator/10.0/">
	<!ENTITY ns_graphs "http://ns.adobe.com/Graphs/1.0/">
	<!ENTITY ns_vars "http://ns.adobe.com/Variables/1.0/">
	<!ENTITY ns_imrep "http://ns.adobe.com/ImageReplacement/1.0/">
	<!ENTITY ns_sfw "http://ns.adobe.com/SaveForWeb/1.0/">
	<!ENTITY ns_custom "http://ns.adobe.com/GenericCustomNamespace/1.0/">
	<!ENTITY ns_adobe_xpath "http://ns.adobe.com/XPath/1.0/">
]>
<svg version="1.1" id="Isolation_Mode" xmlns:x="&ns_extend;" xmlns:i="&ns_ai;" xmlns:graph="&ns_graphs;"
	 xmlns="http://www.w3.org/2000/svg" xmlns:xlink="http://www.w3.org/1999/xlink" x="0px" y="0px" viewBox="0 0 17.2 17.2"
	 style="enable-background:new 0 0 17.2 17.2;" xml:space="preserve">
<style type="text/css">
	.st0{fill:#E62248;}
	.st1{fill:#FFFFFF;}
</style>
<metadata>
	<sfw  xmlns="&ns_sfw;">
		<slices></slices>
		<sliceSourceBounds  bottomLeftOrigin="true" height="17.2" width="17.2" x="454.7" y="-280.6"></sliceSourceBounds>
	</sfw>
</metadata>
<g>
	<path class="st0" d="M10.9,0c0.2,0,0.3,0.1,0.4,0.3c0.1,0.3,0,0.8,0.2,0.9c0.2,0.2,0.6,0.1,0.9,0.2c0.2,0,0.3,0.2,0.3,0.4
		c0,0.2,0.1,0.5,0.1,0.7c0,0.2,0.1,0.3,0.3,0.3C14.4,3,14.2,3,14.4,4c0,0.2,0.1,0.4,0.3,0.3c0.1,0,0.1,0,0.2,0c1,0.1,0.8,0.1,1,1
		c0,0.3,0.1,0.5,0.5,0.5c0.2,0,0.4,0,0.6,0.1c0.4,0.1,0.4,0.3,0.2,0.6c0,0.1-0.1,0.1-0.2,0.2c-3.5,3.4-6.8,6.8-10.2,10.2
		c-0.1,0.1-0.2,0.2-0.3,0.2c-0.2,0-0.4-0.1-0.4-0.3c0-0.2-0.1-0.4-0.1-0.6c0-0.3-0.1-0.4-0.4-0.4c-1.1-0.2-0.9,0-1.1-1.1
		c0-0.3-0.2-0.4-0.5-0.4c-0.9-0.1-0.9-0.1-1-1.1c0-0.3-0.1-0.4-0.4-0.4c-0.9-0.1-0.9-0.2-1.1-1.1c0-0.2-0.1-0.4-0.4-0.4
		c-0.2,0-0.4-0.1-0.6-0.1c-0.2,0-0.3-0.1-0.4-0.3c-0.1-0.2,0.1-0.3,0.2-0.4c0,0,0.1-0.1,0.1-0.1C3.7,7.1,7.1,3.7,10.5,0.3
		C10.6,0.2,10.7,0,10.9,0z M1.1,10.7c0.4,0.1,0.8,0,0.9,0.6c0.1,0.8,0.1,0.8,0.9,0.9c0.3,0,0.5,0.2,0.5,0.5c0,0.1,0,0.2,0,0.3
		c0.1,0.6,0.1,0.6,0.7,0.7c0.9,0.1,0.8,0,0.9,0.9c0,0.4,0.2,0.5,0.6,0.6c0.9,0.1,0.8,0.1,0.9,0.9c0,0,0,0,0,0c0,0-0.1-0.1-0.1-0.1
		c3.2-3.2,6.4-6.3,9.7-9.5c-0.8-0.1-0.8-0.1-0.9-0.9c0,0,0,0,0-0.1C15.2,5.2,15,5,14.6,5c-0.9-0.1-0.8,0-0.9-0.9
		c-0.1-0.5-0.1-0.5-0.6-0.6c-0.9-0.2-0.7-0.1-0.9-0.9c0-0.3-0.1-0.5-0.5-0.6c-0.8-0.1-0.8-0.1-1-0.9C7.5,4.3,4.3,7.5,1.1,10.7z"/>
	<path class="st0" d="M1.1,10.7c3.2-3.2,6.4-6.4,9.6-9.6c0.2,0.8,0.2,0.8,1,0.9c0.4,0,0.5,0.2,0.5,0.6c0.1,0.8,0,0.8,0.9,0.9
		c0.5,0.1,0.5,0.1,0.6,0.6C13.9,5,13.8,4.9,14.6,5C15,5,15.2,5.2,15.2,5.5c0,0,0,0,0,0.1c0.1,0.8,0.1,0.8,0.9,0.9
		c-3.2,3.2-6.5,6.3-9.7,9.5c0,0,0.1,0.1,0.1,0.1c0,0,0,0,0,0c-0.2-0.8,0-0.8-0.9-0.9c-0.4,0-0.5-0.2-0.6-0.6c-0.1-0.9,0-0.8-0.9-0.9
		c-0.6-0.1-0.6-0.1-0.7-0.7c0-0.1,0-0.2,0-0.3c0-0.3-0.2-0.5-0.5-0.5c-0.8-0.1-0.8-0.1-0.9-0.9C1.9,10.7,1.5,10.8,1.1,10.7z
		 M4.2,10.4c0,0.3,0.1,0.5,0.3,0.7c0.4,0.4,0.8,0.4,1.2,0.2c0.3-0.1,0.7-0.3,1-0.4c0.2-0.1,0.4,0,0.5,0.2c0.1,0.2,0.1,0.3,0,0.5
		c-0.1,0.1-0.2,0.2-0.3,0.3c-0.3,0.2-0.6,0.4-0.9,0.5c-0.2,0.1-0.2,0.3-0.1,0.5c0.1,0.2,0.3,0.2,0.4,0.1C6.6,13,6.8,12.9,7,12.7
		c0.2-0.2,0.4-0.2,0.6,0c0.2,0.2,0.5,0.2,0.6-0.1c0-0.2,0-0.3-0.2-0.4c-0.2-0.1-0.2-0.3-0.1-0.5c0.2-0.5,0.1-0.9-0.3-1.3
		c-0.4-0.4-0.9-0.3-1.3-0.1c-0.3,0.1-0.6,0.3-1,0.4c-0.1,0-0.3,0-0.4-0.1c-0.1-0.1-0.1-0.2,0-0.3C5,10.1,5.2,10,5.3,9.9
		C5.5,9.7,5.7,9.5,6,9.3C6.2,9.2,6.2,9,6.1,8.9C6,8.7,5.8,8.7,5.6,8.8C5.5,8.9,5.3,9,5.2,9.1C5.1,9.2,4.9,9.2,4.8,9
		C4.7,8.9,4.6,8.8,4.4,8.8C4.1,8.9,4,9.2,4.3,9.5C4.5,9.6,4.5,9.7,4.4,10C4.3,10.1,4.2,10.3,4.2,10.4z M7.3,7.9
		c0.1,0,0.2-0.1,0.3-0.2C8.3,7,9,6.3,9.7,5.6C9.9,5.5,10,5.3,9.8,5.1C9.6,4.9,9.4,5,9.2,5.2C8.8,5.6,8.4,6,8,6.4
		C7.7,6.7,7.4,7,7.1,7.3C7,7.4,6.9,7.6,7,7.7C7.1,7.8,7.1,7.9,7.3,7.9z M10.5,7.3c0-0.1-0.1-0.2-0.2-0.3C10.2,7,10,7,9.9,7.1
		c-0.5,0.5-1,1-1.5,1.5C8.3,8.8,8.2,9,8.4,9.1c0.2,0.2,0.4,0.1,0.5-0.1c0.5-0.5,1-1,1.5-1.5C10.4,7.5,10.5,7.4,10.5,7.3z M10.1,2.8
		c0-0.2-0.1-0.3-0.4-0.3c-0.2,0-0.3,0.1-0.3,0.3c0,0.2,0.1,0.3,0.3,0.3C9.9,3.2,10,3,10.1,2.8z M12.5,5.9c0.2,0,0.3-0.1,0.3-0.3
		c0-0.2-0.1-0.3-0.3-0.4c-0.2,0-0.3,0.1-0.3,0.3C12.2,5.8,12.3,5.9,12.5,5.9z M14.3,7.1c-0.2,0-0.3,0.1-0.3,0.4
		c0,0.2,0.1,0.3,0.3,0.3c0.2,0,0.3-0.1,0.3-0.3C14.7,7.3,14.5,7.1,14.3,7.1z M13.4,6.2c-0.2,0-0.3,0.1-0.3,0.3
		c0,0.2,0.1,0.3,0.3,0.3c0.2,0,0.3-0.1,0.3-0.3C13.8,6.4,13.6,6.2,13.4,6.2z M11.9,4.7c0-0.2-0.1-0.3-0.3-0.3
		c-0.2,0-0.3,0.1-0.3,0.3c0,0.2,0.1,0.3,0.3,0.3C11.8,5,11.9,4.9,11.9,4.7z M10.6,4.1C10.8,4.1,11,4,11,3.8c0-0.2-0.1-0.3-0.3-0.3
		c-0.2,0-0.3,0.1-0.3,0.3C10.3,4,10.4,4.1,10.6,4.1z"/>
	<path class="st1" d="M4.2,10.4c0-0.2,0-0.3,0.1-0.5c0.2-0.2,0.1-0.3-0.1-0.5C4,9.2,4.1,8.9,4.4,8.8C4.6,8.8,4.7,8.9,4.8,9
		c0.1,0.2,0.3,0.2,0.4,0C5.3,9,5.5,8.9,5.6,8.8C5.8,8.7,6,8.7,6.1,8.9C6.2,9,6.2,9.2,6,9.3C5.7,9.5,5.5,9.7,5.3,9.9
		C5.2,10,5,10.1,5,10.2c-0.1,0.1-0.1,0.2,0,0.3c0.1,0.1,0.2,0.2,0.4,0.1c0.3-0.1,0.6-0.2,1-0.4c0.5-0.2,0.9-0.2,1.3,0.1
		c0.4,0.3,0.5,0.8,0.3,1.3c-0.1,0.2-0.1,0.4,0.1,0.5c0.1,0.1,0.2,0.2,0.2,0.4c-0.1,0.3-0.4,0.3-0.6,0.1c-0.2-0.2-0.4-0.2-0.6,0
		c-0.2,0.1-0.4,0.2-0.6,0.3C6.2,13.1,6,13.1,6,12.9c-0.1-0.2,0-0.4,0.1-0.5c0.3-0.2,0.6-0.3,0.9-0.5c0.1-0.1,0.2-0.2,0.3-0.3
		c0.1-0.2,0.1-0.4,0-0.5c-0.1-0.2-0.3-0.2-0.5-0.2c-0.3,0.1-0.7,0.3-1,0.4c-0.4,0.1-0.9,0.2-1.2-0.2C4.3,10.9,4.2,10.7,4.2,10.4z"/>
	<path class="st1" d="M7.3,7.9C7.1,7.9,7.1,7.8,7,7.7C6.9,7.6,7,7.4,7.1,7.3C7.4,7,7.7,6.7,8,6.4C8.4,6,8.8,5.6,9.2,5.2
		C9.4,5,9.6,4.9,9.8,5.1C10,5.3,9.9,5.5,9.7,5.6C9,6.3,8.3,7,7.6,7.7C7.5,7.8,7.4,7.9,7.3,7.9z"/>
	<path class="st1" d="M10.5,7.3c0,0.2,0,0.3-0.1,0.3c-0.5,0.5-1,1-1.5,1.5C8.7,9.2,8.6,9.3,8.4,9.1C8.2,9,8.3,8.8,8.4,8.6
		c0.5-0.5,1-1,1.5-1.5C10,7,10.2,7,10.3,7C10.4,7.1,10.5,7.2,10.5,7.3z"/>
	<path class="st1" d="M10.1,2.8C10,3,9.9,3.2,9.7,3.2c-0.2,0-0.3-0.1-0.3-0.3c0-0.2,0.1-0.3,0.3-0.3C9.9,2.5,10,2.6,10.1,2.8z"/>
	<path class="st1" d="M12.5,5.9c-0.2,0-0.3-0.1-0.3-0.4c0-0.2,0.1-0.3,0.3-0.3c0.2,0,0.3,0.1,0.3,0.4C12.8,5.8,12.7,5.9,12.5,5.9z"
		/>
	<path class="st1" d="M14.3,7.1c0.2,0,0.3,0.1,0.3,0.3c0,0.2-0.1,0.3-0.3,0.3c-0.2,0-0.3-0.1-0.3-0.3C14,7.3,14.1,7.2,14.3,7.1z"/>
	<path class="st1" d="M13.4,6.2c0.2,0,0.3,0.2,0.3,0.4c0,0.2-0.1,0.3-0.3,0.3c-0.2,0-0.3-0.1-0.3-0.3C13.1,6.3,13.2,6.2,13.4,6.2z"
		/>
	<path class="st1" d="M11.9,4.7c0,0.2-0.1,0.3-0.3,0.3c-0.2,0-0.3-0.1-0.3-0.3c0-0.2,0.1-0.3,0.3-0.3C11.8,4.4,11.9,4.5,11.9,4.7z"
		/>
	<path class="st1" d="M10.6,4.1c-0.2,0-0.3-0.1-0.3-0.3c0-0.2,0.1-0.3,0.3-0.3c0.2,0,0.3,0.1,0.3,0.3C11,4,10.8,4.1,10.6,4.1z"/>
</g>
</svg>
