<?xml version="1.0" encoding="utf-8"?>
<!-- Generator: Adobe Illustrator 22.1.0, SVG Export Plug-In . SVG Version: 6.00 Build 0)  -->
<svg version="1.1" id="Isolation_Mode" xmlns="http://www.w3.org/2000/svg" xmlns:xlink="http://www.w3.org/1999/xlink" x="0px"
	 y="0px" viewBox="0 0 382.3 494.3" style="enable-background:new 0 0 382.3 494.3;" xml:space="preserve">
<style type="text/css">
	.st0{fill:none;stroke:#000000;stroke-width:2;stroke-linecap:round;stroke-linejoin:round;stroke-miterlimit:10;}
</style>
<g>
	<path d="M0,623.9c33.8,0,67.6,0,101.8,0c0-7.8,0-15.2,0-22.7c0-2.3-0.5-4.6-0.5-6.9c0-54.7,0-109.3-0.1-164c0-3.3-1.2-6.8-2.8-9.7
		C91.6,408,84.3,395.7,77.6,383c-7.5-14.3-11.6-29.6-11.5-46c0-10.5-0.8-21-1.2-31.5c-0.1-1.6-0.3-3.3-0.5-5.5c-5.8,0-11.4,0-17,0
		c-5.8,0-11.7,0.1-17.5,0c-14.5-0.2-25.4-8.8-28.9-22.8c-0.2-0.8-0.6-1.5-0.9-2.3c0-57,0-114,0-171c0.2-0.4,0.6-0.9,0.7-1.3
		c4.5-16.4,14.3-23.9,31.5-24c12.5,0,25,0,37.4,0c1.7,0,3.5-0.2,5.5-0.2c0-8.6-0.2-16.6,0-24.5c0.5-17.1,14.9-30.3,31.6-28.8
		c11.6,1.1,19.6,7.4,25,18.4c5.2-10.7,13.2-17.2,24.7-18.4c11.7-1.2,20.6,4.2,28.4,14.3c0-4.9-0.1-8.2,0-11.4
		c0.6-11.7,6.4-20,16.8-25.2c2.3-1.2,4.9-1.9,7.4-2.8c3.3,0,6.7,0,10,0c1.7,0.6,3.4,1.3,5,1.9c11.3,4.2,18.7,14.7,19,26.9
		c0.1,3.1,0,6.2,0,10.6c1.4-1.7,2.1-2.5,2.8-3.3c8.2-9.9,20.6-13.5,32.3-9.4s19.4,14.7,19.7,27.4c0.2,8,0,15.9,0,24.6
		c2.2,0,4,0,5.8,0c15.8,0,31.6,0,47.5,0c19.2,0.1,31.1,12,31.1,31.2c0,53,0,105.9,0,158.9c0,19.2-11.9,31.2-31.1,31.2
		c-5.8,0-11.6,0-17.9,0c-0.1,1.9-0.3,3.5-0.3,5.1c-0.2,13.2-0.3,26.3-0.7,39.5c-0.1,3.1-0.8,6.3-1.9,9.2c-9,23-22.1,43.2-40.8,59.6
		c-2.5,2.2-4.9,4.5-7.3,6.8c0,67.9,0,135.5,0,203.7c103.2,0,207,0,310.2,0c0,0.8,0,2.2,0,3.5c-104.3,0-209.2,0.1-313.5,0.1
		c0-69.3,0-139.1,0-209.1c2.4-2.3,5.1-5,8-7.5c18.6-16.3,31.5-36.4,40.3-59.3c0.9-2.3,1.5-4.8,1.5-7.2c0.1-27.2,0.2-54.3-0.1-81.5
		c-0.1-5.7-1-11.7-2.6-17.2c-3.1-10.7-10.7-16.9-21.7-18.9c-19.1-3.4-30.6,2.6-38.5,20.3c-6.8,15.2-8.7,31.3-9.7,47.7
		c-0.1,1.5,0,3,0,5.2c-62.6,0-124.9,0-187,0c0,7.8,0,14.9,0,21.9c-0.2,23.4,2.9,46.1,15.2,66.8c2.8,4.7,5.2,9.7,7.9,14.4
		c2.1,3.8,4,7.7,6.7,11.1c5.3,6.7,6.2,14,6.2,22.3c-0.2,63.5-0.1,127.4-0.1,190.9c-35,0-70,0-105,0C0,626.4,0,624.9,0,623.9z
		 M378.7,153.3c-125.4,0-250,0-374.7,0c-0.1,1.1-0.2,1.9-0.2,2.8c0,38.3,0,76.7,0,115c0,2,0.2,4,0.7,5.9
		c3.1,12.2,12.9,19.6,26.7,19.6c22.2,0,44.3-0.3,66.5-0.3c49.5-0.1,99,0,148.5,0c1.9,0,3.9,0,6.2,0c0.2-2.9,0.3-5.2,0.5-7.5
		c1.1-14.2,3.3-28.1,8.8-41.3c8.4-19.8,19.3-26.5,40.5-24.5c12.9,1.2,22.3,7.8,26.6,20.2c1.9,5.6,2.9,11.7,3.1,17.6
		c0.5,11.8,0.1,23.6,0.1,36c6.7,0,12.3,0,18,0c18.1-0.1,28.5-10.6,28.5-28.6c0-36.5,0-73,0-109.5
		C378.7,156.8,378.7,155.2,378.7,153.3z M378.7,117.9c0-2.6,0-4.7,0-6.8c0-18.3-10.5-28.9-28.8-28.9C244,82.1,138,82.3,32.1,82
		C14.2,82-0.1,95.5,4.7,117.9C129.1,117.9,253.5,117.9,378.7,117.9z M239.4,78.4c0-10.8,0.1-21.1,0-31.4c-0.1-8,0.5-16.1-0.9-23.9
		c-2.3-12.6-14.6-20.5-27.7-19.2c-12.5,1.2-22.3,12.2-22.4,25.8c-0.2,15.3,0.2,30.6,0.3,46c0,0.8,0.3,1.6,0.5,2.7
		C205.6,78.4,222,78.4,239.4,78.4z M129.7,78.4c0-9.4,0.7-18.6-0.2-27.7c-1.3-12.3-11.7-21.3-23.6-21.9c-12.6-0.6-24.1,7-26,19.4
		c-1.5,9.8-0.3,20-0.3,30.2C96.3,78.4,112.9,78.4,129.7,78.4z M294,78.4c0-8.7,0.2-17.2-0.1-25.6c-0.4-11.9-10.1-22.4-21.7-23.8
		c-12.9-1.5-25.7,6-27.9,18.2c-1.8,10.1-1.3,20.7-1.8,31.3C260.4,78.4,276.9,78.4,294,78.4z M184.3,78.4c0-9,0.3-17.8-0.1-26.5
		c-0.6-12.2-10.8-22.2-22.9-23c-13-0.9-25.2,7.3-26.8,19.6c-1.3,9.7-0.3,19.8-0.3,29.9C150.9,78.4,167.3,78.4,184.3,78.4z"/>
	<path d="M84.6,201.2c23.3-10,42.9-6.1,55.9,10.9c11.8,15.5,11.4,37.1-0.9,52.3c-13.1,16.1-33.3,19.7-54.6,9.8
		c-21.2,11.3-43.6,5.6-56.3-11.5c-11.5-15.5-10.8-36.9,1.4-51.9C41,197.3,62.1,189.2,84.6,201.2z M84.6,205.5
		c-21.3-12.9-41.4-4.7-51.3,7c-11.9,14-12.4,33.8-1.4,48.4c12.1,16.1,30.5,19.2,52.8,8.9c22.4,10.3,40.5,7.2,52.8-8.9
		c10.7-14,10.3-34.1-0.8-47.7C124.1,197.9,105.6,195.1,84.6,205.5z"/>
	<path class="st0" d="M4,149.5c-0.7,2-1.9,4-1.9,6C2,194,2,232.5,2,271c0,14.2,11.5,27.6,29,27.5c43.5-0.3,87-0.4,130.5-0.5
		c29.2-0.1,58.3,0,87.5,0c1.7,0,3.3,0,4.4,0c1.7-11.6,3-22.9,5.2-34c2.4-12.1,6.6-23.6,15.9-32.5c4.9-4.8,10.8-7.2,17.5-6.9
		c5.9,0.3,11.8,0.6,17.5,2c13.5,3.4,18.4,14.1,20.4,26.4c1,6.4,1,13,1.1,19.5c0.1,19-0.8,38,0.3,57c1,17.1-4.8,31.9-12.9,45.9
		c-7.1,12.4-15.8,23.8-26.4,33.6c-2.6,2.4-5.2,4.8-8,7c-3.2,2.4-3.5,5.4-3.5,9c0.1,65,0,130,0.1,195c0,2.2,0.4,4.3,0.6,6.5
		c103.7,0,207.1,0,310.4,0"/>
	<path class="st0" d="M66,299c0.5,8.5,1.1,17,1.5,25.5c0.4,8.7,0.3,17.4,1.1,26c1,10.4,4.8,20.2,9.5,29.4
		c7.2,13.9,15.3,27.4,22.8,41.1c1.2,2.2,2,5,2,7.5C103,479.7,103,530.8,103,582c0,12.8,0.3,25.7,0.4,38.5c0,2-0.4,4-0.6,6
		c-32.2,0-64.1,0-95.9,0c-1.7,0-3.3-0.2-5-0.2"/>
	<path class="st0" d="M379,150.5c0.5,2,1.4,4,1.4,6c0.1,37.5-0.2,75,0.2,112.5c0.1,15.9-10.9,29.6-29.6,29.5c-6.3,0-12.7,0-19,0"/>
	<path class="st0" d="M84.5,203c-8.4-3.8-16.9-6.8-26.5-5.6c-18.7,2.4-33.4,16.7-35.4,35.6c-1.8,16.6,4.6,30,18.5,38.8
		s28.6,8.4,43.3,0c7.4,3.9,15.3,6.4,24.1,6.2c20.4-0.4,37.8-18.6,38.7-38.5c0.9-20.5-15-41.5-39.7-42.5c-8.1-0.3-15.4,2.6-22.5,6"/>
	<path class="st0" d="M4,121.5c-4.3-7.2-2-23.6,4-30.5c6.4-7.4,14.2-10.6,24-10.6c31.3,0.2,62.7,0.1,94,0.1c18,0,36,0.1,54,0
		c20.2-0.1,40.3-0.3,60.5-0.5c2.3,0,4.7,0.5,7,0.5c34.8,0,69.7,0.2,104.5,0c16.1-0.1,29,12.4,28.4,28.6c-0.1,3.8-0.9,7.7-1.4,11.5"
		/>
	<path class="st0" d="M242.5,42c-0.5-3.8-1.4-7.7-1.4-11.5c0.1-8.6-2.6-15.7-9.1-21.5c-8.7-7.8-18.5-8.7-29-4.9
		c-8.9,3.2-16.2,14.3-16.6,23.9c-0.2,4.7-0.9,9.3-1.4,14"/>
	<path class="st0" d="M131.5,46c-3.9-4.6-5.7-10.7-11.4-14.1c-8.6-5.2-17.1-6.6-26.6-2.5c-10.7,4.7-15.7,13-16.4,24.1
		c-0.5,8.6-0.1,17.3-0.1,26"/>
	<path class="st0" d="M296,79.5c0-8.2,0.1-16.3,0-24.5c-0.2-13.9-7.9-23.1-19.5-27c-8.4-2.8-21.7-0.7-30.2,10.2
		C242,43.7,241,48.9,241,55c0,8.2,0,16.3,0,24.5"/>
	<path class="st0" d="M186.5,79c-0.2-10-0.3-20-0.5-30c-0.1-7.2-8.2-16.9-16.5-20c-14-5.2-27-0.3-35,13c-1.9,3.1-2.9,6-2.7,10
		c0.6,9.1,0.2,18.3,0.2,27.5"/>
</g>
</svg>
