<?xml version="1.0" encoding="utf-8"?>
<!-- Generator: Adobe Illustrator 23.0.1, SVG Export Plug-In . SVG Version: 6.00 Build 0)  -->
<svg version="1.1" id="Layer_1" xmlns="http://www.w3.org/2000/svg" xmlns:xlink="http://www.w3.org/1999/xlink" x="0px" y="0px"
	 viewBox="0 0 120.7 120.7" style="enable-background:new 0 0 120.7 120.7;" xml:space="preserve">
<style type="text/css">
	.st0{fill:#EEEEEE;}
	.st1{fill:#002248;}
</style>
<path class="st0" d="M120.7,60.3c0,33.3-27,60.4-60.3,60.4c-18.1,0-34.3-7.9-45.3-20.5c-7.1-7.9-12-17.7-14-28.4
	C0.4,68.1,0,64.3,0,60.3C0,27,27,0,60.3,0C79.7,0,97,9.2,108,23.4c6.4,8.3,10.8,18.3,12.2,29.2C120.5,55.1,120.7,57.7,120.7,60.3z"
	/>
<path class="st1" d="M52.8,26.3c-16.5,0-29.8,1.9-29.8,4.3v13.1c0,2.4,13.3,4.3,29.8,4.3c16.5,0,29.8-1.9,29.8-4.3V30.5
	C82.6,28.2,69.3,26.3,52.8,26.3z"/>
<g>
	<path class="st1" d="M52.8,53.8c4.3,0,8.4-0.1,12-0.4c-1.1,0.9-1.9,2-2.4,3.2c-1.1,2.3-1.3,4.8-1.2,7.3c0,0.9,0.1,1.8,0.2,2.8
		c-2.7,0.1-5.6,0.2-8.6,0.2C36.3,66.9,23,65,23,62.6V49.5C23,51.9,36.3,53.8,52.8,53.8z"/>
	<path class="st1" d="M82.6,49.5V54c-0.4-0.1-0.7-0.3-1.1-0.5c-1.4-0.6-2.9-1.1-4.4-1.5C80.6,51.3,82.6,50.5,82.6,49.5z"/>
</g>
<g>
	<path class="st1" d="M66.2,80c-0.1,1.8-0.1,3.6,0.1,5.4c-4.1,0.3-8.7,0.5-13.5,0.5C36.3,85.9,23,84,23,81.6V68.6
		c0,2.4,13.4,4.3,29.8,4.3c3.6,0,7-0.1,10.2-0.3c0.8,1.8,1.8,3.5,3.4,5.1c0.2,0.1,0.2,0.3,0.1,0.5C66.3,78.7,66.3,79.4,66.2,80z"/>
</g>
<path class="st1" d="M102.5,62.1c-0.2-1.4-0.5-2.8-1.3-4.1c-1-1.8-2.7-2.9-5.3-3.3c-1.3-0.2-2.6-0.1-3.8,0c-3,0.2-5.7,1.2-8.3,2.3
	c0,0-0.1,0-0.1,0c-0.5-0.2-1-0.4-1.5-0.6c-2.6-1-5.2-1.8-8.1-1.8c-1.7,0-3.3,0.2-4.7,0.9c-1.8,0.9-2.8,2.1-3.5,3.6
	c-0.9,2-1.1,4.1-1,6.2c0.1,2,0.4,4,1,6c0.7,2.1,1.7,4,3.4,5.7c0.1,0.1,0.1,0.3,0.1,0.4c-0.2,0.5-0.2,1.1-0.3,1.6
	c-0.1,1.9,0,3.8,0.2,5.6c0.1,1,0.3,2,0.5,3c0.2,1.1,0.5,2.1,0.8,3.1c0.4,1.6,1,3.2,1.8,4.7c0.5,1,1.1,1.9,2,2.7
	c0.6,0.5,1.4,0.7,2.3,0.5c0.8-0.2,1.1-0.7,1.2-1.3c0.1-0.5,0.1-0.9,0.2-1.4c0-1.6,0-3.2,0.1-4.8c0-0.5,0.1-1,0.2-1.4
	c0.5-2.6,1.5-5,3-7.3c0.5-0.8,1.3-1.2,2.4-1.2c0.2,0,0.3,0,0.5,0c1,0.2,1.7,0.7,2.1,1.4c0.4,0.6,0.7,1.3,1.1,1.9
	c0.8,1.5,1.3,3,1.6,4.5c0.2,0.7,0.3,1.4,0.3,2.1c0.1,0.6,0.1,1.3,0.1,1.9c0,1.4-0.1,2.7,0.1,4.1c0.1,0.4,0.3,0.8,0.6,1.1
	c0.4,0.4,1.8,0.5,2.5,0.2c0.7-0.3,1.1-0.8,1.6-1.3c0.9-1.1,1.5-2.4,2-3.6c0.7-1.9,1.2-3.9,1.6-5.9c0.1-0.3,0.1-0.6,0.1-0.9
	c0.5-2.9,0.7-5.9,0.3-8.9c-0.1-0.5,0-1,0.5-1.3c0.1-0.1,0.1-0.1,0.2-0.2c1.5-1.7,2.4-3.6,3-5.6C102.7,67.9,102.9,65,102.5,62.1z"/>
</svg>
