<?xml version="1.0" encoding="utf-8"?>
<!-- Generator: Adobe Illustrator 24.1.2, SVG Export Plug-In . SVG Version: 6.00 Build 0)  -->
<!DOCTYPE svg PUBLIC "-//W3C//DTD SVG 1.1//EN" "http://www.w3.org/Graphics/SVG/1.1/DTD/svg11.dtd" [
	<!ENTITY ns_extend "http://ns.adobe.com/Extensibility/1.0/">
	<!ENTITY ns_ai "http://ns.adobe.com/AdobeIllustrator/10.0/">
	<!ENTITY ns_graphs "http://ns.adobe.com/Graphs/1.0/">
	<!ENTITY ns_vars "http://ns.adobe.com/Variables/1.0/">
	<!ENTITY ns_imrep "http://ns.adobe.com/ImageReplacement/1.0/">
	<!ENTITY ns_sfw "http://ns.adobe.com/SaveForWeb/1.0/">
	<!ENTITY ns_custom "http://ns.adobe.com/GenericCustomNamespace/1.0/">
	<!ENTITY ns_adobe_xpath "http://ns.adobe.com/XPath/1.0/">
]>
<svg version="1.1" id="Layer_1" xmlns:x="&ns_extend;" xmlns:i="&ns_ai;" xmlns:graph="&ns_graphs;"
	 xmlns="http://www.w3.org/2000/svg" xmlns:xlink="http://www.w3.org/1999/xlink" x="0px" y="0px" viewBox="0 0 93.2 93.2"
	 style="enable-background:new 0 0 93.2 93.2;" xml:space="preserve">
<style type="text/css">
	.st0{fill:#FFFFFF;}
	.st1{fill:#9BA7BD;}
</style>
<metadata>
	<sfw  xmlns="&ns_sfw;">
		<slices></slices>
		<sliceSourceBounds  bottomLeftOrigin="true" height="93.2" width="93.2" x="-110.3" y="15.9"></sliceSourceBounds>
	</sfw>
</metadata>
<circle class="st0" cx="46.6" cy="46.6" r="46.6"/>
<path class="st1" d="M46.6,2.1C22,2.1,2.1,22,2.1,46.6S22,91.1,46.6,91.1s44.5-19.9,44.5-44.5S71.2,2.1,46.6,2.1z M65.3,64.8
	c0,1-0.8,1.8-1.7,1.8H51.7c-5.2,0-2.5,0-5.1,0s-1.7,0-5.1,0H29.7c-1,0-1.8-0.8-1.8-1.8V46.5c0-0.6,0.3-1.1,0.8-1.5l16.9-11.4
	c0.6-0.4,1.4-0.4,2,0l16.9,11.4c0.5,0.3,0.8,0.9,0.8,1.5V64.8z M72.3,41.7c0,0.1-0.1,0.1-0.1,0.2l-2,2.3c-0.6,0.7-1.6,0.8-2.3,0.3
	L47.6,30.9c-0.6-0.4-1.4-0.4-2,0L25.4,44.5c-0.7,0.5-1.7,0.4-2.3-0.3l-2-2.3c-0.6-0.7-0.6-1.8,0.2-2.5c0,0,0.1-0.1,0.2-0.1L45.6,23
	c0.6-0.4,1.4-0.4,2,0l24.2,16.3C72.7,39.8,72.9,40.9,72.3,41.7z"/>
<path class="st1" d="M51.8,58.4v14.3c0,0.3,0-2.1-0.1-1.8l-10.2,0.3c-0.1-0.3-0.1-4.9-0.1-5.2v-7.6c0-2.8,2.3-5.2,5.2-5.2
	c1.4,0,2.7,0.6,3.7,1.5S51.8,57,51.8,58.4z"/>
</svg>
