<?xml version="1.0" encoding="utf-8"?>
<!-- Generator: Adobe Illustrator 22.1.0, SVG Export Plug-In . SVG Version: 6.00 Build 0)  -->
<svg version="1.1"
	 id="Layer_1" xmlns:cc="http://creativecommons.org/ns#" xmlns:dc="http://purl.org/dc/elements/1.1/" xmlns:inkscape="http://www.inkscape.org/namespaces/inkscape" xmlns:rdf="http://www.w3.org/1999/02/22-rdf-syntax-ns#" xmlns:sodipodi="http://sodipodi.sourceforge.net/DTD/sodipodi-0.dtd" xmlns:svg="http://www.w3.org/2000/svg"
	 xmlns="http://www.w3.org/2000/svg" xmlns:xlink="http://www.w3.org/1999/xlink" x="0px" y="0px" viewBox="0 0 88 88"
	 style="enable-background:new 0 0 88 88;" xml:space="preserve">
<g transform="translate(0,-952.36218)">
	<path d="M23,952.4c-12.7,0-23,10.3-23,23v42c0,12.7,10.3,23,23,23h42c12.7,0,23-10.3,23-23v-42c0-12.7-10.3-23-23-23H23z M28,960.4
		h32c11,0,20,9,20,20v32c0,11-9,20-20,20H28c-11,0-20-9-20-20v-32C8,969.3,17,960.4,28,960.4z M28,964.4c-8.9,0-16,7.1-16,16v32
		c0,8.9,7.1,16,16,16h32c8.9,0,16-7.1,16-16v-32c0-8.9-7.1-16-16-16H28z M64,970.4c2.2,0,4,1.8,4,4c0,2.2-1.8,4-4,4
		c-2.2,0-4-1.8-4-4C60,972.2,61.8,970.4,64,970.4z M44,979.4c9.4,0,17,7.6,17,17s-7.6,17-17,17s-17-7.6-17-17S34.6,979.4,44,979.4z
		 M44,983.4c-7.2,0-13,5.8-13,13s5.8,13,13,13s13-5.8,13-13S51.2,983.4,44,983.4z"/>
</g>
</svg>
