<?xml version="1.0" encoding="utf-8"?>
<!-- Generator: Adobe Illustrator 23.0.3, SVG Export Plug-In . SVG Version: 6.00 Build 0)  -->
<!DOCTYPE svg PUBLIC "-//W3C//DTD SVG 1.1//EN" "http://www.w3.org/Graphics/SVG/1.1/DTD/svg11.dtd" [
	<!ENTITY ns_extend "http://ns.adobe.com/Extensibility/1.0/">
	<!ENTITY ns_ai "http://ns.adobe.com/AdobeIllustrator/10.0/">
	<!ENTITY ns_graphs "http://ns.adobe.com/Graphs/1.0/">
	<!ENTITY ns_vars "http://ns.adobe.com/Variables/1.0/">
	<!ENTITY ns_imrep "http://ns.adobe.com/ImageReplacement/1.0/">
	<!ENTITY ns_sfw "http://ns.adobe.com/SaveForWeb/1.0/">
	<!ENTITY ns_custom "http://ns.adobe.com/GenericCustomNamespace/1.0/">
	<!ENTITY ns_adobe_xpath "http://ns.adobe.com/XPath/1.0/">
]>
<svg version="1.1" id="Layer_1" xmlns:x="&ns_extend;" xmlns:i="&ns_ai;" xmlns:graph="&ns_graphs;"
	 xmlns="http://www.w3.org/2000/svg" xmlns:xlink="http://www.w3.org/1999/xlink" x="0px" y="0px" viewBox="0 0 78.7 78.7"
	 style="enable-background:new 0 0 78.7 78.7;" xml:space="preserve">
<style type="text/css">
	.st0{fill:#3AABE1;}
</style>
<metadata>
	<sfw  xmlns="&ns_sfw;">
		<slices></slices>
		<sliceSourceBounds  bottomLeftOrigin="true" height="78.7" width="78.7" x="-30.9" y="-26.6"></sliceSourceBounds>
	</sfw>
</metadata>
<g>
	<path class="st0" d="M55.6,0c-0.8,0-1.4,0.6-1.4,1.4v5.2c0.5,0,0.9-0.1,1.4-0.1c0.5,0,0.9,0,1.4,0.1V1.4C57,0.6,56.4,0,55.6,0z
		 M40.2,6.3c-1.3,0-1.9,1.5-1,2.4l3.7,3.7c0.6-0.7,1.3-1.4,2-2l-3.7-3.7C41,6.5,40.6,6.3,40.2,6.3z M70.9,6.3c-0.4,0-0.7,0.2-1,0.4
		l-3.7,3.7c0.7,0.6,1.4,1.3,2,2l3.7-3.7C72.9,7.8,72.2,6.3,70.9,6.3z M55.6,9.3C48.1,9.3,42,15.4,42,22.8c0,7,5.4,12.8,12.2,13.5
		c0,0,0,0.1,0,0.1v15.2c-0.7-0.7-1.5-1.4-2.5-2.1c0.3-1.1,0.4-2.2-0.1-3.3c-0.7-1.5-2.1-2.8-4.3-3.9c-2.2-1.1-4.9-1.6-7.3-1.6
		c-1.2,0-2.2,0-3.1,0.2c-0.9,0.2-1.7,0.3-2.4,1.3c-0.7,1-0.4,1.9-0.1,2.7c0.3,0.8,0.8,1.7,1.4,2.5c1.3,1.7,3.1,3.5,5.4,4.6
		c2.2,1.1,4.1,1.5,5.9,1.2c1.2-0.2,2.3-0.7,3.1-1.5c0.9,0.6,1.7,1.3,2.4,2c0.8,0.8,1.3,1.4,1.6,1.8v4.8c-0.1,0-0.2,0-0.3,0
		c-4.3-0.5-8.1-0.2-9.7-0.1l-8.7-8c-0.2-0.2-0.5-0.3-0.9-0.4l-20.5-2.7v-1.5c0-0.8-0.6-1.4-1.4-1.4H3.1c-0.7,0-1.3,0.6-1.4,1.3
		L0,67.3c-0.1,0.8,0.6,1.5,1.4,1.5h11.2c0.8,0,1.4-0.6,1.4-1.4V66l10.7,1.4l10.6,10.8c0.3,0.3,0.6,0.4,1,0.4h32.9
		c2.9,0,5.5-2.1,5.5-4.9c0-2.7-2.3-4.8-5.2-5c-3-4.6-7.9-6.8-12.6-7.8V50.1c0.3-0.3,0.8-1,1.6-1.8c0.7-0.7,1.5-1.4,2.4-2
		c0.8,0.7,1.9,1.3,3.1,1.5c1.7,0.3,3.7-0.1,5.9-1.2c2.2-1.1,4.1-2.9,5.4-4.6c0.6-0.9,1.1-1.7,1.4-2.5c0.3-0.8,0.5-1.7-0.1-2.7
		c-0.7-1-1.5-1.1-2.4-1.3c-0.9-0.2-2-0.3-3.1-0.2c-2.3,0.1-5,0.5-7.3,1.6c-2.2,1.1-3.6,2.4-4.3,3.9c-0.5,1.1-0.5,2.3-0.1,3.3
		c-0.9,0.6-1.7,1.4-2.5,2.1v-9.5c0,0,0-0.1,0-0.1c6.8-0.7,12.2-6.5,12.2-13.5C69.2,15.4,63.1,9.3,55.6,9.3z M55.6,12.1
		c6,0,10.8,4.8,10.8,10.7s-4.8,10.7-10.8,10.7s-10.8-4.8-10.8-10.7S49.6,12.1,55.6,12.1z M54.1,14.9v1.6c-0.8,0.2-1.5,0.4-2.1,0.8
		c-1,0.6-1.8,1.7-1.8,3c0,1.3,1,2.3,1.9,2.9c1,0.5,2,0.8,3.1,1.1c1,0.2,1.9,0.5,2.4,0.8c0.3,0.1,0.4,0.3,0.4,0.3c0,0.1,0,0,0,0.1
		c0,0.2-0.1,0.4-0.6,0.7c-0.4,0.3-1.2,0.5-2,0.5c-0.8,0-1.6-0.2-2-0.5c-0.4-0.3-0.5-0.5-0.5-0.6h-2.8c0,1.3,0.8,2.3,1.8,3
		c0.6,0.4,1.4,0.7,2.2,0.8v1.6H57v-1.6c0.8-0.2,1.5-0.4,2.2-0.8c1-0.6,1.8-1.7,1.8-2.9c0-0.7-0.2-1.4-0.6-1.8
		c-0.4-0.5-0.8-0.8-1.3-1.1c-1-0.5-2-0.8-3.1-1.1c-1-0.2-1.9-0.5-2.4-0.8C53,20.4,53,20.4,53,20.3c0-0.1,0.1-0.4,0.5-0.7
		c0.4-0.3,1.2-0.5,2-0.5c0.8,0,1.6,0.2,2,0.5c0.4,0.3,0.5,0.5,0.5,0.7H61c0-1.3-0.8-2.4-1.8-3c-0.6-0.4-1.4-0.7-2.2-0.8v-1.6H54.1z
		 M33.8,21.6c-1.8,0.1-1.7,2.9,0.1,2.8h5.4c-0.1-0.5-0.1-1-0.1-1.6c0-0.4,0-0.8,0.1-1.2h-5.3C33.9,21.6,33.8,21.6,33.8,21.6z
		 M71.9,21.6c0,0.4,0.1,0.8,0.1,1.2c0,0.5,0,1.1-0.1,1.6h5.4c1.8,0,1.8-2.8,0-2.8H71.9z M43.1,33.4l-3.9,3.9c-1.4,1.3,0.7,3.4,2,2
		l3.9-3.9C44.4,34.8,43.8,34.1,43.1,33.4z M71.2,37.9c1,0,1.9,0.1,2.5,0.2c0.2,0,0.3,0.1,0.4,0.1c0,0.1,0,0.1,0,0.2
		c-0.2,0.5-0.5,1.1-1,1.8c-1,1.4-2.6,2.9-4.3,3.8c-1.8,0.9-3.2,1.1-4.2,0.9c-1-0.1-1.7-0.6-2.2-1.3c-0.5-0.7-0.6-1.2-0.2-1.9
		c0.3-0.7,1.2-1.6,2.9-2.5C66.8,38.4,69.2,37.9,71.2,37.9z M40,43.5c2,0,4.4,0.5,6.1,1.3c1.8,0.9,2.6,1.8,2.9,2.5
		c0.3,0.7,0.2,1.2-0.2,1.9c-0.5,0.7-1.1,1.2-2.1,1.3c-1,0.1-2.4-0.1-4.2-0.9c-1.7-0.8-3.3-2.4-4.3-3.8c-0.5-0.7-0.9-1.4-1-1.8
		c0-0.1,0-0.1,0-0.2c0.1-0.1,0.3-0.1,0.4-0.1C38.1,43.5,39,43.5,40,43.5z M4.4,49.2h6.9c0,5.6,0,11.2,0,16.9H2.9L4.4,49.2z
		 M14.1,52.1l19.8,2.6l15.9,14.6c0.1,0.1,0.1,0.2,0.2,0.3c0.7,0.7,0.7,1.3,0,1.9c-0.7,0.6-2.2,0.6-2.8,0c0,0,0,0,0,0
		c-3.9-3.6-10-9.5-10-9.5c-0.3-0.3-0.6-0.4-1-0.4c-1.3,0-1.9,1.6-0.9,2.4c0,0,6.1,5.9,10.1,9.5c1.8,1.7,4.6,1.7,6.5,0.1
		c0.7-0.6,1.1-1.3,1.3-2.1h16.1c1.6,0,2.7,1.1,2.7,2.2c0,1.1-1.1,2.1-2.7,2.1H36.9L26.3,65c-0.3-0.3-0.6-0.4-1-0.4l-11.3-1.4V52.1z
		 M6.9,61.7c-0.8,0-1.4,0.6-1.4,1.4c0,0.8,0.6,1.4,1.4,1.4s1.4-0.6,1.4-1.4C8.3,62.4,7.7,61.7,6.9,61.7z M49.8,62.9
		c1.2,0,2.4,0.1,3.8,0.3c4.5,0.6,9.3,2.1,12.5,5.6H53.3L47,62.9C47.8,62.9,48.8,62.9,49.8,62.9z"/>
</g>
</svg>
