<?xml version="1.0" encoding="utf-8"?>
<!-- Generator: Adobe Illustrator 22.1.0, SVG Export Plug-In . SVG Version: 6.00 Build 0)  -->
<svg version="1.1" id="Layer_1" xmlns="http://www.w3.org/2000/svg" xmlns:xlink="http://www.w3.org/1999/xlink" x="0px" y="0px"
	 viewBox="0 0 50 35.3" style="enable-background:new 0 0 50 35.3;" xml:space="preserve">
<style type="text/css">
	.st0{display:none;fill:#FFFFFF;}
	.st1{fill:#FFFFFF;}
	.st2{fill:#010101;}
</style>
<ellipse class="st0" cx="25" cy="11.7" rx="24.9" ry="25"/>
<path class="st0" d="M13.9,5.4c-0.1,0-0.3,0-0.4,0.1c-0.2,0.1-0.3,0.1-0.4,0.3c-0.2,0.2-0.3,0.5-0.3,0.8v8.3c0,0.6,0.5,1.2,1.2,1.2
	c0.6,0,1.2-0.5,1.2-1.2V9.4l8.3,8.3c0.2,0.2,0.5,0.3,0.8,0.3c0.3,0,0.6-0.1,0.8-0.3c0.5-0.5,0.5-1.2,0-1.7l-8.3-8.3h5.5
	c0.6,0,1.2-0.5,1.2-1.2s-0.5-1.2-1.2-1.2L13.9,5.4C13.9,5.5,13.9,5.4,13.9,5.4L13.9,5.4z M27.8,5.5c-0.6,0-1.2,0.5-1.2,1.2
	c0,0.6,0.5,1.2,1.2,1.2h5.5L25,16.1c-0.5,0.5-0.5,1.2,0,1.7c0.2,0.2,0.5,0.3,0.8,0.3l0,0c0.3,0,0.6-0.1,0.8-0.3L35,9.4v5.5
	c0,0.6,0.5,1.2,1.2,1.2c0.6,0,1.2-0.5,1.2-1.2V6.7c0-0.3-0.1-0.6-0.3-0.9c0,0-0.1-0.1-0.1-0.1c0,0,0,0,0,0c0,0,0,0,0,0c0,0,0,0,0,0
	c0,0,0,0,0,0c0,0,0,0,0,0c0,0,0,0,0,0c0,0,0,0,0,0c0,0,0,0,0,0c0,0,0,0,0,0c0,0,0,0,0,0c0,0,0,0,0,0l0,0c-0.1-0.1-0.3-0.1-0.4-0.1
	L27.8,5.5L27.8,5.5z M24.2,17.3c-0.3,0-0.6,0.1-0.8,0.3L15,26v-5.5c0-0.6-0.5-1.2-1.2-1.2c-0.6,0-1.2,0.5-1.2,1.2v8.3
	c0,0.3,0.1,0.6,0.3,0.8c0.1,0.1,0.1,0.1,0.2,0.2c0,0,0,0,0,0c0,0,0,0,0,0c0,0,0,0,0,0c0,0,0,0,0,0c0,0,0,0,0,0c0,0,0,0,0,0
	c0,0,0,0,0,0c0,0,0,0,0,0c0,0,0,0,0,0c0,0,0,0,0,0c0,0,0,0,0,0c0,0,0,0,0,0c0,0,0,0,0,0c0,0,0,0,0,0c0,0,0,0,0,0c0,0,0,0,0,0
	c0,0,0,0,0,0c0,0,0,0,0,0c0,0,0,0,0,0c0,0,0,0,0,0c0,0,0,0,0,0c0,0,0,0,0.1,0h8.3c0.6,0,1.2-0.5,1.2-1.2c0-0.6-0.5-1.2-1.2-1.2h-5.5
	l8.3-8.3c0.5-0.5,0.5-1.2,0-1.7C24.7,17.4,24.5,17.3,24.2,17.3L24.2,17.3z M25.8,17.2c-0.3,0-0.6,0.1-0.8,0.3
	c-0.5,0.5-0.5,1.2,0,1.7l8.3,8.3h-5.5c-0.6,0-1.2,0.5-1.2,1.2c0,0.6,0.5,1.2,1.2,1.2h8.3c0.2,0,0.3,0,0.5-0.1c0,0,0,0,0,0
	c0,0,0,0,0,0c0,0,0,0,0,0c0,0,0,0,0,0c0,0,0,0,0,0c0,0,0,0,0,0c0,0,0,0,0,0c0,0,0,0,0,0c0,0,0,0,0,0c0,0,0,0,0,0
	c0,0,0.1-0.1,0.1-0.1c0.2-0.2,0.3-0.5,0.3-0.8v-8.3c0-0.6-0.5-1.2-1.2-1.2c-0.6,0-1.2,0.5-1.2,1.2v5.5l-8.3-8.3
	C26.4,17.4,26.1,17.2,25.8,17.2L25.8,17.2z"/>
<g>
	<polygon class="st1" points="13.5,5.9 13.7,9.5 13.9,13.2 17.3,10.2 20.8,7.2 17.1,6.5 	"/>
	<polygon class="st1" points="36.5,5.9 36.3,9.5 36.1,13.2 32.7,10.2 29.2,7.2 32.9,6.5 	"/>
	<polygon class="st1" points="13.5,29.4 13.7,25.7 13.9,22 17.3,25 20.8,28.1 17.1,28.7 	"/>
	
		<rect x="12.1" y="15.8" transform="matrix(-0.7104 0.7038 -0.7038 -0.7104 55.3579 11.1346)" class="st1" width="26.6" height="2.4"/>
	<polygon class="st1" points="36.5,29.6 36.3,25.9 36.1,22.2 32.7,25.3 29.2,28.3 32.9,29 	"/>
	<rect x="10.9" y="16" transform="matrix(0.7104 0.7038 -0.7038 0.7104 19.1008 -12.0664)" class="st1" width="26.6" height="2.4"/>
</g>
<g>
	<path class="st2" d="M50,3.8c0-0.7-0.2-1.3-0.5-1.9L33.7,17.6l15.8,15.8c0.3-0.5,0.5-1.2,0.5-1.8V3.8z"/>
	<path class="st2" d="M18.4,16.7c0.1,0,0.1,0.1,0.2,0.1c0,0,0.1,0.1,0.1,0.1l6.4,6.3L48,0.5C47.5,0.2,46.9,0,46.2,0H3.8
		c-0.7,0-1.4,0.2-2,0.6L18.4,16.7z"/>
	<path class="st2" d="M32.2,19l-6.5,6.4c-0.2,0.2-0.5,0.3-0.7,0.3c-0.3,0-0.5-0.1-0.7-0.3l-6.5-6.4L2,34.9c0.5,0.3,1.2,0.5,1.8,0.5
		h42.4c0.7,0,1.3-0.2,1.8-0.5L32.2,19z"/>
	<path class="st2" d="M0.4,2.1C0.2,2.6,0,3.2,0,3.8v27.7c0,0.7,0.2,1.3,0.5,1.9l15.8-15.8L0.4,2.1z"/>
</g>
</svg>
