<svg height='100px' width='100px'  fill="#000000" xmlns="http://www.w3.org/2000/svg" xmlns:xlink="http://www.w3.org/1999/xlink" xmlns:sketch="http://www.bohemiancoding.com/sketch/ns" viewBox="0 0 16 16" version="1.1" x="0px" y="0px"><title>location</title><desc>Created with Sketch.</desc><g stroke="none" stroke-width="1" fill="none" fill-rule="evenodd" sketch:type="MSPage"><g sketch:type="MSArtboardGroup" fill="#000000"><path d="M8,0 C4.687,0 2,2.687 2,6 C2,6.264 2.022,6.521 2.056,6.776 C2.073,6.912 2.094,7.047 2.118,7.181 C2.121,7.2 2.125,7.218 2.129,7.237 C2.964,11.792 8,16 8,16 C8,16 13.036,11.792 13.871,7.237 C13.875,7.218 13.879,7.2 13.882,7.182 C13.906,7.047 13.928,6.912 13.944,6.777 C13.978,6.521 14,6.264 14,6 C14,2.687 11.313,0 8,0 L8,0 Z M8,9 C6.343,9 5,7.657 5,6 C5,4.343 6.343,3 8,3 C9.657,3 11,4.343 11,6 C11,7.657 9.657,9 8,9 L8,9 Z" sketch:type="MSShapeGroup"></path></g></g></svg>