<?xml version="1.0" encoding="utf-8"?>
<!-- Generator: Adobe Illustrator 24.2.1, SVG Export Plug-In . SVG Version: 6.00 Build 0)  -->
<!DOCTYPE svg PUBLIC "-//W3C//DTD SVG 1.1//EN" "http://www.w3.org/Graphics/SVG/1.1/DTD/svg11.dtd" [
	<!ENTITY ns_extend "http://ns.adobe.com/Extensibility/1.0/">
	<!ENTITY ns_ai "http://ns.adobe.com/AdobeIllustrator/10.0/">
	<!ENTITY ns_graphs "http://ns.adobe.com/Graphs/1.0/">
	<!ENTITY ns_vars "http://ns.adobe.com/Variables/1.0/">
	<!ENTITY ns_imrep "http://ns.adobe.com/ImageReplacement/1.0/">
	<!ENTITY ns_sfw "http://ns.adobe.com/SaveForWeb/1.0/">
	<!ENTITY ns_custom "http://ns.adobe.com/GenericCustomNamespace/1.0/">
	<!ENTITY ns_adobe_xpath "http://ns.adobe.com/XPath/1.0/">
]>
<svg version="1.1" id="Layer_1" xmlns:x="&ns_extend;" xmlns:i="&ns_ai;" xmlns:graph="&ns_graphs;"
	 xmlns="http://www.w3.org/2000/svg" xmlns:xlink="http://www.w3.org/1999/xlink" x="0px" y="0px" viewBox="0 0 32.8 35.5"
	 style="enable-background:new 0 0 32.8 35.5;" xml:space="preserve">
<metadata>
	<sfw  xmlns="&ns_sfw;">
		<slices></slices>
		<sliceSourceBounds  bottomLeftOrigin="true" height="35.5" width="32.8" x="-22.4" y="72.3"></sliceSourceBounds>
	</sfw>
</metadata>
<path d="M32.1,27.7l-0.2-0.4C31.3,26,24.5,24,24,24l-0.4,0c-0.8,0.2-1.7,0.9-3.5,2.4c-0.4,0.3-0.8,0.4-1.3,0.2
	c-2.3-1.3-5.2-3.9-6.6-5.5c-1.5-1.7-3.4-4.5-4.3-6.8c-0.2-0.4,0-0.9,0.3-1.2c2-1.8,2.9-2.7,3-3.6c0-0.6-1.1-7.5-2.4-8.2L8.5,1
	c-0.8-0.5-2-1.3-3.3-1C4.9,0.1,4.6,0.3,4.3,0.4c-0.9,0.6-3,2.1-4,4c-0.6,1.2-0.9,12.3,7.4,21.7c8.2,9.3,18.4,9.7,19.9,9.4h0l0.1,0
	c2.1-0.8,3.8-2.7,4.5-3.5C33.4,30.4,32.6,28.7,32.1,27.7z"/>
</svg>
