<?xml version="1.0" encoding="utf-8"?>
<!-- Generator: Adobe Illustrator 23.0.3, SVG Export Plug-In . SVG Version: 6.00 Build 0)  -->
<!DOCTYPE svg PUBLIC "-//W3C//DTD SVG 1.1//EN" "http://www.w3.org/Graphics/SVG/1.1/DTD/svg11.dtd" [
	<!ENTITY ns_extend "http://ns.adobe.com/Extensibility/1.0/">
	<!ENTITY ns_ai "http://ns.adobe.com/AdobeIllustrator/10.0/">
	<!ENTITY ns_graphs "http://ns.adobe.com/Graphs/1.0/">
	<!ENTITY ns_vars "http://ns.adobe.com/Variables/1.0/">
	<!ENTITY ns_imrep "http://ns.adobe.com/ImageReplacement/1.0/">
	<!ENTITY ns_sfw "http://ns.adobe.com/SaveForWeb/1.0/">
	<!ENTITY ns_custom "http://ns.adobe.com/GenericCustomNamespace/1.0/">
	<!ENTITY ns_adobe_xpath "http://ns.adobe.com/XPath/1.0/">
]>
<svg version="1.1" id="Layer_1" xmlns:x="&ns_extend;" xmlns:i="&ns_ai;" xmlns:graph="&ns_graphs;"
	 xmlns="http://www.w3.org/2000/svg" xmlns:xlink="http://www.w3.org/1999/xlink" x="0px" y="0px" viewBox="0 0 167.7 257.8"
	 style="enable-background:new 0 0 167.7 257.8;" xml:space="preserve">
<style type="text/css">
	.st0{fill:#3AABE1;stroke:#3AABE1;stroke-width:0.5;stroke-miterlimit:10;}
</style>
<metadata>
	<sfw  xmlns="&ns_sfw;">
		<slices></slices>
		<sliceSourceBounds  bottomLeftOrigin="true" height="257.8" width="167.7" x="-33.9" y="-53.9"></sliceSourceBounds>
	</sfw>
</metadata>
<path class="st0" d="M138.5,131.1V49.8c0-27.3-22.2-49.5-49.5-49.5H78.7c-27.3,0-49.5,22.2-49.5,49.5v81.3
	c-17,7.1-28.9,23.1-28.9,41.8V194v41.3c0,12.3,10.1,22.3,22.5,22.3h12.9c0.1,0,0.2,0,0.3,0h31.8c0.2,0,0.4,0,0.7,0h0c0,0,0,0,0,0
	h63.5c0.1,0,0.1,0,0.2,0h32.2c1.8,0,3.2-1.4,3.2-3.2v-15.7v-42.2v-23.7C167.5,154.1,155.5,138.1,138.5,131.1z M70.8,129.7
	c0.1-0.3,0.2-0.5,0.2-0.8v-16.2c4.2,2.2,8.6,3.3,12.9,3.3c4.3,0,8.6-1.1,12.8-3.3v16.2c0,0.3,0.1,0.5,0.2,0.8
	c-0.1,0.3-0.2,0.5-0.2,0.8v9.6c0,1.6-1.3,2.9-2.9,3.1c-0.1,0-0.3,0-0.3,0H74.2l-0.3,0c-1.6-0.2-2.9-1.5-2.9-3.1v-9.6
	C71,130.2,70.9,129.9,70.8,129.7z M112.8,74.2c0,10.9-6.1,23.3-14.8,30.1c-5.2,4-15.8,9.4-28.2,0.1l-0.4-0.3c-0.4-0.3-0.8-0.6-1.2-1
	C59.8,96,54.9,85.2,54.9,73.6v-20c12.5,2.9,35-7.7,45.2-13c2.2,7.4,8.2,11.6,12.7,13.5V74.2z M35.6,49.8C35.6,26,55,6.7,78.7,6.7H89
	c23.8,0,43.1,19.3,43.1,43.1v77.6c-4.2-1.2-8.5-1.8-12.9-1.8h-16.1v-17.3c0.5-0.4,0.9-0.8,1.3-1.2c0.6-0.5,1.1-1,1.6-1.6
	c0.6-0.6,1.2-1.3,1.8-2c0.5-0.6,1-1.1,1.5-1.8c0.6-0.7,1.1-1.5,1.6-2.2c0.4-0.6,0.9-1.2,1.3-1.9c0.5-0.8,0.9-1.6,1.4-2.4
	c0.4-0.7,0.7-1.3,1.1-2c0.4-0.9,0.8-1.7,1.1-2.6c0.3-0.7,0.6-1.3,0.8-2c0.3-0.9,0.6-1.9,0.9-2.8c0.2-0.6,0.4-1.3,0.6-1.9
	c0.3-1.1,0.4-2.1,0.6-3.2c0.1-0.5,0.2-1.1,0.3-1.6c0.2-1.6,0.3-3.2,0.3-4.8V51.7c0-1.5-1-2.7-2.4-3.1c-0.4-0.1-10.6-2.9-11.1-13.1
	c-0.1-1.1-0.7-2.1-1.7-2.6c-1-0.5-2.1-0.5-3.1,0c-16,8.9-41.2,18.9-47,13.3c-0.9-0.9-2.3-1.1-3.5-0.6c-1.2,0.5-1.9,1.7-1.9,3v25.1
	c0,13.6,5.7,26.1,15.5,34.4c0.2,0.2,0.4,0.3,0.6,0.5v17.2H48.5c-4.4,0-8.7,0.6-12.9,1.8V49.8z M6.7,235.3v-38.1h25.7v28.5
	c0,1.8,1.4,3.2,3.2,3.2h32.2c1.8,0,3.5,0.5,5,1.4c2.9,1.8,4.7,4.8,4.7,8.2v2.9c0,2.4-0.9,4.7-2.5,6.5c-1.7,1.9-4.1,3-6.6,3.1H35.6
	c-0.2,0-0.4,0-0.6,0.1H22.8C13.9,251.1,6.7,244,6.7,235.3z M93.5,178.1H74.2v-11.2c0-4.3,3.5-7.8,7.8-7.8h3.6c4.3,0,7.8,3.5,7.8,7.8
	V178.1z M71,184.6h25.7h3.2v12.6h-3.2H71h-3.2v-12.6H71z M82.5,247.9c0-0.1,0.1-0.2,0.1-0.3c0.3-0.6,0.5-1.3,0.6-2
	c0.1-0.3,0.2-0.7,0.3-1c0.2-1,0.3-2.1,0.3-3.2v-2.9c0-0.7,0-1.3-0.1-2c0,0,0-0.1,0-0.1c0-0.2-0.1-0.4-0.1-0.5
	c-0.1-0.4-0.1-0.9-0.3-1.3c-0.1-0.2-0.1-0.5-0.2-0.7c-0.1-0.4-0.2-0.8-0.4-1.1c-0.1-0.3-0.2-0.5-0.3-0.7c-0.2-0.3-0.3-0.7-0.5-1
	c-0.1-0.2-0.3-0.5-0.4-0.7c-0.2-0.3-0.4-0.6-0.6-0.9c-0.2-0.2-0.3-0.5-0.5-0.7c-0.2-0.3-0.5-0.6-0.7-0.9c-0.2-0.2-0.4-0.4-0.6-0.6
	c-0.3-0.3-0.6-0.5-0.9-0.8c-0.1-0.1-0.3-0.3-0.4-0.4c-0.1,0-0.1-0.1-0.2-0.1c-0.1-0.1-0.1-0.1-0.2-0.2l-2.8-22.1h18.4l-5.6,44.3
	H82.5z M94,247.5l5.6-43.9h3.6c1.8,0,3.2-1.4,3.2-3.2v-19c0-1.8-1.4-3.2-3.2-3.2h-3.2v-11.2c0-7.9-6.4-14.3-14.3-14.3h-3.6
	c-7.9,0-14.3,6.4-14.3,14.3v11.2h-3.2c-1.8,0-3.2,1.4-3.2,3.2v19c0,1.8,1.4,3.2,3.2,3.2h3.6l2.4,19.1c-0.1,0-0.2,0-0.3,0
	c-0.8-0.1-1.7-0.2-2.6-0.2H38.8V194v0v-12.3c0-1.8-1.4-3.2-3.2-3.2s-3.2,1.4-3.2,3.2v9.1H6.7v-17.8c0-21.6,18.8-39.2,41.8-39.2h16.1
	v6.3c0,4.8,3.8,9,8.5,9.5c0.3,0.1,0.8,0.1,1.2,0.1h19.3c0.4,0,0.8,0,1,0c4.9-0.5,8.7-4.7,8.7-9.5v-6.3h16.1c23,0,41.8,17.5,41.8,39
	v20.5h-25.7v-11.5c0-1.8-1.4-3.2-3.2-3.2c-1.8,0-3.2,1.4-3.2,3.2v14.8V251H93.5L94,247.5z M161,251.1h-25.7v-50.7H161v38.2V251.1z"
	/>
</svg>
