<?xml version="1.0" encoding="utf-8"?>
<!-- Generator: Adobe Illustrator 22.1.0, SVG Export Plug-In . SVG Version: 6.00 Build 0)  -->
<svg version="1.1" id="Layer_1" xmlns="http://www.w3.org/2000/svg" xmlns:xlink="http://www.w3.org/1999/xlink" x="0px" y="0px"
	 viewBox="0 0 48.7 50" style="enable-background:new 0 0 48.7 50;" xml:space="preserve">
<style type="text/css">
	.st0{display:none;fill:#FFFFFF;}
</style>
<ellipse class="st0" cx="24.3" cy="18.9" rx="24.9" ry="25"/>
<path class="st0" d="M13.2,12.7c-0.1,0-0.3,0-0.4,0.1c-0.2,0.1-0.3,0.1-0.4,0.3c-0.2,0.2-0.3,0.5-0.3,0.8v8.3c0,0.6,0.5,1.2,1.2,1.2
	c0.6,0,1.2-0.5,1.2-1.2v-5.5l8.3,8.3c0.2,0.2,0.5,0.3,0.8,0.3s0.6-0.1,0.8-0.3c0.5-0.5,0.5-1.2,0-1.7L16.1,15h5.5
	c0.6,0,1.2-0.5,1.2-1.2s-0.5-1.2-1.2-1.2L13.2,12.7L13.2,12.7L13.2,12.7z M27.1,12.7c-0.6,0-1.2,0.5-1.2,1.2c0,0.6,0.5,1.2,1.2,1.2
	h5.5l-8.3,8.3c-0.5,0.5-0.5,1.2,0,1.7c0.2,0.2,0.5,0.3,0.8,0.3l0,0c0.3,0,0.6-0.1,0.8-0.3l8.3-8.3v5.5c0,0.6,0.5,1.2,1.2,1.2
	c0.6,0,1.2-0.5,1.2-1.2V14c0-0.3-0.1-0.6-0.3-0.9L36.2,13l0,0l0,0l0,0l0,0l0,0l0,0l0,0l0,0l0,0l0,0l0,0l0,0
	c-0.1-0.1-0.3-0.1-0.4-0.1L27.1,12.7L27.1,12.7z M23.5,24.6c-0.3,0-0.6,0.1-0.8,0.3l-8.4,8.4v-5.5c0-0.6-0.5-1.2-1.2-1.2
	c-0.6,0-1.2,0.5-1.2,1.2v8.3c0,0.3,0.1,0.6,0.3,0.8c0.1,0.1,0.1,0.1,0.2,0.2l0,0l0,0l0,0l0,0l0,0l0,0l0,0l0,0l0,0l0,0l0,0l0,0l0,0
	l0,0l0,0l0,0l0,0l0,0l0,0l0,0l0,0c0,0,0,0,0.1,0h8.3c0.6,0,1.2-0.5,1.2-1.2c0-0.6-0.5-1.2-1.2-1.2h-5.5l8.3-8.3
	C24.1,25.9,24.1,25.2,23.5,24.6C24,24.7,23.8,24.6,23.5,24.6L23.5,24.6z M25.1,24.5c-0.3,0-0.6,0.1-0.8,0.3c-0.5,0.5-0.5,1.2,0,1.7
	l8.3,8.3h-5.5c-0.6,0-1.2,0.5-1.2,1.2c0,0.6,0.5,1.2,1.2,1.2h8.3c0.2,0,0.3,0,0.5-0.1l0,0l0,0l0,0l0,0l0,0l0,0l0,0l0,0l0,0l0,0
	L36,37c0.2-0.2,0.3-0.5,0.3-0.8v-8.3c0-0.6-0.5-1.2-1.2-1.2c-0.6,0-1.2,0.5-1.2,1.2v5.5l-8.3-8.3C25.7,24.6,25.4,24.5,25.1,24.5
	L25.1,24.5z"/>
<g>
	<polygon points="0,0 0.4,7.8 0.8,15.5 8,9.2 15.3,2.7 7.6,1.5 	"/>
	<polygon points="48.7,0 48.3,7.8 47.9,15.5 40.7,9.2 33.4,2.7 41.1,1.5 	"/>
	<polygon points="0,50 0.4,42.2 0.8,34.5 8,40.8 15.3,47.1 7.6,48.5 	"/>
	<rect x="-2.5" y="21" transform="matrix(0.7104 -0.7038 0.7038 0.7104 -9.1655 24.7136)" width="55.9" height="5"/>
	<polygon points="48.7,50 48.3,42.2 47.9,34.5 40.7,40.8 33.4,47.3 41.1,48.5 	"/>
	<rect x="20.3" y="-4" transform="matrix(0.7038 -0.7104 0.7104 0.7038 -10.233 23.2761)" width="5" height="55.9"/>
</g>
</svg>
