<?xml version="1.0" encoding="utf-8"?>
<!-- Generator: Adobe Illustrator 23.0.1, SVG Export Plug-In . SVG Version: 6.00 Build 0)  -->
<svg version="1.1" id="Layer_1" xmlns="http://www.w3.org/2000/svg" xmlns:xlink="http://www.w3.org/1999/xlink" x="0px" y="0px"
	 viewBox="0 0 290 52.3" style="enable-background:new 0 0 290 52.3;" xml:space="preserve">
<style type="text/css">
	.st0{fill:#010101;}
	.st1{fill:#FFFFFF;}
</style>
<g>
	<g>
		<path id="XMLID_1_" class="st0" d="M52.1,26.3c-0.1,14.4-11.8,26.1-26.2,26c-7.1,0-13.5-2.9-18.2-7.6C2.9,39.9,0,33.3,0,26
			C0.1,11.5,11.8-0.1,26.2,0S52.1,11.9,52.1,26.3z"/>
		<path class="st1" d="M13.6,35l-5.8,9.8c0,0,2.3,3.2,9,5.8l3.3-9l2.2-6l2.3-6.7c0,0,0.8-2.2,0.8-2.2l0.1-0.2c0,0,0-0.1,0.1-0.1
			l0.1-0.1l0,0c0,0,0,0,0.1,0l0.1,0l0.1,0l0.1,0.2l0.2,0.6l0.4,1.3l1.6,4.8l1.4,4.2l2.1,6.5l1.6,4.6l0.9,2.5c0,0,5.3-1.5,9.7-5.9
			l-3.2-4.8l-2.1-3.6l-2.1-4.2l-1.8-3.7l-1.4-3.3l-1.2-3.3l-1.1-3.2L30,15.2l-1.1-3.9l-1-3.8l-1.1-4.2L26,1.2l-1.2,4l-1.7,5.6
			l-1.4,4.3l-1.6,4.8l-1.4,3.9l-1.6,3.8l-1.7,3.6L13.6,35z"/>
	</g>
	<g>
		<path class="st0" d="M89,20.4c-0.7-1.8-1.7-3.3-3-4.5c-1.3-1.3-2.8-2.3-4.6-3c-1.8-0.7-3.8-1.1-6-1.1H64.8c-0.3,0-0.5,0.2-0.5,0.5
			v10.2c0,0.3,0.2,0.5,0.5,0.5h5.1c0.3,0,0.5-0.2,0.5-0.5v-5.5c0-0.3,0.2-0.5,0.5-0.5h4.6c1.3,0,2.6,0.2,3.6,0.7
			c1.1,0.4,2,1.1,2.7,1.9c0.7,0.8,1.3,1.8,1.7,3.1c0.4,1.2,0.6,2.6,0.6,4.1c0,1.5-0.2,2.9-0.6,4.1c-0.4,1.2-1,2.2-1.7,3.1
			c-0.7,0.8-1.6,1.5-2.7,1.9c-1.1,0.4-2.3,0.7-3.6,0.7h-4.6c-0.3,0-0.5-0.2-0.5-0.5v-5.5c0-0.3-0.2-0.5-0.5-0.5h-5.1
			c-0.3,0-0.5,0.2-0.5,0.5V40c0,0.3,0.2,0.5,0.5,0.5h10.6c2.2,0,4.2-0.4,6-1.1c1.8-0.7,3.4-1.7,4.6-3c1.3-1.3,2.3-2.8,3-4.5
			c0.7-1.8,1.1-3.7,1.1-5.8C90.1,24,89.7,22.1,89,20.4z"/>
		<path class="st0" d="M100.9,16.4h11.4c0.3,0,0.5-0.2,0.5-0.5v-3.7c0-0.3-0.2-0.5-0.5-0.5H94.9c-0.3,0-0.5,0.2-0.5,0.5V40
			c0,0.3,0.2,0.5,0.5,0.5h17.4c0.3,0,0.5-0.2,0.5-0.5v-3.7c0-0.3-0.2-0.5-0.5-0.5h-11.4c-0.3,0-0.5-0.2-0.5-0.5v-6.6
			c0-0.3,0.2-0.5,0.5-0.5h8.7c0.3,0,0.5-0.2,0.5-0.5v-3.6c0-0.3-0.2-0.5-0.5-0.5h-8.7c-0.3,0-0.5-0.2-0.5-0.5v-6.5
			C100.5,16.6,100.7,16.4,100.9,16.4z"/>
		<path class="st0" d="M141.3,11.8H137c-0.3,0-0.5,0.2-0.5,0.5v16c0,0.4,0,0.9,0,1.3c0,0.5,0.1,1,0.1,1.5l-14.4-18.3
			c-0.2-0.2-0.3-0.4-0.4-0.5c-0.1-0.1-0.3-0.2-0.4-0.3c-0.1-0.1-0.3-0.1-0.5-0.1c-0.2,0-0.4,0-0.6,0h-2.7c-0.3,0-0.5,0.2-0.5,0.5V40
			c0,0.3,0.2,0.5,0.5,0.5h4.3c0.3,0,0.5-0.2,0.5-0.5V23.9c0-0.4,0-0.8,0-1.2c0-0.5,0-0.9-0.1-1.4l14.3,18.2c0.3,0.4,0.6,0.6,0.9,0.8
			c0.3,0.2,0.7,0.2,1.2,0.2h2.6c0.3,0,0.5-0.2,0.5-0.5V12.2C141.8,12,141.6,11.8,141.3,11.8z"/>
		<path class="st0" d="M167.7,11.8h-21.8c-0.3,0-0.5,0.2-0.5,0.5v3.9c0,0.3,0.2,0.5,0.5,0.5h7.5c0.3,0,0.5,0.2,0.5,0.5v23
			c0,0.3,0.2,0.5,0.5,0.5h5c0.3,0,0.5-0.2,0.5-0.5V17c0-0.3,0.2-0.5,0.5-0.5h7.5c0.3,0,0.5-0.2,0.5-0.5v-3.9
			C168.2,12,168,11.8,167.7,11.8z"/>
		<path class="st0" d="M193.8,39.9L183,12.1c-0.1-0.2-0.2-0.3-0.4-0.3h-5.4c-0.2,0-0.4,0.1-0.4,0.3l-10.9,27.8
			c-0.1,0.3,0.1,0.6,0.4,0.6h4c0.5,0,0.9-0.1,1.2-0.4c0.3-0.3,0.6-0.6,0.7-0.9L174,34c0.1-0.2,0.2-0.3,0.4-0.3h10.8
			c0.2,0,0.4,0.1,0.4,0.3l1.8,5.2c0.2,0.4,0.4,0.7,0.7,0.9c0.3,0.2,0.7,0.4,1.3,0.4h3.9C193.7,40.5,194,40.2,193.8,39.9z
			 M183.4,29.6h-7.2c-0.3,0-0.5-0.3-0.4-0.6l2.9-8.1c0.2-0.5,0.4-1,0.6-1.6c0-0.2,0.1-0.3,0.1-0.5c0.1-0.4,0.7-0.4,0.9,0
			c0,0.1,0.1,0.3,0.1,0.4c0.2,0.6,0.4,1.2,0.6,1.6l2.9,8.2C184,29.3,183.8,29.6,183.4,29.6z"/>
		<path class="st0" d="M218.3,36l-2.1-2.2c-0.2-0.2-0.5-0.4-0.8-0.4c-0.2,0-0.4,0-0.5,0.1c-0.2,0.1-0.3,0.2-0.5,0.3
			c-0.4,0.4-0.8,0.7-1.3,0.9c-0.4,0.3-0.9,0.5-1.3,0.6c-0.5,0.2-1,0.3-1.5,0.3c-0.6,0.1-1.2,0.1-1.8,0.1c-1.1,0-2.2-0.2-3.2-0.6
			c-1-0.4-1.9-1.1-2.6-1.9c-0.7-0.8-1.3-1.9-1.8-3.1c-0.4-1.2-0.6-2.6-0.6-4.1c0-1.5,0.2-2.9,0.6-4.1c0.4-1.2,1-2.2,1.7-3
			c0.7-0.8,1.6-1.5,2.6-1.9c1-0.4,2.1-0.7,3.3-0.7c1.1,0,2,0.1,2.7,0.3c0.7,0.2,1.3,0.5,1.8,0.8c0.5,0.3,0.9,0.5,1.2,0.7
			c0.3,0.2,0.6,0.3,1,0.3c0.3,0,0.6-0.1,0.7-0.2c0.2-0.1,0.3-0.3,0.5-0.5l1.8-2.4c0.1-0.2,0.1-0.5-0.1-0.6c-0.5-0.5-1-0.9-1.6-1.3
			c-0.7-0.5-1.4-0.9-2.3-1.2c-0.8-0.3-1.7-0.6-2.6-0.8c-0.9-0.2-1.9-0.3-3-0.3c-1.4,0-2.7,0.2-4,0.5c-1.2,0.3-2.4,0.8-3.5,1.4
			c-1.1,0.6-2,1.4-2.8,2.2c-0.8,0.9-1.6,1.8-2.1,2.9c-0.6,1.1-1,2.3-1.4,3.6c-0.3,1.3-0.5,2.6-0.5,4.1c0,2.1,0.3,4.1,1,5.9
			c0.7,1.8,1.6,3.3,2.8,4.6c1.2,1.3,2.7,2.3,4.4,3.1c1.7,0.7,3.6,1.1,5.8,1.1c2.4,0,4.4-0.4,6.1-1.1c1.6-0.7,3-1.7,4.1-3
			C218.5,36.4,218.5,36.2,218.3,36z"/>
		<path class="st0" d="M248,20.3c-0.7-1.8-1.7-3.3-3-4.6c-1.3-1.3-2.8-2.3-4.6-3.1c-1.8-0.7-3.8-1.1-6-1.1c-2.2,0-4.2,0.4-6,1.1
			c-1.8,0.7-3.4,1.8-4.7,3.1c-1.3,1.3-2.3,2.9-3,4.6c-0.7,1.8-1.1,3.7-1.1,5.8c0,2.1,0.4,4,1.1,5.8c0.7,1.8,1.7,3.3,3,4.7
			c1.3,1.3,2.8,2.3,4.7,3.1c1.8,0.7,3.8,1.1,6,1.1c2.2,0,4.2-0.4,6-1.1c1.8-0.7,3.4-1.8,4.6-3.1c1.3-1.3,2.3-2.9,3-4.7
			c0.7-1.8,1.1-3.7,1.1-5.8C249.1,24,248.7,22.1,248,20.3z M242.4,30.2c-0.4,1.2-1,2.2-1.7,3c-0.7,0.8-1.7,1.5-2.7,1.9
			c-1.1,0.4-2.3,0.7-3.6,0.7c-1.3,0-2.6-0.2-3.6-0.7c-1.1-0.4-2-1.1-2.7-1.9c-0.7-0.8-1.3-1.8-1.7-3c-0.4-1.2-0.6-2.6-0.6-4.1
			c0-1.5,0.2-2.9,0.6-4.1c0.4-1.2,1-2.2,1.7-3c0.7-0.8,1.7-1.5,2.7-1.9c1.1-0.4,2.3-0.7,3.6-0.7c1.3,0,2.5,0.2,3.6,0.7
			c1.1,0.4,2,1.1,2.7,1.9c0.7,0.8,1.3,1.9,1.7,3c0.4,1.2,0.6,2.5,0.6,4.1C243,27.6,242.8,29,242.4,30.2z"/>
		<path class="st0" d="M258.9,11.8h-5.1c-0.3,0-0.5,0.2-0.5,0.5V40c0,0.3,0.2,0.5,0.5,0.5h5.1c0.3,0,0.5-0.2,0.5-0.5V12.2
			C259.4,12,259.2,11.8,258.9,11.8z"/>
		<path class="st0" d="M289.6,11.8h-4.3c-0.3,0-0.5,0.2-0.5,0.5v16c0,0.4,0,0.9,0,1.3c0,0.5,0.1,1,0.1,1.5l-14.4-18.3
			c-0.2-0.2-0.3-0.4-0.4-0.5c-0.1-0.1-0.3-0.2-0.4-0.3c-0.1-0.1-0.3-0.1-0.5-0.1c-0.2,0-0.4,0-0.6,0h-2.7c-0.3,0-0.5,0.2-0.5,0.5V40
			c0,0.3,0.2,0.5,0.5,0.5h4.3c0.3,0,0.5-0.2,0.5-0.5V23.9c0-0.4,0-0.8,0-1.2c0-0.5,0-0.9-0.1-1.4l14.3,18.2c0.3,0.4,0.6,0.6,0.9,0.8
			c0.3,0.2,0.7,0.2,1.2,0.2h2.6c0.3,0,0.5-0.2,0.5-0.5V12.2C290,12,289.8,11.8,289.6,11.8z"/>
	</g>
</g>
</svg>
