<?xml version="1.0" encoding="utf-8"?>
<!-- Generator: Adobe Illustrator 22.1.0, SVG Export Plug-In . SVG Version: 6.00 Build 0)  -->
<svg version="1.1" id="Layer_1" xmlns="http://www.w3.org/2000/svg" xmlns:xlink="http://www.w3.org/1999/xlink" x="0px" y="0px"
	 viewBox="0 0 93.3 95.2" style="enable-background:new 0 0 93.3 95.2;" xml:space="preserve">
<style type="text/css">
	.st0{fill:none;stroke:#000000;stroke-miterlimit:10;}
	.st1{fill:none;stroke:#000000;stroke-width:0.5;stroke-miterlimit:10;}
	.st2{fill:none;stroke:#000000;stroke-width:2;stroke-miterlimit:10;}
	.st3{fill:none;stroke:#000000;stroke-width:2;stroke-linecap:round;stroke-miterlimit:10;}
	.st4{fill:none;stroke:#000000;stroke-width:2;stroke-linecap:square;stroke-miterlimit:10;}
</style>
<g id="Layer_1_1_">
	<path class="st0" d="M51.7,45.7c0-5,4-9,9-9h11.1c4.9,0,9,4,9,9"/>
	<path class="st1" d="M60.7,68.7"/>
	<path class="st0" d="M63.9,94.6h-4.2c-0.6,0-1-0.4-1-1v-37c0-0.5,0.4,0.1,1,0.1l4.3,0.2c0.5,0,2.2-0.3,2.2,0.3l-1.3,36.5
		C64.9,94.2,64.4,94.6,63.9,94.6z"/>
	<path class="st0" d="M68.5,94.7h4.2c0.5,0,1-0.5,1-1v-37c0-0.6-0.5-1-1-1l-4.2,0.9c-0.6,0-2.4-0.1-2.4,0.4l1.4,36.6
		C67.5,94.2,67.9,94.7,68.5,94.7z"/>
	<path class="st0" d="M56.1,56.1l-2.7-1.2c-0.5-0.1-0.8-1.1-0.9-0.6l-1.1,5.1c-0.1,0.5,0.2,1.1,0.8,1.2l3.2,0.7
		c0.5,0.1,1.1-0.2,1.2-0.8l0.9-4.4C57.6,55.7,56.7,56.2,56.1,56.1z"/>
	<path class="st0" d="M75.9,54.3l3.1-1.4c0.5-0.1,0.8-1.1,0.9-0.6l1.5,7.2c0.1,0.5-0.2,1.1-0.8,1.2l-3.2,0.7
		c-0.5,0.1-1.1-0.2-1.2-0.8l-1.1-5.1C75,54.9,75.3,54.4,75.9,54.3z"/>
	<path d="M56.8,56.1L56.8,56.1c0.4,0,0.6-0.3,0.6-0.6v-8.1c0-0.4-0.3-0.6-0.6-0.6l0,0c-0.4,0-0.6,0.3-0.6,0.6v8.1
		C56.1,55.8,56.4,56.1,56.8,56.1z"/>
	<path d="M74.8,55.6L74.8,55.6c0.4,0,0.6-0.3,0.6-0.6v-8.1c0-0.4-0.3-0.6-0.6-0.6l0,0c-0.4,0-0.6,0.3-0.6,0.6V55
		C74.2,55.4,74.5,55.6,74.8,55.6z"/>
	<line class="st0" x1="80.8" y1="45.7" x2="80.8" y2="51.4"/>
	<line class="st0" x1="51.7" y1="45.5" x2="51.7" y2="53.4"/>
</g>
<g id="Layer_2_1_">
	<circle class="st2" cx="64.3" cy="29.1" r="28.1"/>
	<path class="st3" d="M40.9,29.4C40.7,16.5,51,5.9,64,5.7"/>
	<path class="st2" d="M64.3,8.6"/>
	<path class="st2" d="M64.3,49.4"/>
	<ellipse class="st0" cx="65.6" cy="23.9" rx="8.2" ry="9.6"/>
	<line class="st4" x1="44.2" y1="49.6" x2="0.5" y2="94.5"/>
</g>
</svg>
