<?xml version="1.0" encoding="utf-8"?>
<!-- Generator: Adobe Illustrator 22.1.0, SVG Export Plug-In . SVG Version: 6.00 Build 0)  -->
<svg version="1.1" id="Layer_1" xmlns="http://www.w3.org/2000/svg" xmlns:xlink="http://www.w3.org/1999/xlink" x="0px" y="0px"
	 viewBox="0 0 6553.6 6569.2" style="enable-background:new 0 0 6553.6 6569.2;" xml:space="preserve">
<style type="text/css">
	.st0{font-family:'Arial-BoldMT';}
	.st1{font-size:3.8968px;}
</style>
<g>
	<path d="M3276.4,0c1809.7,0,3277.2,1466.7,3277.2,3276.4S5086.1,6553.6,3276.4,6553.6S0,5086.1,0,3276.4S1466.7,0,3276.4,0z
		 M2794.8,5146.1c0,265,217.4,481.6,481.6,481.6c265,0,482.4-216.7,482.4-481.6V3758.8h1387.3c265,0,481.6-217.4,481.6-482.4
		c0-264.2-216.7-481.6-481.6-481.6c-462.9,0-925.1,0-1387.3,0V1407.5c0-265-217.4-482.4-482.4-482.4
		c-264.2,0-481.6,217.4-481.6,482.4v1387.3H1407.5c-265,0-482.4,217.4-482.4,481.6c0,265,217.4,482.4,482.4,482.4
		c462.2,0,925.1,0,1387.3,0V5146.1z"/>
</g>
<text transform="matrix(1 0 0 1 0 6565.29)" class="st0 st1">Created by jhonkar</text>
<text transform="matrix(1 0 0 1 0 6569.1875)" class="st0 st1">from the Noun Project</text>
</svg>
