<?xml version="1.0" encoding="utf-8"?>
<!-- Generator: Adobe Illustrator 22.1.0, SVG Export Plug-In . SVG Version: 6.00 Build 0)  -->
<svg version="1.1" id="Layer_1" xmlns="http://www.w3.org/2000/svg" xmlns:xlink="http://www.w3.org/1999/xlink" x="0px" y="0px"
	 viewBox="0 0 22.3 18.4" style="enable-background:new 0 0 22.3 18.4;" xml:space="preserve">
<style type="text/css">
	.st0{display:none;fill:#FFFFFF;}
	.st1{fill:#373737;}
</style>
<ellipse class="st0" cx="12.1" cy="3.2" rx="24.9" ry="25"/>
<g>
	<path class="st1" d="M22.3,0v5.1c0,2.7-0.3,4.9-1,6.6c-0.6,1.7-1.7,3.2-3.3,4.4s-3.3,2-5.3,2.4v-4.1c1.4-0.8,2.2-1.9,2.4-3.2h-2.4
		V0H22.3z M9.5,0v5.1c0,2.7-0.3,4.9-1,6.6c-0.6,1.7-1.7,3.2-3.3,4.4S2,18,0,18.4v-4.1c1.4-0.8,2.2-1.9,2.4-3.2H0V0H9.5z"/>
</g>
</svg>
