<?xml version="1.0" encoding="utf-8"?>
<!-- Generator: Adobe Illustrator 22.1.0, SVG Export Plug-In . SVG Version: 6.00 Build 0)  -->
<svg version="1.1" id="Layer_1" xmlns="http://www.w3.org/2000/svg" xmlns:xlink="http://www.w3.org/1999/xlink" x="0px" y="0px"
	 viewBox="0 0 22.3 18.4" style="enable-background:new 0 0 22.3 18.4;" xml:space="preserve">
<style type="text/css">
	.st0{display:none;fill:#FFFFFF;}
	.st1{fill:#373737;}
</style>
<ellipse class="st0" cx="12.1" cy="3.2" rx="24.9" ry="25"/>
<g>
	<path class="st1" d="M0,18.4v-5.1c0-2.7,0.3-4.9,1-6.6C1.6,5,2.7,3.6,4.3,2.4s3.3-2,5.3-2.4v4.1C8.1,4.9,7.4,5.9,7.2,7.3h2.4v11.1
		H0z M12.7,18.4v-5.1c0-2.7,0.3-4.9,1-6.6C14.3,5,15.4,3.6,17,2.4s3.3-2,5.3-2.4v4.1c-1.4,0.8-2.2,1.9-2.4,3.2h2.4v11.1H12.7z"/>
</g>
</svg>
