<?xml version="1.0" encoding="utf-8"?>
<!-- Generator: Adobe Illustrator 22.1.0, SVG Export Plug-In . SVG Version: 6.00 Build 0)  -->
<svg version="1.1" id="Layer_1" xmlns="http://www.w3.org/2000/svg" xmlns:xlink="http://www.w3.org/1999/xlink" x="0px" y="0px"
	 viewBox="0 0 90 90" style="enable-background:new 0 0 90 90;" xml:space="preserve">
<path d="M45,0C20.1,0,0,20.1,0,45s20.1,45,45,45s45-20.1,45-45S69.9,0,45,0z M47,29.2c5.6-0.1,11.2-0.5,16.8-1.4
	c1.3,5,2.1,10.1,2.2,15.3H47V29.2z M47,25.2V6.1c6.4,1.2,12.1,8.1,15.6,17.9C57.4,24.7,52.2,25.2,47,25.2L47,25.2z M43,25.2
	c-5.2-0.1-10.4-0.5-15.6-1.2C30.9,14.2,36.6,7.3,43,6.1V25.2z M43,29.2v13.9H24c0.1-5.2,0.9-10.3,2.2-15.3
	C31.8,28.6,37.4,29.1,43,29.2z M20,43.1H4c0.3-7.1,2.5-14,6.3-20c3.8,1.9,7.8,3.2,11.9,4C20.9,32.3,20.1,37.7,20,43.1z M20,47.1
	c0.1,5.4,0.9,10.7,2.2,15.9c-4.1,0.8-8.1,2.1-11.9,4c-3.8-6-6-12.8-6.3-19.8H20z M24,47.1h19v13.8c-5.6,0.1-11.2,0.5-16.8,1.4
	C24.9,57.3,24.2,52.2,24,47.1L24,47.1z M43,64.8v19.1c-6.4-1.2-12.1-8.1-15.6-17.9C32.6,65.3,37.8,64.8,43,64.8z M47,64.8
	c5.2,0.1,10.4,0.5,15.6,1.2c-3.4,9.8-9.1,16.7-15.6,17.9V64.8z M47,60.8V47.1h19c-0.1,5.1-0.9,10.2-2.2,15.1
	C58.2,61.4,52.6,60.9,47,60.8L47,60.8z M70,47.1h16c-0.4,7-2.5,13.9-6.3,19.8c-3.8-1.9-7.8-3.2-11.9-4C69.1,57.8,69.8,52.4,70,47.1z
	 M70,43.1c-0.1-5.4-0.9-10.8-2.2-16c4.1-0.8,8.1-2.1,11.9-4c3.8,6,6,12.9,6.3,20H70z M77.3,19.8c-3.4,1.6-7,2.8-10.7,3.5
	c-2.8-8.1-7-14.6-12.1-18.2C63.5,7.3,71.6,12.4,77.3,19.8z M35.6,5.1c-5.1,3.6-9.4,10-12.1,18.2c-3.7-0.7-7.3-1.9-10.7-3.5
	C18.4,12.4,26.5,7.3,35.6,5.1z M12.7,70.2c3.4-1.6,7-2.8,10.7-3.5c2.8,8.1,7,14.6,12.1,18.2C26.5,82.7,18.4,77.6,12.7,70.2z
	 M54.4,84.9c5.1-3.6,9.4-10,12.1-18.2c3.7,0.7,7.3,1.9,10.7,3.5C71.6,77.6,63.5,82.7,54.4,84.9z"/>
</svg>
