<?xml version="1.0" encoding="utf-8"?>
<!-- Generator: Adobe Illustrator 22.1.0, SVG Export Plug-In . SVG Version: 6.00 Build 0)  -->
<svg version="1.1" id="Layer_1" xmlns="http://www.w3.org/2000/svg" xmlns:xlink="http://www.w3.org/1999/xlink" x="0px" y="0px"
	 viewBox="0 0 595.3 47.5" style="enable-background:new 0 0 595.3 47.5;" xml:space="preserve">
<style type="text/css">
	.st0{fill:none;stroke:#000000;stroke-miterlimit:10;}
	.st1{fill:none;stroke:#000000;stroke-width:5.6693;stroke-miterlimit:10;}
	.st2{fill:none;}
	.st3{enable-background:new    ;}
	.st4{fill:#FFFFFF;}
</style>
<g>
	<path class="st0" d="M0,18.2h595.3H0z"/>
	<path class="st1" d="M513.9,15.7"/>
	<path class="st1" d="M529.3,31.1"/>
	<g>
		<path class="st2" d="M535.7,51.2"/>
	</g>
	<g>
		<path class="st2" d="M535.7,31.1"/>
	</g>
	<g>
		<g>
			<path d="M535.7,28.6c-0.2,0-0.3-0.1-0.3-0.3V27c0-0.2,0.1-0.3,0.3-0.3s0.3,0.1,0.3,0.3v1.2C536,28.4,535.9,28.6,535.7,28.6z"/>
		</g>
		<g>
			<path d="M535.7,43.7c-0.2,0-0.3-0.1-0.3-0.3v-2.5c0-0.2,0.1-0.3,0.3-0.3s0.3,0.1,0.3,0.3v2.5C536,43.6,535.9,43.7,535.7,43.7z
				 M535.7,38.7c-0.2,0-0.3-0.1-0.3-0.3v-2.5c0-0.2,0.1-0.3,0.3-0.3s0.3,0.1,0.3,0.3v2.5C536,38.5,535.9,38.7,535.7,38.7z
				 M535.7,33.6c-0.2,0-0.3-0.1-0.3-0.3v-2.5c0-0.2,0.1-0.3,0.3-0.3s0.3,0.1,0.3,0.3v2.5C536,33.5,535.9,33.6,535.7,33.6z"/>
		</g>
		<g>
			<path d="M535.7,47.5c-0.2,0-0.3-0.1-0.3-0.3V46c0-0.2,0.1-0.3,0.3-0.3s0.3,0.1,0.3,0.3v1.2C536,47.3,535.9,47.5,535.7,47.5z"/>
		</g>
	</g>
	<circle cx="535.7" cy="18.2" r="18.2"/>
	<g class="st3">
		<path class="st4" d="M529.5,20.7c0,0.1,0,0.2,0,0.3c0,0.1,0,0.1,0,0.2s0,0.1-0.1,0.1s-0.1,0-0.1,0h-4.1c-0.1,0-0.2,0-0.2,0
			s-0.1,0-0.1-0.1c0,0-0.1-0.1-0.1-0.2s0-0.2,0-0.3c0-0.1,0-0.2,0-0.3c0-0.1,0-0.2,0.1-0.2c0-0.1,0.1-0.1,0.1-0.2s0.1-0.1,0.2-0.2
			l1.2-1.3c0.2-0.3,0.5-0.5,0.6-0.7s0.3-0.4,0.4-0.6c0.1-0.2,0.1-0.3,0.2-0.5c0-0.1,0-0.3,0-0.4s0-0.2-0.1-0.3
			c0-0.1-0.1-0.2-0.2-0.3c-0.1-0.1-0.2-0.1-0.3-0.2c-0.1,0-0.3-0.1-0.4-0.1c-0.2,0-0.4,0-0.6,0.1s-0.3,0.1-0.4,0.2
			c-0.1,0.1-0.2,0.1-0.3,0.2c-0.1,0.1-0.2,0.1-0.2,0.1H525c0,0,0-0.1-0.1-0.1c0-0.1,0-0.1,0-0.2c0-0.1,0-0.2,0-0.3s0-0.2,0-0.2
			s0-0.1,0-0.2v-0.1l0.1-0.1c0,0,0.1-0.1,0.3-0.2c0.1-0.1,0.3-0.1,0.5-0.2c0.2-0.1,0.4-0.1,0.6-0.2c0.2,0,0.4-0.1,0.7-0.1
			c0.4,0,0.7,0,1,0.1s0.5,0.2,0.7,0.4s0.3,0.4,0.4,0.6c0.1,0.2,0.1,0.5,0.1,0.8c0,0.2,0,0.5-0.1,0.7s-0.1,0.5-0.3,0.7
			c-0.1,0.3-0.3,0.6-0.6,0.9s-0.6,0.7-1,1.1l-0.8,0.9h2.8h0.1l0.1,0.1c0,0,0,0.1,0,0.2C529.5,20.5,529.5,20.6,529.5,20.7z"/>
		<path class="st4" d="M535.4,17.7c0,0.6,0,1.1-0.1,1.6s-0.2,0.9-0.5,1.2s-0.5,0.6-0.8,0.8c-0.3,0.2-0.7,0.3-1.2,0.3
			s-0.9-0.1-1.2-0.3c-0.3-0.2-0.6-0.4-0.8-0.7c-0.2-0.3-0.3-0.7-0.4-1.2s-0.1-1-0.1-1.6s0-1.1,0.1-1.6s0.2-0.9,0.5-1.2
			s0.5-0.6,0.8-0.8s0.7-0.3,1.2-0.3s0.9,0.1,1.2,0.3s0.6,0.4,0.8,0.7s0.3,0.7,0.4,1.2C535.4,16.6,535.4,17.1,535.4,17.7z
			 M533.9,17.8c0-0.3,0-0.6,0-0.9s0-0.5-0.1-0.7s-0.1-0.4-0.1-0.5c-0.1-0.1-0.1-0.2-0.2-0.3c-0.1-0.1-0.2-0.1-0.3-0.2
			c-0.1,0-0.2,0-0.3,0c-0.2,0-0.4,0.1-0.5,0.2c-0.1,0.1-0.3,0.3-0.3,0.5s-0.1,0.5-0.2,0.8c0,0.3,0,0.7,0,1.1c0,0.5,0,0.9,0.1,1.3
			c0,0.3,0.1,0.6,0.2,0.8c0.1,0.2,0.2,0.3,0.3,0.4s0.3,0.1,0.5,0.1c0.1,0,0.3,0,0.4-0.1c0.1,0,0.2-0.1,0.3-0.2s0.2-0.2,0.2-0.4
			c0.1-0.1,0.1-0.3,0.1-0.5s0.1-0.4,0.1-0.6C533.9,18.3,533.9,18.1,533.9,17.8z"/>
		<path class="st4" d="M541,20.8c0,0.1,0,0.2,0,0.3c0,0.1,0,0.1,0,0.2s0,0.1-0.1,0.1h-0.1h-4h-0.1c0,0,0,0-0.1-0.1s0-0.1,0-0.2
			s0-0.2,0-0.3c0-0.1,0-0.2,0-0.3c0-0.1,0-0.1,0-0.2s0-0.1,0.1-0.1h0.1h1.3v-4.7l-1.2,0.6c-0.1,0-0.2,0.1-0.2,0.1
			c-0.1,0-0.1,0-0.1,0s-0.1-0.1-0.1-0.2c0-0.1,0-0.2,0-0.3s0-0.2,0-0.2c0-0.1,0-0.1,0-0.1s0-0.1,0.1-0.1l0.1-0.1l1.5-1
			c0,0,0,0,0.1,0h0.1c0,0,0.1,0,0.2,0c0.1,0,0.2,0,0.3,0s0.3,0,0.3,0c0.1,0,0.2,0,0.2,0s0.1,0,0.1,0.1c0,0,0,0,0,0.1v6h1.2h0.1
			l0.1,0.1c0,0,0,0.1,0,0.2C541,20.6,541,20.7,541,20.8z"/>
		<path class="st4" d="M546.9,17.4c0,0.3,0,0.6,0,0.9s-0.1,0.6-0.2,0.9c-0.1,0.3-0.2,0.6-0.3,0.9s-0.3,0.5-0.6,0.7
			c-0.2,0.2-0.5,0.4-0.8,0.5s-0.7,0.2-1.2,0.2c-0.2,0-0.3,0-0.5,0s-0.3,0-0.4-0.1c-0.1,0-0.2-0.1-0.3-0.1s-0.2-0.1-0.2-0.1
			s-0.1-0.1-0.1-0.2s0-0.2,0-0.3c0-0.1,0-0.2,0-0.3c0-0.1,0-0.1,0-0.2c0,0,0-0.1,0.1-0.1h0.1c0,0,0.1,0,0.2,0c0.1,0,0.2,0.1,0.3,0.1
			s0.3,0.1,0.4,0.1s0.3,0,0.5,0c0.3,0,0.6-0.1,0.8-0.2s0.4-0.3,0.5-0.5s0.2-0.4,0.3-0.7c0.1-0.2,0.1-0.5,0.1-0.8
			c-0.2,0.1-0.4,0.2-0.6,0.3c-0.2,0.1-0.5,0.1-0.8,0.1c-0.4,0-0.7,0-1-0.2s-0.5-0.2-0.7-0.4c-0.2-0.2-0.3-0.4-0.4-0.7
			s-0.1-0.6-0.1-0.9c0-0.4,0.1-0.7,0.2-1c0.1-0.3,0.3-0.6,0.5-0.8s0.5-0.4,0.8-0.5s0.7-0.2,1.1-0.2c0.3,0,0.6,0,0.9,0.1
			s0.5,0.2,0.6,0.3c0.2,0.1,0.3,0.3,0.5,0.5s0.2,0.4,0.3,0.7s0.1,0.5,0.1,0.8C546.8,16.8,546.9,17.1,546.9,17.4z M545.4,17.2
			c0-0.4,0-0.7-0.1-1c0-0.3-0.1-0.5-0.2-0.6c-0.1-0.2-0.2-0.3-0.3-0.3c-0.1-0.1-0.3-0.1-0.5-0.1s-0.3,0-0.5,0.1
			c-0.1,0.1-0.2,0.1-0.3,0.3c-0.1,0.1-0.1,0.2-0.2,0.4c0,0.2-0.1,0.3-0.1,0.5s0,0.4,0.1,0.5c0,0.2,0.1,0.3,0.2,0.4s0.2,0.2,0.3,0.2
			s0.3,0.1,0.4,0.1c0.2,0,0.4,0,0.6-0.1S545.3,17.3,545.4,17.2z"/>
	</g>
	<g>
		<g>
			<g>
				<path class="st1" d="M260.1,15.7"/>
				<path class="st1" d="M275.5,31.1"/>
			</g>
		</g>
	</g>
	<g>
		<g>
			<path d="M297.4,28.6c-0.2,0-0.3-0.1-0.3-0.3V27c0-0.2,0.1-0.3,0.3-0.3c0.2,0,0.3,0.1,0.3,0.3v1.2
				C297.7,28.4,297.6,28.6,297.4,28.6z"/>
		</g>
		<g>
			<path d="M297.4,43.7c-0.2,0-0.3-0.1-0.3-0.3v-2.5c0-0.2,0.1-0.3,0.3-0.3c0.2,0,0.3,0.1,0.3,0.3v2.5
				C297.7,43.6,297.6,43.7,297.4,43.7z M297.4,38.7c-0.2,0-0.3-0.1-0.3-0.3v-2.5c0-0.2,0.1-0.3,0.3-0.3c0.2,0,0.3,0.1,0.3,0.3v2.5
				C297.7,38.5,297.6,38.7,297.4,38.7z M297.4,33.6c-0.2,0-0.3-0.1-0.3-0.3v-2.5c0-0.2,0.1-0.3,0.3-0.3c0.2,0,0.3,0.1,0.3,0.3v2.5
				C297.7,33.5,297.6,33.6,297.4,33.6z"/>
		</g>
		<g>
			<path d="M297.4,47.5c-0.2,0-0.3-0.1-0.3-0.3V46c0-0.2,0.1-0.3,0.3-0.3c0.2,0,0.3,0.1,0.3,0.3v1.2
				C297.7,47.3,297.6,47.5,297.4,47.5z"/>
		</g>
	</g>
	<circle cx="297.6" cy="18.2" r="18.2"/>
	<g class="st3">
		<path class="st4" d="M298.7,15.9c0,0.1,0,0.2,0,0.3s0,0.1-0.1,0.2c0,0,0,0.1-0.1,0.1s-0.1,0-0.1,0c-0.1,0-0.3,0-0.5-0.1
			c-0.2-0.1-0.4-0.2-0.6-0.3c-0.2-0.1-0.5-0.3-0.7-0.4s-0.5-0.4-0.7-0.6c-0.2,0.1-0.4,0.1-0.6,0.2c-0.2,0.1-0.5,0.1-0.8,0.1
			c-0.6,0-1-0.1-1.4-0.2c-0.4-0.1-0.8-0.4-1-0.7c-0.3-0.3-0.5-0.7-0.6-1.1c-0.1-0.5-0.2-1-0.2-1.6c0-0.6,0.1-1.1,0.2-1.5
			c0.1-0.5,0.4-0.8,0.7-1.2s0.6-0.6,1.1-0.7c0.4-0.2,0.9-0.3,1.5-0.3c0.5,0,1,0.1,1.4,0.2c0.4,0.1,0.7,0.4,1,0.7
			c0.3,0.3,0.5,0.7,0.6,1.1c0.1,0.4,0.2,1,0.2,1.6c0,0.3,0,0.6-0.1,0.9s-0.1,0.5-0.2,0.8c-0.1,0.2-0.2,0.5-0.3,0.7
			c-0.1,0.2-0.3,0.4-0.4,0.5c0.2,0.2,0.4,0.3,0.6,0.4c0.2,0.1,0.3,0.2,0.4,0.2c0.1,0.1,0.2,0.1,0.3,0.1s0.1,0.1,0.2,0.1
			c0,0,0.1,0.1,0.1,0.2C298.7,15.6,298.7,15.7,298.7,15.9z M296.5,11.7c0-0.4,0-0.7-0.1-1c-0.1-0.3-0.2-0.6-0.3-0.8
			c-0.1-0.2-0.3-0.4-0.6-0.5c-0.2-0.1-0.5-0.2-0.9-0.2c-0.4,0-0.6,0.1-0.9,0.2c-0.2,0.1-0.4,0.3-0.6,0.5c-0.1,0.2-0.2,0.5-0.3,0.8
			s-0.1,0.6-0.1,0.9c0,0.4,0,0.7,0.1,1.1c0.1,0.3,0.2,0.6,0.3,0.8c0.1,0.2,0.3,0.4,0.6,0.5c0.2,0.1,0.5,0.2,0.9,0.2
			c0.4,0,0.6-0.1,0.9-0.2c0.2-0.1,0.4-0.3,0.6-0.5c0.1-0.2,0.2-0.5,0.3-0.8C296.5,12.3,296.5,12,296.5,11.7z"/>
		<path class="st4" d="M304.1,13.2c0,0.2,0,0.3-0.1,0.4c0,0.1-0.1,0.1-0.2,0.1h-0.6V15c0,0,0,0.1,0,0.1s-0.1,0-0.1,0.1
			c-0.1,0-0.1,0-0.2,0c-0.1,0-0.2,0-0.3,0c-0.1,0-0.2,0-0.3,0c-0.1,0-0.2,0-0.2,0c-0.1,0-0.1,0-0.1-0.1s0-0.1,0-0.1v-1.3h-2.7
			c-0.1,0-0.1,0-0.1,0c0,0-0.1,0-0.1-0.1c0,0,0-0.1-0.1-0.2c0-0.1,0-0.2,0-0.3c0-0.1,0-0.2,0-0.3c0-0.1,0-0.2,0-0.2s0-0.1,0.1-0.2
			c0-0.1,0.1-0.1,0.1-0.2l2.2-3.9c0,0,0-0.1,0.1-0.1c0,0,0.1,0,0.2-0.1s0.2,0,0.3,0c0.1,0,0.3,0,0.4,0c0.2,0,0.3,0,0.5,0
			c0.1,0,0.2,0,0.3,0c0.1,0,0.1,0,0.2,0.1c0,0,0.1,0.1,0.1,0.1v4.3h0.6c0.1,0,0.1,0,0.2,0.1C304,12.8,304.1,13,304.1,13.2z
			 M301.8,9.4L301.8,9.4l-1.9,3.3h1.9V9.4z"/>
	</g>
	<g class="st3">
		<path class="st4" d="M291.4,26c0,0.1,0,0.2,0,0.3c0,0.1,0,0.1,0,0.2c0,0,0,0.1-0.1,0.1c0,0-0.1,0-0.1,0h-4.1c-0.1,0-0.1,0-0.2,0
			c-0.1,0-0.1,0-0.1-0.1c0,0-0.1-0.1-0.1-0.2c0-0.1,0-0.2,0-0.3c0-0.1,0-0.2,0-0.3s0-0.2,0.1-0.2c0-0.1,0.1-0.1,0.1-0.2
			c0-0.1,0.1-0.1,0.2-0.2l1.2-1.3c0.2-0.3,0.4-0.5,0.6-0.7c0.1-0.2,0.3-0.4,0.3-0.6c0.1-0.2,0.1-0.3,0.2-0.5s0-0.3,0-0.4
			c0-0.1,0-0.2-0.1-0.3c0-0.1-0.1-0.2-0.2-0.3c-0.1-0.1-0.2-0.1-0.3-0.2c-0.1,0-0.2-0.1-0.4-0.1c-0.2,0-0.4,0-0.6,0.1
			s-0.3,0.1-0.4,0.2s-0.2,0.1-0.3,0.2c-0.1,0.1-0.2,0.1-0.2,0.1c0,0-0.1,0-0.1,0c0,0,0-0.1-0.1-0.1c0-0.1,0-0.1,0-0.2
			c0-0.1,0-0.2,0-0.3c0-0.1,0-0.2,0-0.2c0-0.1,0-0.1,0-0.1c0,0,0-0.1,0-0.1s0-0.1,0.1-0.1s0.1-0.1,0.3-0.2c0.1-0.1,0.3-0.1,0.5-0.2
			c0.2-0.1,0.4-0.1,0.6-0.2c0.2,0,0.4-0.1,0.7-0.1c0.4,0,0.7,0,1,0.1s0.5,0.2,0.7,0.4c0.2,0.2,0.3,0.4,0.4,0.6
			c0.1,0.2,0.1,0.5,0.1,0.7c0,0.2,0,0.5-0.1,0.7s-0.1,0.5-0.3,0.7s-0.3,0.5-0.6,0.9c-0.3,0.3-0.6,0.7-1,1.1l-0.8,0.8h2.8
			c0,0,0.1,0,0.1,0c0,0,0.1,0.1,0.1,0.1c0,0,0,0.1,0,0.2C291.4,25.9,291.4,25.9,291.4,26z"/>
		<path class="st4" d="M297.3,23.1c0,0.6,0,1.1-0.1,1.5c-0.1,0.5-0.2,0.8-0.4,1.2s-0.5,0.6-0.8,0.7s-0.7,0.3-1.2,0.3
			c-0.5,0-0.9-0.1-1.2-0.3s-0.6-0.4-0.8-0.7c-0.2-0.3-0.3-0.7-0.4-1.1c-0.1-0.5-0.1-1-0.1-1.5c0-0.6,0-1.1,0.1-1.5s0.2-0.8,0.4-1.2
			s0.5-0.6,0.8-0.7c0.3-0.2,0.7-0.3,1.2-0.3c0.5,0,0.9,0.1,1.2,0.2s0.6,0.4,0.8,0.7c0.2,0.3,0.3,0.7,0.4,1.1
			C297.2,22,297.3,22.5,297.3,23.1z M295.8,23.1c0-0.3,0-0.6,0-0.9c0-0.3,0-0.5-0.1-0.7s-0.1-0.4-0.1-0.5s-0.1-0.2-0.2-0.3
			s-0.2-0.1-0.3-0.2c-0.1,0-0.2,0-0.3,0c-0.2,0-0.4,0.1-0.5,0.2c-0.1,0.1-0.3,0.3-0.3,0.5s-0.1,0.5-0.2,0.8c0,0.3,0,0.7,0,1.1
			c0,0.5,0,0.9,0.1,1.3c0,0.3,0.1,0.6,0.2,0.8c0.1,0.2,0.2,0.3,0.3,0.4c0.1,0.1,0.3,0.1,0.5,0.1c0.1,0,0.3,0,0.4-0.1
			c0.1,0,0.2-0.1,0.3-0.2s0.2-0.2,0.2-0.3c0.1-0.1,0.1-0.3,0.1-0.5c0-0.2,0.1-0.4,0.1-0.6C295.8,23.7,295.8,23.4,295.8,23.1z"/>
		<path class="st4" d="M302.7,26.1c0,0.1,0,0.2,0,0.3c0,0.1,0,0.1,0,0.2c0,0,0,0.1-0.1,0.1c0,0-0.1,0-0.1,0h-3.9c0,0-0.1,0-0.1,0
			c0,0,0,0-0.1-0.1c0,0,0-0.1,0-0.2c0-0.1,0-0.2,0-0.3c0-0.1,0-0.2,0-0.3c0-0.1,0-0.1,0-0.2c0,0,0-0.1,0.1-0.1c0,0,0.1,0,0.1,0h1.3
			v-4.6l-1.1,0.6c-0.1,0-0.2,0.1-0.2,0.1s-0.1,0-0.1,0c0,0-0.1-0.1-0.1-0.2c0-0.1,0-0.2,0-0.3c0-0.1,0-0.2,0-0.2c0-0.1,0-0.1,0-0.1
			c0,0,0-0.1,0.1-0.1s0.1-0.1,0.1-0.1l1.5-1c0,0,0,0,0.1,0s0.1,0,0.1,0c0,0,0.1,0,0.2,0c0.1,0,0.2,0,0.3,0c0.1,0,0.3,0,0.3,0
			c0.1,0,0.2,0,0.2,0c0,0,0.1,0,0.1,0.1c0,0,0,0,0,0.1v5.9h1.2c0,0,0.1,0,0.1,0s0.1,0.1,0.1,0.1c0,0,0,0.1,0,0.2
			C302.7,25.9,302.7,26,302.7,26.1z"/>
		<path class="st4" d="M308.5,20.2c0,0.1,0,0.2,0,0.3c0,0.1,0,0.2,0,0.2s0,0.1-0.1,0.2c0,0.1,0,0.1-0.1,0.2l-2.3,5.4
			c0,0,0,0.1-0.1,0.1c0,0-0.1,0.1-0.1,0.1c-0.1,0-0.1,0-0.2,0s-0.2,0-0.4,0c-0.2,0-0.3,0-0.5,0c-0.1,0-0.2,0-0.2-0.1
			s-0.1-0.1-0.1-0.1c0,0,0-0.1,0-0.2l2.5-5.5h-3c-0.1,0-0.1,0-0.2-0.2c0-0.1-0.1-0.3-0.1-0.5c0-0.1,0-0.2,0-0.3c0-0.1,0-0.1,0-0.2
			c0-0.1,0-0.1,0.1-0.1c0,0,0.1,0,0.1,0h4.2c0.1,0,0.1,0,0.2,0s0.1,0,0.1,0.1c0,0,0,0.1,0.1,0.2S308.5,20,308.5,20.2z"/>
	</g>
	<g>
		<g>
			<g>
				<path class="st1" d="M131.3,15.7"/>
				<path class="st1" d="M146.7,31.1"/>
			</g>
		</g>
		<path class="st1" d="M130.3,18.5"/>
		<path class="st1" d="M144.1,32.3"/>
	</g>
	<g>
		<path class="st1" d="M220.2,20.7"/>
		<path class="st1" d="M204.8,5.4"/>
	</g>
	<path class="st1" d="M181.4,18"/>
	<path class="st1" d="M167.6,4.2"/>
	<g>
		<g>
			<path d="M178.4,28.2c-0.2,0-0.3-0.1-0.3-0.3v-1.2c0-0.2,0.1-0.3,0.3-0.3s0.3,0.1,0.3,0.3v1.2C178.7,28,178.5,28.2,178.4,28.2z"/>
		</g>
		<g>
			<path d="M178.4,43.3c-0.2,0-0.3-0.1-0.3-0.3v-2.5c0-0.2,0.1-0.3,0.3-0.3s0.3,0.1,0.3,0.3V43C178.7,43.2,178.5,43.3,178.4,43.3z
				 M178.4,38.3c-0.2,0-0.3-0.1-0.3-0.3v-2.5c0-0.2,0.1-0.3,0.3-0.3s0.3,0.1,0.3,0.3V38C178.7,38.1,178.5,38.3,178.4,38.3z
				 M178.4,33.2c-0.2,0-0.3-0.1-0.3-0.3v-2.5c0-0.2,0.1-0.3,0.3-0.3s0.3,0.1,0.3,0.3v2.5C178.7,33.1,178.5,33.2,178.4,33.2z"/>
		</g>
		<g>
			<path d="M178.4,47.1c-0.2,0-0.3-0.1-0.3-0.3v-1.2c0-0.2,0.1-0.3,0.3-0.3s0.3,0.1,0.3,0.3v1.2C178.7,46.9,178.5,47.1,178.4,47.1z"
				/>
		</g>
	</g>
	<circle cx="178.6" cy="18.2" r="18.2"/>
	<g class="st3">
		<path class="st4" d="M179.6,15.9c0,0.1,0,0.2,0,0.3s0,0.1-0.1,0.2c0,0,0,0.1-0.1,0.1s-0.1,0-0.1,0c-0.1,0-0.3,0-0.5-0.1
			c-0.2-0.1-0.4-0.2-0.6-0.3c-0.2-0.1-0.5-0.3-0.7-0.4s-0.5-0.4-0.7-0.6c-0.2,0.1-0.4,0.1-0.6,0.2c-0.2,0.1-0.5,0.1-0.8,0.1
			c-0.6,0-1-0.1-1.4-0.2c-0.4-0.1-0.8-0.4-1-0.7c-0.3-0.3-0.5-0.7-0.6-1.1c-0.1-0.5-0.2-1-0.2-1.6c0-0.6,0.1-1.1,0.2-1.5
			c0.1-0.5,0.4-0.8,0.7-1.2s0.6-0.6,1.1-0.7c0.4-0.2,0.9-0.3,1.5-0.3c0.5,0,1,0.1,1.4,0.2c0.4,0.1,0.7,0.4,1,0.7
			c0.3,0.3,0.5,0.7,0.6,1.1c0.1,0.4,0.2,1,0.2,1.6c0,0.3,0,0.6-0.1,0.9s-0.1,0.5-0.2,0.8c-0.1,0.2-0.2,0.5-0.3,0.7
			c-0.1,0.2-0.3,0.4-0.4,0.5c0.2,0.2,0.4,0.3,0.6,0.4c0.2,0.1,0.3,0.2,0.4,0.2c0.1,0.1,0.2,0.1,0.3,0.1s0.1,0.1,0.2,0.1
			c0,0,0.1,0.1,0.1,0.2C179.6,15.6,179.6,15.7,179.6,15.9z M177.4,11.7c0-0.4,0-0.7-0.1-1c-0.1-0.3-0.2-0.6-0.3-0.8
			c-0.1-0.2-0.3-0.4-0.6-0.5c-0.2-0.1-0.5-0.2-0.9-0.2c-0.4,0-0.6,0.1-0.9,0.2c-0.2,0.1-0.4,0.3-0.6,0.5c-0.1,0.2-0.2,0.5-0.3,0.8
			s-0.1,0.6-0.1,0.9c0,0.4,0,0.7,0.1,1.1c0.1,0.3,0.2,0.6,0.3,0.8c0.1,0.2,0.3,0.4,0.6,0.5c0.2,0.1,0.5,0.2,0.9,0.2
			c0.4,0,0.6-0.1,0.9-0.2c0.2-0.1,0.4-0.3,0.6-0.5c0.1-0.2,0.2-0.5,0.3-0.8C177.4,12.3,177.4,12,177.4,11.7z"/>
		<path class="st4" d="M184.7,13.2c0,0.4-0.1,0.7-0.2,0.9c-0.1,0.3-0.3,0.5-0.6,0.7c-0.2,0.2-0.5,0.3-0.9,0.4s-0.7,0.1-1.1,0.1
			c-0.2,0-0.5,0-0.7-0.1c-0.2,0-0.4-0.1-0.6-0.1c-0.2-0.1-0.3-0.1-0.4-0.2c-0.1-0.1-0.2-0.1-0.2-0.1s-0.1-0.1-0.1-0.1
			c0,0,0-0.1,0-0.1c0,0,0-0.1,0-0.2c0-0.1,0-0.2,0-0.3c0-0.2,0-0.3,0-0.4s0.1-0.1,0.1-0.1c0,0,0.1,0,0.2,0.1c0.1,0,0.2,0.1,0.3,0.2
			s0.3,0.1,0.5,0.2c0.2,0,0.4,0.1,0.6,0.1c0.2,0,0.4,0,0.5-0.1c0.2,0,0.3-0.1,0.4-0.2s0.2-0.2,0.2-0.3c0.1-0.1,0.1-0.3,0.1-0.4
			c0-0.2,0-0.3-0.1-0.4c-0.1-0.1-0.2-0.2-0.3-0.3s-0.3-0.2-0.5-0.2c-0.2-0.1-0.4-0.1-0.7-0.1h-0.6c0,0-0.1,0-0.1,0
			c0,0-0.1,0-0.1-0.1c0,0,0-0.1,0-0.2c0-0.1,0-0.2,0-0.3c0-0.1,0-0.2,0-0.3c0-0.1,0-0.1,0-0.2c0,0,0-0.1,0.1-0.1c0,0,0.1,0,0.1,0
			h0.6c0.2,0,0.4,0,0.6-0.1c0.2,0,0.3-0.1,0.4-0.2c0.1-0.1,0.2-0.2,0.3-0.3c0.1-0.1,0.1-0.3,0.1-0.4c0-0.1,0-0.2-0.1-0.3
			c0-0.1-0.1-0.2-0.2-0.3c-0.1-0.1-0.2-0.1-0.3-0.2c-0.1,0-0.3-0.1-0.4-0.1c-0.2,0-0.4,0-0.5,0.1c-0.2,0.1-0.3,0.1-0.5,0.2
			c-0.1,0.1-0.2,0.1-0.3,0.2c-0.1,0.1-0.2,0.1-0.2,0.1c0,0-0.1,0-0.1,0s0,0-0.1-0.1c0,0,0-0.1,0-0.2s0-0.2,0-0.3c0-0.1,0-0.2,0-0.2
			c0-0.1,0-0.1,0-0.2c0,0,0-0.1,0-0.1c0,0,0-0.1,0.1-0.1c0,0,0.1-0.1,0.2-0.2c0.1-0.1,0.3-0.1,0.4-0.2s0.4-0.1,0.6-0.2
			c0.2,0,0.5-0.1,0.7-0.1c0.3,0,0.6,0,0.9,0.1c0.3,0.1,0.5,0.2,0.7,0.3s0.3,0.3,0.4,0.6c0.1,0.2,0.1,0.5,0.1,0.7
			c0,0.2,0,0.4-0.1,0.6c-0.1,0.2-0.1,0.4-0.2,0.5c-0.1,0.1-0.2,0.3-0.4,0.4c-0.2,0.1-0.3,0.2-0.6,0.2v0c0.2,0,0.5,0.1,0.7,0.2
			c0.2,0.1,0.4,0.2,0.5,0.4c0.1,0.1,0.2,0.3,0.3,0.5C184.6,12.8,184.7,12.9,184.7,13.2z"/>
	</g>
	<g class="st3">
		<path class="st4" d="M172.3,26c0,0.1,0,0.2,0,0.3c0,0.1,0,0.1,0,0.2c0,0,0,0.1-0.1,0.1c0,0-0.1,0-0.1,0H168c-0.1,0-0.1,0-0.2,0
			c-0.1,0-0.1,0-0.1-0.1c0,0-0.1-0.1-0.1-0.2c0-0.1,0-0.2,0-0.3c0-0.1,0-0.2,0-0.3c0-0.1,0-0.2,0.1-0.2c0-0.1,0.1-0.1,0.1-0.2
			c0-0.1,0.1-0.1,0.2-0.2l1.2-1.3c0.2-0.3,0.4-0.5,0.6-0.7c0.1-0.2,0.3-0.4,0.4-0.6c0.1-0.2,0.1-0.3,0.2-0.5c0-0.1,0-0.3,0-0.4
			c0-0.1,0-0.2-0.1-0.3c0-0.1-0.1-0.2-0.2-0.3c-0.1-0.1-0.2-0.1-0.3-0.2c-0.1,0-0.2-0.1-0.4-0.1c-0.2,0-0.4,0-0.6,0.1
			s-0.3,0.1-0.4,0.2s-0.2,0.1-0.3,0.2c-0.1,0.1-0.1,0.1-0.2,0.1c0,0-0.1,0-0.1,0c0,0,0-0.1-0.1-0.1c0-0.1,0-0.1,0-0.2
			c0-0.1,0-0.2,0-0.3c0-0.1,0-0.2,0-0.2c0-0.1,0-0.1,0-0.1c0,0,0-0.1,0-0.1c0,0,0-0.1,0.1-0.1c0,0,0.1-0.1,0.3-0.2
			c0.1-0.1,0.3-0.1,0.5-0.2c0.2-0.1,0.4-0.1,0.6-0.2c0.2,0,0.4-0.1,0.7-0.1c0.4,0,0.7,0,1,0.1s0.5,0.2,0.7,0.4
			c0.2,0.2,0.3,0.4,0.4,0.6s0.1,0.5,0.1,0.7c0,0.2,0,0.5-0.1,0.7c0,0.2-0.1,0.5-0.3,0.7s-0.3,0.5-0.6,0.9s-0.6,0.7-1,1.1l-0.8,0.8
			h2.8c0,0,0.1,0,0.1,0c0,0,0.1,0.1,0.1,0.1c0,0,0,0.1,0,0.2C172.3,25.9,172.3,25.9,172.3,26z"/>
		<path class="st4" d="M178.1,23.1c0,0.6,0,1.1-0.1,1.5c-0.1,0.5-0.2,0.8-0.4,1.2s-0.5,0.6-0.8,0.7s-0.7,0.3-1.2,0.3
			c-0.5,0-0.9-0.1-1.2-0.3s-0.6-0.4-0.8-0.7c-0.2-0.3-0.3-0.7-0.4-1.1c-0.1-0.5-0.1-1-0.1-1.5c0-0.6,0-1.1,0.1-1.5
			c0.1-0.5,0.2-0.8,0.4-1.2s0.5-0.6,0.8-0.7c0.3-0.2,0.7-0.3,1.2-0.3c0.5,0,0.9,0.1,1.2,0.2s0.6,0.4,0.8,0.7s0.3,0.7,0.4,1.1
			C178.1,22,178.1,22.5,178.1,23.1z M176.7,23.1c0-0.3,0-0.6,0-0.9c0-0.3,0-0.5-0.1-0.7c0-0.2-0.1-0.4-0.1-0.5s-0.1-0.2-0.2-0.3
			s-0.2-0.1-0.3-0.2s-0.2,0-0.3,0c-0.2,0-0.4,0.1-0.5,0.2c-0.1,0.1-0.3,0.3-0.3,0.5s-0.1,0.5-0.2,0.8c0,0.3,0,0.7,0,1.1
			c0,0.5,0,0.9,0.1,1.3c0,0.3,0.1,0.6,0.2,0.8c0.1,0.2,0.2,0.3,0.3,0.4c0.1,0.1,0.3,0.1,0.5,0.1c0.1,0,0.3,0,0.4-0.1
			c0.1,0,0.2-0.1,0.3-0.2s0.2-0.2,0.2-0.3c0.1-0.1,0.1-0.3,0.1-0.5s0.1-0.4,0.1-0.6C176.7,23.7,176.7,23.4,176.7,23.1z"/>
		<path class="st4" d="M183.6,26.1c0,0.1,0,0.2,0,0.3c0,0.1,0,0.1,0,0.2c0,0,0,0.1-0.1,0.1c0,0-0.1,0-0.1,0h-3.9c0,0-0.1,0-0.1,0
			c0,0,0,0-0.1-0.1c0,0,0-0.1,0-0.2c0-0.1,0-0.2,0-0.3c0-0.1,0-0.2,0-0.3c0-0.1,0-0.1,0-0.2s0-0.1,0.1-0.1c0,0,0.1,0,0.1,0h1.3v-4.6
			l-1.1,0.6c-0.1,0-0.2,0.1-0.2,0.1c-0.1,0-0.1,0-0.1,0c0,0-0.1-0.1-0.1-0.2c0-0.1,0-0.2,0-0.3c0-0.1,0-0.2,0-0.2c0-0.1,0-0.1,0-0.1
			c0,0,0-0.1,0.1-0.1s0.1-0.1,0.1-0.1l1.5-1c0,0,0,0,0.1,0s0.1,0,0.1,0c0,0,0.1,0,0.2,0c0.1,0,0.2,0,0.3,0c0.1,0,0.3,0,0.3,0
			c0.1,0,0.2,0,0.2,0c0,0,0.1,0,0.1,0.1c0,0,0,0,0,0.1v5.9h1.2c0,0,0.1,0,0.1,0s0.1,0.1,0.1,0.1s0,0.1,0,0.2
			C183.6,25.9,183.6,26,183.6,26.1z"/>
		<path class="st4" d="M189.4,20.2c0,0.1,0,0.2,0,0.3s0,0.2,0,0.2s0,0.1-0.1,0.2s0,0.1-0.1,0.2l-2.3,5.4c0,0,0,0.1-0.1,0.1
			s-0.1,0.1-0.1,0.1s-0.1,0-0.2,0s-0.2,0-0.4,0c-0.2,0-0.3,0-0.5,0c-0.1,0-0.2,0-0.2-0.1s-0.1-0.1-0.1-0.1c0,0,0-0.1,0-0.2l2.5-5.5
			h-3c-0.1,0-0.1,0-0.2-0.2c0-0.1-0.1-0.3-0.1-0.5c0-0.1,0-0.2,0-0.3c0-0.1,0-0.1,0-0.2c0-0.1,0-0.1,0.1-0.1c0,0,0.1,0,0.1,0h4.2
			c0.1,0,0.1,0,0.2,0c0,0,0.1,0,0.1,0.1c0,0,0,0.1,0.1,0.2S189.4,20,189.4,20.2z"/>
	</g>
	<g>
		<path class="st1" d="M72.6,20.9"/>
		<path class="st1" d="M57.2,5.5"/>
	</g>
	<path class="st1" d="M73.6,18"/>
	<path class="st1" d="M59.8,4.3"/>
	<circle cx="59.5" cy="18.2" r="18.2"/>
	<g class="st3">
		<path class="st4" d="M60.4,15.9c0,0.1,0,0.2,0,0.3s0,0.1-0.1,0.2c0,0,0,0.1-0.1,0.1s-0.1,0-0.1,0c-0.1,0-0.3,0-0.5-0.1
			c-0.2-0.1-0.4-0.2-0.6-0.3c-0.2-0.1-0.5-0.3-0.7-0.4s-0.5-0.4-0.7-0.6c-0.2,0.1-0.4,0.1-0.6,0.2c-0.2,0.1-0.5,0.1-0.8,0.1
			c-0.6,0-1-0.1-1.4-0.2s-0.8-0.4-1-0.7c-0.3-0.3-0.5-0.7-0.6-1.1c-0.1-0.5-0.2-1-0.2-1.6c0-0.6,0.1-1.1,0.2-1.5
			c0.1-0.5,0.4-0.8,0.7-1.2s0.6-0.6,1.1-0.7C55.4,8.1,55.9,8,56.4,8c0.5,0,1,0.1,1.4,0.2c0.4,0.1,0.7,0.4,1,0.7
			c0.3,0.3,0.5,0.7,0.6,1.1c0.1,0.4,0.2,1,0.2,1.6c0,0.3,0,0.6-0.1,0.9s-0.1,0.5-0.2,0.8c-0.1,0.2-0.2,0.5-0.3,0.7
			c-0.1,0.2-0.3,0.4-0.4,0.5c0.2,0.2,0.4,0.3,0.6,0.4c0.2,0.1,0.3,0.2,0.4,0.2c0.1,0.1,0.2,0.1,0.3,0.1s0.1,0.1,0.2,0.1
			c0,0,0.1,0.1,0.1,0.2S60.4,15.7,60.4,15.9z M58.2,11.7c0-0.4,0-0.7-0.1-1c-0.1-0.3-0.2-0.6-0.3-0.8s-0.3-0.4-0.6-0.5
			c-0.2-0.1-0.5-0.2-0.9-0.2c-0.4,0-0.6,0.1-0.9,0.2c-0.2,0.1-0.4,0.3-0.6,0.5c-0.1,0.2-0.2,0.5-0.3,0.8c-0.1,0.3-0.1,0.6-0.1,0.9
			c0,0.4,0,0.7,0.1,1.1c0.1,0.3,0.2,0.6,0.3,0.8c0.1,0.2,0.3,0.4,0.6,0.5c0.2,0.1,0.5,0.2,0.9,0.2s0.6-0.1,0.9-0.2
			c0.2-0.1,0.4-0.3,0.6-0.5c0.1-0.2,0.2-0.5,0.3-0.8C58.2,12.3,58.2,12,58.2,11.7z"/>
		<path class="st4" d="M65.4,14.7c0,0.1,0,0.2,0,0.3s0,0.1,0,0.2c0,0,0,0.1-0.1,0.1s-0.1,0-0.1,0h-3.9c0,0-0.1,0-0.1,0s0,0-0.1-0.1
			c0,0,0-0.1,0-0.2c0-0.1,0-0.2,0-0.3c0-0.1,0-0.2,0-0.3c0-0.1,0-0.1,0-0.2c0,0,0-0.1,0.1-0.1c0,0,0.1,0,0.1,0h1.3V9.5l-1.1,0.6
			c-0.1,0-0.2,0.1-0.2,0.1s-0.1,0-0.1,0c0,0-0.1-0.1-0.1-0.2c0-0.1,0-0.2,0-0.3c0-0.1,0-0.2,0-0.2c0-0.1,0-0.1,0-0.1
			c0,0,0-0.1,0.1-0.1s0.1-0.1,0.1-0.1l1.5-1c0,0,0,0,0.1,0s0.1,0,0.1,0c0,0,0.1,0,0.2,0c0.1,0,0.2,0,0.3,0c0.1,0,0.3,0,0.3,0
			c0.1,0,0.2,0,0.2,0c0,0,0.1,0,0.1,0.1c0,0,0,0,0,0.1v5.8h1.2c0,0,0.1,0,0.1,0c0,0,0.1,0.1,0.1,0.1c0,0,0,0.1,0,0.2
			C65.4,14.5,65.4,14.6,65.4,14.7z"/>
	</g>
	<g class="st3">
		<path class="st4" d="M53.1,26c0,0.1,0,0.2,0,0.3c0,0.1,0,0.1,0,0.2c0,0,0,0.1-0.1,0.1c0,0-0.1,0-0.1,0h-4.1c-0.1,0-0.1,0-0.2,0
			c-0.1,0-0.1,0-0.1-0.1c0,0-0.1-0.1-0.1-0.2c0-0.1,0-0.2,0-0.3c0-0.1,0-0.2,0-0.3c0-0.1,0-0.2,0.1-0.2c0-0.1,0.1-0.1,0.1-0.2
			c0-0.1,0.1-0.1,0.2-0.2l1.2-1.3c0.2-0.3,0.4-0.5,0.6-0.7c0.1-0.2,0.3-0.4,0.4-0.6c0.1-0.2,0.1-0.3,0.2-0.5c0-0.1,0-0.3,0-0.4
			c0-0.1,0-0.2-0.1-0.3c0-0.1-0.1-0.2-0.2-0.3c-0.1-0.1-0.2-0.1-0.3-0.2c-0.1,0-0.2-0.1-0.4-0.1c-0.2,0-0.4,0-0.6,0.1
			s-0.3,0.1-0.4,0.2s-0.2,0.1-0.3,0.2c-0.1,0.1-0.1,0.1-0.2,0.1c0,0-0.1,0-0.1,0c0,0,0-0.1-0.1-0.1c0-0.1,0-0.1,0-0.2
			c0-0.1,0-0.2,0-0.3c0-0.1,0-0.2,0-0.2c0-0.1,0-0.1,0-0.1c0,0,0-0.1,0-0.1c0,0,0-0.1,0.1-0.1c0,0,0.1-0.1,0.3-0.2
			c0.1-0.1,0.3-0.1,0.5-0.2c0.2-0.1,0.4-0.1,0.6-0.2c0.2,0,0.4-0.1,0.7-0.1c0.4,0,0.7,0,1,0.1s0.5,0.2,0.7,0.4
			c0.2,0.2,0.3,0.4,0.4,0.6s0.1,0.5,0.1,0.7c0,0.2,0,0.5-0.1,0.7c0,0.2-0.1,0.5-0.3,0.7s-0.3,0.5-0.6,0.9s-0.6,0.7-1,1.1l-0.8,0.8
			h2.8c0,0,0.1,0,0.1,0c0,0,0.1,0.1,0.1,0.1c0,0,0,0.1,0,0.2C53.1,25.9,53.1,25.9,53.1,26z"/>
		<path class="st4" d="M58.9,23.1c0,0.6,0,1.1-0.1,1.5c-0.1,0.5-0.2,0.8-0.4,1.2s-0.5,0.6-0.8,0.7s-0.7,0.3-1.2,0.3
			c-0.5,0-0.9-0.1-1.2-0.3s-0.6-0.4-0.8-0.7c-0.2-0.3-0.3-0.7-0.4-1.1c-0.1-0.5-0.1-1-0.1-1.5c0-0.6,0-1.1,0.1-1.5
			c0.1-0.5,0.2-0.8,0.4-1.2s0.5-0.6,0.8-0.7c0.3-0.2,0.7-0.3,1.2-0.3c0.5,0,0.9,0.1,1.2,0.2s0.6,0.4,0.8,0.7s0.3,0.7,0.4,1.1
			C58.9,22,58.9,22.5,58.9,23.1z M57.5,23.1c0-0.3,0-0.6,0-0.9c0-0.3,0-0.5-0.1-0.7c0-0.2-0.1-0.4-0.1-0.5s-0.1-0.2-0.2-0.3
			s-0.2-0.1-0.3-0.2s-0.2,0-0.3,0c-0.2,0-0.4,0.1-0.5,0.2c-0.1,0.1-0.3,0.3-0.3,0.5s-0.1,0.5-0.2,0.8c0,0.3,0,0.7,0,1.1
			c0,0.5,0,0.9,0.1,1.3c0,0.3,0.1,0.6,0.2,0.8c0.1,0.2,0.2,0.3,0.3,0.4c0.1,0.1,0.3,0.1,0.5,0.1c0.1,0,0.3,0,0.4-0.1
			c0.1,0,0.2-0.1,0.3-0.2s0.2-0.2,0.2-0.3c0.1-0.1,0.1-0.3,0.1-0.5s0.1-0.4,0.1-0.6C57.5,23.7,57.5,23.4,57.5,23.1z"/>
		<path class="st4" d="M64.4,26.1c0,0.1,0,0.2,0,0.3c0,0.1,0,0.1,0,0.2c0,0,0,0.1-0.1,0.1c0,0-0.1,0-0.1,0h-3.9c0,0-0.1,0-0.1,0
			c0,0,0,0-0.1-0.1c0,0,0-0.1,0-0.2c0-0.1,0-0.2,0-0.3c0-0.1,0-0.2,0-0.3c0-0.1,0-0.1,0-0.2s0-0.1,0.1-0.1c0,0,0.1,0,0.1,0h1.3v-4.6
			l-1.1,0.6c-0.1,0-0.2,0.1-0.2,0.1c-0.1,0-0.1,0-0.1,0c0,0-0.1-0.1-0.1-0.2c0-0.1,0-0.2,0-0.3c0-0.1,0-0.2,0-0.2c0-0.1,0-0.1,0-0.1
			c0,0,0-0.1,0.1-0.1s0.1-0.1,0.1-0.1l1.5-1c0,0,0,0,0.1,0s0.1,0,0.1,0c0,0,0.1,0,0.2,0c0.1,0,0.2,0,0.3,0c0.1,0,0.3,0,0.3,0
			c0.1,0,0.2,0,0.2,0c0,0,0.1,0,0.1,0.1c0,0,0,0,0,0.1v5.9h1.2c0,0,0.1,0,0.1,0s0.1,0.1,0.1,0.1s0,0.1,0,0.2
			C64.4,25.9,64.4,26,64.4,26.1z"/>
		<path class="st4" d="M70.2,20.2c0,0.1,0,0.2,0,0.3s0,0.2,0,0.2s0,0.1-0.1,0.2S70,21,70,21l-2.3,5.4c0,0,0,0.1-0.1,0.1
			s-0.1,0.1-0.1,0.1s-0.1,0-0.2,0s-0.2,0-0.4,0c-0.2,0-0.3,0-0.5,0c-0.1,0-0.2,0-0.2-0.1S66,26.5,66,26.5c0,0,0-0.1,0-0.2l2.5-5.5
			h-3c-0.1,0-0.1,0-0.2-0.2c0-0.1-0.1-0.3-0.1-0.5c0-0.1,0-0.2,0-0.3c0-0.1,0-0.1,0-0.2c0-0.1,0-0.1,0.1-0.1c0,0,0.1,0,0.1,0h4.2
			c0.1,0,0.1,0,0.2,0c0,0,0.1,0,0.1,0.1c0,0,0,0.1,0.1,0.2S70.2,20,70.2,20.2z"/>
	</g>
	<g>
		<g>
			<path d="M59.5,28.4c-0.2,0-0.3-0.1-0.3-0.3v-1.2c0-0.2,0.1-0.3,0.3-0.3s0.3,0.1,0.3,0.3v1.2C59.8,28.2,59.7,28.4,59.5,28.4z"/>
		</g>
		<g>
			<path d="M59.5,43.5c-0.2,0-0.3-0.1-0.3-0.3v-2.5c0-0.2,0.1-0.3,0.3-0.3s0.3,0.1,0.3,0.3v2.5C59.8,43.4,59.7,43.5,59.5,43.5z
				 M59.5,38.5c-0.2,0-0.3-0.1-0.3-0.3v-2.5c0-0.2,0.1-0.3,0.3-0.3s0.3,0.1,0.3,0.3v2.5C59.8,38.3,59.7,38.5,59.5,38.5z M59.5,33.4
				c-0.2,0-0.3-0.1-0.3-0.3v-2.5c0-0.2,0.1-0.3,0.3-0.3s0.3,0.1,0.3,0.3v2.5C59.8,33.3,59.7,33.4,59.5,33.4z"/>
		</g>
		<g>
			<path d="M59.5,47.3c-0.2,0-0.3-0.1-0.3-0.3v-1.2c0-0.2,0.1-0.3,0.3-0.3s0.3,0.1,0.3,0.3V47C59.8,47.1,59.7,47.3,59.5,47.3z"/>
		</g>
	</g>
	<g>
		<g>
			<path d="M416.7,28.6c-0.2,0-0.3-0.1-0.3-0.3V27c0-0.2,0.1-0.3,0.3-0.3c0.2,0,0.3,0.1,0.3,0.3v1.2C417,28.4,416.9,28.6,416.7,28.6
				z"/>
		</g>
		<g>
			<path d="M416.7,43.7c-0.2,0-0.3-0.1-0.3-0.3v-2.5c0-0.2,0.1-0.3,0.3-0.3c0.2,0,0.3,0.1,0.3,0.3v2.5
				C417,43.6,416.9,43.7,416.7,43.7z M416.7,38.7c-0.2,0-0.3-0.1-0.3-0.3v-2.5c0-0.2,0.1-0.3,0.3-0.3c0.2,0,0.3,0.1,0.3,0.3v2.5
				C417,38.5,416.9,38.7,416.7,38.7z M416.7,33.6c-0.2,0-0.3-0.1-0.3-0.3v-2.5c0-0.2,0.1-0.3,0.3-0.3c0.2,0,0.3,0.1,0.3,0.3v2.5
				C417,33.5,416.9,33.6,416.7,33.6z"/>
		</g>
		<g>
			<path d="M416.7,47.5c-0.2,0-0.3-0.1-0.3-0.3V46c0-0.2,0.1-0.3,0.3-0.3c0.2,0,0.3,0.1,0.3,0.3v1.2C417,47.3,416.9,47.5,416.7,47.5
				z"/>
		</g>
	</g>
	<g>
		<path class="st2" d="M409,45.1"/>
	</g>
	<g>
		<path class="st2" d="M409,25"/>
	</g>
	<circle cx="416.7" cy="18.2" r="18.2"/>
	<g class="st3">
		<path class="st4" d="M410.4,20.7c0,0.1,0,0.2,0,0.3c0,0.1,0,0.1,0,0.2s0,0.1-0.1,0.1h-0.1H406c-0.1,0-0.2,0-0.2,0s-0.1,0-0.1-0.1
			c0,0-0.1-0.1-0.1-0.2s0-0.2,0-0.3c0-0.1,0-0.2,0-0.3c0-0.1,0-0.2,0.1-0.2c0-0.1,0.1-0.1,0.1-0.2s0.1-0.1,0.2-0.2l1.3-1.3
			c0.2-0.3,0.4-0.5,0.6-0.7s0.3-0.4,0.4-0.6s0.1-0.3,0.2-0.5c0-0.1,0-0.3,0-0.4s0-0.2-0.1-0.3c0-0.1-0.1-0.2-0.2-0.3
			s-0.2-0.1-0.3-0.2c-0.1,0-0.3-0.1-0.4-0.1c-0.2,0-0.4,0-0.6,0.1s-0.3,0.1-0.4,0.2c-0.1,0.1-0.2,0.1-0.3,0.2
			C406.1,16,406,16,406,16h-0.1c0,0,0-0.1-0.1-0.1c0-0.1,0-0.1,0-0.2c0-0.1,0-0.2,0-0.3s0-0.2,0-0.2c0-0.1,0-0.1,0-0.2v-0.1l0.1-0.1
			c0,0,0.1-0.1,0.3-0.2c0.1-0.1,0.3-0.1,0.5-0.2c0.2-0.1,0.4-0.1,0.6-0.2c0.2,0,0.4-0.1,0.7-0.1c0.4,0,0.7,0,1,0.1s0.5,0.2,0.7,0.4
			s0.3,0.4,0.4,0.6s0.1,0.5,0.1,0.8c0,0.2,0,0.5-0.1,0.7c0,0.2-0.1,0.5-0.3,0.7c-0.1,0.3-0.3,0.6-0.6,0.9c-0.3,0.3-0.6,0.7-1,1.1
			l-0.8,0.9h2.8h0.1l0.1,0.1c0,0,0,0.1,0.1,0.2C410.4,20.5,410.4,20.6,410.4,20.7z"/>
		<path class="st4" d="M416.4,17.7c0,0.6,0,1.1-0.1,1.6s-0.2,0.9-0.5,1.2s-0.5,0.6-0.8,0.8c-0.3,0.2-0.7,0.3-1.2,0.3
			s-0.9-0.1-1.2-0.3c-0.3-0.2-0.6-0.4-0.8-0.7c-0.2-0.3-0.3-0.7-0.4-1.2s-0.1-1-0.1-1.6s0-1.1,0.1-1.6s0.2-0.9,0.5-1.2
			s0.5-0.6,0.8-0.8s0.7-0.3,1.2-0.3s0.9,0.1,1.2,0.3c0.3,0.2,0.6,0.4,0.8,0.7c0.2,0.3,0.3,0.7,0.4,1.2
			C416.3,16.6,416.4,17.1,416.4,17.7z M414.9,17.8c0-0.3,0-0.6,0-0.9s0-0.5-0.1-0.7s-0.1-0.4-0.1-0.5c-0.1-0.1-0.1-0.2-0.2-0.3
			s-0.2-0.1-0.3-0.2c-0.1,0-0.2,0-0.3,0c-0.2,0-0.4,0.1-0.5,0.2c-0.1,0.1-0.3,0.3-0.3,0.5c-0.1,0.2-0.1,0.5-0.2,0.8
			c0,0.3-0.1,0.7-0.1,1.1c0,0.5,0,0.9,0.1,1.3c0,0.3,0.1,0.6,0.2,0.8c0.1,0.2,0.2,0.3,0.3,0.4c0.1,0.1,0.3,0.1,0.5,0.1
			c0.1,0,0.3,0,0.4-0.1c0.1,0,0.2-0.1,0.3-0.2c0.1-0.1,0.2-0.2,0.2-0.4c0.1-0.1,0.1-0.3,0.1-0.5s0.1-0.4,0.1-0.6
			C414.9,18.3,414.9,18.1,414.9,17.8z"/>
		<path class="st4" d="M421.9,20.8c0,0.1,0,0.2,0,0.3c0,0.1,0,0.1,0,0.2s0,0.1-0.1,0.1h-0.1h-4h-0.1c0,0,0,0-0.1-0.1s0-0.1,0-0.2
			s0-0.2,0-0.3c0-0.1,0-0.2,0-0.3c0-0.1,0-0.1,0-0.2c0,0,0-0.1,0.1-0.1s0.1,0,0.1,0h1.3v-4.7l-1.2,0.6c-0.1,0-0.2,0.1-0.2,0.1
			c-0.1,0-0.1,0-0.1,0s-0.1-0.1-0.1-0.2c0-0.1,0-0.2,0-0.3s0-0.2,0-0.2v-0.1c0,0,0-0.1,0.1-0.1l0.1-0.1l1.6-1c0,0,0,0,0.1,0h0.1
			c0,0,0.1,0,0.2,0s0.2,0,0.3,0c0.1,0,0.3,0,0.3,0c0.1,0,0.2,0,0.2,0s0.1,0,0.1,0.1s0,0,0,0.1v6h1.2h0.1l0.1,0.1c0,0,0,0.1,0,0.2
			C421.9,20.6,421.9,20.7,421.9,20.8z"/>
		<path class="st4" d="M427.9,19.4c0,0.3-0.1,0.6-0.2,0.9s-0.3,0.5-0.5,0.6c-0.2,0.2-0.5,0.3-0.8,0.4s-0.7,0.1-1.1,0.1
			s-0.8,0-1.1-0.1c-0.3-0.1-0.6-0.2-0.8-0.4c-0.2-0.2-0.4-0.4-0.5-0.6s-0.2-0.5-0.2-0.8c0-0.2,0-0.4,0.1-0.6s0.2-0.3,0.3-0.5
			c0.1-0.2,0.3-0.3,0.5-0.4s0.4-0.3,0.6-0.4c-0.2-0.1-0.4-0.2-0.5-0.3c-0.2-0.1-0.3-0.3-0.4-0.4s-0.2-0.3-0.2-0.5
			c-0.1-0.2-0.1-0.4-0.1-0.6c0-0.3,0.1-0.6,0.2-0.8s0.3-0.4,0.5-0.6c0.2-0.2,0.5-0.3,0.8-0.4c0.3-0.1,0.7-0.1,1.1-0.1s0.7,0,1,0.1
			s0.5,0.2,0.7,0.4s0.3,0.3,0.4,0.6c0.1,0.2,0.1,0.5,0.1,0.7s0,0.3-0.1,0.5s-0.1,0.3-0.2,0.5c-0.1,0.1-0.2,0.3-0.4,0.4
			s-0.3,0.3-0.5,0.4c0.2,0.1,0.4,0.2,0.6,0.4s0.3,0.3,0.5,0.4c0.1,0.2,0.2,0.3,0.3,0.5C427.9,19,427.9,19.2,427.9,19.4z M426.5,19.5
			c0-0.1,0-0.3-0.1-0.4c0-0.1-0.1-0.2-0.2-0.3s-0.2-0.2-0.4-0.3c-0.1-0.1-0.3-0.2-0.5-0.3c-0.2,0.1-0.3,0.2-0.5,0.3
			c-0.1,0.1-0.2,0.2-0.3,0.3c-0.1,0.1-0.1,0.2-0.2,0.3c0,0.1-0.1,0.2-0.1,0.4c0,0.3,0.1,0.5,0.3,0.7s0.5,0.2,0.8,0.2
			c0.4,0,0.6-0.1,0.8-0.2C426.4,20,426.5,19.8,426.5,19.5z M426.3,15.9c0-0.1,0-0.2-0.1-0.4s-0.1-0.2-0.2-0.3s-0.2-0.1-0.3-0.2
			s-0.3-0.1-0.4-0.1c-0.3,0-0.5,0.1-0.7,0.2c-0.2,0.1-0.2,0.3-0.2,0.6c0,0.1,0,0.2,0.1,0.3s0.1,0.2,0.2,0.3c0.1,0.1,0.2,0.2,0.3,0.3
			s0.3,0.2,0.5,0.3c0.3-0.2,0.5-0.3,0.6-0.5C426.2,16.3,426.3,16.1,426.3,15.9z"/>
	</g>
	<g>
		<path d="M0.5,0v18.3V0z"/>
		<rect width="1" height="18.3"/>
	</g>
	<g>
		<path d="M594.8,17.7v29.8V17.7z"/>
		<rect x="594.3" y="17.7" width="1" height="29.8"/>
	</g>
</g>
<g>
	<rect x="286" y="22" class="st2" width="31.5" height="2"/>
</g>
</svg>
