<?xml version="1.0" encoding="utf-8"?>
<!-- Generator: Adobe Illustrator 23.1.0, SVG Export Plug-In . SVG Version: 6.00 Build 0)  -->
<!DOCTYPE svg PUBLIC "-//W3C//DTD SVG 1.1//EN" "http://www.w3.org/Graphics/SVG/1.1/DTD/svg11.dtd" [
	<!ENTITY ns_extend "http://ns.adobe.com/Extensibility/1.0/">
	<!ENTITY ns_ai "http://ns.adobe.com/AdobeIllustrator/10.0/">
	<!ENTITY ns_graphs "http://ns.adobe.com/Graphs/1.0/">
	<!ENTITY ns_vars "http://ns.adobe.com/Variables/1.0/">
	<!ENTITY ns_imrep "http://ns.adobe.com/ImageReplacement/1.0/">
	<!ENTITY ns_sfw "http://ns.adobe.com/SaveForWeb/1.0/">
	<!ENTITY ns_custom "http://ns.adobe.com/GenericCustomNamespace/1.0/">
	<!ENTITY ns_adobe_xpath "http://ns.adobe.com/XPath/1.0/">
]>
<svg version="1.1" id="Layer_1" xmlns:x="&ns_extend;" xmlns:i="&ns_ai;" xmlns:graph="&ns_graphs;"
	 xmlns="http://www.w3.org/2000/svg" xmlns:xlink="http://www.w3.org/1999/xlink" x="0px" y="0px" viewBox="0 0 50 65.1"
	 style="enable-background:new 0 0 50 65.1;" xml:space="preserve">
<style type="text/css">
	.st0{fill:#010101;}
	.st1{enable-background:new    ;}
	.st2{fill:#FFFFFF;}
</style>
<metadata>
	<sfw  xmlns="&ns_sfw;">
		<slices></slices>
		<sliceSourceBounds  bottomLeftOrigin="true" height="65.1" width="50" x="0" y="0"></sliceSourceBounds>
	</sfw>
</metadata>
<g>
	<g>
		<path class="st0" d="M25,39.2c-0.3,0-0.4-0.1-0.4-0.4V37c0-0.3,0.1-0.4,0.4-0.4s0.4,0.1,0.4,0.4v1.6C25.4,38.9,25.3,39.2,25,39.2z
			"/>
	</g>
	<g>
		<path class="st0" d="M25,59.9c-0.3,0-0.4-0.1-0.4-0.4v-3.4c0-0.3,0.1-0.4,0.4-0.4s0.4,0.1,0.4,0.4v3.4
			C25.4,59.8,25.3,59.9,25,59.9z M25,53c-0.3,0-0.4-0.1-0.4-0.4v-3.4c0-0.3,0.1-0.4,0.4-0.4s0.4,0.1,0.4,0.4v3.4
			C25.4,52.8,25.3,53,25,53z M25,46.1c-0.3,0-0.4-0.1-0.4-0.4v-3.4c0-0.3,0.1-0.4,0.4-0.4s0.4,0.1,0.4,0.4v3.4
			C25.4,45.9,25.3,46.1,25,46.1z"/>
	</g>
	<g>
		<path class="st0" d="M25,65.1c-0.3,0-0.4-0.1-0.4-0.4V63c0-0.3,0.1-0.4,0.4-0.4s0.4,0.1,0.4,0.4v1.6C25.4,64.8,25.3,65.1,25,65.1z
			"/>
	</g>
</g>
<circle class="st0" cx="25" cy="25" r="25"/>
<g class="st1">
	<path class="st2" d="M16.8,29c0,0.1,0,0.3,0,0.4c0,0.1,0,0.2-0.1,0.2c0,0.1-0.1,0.1-0.1,0.1h-0.1H11c-0.1,0-0.2,0-0.3,0
		s-0.1-0.1-0.2-0.1c0-0.1-0.1-0.1-0.1-0.2c0-0.1,0-0.2,0-0.4s0-0.3,0-0.4c0-0.1,0-0.2,0.1-0.3c0-0.1,0.1-0.2,0.2-0.3
		c0.1-0.1,0.1-0.2,0.2-0.3l1.6-1.8c0.3-0.3,0.6-0.7,0.8-0.9c0.2-0.3,0.4-0.5,0.5-0.8c0.1-0.2,0.2-0.4,0.2-0.6s0.1-0.4,0.1-0.6
		s0-0.3-0.1-0.5c-0.1-0.1-0.1-0.3-0.2-0.4c-0.1-0.1-0.2-0.2-0.4-0.3s-0.3-0.1-0.5-0.1c-0.3,0-0.5,0-0.8,0.1
		c-0.2,0.1-0.4,0.2-0.6,0.2c-0.2,0.1-0.3,0.2-0.4,0.2c-0.1,0.1-0.2,0.1-0.3,0.1h-0.1l-0.1-0.1c0,0,0-0.2,0-0.3s0-0.3,0-0.4
		c0-0.1,0-0.2,0-0.3c0-0.1,0-0.1,0-0.2c0-0.1,0-0.1,0.1-0.1c0,0,0.1-0.1,0.1-0.2c0.1-0.1,0.2-0.1,0.3-0.2c0.2-0.1,0.4-0.2,0.6-0.3
		c0.2-0.1,0.5-0.2,0.8-0.2s0.6-0.1,0.9-0.1c0.5,0,0.9,0.1,1.3,0.2c0.4,0.1,0.7,0.3,0.9,0.5s0.4,0.5,0.5,0.8s0.2,0.6,0.2,1
		c0,0.3,0,0.6-0.1,0.9s-0.2,0.6-0.4,1c-0.2,0.4-0.4,0.7-0.8,1.1c-0.3,0.4-0.8,0.9-1.3,1.5L12.6,28h3.7h0.1l0.1,0.1
		c0,0.1,0.1,0.1,0.1,0.2C16.8,28.9,16.8,29,16.8,29z"/>
	<path class="st2" d="M24.6,25.1c0,0.8-0.1,1.4-0.2,2s-0.3,1.1-0.6,1.6c-0.3,0.4-0.6,0.8-1.1,1s-1,0.3-1.6,0.3s-1.2-0.1-1.6-0.3
		s-0.8-0.5-1-1s-0.4-0.9-0.5-1.5s-0.1-1.3-0.1-2c0-0.8,0.1-1.4,0.2-2c0.1-0.6,0.3-1.1,0.6-1.6c0.3-0.4,0.6-0.8,1.1-1
		c0.4-0.2,1-0.3,1.6-0.3s1.2,0.1,1.6,0.3s0.8,0.5,1,1c0.2,0.4,0.4,0.9,0.5,1.5C24.6,23.6,24.6,24.4,24.6,25.1z M22.6,25.2
		c0-0.4,0-0.8,0-1.2s-0.1-0.6-0.1-0.9c-0.1-0.3-0.1-0.5-0.2-0.6c-0.1-0.1-0.2-0.3-0.3-0.4c-0.1-0.1-0.2-0.2-0.4-0.2
		s-0.3-0.1-0.5-0.1c-0.3,0-0.5,0.1-0.7,0.2c-0.2,0.1-0.3,0.3-0.4,0.6c-0.1,0.3-0.2,0.6-0.2,1c0,0.4-0.1,0.9-0.1,1.4
		c0,0.7,0,1.2,0.1,1.7s0.1,0.8,0.3,1.1c0.1,0.3,0.3,0.4,0.4,0.5c0.2,0.1,0.4,0.2,0.7,0.2c0.2,0,0.4,0,0.5-0.1s0.3-0.2,0.4-0.3
		s0.2-0.3,0.3-0.5c0.1-0.2,0.1-0.4,0.2-0.6c0-0.2,0.1-0.5,0.1-0.8C22.6,25.9,22.6,25.5,22.6,25.2z"/>
	<path class="st2" d="M31.9,29.2c0,0.1,0,0.3,0,0.3c0,0.1,0,0.2-0.1,0.2c0,0.1-0.1,0.1-0.1,0.1h-0.1h-5.2h-0.1l-0.1-0.1
		c0-0.1,0-0.1-0.1-0.2c0-0.1,0-0.2,0-0.3s0-0.3,0-0.4c0-0.1,0-0.2,0.1-0.2c0-0.1,0.1-0.1,0.1-0.1h0.1h1.8v-6.2L26.7,23
		c-0.1,0.1-0.2,0.1-0.3,0.1c-0.1,0-0.1,0-0.2,0c0,0-0.1-0.1-0.1-0.2c0-0.1,0-0.2,0-0.4c0-0.1,0-0.2,0-0.3s0-0.1,0-0.2
		c0-0.1,0-0.1,0.1-0.1s0.1-0.1,0.1-0.1l2-1.3h0.1h0.1c0.1,0,0.1,0,0.2,0s0.2,0,0.4,0c0.2,0,0.3,0,0.5,0c0.1,0,0.2,0,0.3,0
		c0.1,0,0.1,0,0.1,0.1c0,0.1,0,0.1,0,0.1v7.8h1.5h0.1l0.1,0.1c0,0.1,0,0.1,0.1,0.2C31.9,28.9,31.9,29,31.9,29.2z"/>
	<path class="st2" d="M39.6,21.3c0,0.1,0,0.3,0,0.4c0,0.1,0,0.2,0,0.3s0,0.2-0.1,0.3c0,0.1-0.1,0.2-0.1,0.3l-3.1,7.2
		c0,0.1-0.1,0.1-0.1,0.2c0,0-0.1,0.1-0.2,0.1c-0.1,0-0.2,0-0.3,0s-0.3,0-0.5,0c-0.3,0-0.5,0-0.6,0c-0.2,0-0.3,0-0.3-0.1
		c-0.1,0-0.1-0.1-0.1-0.1s0-0.1,0.1-0.2l3.4-7.4h-4c-0.1,0-0.2-0.1-0.2-0.2c-0.1-0.1-0.1-0.3-0.1-0.6c0-0.1,0-0.3,0-0.4
		c0-0.1,0-0.2,0.1-0.3c0-0.1,0.1-0.1,0.1-0.1h0.1h5.6c0.1,0,0.2,0,0.2,0c0.1,0,0.1,0.1,0.1,0.1c0,0.1,0.1,0.1,0.1,0.2
		C39.6,20.9,39.6,21.1,39.6,21.3z"/>
</g>
</svg>
