<?xml version="1.0" encoding="utf-8"?>
<!-- Generator: Adobe Illustrator 22.1.0, SVG Export Plug-In . SVG Version: 6.00 Build 0)  -->
<svg version="1.1" id="Layer_1" xmlns="http://www.w3.org/2000/svg" xmlns:xlink="http://www.w3.org/1999/xlink" x="0px" y="0px"
	 viewBox="0 0 50 90.1" style="enable-background:new 0 0 50 90.1;" xml:space="preserve">
<style type="text/css">
	.st0{fill:#010101;}
	.st1{enable-background:new    ;}
	.st2{fill:#FFFFFF;}
</style>
<g>
	<g>
		<path class="st0" d="M25,64.2c-0.3,0-0.4-0.1-0.4-0.4V62c0-0.3,0.1-0.4,0.4-0.4s0.4,0.1,0.4,0.4v1.6C25.4,63.9,25.3,64.2,25,64.2z
			"/>
	</g>
	<g>
		<path class="st0" d="M25,84.9c-0.3,0-0.4-0.1-0.4-0.4v-3.4c0-0.3,0.1-0.4,0.4-0.4s0.4,0.1,0.4,0.4v3.4
			C25.4,84.8,25.3,84.9,25,84.9z M25,78c-0.3,0-0.4-0.1-0.4-0.4v-3.4c0-0.3,0.1-0.4,0.4-0.4s0.4,0.1,0.4,0.4v3.4
			C25.4,77.8,25.3,78,25,78z M25,71.1c-0.3,0-0.4-0.1-0.4-0.4v-3.4c0-0.3,0.1-0.4,0.4-0.4s0.4,0.1,0.4,0.4v3.4
			C25.4,70.9,25.3,71.1,25,71.1z"/>
	</g>
	<g>
		<path class="st0" d="M25,90.1c-0.3,0-0.4-0.1-0.4-0.4V88c0-0.3,0.1-0.4,0.4-0.4s0.4,0.1,0.4,0.4v1.6C25.4,89.8,25.3,90.1,25,90.1z
			"/>
	</g>
</g>
<circle class="st0" cx="25" cy="50" r="25"/>
<g class="st1">
	<path class="st2" d="M16.7,52.7c0,0.1,0,0.3,0,0.4c0,0.1,0,0.2-0.1,0.2c0,0.1-0.1,0.1-0.1,0.1c0,0-0.1,0-0.1,0H11
		c-0.1,0-0.2,0-0.3,0s-0.1-0.1-0.2-0.1c0-0.1-0.1-0.1-0.1-0.2s0-0.2,0-0.4c0-0.2,0-0.3,0-0.4c0-0.1,0-0.2,0.1-0.3
		c0-0.1,0.1-0.2,0.1-0.3s0.1-0.2,0.2-0.3l1.6-1.8c0.3-0.3,0.6-0.7,0.8-0.9c0.2-0.3,0.4-0.5,0.5-0.8c0.1-0.2,0.2-0.4,0.2-0.6
		s0.1-0.4,0.1-0.6c0-0.2,0-0.3-0.1-0.5c-0.1-0.1-0.1-0.3-0.2-0.4s-0.2-0.2-0.4-0.3c-0.2-0.1-0.3-0.1-0.5-0.1c-0.3,0-0.5,0-0.8,0.1
		c-0.2,0.1-0.4,0.2-0.6,0.2c-0.2,0.1-0.3,0.2-0.4,0.2c-0.1,0.1-0.2,0.1-0.3,0.1c0,0-0.1,0-0.1,0c0,0-0.1-0.1-0.1-0.1s0-0.2,0-0.3
		c0-0.1,0-0.3,0-0.4c0-0.1,0-0.2,0-0.3c0-0.1,0-0.1,0-0.2s0-0.1,0.1-0.1c0,0,0.1-0.1,0.1-0.2c0.1-0.1,0.2-0.1,0.3-0.2
		s0.4-0.2,0.6-0.3c0.2-0.1,0.5-0.2,0.8-0.2c0.3-0.1,0.6-0.1,0.9-0.1c0.5,0,0.9,0.1,1.3,0.2c0.4,0.1,0.7,0.3,0.9,0.5
		c0.2,0.2,0.4,0.5,0.5,0.8c0.1,0.3,0.2,0.6,0.2,1c0,0.3,0,0.6-0.1,0.9c-0.1,0.3-0.2,0.6-0.4,1c-0.2,0.3-0.4,0.7-0.8,1.1
		c-0.3,0.4-0.8,0.9-1.3,1.5l-1.1,1.1h3.7c0,0,0.1,0,0.1,0s0.1,0.1,0.1,0.1c0,0.1,0.1,0.1,0.1,0.2C16.7,52.5,16.7,52.6,16.7,52.7z"/>
	<path class="st2" d="M24.5,48.7c0,0.8-0.1,1.4-0.2,2c-0.1,0.6-0.3,1.1-0.6,1.6c-0.3,0.4-0.6,0.8-1.1,1s-1,0.3-1.6,0.3
		c-0.6,0-1.2-0.1-1.6-0.3c-0.4-0.2-0.8-0.5-1-1s-0.4-0.9-0.5-1.5c-0.1-0.6-0.1-1.3-0.1-2c0-0.8,0.1-1.4,0.2-2
		c0.1-0.6,0.3-1.1,0.6-1.6c0.3-0.4,0.6-0.8,1.1-1c0.4-0.2,1-0.3,1.6-0.3c0.6,0,1.2,0.1,1.6,0.3c0.4,0.2,0.8,0.5,1,1
		c0.2,0.4,0.4,0.9,0.5,1.5S24.5,48,24.5,48.7z M22.6,48.8c0-0.4,0-0.8,0-1.2c0-0.3-0.1-0.6-0.1-0.9s-0.1-0.5-0.2-0.6
		c-0.1-0.2-0.2-0.3-0.3-0.4c-0.1-0.1-0.2-0.2-0.4-0.2s-0.3-0.1-0.5-0.1c-0.3,0-0.5,0.1-0.7,0.2c-0.2,0.1-0.3,0.3-0.4,0.6
		s-0.2,0.6-0.2,1c0,0.4-0.1,0.9-0.1,1.4c0,0.7,0,1.2,0.1,1.7c0.1,0.4,0.1,0.8,0.3,1.1c0.1,0.3,0.3,0.4,0.4,0.5
		c0.2,0.1,0.4,0.2,0.7,0.2c0.2,0,0.4,0,0.5-0.1c0.1-0.1,0.3-0.2,0.4-0.3c0.1-0.1,0.2-0.3,0.3-0.5c0.1-0.2,0.1-0.4,0.2-0.6
		s0.1-0.5,0.1-0.8C22.5,49.5,22.6,49.2,22.6,48.8z"/>
	<path class="st2" d="M31.8,52.8c0,0.1,0,0.3,0,0.3c0,0.1,0,0.2-0.1,0.2s-0.1,0.1-0.1,0.1c0,0-0.1,0-0.1,0h-5.2c0,0-0.1,0-0.1,0
		c0,0-0.1-0.1-0.1-0.1s0-0.1-0.1-0.2c0-0.1,0-0.2,0-0.3c0-0.1,0-0.3,0-0.4c0-0.1,0-0.2,0.1-0.2c0-0.1,0.1-0.1,0.1-0.1
		c0,0,0.1,0,0.1,0h1.8v-6.2l-1.5,0.8c-0.1,0.1-0.2,0.1-0.3,0.1c-0.1,0-0.1,0-0.2,0c0,0-0.1-0.1-0.1-0.2s0-0.2,0-0.4
		c0-0.1,0-0.2,0-0.3c0-0.1,0-0.1,0-0.2s0-0.1,0.1-0.1s0.1-0.1,0.1-0.1l2-1.3c0,0,0.1,0,0.1,0c0,0,0.1,0,0.1,0c0.1,0,0.1,0,0.2,0
		c0.1,0,0.2,0,0.4,0c0.2,0,0.3,0,0.5,0c0.1,0,0.2,0,0.3,0c0.1,0,0.1,0,0.1,0.1s0,0.1,0,0.1V52h1.5c0,0,0.1,0,0.1,0
		c0,0,0.1,0.1,0.1,0.1c0,0.1,0,0.1,0.1,0.2C31.8,52.5,31.8,52.6,31.8,52.8z"/>
	<path class="st2" d="M39.6,51c0,0.4-0.1,0.8-0.2,1.1c-0.1,0.3-0.4,0.6-0.7,0.9c-0.3,0.2-0.6,0.4-1.1,0.5c-0.4,0.1-0.9,0.2-1.5,0.2
		c-0.5,0-1-0.1-1.4-0.2c-0.4-0.1-0.7-0.3-1-0.5c-0.3-0.2-0.5-0.5-0.6-0.8c-0.1-0.3-0.2-0.7-0.2-1c0-0.3,0-0.5,0.1-0.8
		c0.1-0.2,0.2-0.5,0.4-0.7s0.4-0.4,0.6-0.6c0.2-0.2,0.5-0.3,0.8-0.5c-0.2-0.1-0.5-0.3-0.7-0.4c-0.2-0.2-0.4-0.3-0.5-0.5
		c-0.1-0.2-0.2-0.4-0.3-0.6c-0.1-0.2-0.1-0.5-0.1-0.7c0-0.4,0.1-0.7,0.2-1c0.1-0.3,0.3-0.6,0.6-0.8c0.3-0.2,0.6-0.4,1-0.5
		c0.4-0.1,0.9-0.2,1.4-0.2c0.5,0,1,0.1,1.3,0.2s0.7,0.3,0.9,0.5c0.2,0.2,0.4,0.4,0.5,0.7c0.1,0.3,0.2,0.6,0.2,0.9
		c0,0.2,0,0.5-0.1,0.7c-0.1,0.2-0.2,0.4-0.3,0.6c-0.1,0.2-0.3,0.4-0.5,0.6c-0.2,0.2-0.4,0.3-0.7,0.5c0.3,0.2,0.6,0.3,0.8,0.5
		c0.2,0.2,0.4,0.4,0.6,0.6c0.2,0.2,0.3,0.4,0.4,0.6C39.6,50.4,39.6,50.7,39.6,51z M37.7,51.1c0-0.2,0-0.3-0.1-0.5s-0.2-0.3-0.3-0.4
		s-0.3-0.3-0.5-0.4c-0.2-0.1-0.4-0.2-0.7-0.4c-0.2,0.1-0.4,0.2-0.6,0.4c-0.2,0.1-0.3,0.3-0.4,0.4c-0.1,0.1-0.2,0.3-0.3,0.4
		c-0.1,0.1-0.1,0.3-0.1,0.5c0,0.4,0.1,0.7,0.4,0.9c0.2,0.2,0.6,0.3,1.1,0.3c0.5,0,0.8-0.1,1.1-0.3S37.7,51.5,37.7,51.1z M37.5,46.4
		c0-0.2,0-0.3-0.1-0.5s-0.1-0.3-0.2-0.3c-0.1-0.1-0.2-0.2-0.4-0.2s-0.3-0.1-0.5-0.1c-0.4,0-0.7,0.1-0.9,0.3
		c-0.2,0.2-0.3,0.4-0.3,0.8c0,0.2,0,0.3,0.1,0.4c0.1,0.1,0.1,0.3,0.2,0.4c0.1,0.1,0.2,0.2,0.4,0.3s0.4,0.2,0.6,0.4
		c0.4-0.2,0.6-0.4,0.8-0.7S37.5,46.7,37.5,46.4z"/>
</g>
<g>
	<line x1="25" y1="25" x2="25" y2="0"/>
	<rect x="24.5" width="1" height="25"/>
</g>
</svg>
