<?xml version="1.0" encoding="utf-8"?>
<!-- Generator: Adobe Illustrator 23.1.0, SVG Export Plug-In . SVG Version: 6.00 Build 0)  -->
<!DOCTYPE svg PUBLIC "-//W3C//DTD SVG 1.1//EN" "http://www.w3.org/Graphics/SVG/1.1/DTD/svg11.dtd" [
	<!ENTITY ns_extend "http://ns.adobe.com/Extensibility/1.0/">
	<!ENTITY ns_ai "http://ns.adobe.com/AdobeIllustrator/10.0/">
	<!ENTITY ns_graphs "http://ns.adobe.com/Graphs/1.0/">
	<!ENTITY ns_vars "http://ns.adobe.com/Variables/1.0/">
	<!ENTITY ns_imrep "http://ns.adobe.com/ImageReplacement/1.0/">
	<!ENTITY ns_sfw "http://ns.adobe.com/SaveForWeb/1.0/">
	<!ENTITY ns_custom "http://ns.adobe.com/GenericCustomNamespace/1.0/">
	<!ENTITY ns_adobe_xpath "http://ns.adobe.com/XPath/1.0/">
]>
<svg version="1.1" id="Layer_1" xmlns:x="&ns_extend;" xmlns:i="&ns_ai;" xmlns:graph="&ns_graphs;"
	 xmlns="http://www.w3.org/2000/svg" xmlns:xlink="http://www.w3.org/1999/xlink" x="0px" y="0px" viewBox="0 0 595.3 47.5"
	 style="enable-background:new 0 0 595.3 47.5;" xml:space="preserve">
<style type="text/css">
	.st0{fill:none;stroke:#000000;stroke-miterlimit:10;}
	.st1{fill:none;stroke:#000000;stroke-width:5.6693;stroke-miterlimit:10;}
	.st2{fill:none;}
	.st3{enable-background:new    ;}
	.st4{fill:#FFFFFF;}
</style>
<metadata>
	<sfw  xmlns="&ns_sfw;">
		<slices></slices>
		<sliceSourceBounds  bottomLeftOrigin="true" height="16383" width="595.3" x="0" y="-8168.5"></sliceSourceBounds>
	</sfw>
</metadata>
<g>
	<path class="st0" d="M0,18.2h595.3H0z"/>
	<path class="st1" d="M513.9,15.7"/>
	<path class="st1" d="M529.3,31.1"/>
	<g>
		<path class="st2" d="M535.7,51.2"/>
	</g>
	<g>
		<path class="st2" d="M535.7,31.1"/>
	</g>
	<g>
		<g>
			<g>
				<path class="st1" d="M260.1,15.7"/>
				<path class="st1" d="M275.5,31.1"/>
			</g>
		</g>
	</g>
	<g>
		<g>
			<path d="M377.4,28.6c-0.2,0-0.3-0.1-0.3-0.3V27c0-0.2,0.1-0.3,0.3-0.3c0.2,0,0.3,0.1,0.3,0.3v1.2
				C377.7,28.4,377.6,28.6,377.4,28.6z"/>
		</g>
		<g>
			<path d="M377.4,43.7c-0.2,0-0.3-0.1-0.3-0.3v-2.5c0-0.2,0.1-0.3,0.3-0.3c0.2,0,0.3,0.1,0.3,0.3v2.5
				C377.7,43.6,377.6,43.7,377.4,43.7z M377.4,38.7c-0.2,0-0.3-0.1-0.3-0.3v-2.5c0-0.2,0.1-0.3,0.3-0.3c0.2,0,0.3,0.1,0.3,0.3v2.5
				C377.7,38.5,377.6,38.7,377.4,38.7z M377.4,33.6c-0.2,0-0.3-0.1-0.3-0.3v-2.5c0-0.2,0.1-0.3,0.3-0.3c0.2,0,0.3,0.1,0.3,0.3v2.5
				C377.7,33.5,377.6,33.6,377.4,33.6z"/>
		</g>
		<g>
			<path d="M377.4,47.5c-0.2,0-0.3-0.1-0.3-0.3V46c0-0.2,0.1-0.3,0.3-0.3c0.2,0,0.3,0.1,0.3,0.3v1.2
				C377.7,47.3,377.6,47.5,377.4,47.5z"/>
		</g>
	</g>
	<circle cx="377" cy="18.2" r="18.2"/>
	<g class="st3">
		<path class="st4" d="M370.7,20.7c0,0.1,0,0.2,0,0.3c0,0.1,0,0.1,0,0.2s0,0.1-0.1,0.1s-0.1,0-0.1,0h-4.1c-0.1,0-0.2,0-0.2,0
			s-0.1,0-0.1-0.1c0,0-0.1-0.1-0.1-0.2s0-0.2,0-0.3c0-0.1,0-0.2,0-0.3c0-0.1,0-0.2,0.1-0.2c0-0.1,0.1-0.1,0.1-0.2s0.1-0.1,0.2-0.2
			l1.2-1.3c0.2-0.3,0.5-0.5,0.6-0.7s0.3-0.4,0.4-0.6c0.1-0.2,0.1-0.3,0.2-0.5c0-0.1,0-0.3,0-0.4s0-0.2-0.1-0.3
			c0-0.1-0.1-0.2-0.2-0.3c-0.1-0.1-0.2-0.1-0.3-0.2c-0.1,0-0.3-0.1-0.4-0.1c-0.2,0-0.4,0-0.6,0.1s-0.3,0.1-0.4,0.2
			c-0.1,0.1-0.2,0.1-0.3,0.2c-0.1,0.1-0.2,0.1-0.2,0.1h-0.1c0,0,0-0.1-0.1-0.1c0-0.1,0-0.1,0-0.2c0-0.1,0-0.2,0-0.3s0-0.2,0-0.2
			s0-0.1,0-0.2v-0.1l0.1-0.1c0,0,0.1-0.1,0.3-0.2c0.1-0.1,0.3-0.1,0.5-0.2c0.2-0.1,0.4-0.1,0.6-0.2c0.2,0,0.4-0.1,0.7-0.1
			c0.4,0,0.7,0,1,0.1s0.5,0.2,0.7,0.4s0.3,0.4,0.4,0.6c0.1,0.2,0.1,0.5,0.1,0.8c0,0.2,0,0.5-0.1,0.7s-0.1,0.5-0.3,0.7
			c-0.1,0.3-0.3,0.6-0.6,0.9s-0.6,0.7-1,1.1l-0.8,0.9h2.8h0.1l0.1,0.1c0,0,0,0.1,0,0.2C370.7,20.5,370.7,20.6,370.7,20.7z"/>
		<path class="st4" d="M376.6,17.7c0,0.6,0,1.1-0.1,1.6s-0.2,0.9-0.5,1.2s-0.5,0.6-0.8,0.8c-0.3,0.2-0.7,0.3-1.2,0.3
			s-0.9-0.1-1.2-0.3c-0.3-0.2-0.6-0.4-0.8-0.7c-0.2-0.3-0.3-0.7-0.4-1.2s-0.1-1-0.1-1.6s0-1.1,0.1-1.6s0.2-0.9,0.5-1.2
			s0.5-0.6,0.8-0.8s0.7-0.3,1.2-0.3s0.9,0.1,1.2,0.3s0.6,0.4,0.8,0.7s0.3,0.7,0.4,1.2C376.6,16.6,376.6,17.1,376.6,17.7z
			 M375.1,17.8c0-0.3,0-0.6,0-0.9s0-0.5-0.1-0.7s-0.1-0.4-0.1-0.5c-0.1-0.1-0.1-0.2-0.2-0.3c-0.1-0.1-0.2-0.1-0.3-0.2
			c-0.1,0-0.2,0-0.3,0c-0.2,0-0.4,0.1-0.5,0.2c-0.1,0.1-0.3,0.3-0.3,0.5s-0.1,0.5-0.2,0.8c0,0.3,0,0.7,0,1.1c0,0.5,0,0.9,0.1,1.3
			c0,0.3,0.1,0.6,0.2,0.8c0.1,0.2,0.2,0.3,0.3,0.4s0.3,0.1,0.5,0.1c0.1,0,0.3,0,0.4-0.1c0.1,0,0.2-0.1,0.3-0.2s0.2-0.2,0.2-0.4
			c0.1-0.1,0.1-0.3,0.1-0.5s0.1-0.4,0.1-0.6C375.1,18.3,375.1,18.1,375.1,17.8z"/>
		<path class="st4" d="M382.2,20.8c0,0.1,0,0.2,0,0.3c0,0.1,0,0.1,0,0.2s0,0.1-0.1,0.1H382h-4h-0.1c0,0,0,0-0.1-0.1s0-0.1,0-0.2
			s0-0.2,0-0.3c0-0.1,0-0.2,0-0.3c0-0.1,0-0.1,0-0.2s0-0.1,0.1-0.1h0.1h1.3v-4.7l-1.2,0.6c-0.1,0-0.2,0.1-0.2,0.1
			c-0.1,0-0.1,0-0.1,0s-0.1-0.1-0.1-0.2c0-0.1,0-0.2,0-0.3s0-0.2,0-0.2c0-0.1,0-0.1,0-0.1s0-0.1,0.1-0.1l0.1-0.1l1.5-1
			c0,0,0,0,0.1,0h0.1c0,0,0.1,0,0.2,0c0.1,0,0.2,0,0.3,0s0.3,0,0.3,0c0.1,0,0.2,0,0.2,0s0.1,0,0.1,0.1c0,0,0,0,0,0.1v6h1.2h0.1
			l0.1,0.1c0,0,0,0.1,0,0.2C382.2,20.6,382.2,20.7,382.2,20.8z"/>
		<path class="st4" d="M388.1,17.4c0,0.3,0,0.6,0,0.9s-0.1,0.6-0.2,0.9c-0.1,0.3-0.2,0.6-0.3,0.9s-0.3,0.5-0.6,0.7
			c-0.2,0.2-0.5,0.4-0.8,0.5s-0.7,0.2-1.2,0.2c-0.2,0-0.3,0-0.5,0s-0.3,0-0.4-0.1c-0.1,0-0.2-0.1-0.3-0.1s-0.2-0.1-0.2-0.1
			s-0.1-0.1-0.1-0.2s0-0.2,0-0.3c0-0.1,0-0.2,0-0.3c0-0.1,0-0.1,0-0.2c0,0,0-0.1,0.1-0.1h0.1c0,0,0.1,0,0.2,0c0.1,0,0.2,0.1,0.3,0.1
			s0.3,0.1,0.4,0.1s0.3,0,0.5,0c0.3,0,0.6-0.1,0.8-0.2s0.4-0.3,0.5-0.5s0.2-0.4,0.3-0.7c0.1-0.2,0.1-0.5,0.1-0.8
			c-0.2,0.1-0.4,0.2-0.6,0.3c-0.2,0.1-0.5,0.1-0.8,0.1c-0.4,0-0.7,0-1-0.2s-0.5-0.2-0.7-0.4c-0.2-0.2-0.3-0.4-0.4-0.7
			s-0.1-0.6-0.1-0.9c0-0.4,0.1-0.7,0.2-1c0.1-0.3,0.3-0.6,0.5-0.8s0.5-0.4,0.8-0.5s0.7-0.2,1.1-0.2c0.3,0,0.6,0,0.9,0.1
			s0.5,0.2,0.6,0.3c0.2,0.1,0.3,0.3,0.5,0.5s0.2,0.4,0.3,0.7s0.1,0.5,0.1,0.8C388,16.8,388.1,17.1,388.1,17.4z M386.6,17.2
			c0-0.4,0-0.7-0.1-1c0-0.3-0.1-0.5-0.2-0.6c-0.1-0.2-0.2-0.3-0.3-0.3c-0.1-0.1-0.3-0.1-0.5-0.1s-0.3,0-0.5,0.1
			c-0.1,0.1-0.2,0.1-0.3,0.3c-0.1,0.1-0.1,0.2-0.2,0.4c0,0.2-0.1,0.3-0.1,0.5s0,0.4,0.1,0.5c0,0.2,0.1,0.3,0.2,0.4s0.2,0.2,0.3,0.2
			s0.3,0.1,0.4,0.1c0.2,0,0.4,0,0.6-0.1S386.5,17.3,386.6,17.2z"/>
	</g>
	<g>
		<g>
			<g>
				<path class="st1" d="M131.3,15.7"/>
				<path class="st1" d="M146.7,31.1"/>
			</g>
		</g>
		<path class="st1" d="M130.3,18.5"/>
		<path class="st1" d="M144.1,32.3"/>
	</g>
	<g>
		<path class="st1" d="M220.2,20.7"/>
		<path class="st1" d="M204.8,5.4"/>
	</g>
	<path class="st1" d="M181.4,18"/>
	<path class="st1" d="M167.6,4.2"/>
	<g>
		<g>
			<path d="M218.5,28.2c-0.2,0-0.3-0.1-0.3-0.3v-1.2c0-0.2,0.1-0.3,0.3-0.3s0.3,0.1,0.3,0.3v1.2C218.8,28,218.6,28.2,218.5,28.2z"/>
		</g>
		<g>
			<path d="M218.5,43.3c-0.2,0-0.3-0.1-0.3-0.3v-2.5c0-0.2,0.1-0.3,0.3-0.3s0.3,0.1,0.3,0.3V43C218.8,43.2,218.6,43.3,218.5,43.3z
				 M218.5,38.3c-0.2,0-0.3-0.1-0.3-0.3v-2.5c0-0.2,0.1-0.3,0.3-0.3s0.3,0.1,0.3,0.3V38C218.8,38.1,218.6,38.3,218.5,38.3z
				 M218.5,33.2c-0.2,0-0.3-0.1-0.3-0.3v-2.5c0-0.2,0.1-0.3,0.3-0.3s0.3,0.1,0.3,0.3v2.5C218.8,33.1,218.6,33.2,218.5,33.2z"/>
		</g>
		<g>
			<path d="M218.5,47.1c-0.2,0-0.3-0.1-0.3-0.3v-1.2c0-0.2,0.1-0.3,0.3-0.3s0.3,0.1,0.3,0.3v1.2C218.8,46.9,218.6,47.1,218.5,47.1z"
				/>
		</g>
	</g>
	<circle cx="218.2" cy="18.2" r="18.2"/>
	<g>
		<path class="st1" d="M72.6,20.9"/>
		<path class="st1" d="M57.2,5.5"/>
	</g>
	<path class="st1" d="M73.6,18"/>
	<path class="st1" d="M59.8,4.3"/>
	<circle cx="59.5" cy="18.2" r="18.2"/>
	<g class="st3">
		<path class="st4" d="M53.1,20.9c0,0.1,0,0.2,0,0.3s0,0.1,0,0.2c0,0,0,0.1-0.1,0.1h-0.1h-4.1c-0.1,0-0.1,0-0.2,0
			c-0.1,0-0.1,0-0.1-0.1c0,0-0.1-0.1-0.1-0.2c0-0.1,0-0.2,0-0.3c0-0.1,0-0.2,0-0.3c0-0.1,0-0.2,0.1-0.2c0-0.1,0.1-0.1,0.1-0.2
			c0-0.1,0.1-0.1,0.2-0.2l1.2-1.3c0.2-0.3,0.4-0.5,0.6-0.7c0.1-0.2,0.3-0.4,0.4-0.6c0.1-0.2,0.1-0.3,0.2-0.5c0-0.1,0-0.3,0-0.4
			c0-0.1,0-0.2-0.1-0.3c0-0.1-0.1-0.2-0.2-0.3c-0.1-0.1-0.2-0.1-0.3-0.2c-0.1,0-0.2-0.1-0.4-0.1s-0.4,0-0.6,0.1s-0.3,0.1-0.4,0.2
			S49,16,48.9,16.1c-0.1,0.1-0.1,0.1-0.2,0.1h-0.1c0,0,0-0.1-0.1-0.1c0-0.1,0-0.1,0-0.2s0-0.2,0-0.3c0-0.1,0-0.2,0-0.2
			c0-0.1,0-0.1,0-0.1v-0.1c0,0,0-0.1,0.1-0.1c0,0,0.1-0.1,0.3-0.2c0.1-0.1,0.3-0.1,0.5-0.2s0.4-0.1,0.6-0.2c0.2,0,0.4-0.1,0.7-0.1
			c0.4,0,0.7,0,1,0.1s0.5,0.2,0.7,0.4c0.2,0.2,0.3,0.4,0.4,0.6s0.1,0.5,0.1,0.7c0,0.2,0,0.5-0.1,0.7c0,0.2-0.1,0.5-0.3,0.7
			s-0.3,0.5-0.6,0.9c-0.3,0.4-0.6,0.7-1,1.1l-0.8,0.8h2.8H53l0.1,0.1c0,0,0,0.1,0,0.2C53.1,20.8,53.1,20.8,53.1,20.9z"/>
		<path class="st4" d="M58.9,18c0,0.6,0,1.1-0.1,1.5c-0.1,0.5-0.2,0.8-0.4,1.2s-0.5,0.6-0.8,0.7c-0.3,0.1-0.7,0.3-1.2,0.3
			s-0.9-0.1-1.2-0.3c-0.3-0.2-0.6-0.4-0.8-0.7c-0.2-0.3-0.3-0.7-0.4-1.1c-0.1-0.5-0.1-1-0.1-1.5c0-0.6,0-1.1,0.1-1.5
			c0.1-0.5,0.2-0.8,0.4-1.2s0.5-0.6,0.8-0.7c0.3-0.2,0.7-0.3,1.2-0.3s0.9,0.1,1.2,0.2s0.6,0.4,0.8,0.7s0.3,0.7,0.4,1.1
			C58.9,16.9,58.9,17.4,58.9,18z M57.5,18c0-0.3,0-0.6,0-0.9s0-0.5-0.1-0.7c0-0.2-0.1-0.4-0.1-0.5s-0.1-0.2-0.2-0.3
			s-0.2-0.1-0.3-0.2s-0.2,0-0.3,0c-0.2,0-0.4,0.1-0.5,0.2s-0.3,0.3-0.3,0.5c0,0.2-0.1,0.5-0.2,0.8c0,0.3,0,0.7,0,1.1
			c0,0.5,0,0.9,0.1,1.3c0,0.3,0.1,0.6,0.2,0.8c0.1,0.2,0.2,0.3,0.3,0.4c0.1,0.1,0.3,0.1,0.5,0.1c0.1,0,0.3,0,0.4-0.1
			c0.1,0,0.2-0.1,0.3-0.2c0.1-0.1,0.2-0.2,0.2-0.3c0.1-0.1,0.1-0.3,0.1-0.5s0.1-0.4,0.1-0.6C57.5,18.6,57.5,18.3,57.5,18z"/>
		<path class="st4" d="M64.4,21c0,0.1,0,0.2,0,0.3c0,0.1,0,0.1,0,0.2c0,0,0,0.1-0.1,0.1h-0.1h-3.9h-0.1c0,0,0,0-0.1-0.1
			c0,0,0-0.1,0-0.2c0-0.1,0-0.2,0-0.3s0-0.2,0-0.3s0-0.1,0-0.2c0-0.1,0-0.1,0.1-0.1h0.1h1.3v-4.6l-1.1,0.6c-0.1,0-0.2,0.1-0.2,0.1
			c-0.1,0-0.1,0-0.1,0s-0.1-0.1-0.1-0.2c0-0.1,0-0.2,0-0.3c0-0.1,0-0.2,0-0.2c0-0.1,0-0.1,0-0.1s0-0.1,0.1-0.1s0.1-0.1,0.1-0.1
			l1.5-1c0,0,0,0,0.1,0s0.1,0,0.1,0s0.1,0,0.2,0c0.1,0,0.2,0,0.3,0s0.3,0,0.3,0c0.1,0,0.2,0,0.2,0s0.1,0,0.1,0.1c0,0,0,0,0,0.1v5.9
			h1.2h0.1l0.1,0.1C64.5,20.7,64.5,20.8,64.4,21C64.4,20.8,64.4,20.9,64.4,21z"/>
		<path class="st4" d="M70.2,15.1c0,0.1,0,0.2,0,0.3s0,0.2,0,0.2s0,0.1-0.1,0.2S70,15.9,70,15.9l-2.3,5.4c0,0,0,0.1-0.1,0.1
			s-0.1,0.1-0.1,0.1s-0.1,0-0.2,0s-0.2,0-0.4,0c-0.2,0-0.3,0-0.5,0c-0.1,0-0.2,0-0.2-0.1c0-0.1-0.2,0-0.2,0s0-0.1,0-0.2l2.5-5.5h-3
			c-0.1,0-0.1,0-0.2-0.2c0-0.1-0.1-0.3-0.1-0.5c0-0.1,0-0.2,0-0.3c0-0.1,0-0.1,0-0.2s0-0.1,0.1-0.1h0.1h4.2c0.1,0,0.1,0,0.2,0
			c0,0,0.1,0,0.1,0.1c0,0,0,0.1,0.1,0.2S70.2,14.9,70.2,15.1z"/>
	</g>
	<g>
		<g>
			<path d="M59.5,28.4c-0.2,0-0.3-0.1-0.3-0.3v-1.2c0-0.2,0.1-0.3,0.3-0.3s0.3,0.1,0.3,0.3v1.2C59.8,28.2,59.7,28.4,59.5,28.4z"/>
		</g>
		<g>
			<path d="M59.5,43.5c-0.2,0-0.3-0.1-0.3-0.3v-2.5c0-0.2,0.1-0.3,0.3-0.3s0.3,0.1,0.3,0.3v2.5C59.8,43.4,59.7,43.5,59.5,43.5z
				 M59.5,38.5c-0.2,0-0.3-0.1-0.3-0.3v-2.5c0-0.2,0.1-0.3,0.3-0.3s0.3,0.1,0.3,0.3v2.5C59.8,38.3,59.7,38.5,59.5,38.5z M59.5,33.4
				c-0.2,0-0.3-0.1-0.3-0.3v-2.5c0-0.2,0.1-0.3,0.3-0.3s0.3,0.1,0.3,0.3v2.5C59.8,33.3,59.7,33.4,59.5,33.4z"/>
		</g>
		<g>
			<path d="M59.5,47.3c-0.2,0-0.3-0.1-0.3-0.3v-1.2c0-0.2,0.1-0.3,0.3-0.3s0.3,0.1,0.3,0.3V47C59.8,47.1,59.7,47.3,59.5,47.3z"/>
		</g>
	</g>
	<g>
		<g>
			<path d="M535.7,43.7c-0.2,0-0.3-0.1-0.3-0.3v-2.5c0-0.2,0.1-0.3,0.3-0.3s0.3,0.1,0.3,0.3v2.5C536,43.6,535.9,43.7,535.7,43.7z
				 M535.7,38.7c-0.2,0-0.3-0.1-0.3-0.3v-2.5c0-0.2,0.1-0.3,0.3-0.3s0.3,0.1,0.3,0.3v2.5C536,38.5,535.9,38.7,535.7,38.7z
				 M535.7,33.6c-0.2,0-0.3-0.1-0.3-0.3v-2.5c0-0.2,0.1-0.3,0.3-0.3s0.3,0.1,0.3,0.3v2.5C536,33.5,535.9,33.6,535.7,33.6z"/>
		</g>
		<g>
			<path d="M535.7,47.5c-0.2,0-0.3-0.1-0.3-0.3V46c0-0.2,0.1-0.3,0.3-0.3s0.3,0.1,0.3,0.3v1.2C536,47.3,535.9,47.5,535.7,47.5z"/>
		</g>
	</g>
	<g>
		<path class="st2" d="M409,45.1"/>
	</g>
	<g>
		<path class="st2" d="M409,25"/>
	</g>
	<circle cx="535.7" cy="18.2" r="18.2"/>
	<g class="st3">
		<path class="st4" d="M529.4,20.7c0,0.1,0,0.2,0,0.3c0,0.1,0,0.1,0,0.2s0,0.1-0.1,0.1h-0.1H525c-0.1,0-0.2,0-0.2,0s-0.1,0-0.1-0.1
			c0,0-0.1-0.1-0.1-0.2s0-0.2,0-0.3c0-0.1,0-0.2,0-0.3c0-0.1,0-0.2,0.1-0.2c0-0.1,0.1-0.1,0.1-0.2s0.1-0.1,0.2-0.2l1.3-1.3
			c0.2-0.3,0.4-0.5,0.6-0.7c0.2-0.2,0.3-0.4,0.4-0.6s0.1-0.3,0.2-0.5c0-0.1,0-0.3,0-0.4s0-0.2-0.1-0.3c0-0.1-0.1-0.2-0.2-0.3
			c-0.1-0.1-0.2-0.1-0.3-0.2c-0.1,0-0.3-0.1-0.4-0.1c-0.2,0-0.4,0-0.6,0.1c-0.2,0.1-0.3,0.1-0.4,0.2c-0.1,0.1-0.2,0.1-0.3,0.2
			C525.1,16,525,16,525,16h-0.1c0,0,0-0.1-0.1-0.1c0-0.1,0-0.1,0-0.2c0-0.1,0-0.2,0-0.3s0-0.2,0-0.2c0-0.1,0-0.1,0-0.2v-0.1l0.1-0.1
			c0,0,0.1-0.1,0.3-0.2c0.1-0.1,0.3-0.1,0.5-0.2c0.2-0.1,0.4-0.1,0.6-0.2c0.2,0,0.4-0.1,0.7-0.1c0.4,0,0.7,0,1,0.1s0.5,0.2,0.7,0.4
			s0.3,0.4,0.4,0.6c0.1,0.2,0.1,0.5,0.1,0.8c0,0.2,0,0.5-0.1,0.7c0,0.2-0.1,0.5-0.3,0.7c-0.1,0.3-0.3,0.6-0.6,0.9s-0.6,0.7-1,1.1
			l-0.8,0.9h2.8h0.1l0.1,0.1C529.4,20.4,529.4,20.5,529.4,20.7C529.4,20.5,529.4,20.6,529.4,20.7z"/>
		<path class="st4" d="M535.4,17.7c0,0.6,0,1.1-0.1,1.6s-0.2,0.9-0.5,1.2s-0.5,0.6-0.8,0.8c-0.3,0.2-0.7,0.3-1.2,0.3
			s-0.9-0.1-1.2-0.3c-0.3-0.2-0.6-0.4-0.8-0.7c-0.2-0.3-0.3-0.7-0.4-1.2c-0.1-0.5-0.1-1-0.1-1.6s0-1.1,0.1-1.6
			c0.1-0.5,0.2-0.9,0.5-1.2c0.3-0.3,0.5-0.6,0.8-0.8c0.3-0.2,0.7-0.3,1.2-0.3s0.9,0.1,1.2,0.3c0.3,0.2,0.6,0.4,0.8,0.7
			c0.2,0.3,0.3,0.7,0.4,1.2C535.3,16.6,535.4,17.1,535.4,17.7z M533.9,17.8c0-0.3,0-0.6,0-0.9s0-0.5-0.1-0.7s-0.1-0.4-0.1-0.5
			c-0.1-0.1-0.1-0.2-0.2-0.3c-0.1-0.1-0.2-0.1-0.3-0.2c-0.1,0-0.2,0-0.3,0c-0.2,0-0.4,0.1-0.5,0.2c-0.1,0.1-0.3,0.3-0.3,0.5
			c-0.1,0.2-0.1,0.5-0.2,0.8c0,0.3-0.1,0.7-0.1,1.1c0,0.5,0,0.9,0.1,1.3c0,0.3,0.1,0.6,0.2,0.8c0.1,0.2,0.2,0.3,0.3,0.4
			s0.3,0.1,0.5,0.1c0.1,0,0.3,0,0.4-0.1c0.1,0,0.2-0.1,0.3-0.2s0.2-0.2,0.2-0.4c0.1-0.1,0.1-0.3,0.1-0.5s0.1-0.4,0.1-0.6
			C533.9,18.3,533.9,18.1,533.9,17.8z"/>
	</g>
	<g class="st3">
		<path class="st4" d="M541.2,20.7c0,0.1,0,0.2,0,0.3c0,0.1,0,0.1,0,0.2s0,0.1-0.1,0.1H541h-4.2c-0.1,0-0.2,0-0.2,0s-0.1,0-0.1-0.1
			c0,0-0.1-0.1-0.1-0.2s0-0.2,0-0.3c0-0.1,0-0.2,0-0.3c0-0.1,0-0.2,0.1-0.2c0-0.1,0.1-0.1,0.1-0.2s0.1-0.1,0.2-0.2l1.3-1.3
			c0.2-0.3,0.4-0.5,0.6-0.7s0.3-0.4,0.4-0.6c0.1-0.2,0.1-0.3,0.2-0.5c0-0.1,0-0.3,0-0.4s0-0.2-0.1-0.3c0-0.1-0.1-0.2-0.2-0.3
			c-0.1-0.1-0.2-0.1-0.3-0.2c-0.1,0-0.3-0.1-0.4-0.1c-0.2,0-0.4,0-0.6,0.1s-0.3,0.1-0.4,0.2c-0.1,0.1-0.2,0.1-0.3,0.2
			c-0.1,0.1-0.2,0.1-0.2,0.1h-0.1c0,0,0-0.1-0.1-0.1c0-0.1,0-0.1,0-0.2c0-0.1,0-0.2,0-0.3s0-0.2,0-0.2c0-0.1,0-0.1,0-0.2v-0.1
			l0.1-0.1c0,0,0.1-0.1,0.3-0.2c0.1-0.1,0.3-0.1,0.5-0.2c0.2-0.1,0.4-0.1,0.6-0.2c0.2,0,0.4-0.1,0.7-0.1c0.4,0,0.7,0,1,0.1
			s0.5,0.2,0.7,0.4s0.3,0.4,0.4,0.6c0.1,0.2,0.1,0.5,0.1,0.8c0,0.2,0,0.5-0.1,0.7c0,0.2-0.1,0.5-0.3,0.7c-0.1,0.3-0.3,0.6-0.6,0.9
			c-0.3,0.3-0.6,0.7-1,1.1l-0.8,0.9h2.8h0.1l0.1,0.1c0,0,0,0.1,0.1,0.2C541.2,20.5,541.2,20.6,541.2,20.7z"/>
		<path class="st4" d="M547.2,17.7c0,0.6,0,1.1-0.1,1.6c-0.1,0.5-0.2,0.9-0.5,1.2s-0.5,0.6-0.8,0.8c-0.3,0.2-0.7,0.3-1.2,0.3
			s-0.9-0.1-1.2-0.3c-0.3-0.2-0.6-0.4-0.8-0.7c-0.2-0.3-0.3-0.7-0.4-1.2c-0.1-0.5-0.1-1-0.1-1.6s0-1.1,0.1-1.6
			c0.1-0.5,0.2-0.9,0.5-1.2s0.5-0.6,0.8-0.8s0.7-0.3,1.2-0.3s0.9,0.1,1.2,0.3c0.3,0.2,0.6,0.4,0.8,0.7s0.3,0.7,0.4,1.2
			C547.1,16.6,547.2,17.1,547.2,17.7z M545.7,17.8c0-0.3,0-0.6,0-0.9s0-0.5-0.1-0.7c-0.1-0.2-0.1-0.4-0.1-0.5
			c-0.1-0.1-0.1-0.2-0.2-0.3c-0.1-0.1-0.2-0.1-0.3-0.2c-0.1,0-0.2,0-0.3,0c-0.2,0-0.4,0.1-0.5,0.2c-0.1,0.1-0.3,0.3-0.3,0.5
			c-0.1,0.2-0.1,0.5-0.2,0.8c0,0.3-0.1,0.7-0.1,1.1c0,0.5,0,0.9,0.1,1.3c0,0.3,0.1,0.6,0.2,0.8c0.1,0.2,0.2,0.3,0.3,0.4
			s0.3,0.1,0.5,0.1c0.1,0,0.3,0,0.4-0.1c0.1,0,0.2-0.1,0.3-0.2c0.1-0.1,0.2-0.2,0.2-0.4c0.1-0.1,0.1-0.3,0.1-0.5s0.1-0.4,0.1-0.6
			C545.7,18.3,545.7,18.1,545.7,17.8z"/>
	</g>
	<g class="st3">
		<path class="st4" d="M211.8,20.7c0,0.1,0,0.2,0,0.3c0,0.1,0,0.1,0,0.2s0,0.1-0.1,0.1h-0.1h-4.2c-0.1,0-0.2,0-0.2,0s-0.1,0-0.1-0.1
			c0,0-0.1-0.1-0.1-0.2s0-0.2,0-0.3c0-0.1,0-0.2,0-0.3c0-0.1,0-0.2,0.1-0.2c0-0.1,0.1-0.1,0.1-0.2s0.1-0.1,0.2-0.2l1.3-1.3
			c0.2-0.3,0.4-0.5,0.6-0.7s0.3-0.4,0.4-0.6s0.1-0.3,0.2-0.5c0-0.1,0-0.3,0-0.4s0-0.2-0.1-0.3c0-0.1-0.1-0.2-0.2-0.3
			s-0.2-0.1-0.3-0.2c-0.1,0-0.3-0.1-0.4-0.1c-0.2,0-0.4,0-0.6,0.1s-0.3,0.1-0.4,0.2c-0.1,0.1-0.2,0.1-0.3,0.2
			c-0.1,0.1-0.2,0.1-0.2,0.1h-0.1c0,0,0-0.1-0.1-0.1c0-0.1,0-0.1,0-0.2c0-0.1,0-0.2,0-0.3s0-0.2,0-0.2c0-0.1,0-0.1,0-0.2v-0.1
			l0.1-0.1c0,0,0.1-0.1,0.3-0.2c0.1-0.1,0.3-0.1,0.5-0.2c0.2-0.1,0.4-0.1,0.6-0.2c0.2,0,0.4-0.1,0.7-0.1c0.4,0,0.7,0,1,0.1
			s0.5,0.2,0.7,0.4s0.3,0.4,0.4,0.6s0.1,0.5,0.1,0.8c0,0.2,0,0.5-0.1,0.7c0,0.2-0.1,0.5-0.3,0.7c-0.1,0.3-0.3,0.6-0.6,0.9
			c-0.3,0.3-0.6,0.7-1,1.1l-0.8,0.9h2.8h0.1l0.1,0.1c0,0,0,0.1,0.1,0.2C211.8,20.5,211.8,20.6,211.8,20.7z"/>
		<path class="st4" d="M217.8,17.7c0,0.6,0,1.1-0.1,1.6s-0.2,0.9-0.5,1.2s-0.5,0.6-0.8,0.8c-0.3,0.2-0.7,0.3-1.2,0.3
			s-0.9-0.1-1.2-0.3c-0.3-0.2-0.6-0.4-0.8-0.7c-0.2-0.3-0.3-0.7-0.4-1.2s-0.1-1-0.1-1.6s0-1.1,0.1-1.6s0.2-0.9,0.5-1.2
			s0.5-0.6,0.8-0.8s0.7-0.3,1.2-0.3s0.9,0.1,1.2,0.3c0.3,0.2,0.6,0.4,0.8,0.7c0.2,0.3,0.3,0.7,0.4,1.2
			C217.7,16.6,217.8,17.1,217.8,17.7z M216.3,17.8c0-0.3,0-0.6,0-0.9s0-0.5-0.1-0.7s-0.1-0.4-0.1-0.5c-0.1-0.1-0.1-0.2-0.2-0.3
			s-0.2-0.1-0.3-0.2c-0.1,0-0.2,0-0.3,0c-0.2,0-0.4,0.1-0.5,0.2c-0.1,0.1-0.3,0.3-0.3,0.5c-0.1,0.2-0.1,0.5-0.2,0.8
			c0,0.3-0.1,0.7-0.1,1.1c0,0.5,0,0.9,0.1,1.3c0,0.3,0.1,0.6,0.2,0.8c0.1,0.2,0.2,0.3,0.3,0.4c0.1,0.1,0.3,0.1,0.5,0.1
			c0.1,0,0.3,0,0.4-0.1c0.1,0,0.2-0.1,0.3-0.2c0.1-0.1,0.2-0.2,0.2-0.4c0.1-0.1,0.1-0.3,0.1-0.5s0.1-0.4,0.1-0.6
			C216.3,18.3,216.3,18.1,216.3,17.8z"/>
		<path class="st4" d="M223.3,20.8c0,0.1,0,0.2,0,0.3c0,0.1,0,0.1,0,0.2s0,0.1-0.1,0.1h-0.1h-4H219c0,0,0,0-0.1-0.1s0-0.1,0-0.2
			s0-0.2,0-0.3c0-0.1,0-0.2,0-0.3c0-0.1,0-0.1,0-0.2c0,0,0-0.1,0.1-0.1s0.1,0,0.1,0h1.3v-4.7l-1.2,0.6c-0.1,0-0.2,0.1-0.2,0.1
			c-0.1,0-0.1,0-0.1,0s-0.1-0.1-0.1-0.2c0-0.1,0-0.2,0-0.3s0-0.2,0-0.2v-0.1c0,0,0-0.1,0.1-0.1l0.1-0.1l1.6-1c0,0,0,0,0.1,0h0.1
			c0,0,0.1,0,0.2,0s0.2,0,0.3,0c0.1,0,0.3,0,0.3,0c0.1,0,0.2,0,0.2,0s0.1,0,0.1,0.1s0,0,0,0.1v6h1.2h0.1l0.1,0.1c0,0,0,0.1,0,0.2
			C223.3,20.6,223.3,20.7,223.3,20.8z"/>
		<path class="st4" d="M229.3,19.4c0,0.3-0.1,0.6-0.2,0.9s-0.3,0.5-0.5,0.6c-0.2,0.2-0.5,0.3-0.8,0.4s-0.7,0.1-1.1,0.1
			s-0.8,0-1.1-0.1c-0.3-0.1-0.6-0.2-0.8-0.4c-0.2-0.2-0.4-0.4-0.5-0.6s-0.2-0.5-0.2-0.8c0-0.2,0-0.4,0.1-0.6s0.2-0.3,0.3-0.5
			c0.1-0.2,0.3-0.3,0.5-0.4s0.4-0.3,0.6-0.4c-0.2-0.1-0.4-0.2-0.5-0.3c-0.2-0.1-0.3-0.3-0.4-0.4s-0.2-0.3-0.2-0.5
			c-0.1-0.2-0.1-0.4-0.1-0.6c0-0.3,0.1-0.6,0.2-0.8s0.3-0.4,0.5-0.6c0.2-0.2,0.5-0.3,0.8-0.4c0.3-0.1,0.7-0.1,1.1-0.1s0.7,0,1,0.1
			s0.5,0.2,0.7,0.4s0.3,0.3,0.4,0.6c0.1,0.2,0.1,0.5,0.1,0.7s0,0.3-0.1,0.5s-0.1,0.3-0.2,0.5c-0.1,0.1-0.2,0.3-0.4,0.4
			s-0.3,0.3-0.5,0.4c0.2,0.1,0.4,0.2,0.6,0.4s0.3,0.3,0.5,0.4c0.1,0.2,0.2,0.3,0.3,0.5C229.3,19,229.3,19.2,229.3,19.4z M227.9,19.5
			c0-0.1,0-0.3-0.1-0.4c0-0.1-0.1-0.2-0.2-0.3s-0.2-0.2-0.4-0.3c-0.1-0.1-0.3-0.2-0.5-0.3c-0.2,0.1-0.3,0.2-0.5,0.3
			c-0.1,0.1-0.2,0.2-0.3,0.3c-0.1,0.1-0.1,0.2-0.2,0.3c0,0.1-0.1,0.2-0.1,0.4c0,0.3,0.1,0.5,0.3,0.7s0.5,0.2,0.8,0.2
			c0.4,0,0.6-0.1,0.8-0.2C227.8,20,227.9,19.8,227.9,19.5z M227.7,15.9c0-0.1,0-0.2-0.1-0.4s-0.1-0.2-0.2-0.3s-0.2-0.1-0.3-0.2
			s-0.3-0.1-0.4-0.1c-0.3,0-0.5,0.1-0.7,0.2c-0.2,0.1-0.2,0.3-0.2,0.6c0,0.1,0,0.2,0.1,0.3s0.1,0.2,0.2,0.3c0.1,0.1,0.2,0.2,0.3,0.3
			s0.3,0.2,0.5,0.3c0.3-0.2,0.5-0.3,0.6-0.5C227.6,16.3,227.7,16.1,227.7,15.9z"/>
	</g>
	<g>
		<path d="M0.5,0v18.3V0z"/>
		<rect width="1" height="18.3"/>
	</g>
	<g>
		<path d="M594.8,17.7v29.8V17.7z"/>
		<rect x="594.3" y="17.7" width="1" height="29.8"/>
	</g>
</g>
<g>
	<rect x="286" y="22" class="st2" width="31.5" height="2"/>
</g>
<path class="st4" d="M541.2,20.7c0,0.1,0,0.2,0,0.3c0,0.1,0,0.1,0,0.2s0,0.1-0.1,0.1H541h-4.2c-0.1,0-0.2,0-0.2,0s-0.1,0-0.1-0.1
	c0,0-0.1-0.1-0.1-0.2s0-0.2,0-0.3c0-0.1,0-0.2,0-0.3c0-0.1,0-0.2,0.1-0.2c0-0.1,0.1-0.1,0.1-0.2s0.1-0.1,0.2-0.2l1.3-1.3
	c0.2-0.3,0.4-0.5,0.6-0.7s0.3-0.4,0.4-0.6c0.1-0.2,0.1-0.3,0.2-0.5c0-0.1,0-0.3,0-0.4s0-0.2-0.1-0.3c0-0.1-0.1-0.2-0.2-0.3
	s-0.2-0.1-0.3-0.2c-0.1,0-0.3-0.1-0.4-0.1c-0.2,0-0.4,0-0.6,0.1s-0.3,0.1-0.4,0.2c-0.1,0.1-0.2,0.1-0.3,0.2
	c-0.1,0.1-0.2,0.1-0.2,0.1h-0.1c0,0,0-0.1-0.1-0.1c0-0.1,0-0.1,0-0.2c0-0.1,0-0.2,0-0.3s0-0.2,0-0.2c0-0.1,0-0.1,0-0.2v-0.1l0.1-0.1
	c0,0,0.1-0.1,0.3-0.2c0.1-0.1,0.3-0.1,0.5-0.2c0.2-0.1,0.4-0.1,0.6-0.2c0.2,0,0.4-0.1,0.7-0.1c0.4,0,0.7,0,1,0.1
	c0.3,0.1,0.5,0.2,0.7,0.4c0.2,0.2,0.3,0.4,0.4,0.6s0.1,0.5,0.1,0.8c0,0.2,0,0.5-0.1,0.7c0,0.2-0.1,0.5-0.3,0.7
	c-0.1,0.3-0.3,0.6-0.6,0.9c-0.3,0.3-0.6,0.7-1,1.1l-0.8,0.9h2.8h0.1l0.1,0.1c0,0,0,0.1,0.1,0.2C541.2,20.5,541.2,20.6,541.2,20.7z"
	/>
<path class="st4" d="M547.2,17.7c0,0.6,0,1.1-0.1,1.6c-0.1,0.5-0.2,0.9-0.5,1.2c-0.3,0.3-0.5,0.6-0.8,0.8c-0.3,0.2-0.7,0.3-1.2,0.3
	s-0.9-0.1-1.2-0.3c-0.3-0.2-0.6-0.4-0.8-0.7c-0.2-0.3-0.3-0.7-0.4-1.2s-0.1-1-0.1-1.6s0-1.1,0.1-1.6s0.2-0.9,0.5-1.2
	s0.5-0.6,0.8-0.8s0.7-0.3,1.2-0.3s0.9,0.1,1.2,0.3s0.6,0.4,0.8,0.7c0.2,0.3,0.3,0.7,0.4,1.2C547.1,16.6,547.2,17.1,547.2,17.7z
	 M545.7,17.8c0-0.3,0-0.6,0-0.9s0-0.5-0.1-0.7c-0.1-0.2-0.1-0.4-0.1-0.5c-0.1-0.1-0.1-0.2-0.2-0.3s-0.2-0.1-0.3-0.2
	c-0.1,0-0.2,0-0.3,0c-0.2,0-0.4,0.1-0.5,0.2c-0.1,0.1-0.3,0.3-0.3,0.5c-0.1,0.2-0.1,0.5-0.2,0.8c0,0.3-0.1,0.7-0.1,1.1
	c0,0.5,0,0.9,0.1,1.3c0,0.3,0.1,0.6,0.2,0.8c0.1,0.2,0.2,0.3,0.3,0.4s0.3,0.1,0.5,0.1c0.1,0,0.3,0,0.4-0.1c0.1,0,0.2-0.1,0.3-0.2
	c0.1-0.1,0.2-0.2,0.2-0.4c0.1-0.1,0.1-0.3,0.1-0.5s0.1-0.4,0.1-0.6C545.7,18.3,545.7,18.1,545.7,17.8z"/>
</svg>
