<?xml version="1.0" encoding="utf-8"?>
<!-- Generator: Adobe Illustrator 23.1.0, SVG Export Plug-In . SVG Version: 6.00 Build 0)  -->
<!DOCTYPE svg PUBLIC "-//W3C//DTD SVG 1.1//EN" "http://www.w3.org/Graphics/SVG/1.1/DTD/svg11.dtd" [
	<!ENTITY ns_extend "http://ns.adobe.com/Extensibility/1.0/">
	<!ENTITY ns_ai "http://ns.adobe.com/AdobeIllustrator/10.0/">
	<!ENTITY ns_graphs "http://ns.adobe.com/Graphs/1.0/">
	<!ENTITY ns_vars "http://ns.adobe.com/Variables/1.0/">
	<!ENTITY ns_imrep "http://ns.adobe.com/ImageReplacement/1.0/">
	<!ENTITY ns_sfw "http://ns.adobe.com/SaveForWeb/1.0/">
	<!ENTITY ns_custom "http://ns.adobe.com/GenericCustomNamespace/1.0/">
	<!ENTITY ns_adobe_xpath "http://ns.adobe.com/XPath/1.0/">
]>
<svg version="1.1" id="Layer_1" xmlns:x="&ns_extend;" xmlns:i="&ns_ai;" xmlns:graph="&ns_graphs;"
	 xmlns="http://www.w3.org/2000/svg" xmlns:xlink="http://www.w3.org/1999/xlink" x="0px" y="0px" viewBox="0 0 50 90.1"
	 style="enable-background:new 0 0 50 90.1;" xml:space="preserve">
<style type="text/css">
	.st0{fill:#010101;}
	.st1{fill:none;stroke:#000000;stroke-miterlimit:10;}
	.st2{enable-background:new    ;}
	.st3{fill:#FFFFFF;}
</style>
<metadata>
	<sfw  xmlns="&ns_sfw;">
		<slices></slices>
		<sliceSourceBounds  bottomLeftOrigin="true" height="90.1" width="50" x="0" y="0"></sliceSourceBounds>
	</sfw>
</metadata>
<g>
	<g>
		<path class="st0" d="M25,64.2c-0.3,0-0.4-0.1-0.4-0.4V62c0-0.3,0.1-0.4,0.4-0.4s0.4,0.1,0.4,0.4v1.6C25.4,63.9,25.3,64.2,25,64.2z
			"/>
	</g>
	<g>
		<path class="st0" d="M25,84.9c-0.3,0-0.4-0.1-0.4-0.4v-3.4c0-0.3,0.1-0.4,0.4-0.4s0.4,0.1,0.4,0.4v3.4
			C25.4,84.8,25.3,84.9,25,84.9z M25,78c-0.3,0-0.4-0.1-0.4-0.4v-3.4c0-0.3,0.1-0.4,0.4-0.4s0.4,0.1,0.4,0.4v3.4
			C25.4,77.8,25.3,78,25,78z M25,71.1c-0.3,0-0.4-0.1-0.4-0.4v-3.4c0-0.3,0.1-0.4,0.4-0.4s0.4,0.1,0.4,0.4v3.4
			C25.4,70.9,25.3,71.1,25,71.1z"/>
	</g>
	<g>
		<path class="st0" d="M25,90.1c-0.3,0-0.4-0.1-0.4-0.4V88c0-0.3,0.1-0.4,0.4-0.4s0.4,0.1,0.4,0.4v1.6C25.4,89.8,25.3,90.1,25,90.1z
			"/>
	</g>
</g>
<circle class="st0" cx="25" cy="50" r="25"/>
<line class="st1" x1="25" y1="25" x2="25" y2="0"/>
<g class="st2">
	<path class="st3" d="M16.6,53.8c0,0.1,0,0.3,0,0.4c0,0.1,0,0.1,0,0.3c0,0.1,0,0.1-0.1,0.1c0,0-0.1,0-0.1,0c-1.7,0-3.3,0-5,0
		c-0.4,0-0.9,0.1-0.9-0.3c-0.1-0.3-0.1-0.8,0.1-1.1c0.1-0.2,0.2-0.3,0.4-0.5c0.9-0.9,1.8-1.7,2.5-2.7c0.5-0.6,1-1.5,0.6-2.3
		c-0.6-1.1-2.1-0.8-2.8-0.1c-0.1,0.1-0.3,0.1-0.3,0.1h-0.1c0,0,0-0.1-0.1-0.1c0-0.1,0-0.1,0-0.3c0-0.1,0-0.3,0-0.4
		c0-0.1,0-0.3,0-0.3c0-0.1,0-0.1,0-0.3v-0.1l0.1-0.1c0,0,0.1-0.1,0.4-0.3c0.7-0.4,1.5-0.6,2.4-0.6c0.7,0,1.5,0.1,2,0.5
		c0.6,0.5,0.8,1.2,0.8,1.9c0,1.9-1.4,3.1-2.6,4.4c0,0-1,1.2-1,1.2h3.6h0.1l0.1,0.1c0,0,0,0.1,0.1,0.3C16.6,53.6,16.6,53.7,16.6,53.8
		z"/>
	<path class="st3" d="M24.3,49.9c0,1.4,0,3-1.1,4.1c-1,1-2.6,1.4-3.8,0.6c-0.4-0.3-0.8-0.5-1-0.9c-0.3-0.4-0.4-0.9-0.5-1.6
		c-0.1-0.6-0.1-1.3-0.1-2.1c0-1.2,0-2.4,0.6-3.4c0.3-0.5,0.7-0.9,1.1-1.2c0.5-0.4,1-0.5,1.6-0.5c0.6,0,1.2,0.1,1.5,0.4
		s0.8,0.5,1,0.9s0.4,0.9,0.5,1.6C24.2,48.5,24.3,49.2,24.3,49.9z M22.4,50.1c0-0.7-0.1-1.4-0.2-2.2c0-0.2-0.1-0.5-0.2-0.7
		c-0.1-0.3-0.4-0.5-0.7-0.5c-0.4,0-0.7,0.1-1,0.3c-0.2,0.2-0.3,0.4-0.3,0.7c-0.2,0.7-0.4,1.6-0.4,2.4c0,0.6,0,1.2,0.1,1.7
		c0,0.4,0.1,0.8,0.3,1c0.1,0.3,0.3,0.4,0.4,0.5c0.2,0.2,0.7,0.2,0.9,0.1c0.3-0.1,0.6-0.3,0.8-0.6c0.2-0.4,0.3-0.8,0.3-1.2
		C22.4,51,22.4,50.6,22.4,50.1z"/>
	<path class="st3" d="M31.6,53.8c0,0.1,0,0.3,0,0.4c0,0.1,0,0.1,0,0.3c0,0.1,0,0.1-0.1,0.1c0,0-0.1,0-0.1,0c-1.7,0-3.3,0-5,0
		c-0.4,0-0.9,0.1-0.9-0.3c-0.1-0.3-0.1-0.8,0.1-1.1c0.1-0.2,0.2-0.3,0.4-0.5c0.9-0.9,1.8-1.7,2.5-2.7c0.5-0.6,1-1.5,0.6-2.3
		c-0.6-1.1-2.1-0.8-2.8-0.1c-0.1,0.1-0.3,0.1-0.3,0.1h-0.1c0,0,0-0.1-0.1-0.1c0-0.1,0-0.1,0-0.3c0-0.1,0-0.3,0-0.4
		c0-0.1,0-0.3,0-0.3c0-0.1,0-0.1,0-0.3v-0.1l0.1-0.1c0,0,0.1-0.1,0.4-0.3c0.7-0.4,1.5-0.6,2.4-0.6c0.7,0,1.5,0.1,2,0.5
		c0.6,0.5,0.8,1.2,0.8,1.9c0,1.9-1.4,3.1-2.6,4.4c0,0-1,1.2-1,1.2h3.6h0.1l0.1,0.1c0,0,0,0.1,0.1,0.3C31.6,53.6,31.6,53.7,31.6,53.8
		z"/>
	<path class="st3" d="M39.4,49.9c0,1.4,0,3-1.1,4.1c-1,1-2.6,1.4-3.8,0.6c-0.4-0.3-0.8-0.5-1-0.9c-0.3-0.4-0.4-0.9-0.5-1.6
		c-0.1-0.6-0.1-1.3-0.1-2.1c0-1.2,0-2.4,0.6-3.4c0.3-0.5,0.7-0.9,1.1-1.2c0.5-0.4,1-0.5,1.6-0.5c0.6,0,1.2,0.1,1.5,0.4
		c0.4,0.3,0.8,0.5,1,0.9s0.4,0.9,0.5,1.6C39.2,48.5,39.4,49.2,39.4,49.9z M37.5,50.1c0-0.7-0.1-1.4-0.2-2.2c0-0.2-0.1-0.5-0.2-0.7
		c-0.1-0.3-0.4-0.5-0.7-0.5c-0.4,0-0.7,0.1-1,0.3c-0.2,0.2-0.3,0.4-0.3,0.7c-0.2,0.7-0.4,1.6-0.4,2.4c0,0.6,0,1.2,0.1,1.7
		c0,0.4,0.1,0.8,0.3,1c0.1,0.3,0.3,0.4,0.4,0.5c0.2,0.2,0.7,0.2,0.9,0.1c0.3-0.1,0.6-0.3,0.8-0.6c0.2-0.4,0.3-0.8,0.3-1.2
		C37.5,51,37.5,50.6,37.5,50.1z"/>
</g>
</svg>
