<?xml version="1.0" encoding="utf-8"?>
<!-- Generator: Adobe Illustrator 22.1.0, SVG Export Plug-In . SVG Version: 6.00 Build 0)  -->
<svg version="1.1" id="Layer_1" xmlns="http://www.w3.org/2000/svg" xmlns:xlink="http://www.w3.org/1999/xlink" x="0px" y="0px"
	 viewBox="0 0 50 65.1" style="enable-background:new 0 0 50 65.1;" xml:space="preserve">
<style type="text/css">
	.st0{fill:#010101;}
	.st1{enable-background:new    ;}
	.st2{fill:#FFFFFF;}
</style>
<g>
	<g>
		<path class="st0" d="M25,39.2c-0.3,0-0.4-0.1-0.4-0.4V37c0-0.3,0.1-0.4,0.4-0.4s0.4,0.1,0.4,0.4v1.6C25.4,38.9,25.3,39.2,25,39.2z
			"/>
	</g>
	<g>
		<path class="st0" d="M25,59.9c-0.3,0-0.4-0.1-0.4-0.4v-3.4c0-0.3,0.1-0.4,0.4-0.4s0.4,0.1,0.4,0.4v3.4
			C25.4,59.8,25.3,59.9,25,59.9z M25,53c-0.3,0-0.4-0.1-0.4-0.4v-3.4c0-0.3,0.1-0.4,0.4-0.4s0.4,0.1,0.4,0.4v3.4
			C25.4,52.8,25.3,53,25,53z M25,46.1c-0.3,0-0.4-0.1-0.4-0.4v-3.4c0-0.3,0.1-0.4,0.4-0.4s0.4,0.1,0.4,0.4v3.4
			C25.4,45.9,25.3,46.1,25,46.1z"/>
	</g>
	<g>
		<path class="st0" d="M25,65.1c-0.3,0-0.4-0.1-0.4-0.4V63c0-0.3,0.1-0.4,0.4-0.4s0.4,0.1,0.4,0.4v1.6C25.4,64.8,25.3,65.1,25,65.1z
			"/>
	</g>
</g>
<circle class="st0" cx="25" cy="25" r="25"/>
<g class="st1">
	<path class="st2" d="M26.5,21.3c0,0.2,0,0.3,0,0.4s0,0.2-0.1,0.2s-0.1,0.1-0.1,0.1c0,0-0.1,0-0.1,0c-0.2,0-0.4,0-0.6-0.1
		c-0.3-0.1-0.5-0.2-0.8-0.4c-0.3-0.2-0.6-0.4-0.9-0.6c-0.3-0.2-0.6-0.5-0.9-0.8c-0.2,0.1-0.5,0.2-0.8,0.3c-0.3,0.1-0.7,0.1-1.1,0.1
		c-0.7,0-1.4-0.1-1.9-0.3s-1-0.5-1.4-0.9c-0.4-0.4-0.6-0.9-0.8-1.5s-0.3-1.3-0.3-2.2c0-0.8,0.1-1.5,0.3-2.1c0.2-0.6,0.5-1.1,0.9-1.6
		c0.4-0.4,0.9-0.8,1.4-1c0.6-0.2,1.2-0.3,2-0.3c0.7,0,1.3,0.1,1.9,0.3c0.5,0.2,1,0.5,1.4,0.9c0.4,0.4,0.7,0.9,0.8,1.5
		c0.2,0.6,0.3,1.3,0.3,2.1c0,0.4,0,0.8-0.1,1.2c-0.1,0.4-0.1,0.7-0.2,1s-0.2,0.6-0.4,0.9c-0.2,0.3-0.3,0.5-0.5,0.7
		c0.3,0.3,0.6,0.5,0.8,0.6c0.2,0.1,0.4,0.2,0.6,0.3s0.3,0.1,0.4,0.1c0.1,0,0.2,0.1,0.2,0.1c0.1,0.1,0.1,0.1,0.1,0.3
		C26.5,20.9,26.5,21.1,26.5,21.3z M23.6,15.7c0-0.5,0-0.9-0.1-1.3c-0.1-0.4-0.2-0.8-0.4-1c-0.2-0.3-0.4-0.5-0.8-0.7
		c-0.3-0.2-0.7-0.2-1.2-0.2c-0.5,0-0.9,0.1-1.2,0.3c-0.3,0.2-0.6,0.4-0.8,0.7c-0.2,0.3-0.3,0.6-0.4,1c-0.1,0.4-0.1,0.8-0.1,1.3
		c0,0.5,0,1,0.1,1.4c0.1,0.4,0.2,0.8,0.4,1.1c0.2,0.3,0.4,0.5,0.7,0.7c0.3,0.2,0.7,0.2,1.2,0.2s0.9-0.1,1.2-0.3
		c0.3-0.2,0.6-0.4,0.8-0.7c0.2-0.3,0.3-0.7,0.4-1.1C23.6,16.5,23.6,16.1,23.6,15.7z"/>
	<path class="st2" d="M33.3,19.7c0,0.1,0,0.3,0,0.3c0,0.1,0,0.2-0.1,0.2c0,0.1-0.1,0.1-0.1,0.1s-0.1,0-0.1,0h-5.2c0,0-0.1,0-0.1,0
		c0,0-0.1-0.1-0.1-0.1c0-0.1,0-0.1-0.1-0.2c0-0.1,0-0.2,0-0.3c0-0.1,0-0.3,0-0.4c0-0.1,0-0.2,0.1-0.2s0.1-0.1,0.1-0.1
		c0,0,0.1,0,0.1,0h1.8v-6.2L28,13.6c-0.1,0.1-0.2,0.1-0.3,0.1c-0.1,0-0.1,0-0.2,0c0,0-0.1-0.1-0.1-0.2c0-0.1,0-0.2,0-0.4
		c0-0.1,0-0.2,0-0.3c0-0.1,0-0.1,0-0.2s0-0.1,0.1-0.1c0,0,0.1-0.1,0.1-0.1l2-1.3c0,0,0.1,0,0.1,0c0,0,0.1,0,0.1,0c0.1,0,0.1,0,0.2,0
		c0.1,0,0.2,0,0.4,0c0.2,0,0.3,0,0.5,0c0.1,0,0.2,0,0.3,0c0.1,0,0.1,0,0.1,0.1s0,0.1,0,0.1v7.8H33c0,0,0.1,0,0.1,0
		c0,0,0.1,0.1,0.1,0.1s0,0.1,0.1,0.2C33.3,19.4,33.3,19.5,33.3,19.7z"/>
</g>
<g class="st1">
	<path class="st2" d="M16.8,35.6c0,0.1,0,0.3,0,0.4c0,0.1,0,0.2-0.1,0.2c0,0.1-0.1,0.1-0.1,0.1c0,0-0.1,0-0.1,0H11
		c-0.1,0-0.2,0-0.3,0s-0.1-0.1-0.2-0.1c0-0.1-0.1-0.1-0.1-0.2c0-0.1,0-0.2,0-0.4c0-0.2,0-0.3,0-0.4c0-0.1,0-0.2,0.1-0.3
		c0-0.1,0.1-0.2,0.2-0.3c0.1-0.1,0.1-0.2,0.2-0.3l1.6-1.8c0.3-0.3,0.6-0.7,0.8-0.9c0.2-0.3,0.4-0.5,0.5-0.8c0.1-0.2,0.2-0.4,0.2-0.6
		c0-0.2,0.1-0.4,0.1-0.6c0-0.2,0-0.3-0.1-0.5c-0.1-0.1-0.1-0.3-0.2-0.4c-0.1-0.1-0.2-0.2-0.4-0.3c-0.2-0.1-0.3-0.1-0.5-0.1
		c-0.3,0-0.5,0-0.8,0.1c-0.2,0.1-0.4,0.2-0.6,0.2c-0.2,0.1-0.3,0.2-0.4,0.2c-0.1,0.1-0.2,0.1-0.3,0.1c0,0-0.1,0-0.1,0
		c0,0-0.1-0.1-0.1-0.1s0-0.2,0-0.3c0-0.1,0-0.3,0-0.4c0-0.1,0-0.2,0-0.3c0-0.1,0-0.1,0-0.2s0-0.1,0.1-0.1c0,0,0.1-0.1,0.1-0.2
		c0.1-0.1,0.2-0.1,0.3-0.2c0.2-0.1,0.4-0.2,0.6-0.3c0.2-0.1,0.5-0.2,0.8-0.2s0.6-0.1,0.9-0.1c0.5,0,0.9,0.1,1.3,0.2
		c0.4,0.1,0.7,0.3,0.9,0.5c0.2,0.2,0.4,0.5,0.5,0.8c0.1,0.3,0.2,0.6,0.2,1c0,0.3,0,0.6-0.1,0.9c-0.1,0.3-0.2,0.6-0.4,1
		s-0.4,0.7-0.8,1.1c-0.3,0.4-0.8,0.9-1.3,1.5l-1.1,1.1h3.7c0,0,0.1,0,0.1,0c0,0,0.1,0.1,0.1,0.1c0,0.1,0.1,0.1,0.1,0.2
		C16.8,35.4,16.8,35.5,16.8,35.6z"/>
	<path class="st2" d="M24.6,31.6c0,0.8-0.1,1.4-0.2,2c-0.1,0.6-0.3,1.1-0.6,1.6c-0.3,0.4-0.6,0.8-1.1,1s-1,0.3-1.6,0.3
		c-0.6,0-1.2-0.1-1.6-0.3c-0.4-0.2-0.8-0.5-1-1s-0.4-0.9-0.5-1.5c-0.1-0.6-0.1-1.3-0.1-2c0-0.8,0.1-1.4,0.2-2s0.3-1.1,0.6-1.6
		c0.3-0.4,0.6-0.8,1.1-1c0.4-0.2,1-0.3,1.6-0.3c0.6,0,1.2,0.1,1.6,0.3c0.4,0.2,0.8,0.5,1,1c0.2,0.4,0.4,0.9,0.5,1.5
		S24.6,30.9,24.6,31.6z M22.6,31.7c0-0.4,0-0.8,0-1.2s-0.1-0.6-0.1-0.9c-0.1-0.3-0.1-0.5-0.2-0.6s-0.2-0.3-0.3-0.4
		c-0.1-0.1-0.2-0.2-0.4-0.2s-0.3-0.1-0.5-0.1c-0.3,0-0.5,0.1-0.7,0.2c-0.2,0.1-0.3,0.3-0.4,0.6c-0.1,0.3-0.2,0.6-0.2,1
		c0,0.4-0.1,0.9-0.1,1.4c0,0.7,0,1.2,0.1,1.7s0.1,0.8,0.3,1.1c0.1,0.3,0.3,0.4,0.4,0.5c0.2,0.1,0.4,0.2,0.7,0.2c0.2,0,0.4,0,0.5-0.1
		c0.1-0.1,0.3-0.2,0.4-0.3c0.1-0.1,0.2-0.3,0.3-0.5c0.1-0.2,0.1-0.4,0.2-0.6c0-0.2,0.1-0.5,0.1-0.8C22.6,32.4,22.6,32.1,22.6,31.7z"
		/>
	<path class="st2" d="M31.9,35.7c0,0.1,0,0.3,0,0.3c0,0.1,0,0.2-0.1,0.2c0,0.1-0.1,0.1-0.1,0.1s-0.1,0-0.1,0h-5.2c0,0-0.1,0-0.1,0
		c0,0-0.1-0.1-0.1-0.1c0-0.1,0-0.1-0.1-0.2c0-0.1,0-0.2,0-0.3c0-0.1,0-0.3,0-0.4c0-0.1,0-0.2,0.1-0.2c0-0.1,0.1-0.1,0.1-0.1
		c0,0,0.1,0,0.1,0h1.8v-6.2l-1.5,0.8c-0.1,0.1-0.2,0.1-0.3,0.1c-0.1,0-0.1,0-0.2,0c0,0-0.1-0.1-0.1-0.2s0-0.2,0-0.4
		c0-0.1,0-0.2,0-0.3c0-0.1,0-0.1,0-0.2s0-0.1,0.1-0.1s0.1-0.1,0.1-0.1l2-1.3c0,0,0.1,0,0.1,0c0,0,0.1,0,0.1,0c0.1,0,0.1,0,0.2,0
		c0.1,0,0.2,0,0.4,0c0.2,0,0.3,0,0.5,0c0.1,0,0.2,0,0.3,0c0.1,0,0.1,0,0.1,0.1s0,0.1,0,0.1v7.8h1.5c0,0,0.1,0,0.1,0
		c0,0,0.1,0.1,0.1,0.1c0,0.1,0,0.1,0.1,0.2C31.9,35.4,31.9,35.5,31.9,35.7z"/>
	<path class="st2" d="M39.6,27.8c0,0.1,0,0.3,0,0.4c0,0.1,0,0.2,0,0.3c0,0.1,0,0.2-0.1,0.3c0,0.1-0.1,0.2-0.1,0.3l-3.1,7.2
		c0,0.1-0.1,0.1-0.1,0.2c0,0-0.1,0.1-0.2,0.1c-0.1,0-0.2,0-0.3,0c-0.1,0-0.3,0-0.5,0c-0.3,0-0.5,0-0.6,0c-0.2,0-0.3,0-0.3-0.1
		c-0.1,0-0.1-0.1-0.1-0.1s0-0.1,0.1-0.2l3.4-7.4h-4c-0.1,0-0.2-0.1-0.2-0.2c-0.1-0.1-0.1-0.3-0.1-0.6c0-0.1,0-0.3,0-0.4
		c0-0.1,0-0.2,0.1-0.3c0-0.1,0.1-0.1,0.1-0.1c0,0,0.1,0,0.1,0h5.6c0.1,0,0.2,0,0.2,0c0.1,0,0.1,0.1,0.1,0.1c0,0.1,0.1,0.1,0.1,0.2
		C39.6,27.4,39.6,27.6,39.6,27.8z"/>
</g>
</svg>
