<?xml version="1.0" encoding="utf-8"?>
<!-- Generator: Adobe Illustrator 23.0.3, SVG Export Plug-In . SVG Version: 6.00 Build 0)  -->
<!DOCTYPE svg PUBLIC "-//W3C//DTD SVG 1.1//EN" "http://www.w3.org/Graphics/SVG/1.1/DTD/svg11.dtd" [
	<!ENTITY ns_extend "http://ns.adobe.com/Extensibility/1.0/">
	<!ENTITY ns_ai "http://ns.adobe.com/AdobeIllustrator/10.0/">
	<!ENTITY ns_graphs "http://ns.adobe.com/Graphs/1.0/">
	<!ENTITY ns_vars "http://ns.adobe.com/Variables/1.0/">
	<!ENTITY ns_imrep "http://ns.adobe.com/ImageReplacement/1.0/">
	<!ENTITY ns_sfw "http://ns.adobe.com/SaveForWeb/1.0/">
	<!ENTITY ns_custom "http://ns.adobe.com/GenericCustomNamespace/1.0/">
	<!ENTITY ns_adobe_xpath "http://ns.adobe.com/XPath/1.0/">
]>
<svg version="1.1" id="Layer_1" xmlns:x="&ns_extend;" xmlns:i="&ns_ai;" xmlns:graph="&ns_graphs;"
	 xmlns="http://www.w3.org/2000/svg" xmlns:xlink="http://www.w3.org/1999/xlink" x="0px" y="0px" viewBox="0 0 266 266"
	 style="enable-background:new 0 0 266 266;" xml:space="preserve">
<style type="text/css">
	.st0{fill:#3AABE1;}
</style>
<metadata>
	<sfw  xmlns="&ns_sfw;">
		<slices></slices>
		<sliceSourceBounds  bottomLeftOrigin="true" height="266" width="266" x="-101" y="-85"></sliceSourceBounds>
	</sfw>
</metadata>
<g>
	<path class="st0" d="M236,205.9H30c-16.6,0-30,13.5-30,30s13.5,30,30,30H236c16.6,0,30-13.5,30-30S252.5,205.9,236,205.9z
		 M236,257.4H30c-11.8,0-21.5-9.6-21.5-21.5s9.6-21.5,21.5-21.5H236c11.8,0,21.5,9.6,21.5,21.5S247.8,257.4,236,257.4z"/>
	<path class="st0" d="M236,223.1c-7.1,0-12.9,5.8-12.9,12.9s5.8,12.9,12.9,12.9s12.9-5.8,12.9-12.9S243.1,223.1,236,223.1z
		 M236,240.3c-2.4,0-4.3-1.9-4.3-4.3s1.9-4.3,4.3-4.3s4.3,1.9,4.3,4.3S238.3,240.3,236,240.3z"/>
	<path class="st0" d="M201.6,223.1c-7.1,0-12.9,5.8-12.9,12.9s5.8,12.9,12.9,12.9s12.9-5.8,12.9-12.9S208.7,223.1,201.6,223.1z
		 M201.6,240.3c-2.4,0-4.3-1.9-4.3-4.3s1.9-4.3,4.3-4.3c2.4,0,4.3,1.9,4.3,4.3S204,240.3,201.6,240.3z"/>
	<path class="st0" d="M167.3,223.1c-7.1,0-12.9,5.8-12.9,12.9s5.8,12.9,12.9,12.9s12.9-5.8,12.9-12.9S174.4,223.1,167.3,223.1z
		 M167.3,240.3c-2.4,0-4.3-1.9-4.3-4.3s1.9-4.3,4.3-4.3c2.4,0,4.3,1.9,4.3,4.3S169.7,240.3,167.3,240.3z"/>
	<path class="st0" d="M133,223.1c-7.1,0-12.9,5.8-12.9,12.9s5.8,12.9,12.9,12.9s12.9-5.8,12.9-12.9S140.1,223.1,133,223.1z
		 M133,240.3c-2.4,0-4.3-1.9-4.3-4.3s1.9-4.3,4.3-4.3c2.4,0,4.3,1.9,4.3,4.3S135.4,240.3,133,240.3z"/>
	<path class="st0" d="M98.7,223.1c-7.1,0-12.9,5.8-12.9,12.9s5.8,12.9,12.9,12.9s12.9-5.8,12.9-12.9S105.8,223.1,98.7,223.1z
		 M98.7,240.3c-2.4,0-4.3-1.9-4.3-4.3s1.9-4.3,4.3-4.3c2.4,0,4.3,1.9,4.3,4.3S101,240.3,98.7,240.3z"/>
	<path class="st0" d="M64.4,223.1c-7.1,0-12.9,5.8-12.9,12.9s5.8,12.9,12.9,12.9s12.9-5.8,12.9-12.9S71.5,223.1,64.4,223.1z
		 M64.4,240.3c-2.4,0-4.3-1.9-4.3-4.3s1.9-4.3,4.3-4.3c2.4,0,4.3,1.9,4.3,4.3S66.7,240.3,64.4,240.3z"/>
	<path class="st0" d="M30,223.1c-7.1,0-12.9,5.8-12.9,12.9s5.8,12.9,12.9,12.9s12.9-5.8,12.9-12.9S37.1,223.1,30,223.1z M30,240.3
		c-2.4,0-4.3-1.9-4.3-4.3s1.9-4.3,4.3-4.3s4.3,1.9,4.3,4.3S32.4,240.3,30,240.3z"/>
	<polygon class="st0" points="110,128.7 85.8,148.1 85.8,197.4 94.4,197.4 94.4,152.2 113.1,137.3 152.9,137.3 171.6,152.2 
		171.6,197.4 180.2,197.4 180.2,148.1 156,128.7 	"/>
	<rect x="103" y="154.5" class="st0" width="60.1" height="8.6"/>
	<rect x="103" y="188.8" class="st0" width="60.1" height="8.6"/>
	<path class="st0" d="M53.5,94.4l9.7,14.5l12.9-8.6l14.8,22.2l7.1-4.8L83.2,95.6L96,87l-10-15l4.3-21.4L58.1,0H0v48.5l32.1,45.8
		H53.5z M65.5,97l-3.8-5.7l18.6-12.4l3.8,5.7L65.5,97z M77.7,70.4L54.5,85.8H36.6l-12-17.1l46.6-32.2l10.1,15.9L77.7,70.4z M8.6,8.6
		h44.8l13.1,20.6L19.7,61.7L8.6,45.8V8.6z"/>
	<rect x="103" y="94.4" class="st0" width="8.6" height="8.6"/>
	<rect x="107.3" y="111.5" class="st0" width="8.6" height="8.6"/>
	<rect x="72.9" y="124.4" class="st0" width="8.6" height="8.6"/>
	<rect x="55.8" y="115.8" class="st0" width="8.6" height="8.6"/>
	<path class="st0" d="M207.9,0l-32.2,50.6l4.3,21.4l-10,15l12.9,8.6L168,117.7l7.1,4.8l14.8-22.2l12.9,8.6l9.7-14.5h21.4L266,48.5V0
		H207.9z M200.5,97l-18.6-12.4l3.8-5.7l18.6,12.4L200.5,97z M229.4,85.8h-17.9l-23.2-15.5l-3.6-18l10.1-15.9l46.6,32.2L229.4,85.8z
		 M257.4,45.8l-11.1,15.8l-46.9-32.5l13.1-20.6h44.8V45.8z"/>
	<rect x="145.9" y="85.8" class="st0" width="8.6" height="8.6"/>
	<rect x="154.5" y="107.3" class="st0" width="8.6" height="8.6"/>
	<rect x="175.9" y="128.7" class="st0" width="8.6" height="8.6"/>
	<rect x="193.1" y="115.8" class="st0" width="8.6" height="8.6"/>
</g>
</svg>
