<?xml version="1.0" encoding="utf-8"?>
<!-- Generator: Adobe Illustrator 23.0.1, SVG Export Plug-In . SVG Version: 6.00 Build 0)  -->
<svg version="1.1" id="Layer_1" xmlns="http://www.w3.org/2000/svg" xmlns:xlink="http://www.w3.org/1999/xlink" x="0px" y="0px"
	 viewBox="0 0 1922.7 34.9" style="enable-background:new 0 0 1922.7 34.9;" xml:space="preserve">
<style type="text/css">
	.st0{fill:#EEEEEE;}
</style>
<g>
	<g>
		<path class="st0" d="M796.4,8.2h9c4.9,0,7.7,2.8,8.6,6.9h8.1c1.2-3.7,4-6.5,8.9-6.5h9c4.9,0,7.7,2.8,9,6.5h8.1
			c1.2-3.7,4-6.5,8.9-6.5h9c4.9,0,7.7,2.8,9,6.5h8.1c1.2-3.7,4-6.5,8.9-6.5h9c4.9,0,7.7,2.8,9,6.5h8.1c0.8-4.1,3.6-6.9,8.5-7h9
			c13-0.1,12.7,19.2,0.5,19.2h-9c-4.9,0-8.2-3.2-9-6.5h-8.1c-1.2,3.7-4,6.5-8.9,6.5h-9c-4.9,0-7.7-2.8-9-6.5h-8.1
			c-1.2,3.7-4,6.5-8.9,6.5h-9c-4.9,0-7.7-2.8-9-6.5h-8.1c-1.2,3.7-4,6.5-8.9,6.5h-9c-4.9,0-7.7-2.8-9-6.5H814
			c-0.8,3.3-4,6.5-8.9,6.5h-9C783.8,27.4,783.3,8.2,796.4,8.2z M807.9,20.4c-2.9-0.4-2.9-4.5-0.4-5.3c-0.4-0.4-1.2-1.2-2.4-0.8h-9
			c-4.9,0-4.9,7.3,0,7.3h9C806.6,21.6,807,21.2,807.9,20.4z M828.6,15.1c2.4,0.8,2.5,4.9,0,5.7c0.4,0.4,1.6,0.8,2.4,0.8h9
			c0.8,0,2-0.4,2.4-0.8c-2.4-0.8-2.5-4.9,0-5.7c-0.4-0.4-1.2-1.2-2.4-0.8h-9C830.3,14.2,829,14.6,828.6,15.1z M863.7,15
			c2.4,0.8,2.5,4.9,0,5.7c0.4,0.4,1.6,0.8,2.4,0.8h9c0.8,0,2-0.4,2.4-0.8c-2.4-0.8-2.5-4.9,0-5.7c-0.4-0.4-1.6-0.8-2.4-0.8h-9
			C865.8,13.8,864.2,14.6,863.7,15z M898.9,14.9c2.4,0.8,2.5,4.9,0,5.7c0.4,0.4,1.6,0.8,2.4,0.8h9c0.8,0,2-0.4,2.4-0.8
			c-2.4-0.8-2.5-4.9,0-5.7c-0.4-0.4-1.6-0.8-2.4-0.8h-9C900.1,13.7,899.3,14.5,898.9,14.9z M934,14.8c2.4,0.8,2.5,4.9-0.4,5.3
			c0.8,0.8,1.2,1.2,2.9,1.2h9c4.9,0,4.9-7.3,0-7.3h-9C935.2,13.6,934.4,14.4,934,14.8z"/>
	</g>
	<g>
		<path class="st0" d="M936.4,8.2h9c4.9,0,7.7,2.8,8.6,6.9h8.1c1.2-3.7,4-6.5,8.9-6.5h9c4.9,0,7.7,2.8,9,6.5h8.1
			c1.2-3.7,4-6.5,8.9-6.5h9c4.9,0,7.7,2.8,9,6.5h8.1c1.2-3.7,4-6.5,8.9-6.5h9c4.9,0,7.7,2.8,9,6.5h8.1c0.8-4.1,3.6-6.9,8.5-7h9
			c13-0.1,12.7,19.2,0.5,19.2h-9c-4.9,0-8.2-3.2-9-6.5h-8.1c-1.2,3.7-4,6.5-8.9,6.5h-9c-4.9,0-7.7-2.8-9-6.5h-8.1
			c-1.2,3.7-4,6.5-8.9,6.5h-9c-4.9,0-7.7-2.8-9-6.5h-8.1c-1.2,3.7-4,6.5-8.9,6.5h-9c-4.9,0-7.7-2.8-9-6.5H954
			c-0.8,3.3-4,6.5-8.9,6.5h-9C923.8,27.4,923.4,8.2,936.4,8.2z M947.9,20.4c-2.9-0.4-2.9-4.5-0.4-5.3c-0.4-0.4-1.2-1.2-2.4-0.8h-9
			c-4.9,0-4.9,7.3,0,7.3h9C946.7,21.6,947.1,21.2,947.9,20.4z M968.7,15.1c2.4,0.8,2.5,4.9,0,5.7c0.4,0.4,1.6,0.8,2.4,0.8h9
			c0.8,0,2-0.4,2.4-0.8c-2.4-0.8-2.5-4.9,0-5.7c-0.4-0.4-1.2-1.2-2.4-0.8h-9C970.4,14.2,969.1,14.6,968.7,15.1z M1003.8,15
			c2.4,0.8,2.5,4.9,0,5.7c0.4,0.4,1.6,0.8,2.4,0.8h9c0.8,0,2-0.4,2.4-0.8c-2.4-0.8-2.5-4.9,0-5.7c-0.4-0.4-1.6-0.8-2.4-0.8h-9
			C1005.9,13.8,1004.2,14.6,1003.8,15z M1039,14.9c2.4,0.8,2.5,4.9,0,5.7c0.4,0.4,1.6,0.8,2.4,0.8h9c0.8,0,2-0.4,2.4-0.8
			c-2.4-0.8-2.5-4.9,0-5.7c-0.4-0.4-1.6-0.8-2.4-0.8h-9C1040.2,13.7,1039.4,14.5,1039,14.9z M1074.1,14.8c2.4,0.8,2.5,4.9-0.4,5.3
			c0.8,0.8,1.2,1.2,2.9,1.2h9c4.9,0,4.9-7.3,0-7.3h-9C1075.3,13.6,1074.5,14.4,1074.1,14.8z"/>
	</g>
	<g>
		<path class="st0" d="M1077,7.9h9c4.9,0,7.7,2.8,8.6,6.9h8.1c1.2-3.7,4-6.5,8.9-6.5h9c4.9,0,7.7,2.8,9,6.5h8.1
			c1.2-3.7,4-6.5,8.9-6.5h9c4.9,0,7.7,2.8,9,6.5h8.1c1.2-3.7,4-6.5,8.9-6.5h9c4.9,0,7.7,2.8,9,6.5h8.1c0.8-4.1,3.6-6.9,8.5-7h9
			c13-0.1,12.7,19.2,0.5,19.2h-9c-4.9,0-8.2-3.2-9-6.5h-8.1c-1.2,3.7-4,6.5-8.9,6.5h-9c-4.9,0-7.7-2.8-9-6.5h-8.1
			c-1.2,3.7-4,6.5-8.9,6.5h-9c-4.9,0-7.7-2.8-9-6.5h-8.1c-1.2,3.7-4,6.5-8.9,6.5h-9c-4.9,0-7.7-2.8-9-6.5h-8.1
			c-0.8,3.3-4,6.5-8.9,6.5h-9C1064.3,27.1,1063.9,7.9,1077,7.9z M1088.4,20.1c-2.9-0.4-2.9-4.5-0.4-5.3c-0.4-0.4-1.2-1.2-2.4-0.8h-9
			c-4.9,0-4.9,7.3,0,7.3h9C1087.2,21.3,1087.6,20.9,1088.4,20.1z M1109.2,14.7c2.4,0.8,2.5,4.9,0,5.7c0.4,0.4,1.6,0.8,2.4,0.8h9
			c0.8,0,2-0.4,2.4-0.8c-2.4-0.8-2.5-4.9,0-5.7c-0.4-0.4-1.2-1.2-2.4-0.8h-9C1110.9,13.9,1109.6,14.3,1109.2,14.7z M1144.3,14.7
			c2.4,0.8,2.5,4.9,0,5.7c0.4,0.4,1.6,0.8,2.4,0.8h9c0.8,0,2-0.4,2.4-0.8c-2.4-0.8-2.5-4.9,0-5.7c-0.4-0.4-1.6-0.8-2.4-0.8h-9
			C1146.4,13.5,1144.7,14.3,1144.3,14.7z M1179.4,14.6c2.4,0.8,2.5,4.9,0,5.7c0.4,0.4,1.6,0.8,2.4,0.8h9c0.8,0,2-0.4,2.4-0.8
			c-2.4-0.8-2.5-4.9,0-5.7c-0.4-0.4-1.6-0.8-2.4-0.8h-9C1180.7,13.3,1179.8,14.2,1179.4,14.6z M1214.5,14.5c2.4,0.8,2.5,4.9-0.4,5.3
			c0.8,0.8,1.2,1.2,2.9,1.2h9c4.9,0,4.9-7.3,0-7.3h-9C1215.8,13.3,1215,14.1,1214.5,14.5z"/>
	</g>
	<g>
		<path class="st0" d="M1217.4,7.6h9c4.9,0,7.7,2.8,8.6,6.9h8.1c1.2-3.7,4-6.5,8.9-6.5h9c4.9,0,7.7,2.8,9,6.5h8.1
			c1.2-3.8,4-6.7,8.9-6.7h9c4.9,0,7.7,2.8,9,6.5h8.1c1.2-3.7,4-6.5,8.9-6.5h9c4.9,0,7.7,2.8,9,6.5h8.1c0.8-4.1,3.6-6.9,8.5-7h9
			c13-0.1,12.7,19.2,0.5,19.2h-9c-4.9,0-8.2-3.2-9-6.5l-8.1-0.1c-1.2,3.7-4,6.5-8.9,6.5h-9c-4.9,0-7.7-2.8-9-6.5h-8.1
			c-1.2,3.7-4,6.5-8.9,6.5h-9c-4.9,0-7.7-2.8-9-6.5h-8.1c-1.2,3.7-4,6.5-8.9,6.5h-9c-4.9,0-7.7-2.8-9-6.5h-8.1
			c-0.8,3.3-4,6.5-8.9,6.5h-9C1204.7,26.8,1204.3,7.6,1217.4,7.6z M1228.8,19.8c-2.9-0.4-2.9-4.5-0.4-5.3c-0.4-0.4-1.2-1.2-2.4-0.8
			h-9c-4.9,0-4.9,7.3,0,7.3h9C1227.6,21,1228,20.6,1228.8,19.8z M1249.7,14.4c2.4,0.8,2.5,4.9,0,5.7c0.4,0.4,1.6,0.8,2.4,0.8h9
			c0.8,0,2-0.4,2.4-0.8c-2.4-0.8-2.5-4.9,0-5.7c-0.4-0.4-1.2-1.2-2.4-0.8h-9C1251.3,13.6,1250.1,14,1249.7,14.4z M1284.8,14.3
			c2.4,0.8,2.5,4.9,0,5.7c0.4,0.4,1.6,0.8,2.4,0.8h9c0.8,0,2-0.4,2.4-0.8c-2.4-0.8-2.5-4.9,0-5.7c-0.4-0.4-1.6-0.8-2.4-0.8h-9
			C1286.8,13.1,1285.2,13.9,1284.8,14.3z M1319.9,14.3c2.4,0.8,2.5,4.9,0,5.7c0.4,0.4,1.6,0.8,2.4,0.8h9c0.8,0,2-0.4,2.4-0.8
			c-2.4-0.8-2.5-4.9,0-5.7c-0.4-0.4-1.6-0.8-2.4-0.8h-9C1321.1,13.1,1320.3,13.9,1319.9,14.3z M1355,14.2c2.4,0.8,2.5,4.9-0.4,5.3
			c0.8,0.8,1.2,1.2,2.9,1.2h9c4.9,0,4.9-7.3,0-7.3h-9C1356.2,12.9,1355.4,13.8,1355,14.2z"/>
	</g>
	<g>
		<path class="st0" d="M1357.3,7.2h9c4.9,0,7.7,2.8,8.6,6.9h8.1c1.2-3.7,4-6.5,8.9-6.5h9c4.9,0,7.7,2.8,9,6.5h8.1
			c1.2-3.7,4-6.5,8.9-6.5h9c4.9,0,7.7,2.8,9,6.5h8.1c1.2-3.7,4-6.5,8.9-6.5h9c4.9,0,7.7,2.8,9,6.5h8.1c0.8-4.1,3.6-6.9,8.5-7h9
			c13-0.1,12.7,19.2,0.5,19.2h-9c-4.9,0-8.2-3.2-9-6.5h-8.1c-1.2,3.7-4,6.5-8.9,6.5h-9c-4.9,0-7.7-2.8-9-6.5h-8.1
			c-1.2,3.7-4,6.5-8.9,6.5h-9c-4.9,0-7.7-2.8-9-6.5h-8.1c-1.2,3.7-4,6.5-8.9,6.5h-9c-4.9,0-7.7-2.8-9-6.5h-8.1
			c-0.8,3.3-4,6.5-8.9,6.5h-9C1344.7,26.5,1344.3,7.3,1357.3,7.2z M1368.8,19.5c-2.9-0.4-2.9-4.5-0.4-5.3c-0.4-0.4-1.2-1.2-2.4-0.8
			h-9c-4.9,0-4.9,7.3,0,7.3h9C1367.6,20.7,1368,20.3,1368.8,19.5z M1389.6,14.1c2.4,0.8,2.5,4.9,0,5.7c0.4,0.4,1.6,0.8,2.4,0.8h9
			c0.8,0,2-0.4,2.4-0.8c-2.4-0.8-2.5-4.9,0-5.7c-0.4-0.4-1.2-1.2-2.4-0.8h-9C1391.2,13.3,1390,13.7,1389.6,14.1z M1424.7,14
			c2.4,0.8,2.5,4.9,0,5.7c0.4,0.4,1.6,0.8,2.4,0.8h9c0.8,0,2-0.4,2.4-0.8c-2.4-0.8-2.5-4.9,0-5.7c-0.4-0.4-1.6-0.8-2.4-0.8h-9
			C1426.8,12.8,1425.1,13.6,1424.7,14z M1459.8,13.9c2.4,0.8,2.5,4.9,0,5.7c0.4,0.4,1.6,0.8,2.4,0.8h9c0.8,0,2-0.4,2.4-0.8
			c-2.4-0.8-2.5-4.9,0-5.7c-0.4-0.4-1.6-0.8-2.4-0.8h-9C1461.1,12.7,1460.2,13.5,1459.8,13.9z M1495,13.9c2.4,0.8,2.5,4.9-0.4,5.3
			c0.8,0.8,1.2,1.2,2.9,1.2h9c4.9,0,4.9-7.3,0-7.3h-9C1496.2,12.7,1495.4,13.5,1495,13.9z"/>
	</g>
	<g>
		<path class="st0" d="M1497.6,7.2h9c4.9,0,7.7,2.8,8.6,6.9h8.1c1.2-3.7,4-6.5,8.9-6.5h9c4.9,0,7.7,2.8,9,6.5h8.1
			c1.2-3.7,4-6.5,8.9-6.5h9c4.9,0,7.7,2.8,9,6.5h8.1c1.2-3.7,4-6.5,8.9-6.5h9c4.9,0,7.7,2.8,9,6.5h8.1c0.8-4.1,3.6-6.9,8.5-7h9
			c13-0.1,12.7,19.2,0.5,19.2h-9c-4.9,0-8.2-3.2-9-6.5h-8.1c-1.2,3.7-4,6.5-8.9,6.5h-9c-4.9,0-7.7-2.8-9-6.5h-8.1
			c-1.2,3.7-4,6.5-8.9,6.5h-9c-4.9,0-7.7-2.8-9-6.5h-8.1c-1.2,3.7-4,6.5-8.9,6.5h-9c-4.9,0-7.7-2.8-9-6.5h-8.1
			c-0.8,3.3-4,6.5-8.9,6.5h-9C1485,26.5,1484.5,7.3,1497.6,7.2z M1509.1,19.5c-2.9-0.4-2.9-4.5-0.4-5.3c-0.4-0.4-1.2-1.2-2.4-0.8h-9
			c-4.9,0-4.9,7.3,0,7.3h9C1507.8,20.7,1508.3,20.3,1509.1,19.5z M1529.8,14.1c2.4,0.8,2.5,4.9,0,5.7c0.4,0.4,1.6,0.8,2.4,0.8h9
			c0.8,0,2-0.4,2.4-0.8c-2.4-0.8-2.5-4.9,0-5.7c-0.4-0.4-1.2-1.2-2.4-0.8h-9C1531.5,13.3,1530.2,13.7,1529.8,14.1z M1564.9,14
			c2.4,0.8,2.5,4.9,0,5.7c0.4,0.4,1.6,0.8,2.4,0.8h9c0.8,0,2-0.4,2.4-0.8c-2.4-0.8-2.5-4.9,0-5.7c-0.4-0.4-1.6-0.8-2.4-0.8h-9
			C1567,12.8,1565.4,13.6,1564.9,14z M1600.1,13.9c2.4,0.8,2.5,4.9,0,5.7c0.4,0.4,1.6,0.8,2.4,0.8h9c0.8,0,2-0.4,2.4-0.8
			c-2.4-0.8-2.5-4.9,0-5.7c-0.4-0.4-1.6-0.8-2.4-0.8h-9C1601.3,12.7,1600.5,13.5,1600.1,13.9z M1635.2,13.9c2.4,0.8,2.5,4.9-0.4,5.3
			c0.8,0.8,1.2,1.2,2.9,1.2h9c4.9,0,4.9-7.3,0-7.3h-9C1636.4,12.7,1635.6,13.5,1635.2,13.9z"/>
	</g>
	<g>
		<path class="st0" d="M1637.9,6.9h9c4.9,0,7.7,2.8,8.6,6.9h8.1c1.2-3.7,4-6.5,8.9-6.5h9c4.9,0,7.7,2.8,9,6.5h8.1
			c1.2-3.7,4-6.5,8.9-6.5h9c4.9,0,7.7,2.8,9,6.5h8.1c1.2-3.7,4-6.5,8.9-6.5h9c4.9,0,7.7,2.8,9,6.5h8.1c0.8-4.1,3.6-6.9,8.5-7h9
			c13-0.1,12.7,19.2,0.5,19.2h-9c-4.9,0-8.2-3.2-9-6.5h-8.1c-1.2,3.7-4,6.5-8.9,6.5h-9c-4.9,0-7.7-2.8-9-6.5h-8.1
			c-1.2,3.7-4,6.5-8.9,6.5h-9c-4.9,0-7.7-2.8-9-6.5h-8.1c-1.2,3.7-4,6.5-8.9,6.5h-9c-4.9,0-7.7-2.8-9-6.5h-8.1
			c-0.8,3.3-4,6.5-8.9,6.5h-9C1625.3,26.2,1624.9,6.9,1637.9,6.9z M1649.4,19.2c-2.9-0.4-2.9-4.5-0.4-5.3c-0.4-0.4-1.2-1.2-2.4-0.8
			h-9c-4.9,0-4.9,7.3,0,7.3h9C1648.2,20.4,1648.6,20,1649.4,19.2z M1670.2,13.8c2.4,0.8,2.5,4.9,0,5.7c0.4,0.4,1.6,0.8,2.4,0.8h9
			c0.8,0,2-0.4,2.4-0.8c-2.4-0.8-2.5-4.9,0-5.7c-0.4-0.4-1.2-1.2-2.4-0.8h-9C1671.8,13,1670.6,13.4,1670.2,13.8z M1705.3,13.8
			c2.4,0.8,2.5,4.9,0,5.7c0.4,0.4,1.6,0.8,2.4,0.8h9c0.8,0,2-0.4,2.4-0.8c-2.4-0.8-2.5-4.9,0-5.7c-0.4-0.4-1.6-0.8-2.4-0.8h-9
			C1707.4,12.5,1705.7,13.3,1705.3,13.8z M1740.4,13.6c2.4,0.8,2.5,4.9,0,5.7c0.4,0.4,1.6,0.8,2.4,0.8h9c0.8,0,2-0.4,2.4-0.8
			c-2.4-0.8-2.5-4.9,0-5.7c-0.4-0.4-1.6-0.8-2.4-0.8h-9C1741.7,12.4,1740.8,13.2,1740.4,13.6z M1775.6,13.6c2.4,0.8,2.5,4.9-0.4,5.3
			c0.8,0.8,1.2,1.2,2.9,1.2h9c4.9,0,4.9-7.3,0-7.3h-9C1776.8,12.4,1776,13.2,1775.6,13.6z"/>
	</g>
	<g>
		<path class="st0" d="M1778.4,6.9h9c4.9,0,7.7,2.8,8.6,6.9h8.1c1.2-3.7,4-6.5,8.9-6.5h9c4.9,0,7.7,2.8,9,6.5h8.1
			c1.2-3.7,4-6.5,8.9-6.5h9c4.9,0,7.7,2.8,9,6.5h8.1c1.2-3.7,4-6.5,8.9-6.5h9c4.9,0,7.7,2.8,9,6.5h8.1c0.8-4.1,3.6-6.9,8.5-7h9
			c13-0.1,12.7,19.2,0.5,19.2h-9c-4.9,0-8.2-3.2-9-6.5h-8.1c-1.2,3.7-4,6.5-8.9,6.5h-9c-4.9,0-7.7-2.8-9-6.5h-8.1
			c-1.2,3.7-4,6.5-8.9,6.5h-9c-4.9,0-7.7-2.8-9-6.5h-8.1c-1.2,3.7-4,6.5-8.9,6.5h-9c-4.9,0-7.7-2.8-9-6.5h-8.1
			c-0.8,3.3-4,6.5-8.9,6.5h-9C1765.8,26.2,1765.3,6.9,1778.4,6.9z M1789.9,19.2c-2.9-0.4-2.9-4.5-0.4-5.3c-0.4-0.4-1.2-1.2-2.4-0.8
			h-9c-4.9,0-4.9,7.3,0,7.3h9C1788.6,20.4,1789.1,20,1789.9,19.2z M1810.7,13.8c2.4,0.8,2.5,4.9,0,5.7c0.4,0.4,1.6,0.8,2.4,0.8h9
			c0.8,0,2-0.4,2.4-0.8c-2.4-0.8-2.5-4.9,0-5.7c-0.4-0.4-1.2-1.2-2.4-0.8h-9C1812.3,13,1811.1,13.4,1810.7,13.8z M1845.8,13.8
			c2.4,0.8,2.5,4.9,0,5.7c0.4,0.4,1.6,0.8,2.4,0.8h9c0.8,0,2-0.4,2.4-0.8c-2.4-0.8-2.5-4.9,0-5.7c-0.4-0.4-1.6-0.8-2.4-0.8h-9
			C1847.8,12.5,1846.2,13.3,1845.8,13.8z M1880.9,13.6c2.4,0.8,2.5,4.9,0,5.7c0.4,0.4,1.6,0.8,2.4,0.8h9c0.8,0,2-0.4,2.4-0.8
			c-2.4-0.8-2.5-4.9,0-5.7c-0.4-0.4-1.6-0.8-2.4-0.8h-9C1882.1,12.4,1881.3,13.2,1880.9,13.6z M1916,13.6c2.4,0.8,2.5,4.9-0.4,5.3
			c0.8,0.8,1.2,1.2,2.9,1.2h9c4.9,0,4.9-7.3,0-7.3h-9C1917.3,12.4,1916.4,13.2,1916,13.6z"/>
	</g>
</g>
<g>
	<g>
		<path class="st0" d="M-325.8,9h9c4.9,0,7.7,2.8,8.6,6.9h8.1c1.2-3.7,4-6.5,8.9-6.5h9c4.9,0,7.7,2.8,9,6.5h8.1
			c1.2-3.7,4-6.5,8.9-6.5h9c4.9,0,7.7,2.8,9,6.5h8.1c1.2-3.7,4-6.5,8.9-6.5h9c4.9,0,7.7,2.8,9,6.5h8.1c0.8-4.1,3.6-6.9,8.5-7h9
			c13-0.1,12.7,19.2,0.5,19.2h-9c-4.9,0-8.2-3.2-9-6.5h-8.1c-1.2,3.7-4,6.5-8.9,6.5h-9c-4.9,0-7.7-2.8-9-6.5h-8.1
			c-1.2,3.7-4,6.5-8.9,6.5h-9c-4.9,0-7.7-2.8-9-6.5h-8.1c-1.2,3.7-4,6.5-8.9,6.5h-9c-4.9,0-7.7-2.8-9-6.5h-8.1
			c-0.8,3.3-4,6.5-8.9,6.5h-9C-338.4,28.2-338.9,9-325.8,9z M-314.3,21.2c-2.9-0.4-2.9-4.5-0.4-5.3c-0.4-0.4-1.2-1.2-2.4-0.8h-9
			c-4.9,0-4.9,7.3,0,7.3h9C-315.6,22.4-315.2,22-314.3,21.2z M-293.6,15.9c2.4,0.8,2.5,4.9,0,5.7c0.4,0.4,1.6,0.8,2.4,0.8h9
			c0.8,0,2-0.4,2.4-0.8c-2.4-0.8-2.5-4.9,0-5.7c-0.4-0.4-1.2-1.2-2.4-0.8h-9C-291.9,15-293.2,15.4-293.6,15.9z M-258.5,15.7
			c2.4,0.8,2.5,4.9,0,5.7c0.4,0.4,1.6,0.8,2.4,0.8h9c0.8,0,2-0.4,2.4-0.8c-2.4-0.8-2.5-4.9,0-5.7c-0.4-0.4-1.6-0.8-2.4-0.8h-9
			C-256.4,14.5-258,15.3-258.5,15.7z M-223.3,15.7c2.4,0.8,2.5,4.9,0,5.7c0.4,0.4,1.6,0.8,2.4,0.8h9c0.8,0,2-0.4,2.4-0.8
			c-2.4-0.8-2.5-4.9,0-5.7c-0.4-0.4-1.6-0.8-2.4-0.8h-9C-222.1,14.5-222.9,15.3-223.3,15.7z M-188.2,15.6c2.4,0.8,2.5,4.9-0.4,5.3
			c0.8,0.8,1.2,1.2,2.9,1.2h9c4.9,0,4.9-7.3,0-7.3h-9C-187,14.4-187.8,15.2-188.2,15.6z"/>
	</g>
	<g>
		<path class="st0" d="M-185.8,9h9c4.9,0,7.7,2.8,8.6,6.9h8.1c1.2-3.7,4-6.5,8.9-6.5h9c4.9,0,7.7,2.8,9,6.5h8.1
			c1.2-3.7,4-6.5,8.9-6.5h9c4.9,0,7.7,2.8,9,6.5h8.1c1.2-3.7,4-6.5,8.9-6.5h9c4.9,0,7.7,2.8,9,6.5h8.1c0.8-4.1,3.6-6.9,8.5-7h9
			c13-0.1,12.7,19.2,0.5,19.2h-9c-4.9,0-8.2-3.2-9-6.5h-8.1c-1.2,3.7-4,6.5-8.9,6.5h-9c-4.9,0-7.7-2.8-9-6.5h-8.1
			c-1.2,3.7-4,6.5-8.9,6.5h-9c-4.9,0-7.7-2.8-9-6.5h-8.1c-1.2,3.7-4,6.5-8.9,6.5h-9c-4.9,0-7.7-2.8-9-6.5h-8.1
			c-0.8,3.3-4,6.5-8.9,6.5h-9C-198.4,28.2-198.8,9-185.8,9z M-174.3,21.2c-2.9-0.4-2.9-4.5-0.4-5.3c-0.4-0.4-1.2-1.2-2.4-0.8h-9
			c-4.9,0-4.9,7.3,0,7.3h9C-175.5,22.4-175.1,22-174.3,21.2z M-153.5,15.9c2.4,0.8,2.5,4.9,0,5.7c0.4,0.4,1.6,0.8,2.4,0.8h9
			c0.8,0,2-0.4,2.4-0.8c-2.4-0.8-2.5-4.9,0-5.7c-0.4-0.4-1.2-1.2-2.4-0.8h-9C-151.8,15-153.1,15.4-153.5,15.9z M-118.4,15.7
			c2.4,0.8,2.5,4.9,0,5.7c0.4,0.4,1.6,0.8,2.4,0.8h9c0.8,0,2-0.4,2.4-0.8c-2.4-0.8-2.5-4.9,0-5.7c-0.4-0.4-1.6-0.8-2.4-0.8h-9
			C-116.3,14.5-118,15.3-118.4,15.7z M-83.2,15.7c2.4,0.8,2.5,4.9,0,5.7c0.4,0.4,1.6,0.8,2.4,0.8h9c0.8,0,2-0.4,2.4-0.8
			c-2.4-0.8-2.5-4.9,0-5.7c-0.4-0.4-1.6-0.8-2.4-0.8h-9C-82,14.5-82.8,15.3-83.2,15.7z M-48.1,15.6c2.4,0.8,2.5,4.9-0.4,5.3
			c0.8,0.8,1.2,1.2,2.9,1.2h9c4.9,0,4.9-7.3,0-7.3h-9C-46.9,14.4-47.7,15.2-48.1,15.6z"/>
	</g>
	<g>
		<path class="st0" d="M-45.2,8.6h9c4.9,0,7.7,2.8,8.6,6.9h8.1c1.2-3.7,4-6.5,8.9-6.5h9c4.9,0,7.7,2.8,9,6.5h8.1
			c1.2-3.7,4-6.5,8.9-6.5h9c4.9,0,7.7,2.8,9,6.5h8.1c1.2-3.7,4-6.5,8.9-6.5h9c4.9,0,7.7,2.8,9,6.5h8.1c0.8-4.1,3.6-6.9,8.5-7h9
			c13-0.1,12.7,19.2,0.5,19.2h-9c-4.9,0-8.2-3.2-9-6.5h-8.1c-1.2,3.7-4,6.5-8.9,6.5h-9c-4.9,0-7.7-2.8-9-6.5h-8.1
			c-1.2,3.7-4,6.5-8.9,6.5h-9c-4.9,0-7.7-2.8-9-6.5H7.5c-1.2,3.7-4,6.5-8.9,6.5h-9c-4.9,0-7.7-2.8-9-6.5h-8.1
			c-0.8,3.3-4,6.5-8.9,6.5h-9C-57.9,27.9-58.3,8.7-45.2,8.6z M-33.8,20.9c-2.9-0.4-2.9-4.5-0.4-5.3c-0.4-0.4-1.2-1.2-2.4-0.8h-9
			c-4.9,0-4.9,7.3,0,7.3h9C-35,22.1-34.6,21.7-33.8,20.9z M-13,15.5c2.4,0.8,2.5,4.9,0,5.7c0.4,0.4,1.6,0.8,2.4,0.8h9
			c0.8,0,2-0.4,2.4-0.8c-2.4-0.8-2.5-4.9,0-5.7c-0.4-0.4-1.2-1.2-2.4-0.8h-9C-11.3,14.7-12.6,15.1-13,15.5z M22.1,15.5
			c2.4,0.8,2.5,4.9,0,5.7c0.4,0.4,1.6,0.8,2.4,0.8h9c0.8,0,2-0.4,2.4-0.8c-2.4-0.8-2.5-4.9,0-5.7c-0.4-0.4-1.6-0.8-2.4-0.8h-9
			C24.2,14.2,22.5,15.1,22.1,15.5z M57.2,15.4c2.4,0.8,2.5,4.9,0,5.7c0.4,0.4,1.6,0.8,2.4,0.8h9c0.8,0,2-0.4,2.4-0.8
			c-2.4-0.8-2.5-4.9,0-5.7c-0.4-0.4-1.6-0.8-2.4-0.8h-9C58.5,14.1,57.6,15,57.2,15.4z M92.3,15.3c2.4,0.8,2.5,4.9-0.4,5.3
			c0.8,0.8,1.2,1.2,2.9,1.2h9c4.9,0,4.9-7.3,0-7.3h-9C93.6,14.1,92.8,14.9,92.3,15.3z"/>
	</g>
	<g>
		<path class="st0" d="M95.2,8.4h9c4.9,0,7.7,2.8,8.6,6.9h8.1c1.2-3.7,4-6.5,8.9-6.5h9c4.9,0,7.7,2.8,9,6.5h8.1
			c1.2-3.8,4-6.7,8.9-6.7h9c4.9,0,7.7,2.8,9,6.5h8.1c1.2-3.7,4-6.5,8.9-6.5h9c4.9,0,7.7,2.8,9,6.5h8.1c0.8-4.1,3.6-6.9,8.5-7h9
			c13-0.1,12.7,19.2,0.5,19.2h-9c-4.9,0-8.2-3.2-9-6.5l-8.1-0.1c-1.2,3.7-4,6.5-8.9,6.5h-9c-4.9,0-7.7-2.8-9-6.5H183
			c-1.2,3.7-4,6.5-8.9,6.5h-9c-4.9,0-7.7-2.8-9-6.5h-8.1c-1.2,3.7-4,6.5-8.9,6.5h-9c-4.9,0-7.7-2.8-9-6.5h-8.1
			c-0.8,3.3-4,6.5-8.9,6.5h-9C82.5,27.6,82.1,8.4,95.2,8.4z M106.6,20.5c-2.9-0.4-2.9-4.5-0.4-5.3c-0.4-0.4-1.2-1.2-2.4-0.8h-9
			c-4.9,0-4.9,7.3,0,7.3h9C105.4,21.8,105.8,21.4,106.6,20.5z M127.5,15.2c2.4,0.8,2.5,4.9,0,5.7c0.4,0.4,1.6,0.8,2.4,0.8h9
			c0.8,0,2-0.4,2.4-0.8c-2.4-0.8-2.5-4.9,0-5.7c-0.4-0.4-1.2-1.2-2.4-0.8h-9C129.1,14.4,127.9,14.8,127.5,15.2z M162.6,15.1
			c2.4,0.8,2.5,4.9,0,5.7c0.4,0.4,1.6,0.8,2.4,0.8h9c0.8,0,2-0.4,2.4-0.8c-2.4-0.8-2.5-4.9,0-5.7c-0.4-0.4-1.6-0.8-2.4-0.8h-9
			C164.6,13.9,163,14.7,162.6,15.1z M197.7,15.1c2.4,0.8,2.5,4.9,0,5.7c0.4,0.4,1.6,0.8,2.4,0.8h9c0.8,0,2-0.4,2.4-0.8
			c-2.4-0.8-2.5-4.9,0-5.7c-0.4-0.4-1.6-0.8-2.4-0.8h-9C198.9,13.8,198.1,14.6,197.7,15.1z M232.8,15c2.4,0.8,2.5,4.9-0.4,5.3
			c0.8,0.8,1.2,1.2,2.9,1.2h9c4.9,0,4.9-7.3,0-7.3h-9C234,13.7,233.2,14.6,232.8,15z"/>
	</g>
	<g>
		<path class="st0" d="M235.1,8h9c4.9,0,7.7,2.8,8.6,6.9h8.1c1.2-3.7,4-6.5,8.9-6.5h9c4.9,0,7.7,2.8,9,6.5h8.1
			c1.2-3.7,4-6.5,8.9-6.5h9c4.9,0,7.7,2.8,9,6.5h8.1c1.2-3.7,4-6.5,8.9-6.5h9c4.9,0,7.7,2.8,9,6.5h8.1c0.8-4.1,3.6-6.9,8.5-7h9
			c13-0.1,12.7,19.2,0.5,19.2h-9c-4.9,0-8.2-3.2-9-6.5H358c-1.2,3.7-4,6.5-8.9,6.5h-9c-4.9,0-7.7-2.8-9-6.5h-8.1
			c-1.2,3.7-4,6.5-8.9,6.5h-9c-4.9,0-7.7-2.8-9-6.5h-8.1c-1.2,3.7-4,6.5-8.9,6.5h-9c-4.9,0-7.7-2.8-9-6.5h-8.1
			c-0.8,3.3-4,6.5-8.9,6.5h-9C222.5,27.2,222.1,8.1,235.1,8z M246.6,20.2c-2.9-0.4-2.9-4.5-0.4-5.3c-0.4-0.4-1.2-1.2-2.4-0.8h-9
			c-4.9,0-4.9,7.3,0,7.3h9C245.4,21.5,245.8,21.1,246.6,20.2z M267.4,14.9c2.4,0.8,2.5,4.9,0,5.7c0.4,0.4,1.6,0.8,2.4,0.8h9
			c0.8,0,2-0.4,2.4-0.8c-2.4-0.8-2.5-4.9,0-5.7c-0.4-0.4-1.2-1.2-2.4-0.8h-9C269,14.1,267.8,14.5,267.4,14.9z M302.5,14.8
			c2.4,0.8,2.5,4.9,0,5.7c0.4,0.4,1.6,0.8,2.4,0.8h9c0.8,0,2-0.4,2.4-0.8c-2.4-0.8-2.5-4.9,0-5.7c-0.4-0.4-1.6-0.8-2.4-0.8h-9
			C304.6,13.6,302.9,14.4,302.5,14.8z M337.6,14.7c2.4,0.8,2.5,4.9,0,5.7c0.4,0.4,1.6,0.8,2.4,0.8h9c0.8,0,2-0.4,2.4-0.8
			c-2.4-0.8-2.5-4.9,0-5.7c-0.4-0.4-1.6-0.8-2.4-0.8h-9C338.9,13.5,338,14.3,337.6,14.7z M372.8,14.6c2.4,0.8,2.5,4.9-0.4,5.3
			c0.8,0.8,1.2,1.2,2.9,1.2h9c4.9,0,4.9-7.3,0-7.3h-9C374,13.4,373.2,14.2,372.8,14.6z"/>
	</g>
	<g>
		<path class="st0" d="M375.4,8h9c4.9,0,7.7,2.8,8.6,6.9h8.1c1.2-3.7,4-6.5,8.9-6.5h9c4.9,0,7.7,2.8,9,6.5h8.1
			c1.2-3.7,4-6.5,8.9-6.5h9c4.9,0,7.7,2.8,9,6.5h8.1c1.2-3.7,4-6.5,8.9-6.5h9c4.9,0,7.7,2.8,9,6.5h8.1c0.8-4.1,3.6-6.9,8.5-7h9
			c13-0.1,12.7,19.2,0.5,19.2h-9c-4.9,0-8.2-3.2-9-6.5h-8.1c-1.2,3.7-4,6.5-8.9,6.5h-9c-4.9,0-7.7-2.8-9-6.5h-8.1
			c-1.2,3.7-4,6.5-8.9,6.5h-9c-4.9,0-7.7-2.8-9-6.5h-8.1c-1.2,3.7-4,6.5-8.9,6.5h-9c-4.9,0-7.7-2.8-9-6.5H393
			c-0.8,3.3-4,6.5-8.9,6.5h-9C362.8,27.2,362.3,8.1,375.4,8z M386.9,20.2c-2.9-0.4-2.9-4.5-0.4-5.3c-0.4-0.4-1.2-1.2-2.4-0.8h-9
			c-4.9,0-4.9,7.3,0,7.3h9C385.6,21.5,386.1,21.1,386.9,20.2z M407.6,14.9c2.4,0.8,2.5,4.9,0,5.7c0.4,0.4,1.6,0.8,2.4,0.8h9
			c0.8,0,2-0.4,2.4-0.8c-2.4-0.8-2.5-4.9,0-5.7c-0.4-0.4-1.2-1.2-2.4-0.8h-9C409.3,14.1,408,14.5,407.6,14.9z M442.7,14.8
			c2.4,0.8,2.5,4.9,0,5.7c0.4,0.4,1.6,0.8,2.4,0.8h9c0.8,0,2-0.4,2.4-0.8c-2.4-0.8-2.5-4.9,0-5.7c-0.4-0.4-1.6-0.8-2.4-0.8h-9
			C444.8,13.6,443.2,14.4,442.7,14.8z M477.9,14.7c2.4,0.8,2.5,4.9,0,5.7c0.4,0.4,1.6,0.8,2.4,0.8h9c0.8,0,2-0.4,2.4-0.8
			c-2.4-0.8-2.5-4.9,0-5.7c-0.4-0.4-1.6-0.8-2.4-0.8h-9C479.1,13.5,478.3,14.3,477.9,14.7z M513,14.6c2.4,0.8,2.5,4.9-0.4,5.3
			c0.8,0.8,1.2,1.2,2.9,1.2h9c4.9,0,4.9-7.3,0-7.3h-9C514.2,13.4,513.4,14.2,513,14.6z"/>
	</g>
	<g>
		<path class="st0" d="M515.7,7.7h9c4.9,0,7.7,2.8,8.6,6.9h8.1c1.2-3.7,4-6.5,8.9-6.5h9c4.9,0,7.7,2.8,9,6.5h8.1
			c1.2-3.7,4-6.5,8.9-6.5h9c4.9,0,7.7,2.8,9,6.5h8.1c1.2-3.7,4-6.5,8.9-6.5h9c4.9,0,7.7,2.8,9,6.5h8.1c0.8-4.1,3.6-6.9,8.5-7h9
			c13-0.1,12.7,19.2,0.5,19.2h-9c-4.9,0-8.2-3.2-9-6.5h-8.1c-1.2,3.7-4,6.5-8.9,6.5h-9c-4.9,0-7.7-2.8-9-6.5h-8.1
			c-1.2,3.7-4,6.5-8.9,6.5h-9c-4.9,0-7.7-2.8-9-6.5h-8.1c-1.2,3.7-4,6.5-8.9,6.5h-9c-4.9,0-7.7-2.8-9-6.5h-8.1
			c-0.8,3.3-4,6.5-8.9,6.5h-9C503.1,26.9,502.7,7.7,515.7,7.7z M527.2,20c-2.9-0.4-2.9-4.5-0.4-5.3c-0.4-0.4-1.2-1.2-2.4-0.8h-9
			c-4.9,0-4.9,7.3,0,7.3h9C526,21.2,526.4,20.8,527.2,20z M548,14.6c2.4,0.8,2.5,4.9,0,5.7c0.4,0.4,1.6,0.8,2.4,0.8h9
			c0.8,0,2-0.4,2.4-0.8c-2.4-0.8-2.5-4.9,0-5.7c-0.4-0.4-1.2-1.2-2.4-0.8h-9C549.6,13.8,548.4,14.2,548,14.6z M583.1,14.5
			c2.4,0.8,2.5,4.9,0,5.7c0.4,0.4,1.6,0.8,2.4,0.8h9c0.8,0,2-0.4,2.4-0.8c-2.4-0.8-2.5-4.9,0-5.7c-0.4-0.4-1.6-0.8-2.4-0.8h-9
			C585.2,13.3,583.5,14.1,583.1,14.5z M618.2,14.4c2.4,0.8,2.5,4.9,0,5.7c0.4,0.4,1.6,0.8,2.4,0.8h9c0.8,0,2-0.4,2.4-0.8
			c-2.4-0.8-2.5-4.9,0-5.7c-0.4-0.4-1.6-0.8-2.4-0.8h-9C619.5,13.2,618.6,14,618.2,14.4z M653.4,14.4c2.4,0.8,2.5,4.9-0.4,5.3
			c0.8,0.8,1.2,1.2,2.9,1.2h9c4.9,0,4.9-7.3,0-7.3h-9C654.6,13.1,653.8,14,653.4,14.4z"/>
	</g>
	<g>
		<path class="st0" d="M656.2,7.7h9c4.9,0,7.7,2.8,8.6,6.9h8.1c1.2-3.7,4-6.5,8.9-6.5h9c4.9,0,7.7,2.8,9,6.5h8.1
			c1.2-3.7,4-6.5,8.9-6.5h9c4.9,0,7.7,2.8,9,6.5h8.1c1.2-3.7,4-6.5,8.9-6.5h9c4.9,0,7.7,2.8,9,6.5h8.1c0.8-4.1,3.6-6.9,8.5-7h9
			c13-0.1,12.7,19.2,0.5,19.2h-9c-4.9,0-8.2-3.2-9-6.5h-8.1c-1.2,3.7-4,6.5-8.9,6.5h-9c-4.9,0-7.7-2.8-9-6.5H744
			c-1.2,3.7-4,6.5-8.9,6.5h-9c-4.9,0-7.7-2.8-9-6.5h-8.1c-1.2,3.7-4,6.5-8.9,6.5h-9c-4.9,0-7.7-2.8-9-6.5h-8.1
			c-0.8,3.3-4,6.5-8.9,6.5h-9C643.6,26.9,643.1,7.7,656.2,7.7z M667.7,20c-2.9-0.4-2.9-4.5-0.4-5.3c-0.4-0.4-1.2-1.2-2.4-0.8h-9
			c-4.9,0-4.9,7.3,0,7.3h9C666.4,21.2,666.9,20.8,667.7,20z M688.5,14.6c2.4,0.8,2.5,4.9,0,5.7c0.4,0.4,1.6,0.8,2.4,0.8h9
			c0.8,0,2-0.4,2.4-0.8c-2.4-0.8-2.5-4.9,0-5.7c-0.4-0.4-1.2-1.2-2.4-0.8h-9C690.1,13.8,688.9,14.2,688.5,14.6z M723.6,14.5
			c2.4,0.8,2.5,4.9,0,5.7c0.4,0.4,1.6,0.8,2.4,0.8h9c0.8,0,2-0.4,2.4-0.8c-2.4-0.8-2.5-4.9,0-5.7c-0.4-0.4-1.6-0.8-2.4-0.8h-9
			C725.6,13.3,724,14.1,723.6,14.5z M758.7,14.4c2.4,0.8,2.5,4.9,0,5.7c0.4,0.4,1.6,0.8,2.4,0.8h9c0.8,0,2-0.4,2.4-0.8
			c-2.4-0.8-2.5-4.9,0-5.7c-0.4-0.4-1.6-0.8-2.4-0.8h-9C759.9,13.2,759.1,14,758.7,14.4z M793.8,14.4c2.4,0.8,2.5,4.9-0.4,5.3
			c0.8,0.8,1.2,1.2,2.9,1.2h9c4.9,0,4.9-7.3,0-7.3h-9C795.1,13.1,794.2,14,793.8,14.4z"/>
	</g>
</g>
</svg>
