<?xml version="1.0" encoding="utf-8"?>
<!-- Generator: Adobe Illustrator 24.2.1, SVG Export Plug-In . SVG Version: 6.00 Build 0)  -->
<!DOCTYPE svg PUBLIC "-//W3C//DTD SVG 1.1//EN" "http://www.w3.org/Graphics/SVG/1.1/DTD/svg11.dtd" [
	<!ENTITY ns_extend "http://ns.adobe.com/Extensibility/1.0/">
	<!ENTITY ns_ai "http://ns.adobe.com/AdobeIllustrator/10.0/">
	<!ENTITY ns_graphs "http://ns.adobe.com/Graphs/1.0/">
	<!ENTITY ns_vars "http://ns.adobe.com/Variables/1.0/">
	<!ENTITY ns_imrep "http://ns.adobe.com/ImageReplacement/1.0/">
	<!ENTITY ns_sfw "http://ns.adobe.com/SaveForWeb/1.0/">
	<!ENTITY ns_custom "http://ns.adobe.com/GenericCustomNamespace/1.0/">
	<!ENTITY ns_adobe_xpath "http://ns.adobe.com/XPath/1.0/">
]>
<svg version="1.1" id="Layer_1" xmlns:x="&ns_extend;" xmlns:i="&ns_ai;" xmlns:graph="&ns_graphs;"
	 xmlns="http://www.w3.org/2000/svg" xmlns:xlink="http://www.w3.org/1999/xlink" x="0px" y="0px" viewBox="0 0 120.7 120.7"
	 style="enable-background:new 0 0 120.7 120.7;" xml:space="preserve">
<style type="text/css">
	.st0{fill:#EEEEEE;}
</style>
<metadata>
	<sfw  xmlns="&ns_sfw;">
		<slices></slices>
		<sliceSourceBounds  bottomLeftOrigin="true" height="120.7" width="120.7" x="0" y="0"></sliceSourceBounds>
	</sfw>
</metadata>
<path class="st0" d="M120.7,60.3c0,33.3-27,60.4-60.3,60.4c-18.1,0-34.3-7.9-45.3-20.5c-7.1-7.9-12-17.7-14-28.4
	C0.4,68.1,0,64.3,0,60.3C0,27,27,0,60.3,0C79.7,0,97,9.2,108,23.4c6.4,8.3,10.8,18.3,12.2,29.2C120.5,55.1,120.7,57.7,120.7,60.3z"
	/>
<g transform="translate(0,-952.36218)">
	<path d="M39.2,990.2c-0.8,0.1-1.4,0.8-1.4,1.5v42.1c0,0.9,0.7,1.5,1.5,1.5h42.1c0.9,0,1.5-0.7,1.5-1.5v-21c0-0.9-0.7-1.5-1.5-1.5
		c-0.9,0-1.5,0.7-1.5,1.5v0.1v19.5H40.8v-39.1h19.5c0.9,0,1.5-0.7,1.5-1.5s-0.7-1.5-1.5-1.5h-0.1h-21
		C39.3,990.2,39.2,990.2,39.2,990.2z M68.2,990.2c-0.9,0.1-1.5,0.8-1.5,1.6c0.1,0.9,0.8,1.5,1.6,1.5l0,0h9.4l-21.5,21.5
		c-0.6,0.6-0.6,1.6,0,2.1c0.6,0.6,1.6,0.6,2.2,0l0,0l21.5-21.5v9.4c0,0.9,0.7,1.5,1.5,1.5c0.9,0,1.5-0.7,1.5-1.5v-0.1v-13
		c0-0.9-0.7-1.5-1.5-1.5h-13C68.3,990.2,68.3,990.2,68.2,990.2L68.2,990.2z"/>
</g>
</svg>
