<?xml version="1.0" encoding="utf-8"?>
<!-- Generator: Adobe Illustrator 23.0.1, SVG Export Plug-In . SVG Version: 6.00 Build 0)  -->
<svg version="1.1" id="Layer_1" xmlns="http://www.w3.org/2000/svg" xmlns:xlink="http://www.w3.org/1999/xlink" x="0px" y="0px"
	 viewBox="0 0 120.7 120.7" style="enable-background:new 0 0 120.7 120.7;" xml:space="preserve">
<style type="text/css">
	.st0{fill:#EEEEEE;}
	.st1{fill:#002248;}
</style>
<path class="st0" d="M120.7,60.3c0,33.3-27,60.4-60.3,60.4c-18.1,0-34.3-7.9-45.3-20.5c-7.1-7.9-12-17.7-14-28.4
	C0.4,68.1,0,64.3,0,60.3C0,27,27,0,60.3,0C79.7,0,97,9.2,108,23.4c6.4,8.3,10.8,18.3,12.2,29.2C120.5,55.1,120.7,57.7,120.7,60.3z"
	/>
<g transform="translate(0,-952.36218)">
	<path class="st1" d="M39.2,990.2c-0.8,0.1-1.4,0.8-1.4,1.5v42.1c0,0.9,0.7,1.5,1.5,1.5h42.1c0.9,0,1.5-0.7,1.5-1.5v-21
		c0-0.9-0.7-1.5-1.5-1.5c-0.9,0-1.5,0.7-1.5,1.5v0.1v19.5H40.8v-39.1h19.5c0.9,0,1.5-0.7,1.5-1.5s-0.7-1.5-1.5-1.5h-0.1h-21
		C39.3,990.2,39.2,990.2,39.2,990.2z M68.2,990.2c-0.9,0.1-1.5,0.8-1.5,1.6c0.1,0.9,0.8,1.5,1.6,1.5l0,0h9.4l-21.5,21.5
		c-0.6,0.6-0.6,1.6,0,2.1c0.6,0.6,1.6,0.6,2.2,0l0,0l21.5-21.5v9.4c0,0.9,0.7,1.5,1.5,1.5c0.9,0,1.5-0.7,1.5-1.5v-0.1v-13
		c0-0.9-0.7-1.5-1.5-1.5h-13C68.3,990.2,68.3,990.2,68.2,990.2L68.2,990.2z"/>
</g>
</svg>
