<?xml version="1.0" encoding="utf-8"?>
<!-- Generator: Adobe Illustrator 23.0.1, SVG Export Plug-In . SVG Version: 6.00 Build 0)  -->
<svg version="1.1" id="Layer_1" xmlns="http://www.w3.org/2000/svg" xmlns:xlink="http://www.w3.org/1999/xlink" x="0px" y="0px"
	 viewBox="0 0 120.7 120.7" style="enable-background:new 0 0 120.7 120.7;" xml:space="preserve">
<style type="text/css">
	.st0{fill:#EEEEEE;}
	.st1{fill:#002248;}
</style>
<path class="st0" d="M120.7,60.3c0,33.3-27,60.4-60.3,60.4c-18.1,0-34.3-7.9-45.3-20.5c-7.1-7.9-12-17.7-14-28.4
	C0.4,68.1,0,64.3,0,60.3C0,27,27,0,60.3,0C79.7,0,97,9.2,108,23.4c6.4,8.3,10.8,18.3,12.2,29.2C120.5,55.1,120.7,57.7,120.7,60.3z"
	/>
<g>
	<polygon class="st1" points="23.8,43.3 23.8,76.5 32.9,71.7 32.9,48.7 	"/>
	<polygon class="st1" points="25.3,81.9 54.2,98.2 54.4,87.9 34.4,76.6 	"/>
	<polygon class="st1" points="61.5,98.9 90.1,82.2 81.4,76.8 61.5,88.4 	"/>
	<polygon class="st1" points="92.7,77 92.8,47.1 84.2,55.6 84.2,72.9 	"/>
	<polygon class="st1" points="55.8,21.8 26.3,38.8 35.1,44.1 55.5,32.3 	"/>
	<polygon class="st1" points="83.7,35.8 60.6,22.5 60.5,30.8 77,40.4 	"/>
	<polygon class="st1" points="49.5,54 42,61.5 57,77 101.9,27.3 57.5,62 	"/>
</g>
</svg>
