<?xml version="1.0" encoding="utf-8"?>
<!-- Generator: Adobe Illustrator 22.1.0, SVG Export Plug-In . SVG Version: 6.00 Build 0)  -->
<svg version="1.1" id="Layer_1" xmlns="http://www.w3.org/2000/svg" xmlns:xlink="http://www.w3.org/1999/xlink" x="0px" y="0px"
	 viewBox="0 0 50 35.9" style="enable-background:new 0 0 50 35.9;" xml:space="preserve">
<style type="text/css">
	.st0{display:none;fill:#FFFFFF;}
	.st1{stroke:#000000;stroke-linecap:round;stroke-linejoin:round;stroke-miterlimit:10;}
</style>
<ellipse class="st0" cx="25" cy="18.9" rx="24.9" ry="25"/>
<polygon class="st1" points="19.9,24.3 20,17 20.1,9.8 26.3,13.5 32.6,17.1 26.2,20.7 "/>
<g>
	<path d="M42,2c3.3,0,6,2.7,6,6v19.9c0,3.3-2.7,6-6,6H8c-3.3,0-6-2.7-6-6V8c0-3.3,2.7-6,6-6H42 M42,0H8C3.6,0,0,3.6,0,8v19.9
		c0,4.4,3.6,8,8,8h34c4.4,0,8-3.6,8-8V8C50,3.6,46.4,0,42,0L42,0z"/>
</g>
</svg>
