<svg xmlns="http://www.w3.org/2000/svg" viewBox="0 0 130 45" width="130" height="45">
	<style>
		tspan { white-space:pre }
		.shp0 { fill: #0fe1e1 } 
	</style>
	<path id="logo" class="shp0" d="M28.83 15.16C28.08 11 30.55 3.95 30.55 3.95C28.53 4.46 25.09 7.01 24.48 8.53C23.87 10.06 28.64 17.39 28.83 15.16ZM46.64 23.2C46.64 23.2 44.72 21.47 42.49 21.37C40.27 21.27 37.94 23.41 37.94 23.41C37.94 23.41 34.8 26.77 34.4 25.85C33.99 24.94 30.65 19.43 30.65 19.43C29.71 17.88 26.5 15.58 25.36 14.04C24.23 12.49 23.47 10.68 23.06 9.45C22.66 8.23 22.15 1 22.15 1C22.15 1 15.47 4.36 13.24 10.68C11.02 16.99 14.89 21.95 15.07 23.61C15.13 24.27 15.57 25.95 15.07 26.06C14.56 26.16 11.42 22.95 8.59 22.28C4.44 21.47 1.83 23.29 1 24.83C4.04 24.12 7.27 25.41 8.28 27.07C9.67 29.34 12.13 36.44 14.46 39.6C16.79 42.76 21.75 45 26.1 44.9C30.45 44.8 32.88 42.45 34.09 41.03C35.31 39.6 40.36 31.35 41.99 28.6C43.6 25.85 47.45 26.01 47.96 26.01C48.52 26.01 46.64 23.2 46.64 23.2ZM42.24 25.24C41.97 25.24 41.73 25.13 41.56 24.96C41.49 24.89 41.44 24.81 41.4 24.74C41.37 24.68 41.34 24.62 41.32 24.56C41.3 24.47 41.28 24.37 41.28 24.27C41.28 24.17 41.3 24.08 41.32 23.99C41.34 23.93 41.37 23.87 41.4 23.81C41.44 23.73 41.49 23.65 41.56 23.59C41.73 23.42 41.97 23.3 42.24 23.3C42.77 23.3 43.2 23.74 43.2 24.27C43.2 24.81 42.77 25.24 42.24 25.24ZM89.7 22.73L83.19 43.89C83.01 44.54 82.39 45 81.67 45L80.92 45C80.2 45 79.58 44.54 79.4 43.88L74.55 30.51C73.68 28.23 73.02 29.6 72.77 30.51L67.95 43.88C67.77 44.54 67.15 45 66.44 45L65.68 45C64.97 45 64.35 44.54 64.17 43.89L57.65 22.73C57.38 21.77 57.89 20.83 58.93 20.83L60.69 20.83C61.42 20.83 62.05 21.31 62.22 21.98L66.03 36.64C66.03 36.64 66.89 37.42 67.29 35.13L71.22 21.96C71.4 21.3 72.03 20.83 72.74 20.83L74.47 20.83C75.18 20.83 75.8 21.29 75.98 21.95L80 34.98C80.41 36.57 81.1 37.11 81.85 34.95L85.09 21.99C85.26 21.31 85.89 20.83 86.62 20.83L88.43 20.83C89.47 20.83 89.97 21.77 89.7 22.73ZM97.87 34.54L111.15 34.54C111.59 34.54 111.99 34.37 112.27 34.1C112.56 33.83 112.74 33.46 112.74 33.04C112.74 25.79 109.08 20.58 102.07 20.58C95.21 20.58 90.68 25.89 90.68 32.89C90.68 40.39 95.87 44.91 102.94 44.91C105.9 44.91 108.97 43.26 111.09 41.54C111.74 41.02 111.84 40.09 111.3 39.46L110.73 38.79C110.19 38.16 109.21 38.03 108.53 38.53C107.13 39.58 105.08 40.46 103.47 40.46C99.92 40.46 97.74 39.29 96.66 36.41C95.91 34.42 95.91 34.42 97.87 34.54ZM96.23 29.2C96.64 27.43 97.77 26.05 99.58 25.41C100.29 25.16 101.1 25.02 102.02 25.02C102.22 25.02 102.43 25.03 102.62 25.04C102.81 25.05 103 25.08 103.17 25.1C103.53 25.15 103.86 25.23 104.16 25.33C104.38 25.4 104.59 25.49 104.78 25.59C106.13 26.29 106.78 27.59 107.12 29.23C107.45 30.99 108.03 30.99 105.54 30.99L97.79 30.99C95.37 30.99 95.83 30.99 96.23 29.2ZM120.73 17.32L120.73 42.43C120.73 43.68 120.12 44.3 118.91 44.3L117.63 44.3C116.41 44.3 115.81 43.68 115.81 42.43L115.81 17.32C115.81 16.09 116.41 15.48 117.63 15.48L118.91 15.48C120.12 15.48 120.73 16.09 120.73 17.32ZM129 17.32L129 42.43C129 43.68 128.39 44.3 127.19 44.3L125.9 44.3C124.69 44.3 124.09 43.68 124.09 42.43L124.09 17.32C124.09 16.09 124.69 15.48 125.9 15.48L127.19 15.48C128.39 15.48 129 16.09 129 17.32Z" />
</svg>