<svg xmlns:x="http://ns.adobe.com/Extensibility/1.0/" xmlns:i="http://ns.adobe.com/AdobeIllustrator/10.0/" xmlns:graph="http://ns.adobe.com/Graphs/1.0/" xmlns="http://www.w3.org/2000/svg" xmlns:xlink="http://www.w3.org/1999/xlink" version="1.1" style="" xml:space="preserve" width="35.99999829701028" height="59.42857094200292"><rect id="backgroundrect" width="97.44898009578283" height="62.14285750778354" x="-38.57143020629883" y="-10" fill="none" stroke="none" class="" style=""/>
<style type="text/css">
	.st0{fill:#00bcd8 ;}
</style>
<metadata>
	<sfw xmlns="http://ns.adobe.com/SaveForWeb/1.0/">
		<slices/>
		<sliceSourceBounds bottomLeftOrigin="true" height="57.5" width="95" x="0" y="0"/>
	</sfw>
</metadata>

<g class="currentLayer" style=""><title>Layer 1</title><g id="svg_1" class="" transform="rotate(-89.4761962890625 17.152072906494137,29.04067993164062) ">
	<path class="st0" d="M-10.279043686059659,18.280404335956703 C-10.279043686059659,16.779306488780186 -9.701698360222544,15.335943174187392 -8.604742241132016,14.181252522513148 c2.2516467707647645,-2.2516467707647645 5.946656856122328,-2.2516467707647645 8.198303626887093,0 l17.551297905448422,17.493563372864713 L34.69615719665194,14.12351798992944 C36.947803967416675,11.871871219164674 40.642814052774256,11.871871219164674 42.894460823539006,14.12351798992944 s2.2516467707647645,5.946656856122328 0,8.198303626887093 L21.244011104647043,43.9722713357085 c-1.0969561190905266,1.0969561190905266 -2.540319433683324,1.6743014449276459 -4.099151813443547,1.6743014449276459 s-3.0021956943530195,-0.6350798584208308 -4.099151813443547,-1.6743014449276459 L-8.604742241132016,22.379556149400237 C-9.701698360222544,21.224865497726 -10.279043686059659,19.723767650549497 -10.279043686059659,18.280404335956703 z" id="svg_2"/>
</g></g></svg>