<?xml version="1.0" encoding="utf-8"?>
<!-- Generator: Adobe Illustrator 23.0.6, SVG Export Plug-In . SVG Version: 6.00 Build 0)  -->
<!DOCTYPE svg PUBLIC "-//W3C//DTD SVG 1.1//EN" "http://www.w3.org/Graphics/SVG/1.1/DTD/svg11.dtd" [
	<!ENTITY ns_extend "http://ns.adobe.com/Extensibility/1.0/">
	<!ENTITY ns_ai "http://ns.adobe.com/AdobeIllustrator/10.0/">
	<!ENTITY ns_graphs "http://ns.adobe.com/Graphs/1.0/">
	<!ENTITY ns_vars "http://ns.adobe.com/Variables/1.0/">
	<!ENTITY ns_imrep "http://ns.adobe.com/ImageReplacement/1.0/">
	<!ENTITY ns_sfw "http://ns.adobe.com/SaveForWeb/1.0/">
	<!ENTITY ns_custom "http://ns.adobe.com/GenericCustomNamespace/1.0/">
	<!ENTITY ns_adobe_xpath "http://ns.adobe.com/XPath/1.0/">
]>
<svg version="1.1" id="Layer_1" xmlns:x="&ns_extend;" xmlns:i="&ns_ai;" xmlns:graph="&ns_graphs;"
	 xmlns="http://www.w3.org/2000/svg" xmlns:xlink="http://www.w3.org/1999/xlink" x="0px" y="0px" viewBox="0 0 120.7 120.7"
	 style="enable-background:new 0 0 120.7 120.7;" xml:space="preserve">
<style type="text/css">
	.st0{fill:#00BCD8;}
	.st1{fill:#FFFFFF;}
</style>
<metadata>
	<sfw  xmlns="&ns_sfw;">
		<slices></slices>
		<sliceSourceBounds  bottomLeftOrigin="true" height="120.7" width="120.7" x="0.5" y="0"></sliceSourceBounds>
	</sfw>
</metadata>
<path class="st0" d="M121.2,60.3c0,33.3-27,60.4-60.3,60.4c-18.1,0-34.3-7.9-45.3-20.5c-7.1-7.9-12-17.7-14-28.4
	c-0.7-3.7-1.1-7.5-1.1-11.5C0.5,27,27.5,0,60.8,0c19.4,0,36.7,9.2,47.7,23.4c6.4,8.3,10.8,18.3,12.2,29.2
	C121,55.1,121.2,57.7,121.2,60.3z"/>
<g>
	<path class="st1" d="M69.3,86.4l-3.1-9.5l-2-6.2l-2.3-7l-0.7-1.8L60.9,61l-0.2-0.3l-0.1-0.1h-0.1h-0.1l-0.1,0.1
		c0,0.1-0.1,0.2-0.1,0.2L60,61.2l-1,3.1l-3.4,9.8l-3.3,8.8l-4.9,13.2c4.1,1.5,8.5,2.4,13.2,2.5c4.3,0,8.4-0.7,12.3-2L71.7,93
		L69.3,86.4z"/>
	<path class="st1" d="M99,60.6c0.1-21.2-16.8-38.3-37.8-38.5S23,39,22.9,60.1C22.7,70.7,27,80.4,34.1,87.5c0.1,0.1,0.1,0.1,0.2,0.2
		l8.4-14.4l2.9-5.5l2.4-5.3l2.2-5.5l2-5.7l2.4-7l2-6.3l2.5-8.2l1.8-5.9l0.9,3l1.7,6.2l1.5,5.5l1.7,5.6l1.7,5.4l1.6,4.7l1.7,4.9
		l2,4.9l2.6,5.4l3.1,6.1l3.1,5.3l4.7,7.1C94.4,81,98.9,71.3,99,60.6z"/>
</g>
</svg>
