<?xml version="1.0" encoding="utf-8"?>
<!-- Generator: Adobe Illustrator 23.0.6, SVG Export Plug-In . SVG Version: 6.00 Build 0)  -->
<!DOCTYPE svg PUBLIC "-//W3C//DTD SVG 1.1//EN" "http://www.w3.org/Graphics/SVG/1.1/DTD/svg11.dtd" [
	<!ENTITY ns_extend "http://ns.adobe.com/Extensibility/1.0/">
	<!ENTITY ns_ai "http://ns.adobe.com/AdobeIllustrator/10.0/">
	<!ENTITY ns_graphs "http://ns.adobe.com/Graphs/1.0/">
	<!ENTITY ns_vars "http://ns.adobe.com/Variables/1.0/">
	<!ENTITY ns_imrep "http://ns.adobe.com/ImageReplacement/1.0/">
	<!ENTITY ns_sfw "http://ns.adobe.com/SaveForWeb/1.0/">
	<!ENTITY ns_custom "http://ns.adobe.com/GenericCustomNamespace/1.0/">
	<!ENTITY ns_adobe_xpath "http://ns.adobe.com/XPath/1.0/">
]>
<svg version="1.1" id="Layer_1" xmlns:x="&ns_extend;" xmlns:i="&ns_ai;" xmlns:graph="&ns_graphs;"
	 xmlns="http://www.w3.org/2000/svg" xmlns:xlink="http://www.w3.org/1999/xlink" x="0px" y="0px" viewBox="0 0 120.7 120.7"
	 style="enable-background:new 0 0 120.7 120.7;" xml:space="preserve">
<style type="text/css">
	.st0{fill:#00BCD8;}
	.st1{fill:#FFFFFF;}
</style>
<metadata>
	<sfw  xmlns="&ns_sfw;">
		<slices></slices>
		<sliceSourceBounds  bottomLeftOrigin="true" height="120.7" width="120.7" x="0" y="0"></sliceSourceBounds>
	</sfw>
</metadata>
<path class="st0" d="M120.7,60.3c0,33.3-27,60.4-60.3,60.4c-18.1,0-34.3-7.9-45.3-20.5c-7.1-7.9-12-17.7-14-28.4
	C0.4,68.1,0,64.3,0,60.3C0,27,27,0,60.3,0C79.7,0,97,9.2,108,23.4c6.4,8.3,10.8,18.3,12.2,29.2C120.5,55.1,120.7,57.7,120.7,60.3z"
	/>
<polygon class="st1" points="60.5,25 60.5,33.8 75.6,42.5 82.1,37.6 "/>
<polygon class="st1" points="56.1,25 56.1,33.8 36.7,45.2 28.9,40.7 "/>
<polygon class="st1" points="26.7,44.5 34.2,49 34.2,71.1 26.7,75.6 "/>
<polygon class="st1" points="28.4,79.5 35.9,75.2 56,86.7 56,95.7 "/>
<polygon class="st1" points="60.5,95.7 60.5,86.8 80.7,75.1 88.4,79.6 "/>
<polygon class="st1" points="89.9,48.1 89.9,75.4 82.3,71 82.3,56.4 "/>
<polygon class="st1" points="51.7,54.5 44.7,61.6 58.6,76 100.9,28.9 58.8,61.7 "/>
</svg>
